<svg xmlns="http://www.w3.org/2000/svg" xmlns:xlink="http://www.w3.org/1999/xlink" viewBox="0 0 60 60">
  <defs>
    <radialGradient id="radial-gradient" cx="30" cy="30" r="30" gradientUnits="userSpaceOnUse">
      <stop offset="0" stop-color="#b3b3b3"/>
      <stop offset="0.12" stop-color="#adadad"/>
      <stop offset="0.64" stop-color="#9b9b9b"/>
      <stop offset="1" stop-color="#949494"/>
    </radialGradient>
    <linearGradient id="linear-gradient" x1="15.074" y1="-303.193" x2="27.746" y2="-314.487" gradientTransform="matrix(1, 0, 0, -1, 0, -282.634)" gradientUnits="userSpaceOnUse">
      <stop offset="0.225" stop-color="#32d4f5"/>
      <stop offset="0.604" stop-color="#2ec7e9"/>
      <stop offset="0.903" stop-color="#209ec5"/>
      <stop offset="1" stop-color="#198ab3"/>
    </linearGradient>
  </defs>
  <g id="Grey_background" data-name="Grey background">
    <g>
      <circle cx="30" cy="30" r="30" fill="#fff"/>
      <circle cx="30" cy="30" r="30" opacity="0.35" fill="url(#radial-gradient)"/>
    </g>
  </g>
  <g id="Layer_1" data-name="Layer 1">
    <g>
      <path d="M38.74,18.818A11.37,11.37,0,0,0,34.2,17.9c-2.666-.064-5.02-.175-5.48,1.142L25.305,32.39a10.043,10.043,0,0,1,5.215-1.315A6.355,6.355,0,0,1,34.561,32.1a.49.49,0,0,0,.656-.225.383.383,0,0,0,.029-.073L39,19.405A.488.488,0,0,0,38.74,18.818Z" fill="#50e6ff"/>
      <path d="M31.4,21.12a5.039,5.039,0,0,1-3.7,1.043c-3.962,0-6.377-2.692-10.786-2.855a.492.492,0,0,0-.49.346L12.676,32.026A.49.49,0,0,0,13,32.64a.48.48,0,0,0,.118.021c4.167.236,5.977,2.8,10.536,2.843a6.187,6.187,0,0,0,3.593-.685Z" fill="url(#linear-gradient)"/>
      <path d="M40.5,14.264a1.159,1.159,0,0,0-1.444.772L29.145,47.705a1.156,1.156,0,1,0,2.2.706l.01-.032L41.267,15.71a1.158,1.158,0,0,0-.769-1.446Z" fill="#0078d4"/>
      <path d="M28.721,19.045c.108,1.339,2.832.42,2.756,1.695-.081,1.349-1.828,1.383-3.7,1.423C27.778,22.163,28.719,19.025,28.721,19.045Z" fill="#1b8ab3"/>
    </g>
  </g>
</svg>
