<svg id="Shapes" xmlns="http://www.w3.org/2000/svg" xmlns:xlink="http://www.w3.org/1999/xlink" viewBox="0 0 58.5 58.5">
  <defs>
    <linearGradient id="linear-gradient" x1="29.26" y1="493.93" x2="29.26" y2="478.31" gradientTransform="matrix(1, 0, 0, -1, 0, 519)" gradientUnits="userSpaceOnUse">
      <stop offset="0" stop-color="#5ea0ef"/>
      <stop offset="0.18" stop-color="#589eed"/>
      <stop offset="0.41" stop-color="#4897e9"/>
      <stop offset="0.66" stop-color="#2e8ce1"/>
      <stop offset="0.94" stop-color="#0a7cd7"/>
      <stop offset="1" stop-color="#0078d4"/>
    </linearGradient>
    <linearGradient id="linear-gradient-2" x1="28.81" y1="502.3" x2="29.95" y2="488.11" xlink:href="#linear-gradient"/>
  </defs>
  <circle cx="29.25" cy="29.25" r="29" fill="#fff" stroke="#ccc" stroke-width="0.5"/>
  <rect x="10.67" y="10.67" width="37.16" height="37.16" fill="#fff"/>
  <g>
    <path d="M14.16,35.3a16.17,16.17,0,0,1,2.2-15.86,4.28,4.28,0,0,1-1.54-1.83,18.68,18.68,0,0,0-2.58,18.94A7,7,0,0,1,14.16,35.3Zm8.35-23.38a6.77,6.77,0,0,1,1.36,2A16.74,16.74,0,0,1,29.25,13,16.19,16.19,0,0,1,38.79,16,4.82,4.82,0,0,1,40,14.5h0l.27-.2A18.63,18.63,0,0,0,22.51,11.92ZM44.34,23.2A16.13,16.13,0,0,1,42.14,39a5,5,0,0,1,1,.88,4.87,4.87,0,0,1,.59.95,18.68,18.68,0,0,0,2.58-18.94A6.82,6.82,0,0,1,44.34,23.2ZM34.63,44.66a16.12,16.12,0,0,1-5.38.86h0a16.1,16.1,0,0,1-9.54-3.06A4.48,4.48,0,0,1,18.5,44h0l-.27.2a18.71,18.71,0,0,0,17.83,2.4A6.73,6.73,0,0,1,34.63,44.66Z" fill="#0078d4"/>
    <path d="M20.83,13.53a4.38,4.38,0,1,1-.09-.1Z" fill="#32bedd"/>
    <path d="M19.16,18.38a2.21,2.21,0,0,0,.08-3.12l-.08-.08a2.22,2.22,0,0,0-3.12,0h0A2.21,2.21,0,0,0,16,18.3l.08.08h0a2.21,2.21,0,0,0,3.12.06l.05-.06" fill="#fff"/>
    <path d="M38.46,13.53a4.6,4.6,0,1,1,0,6.61,4.61,4.61,0,0,1,0-6.5Z" fill="#32bedd"/>
    <path d="M43.31,15.18a2.21,2.21,0,1,0,0,3.2h0a2.22,2.22,0,0,0,.08-3.12.3.3,0,0,1-.08-.08" fill="#fff"/>
    <path d="M37.67,45a4.38,4.38,0,1,1,.09.1Z" fill="#32bedd"/>
    <path d="M39.34,40.1a2.21,2.21,0,0,0-.08,3.12l.08.08a2.2,2.2,0,0,0,3.11.05l.06-.05a2.21,2.21,0,0,0,.08-3.12l-.08-.08h0A2.21,2.21,0,0,0,39.4,40l-.06.06" fill="#fff"/>
    <path d="M20,45a4.6,4.6,0,1,1,0-6.51h0A4.61,4.61,0,0,1,20,45Z" fill="#32bedd"/>
    <path d="M15.19,43.3a2.21,2.21,0,1,0,0-3.2h0a2.22,2.22,0,0,0-.08,3.12l.08.08" fill="#fff"/>
    <path d="M37,37.88a1.68,1.68,0,0,0,1.68-1.68h0V36c-.6-5.24-3.66-9.54-9.41-9.54S20.44,30.1,19.87,36a1.66,1.66,0,0,0,1.47,1.84H37Z" fill="url(#linear-gradient)"/>
    <path d="M29.25,27.72a5.25,5.25,0,0,1-2.86-.84l2.86,7.38L32.05,27A5.26,5.26,0,0,1,29.25,27.72Z" fill="#fff" opacity="0.8" style="isolation: isolate"/>
    <circle cx="29.27" cy="22.45" r="5.27" fill="url(#linear-gradient-2)"/>
  </g>
</svg>
