<svg id="Shapes" xmlns="http://www.w3.org/2000/svg" xmlns:xlink="http://www.w3.org/1999/xlink" viewBox="0 0 60 60">
  <defs>
    <radialGradient id="radial-gradient" cx="30" cy="30" r="30" gradientUnits="userSpaceOnUse">
      <stop offset="0" stop-color="#b3b3b3"/>
      <stop offset="0.12" stop-color="#adadad"/>
      <stop offset="0.64" stop-color="#9b9b9b"/>
      <stop offset="1" stop-color="#949494"/>
    </radialGradient>
    <linearGradient id="linear-gradient" x1="14.867" y1="28" x2="45.133" y2="28" gradientUnits="userSpaceOnUse">
      <stop offset="0" stop-color="#005ba1"/>
      <stop offset="0.07" stop-color="#0060a9"/>
      <stop offset="0.36" stop-color="#0071c8"/>
      <stop offset="0.52" stop-color="#0078d4"/>
      <stop offset="0.64" stop-color="#0074cd"/>
      <stop offset="0.82" stop-color="#006abb"/>
      <stop offset="1" stop-color="#005ba1"/>
    </linearGradient>
  </defs>
  <g>
    <g>
      <circle cx="30" cy="30" r="30" fill="#fff"/>
      <circle cx="30" cy="30" r="30" opacity="0.35" fill="url(#radial-gradient)"/>
    </g>
    <g>
      <path d="M41.336,30.705A11.334,11.334,0,0,0,30.473,19.644V15.837h4.256V13h-5.2v6.644A11.334,11.334,0,0,0,18.664,30.705h-3.8V43H45.133v-12.3Z" fill-rule="evenodd" fill="url(#linear-gradient)"/>
      <path d="M16.759,41.108H19.6V32.6H16.759Z" fill="#32bedd" fill-rule="evenodd"/>
      <path d="M21.488,41.108h2.837V32.6H21.488Z" fill="#50e6ff" fill-rule="evenodd"/>
      <path d="M26.217,41.108h2.837V32.6H26.217Z" fill="#9cebff" fill-rule="evenodd"/>
      <path d="M30.946,41.108h2.837V32.6H30.946Z" fill="#9cebff" fill-rule="evenodd"/>
      <path d="M35.675,41.108h2.837V32.6H35.675Z" fill="#50e6ff" fill-rule="evenodd"/>
      <path d="M40.4,41.108h2.837V32.6H40.4Z" fill="#32bedd" fill-rule="evenodd"/>
    </g>
  </g>
</svg>
