<svg id="Shapes" xmlns="http://www.w3.org/2000/svg" xmlns:xlink="http://www.w3.org/1999/xlink" viewBox="0 0 60 60">
  <defs>
    <radialGradient id="radial-gradient" cx="30" cy="30" r="30" gradientUnits="userSpaceOnUse">
      <stop offset="0" stop-color="#b3b3b3"/>
      <stop offset="0.12" stop-color="#adadad"/>
      <stop offset="0.64" stop-color="#9b9b9b"/>
      <stop offset="1" stop-color="#949494"/>
    </radialGradient>
    <linearGradient id="linear-gradient" x1="27.633" y1="45" x2="27.633" y2="23.799" gradientUnits="userSpaceOnUse">
      <stop offset="0" stop-color="#004dae"/>
      <stop offset="0.21" stop-color="#0061c4"/>
      <stop offset="0.51" stop-color="#0078dd"/>
      <stop offset="0.78" stop-color="#0086ec"/>
      <stop offset="1" stop-color="#008bf1"/>
    </linearGradient>
    <linearGradient id="linear-gradient-2" x1="41.103" y1="15" x2="41.103" y2="27.518" gradientUnits="userSpaceOnUse">
      <stop offset="0" stop-color="#32d4f5"/>
      <stop offset="0.2" stop-color="#30cdef"/>
      <stop offset="0.5" stop-color="#29bade"/>
      <stop offset="0.84" stop-color="#1f9ac2"/>
      <stop offset="1" stop-color="#198ab3"/>
    </linearGradient>
  </defs>
  <g>
    <g>
      <g>
        <circle cx="30" cy="30" r="30" fill="#fff"/>
        <circle cx="30" cy="30" r="30" fill="#fff"/>
        <circle cx="30" cy="30" r="30" fill="#fff"/>
      </g>
      <g>
        <path d="M42.225,38.352a6.648,6.648,0,0,0-5.695-6.445A8.371,8.371,0,0,0,28,23.8a8.573,8.573,0,0,0-8.107,5.675,7.883,7.883,0,0,0-6.85,7.7A8.106,8.106,0,0,0,21.269,45h14.41A6.729,6.729,0,0,0,42.225,38.352Z" fill="#fff"/>
        <g>
          <path d="M43.961,28.73l-.235,1.016a1.817,1.817,0,0,1-1.631,1.4l-.139,0H40.25a1.816,1.816,0,0,1-1.734-1.273l-.037-.135-.234-1.015Z" fill="#fff"/>
          <path d="M41.1,15a5.856,5.856,0,0,1,5.856,5.856,6.44,6.44,0,0,1-2.234,4.718.205.205,0,0,0-.057.1l-.426,1.844H41.709V22.067a.606.606,0,0,0-1.212,0v5.451H37.964l-.425-1.844a.191.191,0,0,0-.057-.1,6.437,6.437,0,0,1-2.235-4.718A5.856,5.856,0,0,1,41.1,15ZM40.5,18.837v1.211a.606.606,0,0,0,1.212,0V18.837a.606.606,0,0,0-1.212,0ZM44.56,20.02a.606.606,0,0,0-.856,0l-.857.857a.606.606,0,1,0,.857.857l.856-.857A.605.605,0,0,0,44.56,20.02Zm-6.058,0a.606.606,0,1,0-.856.857l.856.857a.606.606,0,1,0,.857-.857Z" fill="#fff"/>
        </g>
      </g>
    </g>
    <g opacity="0.25">
      <g>
        <circle cx="30" cy="30" r="30" fill="#999"/>
        <circle cx="30" cy="30" r="30" fill="#999"/>
        <circle cx="30" cy="30" r="30" fill="#999"/>
      </g>
      <g>
        <path d="M42.225,38.352a6.648,6.648,0,0,0-5.695-6.445A8.371,8.371,0,0,0,28,23.8a8.573,8.573,0,0,0-8.107,5.675,7.883,7.883,0,0,0-6.85,7.7A8.106,8.106,0,0,0,21.269,45h14.41A6.729,6.729,0,0,0,42.225,38.352Z" fill="#999"/>
        <g>
          <path d="M43.961,28.73l-.235,1.016a1.817,1.817,0,0,1-1.631,1.4l-.139,0H40.25a1.816,1.816,0,0,1-1.734-1.273l-.037-.135-.234-1.015Z" fill="#999"/>
          <path d="M41.1,15a5.856,5.856,0,0,1,5.856,5.856,6.44,6.44,0,0,1-2.234,4.718.205.205,0,0,0-.057.1l-.426,1.844H41.709V22.067a.606.606,0,0,0-1.212,0v5.451H37.964l-.425-1.844a.191.191,0,0,0-.057-.1,6.437,6.437,0,0,1-2.235-4.718A5.856,5.856,0,0,1,41.1,15ZM40.5,18.837v1.211a.606.606,0,0,0,1.212,0V18.837a.606.606,0,0,0-1.212,0ZM44.56,20.02a.606.606,0,0,0-.856,0l-.857.857a.606.606,0,1,0,.857.857l.856-.857A.605.605,0,0,0,44.56,20.02Zm-6.058,0a.606.606,0,1,0-.856.857l.856.857a.606.606,0,1,0,.857-.857Z" fill="#999"/>
        </g>
      </g>
    </g>
    <g>
      <g>
        <circle cx="30" cy="30" r="30" fill="#fff"/>
        <circle cx="30" cy="30" r="30" opacity="0.35" fill="url(#radial-gradient)"/>
      </g>
      <g>
        <path d="M42.225,38.352a6.648,6.648,0,0,0-5.695-6.445A8.371,8.371,0,0,0,28,23.8a8.573,8.573,0,0,0-8.107,5.675,7.883,7.883,0,0,0-6.85,7.7A8.106,8.106,0,0,0,21.269,45h14.41A6.729,6.729,0,0,0,42.225,38.352Z" fill="url(#linear-gradient)"/>
        <g>
          <path d="M43.961,28.73l-.235,1.016a1.817,1.817,0,0,1-1.631,1.4l-.139,0H40.25a1.816,1.816,0,0,1-1.734-1.273l-.037-.135-.234-1.015Z" fill="#a3a3a3"/>
          <path d="M41.1,15a5.856,5.856,0,0,1,5.856,5.856,6.44,6.44,0,0,1-2.234,4.718.205.205,0,0,0-.057.1l-.426,1.844H41.709V22.067a.606.606,0,0,0-1.212,0v5.451H37.964l-.425-1.844a.191.191,0,0,0-.057-.1,6.437,6.437,0,0,1-2.235-4.718A5.856,5.856,0,0,1,41.1,15ZM40.5,18.837v1.211a.606.606,0,0,0,1.212,0V18.837a.606.606,0,0,0-1.212,0ZM44.56,20.02a.606.606,0,0,0-.856,0l-.857.857a.606.606,0,1,0,.857.857l.856-.857A.605.605,0,0,0,44.56,20.02Zm-6.058,0a.606.606,0,1,0-.856.857l.856.857a.606.606,0,1,0,.857-.857Z" fill="url(#linear-gradient-2)"/>
        </g>
      </g>
    </g>
  </g>
</svg>
