<svg id="Shapes" xmlns="http://www.w3.org/2000/svg" xmlns:xlink="http://www.w3.org/1999/xlink" viewBox="0 0 58.5 58.5">
  <defs>
    <linearGradient id="linear-gradient" x1="29.25" y1="9.28" x2="29.25" y2="49.22" gradientUnits="userSpaceOnUse">
      <stop offset="0.18" stop-color="#5ea0ef"/>
      <stop offset="1" stop-color="#0078d4"/>
    </linearGradient>
  </defs>
  <circle cx="29.25" cy="29.25" r="29" fill="#fff" stroke="#ccc" stroke-width="0.5"/>
  <rect x="10.53" y="9.28" width="37.44" height="39.94" fill="#fff"/>
  <path d="M29.25,16.77a10.9,10.9,0,0,1,4.37.88,11.11,11.11,0,0,1,3.57,2.42,11.63,11.63,0,0,1,2.4,3.56A11.19,11.19,0,0,1,40.48,28a16.56,16.56,0,0,1-.15,2.3,11.45,11.45,0,0,1-1.35,4,18.13,18.13,0,0,1-1.25,1.95c-.37.52-.71,1-1,1.41a7.07,7.07,0,0,0-.7,1.24,5.76,5.76,0,0,0-.41,1.37A9.68,9.68,0,0,0,35.49,42v3.49a3.82,3.82,0,0,1-.29,1.47,3.89,3.89,0,0,1-.8,1.19,4.08,4.08,0,0,1-1.19.8,3.77,3.77,0,0,1-1.46.29h-5a3.77,3.77,0,0,1-1.46-.29,4.08,4.08,0,0,1-1.19-.8,3.89,3.89,0,0,1-.8-1.19A3.82,3.82,0,0,1,23,45.47V42a9.37,9.37,0,0,0-.14-1.71,5.89,5.89,0,0,0-.41-1.35,7.59,7.59,0,0,0-.7-1.26c-.28-.43-.62-.9-1-1.41a18.08,18.08,0,0,1-1.23-1.93,12.77,12.77,0,0,1-.86-1.93,11.6,11.6,0,0,1-.51-2.07A16.56,16.56,0,0,1,18,28a10.9,10.9,0,0,1,.88-4.37,11.09,11.09,0,0,1,2.41-3.56,11.45,11.45,0,0,1,3.57-2.4A11,11,0,0,1,29.25,16.77ZM33,45.47V44.23H25.51v1.24a1.19,1.19,0,0,0,.37.88,1.17,1.17,0,0,0,.87.37h5a1.17,1.17,0,0,0,.87-.37A1.19,1.19,0,0,0,33,45.47ZM38,28a8.35,8.35,0,0,0-.69-3.39,9.12,9.12,0,0,0-1.87-2.79A8.22,8.22,0,0,0,32.66,20a8.94,8.94,0,0,0-3.41-.68,8.35,8.35,0,0,0-3.39.68,8.88,8.88,0,0,0-2.79,1.87,8.32,8.32,0,0,0-1.87,2.77A9,9,0,0,0,20.51,28a11.36,11.36,0,0,0,.35,3,9.74,9.74,0,0,0,.92,2.22A20.6,20.6,0,0,0,23,35c.42.57.81,1.17,1.19,1.8a9.61,9.61,0,0,1,.94,2.1,10.54,10.54,0,0,1,.41,2.79H33a9.1,9.1,0,0,1,1.33-4.87,20,20,0,0,1,1.19-1.8,18,18,0,0,0,1.19-1.83A10.1,10.1,0,0,0,37.62,31,12.2,12.2,0,0,0,38,28ZM29.25,14.27a1.19,1.19,0,0,1-.88-.37A1.21,1.21,0,0,1,28,13v-2.5a1.25,1.25,0,0,1,2.5,0V13a1.21,1.21,0,0,1-.37.87A1.19,1.19,0,0,1,29.25,14.27Zm-15,13.11H11.78A1.23,1.23,0,0,1,10.9,27a1.23,1.23,0,0,1,0-1.76,1.23,1.23,0,0,1,.88-.37h2.49a1.23,1.23,0,0,1,.88.37,1.23,1.23,0,0,1,0,1.76A1.23,1.23,0,0,1,14.27,27.38Zm1,5.09a1.16,1.16,0,0,1,.87.37,1.22,1.22,0,0,1,.38.9,1.15,1.15,0,0,1-.22.68,1.6,1.6,0,0,1-.58.47l-.59.25-.8.33a7,7,0,0,1-.78.29,2.35,2.35,0,0,1-.62.14,1.19,1.19,0,0,1-.88-.37,1.22,1.22,0,0,1-.37-.9,1.12,1.12,0,0,1,.21-.68,1.54,1.54,0,0,1,.59-.47,5.28,5.28,0,0,0,.58-.25,8.34,8.34,0,0,1,.8-.33c.29-.11.55-.2.78-.3A1.81,1.81,0,0,1,15.31,32.47Zm3-12.58a1.19,1.19,0,0,1-.37.88,1.23,1.23,0,0,1-.88.37,1.19,1.19,0,0,1-.64-.18l-2.13-1.3a1.36,1.36,0,0,1-.6-1.08,1.17,1.17,0,0,1,.37-.87,1.19,1.19,0,0,1,.88-.37,1.24,1.24,0,0,1,.64.19l2.15,1.29a1.1,1.1,0,0,1,.43.45A1.32,1.32,0,0,1,18.27,19.89Zm1.62-7.18a1.17,1.17,0,0,1,.37-.87,1.19,1.19,0,0,1,.88-.37,1.14,1.14,0,0,1,.62.17,1.32,1.32,0,0,1,.47.47l1.21,2.18a1.26,1.26,0,0,1-.22,1.49,1.2,1.2,0,0,1-1.5.19,1.41,1.41,0,0,1-.47-.47l-1.2-2.18A1.16,1.16,0,0,1,19.89,12.71ZM46.72,24.88a1.23,1.23,0,0,1,.88.37,1.23,1.23,0,0,1,0,1.76,1.23,1.23,0,0,1-.88.37H44.23a1.23,1.23,0,0,1-.88-.37,1.23,1.23,0,0,1,0-1.76,1.23,1.23,0,0,1,.88-.37Zm0,9.77a1.26,1.26,0,0,1-1.25,1.25,2,2,0,0,1-.58-.12,6.85,6.85,0,0,1-.8-.31l-.78-.33a5.21,5.21,0,0,1-.61-.27,1.35,1.35,0,0,1-.56-.47,1.43,1.43,0,0,1-.24-.7,1.16,1.16,0,0,1,.38-.88,1.26,1.26,0,0,1,.89-.37,1.85,1.85,0,0,1,.61.13l.78.32c.27.11.53.23.78.35s.45.2.6.25a1.41,1.41,0,0,1,.57.45A1.16,1.16,0,0,1,46.76,34.65ZM41.48,21.14a1.23,1.23,0,0,1-.88-.37,1.19,1.19,0,0,1-.37-.88,1.32,1.32,0,0,1,.15-.62,1.1,1.1,0,0,1,.43-.45L43,17.53a1.24,1.24,0,0,1,.64-.19,1.19,1.19,0,0,1,.88.37,1.17,1.17,0,0,1,.37.87,1.16,1.16,0,0,1-.16.61,1.4,1.4,0,0,1-.44.47L42.12,21A1.19,1.19,0,0,1,41.48,21.14Zm-6.57-6.26a1.23,1.23,0,0,1,.15-.59l1.21-2.18a1.13,1.13,0,0,1,.45-.47,1.18,1.18,0,0,1,.64-.17,1.19,1.19,0,0,1,.88.37,1.17,1.17,0,0,1,.37.87,1.16,1.16,0,0,1-.16.61l-1.2,2.18a1.27,1.27,0,0,1-.45.47,1.22,1.22,0,0,1-.65.18,1.26,1.26,0,0,1-1.24-1.27Z" fill="url(#linear-gradient)"/>
</svg>
