<svg id="Shapes" xmlns="http://www.w3.org/2000/svg" xmlns:xlink="http://www.w3.org/1999/xlink" viewBox="0 0 60 60">
  <defs>
    <radialGradient id="radial-gradient" cx="30" cy="30" r="30" gradientUnits="userSpaceOnUse">
      <stop offset="0" stop-color="#b3b3b3"/>
      <stop offset="0.12" stop-color="#adadad"/>
      <stop offset="0.64" stop-color="#9b9b9b"/>
      <stop offset="1" stop-color="#949494"/>
    </radialGradient>
    <linearGradient id="linear-gradient" x1="30" y1="15" x2="30" y2="41.634" gradientUnits="userSpaceOnUse">
      <stop offset="0" stop-color="#008bf1"/>
      <stop offset="0.22" stop-color="#0086ec"/>
      <stop offset="0.49" stop-color="#0078dd"/>
      <stop offset="0.79" stop-color="#0061c4"/>
      <stop offset="1" stop-color="#004dae"/>
    </linearGradient>
  </defs>
  <g>
    <g>
      <g>
        <circle cx="30" cy="30" r="30" fill="#fff"/>
        <circle cx="30" cy="30" r="30" fill="#fff"/>
        <circle cx="30" cy="30" r="30" fill="#fff"/>
      </g>
      <g>
        <path d="M48.331,33.282a8.351,8.351,0,0,0-7.154-8.1A10.515,10.515,0,0,0,30.458,15a10.771,10.771,0,0,0-10.184,7.129,9.9,9.9,0,0,0-8.6,9.675,10.183,10.183,0,0,0,10.337,9.827h18.1A8.452,8.452,0,0,0,48.331,33.282Z" fill="#fff"/>
        <polygon points="17.829 28.206 17.829 30.461 20.71 30.461 11.669 39.029 13.263 40.62 22.28 32.076 22.28 34.924 24.538 34.924 24.538 28.229 24.538 28.206 17.829 28.206" fill="#fff"/>
        <polygon points="25.396 35.801 25.396 38.055 28.277 38.055 22.518 43.409 24.112 45 29.847 39.671 29.847 42.519 32.105 42.519 32.105 35.823 32.105 35.801 25.396 35.801" fill="#fff"/>
        <polygon points="27.403 25.994 27.403 28.248 30.284 28.248 26.816 31.706 28.411 33.298 31.854 29.864 31.854 32.712 34.112 32.712 34.112 26.016 34.112 25.994 27.403 25.994" fill="#fff"/>
      </g>
    </g>
    <g opacity="0.25">
      <g>
        <circle cx="30" cy="30" r="30" fill="#999"/>
        <circle cx="30" cy="30" r="30" fill="#999"/>
        <circle cx="30" cy="30" r="30" fill="#999"/>
      </g>
      <g>
        <path d="M48.331,33.282a8.351,8.351,0,0,0-7.154-8.1A10.515,10.515,0,0,0,30.458,15a10.771,10.771,0,0,0-10.184,7.129,9.9,9.9,0,0,0-8.6,9.675,10.183,10.183,0,0,0,10.337,9.827h18.1A8.452,8.452,0,0,0,48.331,33.282Z" fill="#999"/>
        <polygon points="17.829 28.206 17.829 30.461 20.71 30.461 11.669 39.029 13.263 40.62 22.28 32.076 22.28 34.924 24.538 34.924 24.538 28.229 24.538 28.206 17.829 28.206" fill="#999"/>
        <polygon points="25.396 35.801 25.396 38.055 28.277 38.055 22.518 43.409 24.112 45 29.847 39.671 29.847 42.519 32.105 42.519 32.105 35.823 32.105 35.801 25.396 35.801" fill="#999"/>
        <polygon points="27.403 25.994 27.403 28.248 30.284 28.248 26.816 31.706 28.411 33.298 31.854 29.864 31.854 32.712 34.112 32.712 34.112 26.016 34.112 25.994 27.403 25.994" fill="#999"/>
      </g>
    </g>
    <g>
      <g>
        <circle cx="30" cy="30" r="30" fill="#fff"/>
        <circle cx="30" cy="30" r="30" opacity="0.35" fill="url(#radial-gradient)"/>
      </g>
      <g>
        <path d="M48.331,33.282a8.351,8.351,0,0,0-7.154-8.1A10.515,10.515,0,0,0,30.458,15a10.771,10.771,0,0,0-10.184,7.129,9.9,9.9,0,0,0-8.6,9.675,10.183,10.183,0,0,0,10.337,9.827h18.1A8.452,8.452,0,0,0,48.331,33.282Z" fill="url(#linear-gradient)"/>
        <polygon points="17.829 28.206 17.829 30.461 20.71 30.461 11.669 39.029 13.263 40.62 22.28 32.076 22.28 34.924 24.538 34.924 24.538 28.229 24.538 28.206 17.829 28.206" fill="#50e6ff"/>
        <polygon points="25.396 35.801 25.396 38.055 28.277 38.055 22.518 43.409 24.112 45 29.847 39.671 29.847 42.519 32.105 42.519 32.105 35.823 32.105 35.801 25.396 35.801" fill="#50e6ff"/>
        <polygon points="27.403 25.994 27.403 28.248 30.284 28.248 26.816 31.706 28.411 33.298 31.854 29.864 31.854 32.712 34.112 32.712 34.112 26.016 34.112 25.994 27.403 25.994" fill="#50e6ff"/>
      </g>
    </g>
  </g>
</svg>
