<svg id="Shapes" xmlns="http://www.w3.org/2000/svg" xmlns:xlink="http://www.w3.org/1999/xlink" viewBox="0 0 60 60">
  <defs>
    <radialGradient id="radial-gradient" cx="30" cy="30" r="30" gradientUnits="userSpaceOnUse">
      <stop offset="0" stop-color="#b3b3b3"/>
      <stop offset="0.12" stop-color="#adadad"/>
      <stop offset="0.64" stop-color="#9b9b9b"/>
      <stop offset="1" stop-color="#949494"/>
    </radialGradient>
    <linearGradient id="linear-gradient" x1="30" y1="20.363" x2="30" y2="45" gradientUnits="userSpaceOnUse">
      <stop offset="0" stop-color="#50c8e9"/>
      <stop offset="0.23" stop-color="#49c7e8"/>
      <stop offset="0.46" stop-color="#2ec3e6"/>
      <stop offset="0.7" stop-color="#25afd3"/>
      <stop offset="0.94" stop-color="#1c92ba"/>
      <stop offset="1" stop-color="#1b8ab3"/>
    </linearGradient>
  </defs>
  <g>
    <g>
      <g>
        <circle cx="30" cy="30" r="30" fill="#fff"/>
        <circle cx="30" cy="30" r="30" fill="#fff"/>
        <circle cx="30" cy="30" r="30" fill="#fff"/>
      </g>
      <g>
        <path d="M45.079,16.8H25.734L24.051,15H15.009V37.782h30.07Z" fill="#fff"/>
        <path d="M46.787,20.363H13.213V45H46.787Z" fill="#fff"/>
      </g>
    </g>
    <g opacity="0.25">
      <g>
        <circle cx="30" cy="30" r="30" fill="#999"/>
        <circle cx="30" cy="30" r="30" fill="#999"/>
        <circle cx="30" cy="30" r="30" fill="#999"/>
      </g>
      <g>
        <path d="M45.079,16.8H25.734L24.051,15H15.009V37.782h30.07Z" fill="#999"/>
        <path d="M46.787,20.363H13.213V45H46.787Z" fill="#999"/>
      </g>
    </g>
    <g>
      <g>
        <circle cx="30" cy="30" r="30" fill="#fff"/>
        <circle cx="30" cy="30" r="30" opacity="0.35" fill="url(#radial-gradient)"/>
      </g>
      <g>
        <path d="M45.079,16.8H25.734L24.051,15H15.009V37.782h30.07Z" fill="#005ca1"/>
        <path d="M46.787,20.363H13.213V45H46.787Z" fill="url(#linear-gradient)"/>
      </g>
    </g>
  </g>
</svg>
