<svg xmlns="http://www.w3.org/2000/svg" xmlns:xlink="http://www.w3.org/1999/xlink" viewBox="0 0 58.5 58.5">
  <defs>
    <linearGradient id="linear-gradient" x1="26.62" y1="314.24" x2="26.62" y2="289.61" gradientTransform="matrix(1, 0, 0, -1, 0, 337.73)" gradientUnits="userSpaceOnUse">
      <stop offset="0.22" stop-color="#32d4f5"/>
      <stop offset="0.47" stop-color="#31d1f3"/>
      <stop offset="0.63" stop-color="#2ec9eb"/>
      <stop offset="0.77" stop-color="#29bade"/>
      <stop offset="0.89" stop-color="#22a5cb"/>
      <stop offset="1" stop-color="#198ab3"/>
    </linearGradient>
    <linearGradient id="linear-gradient-2" x1="26.01" y1="327.42" x2="27.81" y2="305.08" xlink:href="#linear-gradient"/>
  </defs>
  <g id="Shapes">
    <circle cx="29.25" cy="29.25" r="29" fill="#fff" stroke="#ccc" stroke-width="0.5"/>
    <g>
      <g>
        <path d="M50,38.27a1.75,1.75,0,0,0,1.78-1.73v0a.58.58,0,0,0-.05-.29c-.68-5.55-3.86-10.07-9.89-10.07s-9.3,3.9-9.92,10.07a1.79,1.79,0,0,0,1.6,2H50Z" fill="#0078d4"/>
        <path d="M41.85,27.55a5.49,5.49,0,0,1-3-.88l3,7.81,3-7.75A5.61,5.61,0,0,1,41.85,27.55Z" fill="#fff" opacity="0.8" style="isolation: isolate"/>
        <circle cx="41.85" cy="21.98" r="5.57" fill="#0078d4"/>
        <path d="M38.83,43.69a2.64,2.64,0,0,0,2.64-2.64,1.71,1.71,0,0,0,0-.32c-1-8.29-5.77-15-14.78-15s-13.93,5.73-14.91,15a2.66,2.66,0,0,0,2.38,2.9H38.79Z" fill="url(#linear-gradient)"/>
        <path d="M26.8,27.67a8.31,8.31,0,0,1-4.43-1.34L26.8,38l4.44-11.56A8.46,8.46,0,0,1,26.8,27.67Z" fill="#fff" opacity="0.8" style="isolation: isolate"/>
        <circle cx="26.74" cy="19.34" r="8.32" fill="url(#linear-gradient-2)"/>
      </g>
      <path d="M11.12,25.28V19.69a2.64,2.64,0,0,1-.81.3l-.93.25V18.51A9.87,9.87,0,0,0,10.69,18,5.72,5.72,0,0,0,12,17.41h1.36v7.87Zm-1.65,11v-.64a4.05,4.05,0,0,1,0-1.1,8,8,0,0,1,.46-.93,7.76,7.76,0,0,1,1.19-1.1,3.39,3.39,0,0,0,.88-.72.41.41,0,0,1,.3-.38.61.61,0,0,0,0-.46c0-.55-.3-.81-.93-.81a2.85,2.85,0,0,0-1.82.72V29a4.62,4.62,0,0,1,1.18-.47,5.92,5.92,0,0,1,1.19,0,3,3,0,0,1,1.94.64,2.13,2.13,0,0,1,.72,1.65,3.11,3.11,0,0,1-.38,1.43,4.8,4.8,0,0,1-1.35,1.19l-.85.51a.7.7,0,0,0-.25.42h3.09v1.78Zm5.24,8.8a1.9,1.9,0,0,1-.8,1.73,3.81,3.81,0,0,1-2.24.63,4.05,4.05,0,0,1-1.1,0l-1-.29V45.33a2.13,2.13,0,0,0,.81.29,2.9,2.9,0,0,0,.93,0,2.17,2.17,0,0,0,.88,0,.78.78,0,0,0,.3-.54.64.64,0,0,0-.51-.64,4.43,4.43,0,0,0-1-.21H10.4V42.58H11a1.28,1.28,0,0,0,1-.25.51.51,0,0,0,.3-.55v-.47c0-.08-.38,0-.72,0a3.33,3.33,0,0,0-1.48.42V40a5.06,5.06,0,0,1,2-.42,3.39,3.39,0,0,1,2.07.55,1.61,1.61,0,0,1,.68,1.43,2,2,0,0,1-.39,1.19,1.89,1.89,0,0,1-1.1.63,1.77,1.77,0,0,1,1.27.64A2.39,2.39,0,0,1,14.71,45.08Z" fill="#0078d4"/>
    </g>
  </g>
  <g id="Text">
    <path d="M18.79-1.45a3.4,3.4,0,0,1-1,2.59,3.9,3.9,0,0,1-2.8.91,4.43,4.43,0,0,1-1.92-.34V.15A3.68,3.68,0,0,0,15,.69a2,2,0,0,0,1.45-.5,1.76,1.76,0,0,0,.52-1.34v-.48h0a2.07,2.07,0,0,1-1.87,1,2.26,2.26,0,0,1-1.83-.81,3.33,3.33,0,0,1-.67-2.17A3.67,3.67,0,0,1,13.3-6a2.47,2.47,0,0,1,2-.89,1.83,1.83,0,0,1,1.64.84h0v-.7h1.85ZM17-3.65v-.47a1.46,1.46,0,0,0-.33-1,1.1,1.1,0,0,0-.88-.4,1.15,1.15,0,0,0-1,.48,2.28,2.28,0,0,0-.35,1.35,1.87,1.87,0,0,0,.34,1.19,1.07,1.07,0,0,0,.91.43,1.13,1.13,0,0,0,.93-.44A1.83,1.83,0,0,0,17-3.65Z" fill="#1e1e1e"/>
  </g>
</svg>
