<svg id="Shapes" xmlns="http://www.w3.org/2000/svg" xmlns:xlink="http://www.w3.org/1999/xlink" viewBox="0 0 58.5 58.5">
  <defs>
    <linearGradient id="linear-gradient" x1="49.25" y1="29.25" x2="9.25" y2="29.25" gradientUnits="userSpaceOnUse">
      <stop offset="0" stop-color="#005ba1"/>
      <stop offset="0.18" stop-color="#006abb"/>
      <stop offset="0.36" stop-color="#0074cd"/>
      <stop offset="0.48" stop-color="#0078d4"/>
      <stop offset="0.64" stop-color="#0071c8"/>
      <stop offset="0.93" stop-color="#0060a9"/>
      <stop offset="1" stop-color="#005ba1"/>
    </linearGradient>
  </defs>
  <circle cx="29.25" cy="29.25" r="29" fill="#fff" stroke="#ccc" stroke-width="0.5"/>
  <path d="M24.25,14.69h25v2.5h-25Zm0,15v-2.5h25v2.5Zm0,12.5v-2.5h25v2.5Zm-10-17.5a4.79,4.79,0,0,1,1.93.39,5.45,5.45,0,0,1,1.61,1.07,4.9,4.9,0,0,1,1.07,1.59,5.22,5.22,0,0,1,.39,2,4.79,4.79,0,0,1-.39,1.93,5.28,5.28,0,0,1-1.07,1.6A4.77,4.77,0,0,1,16.2,34.3a5.22,5.22,0,0,1-1.95.39,4.79,4.79,0,0,1-1.93-.39,5.3,5.3,0,0,1-1.61-1.08,4.75,4.75,0,0,1-1.07-1.58,5.22,5.22,0,0,1-.39-1.95,4.76,4.76,0,0,1,.39-1.93,5.45,5.45,0,0,1,1.07-1.61,4.9,4.9,0,0,1,1.59-1.07A5.22,5.22,0,0,1,14.25,24.69Zm0,7.81a2.79,2.79,0,0,0,1.09-.21,2.62,2.62,0,0,0,.88-.61,3.32,3.32,0,0,0,.61-.9,2.66,2.66,0,0,0,.23-1.09,2.79,2.79,0,0,0-.21-1.09,2.62,2.62,0,0,0-.61-.88,3.32,3.32,0,0,0-.9-.61,2.63,2.63,0,0,0-1.09-.23,2.79,2.79,0,0,0-1.09.21,2.62,2.62,0,0,0-.88.61,3.32,3.32,0,0,0-.61.9,2.63,2.63,0,0,0-.23,1.09,2.82,2.82,0,0,0,.21,1.09,2.72,2.72,0,0,0,.61.88,3.32,3.32,0,0,0,.9.61A2.63,2.63,0,0,0,14.25,32.5Zm0,4.69a4.79,4.79,0,0,1,1.93.39,5.45,5.45,0,0,1,1.61,1.07,4.9,4.9,0,0,1,1.07,1.59,5.22,5.22,0,0,1,.39,1.95,4.79,4.79,0,0,1-.39,1.93,5.28,5.28,0,0,1-1.07,1.6A4.77,4.77,0,0,1,16.2,46.8a5.22,5.22,0,0,1-1.95.39,4.79,4.79,0,0,1-1.93-.39,5.3,5.3,0,0,1-1.61-1.08,4.75,4.75,0,0,1-1.07-1.58,5.22,5.22,0,0,1-.39-2,4.76,4.76,0,0,1,.39-1.93,5.45,5.45,0,0,1,1.07-1.61,4.9,4.9,0,0,1,1.59-1.07A5.22,5.22,0,0,1,14.25,37.19Zm0,7.81a2.79,2.79,0,0,0,1.09-.21,2.62,2.62,0,0,0,.88-.61,3.32,3.32,0,0,0,.61-.9,2.66,2.66,0,0,0,.23-1.09,2.79,2.79,0,0,0-.21-1.09,2.62,2.62,0,0,0-.61-.88,3.32,3.32,0,0,0-.9-.61,2.63,2.63,0,0,0-1.09-.23,2.79,2.79,0,0,0-1.09.21,2.62,2.62,0,0,0-.88.61,3.32,3.32,0,0,0-.61.9,2.63,2.63,0,0,0-.23,1.09,2.82,2.82,0,0,0,.21,1.09,2.72,2.72,0,0,0,.61.88,3.32,3.32,0,0,0,.9.61A2.63,2.63,0,0,0,14.25,45ZM13,16.68l5.37-5.37,1.76,1.76L13,20.2,9.62,16.82l1.76-1.76Z" fill="url(#linear-gradient)"/>
</svg>
