<svg id="Shapes" xmlns="http://www.w3.org/2000/svg" xmlns:xlink="http://www.w3.org/1999/xlink" viewBox="0 0 58.5 58.5">
  <defs>
    <linearGradient id="linear-gradient" x1="29.25" y1="10.04" x2="29.25" y2="48.46" gradientUnits="userSpaceOnUse">
      <stop offset="0" stop-color="#5ea0ef"/>
      <stop offset="0.18" stop-color="#589eed"/>
      <stop offset="0.41" stop-color="#4897e9"/>
      <stop offset="0.66" stop-color="#2e8ce1"/>
      <stop offset="0.94" stop-color="#0a7cd7"/>
      <stop offset="1" stop-color="#0078d4"/>
    </linearGradient>
  </defs>
  <circle cx="29.25" cy="29.25" r="29" fill="#fff" stroke="#ccc" stroke-width="0.5"/>
  <rect x="10.04" y="10.04" width="38.41" height="38.41" fill="#fff"/>
  <path d="M38,21.2l1.69,1.69-14.05,14L18.8,30.09l1.69-1.68,5.16,5.15ZM29.25,10a19.19,19.19,0,0,1,5.1.68A18.9,18.9,0,0,1,39,12.65a19.17,19.17,0,0,1,6.88,6.9,19.23,19.23,0,0,1,1.93,4.6,19.81,19.81,0,0,1,.7,5.1,19.19,19.19,0,0,1-.68,5.1A18.9,18.9,0,0,1,45.85,39,19.17,19.17,0,0,1,39,45.83a19.23,19.23,0,0,1-4.6,1.93,19.81,19.81,0,0,1-5.1.7,19.19,19.19,0,0,1-5.1-.68,18.9,18.9,0,0,1-4.6-1.93,19.26,19.26,0,0,1-8.81-11.48,19.78,19.78,0,0,1-.7-5.12,19.19,19.19,0,0,1,.68-5.1,18.9,18.9,0,0,1,1.93-4.6,19.26,19.26,0,0,1,11.48-8.81A19.78,19.78,0,0,1,29.25,10Zm0,36a16,16,0,0,0,4.45-.61,17.53,17.53,0,0,0,4-1.68,16.18,16.18,0,0,0,3.41-2.65,17.73,17.73,0,0,0,2.63-3.39,17.17,17.17,0,0,0,1.7-4,15.54,15.54,0,0,0,.61-4.46,16,16,0,0,0-.61-4.45,17.53,17.53,0,0,0-1.68-4,16.18,16.18,0,0,0-2.65-3.41,17.73,17.73,0,0,0-3.39-2.63,17.17,17.17,0,0,0-4-1.7,15.54,15.54,0,0,0-4.46-.61,16,16,0,0,0-4.45.61,17.53,17.53,0,0,0-4,1.68,16.18,16.18,0,0,0-3.41,2.65,17.73,17.73,0,0,0-2.63,3.39,17.17,17.17,0,0,0-1.7,4,15.54,15.54,0,0,0-.61,4.46,16,16,0,0,0,.61,4.45,17.53,17.53,0,0,0,1.68,4,16.18,16.18,0,0,0,2.65,3.41,17.73,17.73,0,0,0,3.39,2.63,17.17,17.17,0,0,0,4,1.7A15.54,15.54,0,0,0,29.25,46.06Z" fill="url(#linear-gradient)"/>
</svg>
