<svg id="Shapes" xmlns="http://www.w3.org/2000/svg" xmlns:xlink="http://www.w3.org/1999/xlink" viewBox="0 0 60 60">
  <defs>
    <radialGradient id="radial-gradient" cx="30" cy="30" r="30" gradientUnits="userSpaceOnUse">
      <stop offset="0" stop-color="#b3b3b3"/>
      <stop offset="0.12" stop-color="#adadad"/>
      <stop offset="0.64" stop-color="#9b9b9b"/>
      <stop offset="1" stop-color="#949494"/>
    </radialGradient>
    <linearGradient id="linear-gradient" x1="30" y1="15" x2="30" y2="45" gradientUnits="userSpaceOnUse">
      <stop offset="0" stop-color="#005ba1"/>
      <stop offset="0.18" stop-color="#006abb"/>
      <stop offset="0.36" stop-color="#0074cd"/>
      <stop offset="0.48" stop-color="#0078d4"/>
      <stop offset="0.64" stop-color="#0071c8"/>
      <stop offset="0.93" stop-color="#0060a9"/>
      <stop offset="1" stop-color="#005ba1"/>
    </linearGradient>
  </defs>
  <g>
    <g>
      <g>
        <circle cx="30" cy="30" r="30" fill="#fff"/>
        <circle cx="30" cy="30" r="30" fill="#fff"/>
        <circle cx="30" cy="30" r="30" fill="#fff"/>
      </g>
      <g>
        <path d="M39.375,27.187V24.53A9.5,9.5,0,0,0,30.7,15h-1.51a9.376,9.376,0,0,0-8.562,9.34v2.847H17.812V45H42.185l0-17.813ZM23.437,24.34A6.564,6.564,0,0,1,30,17.777l-.007.007a4.777,4.777,0,0,1,.492.017,6.675,6.675,0,0,1,6.07,6.729v2.657H23.437Z" fill="#fff"/>
        <path d="M30.03,31.845h-.06a2.782,2.782,0,0,0-2.783,2.782v.06a2.77,2.77,0,0,0,1.407,2.405v2.763a1.394,1.394,0,0,0,1.394,1.4h.024a1.394,1.394,0,0,0,1.394-1.4V37.092a2.769,2.769,0,0,0,1.406-2.405v-.06A2.781,2.781,0,0,0,30.03,31.845Z" fill="#fff"/>
      </g>
    </g>
    <g opacity="0.25">
      <g>
        <circle cx="30" cy="30" r="30" fill="#999"/>
        <circle cx="30" cy="30" r="30" fill="#999"/>
        <circle cx="30" cy="30" r="30" fill="#999"/>
      </g>
      <g>
        <path d="M39.375,27.187V24.53A9.5,9.5,0,0,0,30.7,15h-1.51a9.376,9.376,0,0,0-8.562,9.34v2.847H17.812V45H42.185l0-17.813ZM23.437,24.34A6.564,6.564,0,0,1,30,17.777l-.007.007a4.777,4.777,0,0,1,.492.017,6.675,6.675,0,0,1,6.07,6.729v2.657H23.437Z" fill="#999"/>
        <path d="M30.03,31.845h-.06a2.782,2.782,0,0,0-2.783,2.782v.06a2.77,2.77,0,0,0,1.407,2.405v2.763a1.394,1.394,0,0,0,1.394,1.4h.024a1.394,1.394,0,0,0,1.394-1.4V37.092a2.769,2.769,0,0,0,1.406-2.405v-.06A2.781,2.781,0,0,0,30.03,31.845Z" fill="#999"/>
      </g>
    </g>
    <g>
      <g>
        <circle cx="30" cy="30" r="30" fill="#fff"/>
        <circle cx="30" cy="30" r="30" opacity="0.35" fill="url(#radial-gradient)"/>
      </g>
      <g>
        <path d="M39.375,27.187V24.53A9.5,9.5,0,0,0,30.7,15h-1.51a9.376,9.376,0,0,0-8.562,9.34v2.847H17.812V45H42.185l0-17.813ZM23.437,24.34A6.564,6.564,0,0,1,30,17.777l-.007.007a4.777,4.777,0,0,1,.492.017,6.675,6.675,0,0,1,6.07,6.729v2.657H23.437Z" fill="url(#linear-gradient)"/>
        <path d="M30.03,31.845h-.06a2.782,2.782,0,0,0-2.783,2.782v.06a2.77,2.77,0,0,0,1.407,2.405v2.763a1.394,1.394,0,0,0,1.394,1.4h.024a1.394,1.394,0,0,0,1.394-1.4V37.092a2.769,2.769,0,0,0,1.406-2.405v-.06A2.781,2.781,0,0,0,30.03,31.845Z" fill="#50e6ff"/>
      </g>
    </g>
  </g>
</svg>
