<svg id="Shapes" xmlns="http://www.w3.org/2000/svg" xmlns:xlink="http://www.w3.org/1999/xlink" viewBox="0 0 58.5 58.5">
  <defs>
    <linearGradient id="linear-gradient" x1="29.24" y1="291.24" x2="29.24" y2="327.8" gradientTransform="matrix(1, 0, 0, -1, 0, 338.76)" gradientUnits="userSpaceOnUse">
      <stop offset="0" stop-color="#0078d4"/>
      <stop offset="0.06" stop-color="#0a7cd7"/>
      <stop offset="0.34" stop-color="#2e8ce1"/>
      <stop offset="0.59" stop-color="#4897e9"/>
      <stop offset="0.82" stop-color="#589eed"/>
      <stop offset="1" stop-color="#5ea0ef"/>
    </linearGradient>
  </defs>
  <circle cx="29.25" cy="29.25" r="29" fill="#fff" stroke="#ccc" stroke-width="0.5"/>
  <rect x="12.64" y="9.3" width="33.23" height="39.91" fill="#fff"/>
  <g>
    <path d="M45.86,27.93c0,10.72-13.18,19.36-16.07,21.12a1,1,0,0,1-1.08,0c-2.89-1.74-16.07-10.37-16.07-21.12V15a1,1,0,0,1,1-1c10.27-.26,7.9-4.69,15.6-4.69s5.33,4.43,15.6,4.69a1,1,0,0,1,1,1Z" fill="#0078d4"/>
    <path d="M44.5,28c0,9.86-12.11,17.77-14.76,19.36a.91.91,0,0,1-1,0C26.11,45.79,14,37.88,14,28V16.29a1,1,0,0,1,.78-1.11l.16,0C24.37,15,22.21,11,29.25,11s4.88,4,14.31,4.2a1,1,0,0,1,.94.94Z" fill="url(#linear-gradient)"/>
    <path d="M35.94,26.1H35V22.77a6.12,6.12,0,0,0-1.64-4.25,5.56,5.56,0,0,0-7.86-.31c-.11.1-.21.2-.31.31a6.12,6.12,0,0,0-1.64,4.25V26.1h-.94a.75.75,0,0,0-.82.67v8.76a.74.74,0,0,0,.75.75h13.4a.75.75,0,0,0,.77-.73V26.9a.74.74,0,0,0-.7-.8Zm-3.64,0H26.2V22.72a3.38,3.38,0,0,1,1-2.35,2.79,2.79,0,0,1,3.94-.23,2.61,2.61,0,0,1,.24.23,3.32,3.32,0,0,1,.37.47h0a3.26,3.26,0,0,1,.59,1.86Z" fill="#ffbd02"/>
    <path d="M22.56,26.1H35.94a.75.75,0,0,1,.49.19L22.07,36.05a.79.79,0,0,1-.28-.57V26.9a.74.74,0,0,1,.7-.8Z" fill="#ffe452"/>
    <path d="M35.94,26.1H22.56a.75.75,0,0,0-.49.19l14.36,9.76a.71.71,0,0,0,.28-.57V26.9a.74.74,0,0,0-.7-.8Z" fill="#ffd400" opacity="0.5" style="isolation: isolate"/>
  </g>
</svg>
