<svg id="Shapes" xmlns="http://www.w3.org/2000/svg" xmlns:xlink="http://www.w3.org/1999/xlink" viewBox="0 0 58.5 58.5">
  <defs>
    <linearGradient id="linear-gradient" x1="29.73" y1="9.03" x2="29.73" y2="49.03" gradientUnits="userSpaceOnUse">
      <stop offset="0" stop-color="#5ea0ef"/>
      <stop offset="0.18" stop-color="#589eed"/>
      <stop offset="0.41" stop-color="#4897e9"/>
      <stop offset="0.66" stop-color="#2e8ce1"/>
      <stop offset="0.94" stop-color="#0a7cd7"/>
      <stop offset="1" stop-color="#0078d4"/>
    </linearGradient>
  </defs>
  <circle cx="29.25" cy="29.25" r="29" fill="#fff" stroke="#ccc" stroke-width="0.5"/>
  <rect x="9.73" y="9.03" width="40" height="40" fill="#fff"/>
  <path d="M28.5,25.11a2.58,2.58,0,0,1,1,.21,2.71,2.71,0,0,1,.84.57,3,3,0,0,1,.59.86,2.34,2.34,0,0,1,.21,1A2.59,2.59,0,0,1,31,28.84a2.71,2.71,0,0,1-.57.84,3,3,0,0,1-.86.59,2.2,2.2,0,0,1-1,.2,2.77,2.77,0,0,1-1.05-.2,2.71,2.71,0,0,1-.84-.57,3,3,0,0,1-.59-.86,2.35,2.35,0,0,1-.21-1.05,2.58,2.58,0,0,1,.21-1,2.71,2.71,0,0,1,.57-.84,3,3,0,0,1,.86-.59A2.35,2.35,0,0,1,28.5,25.11Zm0,18.77c.15.46.33.9.52,1.34a14.23,14.23,0,0,0,.67,1.28l-.61,0-.62,0a18.61,18.61,0,0,1-5-.67,18.78,18.78,0,0,1-8.27-4.84,18.24,18.24,0,0,1-2.93-3.79,20.22,20.22,0,0,1-1.91-4.48,16.74,16.74,0,0,1-.67-5,18.16,18.16,0,0,1,.67-5,19.51,19.51,0,0,1,1.89-4.48,17.84,17.84,0,0,1,3-3.81A19.32,19.32,0,0,1,19,11.61,18.9,18.9,0,0,1,23.51,9.7a17.77,17.77,0,0,1,5-.67,18.16,18.16,0,0,1,5,.67,19.93,19.93,0,0,1,4.48,1.88,17.88,17.88,0,0,1,3.81,3,19.32,19.32,0,0,1,2.93,3.79,18.9,18.9,0,0,1,1.91,4.48,17.75,17.75,0,0,1,.67,5c0,.21,0,.42,0,.61s0,.41,0,.63a10.9,10.9,0,0,0-1.26-.67,11.6,11.6,0,0,0-1.36-.52,16.15,16.15,0,0,0-2.18-8.13,16.34,16.34,0,0,0-2.51-3.27,17,17,0,0,0-3.25-2.53,14.72,14.72,0,0,0-3.85-1.61,17.9,17.9,0,0,0-4.29-.59,16,16,0,0,0-4.28.57,15.14,15.14,0,0,0-3.83,1.63,17.76,17.76,0,0,0-3.27,2.51,14.64,14.64,0,0,0-2.51,3.25A17.49,17.49,0,0,0,13,23.52a15.5,15.5,0,0,0-.59,4.27,16,16,0,0,0,.57,4.3,15.14,15.14,0,0,0,1.63,3.83,17.76,17.76,0,0,0,2.51,3.27,14.15,14.15,0,0,0,3.27,2.49,19.45,19.45,0,0,0,3.85,1.61A14.46,14.46,0,0,0,28.54,43.88ZM39.18,27.27a14.41,14.41,0,0,0-2.64.57,7.91,7.91,0,0,0-.63-3.15,8.13,8.13,0,0,0-1.72-2.55,8.24,8.24,0,0,0-2.55-1.74,8,8,0,0,0-6.27,0,8.37,8.37,0,0,0-2.55,1.72,7.79,7.79,0,0,0-1.74,2.57,8.12,8.12,0,0,0,0,6.27,8,8,0,0,0,1.74,2.55,8.27,8.27,0,0,0,2.58,1.72,7.83,7.83,0,0,0,3.14.63A13.28,13.28,0,0,0,28,38.47a10.42,10.42,0,0,1-4-1,10.61,10.61,0,0,1-3.22-2.32,11.49,11.49,0,0,1-2.18-3.33,9.83,9.83,0,0,1-.8-4.05,10.34,10.34,0,0,1,.84-4.16,10.81,10.81,0,0,1,2.3-3.4,11.37,11.37,0,0,1,3.42-2.3,10.52,10.52,0,0,1,8.19-.06A11.64,11.64,0,0,1,35.87,20a10.15,10.15,0,0,1,2.32,3.25A11.37,11.37,0,0,1,39.18,27.27Zm8,11.31a6,6,0,0,1,.13,1.28,6,6,0,0,1-.13,1.27l2.6,1.07-1,2.49-2.59-1.08a7,7,0,0,1-1.8,1.8L45.4,48l-2.5,1-1.06-2.6a6.11,6.11,0,0,1-1.28.13,6,6,0,0,1-1.28-.13L38.21,49l-2.49-1,1.09-2.59a7,7,0,0,1-1.8-1.8l-2.6,1.08-1-2.49L34,41.13a6.67,6.67,0,0,1-.12-1.27A6.77,6.77,0,0,1,34,38.58l-2.59-1.07,1-2.49L35,36.11a7,7,0,0,1,1.8-1.8l-1.09-2.6,2.49-1,1.07,2.6a6.77,6.77,0,0,1,1.28-.12,6.85,6.85,0,0,1,1.28.12l1.06-2.6,2.5,1-1.09,2.6a7,7,0,0,1,1.8,1.8L48.7,35l1,2.49Zm-2.55,1.28A4.1,4.1,0,0,0,43.41,37a4.18,4.18,0,0,0-1.28-.86,4.13,4.13,0,0,0-3.14,0,4,4,0,0,0-2.14,2.14,4.13,4.13,0,0,0,0,3.14,4,4,0,0,0,.86,1.27,4,4,0,0,0,4.42.86,4,4,0,0,0,1.28-.86,3.83,3.83,0,0,0,.85-1.27A3.93,3.93,0,0,0,44.58,39.86Z" fill="url(#linear-gradient)"/>
</svg>
