<svg id="Shapes" xmlns="http://www.w3.org/2000/svg" xmlns:xlink="http://www.w3.org/1999/xlink" viewBox="0 0 60 60">
  <defs>
    <radialGradient id="radial-gradient" cx="30" cy="30" r="30" gradientUnits="userSpaceOnUse">
      <stop offset="0" stop-color="#b3b3b3"/>
      <stop offset="0.12" stop-color="#adadad"/>
      <stop offset="0.64" stop-color="#9b9b9b"/>
      <stop offset="1" stop-color="#949494"/>
    </radialGradient>
    <linearGradient id="linear-gradient" x1="33.889" y1="37.967" x2="33.889" y2="42.208" gradientUnits="userSpaceOnUse">
      <stop offset="0" stop-color="#50c7e8"/>
      <stop offset="1" stop-color="#1989b2"/>
    </linearGradient>
    <linearGradient id="linear-gradient-2" x1="44.107" y1="25.102" x2="44.107" y2="33.656" gradientUnits="userSpaceOnUse">
      <stop offset="0.225" stop-color="#32d4f5"/>
      <stop offset="0.604" stop-color="#2ec7e9"/>
      <stop offset="0.903" stop-color="#209ec5"/>
      <stop offset="1" stop-color="#198ab3"/>
    </linearGradient>
    <linearGradient id="linear-gradient-3" x1="44.107" y1="35.736" x2="44.107" y2="44.29" xlink:href="#linear-gradient-2"/>
    <linearGradient id="linear-gradient-4" x1="33.621" y1="16.585" x2="33.621" y2="38.833" gradientUnits="userSpaceOnUse">
      <stop offset="0.01" stop-color="#50c7e8"/>
      <stop offset="0.016" stop-color="#4ec5e7"/>
      <stop offset="0.109" stop-color="#3bafd3"/>
      <stop offset="0.217" stop-color="#2c9ec4"/>
      <stop offset="0.35" stop-color="#2192ba"/>
      <stop offset="0.532" stop-color="#1b8bb4"/>
      <stop offset="1" stop-color="#1989b2"/>
    </linearGradient>
    <linearGradient id="linear-gradient-5" x1="15.424" y1="25.102" x2="15.424" y2="33.656" gradientUnits="userSpaceOnUse">
      <stop offset="0" stop-color="#50c8e9"/>
      <stop offset="0.23" stop-color="#49c7e8"/>
      <stop offset="0.46" stop-color="#2ec3e6"/>
      <stop offset="0.7" stop-color="#25afd3"/>
      <stop offset="0.94" stop-color="#1c92ba"/>
      <stop offset="1" stop-color="#1b8ab3"/>
    </linearGradient>
    <linearGradient id="linear-gradient-6" x1="31.781" y1="25.102" x2="31.781" y2="33.656" xlink:href="#linear-gradient-2"/>
    <linearGradient id="linear-gradient-7" x1="44.107" y1="14.311" x2="44.107" y2="22.864" gradientUnits="userSpaceOnUse">
      <stop offset="0" stop-color="#008bf1"/>
      <stop offset="0.22" stop-color="#0086ec"/>
      <stop offset="0.49" stop-color="#0078dd"/>
      <stop offset="0.79" stop-color="#0061c4"/>
      <stop offset="1" stop-color="#004dae"/>
    </linearGradient>
    <linearGradient id="linear-gradient-8" x1="27.975" y1="22.843" x2="27.975" y2="14.29" gradientUnits="userSpaceOnUse">
      <stop offset="0" stop-color="#004dae"/>
      <stop offset="0.21" stop-color="#0061c4"/>
      <stop offset="0.51" stop-color="#0078dd"/>
      <stop offset="0.78" stop-color="#0086ec"/>
      <stop offset="1" stop-color="#008bf1"/>
    </linearGradient>
    <linearGradient id="linear-gradient-9" x1="27.975" y1="44.29" x2="27.975" y2="35.736" xlink:href="#linear-gradient-8"/>
  </defs>
  <g>
    <circle cx="30" cy="30" r="30" fill="#fff"/>
    <circle cx="30" cy="30" r="30" opacity="0.35" fill="url(#radial-gradient)"/>
  </g>
  <g>
    <g>
      <polygon points="39.768 40.084 37.645 37.967 37.645 39.563 28.01 39.563 28.01 40.636 37.645 40.636 37.645 42.208 39.768 40.084" fill="url(#linear-gradient)"/>
      <path d="M44.651,18.809H43.578V41.694h1.073Z" fill="#33bedd"/>
      <path d="M48.382,25.1H39.833v8.554h8.549Z" fill="url(#linear-gradient-2)"/>
      <path d="M44.107,44.29a4.277,4.277,0,1,1,4.275-4.277A4.278,4.278,0,0,1,44.107,44.29Z" fill="url(#linear-gradient-3)"/>
      <polygon points="39.768 18.702 37.645 16.585 37.645 18.179 27.474 18.179 27.474 38.833 28.546 38.833 28.546 19.252 37.645 19.252 37.645 20.826 39.768 18.702" fill="url(#linear-gradient-4)"/>
      <path d="M23.229,29.429l-2.116-2.117v1.531h-5a4.277,4.277,0,1,0,0,1.072h5v1.638Z" fill="url(#linear-gradient-5)"/>
      <path d="M39.862,29.429l-2.116-2.117v1.531H32.2a4.277,4.277,0,1,0,0,1.072h5.551v1.638Z" fill="url(#linear-gradient-6)"/>
    </g>
    <g>
      <path d="M44.108,22.864a4.277,4.277,0,1,1,4.274-4.276A4.278,4.278,0,0,1,44.108,22.864Z" fill="url(#linear-gradient-7)"/>
      <path d="M32.249,14.29H23.7v8.553h8.548Z" fill="url(#linear-gradient-8)"/>
      <path d="M32.249,35.736H23.7V44.29h8.548Z" fill="url(#linear-gradient-9)"/>
    </g>
  </g>
</svg>
