<?xml version="1.0" encoding="UTF-8" standalone="no"?>
<!DOCTYPE svg PUBLIC "-//W3C//DTD SVG 1.1//EN" "http://www.w3.org/Graphics/SVG/1.1/DTD/svg11.dtd">
<!-- Generated by Microsoft Visio, SVG Export sovereign-landing-zone-management-groups.svg ALZ Canary -->
<svg xmlns="http://www.w3.org/2000/svg" xmlns:xlink="http://www.w3.org/1999/xlink" xmlns:ev="http://www.w3.org/2001/xml-events"
		xmlns:v="http://schemas.microsoft.com/visio/2003/SVGExtensions/" width="9.375in" height="6.375in" viewBox="0 0 675 459"
		xml:space="preserve" color-interpolation-filters="sRGB" class="st23">
	<v:documentProperties v:langID="1033" v:viewMarkup="false">
		<v:userDefs>
			<v:ud v:nameU="msvNoAutoConnect" v:val="VT0(1):26"/>
		</v:userDefs>
	</v:documentProperties>

	<style type="text/css">
	<![CDATA[
		.st1 {fill:#ffffff;stroke:none;stroke-linecap:round;stroke-linejoin:round;stroke-width:0.75}
		.st2 {fill:#e5f1fb;stroke:none;stroke-linecap:round;stroke-linejoin:round;stroke-width:0.24}
		.st3 {fill:#ffffff;stroke:#0070c0;stroke-dasharray:1,2;stroke-linecap:round;stroke-linejoin:round;stroke-width:1}
		.st4 {fill:#000000;font-family:Segoe UI;font-size:0.666664em;font-weight:bold}
		.st5 {fill:#50e6ff;stroke:none;stroke-linecap:butt;stroke-width:0.75}
		.st6 {fill:#ffffff;stroke:none;stroke-linecap:butt;stroke-width:0.75}
		.st7 {fill:url(#grad0-18);stroke:none;stroke-linecap:butt;stroke-width:0.75}
		.st8 {fill:#53b1e0;stroke:none;stroke-linecap:butt;stroke-width:0.75}
		.st9 {fill:#9cebff;stroke:none;stroke-linecap:butt;stroke-width:0.75}
		.st10 {fill:url(#grad0-26);stroke:none;stroke-linecap:butt;stroke-width:0.75}
		.st11 {fill:#d9e4ee;stroke:#0070c0;stroke-dasharray:1.5,3;stroke-linecap:round;stroke-linejoin:round;stroke-width:1.5}
		.st12 {fill:none;stroke:none;stroke-linecap:round;stroke-linejoin:round;stroke-width:0.75}
		.st13 {fill:#000000;font-family:Segoe UI;font-size:0.75em;font-weight:bold}
		.st14 {fill:#ffffff;stroke:#a1cdee;stroke-linecap:round;stroke-linejoin:round;stroke-width:1}
		.st15 {stroke:#000000;stroke-linecap:round;stroke-linejoin:round;stroke-width:0.75}
		.st16 {fill:#f3f7f4;stroke:#0070c0;stroke-dasharray:1.5,3;stroke-linecap:round;stroke-linejoin:round;stroke-width:1.5}
		.st17 {fill:#fff9d7;stroke:#efcc94;stroke-linecap:round;stroke-linejoin:round;stroke-width:1}
		.st18 {font-size:1em}
		.st19 {fill:url(#grad6-99);stroke:none;stroke-linecap:butt;stroke-width:0.75}
		.st20 {fill:#ff9300;fill-opacity:0.75;stroke:none;stroke-linecap:butt;stroke-width:0.75}
		.st21 {font-size:1em;font-weight:normal}
		.st22 {fill:none;stroke:#7030a0;stroke-dasharray:10.5,7.5;stroke-linecap:round;stroke-linejoin:round;stroke-width:1.5}
		.st23 {fill:none;fill-rule:evenodd;font-size:12px;overflow:visible;stroke-linecap:square;stroke-miterlimit:3}
	]]>
	</style>

	<defs id="Patterns_And_Gradients">
		<linearGradient id="grad0-18" x1="0" y1="0" x2="1" y2="0" gradientTransform="rotate(-133.54829310906 0.5 0.5)">
			<stop offset="0" stop-color="#1988d9" stop-opacity="1"/>
			<stop offset="0.9" stop-color="#54aef0" stop-opacity="1"/>
		</linearGradient>
		<linearGradient id="grad0-26" x1="0" y1="0" x2="1" y2="0" gradientTransform="rotate(65.834982258294 0.5 0.5)">
			<stop offset="0.1" stop-color="#54aef0" stop-opacity="1"/>
			<stop offset="0.29" stop-color="#4fabee" stop-opacity="1"/>
			<stop offset="0.51" stop-color="#41a2e9" stop-opacity="1"/>
			<stop offset="0.74" stop-color="#2a93e0" stop-opacity="1"/>
			<stop offset="0.88" stop-color="#1988d9" stop-opacity="1"/>
		</linearGradient>
		<radialGradient id="grad6-99" cx="1" cy="0" r="1.4">
			<stop offset="0.27" stop-color="#ffd70f" stop-opacity="1"/>
			<stop offset="0.49" stop-color="#ffcb12" stop-opacity="1"/>
			<stop offset="0.88" stop-color="#feac19" stop-opacity="1"/>
			<stop offset="1" stop-color="#fea11b" stop-opacity="1"/>
		</radialGradient>
	</defs>
	<g v:mID="18" v:index="1" v:groupContext="backgroundPage">
		<v:userDefs>
			<v:ud v:nameU="msvVisioCreated" v:prompt="" v:val="VT0(0):26"/>
		</v:userDefs>
		<title>VBackground-1</title>
		<v:pageProperties width="9.375" height="6.375" v:drawingScale="1" v:pageScale="1" v:drawingUnits="19"
				v:shadowOffsetX="8.50394" v:shadowOffsetY="-8.50394"/>
		<g id="shape1-1" v:mID="1" v:groupContext="shape">
			<title>Solid</title>
			<v:userDefs>
				<v:ud v:nameU="Background" v:val="VT0(0):26"/>
				<v:ud v:nameU="visVersion" v:val="VT0(15):26"/>
				<v:ud v:nameU="msvShapeCategories" v:prompt="" v:val="VT4(DoNotContain)"/>
				<v:ud v:nameU="msvVisioCreated" v:prompt="" v:val="VT0(0):26"/>
			</v:userDefs>
			<rect x="0" y="0" width="675" height="459" class="st1"/>
		</g>
	</g>
	<g v:mID="14" v:index="2" v:groupContext="foregroundPage">
		<title>Azure landing zone hierarchy</title>
		<v:pageProperties v:drawingScale="1" v:pageScale="1" v:drawingUnits="19" v:shadowOffsetX="8.50394"
				v:shadowOffsetY="-8.50394"/>
		<v:layer v:name="Connector" v:index="0"/>
		<g id="shape1-3" v:mID="1" v:groupContext="shape" transform="translate(36,-41.4568)">
			<title>Rectangle</title>
			<v:userDefs>
				<v:ud v:nameU="visVersion" v:val="VT0(15):26"/>
			</v:userDefs>
			<rect x="0" y="86.4568" width="603" height="372.543" class="st2"/>
		</g>
		<g id="shape2-5" v:mID="2" v:groupContext="shape" transform="translate(330.059,-345.246)">
			<title>Rectangle.24</title>
			<desc>Tenant root group</desc>
			<v:userDefs>
				<v:ud v:nameU="visVersion" v:val="VT0(15):26"/>
			</v:userDefs>
			<v:textBlock v:margins="rect(4,4,4,4)"/>
			<v:textRect cx="52.4409" cy="451.913" width="104.89" height="14.1732"/>
			<path d="M0 459 L104.88 459 L104.88 444.83 L0 444.83 L0 459 Z" class="st3"/>
			<text x="17.72" y="454.31" class="st4" v:langID="1033"><v:paragraph v:horizAlign="1"/><v:tabList/>Tenant root group</text>		</g>
		<g id="group3-8" transform="translate(364.568,-371.177)" v:mID="3" v:groupContext="group">
			<title>Azure Active Directory.1032</title>
			<g id="shape4-9" v:mID="4" v:groupContext="shape">
				<title>Sheet.4</title>
				<v:userDefs>
					<v:ud v:nameU="msvDisableCustomConnectionPoints" v:prompt="" v:val="VT0(1):5"/>
				</v:userDefs>
				<path d="M2.02 444.23 L17.83 455.08 L33.92 444.19 L35.93 446.68 L17.83 459 L0 446.68 L2.02 444.23 Z" class="st5"/>
			</g>
			<g id="shape5-11" v:mID="5" v:groupContext="shape" transform="translate(3.21391,-6.18198)">
				<title>Sheet.5</title>
				<v:userDefs>
					<v:ud v:nameU="msvDisableCustomConnectionPoints" v:prompt="" v:val="VT0(1):5"/>
				</v:userDefs>
				<path d="M0 449.02 L14.61 430.62 L29.52 449.04 L14.61 459 L0 449.02 Z" class="st6"/>
			</g>
			<g id="shape6-13" v:mID="6" v:groupContext="shape" transform="translate(3.21391,-6.18198)">
				<title>Sheet.6</title>
				<v:userDefs>
					<v:ud v:nameU="msvDisableCustomConnectionPoints" v:prompt="" v:val="VT0(1):5"/>
				</v:userDefs>
				<path d="M14.61 430.62 L14.61 459 L0 449.02 L14.61 430.62 Z" class="st5"/>
			</g>
			<g id="shape7-15" v:mID="7" v:groupContext="shape" transform="translate(17.8262,-6.18198)">
				<title>Sheet.7</title>
				<v:userDefs>
					<v:ud v:nameU="msvDisableCustomConnectionPoints" v:prompt="" v:val="VT0(1):5"/>
				</v:userDefs>
				<path d="M0 430.62 L0 459 L14.91 449.04 L0 430.62 Z" class="st7"/>
			</g>
			<g id="shape8-19" v:mID="8" v:groupContext="shape" transform="translate(17.8262,-6.18198)">
				<title>Sheet.8</title>
				<v:userDefs>
					<v:ud v:nameU="msvDisableCustomConnectionPoints" v:prompt="" v:val="VT0(1):5"/>
				</v:userDefs>
				<path d="M0 445.29 L14.91 449.04 L0 459 L0 445.29 Z" class="st8"/>
			</g>
			<g id="shape9-21" v:mID="9" v:groupContext="shape" transform="translate(3.21391,-6.18198)">
				<title>Sheet.9</title>
				<v:userDefs>
					<v:ud v:nameU="msvDisableCustomConnectionPoints" v:prompt="" v:val="VT0(1):5"/>
				</v:userDefs>
				<path d="M14.61 459 L0 449.02 L14.61 445.29 L14.61 459 Z" class="st9"/>
			</g>
			<g id="shape10-23" v:mID="10" v:groupContext="shape" transform="translate(17.8262,1.7053E-13)">
				<title>Sheet.10</title>
				<v:userDefs>
					<v:ud v:nameU="msvDisableCustomConnectionPoints" v:prompt="" v:val="VT0(1):5"/>
				</v:userDefs>
				<path d="M0 459 L18.11 446.68 L16.09 444.19 L0 455.08 L0 459 Z" class="st10"/>
			</g>
		</g>
		<g id="shape11-27" v:mID="11" v:groupContext="shape" transform="translate(50.0626,-177.52)">
			<title>Round Corner Rectangle.22</title>
			<v:userDefs>
				<v:ud v:nameU="CTypeTopLeftSnip" v:prompt="" v:val="VT0(0):5"/>
				<v:ud v:nameU="CTypeTopRightSnip" v:prompt="" v:val="VT0(0):5"/>
				<v:ud v:nameU="CTypeBotLeftSnip" v:prompt="" v:val="VT0(0):5"/>
				<v:ud v:nameU="CTypeBotRightSnip" v:prompt="" v:val="VT0(0):5"/>
				<v:ud v:nameU="CornerLockHoriz" v:prompt="" v:val="VT0(0):5"/>
				<v:ud v:nameU="CornerLockVert" v:prompt="" v:val="VT0(0):5"/>
				<v:ud v:nameU="CornerLockDiag" v:prompt="" v:val="VT0(0):5"/>
				<v:ud v:nameU="TopLeftOffset" v:prompt="" v:val="VT0(0.15748031496063):24"/>
				<v:ud v:nameU="TopRightOffset" v:prompt="" v:val="VT0(0.15748031496063):24"/>
				<v:ud v:nameU="BotLeftOffset" v:prompt="" v:val="VT0(0.15748031496063):24"/>
				<v:ud v:nameU="BotRightOffset" v:prompt="" v:val="VT0(0.15748031496063):24"/>
				<v:ud v:nameU="visVersion" v:prompt="" v:val="VT0(15):26"/>
				<v:ud v:nameU="TopLeftOffset" v:prompt="" v:val="VT0(0.26413797501982):1"/>
				<v:ud v:nameU="TopRightOffset" v:prompt="" v:val="VT0(0.26413758426571):1"/>
				<v:ud v:nameU="BotLeftOffset" v:prompt="" v:val="VT0(0.26413797501982):1"/>
				<v:ud v:nameU="BotRightOffset" v:prompt="" v:val="VT0(0.26413758426571):1"/>
			</v:userDefs>
			<path d="M19.02 459 L551.52 459 A19.0176 19.0176 -180 0 0 570.54 439.98 L570.54 346.21 A19.0176 19.0176 -180 0 0 551.52
						 327.19 L19.02 327.19 A19.0176 19.0176 -180 0 0 0 346.21 L0 439.98 A19.0176 19.0176 -180 0 0 19.02 459 Z"
					class="st11"/>
		</g>
		<g id="shape12-29" v:mID="12" v:groupContext="shape" transform="translate(149,-310.748)">
			<title>Sheet.12</title>
			<desc>Management groups</desc>
			<v:textBlock v:margins="rect(4,4,4,4)"/>
			<v:textRect cx="85.5638" cy="451.913" width="171.13" height="14.1732"/>
			<rect x="0" y="444.827" width="171.128" height="14.1732" class="st12"/>
			<text x="41.38" y="454.61" class="st13" v:langID="1033"><v:paragraph v:horizAlign="1"/><v:tabList/>Management groups</text>		</g>
		<g id="shape13-32" v:mID="13" v:groupContext="shape" transform="translate(356.27,-282.402)">
			<title>Rectangle.1000</title>
			<desc>Contoso</desc>
			<v:userDefs>
				<v:ud v:nameU="visVersion" v:val="VT0(15):26"/>
			</v:userDefs>
			<v:textBlock v:margins="rect(4,4,4,4)"/>
			<v:textRect cx="26.2205" cy="451.913" width="52.45" height="14.1732"/>
			<rect x="0" y="444.827" width="52.4409" height="14.1732" class="st14"/>
			<text x="10.65" y="454.31" class="st4" v:langID="2057"><v:paragraph v:horizAlign="1"/><v:tabList/>Contoso</text>		</g>
		<g id="shape14-35" v:mID="14" v:groupContext="shape" transform="translate(473.199,-237.047)">
			<title>Rectangle.1001</title>
			<desc>Decommissioned</desc>
			<v:userDefs>
				<v:ud v:nameU="visVersion" v:val="VT0(15):26"/>
			</v:userDefs>
			<v:textBlock v:margins="rect(4,4,4,4)"/>
			<v:textRect cx="39.685" cy="451.913" width="79.38" height="14.1732"/>
			<rect x="0" y="444.827" width="79.3701" height="14.1732" class="st14"/>
			<text x="7.58" y="454.31" class="st4" v:langID="2057"><v:paragraph v:horizAlign="1"/><v:tabList/>Decommissioned</text>		</g>
		<g id="shape15-38" v:mID="15" v:groupContext="shape" transform="translate(558.238,-237.047)">
			<title>Rectangle.1002</title>
			<desc>Sandbox</desc>
			<v:userDefs>
				<v:ud v:nameU="visVersion" v:val="VT0(15):26"/>
			</v:userDefs>
			<v:textBlock v:margins="rect(4,4,4,4)"/>
			<v:textRect cx="26.2205" cy="451.913" width="52.45" height="14.1732"/>
			<rect x="0" y="444.827" width="52.4409" height="14.1732" class="st14"/>
			<text x="9.79" y="454.31" class="st4" v:langID="2057"><v:paragraph v:horizAlign="1"/><v:tabList/>Sandbox</text>		</g>
		<g id="shape16-41" v:mID="16" v:groupContext="shape" transform="translate(382.49,-237.047)">
			<title>Rectangle.1003</title>
			<desc>Landing zones</desc>
			<v:userDefs>
				<v:ud v:nameU="visVersion" v:val="VT0(15):26"/>
			</v:userDefs>
			<v:textBlock v:margins="rect(4,4,4,4)"/>
			<v:textRect cx="34.0157" cy="451.913" width="68.04" height="14.1732"/>
			<rect x="0" y="444.827" width="68.0315" height="14.1732" class="st14"/>
			<text x="7.08" y="454.31" class="st4" v:langID="1033"><v:paragraph v:horizAlign="1"/><v:tabList/>Landing zones</text>		</g>
		<g id="shape17-44" v:mID="17" v:groupContext="shape" transform="translate(162.78,-237.047)">
			<title>Rectangle.1004</title>
			<desc>Platform</desc>
			<v:userDefs>
				<v:ud v:nameU="visVersion" v:val="VT0(15):26"/>
			</v:userDefs>
			<v:textBlock v:margins="rect(4,4,4,4)"/>
			<v:textRect cx="26.2205" cy="451.913" width="52.45" height="14.1732"/>
			<rect x="0" y="444.827" width="52.4409" height="14.1732" class="st14"/>
			<text x="9.68" y="454.31" class="st4" v:langID="2057"><v:paragraph v:horizAlign="1"/><v:tabList/>Platform</text>		</g>
		<g id="shape18-47" v:mID="18" v:groupContext="shape" transform="translate(63.0001,-188.858)">
			<title>Rectangle.1005</title>
			<desc>Identity</desc>
			<v:userDefs>
				<v:ud v:nameU="visVersion" v:val="VT0(15):26"/>
			</v:userDefs>
			<v:textBlock v:margins="rect(4,4,4,4)"/>
			<v:textRect cx="22.6772" cy="451.913" width="45.36" height="14.1732"/>
			<rect x="0" y="444.827" width="45.3543" height="14.1732" class="st14"/>
			<text x="7.95" y="454.31" class="st4" v:langID="2057"><v:paragraph v:horizAlign="1"/><v:tabList/>Identity</text>		</g>
		<g id="shape19-50" v:mID="19" v:groupContext="shape" transform="translate(113.362,-188.858)">
			<title>Rectangle.1006</title>
			<desc>Management</desc>
			<v:userDefs>
				<v:ud v:nameU="visVersion" v:val="VT0(15):26"/>
			</v:userDefs>
			<v:textBlock v:margins="rect(4,4,4,4)"/>
			<v:textRect cx="31.1811" cy="451.913" width="62.37" height="14.1732"/>
			<rect x="0" y="444.827" width="62.3622" height="14.1732" class="st14"/>
			<text x="6.18" y="454.31" class="st4" v:langID="2057"><v:paragraph v:horizAlign="1"/><v:tabList/>Management</text>		</g>
		<g id="shape20-53" v:mID="20" v:groupContext="shape" transform="translate(180.732,-188.858)">
			<title>Rectangle.1007</title>
			<desc>Connectivity</desc>
			<v:userDefs>
				<v:ud v:nameU="visVersion" v:val="VT0(15):26"/>
			</v:userDefs>
			<v:textBlock v:margins="rect(4,4,4,4)"/>
			<v:textRect cx="31.1811" cy="451.913" width="62.37" height="14.1732"/>
			<rect x="0" y="444.827" width="62.3622" height="14.1732" class="st14"/>
			<text x="7.61" y="454.31" class="st4" v:langID="2057"><v:paragraph v:horizAlign="1"/><v:tabList/>Connectivity</text>		</g>
		<g id="shape24-56" v:mID="24" v:groupContext="shape" v:layerMember="0" transform="translate(382.49,-282.402)">
			<title>Dynamic connector.1012</title>
			<path d="M0 459 L0 472.5 L-193.49 472.5 L-193.49 490.18" class="st15"/>
		</g>
		<g id="shape25-59" v:mID="25" v:groupContext="shape" v:layerMember="0" transform="translate(382.49,-282.402)">
			<title>Dynamic connector.1015</title>
			<path d="M0 459 L0 472.5 L201.97 472.5 L201.97 490.18" class="st15"/>
		</g>
		<g id="shape28-62" v:mID="28" v:groupContext="shape" v:layerMember="0" transform="translate(189,-237.047)">
			<title>Dynamic connector.1018</title>
			<path d="M0 459 L0 472.5 L-103.32 472.5 L-103.32 493.02" class="st15"/>
		</g>
		<g id="shape29-65" v:mID="29" v:groupContext="shape" v:layerMember="0" transform="translate(189,-237.047)">
			<title>Dynamic connector.1019</title>
			<path d="M0 459 L0 472.5 L22.91 472.5 L22.91 493.02" class="st15"/>
		</g>
		<g id="shape30-68" v:mID="30" v:groupContext="shape" v:layerMember="0" transform="translate(144.543,-203.032)">
			<title>Dynamic connector.1020</title>
			<path d="M0 459 L-0 438.48 L44.46 438.48" class="st15"/>
		</g>
		<g id="shape34-71" v:mID="34" v:groupContext="shape" transform="translate(51.1876,-58.4647)">
			<title>Round Corner Rectangle.23</title>
			<v:userDefs>
				<v:ud v:nameU="CTypeTopLeftSnip" v:prompt="" v:val="VT0(0):5"/>
				<v:ud v:nameU="CTypeTopRightSnip" v:prompt="" v:val="VT0(0):5"/>
				<v:ud v:nameU="CTypeBotLeftSnip" v:prompt="" v:val="VT0(0):5"/>
				<v:ud v:nameU="CTypeBotRightSnip" v:prompt="" v:val="VT0(0):5"/>
				<v:ud v:nameU="CornerLockHoriz" v:prompt="" v:val="VT0(0):5"/>
				<v:ud v:nameU="CornerLockVert" v:prompt="" v:val="VT0(0):5"/>
				<v:ud v:nameU="CornerLockDiag" v:prompt="" v:val="VT0(0):5"/>
				<v:ud v:nameU="TopLeftOffset" v:prompt="" v:val="VT0(0.15748031496063):24"/>
				<v:ud v:nameU="TopRightOffset" v:prompt="" v:val="VT0(0.15748031496063):24"/>
				<v:ud v:nameU="BotLeftOffset" v:prompt="" v:val="VT0(0.15748031496063):24"/>
				<v:ud v:nameU="BotRightOffset" v:prompt="" v:val="VT0(0.15748031496063):24"/>
				<v:ud v:nameU="visVersion" v:prompt="" v:val="VT0(15):26"/>
				<v:ud v:nameU="TopLeftOffset" v:prompt="" v:val="VT0(0.26361714160421):1"/>
				<v:ud v:nameU="TopRightOffset" v:prompt="" v:val="VT0(0.26361675162059):1"/>
				<v:ud v:nameU="BotLeftOffset" v:prompt="" v:val="VT0(0.26361714160421):1"/>
				<v:ud v:nameU="BotRightOffset" v:prompt="" v:val="VT0(0.26361675162059):1"/>
			</v:userDefs>
			<path d="M18.98 459 L550.43 459 A18.9801 18.9801 -180 0 0 569.41 440.02 L569.41 369.72 A18.9801 18.9801 -180 0 0 550.43
						 350.74 L18.98 350.74 A18.9801 18.9801 -180 0 0 0 369.72 L0 440.02 A18.9801 18.9801 -180 0 0 18.98 459 Z"
					class="st16"/>
		</g>
		<g id="shape35-73" v:mID="35" v:groupContext="shape" transform="translate(67.819,-114.803)">
			<title>Rectangle.1025</title>
			<desc>Identity subscription</desc>
			<v:userDefs>
				<v:ud v:nameU="visVersion" v:val="VT0(15):26"/>
			</v:userDefs>
			<v:textBlock v:margins="rect(4,4,4,4)"/>
			<v:textRect cx="31.1811" cy="447.484" width="62.37" height="23.0315"/>
			<rect x="0" y="435.969" width="62.3622" height="23.0315" class="st17"/>
			<text x="16.45" y="445.08" class="st4" v:langID="1033"><v:paragraph v:horizAlign="1"/><v:tabList/>Identity <tspan
						x="8.07" dy="1.2em" class="st18">subscription</tspan></text>		</g>
		<g id="shape36-77" v:mID="36" v:groupContext="shape" transform="translate(140.386,-114.803)">
			<title>Rectangle.1026</title>
			<desc>Management subscription</desc>
			<v:userDefs>
				<v:ud v:nameU="visVersion" v:val="VT0(15):26"/>
			</v:userDefs>
			<v:textBlock v:margins="rect(4,4,4,4)"/>
			<v:textRect cx="31.1811" cy="447.484" width="62.37" height="23.0315"/>
			<rect x="0" y="435.969" width="62.3622" height="23.0315" class="st17"/>
			<text x="6.18" y="445.08" class="st4" v:langID="1033"><v:paragraph v:horizAlign="1"/><v:tabList/>Management <tspan
						x="8.07" dy="1.2em" class="st18">subscription</tspan></text>		</g>
		<g id="shape37-81" v:mID="37" v:groupContext="shape" transform="translate(211.252,-114.803)">
			<title>Rectangle.1027</title>
			<desc>Connectivity subscription</desc>
			<v:userDefs>
				<v:ud v:nameU="visVersion" v:val="VT0(15):26"/>
			</v:userDefs>
			<v:textBlock v:margins="rect(4,4,4,4)"/>
			<v:textRect cx="31.1811" cy="447.484" width="62.37" height="23.0315"/>
			<rect x="0" y="435.969" width="62.3622" height="23.0315" class="st17"/>
			<text x="7.61" y="445.08" class="st4" v:langID="1033"><v:paragraph v:horizAlign="1"/><v:tabList/>Connectivity <tspan
						x="8.07" dy="1.2em" class="st18">subscription</tspan></text>		</g>
		<g id="shape38-85" v:mID="38" v:groupContext="shape" transform="translate(544.677,270.142) rotate(90)">
			<title>Sheet.38</title>
			<path d="M0 459 L51.02 459" class="st15"/>
		</g>
		<g id="shape39-88" v:mID="39" v:groupContext="shape" transform="translate(612,270.142) rotate(90)">
			<title>Sheet.39</title>
			<path d="M0 459 L51.02 459" class="st15"/>
		</g>
		<g id="shape40-91" v:mID="40" v:groupContext="shape" transform="translate(684,270.142) rotate(90)">
			<title>Sheet.40</title>
			<path d="M0 459 L51.02 459" class="st15"/>
		</g>
		<g id="group41-94" transform="translate(131.377,-44.2914)" v:mID="41" v:groupContext="group">
			<title>Sheet.41</title>
			<g id="group42-95" v:mID="42" v:groupContext="group">
				<title>Subscriptions</title>
				<g id="shape43-96" v:mID="43" v:groupContext="shape">
					<title>Sheet.43</title>
					<v:userDefs>
						<v:ud v:nameU="msvDisableCustomConnectionPoints" v:prompt="" v:val="VT0(1):5"/>
					</v:userDefs>
					<path d="M18.86 438.06 A3.66905 3.96761 -180 0 0 18.86 432.45 L12.55 425.6 A3.65132 3.94845 -180 0 0 7.37 425.6
								 L1.06 432.45 A3.7045 4.00595 -180 0 0 1.06 438.06 L6.38 443.81 A1.08122 1.1692 0 0 1 6.68 444.6
								 L6.68 455.18 A1.24074 1.34171 -180 0 0 7.04 456.14 L9.43 458.72 a0.797619 0.862525 -180 0 0 1.16984
								 0 L12.92 456.21 L14.29 454.74 a0.460847 0.498348 -180 0 0 -8.88178E-15 -0.728354 L13.31 452.94 a0.514021
								 0.555849 0 0 1 -1.59872E-14 -0.805023 L14.29 451.06 a0.460847 0.498348 -180 0 0 1.77636E-15 -0.728354
								 L13.26 449.2 a0.496296 0.536682 0 0 1 -1.24345E-14 -0.785856 L14.32 447.28 a0.460847 0.498348 -180
								 0 0 -1.77636E-15 -0.728354 L12.96 445.06 L12.96 444.52 L18.86 438.06 ZM10 427.25 A2.09153 2.26173
								 0 1 1 7.89 429.51 A2.07381 2.24256 0 0 1 9.96 427.25 L10 427.25 Z" class="st19"/>
				</g>
				<g id="shape44-100" v:mID="44" v:groupContext="shape" transform="translate(8.11694,-3.63942)">
					<title>Sheet.44</title>
					<v:userDefs>
						<v:ud v:nameU="msvDisableCustomConnectionPoints" v:prompt="" v:val="VT0(1):5"/>
					</v:userDefs>
					<path d="M0.21 458.99 a0.443122 0.47918 -180 0 0 0.673545 -0.402512 L0.89 450.06 a0.478572 0.517515 -180 0 0
								 -0.194974 -0.421679 a0.443122 0.47918 -180 0 0 -0.69127 0.421679 L0 458.59 a0.478572 0.517515 -180
								 0 0 0.212698 0.402512 Z" class="st20"/>
				</g>
				<g id="shape45-102" v:mID="45" v:groupContext="shape" transform="translate(4.90873,-22.9509)">
					<title>Sheet.45</title>
					<v:userDefs>
						<v:ud v:nameU="msvDisableCustomConnectionPoints" v:prompt="" v:val="VT0(1):5"/>
					</v:userDefs>
					<path d="M0 458.39 a0.567209 0.613365 -180 0 0 0.567196 0.613351 L9.82 459 a0.567209 0.613365 -180 0 0 0.567196
								 -0.613351 L10.39 458.29 a0.567209 0.613365 -180 0 0 -0.567196 -0.613351 L0.57 457.68 a0.567209 0.613365
								 -180 0 0 -0.567196 0.613351 L0 458.39 Z" class="st20"/>
				</g>
				<g id="shape46-104" v:mID="46" v:groupContext="shape" transform="translate(4.90873,-20.8042)">
					<title>Sheet.46</title>
					<v:userDefs>
						<v:ud v:nameU="msvDisableCustomConnectionPoints" v:prompt="" v:val="VT0(1):5"/>
					</v:userDefs>
					<path d="M0 458.39 a0.567209 0.613365 -180 0 0 0.567196 0.613351 L9.82 459 a0.567209 0.613365 -180 0 0 0.567196
								 -0.613351 L10.39 458.29 a0.567209 0.613365 -180 0 0 -0.567196 -0.613351 L0.57 457.68 a0.567209 0.613365
								 -180 0 0 -0.567196 0.613351 L0 458.39 Z" class="st20"/>
				</g>
			</g>
			<g id="shape47-106" v:mID="47" v:groupContext="shape" transform="translate(21.4639,-16.1348)">
				<title>Sheet.47</title>
				<desc>Subscriptions</desc>
				<v:textBlock v:margins="rect(4,4,4,4)"/>
				<v:textRect cx="36.0793" cy="451.913" width="72.16" height="14.1732"/>
				<rect x="0" y="444.827" width="72.1587" height="14.1732" class="st12"/>
				<text x="7.56" y="454.61" class="st13" v:langID="1033"><v:paragraph v:horizAlign="1"/><v:tabList/>Subscriptions</text>			</g>
		</g>
		<g id="shape48-109" v:mID="48" v:groupContext="shape" v:layerMember="0" transform="translate(391.517,-374.298)">
			<title>Dynamic connector.1080</title>
			<path d="M-8.98 462.12 L-8.98 468.87 L-9.02 468.87 L-9.02 473.88" class="st15"/>
		</g>
		<g id="shape49-112" v:mID="49" v:groupContext="shape" transform="translate(390.961,-379.28)">
			<title>Sheet.49</title>
			<desc>Microsoft Entra ID tenant – production contoso.onmicrosoft.com</desc>
			<v:textBlock v:margins="rect(4,4,4,4)" v:tabSpace="42.5197"/>
			<v:textRect cx="70.8661" cy="447.484" width="141.74" height="23.0315"/>
			<rect x="0" y="435.969" width="141.732" height="23.0315" class="st12"/>
			<text x="13.53" y="439.38" class="st13" v:langID="1033"><v:paragraph v:horizAlign="1"/><v:tabList/>Microsoft Entra ID<tspan
						class="st18" v:langID="2057"> </tspan>t<tspan class="st18" v:langID="2057">enant </tspan><tspan
						class="st18" v:langID="2057">–</tspan><tspan class="st18" v:langID="2057"> </tspan><tspan x="47.36"
						dy="1.2em" class="st18">p</tspan><tspan class="st18" v:langID="2057">roduction<v:lf/></tspan><tspan
						x="20.45" dy="1.2em" class="st21" v:langID="2057">contoso.onmicrosoft.com</tspan></text>		</g>
		<g id="shape51-122" v:mID="51" v:groupContext="shape" transform="translate(399.498,-83.9765)">
			<title>Rectangle.1084</title>
			<desc>Landing zone A2</desc>
			<v:userDefs>
				<v:ud v:nameU="visVersion" v:val="VT0(15):26"/>
			</v:userDefs>
			<v:textBlock v:margins="rect(4,4,4,4)"/>
			<v:textRect cx="31.1811" cy="447.484" width="62.37" height="23.0315"/>
			<rect x="0" y="435.969" width="62.3622" height="23.0315" class="st17"/>
			<text x="6.01" y="445.08" class="st4" v:langID="1033"><v:paragraph v:horizAlign="1"/><v:tabList/>Landing zone <tspan
						x="26.07" dy="1.2em" class="st18">A2</tspan></text>		</g>
		<g id="group52-126" transform="translate(465.739,-110.831)" v:mID="52" v:groupContext="group">
			<title>Sheet.52</title>
			<g id="shape53-127" v:mID="53" v:groupContext="shape" transform="translate(2.68545,-5.68434E-14)">
				<title>Rectangle.1088</title>
				<v:userDefs>
					<v:ud v:nameU="visVersion" v:val="VT0(15):26"/>
				</v:userDefs>
				<rect x="0" y="435.969" width="79.3701" height="23.0315" class="st17"/>
			</g>
			<g id="shape54-129" v:mID="54" v:groupContext="shape" transform="translate(0,-4.08413)">
				<title>Rectangle.1087</title>
				<desc>Decommissioned subscriptions</desc>
				<v:userDefs>
					<v:ud v:nameU="visVersion" v:val="VT0(15):26"/>
				</v:userDefs>
				<v:textBlock v:margins="rect(4,4,4,4)"/>
				<v:textRect cx="39.685" cy="447.484" width="79.38" height="23.0315"/>
				<rect x="0" y="435.969" width="79.3701" height="23.0315" class="st17"/>
				<text x="7.58" y="445.08" class="st4" v:langID="1033"><v:paragraph v:horizAlign="1"/><v:tabList/>Decommissioned <tspan
							x="14.82" dy="1.2em" class="st18">subscriptions</tspan></text>			</g>
		</g>
		<g id="shape55-133" v:mID="55" v:groupContext="shape" transform="translate(855.663,270) rotate(90)">
			<title>Sheet.55</title>
			<path d="M0 459 L93.37 459" class="st15"/>
		</g>
		<g id="shape56-136" v:mID="56" v:groupContext="shape" transform="translate(399.498,822.508) rotate(180)">
			<title>Sheet.56</title>
			<path d="M0 459 L2.83 459" class="st15"/>
		</g>
		<g id="shape57-139" v:mID="57" v:groupContext="shape" transform="translate(288.053,822.375) rotate(180)">
			<title>Sheet.57</title>
			<path d="M0 459 L6.75 459" class="st15"/>
		</g>
		<g id="group58-142" transform="translate(551.823,-110.951)" v:mID="58" v:groupContext="group">
			<title>Sheet.58</title>
			<g id="shape59-143" v:mID="59" v:groupContext="shape" transform="translate(2.83465,0)">
				<title>Rectangle.1094</title>
				<v:userDefs>
					<v:ud v:nameU="visVersion" v:val="VT0(15):26"/>
				</v:userDefs>
				<rect x="0" y="435.969" width="62.3622" height="23.0315" class="st17"/>
			</g>
			<g id="shape60-145" v:mID="60" v:groupContext="shape" transform="translate(6.39488E-14,-3.96382)">
				<title>Rectangle.1090</title>
				<desc>Sandbox subscriptions</desc>
				<v:userDefs>
					<v:ud v:nameU="visVersion" v:val="VT0(15):26"/>
				</v:userDefs>
				<v:textBlock v:margins="rect(4,4,4,4)"/>
				<v:textRect cx="31.1811" cy="447.484" width="62.37" height="23.0315"/>
				<rect x="0" y="435.969" width="62.3622" height="23.0315" class="st17"/>
				<text x="14.76" y="445.08" class="st4" v:langID="1033"><v:paragraph v:horizAlign="1"/><v:tabList/>Sandbox <tspan
							x="6.31" dy="1.2em" class="st18">subscriptions</tspan></text>			</g>
		</g>
		<g id="shape61-149" v:mID="61" v:groupContext="shape" transform="translate(971.884,221.953) rotate(90)">
			<title>Sheet.61</title>
			<path d="M0 459 L99.1 459" class="st15"/>
		</g>
		<g id="shape62-152" v:mID="62" v:groupContext="shape" transform="translate(1043.46,221.953) rotate(90)">
			<title>Sheet.62</title>
			<path d="M0 459 L99.1 459" class="st15"/>
		</g>
		<g id="shape63-155" v:mID="63" v:groupContext="shape" v:layerMember="0" transform="translate(391.495,-345.246)">
			<title>Dynamic connector.1104</title>
			<path d="M-9 459 L-9 472.5 L-9 472.5 L-9 507.67" class="st15"/>
		</g>
		<g id="shape65-158" v:mID="65" v:groupContext="shape" transform="translate(875.506,190.098) rotate(90)">
			<title>Sheet.65</title>
			<path d="M0 459 L17.68 459" class="st15"/>
		</g>
		<g id="shape66-161" v:mID="66" v:groupContext="shape" transform="translate(971.99,193.109) rotate(90.3758)">
			<title>Sheet.66</title>
			<path d="M0 459 L17.68 459" class="st15"/>
		</g>
		<g id="shape68-164" v:mID="68" v:groupContext="shape" transform="translate(333,-184.5)">
			<title>Rectangle.68</title>
			<desc>Confidential online</desc>
			<v:userDefs>
				<v:ud v:nameU="visVersion" v:val="VT0(15):26"/>
			</v:userDefs>
			<v:textBlock v:margins="rect(4,4,4,4)"/>
			<v:textRect cx="27.1772" cy="449.297" width="54.36" height="19.4063"/>
			<rect x="0" y="439.594" width="54.3543" height="19.4063" class="st14"/>
			<text x="4.1" y="446.9" class="st4" v:langID="1033"><v:paragraph v:horizAlign="1"/><v:tabList/>Confidential <tspan
						x="15.45" dy="1.2em" class="st18">online</tspan></text>		</g>
		<g id="shape69-168" v:mID="69" v:groupContext="shape" transform="translate(391.5,-184.5)">
			<title>Rectangle.69</title>
			<desc>Corp</desc>
			<v:userDefs>
				<v:ud v:nameU="visVersion" v:val="VT0(15):26"/>
			</v:userDefs>
			<v:textBlock v:margins="rect(4,4,4,4)"/>
			<v:textRect cx="27.1772" cy="449.297" width="54.36" height="19.4063"/>
			<rect x="0" y="439.594" width="54.3543" height="19.4063" class="st14"/>
			<text x="18.16" y="451.7" class="st4" v:langID="1033"><v:paragraph v:horizAlign="1"/><v:tabList/>Corp</text>		</g>
		<g id="shape70-171" v:mID="70" v:groupContext="shape" transform="translate(450,-184.5)">
			<title>Rectangle.70</title>
			<desc>Online</desc>
			<v:userDefs>
				<v:ud v:nameU="visVersion" v:val="VT0(15):26"/>
			</v:userDefs>
			<v:textBlock v:margins="rect(4,4,4,4)"/>
			<v:textRect cx="27.1772" cy="449.297" width="54.36" height="19.4063"/>
			<rect x="0" y="439.594" width="54.3543" height="19.4063" class="st14"/>
			<text x="14.87" y="451.7" class="st4" v:langID="1033"><v:paragraph v:horizAlign="1"/><v:tabList/>Online</text>		</g>
		<g id="shape72-174" v:mID="72" v:groupContext="shape" transform="translate(284.138,-83.8435)">
			<title>Rectangle.72</title>
			<desc>Confidential landing zone C2</desc>
			<v:userDefs>
				<v:ud v:nameU="visVersion" v:val="VT0(15):26"/>
			</v:userDefs>
			<v:textBlock v:margins="rect(4,4,4,4)"/>
			<v:textRect cx="42.4311" cy="447.484" width="84.87" height="23.0315"/>
			<rect x="0" y="435.969" width="84.8623" height="23.0315" class="st17"/>
			<text x="19.36" y="445.08" class="st4" v:langID="1033"><v:paragraph v:horizAlign="1"/><v:tabList/>Confidential  <tspan
						x="12.26" dy="1.2em" class="st18">landing zone C2</tspan></text>		</g>
		<g id="shape73-178" v:mID="73" v:groupContext="shape" transform="translate(740.303,274.5) rotate(90)">
			<title>Sheet.73</title>
			<path d="M0 459 L88.87 459" class="st15"/>
		</g>
		<g id="shape67-181" v:mID="67" v:groupContext="shape" transform="translate(274.5,-184.5)">
			<title>Rectangle.67</title>
			<desc>Confidential corp</desc>
			<v:userDefs>
				<v:ud v:nameU="visVersion" v:val="VT0(15):26"/>
			</v:userDefs>
			<v:textBlock v:margins="rect(4,4,4,4)"/>
			<v:textRect cx="27.1772" cy="449.297" width="54.36" height="19.4063"/>
			<rect x="0" y="439.594" width="54.3543" height="19.4063" class="st14"/>
			<text x="4.1" y="446.9" class="st4" v:langID="1033"><v:paragraph v:horizAlign="1"/><v:tabList/>Confidential <tspan
						x="18.74" dy="1.2em" class="st18">corp</tspan></text>		</g>
		<g id="shape75-185" v:mID="75" v:groupContext="shape" transform="translate(403.413,790.875) rotate(180)">
			<title>Sheet.75</title>
			<path d="M0 459 L6.75 459" class="st15"/>
		</g>
		<g id="shape50-188" v:mID="50" v:groupContext="shape" transform="translate(399.498,-114.803)">
			<title>Rectangle.1083</title>
			<desc>Landing zone A1</desc>
			<v:userDefs>
				<v:ud v:nameU="visVersion" v:val="VT0(15):26"/>
			</v:userDefs>
			<v:textBlock v:margins="rect(4,4,4,4)"/>
			<v:textRect cx="31.1811" cy="447.484" width="62.37" height="23.0315"/>
			<rect x="0" y="435.969" width="62.3622" height="23.0315" class="st17"/>
			<text x="6.01" y="445.08" class="st4" v:langID="1033"><v:paragraph v:horizAlign="1"/><v:tabList/>Landing zone <tspan
						x="26.07" dy="1.2em" class="st18">A1</tspan></text>		</g>
		<g id="shape76-192" v:mID="76" v:groupContext="shape" transform="translate(288.053,790.875) rotate(180)">
			<title>Sheet.76</title>
			<path d="M0 459 L6.75 459" class="st15"/>
		</g>
		<g id="shape71-195" v:mID="71" v:groupContext="shape" transform="translate(284.138,-114.75)">
			<title>Rectangle.71</title>
			<desc>Confidential landing zone C1</desc>
			<v:userDefs>
				<v:ud v:nameU="visVersion" v:val="VT0(15):26"/>
			</v:userDefs>
			<v:textBlock v:margins="rect(4,4,4,4)"/>
			<v:textRect cx="42.4311" cy="447.484" width="84.87" height="23.0315"/>
			<rect x="0" y="435.969" width="84.8623" height="23.0315" class="st17"/>
			<text x="19.36" y="445.08" class="st4" v:langID="1033"><v:paragraph v:horizAlign="1"/><v:tabList/>Confidential  <tspan
						x="12.26" dy="1.2em" class="st18">landing zone C1</tspan></text>		</g>
		<g id="shape1001-199" v:mID="1001" v:groupContext="shape" transform="translate(875.496,224.963) rotate(90.3758)">
			<title>Sheet.1001</title>
			<path d="M0 459 L13.74 459" class="st15"/>
		</g>
		<g id="shape1002-202" v:mID="1002" v:groupContext="shape" transform="translate(473.625,694.688) rotate(180)">
			<title>Sheet.1002</title>
			<path d="M0 459 L179.44 459" class="st15"/>
		</g>
		<g id="shape1003-205" v:mID="1003" v:groupContext="shape" transform="translate(932.625,235.688) rotate(90)">
			<title>Sheet.1003</title>
			<path d="M0 459 L19.41 459" class="st15"/>
		</g>
		<g id="shape1004-208" v:mID="1004" v:groupContext="shape" transform="translate(881.438,235.688) rotate(90)">
			<title>Sheet.1004</title>
			<path d="M0 459 L19.41 459" class="st15"/>
		</g>
		<g id="shape1005-211" v:mID="1005" v:groupContext="shape" transform="translate(819.562,235.688) rotate(90)">
			<title>Sheet.1005</title>
			<path d="M0 459 L19.41 459" class="st15"/>
		</g>
		<g id="shape1006-214" v:mID="1006" v:groupContext="shape" transform="translate(753.188,235.688) rotate(90)">
			<title>Sheet.1006</title>
			<path d="M0 459 L19.41 459" class="st15"/>
		</g>
		<g id="shape64-217" v:mID="64" v:groupContext="shape" transform="translate(274.5,-72)">
			<title>Round Corner Rectangle.1105</title>
			<v:userDefs>
				<v:ud v:nameU="CTypeTopLeftSnip" v:prompt="" v:val="VT0(0):5"/>
				<v:ud v:nameU="CTypeTopRightSnip" v:prompt="" v:val="VT0(0):5"/>
				<v:ud v:nameU="CTypeBotLeftSnip" v:prompt="" v:val="VT0(0):5"/>
				<v:ud v:nameU="CTypeBotRightSnip" v:prompt="" v:val="VT0(0):5"/>
				<v:ud v:nameU="CornerLockHoriz" v:prompt="" v:val="VT0(0):5"/>
				<v:ud v:nameU="CornerLockVert" v:prompt="" v:val="VT0(0):5"/>
				<v:ud v:nameU="CornerLockDiag" v:prompt="" v:val="VT0(0):5"/>
				<v:ud v:nameU="TopLeftOffset" v:prompt="" v:val="VT0(0.15748031496063):24"/>
				<v:ud v:nameU="TopRightOffset" v:prompt="" v:val="VT0(0.15748031496063):24"/>
				<v:ud v:nameU="BotLeftOffset" v:prompt="" v:val="VT0(0.15748031496063):24"/>
				<v:ud v:nameU="BotRightOffset" v:prompt="" v:val="VT0(0.15748031496063):24"/>
				<v:ud v:nameU="visVersion" v:prompt="" v:val="VT0(15):26"/>
				<v:ud v:nameU="TopLeftOffset" v:prompt="" v:val="VT0(0.15625):1"/>
				<v:ud v:nameU="TopRightOffset" v:prompt="" v:val="VT0(0.15625):1"/>
				<v:ud v:nameU="BotLeftOffset" v:prompt="" v:val="VT0(0.15625):1"/>
				<v:ud v:nameU="BotRightOffset" v:prompt="" v:val="VT0(0.15625):1"/>
			</v:userDefs>
			<path d="M11.25 459 L101.25 459 A11.2498 11.2498 -180 0 0 112.5 447.75 L112.5 326.25 A11.2498 11.2498 -180 0 0 101.25
						 315 L11.25 315 A11.2498 11.2498 -180 0 0 -0 326.25 L0 447.75 A11.2498 11.2498 -180 0 0 11.25 459 Z"
					class="st22"/>
		</g>
	</g>
</svg>
