<svg width="4620" height="984" xmlns="http://www.w3.org/2000/svg" xmlns:xlink="http://www.w3.org/1999/xlink" xml:space="preserve" overflow="hidden"><defs><filter id="fx0" x="-10%" y="-10%" width="120%" height="120%" filterUnits="userSpaceOnUse" primitiveUnits="userSpaceOnUse"><feComponentTransfer color-interpolation-filters="sRGB"><feFuncR type="discrete" tableValues="0 0"/><feFuncG type="discrete" tableValues="0 0"/><feFuncB type="discrete" tableValues="0 0"/><feFuncA type="linear" slope="0.4" intercept="0"/></feComponentTransfer><feGaussianBlur stdDeviation="6.11111 6.11111"/></filter><filter id="fx1" x="-10%" y="-10%" width="120%" height="120%" filterUnits="userSpaceOnUse" primitiveUnits="userSpaceOnUse"><feComponentTransfer color-interpolation-filters="sRGB"><feFuncR type="discrete" tableValues="0 0"/><feFuncG type="discrete" tableValues="0 0"/><feFuncB type="discrete" tableValues="0 0"/><feFuncA type="linear" slope="0.4" intercept="0"/></feComponentTransfer><feGaussianBlur stdDeviation="6.11111 6.11111"/></filter><filter id="fx2" x="-10%" y="-10%" width="120%" height="120%" filterUnits="userSpaceOnUse" primitiveUnits="userSpaceOnUse"><feComponentTransfer color-interpolation-filters="sRGB"><feFuncR type="discrete" tableValues="0 0"/><feFuncG type="discrete" tableValues="0 0"/><feFuncB type="discrete" tableValues="0 0"/><feFuncA type="linear" slope="0.4" intercept="0"/></feComponentTransfer><feGaussianBlur stdDeviation="6.11111 6.11111"/></filter><filter id="fx3" x="-10%" y="-10%" width="120%" height="120%" filterUnits="userSpaceOnUse" primitiveUnits="userSpaceOnUse"><feComponentTransfer color-interpolation-filters="sRGB"><feFuncR type="discrete" tableValues="0 0"/><feFuncG type="discrete" tableValues="0 0"/><feFuncB type="discrete" tableValues="0 0"/><feFuncA type="linear" slope="0.4" intercept="0"/></feComponentTransfer><feGaussianBlur stdDeviation="6.11111 6.11111"/></filter><filter id="fx4" x="-10%" y="-10%" width="120%" height="120%" filterUnits="userSpaceOnUse" primitiveUnits="userSpaceOnUse"><feComponentTransfer color-interpolation-filters="sRGB"><feFuncR type="discrete" tableValues="0 0"/><feFuncG type="discrete" tableValues="0 0"/><feFuncB type="discrete" tableValues="0 0"/><feFuncA type="linear" slope="0.4" intercept="0"/></feComponentTransfer><feGaussianBlur stdDeviation="6.11111 6.11111"/></filter><filter id="fx5" x="-10%" y="-10%" width="120%" height="120%" filterUnits="userSpaceOnUse" primitiveUnits="userSpaceOnUse"><feComponentTransfer color-interpolation-filters="sRGB"><feFuncR type="discrete" tableValues="0 0"/><feFuncG type="discrete" tableValues="0 0"/><feFuncB type="discrete" tableValues="0 0"/><feFuncA type="linear" slope="0.4" intercept="0"/></feComponentTransfer><feGaussianBlur stdDeviation="6.11111 6.11111"/></filter><filter id="fx6" x="-10%" y="-10%" width="120%" height="120%" filterUnits="userSpaceOnUse" primitiveUnits="userSpaceOnUse"><feComponentTransfer color-interpolation-filters="sRGB"><feFuncR type="discrete" tableValues="0 0"/><feFuncG type="discrete" tableValues="0 0"/><feFuncB type="discrete" tableValues="0 0"/><feFuncA type="linear" slope="0.4" intercept="0"/></feComponentTransfer><feGaussianBlur stdDeviation="6.11111 6.11111"/></filter><filter id="fx7" x="-10%" y="-10%" width="120%" height="120%" filterUnits="userSpaceOnUse" primitiveUnits="userSpaceOnUse"><feComponentTransfer color-interpolation-filters="sRGB"><feFuncR type="discrete" tableValues="0 0"/><feFuncG type="discrete" tableValues="0 0"/><feFuncB type="discrete" tableValues="0 0"/><feFuncA type="linear" slope="0.4" intercept="0"/></feComponentTransfer><feGaussianBlur stdDeviation="6.11111 6.11111"/></filter><filter id="fx8" x="-10%" y="-10%" width="120%" height="120%" filterUnits="userSpaceOnUse" primitiveUnits="userSpaceOnUse"><feComponentTransfer color-interpolation-filters="sRGB"><feFuncR type="discrete" tableValues="0 0"/><feFuncG type="discrete" tableValues="0 0"/><feFuncB type="discrete" tableValues="0 0"/><feFuncA type="linear" slope="0.4" intercept="0"/></feComponentTransfer><feGaussianBlur stdDeviation="6.11111 6.11111"/></filter><filter id="fx9" x="-10%" y="-10%" width="120%" height="120%" filterUnits="userSpaceOnUse" primitiveUnits="userSpaceOnUse"><feComponentTransfer color-interpolation-filters="sRGB"><feFuncR type="discrete" tableValues="0 0"/><feFuncG type="discrete" tableValues="0 0"/><feFuncB type="discrete" tableValues="0 0"/><feFuncA type="linear" slope="0.4" intercept="0"/></feComponentTransfer><feGaussianBlur stdDeviation="6.11111 6.11111"/></filter><filter id="fx10" x="-10%" y="-10%" width="120%" height="120%" filterUnits="userSpaceOnUse" primitiveUnits="userSpaceOnUse"><feComponentTransfer color-interpolation-filters="sRGB"><feFuncR type="discrete" tableValues="0 0"/><feFuncG type="discrete" tableValues="0 0"/><feFuncB type="discrete" tableValues="0 0"/><feFuncA type="linear" slope="0.4" intercept="0"/></feComponentTransfer><feGaussianBlur stdDeviation="6.11111 6.11111"/></filter><filter id="fx11" x="-10%" y="-10%" width="120%" height="120%" filterUnits="userSpaceOnUse" primitiveUnits="userSpaceOnUse"><feComponentTransfer color-interpolation-filters="sRGB"><feFuncR type="discrete" tableValues="0 0"/><feFuncG type="discrete" tableValues="0 0"/><feFuncB type="discrete" tableValues="0 0"/><feFuncA type="linear" slope="0.4" intercept="0"/></feComponentTransfer><feGaussianBlur stdDeviation="6.11111 6.11111"/></filter><filter id="fx12" x="-10%" y="-10%" width="120%" height="120%" filterUnits="userSpaceOnUse" primitiveUnits="userSpaceOnUse"><feComponentTransfer color-interpolation-filters="sRGB"><feFuncR type="discrete" tableValues="0 0"/><feFuncG type="discrete" tableValues="0 0"/><feFuncB type="discrete" tableValues="0 0"/><feFuncA type="linear" slope="0.4" intercept="0"/></feComponentTransfer><feGaussianBlur stdDeviation="6.11111 6.11111"/></filter><filter id="fx13" x="-10%" y="-10%" width="120%" height="120%" filterUnits="userSpaceOnUse" primitiveUnits="userSpaceOnUse"><feComponentTransfer color-interpolation-filters="sRGB"><feFuncR type="discrete" tableValues="0 0"/><feFuncG type="discrete" tableValues="0 0"/><feFuncB type="discrete" tableValues="0 0"/><feFuncA type="linear" slope="0.4" intercept="0"/></feComponentTransfer><feGaussianBlur stdDeviation="6.11111 6.11111"/></filter><filter id="fx14" x="-10%" y="-10%" width="120%" height="120%" filterUnits="userSpaceOnUse" primitiveUnits="userSpaceOnUse"><feComponentTransfer color-interpolation-filters="sRGB"><feFuncR type="discrete" tableValues="0 0"/><feFuncG type="discrete" tableValues="0 0"/><feFuncB type="discrete" tableValues="0 0"/><feFuncA type="linear" slope="0.4" intercept="0"/></feComponentTransfer><feGaussianBlur stdDeviation="6.11111 6.11111"/></filter><filter id="fx15" x="-10%" y="-10%" width="120%" height="120%" filterUnits="userSpaceOnUse" primitiveUnits="userSpaceOnUse"><feComponentTransfer color-interpolation-filters="sRGB"><feFuncR type="discrete" tableValues="0 0"/><feFuncG type="discrete" tableValues="0 0"/><feFuncB type="discrete" tableValues="0 0"/><feFuncA type="linear" slope="0.4" intercept="0"/></feComponentTransfer><feGaussianBlur stdDeviation="6.11111 6.11111"/></filter><filter id="fx16" x="-10%" y="-10%" width="120%" height="120%" filterUnits="userSpaceOnUse" primitiveUnits="userSpaceOnUse"><feComponentTransfer color-interpolation-filters="sRGB"><feFuncR type="discrete" tableValues="0 0"/><feFuncG type="discrete" tableValues="0 0"/><feFuncB type="discrete" tableValues="0 0"/><feFuncA type="linear" slope="0.4" intercept="0"/></feComponentTransfer><feGaussianBlur stdDeviation="6.11111 6.11111"/></filter><filter id="fx17" x="-10%" y="-10%" width="120%" height="120%" filterUnits="userSpaceOnUse" primitiveUnits="userSpaceOnUse"><feComponentTransfer color-interpolation-filters="sRGB"><feFuncR type="discrete" tableValues="0 0"/><feFuncG type="discrete" tableValues="0 0"/><feFuncB type="discrete" tableValues="0 0"/><feFuncA type="linear" slope="0.4" intercept="0"/></feComponentTransfer><feGaussianBlur stdDeviation="6.11111 6.11111"/></filter><clipPath id="clip18"><rect x="201" y="816" width="4620" height="984"/></clipPath><clipPath id="clip19"><rect x="35" y="32" width="362" height="100"/></clipPath><clipPath id="clip20"><rect x="39" y="32" width="313" height="89"/></clipPath><clipPath id="clip21"><rect x="35" y="32" width="300" height="100"/></clipPath><clipPath id="clip22"><rect x="39" y="32" width="320" height="89"/></clipPath><clipPath id="clip23"><rect x="35" y="32" width="245" height="89"/></clipPath><clipPath id="clip24"><rect x="39" y="32" width="337" height="100"/></clipPath><clipPath id="clip25"><rect x="35" y="32" width="434" height="89"/></clipPath><clipPath id="clip26"><rect x="35" y="32" width="348" height="100"/></clipPath><clipPath id="clip27"><rect x="39" y="32" width="475" height="100"/></clipPath></defs><g clip-path="url(#clip18)" transform="translate(-201 -816)"><rect x="201" y="816" width="4620" height="984" fill="#FFFFFF"/><g filter="url(#fx0)" transform="translate(249 1003)"><g><rect x="20.0002" y="19.7499" width="578" height="248" fill="#95C8E8"/></g></g><g clip-path="url(#clip19)" filter="url(#fx1)" transform="translate(343 1069)"><g><path d="M0.09375 0 15.2187-42.0625 24.4375-42.0625 39.5937 0 30.4375 0 27.4375-9.25 12.25-9.25 9.15625 0ZM14.3437-16.5312 25.2812-16.5312 19.8125-33.375ZM44.5625 0 44.5625-42.0625 53.3437-42.0625 53.3437 0ZM90.9271 0.5625C87.7396 0.5625 84.8698 0.109375 82.3177-0.796875 79.7656-1.70312 77.7396-3.14583 76.2396-5.125 74.7396-7.10417 73.9896-9.6875 73.9896-12.875L82.9896-12.875C83.0312-11.25 83.4062-9.97396 84.1146-9.04687 84.8229-8.11979 85.776-7.45833 86.974-7.0625 88.1719-6.66667 89.5417-6.46875 91.0833-6.46875 92.5625-6.46875 93.8646-6.64583 94.9896-7 96.1146-7.35417 96.9948-7.90104 97.6302-8.64062 98.2656-9.38021 98.5833-10.3229 98.5833-11.4687 98.5833-12.5729 98.3125-13.4844 97.7708-14.2031 97.2292-14.9219 96.2708-15.5781 94.8958-16.1719 93.5208-16.7656 91.5937-17.4062 89.1146-18.0937 86.2187-18.9271 83.7135-19.8437 81.599-20.8437 79.4844-21.8437 77.849-23.1354 76.6927-24.7187 75.5365-26.3021 74.9583-28.3646 74.9583-30.9062 74.9583-33.6354 75.6198-35.8594 76.9427-37.5781 78.2656-39.2969 80.0937-40.5625 82.4271-41.375 84.7604-42.1875 87.4375-42.5937 90.4583-42.5937 93.3333-42.5937 95.974-42.1562 98.3802-41.2812 100.786-40.4062 102.708-39.0729 104.146-37.2812 105.583-35.4896 106.302-33.2083 106.302-30.4375L97.3021-30.4375C97.3229-32.2292 96.6562-33.5677 95.3021-34.4531 93.9479-35.3385 92.3229-35.7812 90.4271-35.7812 88.5521-35.7812 87-35.4323 85.7708-34.7344 84.5417-34.0365 83.9271-32.9583 83.9271-31.5 83.9271-30.6667 84.1875-29.9323 84.7083-29.2969 85.2292-28.6615 86.1927-28.0417 87.599-27.4375 89.0052-26.8333 91.0417-26.1458 93.7083-25.375 96.8958-24.4375 99.5104-23.4531 101.552-22.4219 103.594-21.3906 105.109-20.0573 106.099-18.4219 107.089-16.7865 107.583-14.6354 107.583-11.9687 107.583-8.98958 106.854-6.58333 105.396-4.75 103.937-2.91667 101.953-1.57292 99.4427-0.71875 96.9323 0.135417 94.0937 0.5625 90.9271 0.5625ZM127.469 0C124.385 0 121.995-0.369792 120.297-1.10937 118.599-1.84896 117.417-2.99479 116.75-4.54687 116.083-6.09896 115.75-8.125 115.75-10.625L115.75-24.125 110.687-24.125 110.687-30.5 115.75-30.5 115.75-37.6875 124.031-37.6875 124.031-30.5 130.687-30.5 130.687-24.125 124.031-24.125 124.031-11.125C124.031-9.52083 124.255-8.33333 124.703-7.5625 125.151-6.79167 126.167-6.40625 127.75-6.40625L130.687-6.40625 130.687 0ZM137.354 0 137.354-30.5 145.292-30.5 145.448-25.2187C146.24-27.0521 147.427-28.4583 149.01-29.4375 150.594-30.4167 152.51-30.9062 154.76-30.9062L155.385-30.9062 155.385-23.9375 154.604-23.9375C153.375-23.9375 152.198-23.8281 151.073-23.6094 149.948-23.3906 148.927-23.0156 148.01-22.4844 147.094-21.9531 146.302-21.2187 145.635-20.2812L145.635 0ZM167.254 0.53125C165.525 0.53125 163.91 0.197917 162.41-0.46875 160.91-1.13542 159.697-2.14062 158.77-3.48437 157.843-4.82812 157.379-6.51042 157.379-8.53125 157.379-11.3437 158.223-13.4635 159.91-14.8906 161.598-16.3177 163.957-17.2865 166.989-17.7969 170.02-18.3073 173.546-18.6042 177.567-18.6875L177.567-20.3125C177.567-22.2917 177.093-23.6458 176.145-24.375 175.197-25.1042 173.973-25.4687 172.473-25.4687 170.827-25.4687 169.473-25.0781 168.41-24.2969 167.348-23.5156 166.817-22.25 166.817-20.5L159.067-20.5C159.067-23.1042 159.634-25.1667 160.77-26.6875 161.905-28.2083 163.478-29.3021 165.489-29.9687 167.499-30.6354 169.827-30.9687 172.473-30.9687 174.41-30.9687 176.181-30.8073 177.785-30.4844 179.39-30.1615 180.78-29.6042 181.957-28.8125 183.134-28.0208 184.046-26.9427 184.692-25.5781 185.337-24.2135 185.66-22.5104 185.66-20.4687L185.66 0 177.91 0 177.66-3.96875C176.369-2.48958 174.869-1.36979 173.16-0.609375 171.452 0.151042 169.483 0.53125 167.254 0.53125ZM169.973-5.15625C171.535-5.15625 172.978-5.5625 174.301-6.375 175.624-7.1875 176.681-8.11458 177.473-9.15625L177.473-14.0937C173.098-14.0729 170.035-13.6615 168.285-12.8594 166.535-12.0573 165.66-10.7604 165.66-8.96875 165.66-7.67708 166.061-6.71875 166.864-6.09375 167.666-5.46875 168.702-5.15625 169.973-5.15625ZM207.081 0C203.998 0 201.607-0.369792 199.909-1.10937 198.211-1.84896 197.029-2.99479 196.362-4.54687 195.696-6.09896 195.362-8.125 195.362-10.625L195.362-24.125 190.3-24.125 190.3-30.5 195.362-30.5 195.362-37.6875 203.644-37.6875 203.644-30.5 210.3-30.5 210.3-24.125 203.644-24.125 203.644-11.125C203.644-9.52083 203.868-8.33333 204.316-7.5625 204.764-6.79167 205.779-6.40625 207.362-6.40625L210.3-6.40625 210.3 0ZM230.677 0.5625C227.281 0.5625 224.427-0.0677084 222.115-1.32812 219.802-2.58854 218.052-4.40625 216.865-6.78125 215.677-9.15625 215.083-12.0104 215.083-15.3437 215.083-18.5729 215.661-21.3542 216.818-23.6875 217.974-26.0208 219.672-27.8177 221.911-29.0781 224.151-30.3385 226.906-30.9687 230.177-30.9687 234.719-30.9687 238.307-29.6406 240.943-26.9844 243.578-24.3281 244.896-20.5417 244.896-15.625 244.896-15.375 244.885-15.0365 244.865-14.6094 244.844-14.1823 244.812-13.8542 244.771-13.625L223.365-13.625C223.406-12.1875 223.672-10.8437 224.161-9.59375 224.651-8.34375 225.427-7.33854 226.49-6.57812 227.552-5.81771 228.948-5.4375 230.677-5.4375 232.469-5.4375 233.906-5.82812 234.99-6.60937 236.073-7.39062 236.625-8.55208 236.646-10.0937L244.802-10.0937C244.698-7.71875 244.047-5.73958 242.849-4.15625 241.651-2.57292 240.016-1.39062 237.943-0.609375 235.87 0.171875 233.448 0.5625 230.677 0.5625ZM223.458-18.875 236.677-18.875C236.615-21 235.984-22.5885 234.786-23.6406 233.589-24.6927 232.052-25.2187 230.177-25.2187 228.26-25.2187 226.693-24.6771 225.474-23.5937 224.255-22.5104 223.583-20.9375 223.458-18.875ZM264.167 11.7812C260.521 11.7812 257.625 11.4062 255.479 10.6562 253.333 9.90625 251.792 8.92187 250.854 7.70312 249.917 6.48437 249.448 5.16667 249.448 3.75 249.448 2.02083 250.271 0.505208 251.917-0.796875 253.562-2.09896 256.167-3.01042 259.729-3.53125L261.104-6.46875 265.229-6.46875C270.292-6.46875 273.984-5.77083 276.307-4.375 278.63-2.97917 279.792-0.84375 279.792 2.03125 279.792 4.94792 278.458 7.30208 275.792 9.09375 273.125 10.8854 269.25 11.7812 264.167 11.7812ZM264.042 6.59375C266.833 6.59375 268.802 6.22917 269.948 5.5 271.094 4.77083 271.667 3.88542 271.667 2.84375 271.667 2.17708 271.469 1.61458 271.073 1.15625 270.677 0.697917 270.021 0.34375 269.104 0.09375 268.187-0.15625 266.969-0.28125 265.448-0.28125L259.885-0.28125C259.073 0.03125 258.411 0.473958 257.901 1.04687 257.391 1.61979 257.135 2.28125 257.135 3.03125 257.135 3.90625 257.677 4.71875 258.76 5.46875 259.844 6.21875 261.604 6.59375 264.042 6.59375ZM259.854-0.6875C257.667-0.9375 255.896-1.38021 254.542-2.01562 253.187-2.65104 252.198-3.38542 251.573-4.21875 250.948-5.05208 250.635-5.875 250.635-6.6875 250.635-7.95833 251.12-9.03646 252.089-9.92187 253.057-10.8073 254.521-11.5833 256.479-12.25L260.792-10.6875C259.667-10.4167 258.729-10.0885 257.979-9.70312 257.229-9.31771 256.854-8.84375 256.854-8.28125 256.854-7.88542 257.078-7.55208 257.526-7.28125 257.974-7.01042 258.755-6.80729 259.87-6.67187 260.984-6.53646 262.521-6.46875 264.479-6.46875ZM263.604-9.71875C260.854-9.71875 258.51-10.2083 256.573-11.1875 254.635-12.1667 253.167-13.4583 252.167-15.0625 251.167-16.6667 250.667-18.3958 250.667-20.25 250.667-22.2292 251.172-24.0156 252.182-25.6094 253.193-27.2031 254.677-28.4792 256.635-29.4375 258.594-30.3958 260.979-30.875 263.792-30.875 266.687-30.875 269.089-30.3958 270.995-29.4375 272.901-28.4792 274.328-27.2031 275.276-25.6094 276.224-24.0156 276.698-22.2292 276.698-20.25 276.698-18.3542 276.214-16.6042 275.245-15 274.276-13.3958 272.828-12.1146 270.901-11.1562 268.974-10.1979 266.542-9.71875 263.604-9.71875ZM263.604-14.6875C265.146-14.6875 266.432-15.1615 267.464-16.1094 268.495-17.0573 269.01-18.4375 269.01-20.25 269.01-22.1667 268.531-23.5937 267.573-24.5312 266.615-25.4687 265.365-25.9375 263.823-25.9375 262.26-25.9375 260.969-25.4531 259.948-24.4844 258.927-23.5156 258.417-22.1042 258.417-20.25 258.417-18.4167 258.943-17.0312 259.995-16.0937 261.047-15.1562 262.25-14.6875 263.604-14.6875ZM272.323-26.25 269.885-29.3437C270.698-31.5104 271.953-32.9896 273.651-33.7812 275.349-34.5729 277.396-34.9792 279.792-35L279.792-28.9687C278.167-28.9687 276.682-28.8177 275.339-28.5156 273.995-28.2135 272.99-27.4583 272.323-26.25ZM284.567 11.1875 284.567 4.46875 287.317 4.46875C288.546 4.46875 289.572 4.25 290.395 3.8125 291.218 3.375 291.817 2.65625 292.192 1.65625L292.879 0 281.004-30.5 289.629-30.5 297.348-7.9375 304.223-30.5 312.598-30.5 301.629 0 300.504 3.03125C299.712 5.17708 298.796 6.84375 297.754 8.03125 296.712 9.21875 295.436 10.0417 293.926 10.5 292.416 10.9583 290.535 11.1875 288.285 11.1875Z" transform="matrix(1 0 0 1 58.8591 98)"/></g></g><rect x="269" y="1009" width="578" height="248" fill="#95C8E8"/><text font-family="Aptos,Aptos_MSFontService,sans-serif" font-weight="700" font-size="64" transform="matrix(1 0 0 1 401.859 1153)">AI Strategy</text><g filter="url(#fx2)" transform="translate(2534 1003)"><g><rect x="20" y="19.7499" width="577" height="248" fill="#95C8E8"/></g></g><g clip-path="url(#clip20)" filter="url(#fx3)" transform="translate(2646 1069)"><g><path d="M19.3125 0.5625C16.125 0.5625 13.2552 0.109375 10.7031-0.796875 8.15104-1.70312 6.125-3.14583 4.625-5.125 3.125-7.10417 2.375-9.6875 2.375-12.875L11.375-12.875C11.4167-11.25 11.7917-9.97396 12.5-9.04687 13.2083-8.11979 14.1615-7.45833 15.3594-7.0625 16.5573-6.66667 17.9271-6.46875 19.4687-6.46875 20.9479-6.46875 22.25-6.64583 23.375-7 24.5-7.35417 25.3802-7.90104 26.0156-8.64062 26.651-9.38021 26.9687-10.3229 26.9687-11.4687 26.9687-12.5729 26.6979-13.4844 26.1562-14.2031 25.6146-14.9219 24.6562-15.5781 23.2812-16.1719 21.9062-16.7656 19.9792-17.4062 17.5-18.0937 14.6042-18.9271 12.099-19.8437 9.98437-20.8437 7.86979-21.8437 6.23437-23.1354 5.07812-24.7187 3.92187-26.3021 3.34375-28.3646 3.34375-30.9062 3.34375-33.6354 4.00521-35.8594 5.32812-37.5781 6.65104-39.2969 8.47917-40.5625 10.8125-41.375 13.1458-42.1875 15.8229-42.5937 18.8437-42.5937 21.7187-42.5937 24.3594-42.1562 26.7656-41.2812 29.1719-40.4062 31.0937-39.0729 32.5312-37.2812 33.9687-35.4896 34.6875-33.2083 34.6875-30.4375L25.6875-30.4375C25.7083-32.2292 25.0417-33.5677 23.6875-34.4531 22.3333-35.3385 20.7083-35.7812 18.8125-35.7812 16.9375-35.7812 15.3854-35.4323 14.1562-34.7344 12.9271-34.0365 12.3125-32.9583 12.3125-31.5 12.3125-30.6667 12.5729-29.9323 13.0937-29.2969 13.6146-28.6615 14.5781-28.0417 15.9844-27.4375 17.3906-26.8333 19.4271-26.1458 22.0937-25.375 25.2812-24.4375 27.8958-23.4531 29.9375-22.4219 31.9792-21.3906 33.4948-20.0573 34.4844-18.4219 35.474-16.7865 35.9687-14.6354 35.9687-11.9687 35.9687-8.98958 35.2396-6.58333 33.7812-4.75 32.3229-2.91667 30.3385-1.57292 27.8281-0.71875 25.3177 0.135417 22.4792 0.5625 19.3125 0.5625ZM56.8542 0.5625C53.4583 0.5625 50.6042-0.0677084 48.2917-1.32812 45.9792-2.58854 44.2292-4.40625 43.0417-6.78125 41.8542-9.15625 41.2604-12.0104 41.2604-15.3437 41.2604-18.5729 41.8385-21.3542 42.9948-23.6875 44.151-26.0208 45.849-27.8177 48.0885-29.0781 50.3281-30.3385 53.0833-30.9687 56.3542-30.9687 60.8958-30.9687 64.4844-29.6406 67.1198-26.9844 69.7552-24.3281 71.0729-20.5417 71.0729-15.625 71.0729-15.375 71.0625-15.0365 71.0417-14.6094 71.0208-14.1823 70.9896-13.8542 70.9479-13.625L49.5417-13.625C49.5833-12.1875 49.849-10.8437 50.3385-9.59375 50.8281-8.34375 51.6042-7.33854 52.6667-6.57812 53.7292-5.81771 55.125-5.4375 56.8542-5.4375 58.6458-5.4375 60.0833-5.82812 61.1667-6.60937 62.25-7.39062 62.8021-8.55208 62.8229-10.0937L70.9792-10.0937C70.875-7.71875 70.2239-5.73958 69.026-4.15625 67.8281-2.57292 66.1927-1.39062 64.1198-0.609375 62.0469 0.171875 59.625 0.5625 56.8542 0.5625ZM49.6354-18.875 62.8542-18.875C62.7917-21 62.1615-22.5885 60.9635-23.6406 59.7656-24.6927 58.2292-25.2187 56.3542-25.2187 54.4375-25.2187 52.8698-24.6771 51.651-23.5937 50.4323-22.5104 49.7604-20.9375 49.6354-18.875ZM92.0312 0.4375C89.1979 0.4375 86.625-0.104167 84.3125-1.1875 82-2.27083 80.1667-3.95833 78.8125-6.25 77.4583-8.54167 76.7812-11.5 76.7812-15.125 76.7812-18.75 77.4271-21.7292 78.7188-24.0625 80.0104-26.3958 81.8073-28.1302 84.1094-29.2656 86.4115-30.401 89.0521-30.9687 92.0312-30.9687 94.6146-30.9687 96.9479-30.5417 99.0312-29.6875 101.115-28.8333 102.771-27.5573 104-25.8594 105.229-24.1615 105.854-22.0208 105.875-19.4375L97.8438-19.4375C97.8021-21 97.2812-22.2448 96.2812-23.1719 95.2812-24.099 93.875-24.5625 92.0625-24.5625 89.6667-24.5625 87.9323-23.7396 86.8594-22.0937 85.7865-20.4479 85.25-18.125 85.25-15.125 85.25-13.1875 85.4844-11.5365 85.9531-10.1719 86.4219-8.80729 87.1615-7.76562 88.1719-7.04687 89.1823-6.32812 90.4792-5.96875 92.0625-5.96875 93.9167-5.96875 95.3802-6.47396 96.4531-7.48437 97.526-8.49479 98.0833-9.92708 98.125-11.7812L106.156-11.7812C106.094-9.13542 105.453-6.90625 104.234-5.09375 103.016-3.28125 101.354-1.90625 99.25-0.96875 97.1458-0.03125 94.7396 0.4375 92.0312 0.4375ZM122.698 0.40625C119.615 0.40625 117.229-0.546875 115.542-2.45312 113.854-4.35937 113.01-7.07292 113.01-10.5937L113.01-30.5 121.292-30.5 121.292-11.5937C121.292-10.5521 121.443-9.63021 121.745-8.82812 122.047-8.02604 122.547-7.40625 123.245-6.96875 123.943-6.53125 124.865-6.3125 126.01-6.3125 127.677-6.3125 129.099-6.68229 130.276-7.42187 131.453-8.16146 132.479-9.0625 133.354-10.125L133.354-30.5 141.635-30.5 141.635 0 133.635 0 133.51-4.59375C132.49-3.30208 131.094-2.14583 129.323-1.125 127.552-0.104167 125.344 0.40625 122.698 0.40625ZM150.531 0 150.531-30.5 158.469-30.5 158.625-25.2187C159.417-27.0521 160.604-28.4583 162.188-29.4375 163.771-30.4167 165.688-30.9062 167.938-30.9062L168.562-30.9062 168.562-23.9375 167.781-23.9375C166.552-23.9375 165.375-23.8281 164.25-23.6094 163.125-23.3906 162.104-23.0156 161.188-22.4844 160.271-21.9531 159.479-21.2187 158.812-20.2812L158.812 0ZM187.342 0.5625C183.946 0.5625 181.092-0.0677084 178.779-1.32812 176.467-2.58854 174.717-4.40625 173.529-6.78125 172.342-9.15625 171.748-12.0104 171.748-15.3437 171.748-18.5729 172.326-21.3542 173.482-23.6875 174.639-26.0208 176.336-27.8177 178.576-29.0781 180.816-30.3385 183.571-30.9687 186.842-30.9687 191.383-30.9687 194.972-29.6406 197.607-26.9844 200.243-24.3281 201.56-20.5417 201.56-15.625 201.56-15.375 201.55-15.0365 201.529-14.6094 201.508-14.1823 201.477-13.8542 201.435-13.625L180.029-13.625C180.071-12.1875 180.336-10.8437 180.826-9.59375 181.316-8.34375 182.092-7.33854 183.154-6.57812 184.217-5.81771 185.612-5.4375 187.342-5.4375 189.133-5.4375 190.571-5.82812 191.654-6.60937 192.737-7.39062 193.29-8.55208 193.31-10.0937L201.467-10.0937C201.362-7.71875 200.711-5.73958 199.514-4.15625 198.316-2.57292 196.68-1.39062 194.607-0.609375 192.534 0.171875 190.112 0.5625 187.342 0.5625ZM180.123-18.875 193.342-18.875C193.279-21 192.649-22.5885 191.451-23.6406 190.253-24.6927 188.717-25.2187 186.842-25.2187 184.925-25.2187 183.357-24.6771 182.139-23.5937 180.92-22.5104 180.248-20.9375 180.123-18.875ZM217.665 0 232.79-42.0625 242.008-42.0625 257.165 0 248.008 0 245.008-9.25 229.821-9.25 226.727 0ZM231.915-16.5312 242.852-16.5312 237.383-33.375ZM262.133 0 262.133-42.0625 270.915-42.0625 270.915 0Z" transform="matrix(1 0 0 1 58.5979 98)"/></g></g><rect x="2554" y="1009" width="577" height="248" fill="#95C8E8"/><text font-family="Aptos,Aptos_MSFontService,sans-serif" font-weight="700" font-size="64" transform="matrix(1 0 0 1 2704.6 1153)">Secure AI</text><g filter="url(#fx4)" transform="translate(1772 1003)"><g><rect x="20" y="19.7499" width="578" height="248" fill="#95C8E8"/></g></g><g clip-path="url(#clip21)" filter="url(#fx5)" transform="translate(1896 1069)"><g><path d="M0.09375 0 15.2187-42.0625 24.4375-42.0625 39.5937 0 30.4375 0 27.4375-9.25 12.25-9.25 9.15625 0ZM14.3437-16.5312 25.2812-16.5312 19.8125-33.375ZM44.5625 0 44.5625-42.0625 53.3437-42.0625 53.3437 0ZM76.6458 0 76.6458-42.0625 93.9583-42.0625C96.6667-42.0625 99.0833-41.6823 101.208-40.9219 103.333-40.1615 105.016-38.9323 106.255-37.2344 107.495-35.5365 108.115-33.2812 108.115-30.4687 108.115-27.8021 107.401-25.5417 105.974-23.6875 104.547-21.8333 102.385-20.5104 99.4896-19.7187 101.26-19.4479 102.677-18.9115 103.74-18.1094 104.802-17.3073 105.661-16.2292 106.318-14.875 106.974-13.5208 107.573-11.8542 108.115-9.875L110.896 0 101.708 0 99.7396-8.125C99.3229-9.95833 98.8437-11.4583 98.3021-12.625 97.7604-13.7917 97.026-14.6615 96.099-15.2344 95.1719-15.8073 93.8958-16.0937 92.2708-16.0937L85.4271-16.0937 85.4271 0ZM85.4271-23.3437 92.4896-23.3437C93.8646-23.3437 95.0469-23.5625 96.0365-24 97.026-24.4375 97.7917-25.0937 98.3333-25.9687 98.875-26.8437 99.1458-27.9167 99.1458-29.1875 99.1458-31.0417 98.5833-32.4375 97.4583-33.375 96.3333-34.3125 94.8437-34.7812 92.9896-34.7812L85.4271-34.7812ZM130.76 0.5625C127.365 0.5625 124.51-0.0677084 122.198-1.32812 119.885-2.58854 118.135-4.40625 116.948-6.78125 115.76-9.15625 115.167-12.0104 115.167-15.3437 115.167-18.5729 115.745-21.3542 116.901-23.6875 118.057-26.0208 119.755-27.8177 121.995-29.0781 124.234-30.3385 126.99-30.9687 130.26-30.9687 134.802-30.9687 138.391-29.6406 141.026-26.9844 143.661-24.3281 144.979-20.5417 144.979-15.625 144.979-15.375 144.969-15.0365 144.948-14.6094 144.927-14.1823 144.896-13.8542 144.854-13.625L123.448-13.625C123.49-12.1875 123.755-10.8437 124.245-9.59375 124.734-8.34375 125.51-7.33854 126.573-6.57812 127.635-5.81771 129.031-5.4375 130.76-5.4375 132.552-5.4375 133.99-5.82812 135.073-6.60937 136.156-7.39062 136.708-8.55208 136.729-10.0937L144.885-10.0937C144.781-7.71875 144.13-5.73958 142.932-4.15625 141.734-2.57292 140.099-1.39062 138.026-0.609375 135.953 0.171875 133.531 0.5625 130.76 0.5625ZM123.542-18.875 136.76-18.875C136.698-21 136.068-22.5885 134.87-23.6406 133.672-24.6927 132.135-25.2187 130.26-25.2187 128.344-25.2187 126.776-24.6771 125.557-23.5937 124.339-22.5104 123.667-20.9375 123.542-18.875ZM160.562 0.53125C158.833 0.53125 157.219 0.197917 155.719-0.46875 154.219-1.13542 153.005-2.14062 152.078-3.48437 151.151-4.82812 150.687-6.51042 150.687-8.53125 150.687-11.3437 151.531-13.4635 153.219-14.8906 154.906-16.3177 157.266-17.2865 160.297-17.7969 163.328-18.3073 166.854-18.6042 170.875-18.6875L170.875-20.3125C170.875-22.2917 170.401-23.6458 169.453-24.375 168.505-25.1042 167.281-25.4687 165.781-25.4687 164.135-25.4687 162.781-25.0781 161.719-24.2969 160.656-23.5156 160.125-22.25 160.125-20.5L152.375-20.5C152.375-23.1042 152.943-25.1667 154.078-26.6875 155.214-28.2083 156.786-29.3021 158.797-29.9687 160.807-30.6354 163.135-30.9687 165.781-30.9687 167.719-30.9687 169.49-30.8073 171.094-30.4844 172.698-30.1615 174.089-29.6042 175.266-28.8125 176.443-28.0208 177.354-26.9427 178-25.5781 178.646-24.2135 178.969-22.5104 178.969-20.4687L178.969 0 171.219 0 170.969-3.96875C169.677-2.48958 168.177-1.36979 166.469-0.609375 164.76 0.151042 162.792 0.53125 160.562 0.53125ZM163.281-5.15625C164.844-5.15625 166.286-5.5625 167.609-6.375 168.932-7.1875 169.99-8.11458 170.781-9.15625L170.781-14.0937C166.406-14.0729 163.344-13.6615 161.594-12.8594 159.844-12.0573 158.969-10.7604 158.969-8.96875 158.969-7.67708 159.37-6.71875 160.172-6.09375 160.974-5.46875 162.01-5.15625 163.281-5.15625ZM198.271 0.53125C195.979 0.53125 193.922-0.0416667 192.099-1.1875 190.276-2.33333 188.839-4.08854 187.786-6.45312 186.734-8.81771 186.208-11.8229 186.208-15.4687 186.208-18.9896 186.776-21.8958 187.911-24.1875 189.047-26.4792 190.583-28.1875 192.521-29.3125 194.458-30.4375 196.635-31 199.052-31 201.177-31 203-30.5625 204.521-29.6875 206.042-28.8125 207.25-27.6667 208.146-26.25L208.146-42.0625 216.427-42.0625 216.427 0 208.49 0 208.146-4.34375C207.062-2.84375 205.719-1.65625 204.115-0.78125 202.51 0.0937499 200.562 0.53125 198.271 0.53125ZM200.708-5.78125C202.458-5.78125 203.969-6.27083 205.24-7.25 206.51-8.22917 207.479-9.375 208.146-10.6875L208.146-19.5937C207.5-20.9687 206.594-22.1667 205.427-23.1875 204.26-24.2083 202.823-24.7187 201.115-24.7187 199.073-24.7187 197.49-23.9271 196.365-22.3437 195.24-20.7604 194.677-18.4687 194.677-15.4687 194.677-12.1771 195.214-9.73958 196.286-8.15625 197.359-6.57292 198.833-5.78125 200.708-5.78125ZM224.708 11.1875 224.708 4.46875 227.458 4.46875C228.687 4.46875 229.714 4.25 230.536 3.8125 231.359 3.375 231.958 2.65625 232.333 1.65625L233.021 0 221.146-30.5 229.771-30.5 237.49-7.9375 244.365-30.5 252.74-30.5 241.771 0 240.646 3.03125C239.854 5.17708 238.937 6.84375 237.896 8.03125 236.854 9.21875 235.578 10.0417 234.068 10.5 232.557 10.9583 230.677 11.1875 228.427 11.1875Z" transform="matrix(1 0 0 1 58.7786 98)"/></g></g><rect x="1792" y="1009" width="578" height="248" fill="#95C8E8"/><text font-family="Aptos,Aptos_MSFontService,sans-serif" font-weight="700" font-size="64" transform="matrix(1 0 0 1 1954.78 1153)">AI Ready</text><g filter="url(#fx6)" transform="translate(3295 1003)"><g><rect x="20.0002" y="19.7499" width="578" height="248" fill="#95C8E8"/></g></g><g clip-path="url(#clip22)" filter="url(#fx7)" transform="translate(3405 1069)"><g><path d="M23.7812 0.5625C19.4687 0.5625 15.7708-0.328125 12.6875-2.10937 9.60417-3.89062 7.23437-6.39583 5.57812-9.625 3.92187-12.8542 3.09375-16.6458 3.09375-21 3.09375-25.375 3.92187-29.1823 5.57812-32.4219 7.23437-35.6615 9.60417-38.1719 12.6875-39.9531 15.7708-41.7344 19.4687-42.625 23.7812-42.625 25.9479-42.625 28.0729-42.3437 30.1562-41.7812 32.2396-41.2187 34.1458-40.349 35.875-39.1719 37.6042-37.9948 39.0312-36.5 40.1562-34.6875 41.2812-32.875 41.9583-30.7292 42.1875-28.25L33.2187-28.25C33.0521-29.625 32.5729-30.8437 31.7812-31.9062 30.9896-32.9687 29.9062-33.8021 28.5312-34.4062 27.1562-35.0104 25.5104-35.3125 23.5937-35.3125 20.8437-35.3125 18.625-34.651 16.9375-33.3281 15.25-32.0052 14.0208-30.2656 13.25-28.1094 12.4792-25.9531 12.0937-23.5833 12.0937-21 12.0937-18.4375 12.4844-16.0729 13.2656-13.9062 14.0469-11.7396 15.2917-10 17-8.6875 18.7083-7.375 20.9687-6.71875 23.7812-6.71875 25.8646-6.71875 27.6406-7.07812 29.1094-7.79687 30.5781-8.51562 31.724-9.51042 32.5469-10.7812 33.3698-12.0521 33.8437-13.5208 33.9687-15.1875L24-15.1875 24-22.1875 42.7812-22.1875 42.7812-17.9062C42.7812-14.2604 42.0469-11.0521 40.5781-8.28125 39.1094-5.51042 36.9635-3.34375 34.1406-1.78125 31.3177-0.21875 27.8646 0.5625 23.7812 0.5625ZM64.1146 0.5C61.0312 0.5 58.3281-0.114583 56.0052-1.34375 53.6823-2.57292 51.8854-4.35417 50.6146-6.6875 49.3437-9.02083 48.7083-11.8437 48.7083-15.1562 48.7083-18.5312 49.3437-21.401 50.6146-23.7656 51.8854-26.1302 53.6823-27.9323 56.0052-29.1719 58.3281-30.4115 61.0312-31.0312 64.1146-31.0312 67.2396-31.0312 69.9635-30.4115 72.2865-29.1719 74.6094-27.9323 76.4167-26.1302 77.7083-23.7656 79-21.401 79.6458-18.5312 79.6458-15.1562 79.6458-11.8437 79-9.02083 77.7083-6.6875 76.4167-4.35417 74.6094-2.57292 72.2865-1.34375 69.9635-0.114583 67.2396 0.5 64.1146 0.5ZM64.1146-5.8125C65.9271-5.8125 67.349-6.23437 68.3802-7.07812 69.4115-7.92187 70.1406-9.05208 70.5677-10.4687 70.9948-11.8854 71.2083-13.4479 71.2083-15.1562 71.2083-16.9062 70.9948-18.5 70.5677-19.9375 70.1406-21.375 69.4115-22.5208 68.3802-23.375 67.349-24.2292 65.9271-24.6562 64.1146-24.6562 62.3437-24.6562 60.9531-24.2292 59.9427-23.375 58.9323-22.5208 58.2187-21.375 57.8021-19.9375 57.3854-18.5 57.1771-16.9062 57.1771-15.1562 57.1771-13.4479 57.3854-11.8854 57.8021-10.4687 58.2187-9.05208 58.9323-7.92187 59.9427-7.07812 60.9531-6.23437 62.3437-5.8125 64.1146-5.8125ZM92.975 0 81.8812-30.5 90.5062-30.5 97.6937-7.71875 105.1-30.5 113.475-30.5 102.412 0ZM131.242 0.5625C127.846 0.5625 124.992-0.0677084 122.679-1.32812 120.367-2.58854 118.617-4.40625 117.429-6.78125 116.242-9.15625 115.648-12.0104 115.648-15.3437 115.648-18.5729 116.226-21.3542 117.382-23.6875 118.539-26.0208 120.236-27.8177 122.476-29.0781 124.716-30.3385 127.471-30.9687 130.742-30.9687 135.283-30.9687 138.872-29.6406 141.507-26.9844 144.143-24.3281 145.46-20.5417 145.46-15.625 145.46-15.375 145.45-15.0365 145.429-14.6094 145.408-14.1823 145.377-13.8542 145.335-13.625L123.929-13.625C123.971-12.1875 124.236-10.8437 124.726-9.59375 125.216-8.34375 125.992-7.33854 127.054-6.57812 128.117-5.81771 129.512-5.4375 131.242-5.4375 133.033-5.4375 134.471-5.82812 135.554-6.60937 136.637-7.39062 137.19-8.55208 137.21-10.0937L145.367-10.0937C145.262-7.71875 144.611-5.73958 143.414-4.15625 142.216-2.57292 140.58-1.39062 138.507-0.609375 136.434 0.171875 134.012 0.5625 131.242 0.5625ZM124.023-18.875 137.242-18.875C137.179-21 136.549-22.5885 135.351-23.6406 134.153-24.6927 132.617-25.2187 130.742-25.2187 128.825-25.2187 127.257-24.6771 126.039-23.5937 124.82-22.5104 124.148-20.9375 124.023-18.875ZM152.731 0 152.731-30.5 160.669-30.5 160.825-25.2187C161.617-27.0521 162.804-28.4583 164.387-29.4375 165.971-30.4167 167.887-30.9062 170.137-30.9062L170.762-30.9062 170.762-23.9375 169.981-23.9375C168.752-23.9375 167.575-23.8281 166.45-23.6094 165.325-23.3906 164.304-23.0156 163.387-22.4844 162.471-21.9531 161.679-21.2187 161.012-20.2812L161.012 0ZM176.221 0 176.221-30.5 184.19-30.5 184.346-25.9375C185.367-27.25 186.71-28.4115 188.377-29.4219 190.044-30.4323 192.21-30.9375 194.877-30.9375 197.981-30.9375 200.387-29.9948 202.096-28.1094 203.804-26.224 204.658-23.4687 204.658-19.8437L204.658 0 196.44 0 196.44-18.7812C196.44-19.8854 196.283-20.8542 195.971-21.6875 195.658-22.5208 195.164-23.1667 194.486-23.625 193.809-24.0833 192.919-24.3125 191.815-24.3125 190.169-24.3125 188.757-23.9271 187.58-23.1562 186.403-22.3854 185.377-21.4479 184.502-20.3437L184.502 0ZM222.294 0 237.419-42.0625 246.637-42.0625 261.794 0 252.637 0 249.637-9.25 234.45-9.25 231.356 0ZM236.544-16.5312 247.481-16.5312 242.012-33.375ZM266.762 0 266.762-42.0625 275.544-42.0625 275.544 0Z" transform="matrix(1 0 0 1 58.7781 98)"/></g></g><rect x="3315" y="1009" width="578" height="248" fill="#95C8E8"/><text font-family="Aptos,Aptos_MSFontService,sans-serif" font-weight="700" font-size="64" transform="matrix(1 0 0 1 3463.78 1153)">Govern AI</text><g filter="url(#fx8)" transform="translate(1011 1003)"><g><rect x="19.9999" y="19.7499" width="577" height="248" fill="#95C8E8"/></g></g><g clip-path="url(#clip23)" filter="url(#fx9)" transform="translate(1160 1069)"><g><path d="M0.09375 0 15.2187-42.0625 24.4375-42.0625 39.5937 0 30.4375 0 27.4375-9.25 12.25-9.25 9.15625 0ZM14.3437-16.5312 25.2812-16.5312 19.8125-33.375ZM44.5625 0 44.5625-42.0625 53.3437-42.0625 53.3437 0ZM76.6458 0 76.6458-42.0625 93.1458-42.0625C95.9167-42.0625 98.4427-41.5729 100.724-40.5937 103.005-39.6146 104.823-38.125 106.177-36.125 107.531-34.125 108.208-31.5729 108.208-28.4687 108.208-25.4062 107.531-22.875 106.177-20.875 104.823-18.875 103.005-17.3906 100.724-16.4219 98.4427-15.4531 95.9167-14.9687 93.1458-14.9687L85.4271-14.9687 85.4271 0ZM85.4271-22.0312 92.3333-22.0312C94.375-22.0312 96.026-22.5729 97.2865-23.6562 98.5469-24.7396 99.1771-26.3437 99.1771-28.4687 99.1771-30.6771 98.5312-32.3125 97.2396-33.375 95.9479-34.4375 94.3125-34.9687 92.3333-34.9687L85.4271-34.9687ZM126.448 0C123.344 0 120.948-0.369792 119.26-1.10937 117.573-1.84896 116.396-2.99479 115.729-4.54687 115.062-6.09896 114.729-8.125 114.729-10.625L114.729-42.0625 122.979-42.0625 122.979-11.125C122.979-9.52083 123.198-8.34375 123.635-7.59375 124.073-6.84375 125.094-6.46875 126.698-6.46875L128.604-6.46875 128.604 0ZM142.229 0.53125C140.5 0.53125 138.885 0.197917 137.385-0.46875 135.885-1.13542 134.672-2.14062 133.745-3.48437 132.818-4.82812 132.354-6.51042 132.354-8.53125 132.354-11.3437 133.198-13.4635 134.885-14.8906 136.573-16.3177 138.932-17.2865 141.964-17.7969 144.995-18.3073 148.521-18.6042 152.542-18.6875L152.542-20.3125C152.542-22.2917 152.068-23.6458 151.12-24.375 150.172-25.1042 148.948-25.4687 147.448-25.4687 145.802-25.4687 144.448-25.0781 143.385-24.2969 142.323-23.5156 141.792-22.25 141.792-20.5L134.042-20.5C134.042-23.1042 134.609-25.1667 135.745-26.6875 136.88-28.2083 138.453-29.3021 140.464-29.9687 142.474-30.6354 144.802-30.9687 147.448-30.9687 149.385-30.9687 151.156-30.8073 152.76-30.4844 154.365-30.1615 155.755-29.6042 156.932-28.8125 158.109-28.0208 159.021-26.9427 159.667-25.5781 160.312-24.2135 160.635-22.5104 160.635-20.4687L160.635 0 152.885 0 152.635-3.96875C151.344-2.48958 149.844-1.36979 148.135-0.609375 146.427 0.151042 144.458 0.53125 142.229 0.53125ZM144.948-5.15625C146.51-5.15625 147.953-5.5625 149.276-6.375 150.599-7.1875 151.656-8.11458 152.448-9.15625L152.448-14.0937C148.073-14.0729 145.01-13.6615 143.26-12.8594 141.51-12.0573 140.635-10.7604 140.635-8.96875 140.635-7.67708 141.036-6.71875 141.839-6.09375 142.641-5.46875 143.677-5.15625 144.948-5.15625ZM169.437 0 169.437-30.5 177.406-30.5 177.562-25.9375C178.583-27.25 179.927-28.4115 181.594-29.4219 183.26-30.4323 185.427-30.9375 188.094-30.9375 191.198-30.9375 193.604-29.9948 195.312-28.1094 197.021-26.224 197.875-23.4687 197.875-19.8437L197.875 0 189.656 0 189.656-18.7812C189.656-19.8854 189.5-20.8542 189.187-21.6875 188.875-22.5208 188.38-23.1667 187.703-23.625 187.026-24.0833 186.135-24.3125 185.031-24.3125 183.385-24.3125 181.974-23.9271 180.797-23.1562 179.62-22.3854 178.594-21.4479 177.719-20.3437L177.719 0Z" transform="matrix(1 0 0 1 58.4917 98)"/></g></g><rect x="1031" y="1009" width="577" height="248" fill="#95C8E8"/><text font-family="Aptos,Aptos_MSFontService,sans-serif" font-weight="700" font-size="64" transform="matrix(1 0 0 1 1218.49 1153)">AI Plan</text><path d="M871.5 1130.06 978.75 1130.06 978.75 1136.94 871.5 1136.94ZM974.167 1110.58 1020 1133.5 974.167 1156.42Z" fill="#3B3B40"/><path d="M1631.5 1130.06 1738.75 1130.06 1738.75 1136.94 1631.5 1136.94ZM1734.17 1110.58 1780 1133.5 1734.17 1156.42Z" fill="#3B3B40"/><path d="M2391.5 1130.06 2498.75 1130.06 2498.75 1136.94 2391.5 1136.94ZM2494.17 1110.58 2540 1133.5 2494.17 1156.42Z" fill="#3B3B40"/><path d="M3151.5 1130.06 3258.75 1130.06 3258.75 1136.94 3151.5 1136.94ZM3254.17 1110.58 3300 1133.5 3254.17 1156.42Z" fill="#3B3B40"/><path d="M2459.5 986.502C2459.5 946.736 2491.74 914.5 2531.5 914.5L4666.5 914.5C4706.26 914.5 4738.5 946.736 4738.5 986.502L4738.5 1274.5C4738.5 1314.26 4706.26 1346.5 4666.5 1346.5L2531.5 1346.5C2491.74 1346.5 2459.5 1314.26 2459.5 1274.5Z" stroke="#2D2D2D" stroke-width="6.875" stroke-miterlimit="8" fill="none" fill-rule="evenodd"/><path d="M1.2531e-05-3.4375 91.9188-3.43716 91.9188 3.43784-1.2531e-05 3.4375ZM52.3382-25.9214 98.997 0.000360899 52.3381 25.9218C50.6785 26.8438 48.5857 26.2458 47.6637 24.5862 46.7418 22.9267 47.3397 20.8339 48.9993 19.9119L90.2494-3.00459 90.2493 3.00524 48.9994-19.9116C47.3399-20.8336 46.7419-22.9263 47.6639-24.5859 48.5859-26.2455 50.6787-26.8434 52.3382-25.9214Z" fill="#2D2D2D" transform="matrix(1.83697e-16 1 1 -1.83697e-16 4738.5 1131.5)"/><path d="M1.87965e-05-3.4375 58.9188-3.43718 58.9188 3.43782-1.87965e-05 3.4375ZM19.3383-25.9215 65.997 0.000360662 19.338 25.9217C17.6784 26.8437 15.5857 26.2457 14.6637 24.5861 13.7417 22.9266 14.3397 20.8338 15.9992 19.9118L57.2494-3.0046 57.2493 3.00523 15.9995-19.9117C14.3399-20.8337 13.742-22.9264 14.664-24.586 15.586-26.2456 17.6787-26.8435 19.3383-25.9215Z" fill="#2D2D2D" transform="matrix(-6.12323e-17 -1 -1 6.12323e-17 2459.5 1074.5)"/><path d="M3469.5 911.062 3591.22 911.063 3591.22 917.938 3469.5 917.937ZM3551.64 888.579 3598.29 914.5 3551.64 940.422C3549.98 941.344 3547.88 940.746 3546.96 939.086 3546.04 937.427 3546.64 935.334 3548.3 934.412L3589.55 911.495 3589.55 917.505 3548.3 894.588C3546.64 893.666 3546.04 891.574 3546.96 889.914 3547.88 888.254 3549.98 887.657 3551.64 888.579Z" fill="#2D2D2D"/><path d="M9.63195e-06-3.4375 121.716-3.43716 121.716 3.43784-9.63195e-06 3.4375ZM82.1353-25.9214 128.794 0.000360718 82.1352 25.9218C80.4756 26.8438 78.3828 26.2459 77.4608 24.5863 76.5389 22.9267 77.1368 20.834 78.7964 19.912L120.046-3.00458 120.046 3.00525 78.7965-19.9115C77.1369-20.8335 76.539-22.9263 77.461-24.5858 78.383-26.2454 80.4757-26.8433 82.1353-25.9214Z" fill="#2D2D2D" transform="matrix(-1 0 0 1 3727.3 1346.5)"/><g filter="url(#fx10)" transform="translate(4057 1003)"><g><rect x="19.9998" y="19.7499" width="577" height="248" fill="#95C8E8"/></g></g><g clip-path="url(#clip24)" filter="url(#fx11)" transform="translate(4157 1069)"><g><path d="M5.03125 0 5.03125-42.0625 15.125-42.0625 28.3125-19.625 24.8125-19.625 37.8125-42.0625 47.5312-42.0625 47.5312 0 38.875 0 38.875-37.375 42.7187-37.375 28.9687-13.4375 23.5625-13.4375 9.46875-37.375 13.4375-37.375 13.4375 0ZM65.4583 0.53125C63.7292 0.53125 62.1146 0.197917 60.6146-0.46875 59.1146-1.13542 57.901-2.14062 56.974-3.48437 56.0469-4.82812 55.5833-6.51042 55.5833-8.53125 55.5833-11.3437 56.4271-13.4635 58.1146-14.8906 59.8021-16.3177 62.1615-17.2865 65.1927-17.7969 68.224-18.3073 71.75-18.6042 75.7708-18.6875L75.7708-20.3125C75.7708-22.2917 75.2969-23.6458 74.349-24.375 73.401-25.1042 72.1771-25.4687 70.6771-25.4687 69.0312-25.4687 67.6771-25.0781 66.6146-24.2969 65.5521-23.5156 65.0208-22.25 65.0208-20.5L57.2708-20.5C57.2708-23.1042 57.8385-25.1667 58.974-26.6875 60.1094-28.2083 61.6823-29.3021 63.6927-29.9687 65.7031-30.6354 68.0312-30.9687 70.6771-30.9687 72.6146-30.9687 74.3854-30.8073 75.9896-30.4844 77.5937-30.1615 78.9844-29.6042 80.1615-28.8125 81.3385-28.0208 82.25-26.9427 82.8958-25.5781 83.5417-24.2135 83.8646-22.5104 83.8646-20.4687L83.8646 0 76.1146 0 75.8646-3.96875C74.5729-2.48958 73.0729-1.36979 71.3646-0.609375 69.6562 0.151042 67.6875 0.53125 65.4583 0.53125ZM68.1771-5.15625C69.7396-5.15625 71.1823-5.5625 72.5052-6.375 73.8281-7.1875 74.8854-8.11458 75.6771-9.15625L75.6771-14.0937C71.3021-14.0729 68.2396-13.6615 66.4896-12.8594 64.7396-12.0573 63.8646-10.7604 63.8646-8.96875 63.8646-7.67708 64.2656-6.71875 65.0677-6.09375 65.8698-5.46875 66.9062-5.15625 68.1771-5.15625ZM92.6667 0 92.6667-30.5 100.635-30.5 100.792-25.9375C101.812-27.25 103.156-28.4115 104.823-29.4219 106.49-30.4323 108.656-30.9375 111.323-30.9375 114.427-30.9375 116.833-29.9948 118.542-28.1094 120.25-26.224 121.104-23.4687 121.104-19.8437L121.104 0 112.885 0 112.885-18.7812C112.885-19.8854 112.729-20.8542 112.417-21.6875 112.104-22.5208 111.609-23.1667 110.932-23.625 110.255-24.0833 109.365-24.3125 108.26-24.3125 106.615-24.3125 105.203-23.9271 104.026-23.1562 102.849-22.3854 101.823-21.4479 100.948-20.3437L100.948 0ZM138.219 0.53125C136.49 0.53125 134.875 0.197917 133.375-0.46875 131.875-1.13542 130.661-2.14062 129.734-3.48437 128.807-4.82812 128.344-6.51042 128.344-8.53125 128.344-11.3437 129.188-13.4635 130.875-14.8906 132.562-16.3177 134.922-17.2865 137.953-17.7969 140.984-18.3073 144.51-18.6042 148.531-18.6875L148.531-20.3125C148.531-22.2917 148.057-23.6458 147.109-24.375 146.161-25.1042 144.938-25.4687 143.438-25.4687 141.792-25.4687 140.438-25.0781 139.375-24.2969 138.312-23.5156 137.781-22.25 137.781-20.5L130.031-20.5C130.031-23.1042 130.599-25.1667 131.734-26.6875 132.87-28.2083 134.443-29.3021 136.453-29.9687 138.464-30.6354 140.792-30.9687 143.438-30.9687 145.375-30.9687 147.146-30.8073 148.75-30.4844 150.354-30.1615 151.745-29.6042 152.922-28.8125 154.099-28.0208 155.01-26.9427 155.656-25.5781 156.302-24.2135 156.625-22.5104 156.625-20.4687L156.625 0 148.875 0 148.625-3.96875C147.333-2.48958 145.833-1.36979 144.125-0.609375 142.417 0.151042 140.448 0.53125 138.219 0.53125ZM140.938-5.15625C142.5-5.15625 143.943-5.5625 145.266-6.375 146.589-7.1875 147.646-8.11458 148.438-9.15625L148.438-14.0937C144.062-14.0729 141-13.6615 139.25-12.8594 137.5-12.0573 136.625-10.7604 136.625-8.96875 136.625-7.67708 137.026-6.71875 137.828-6.09375 138.63-5.46875 139.667-5.15625 140.938-5.15625ZM177.427 11.7812C173.781 11.7812 170.885 11.4062 168.74 10.6562 166.594 9.90625 165.052 8.92187 164.115 7.70312 163.177 6.48437 162.708 5.16667 162.708 3.75 162.708 2.02083 163.531 0.505208 165.177-0.796875 166.823-2.09896 169.427-3.01042 172.99-3.53125L174.365-6.46875 178.49-6.46875C183.552-6.46875 187.245-5.77083 189.568-4.375 191.891-2.97917 193.052-0.84375 193.052 2.03125 193.052 4.94792 191.719 7.30208 189.052 9.09375 186.385 10.8854 182.51 11.7812 177.427 11.7812ZM177.302 6.59375C180.094 6.59375 182.062 6.22917 183.208 5.5 184.354 4.77083 184.927 3.88542 184.927 2.84375 184.927 2.17708 184.729 1.61458 184.333 1.15625 183.937 0.697917 183.281 0.34375 182.365 0.09375 181.448-0.15625 180.229-0.28125 178.708-0.28125L173.146-0.28125C172.333 0.03125 171.672 0.473958 171.161 1.04687 170.651 1.61979 170.396 2.28125 170.396 3.03125 170.396 3.90625 170.938 4.71875 172.021 5.46875 173.104 6.21875 174.865 6.59375 177.302 6.59375ZM173.115-0.6875C170.927-0.9375 169.156-1.38021 167.802-2.01562 166.448-2.65104 165.458-3.38542 164.833-4.21875 164.208-5.05208 163.896-5.875 163.896-6.6875 163.896-7.95833 164.38-9.03646 165.349-9.92187 166.318-10.8073 167.781-11.5833 169.74-12.25L174.052-10.6875C172.927-10.4167 171.99-10.0885 171.24-9.70312 170.49-9.31771 170.115-8.84375 170.115-8.28125 170.115-7.88542 170.339-7.55208 170.786-7.28125 171.234-7.01042 172.016-6.80729 173.13-6.67187 174.245-6.53646 175.781-6.46875 177.74-6.46875ZM176.865-9.71875C174.115-9.71875 171.771-10.2083 169.833-11.1875 167.896-12.1667 166.427-13.4583 165.427-15.0625 164.427-16.6667 163.927-18.3958 163.927-20.25 163.927-22.2292 164.432-24.0156 165.443-25.6094 166.453-27.2031 167.937-28.4792 169.896-29.4375 171.854-30.3958 174.24-30.875 177.052-30.875 179.948-30.875 182.349-30.3958 184.255-29.4375 186.161-28.4792 187.589-27.2031 188.536-25.6094 189.484-24.0156 189.958-22.2292 189.958-20.25 189.958-18.3542 189.474-16.6042 188.505-15 187.536-13.3958 186.089-12.1146 184.161-11.1562 182.234-10.1979 179.802-9.71875 176.865-9.71875ZM176.865-14.6875C178.406-14.6875 179.693-15.1615 180.724-16.1094 181.755-17.0573 182.271-18.4375 182.271-20.25 182.271-22.1667 181.792-23.5937 180.833-24.5312 179.875-25.4687 178.625-25.9375 177.083-25.9375 175.521-25.9375 174.229-25.4531 173.208-24.4844 172.187-23.5156 171.677-22.1042 171.677-20.25 171.677-18.4167 172.203-17.0312 173.255-16.0937 174.307-15.1562 175.51-14.6875 176.865-14.6875ZM185.583-26.25 183.146-29.3437C183.958-31.5104 185.214-32.9896 186.911-33.7812 188.609-34.5729 190.656-34.9792 193.052-35L193.052-28.9687C191.427-28.9687 189.943-28.8177 188.599-28.5156 187.255-28.2135 186.25-27.4583 185.583-26.25ZM211.335 0.5625C207.94 0.5625 205.085-0.0677084 202.773-1.32812 200.46-2.58854 198.71-4.40625 197.523-6.78125 196.335-9.15625 195.742-12.0104 195.742-15.3437 195.742-18.5729 196.32-21.3542 197.476-23.6875 198.632-26.0208 200.33-27.8177 202.57-29.0781 204.809-30.3385 207.565-30.9687 210.835-30.9687 215.377-30.9687 218.966-29.6406 221.601-26.9844 224.236-24.3281 225.554-20.5417 225.554-15.625 225.554-15.375 225.544-15.0365 225.523-14.6094 225.502-14.1823 225.471-13.8542 225.429-13.625L204.023-13.625C204.065-12.1875 204.33-10.8437 204.82-9.59375 205.309-8.34375 206.085-7.33854 207.148-6.57812 208.21-5.81771 209.606-5.4375 211.335-5.4375 213.127-5.4375 214.565-5.82812 215.648-6.60937 216.731-7.39062 217.283-8.55208 217.304-10.0937L225.46-10.0937C225.356-7.71875 224.705-5.73958 223.507-4.15625 222.309-2.57292 220.674-1.39062 218.601-0.609375 216.528 0.171875 214.106 0.5625 211.335 0.5625ZM204.117-18.875 217.335-18.875C217.273-21 216.643-22.5885 215.445-23.6406 214.247-24.6927 212.71-25.2187 210.835-25.2187 208.919-25.2187 207.351-24.6771 206.132-23.5937 204.914-22.5104 204.242-20.9375 204.117-18.875ZM241.658 0 256.783-42.0625 266.002-42.0625 281.158 0 272.002 0 269.002-9.25 253.815-9.25 250.721 0ZM255.908-16.5312 266.846-16.5312 261.377-33.375ZM286.127 0 286.127-42.0625 294.908-42.0625 294.908 0Z" transform="matrix(1 0 0 1 58.5913 98)"/></g></g><rect x="4077" y="1009" width="577" height="248" fill="#95C8E8"/><text font-family="Aptos,Aptos_MSFontService,sans-serif" font-weight="700" font-size="64" transform="matrix(1 0 0 1 4215.59 1153)">Manage AI</text><path d="M3911.5 1130.06 4018.75 1130.06 4018.75 1136.94 3911.5 1136.94ZM4014.17 1110.58 4060 1133.5 4014.17 1156.42Z" fill="#3B3B40"/><g filter="url(#fx12)" transform="translate(249 1409)"><g><rect x="20.0002" y="19.7499" width="2101" height="104" fill="#F2F2F2"/></g></g><g clip-path="url(#clip25)" filter="url(#fx13)" transform="translate(1066 1403)"><g><path d="M0.09375 0 15.2187-42.0625 24.4375-42.0625 39.5937 0 30.4375 0 27.4375-9.25 12.25-9.25 9.15625 0ZM14.3437-16.5312 25.2812-16.5312 19.8125-33.375ZM44.5625 0 44.5625-42.0625 53.3437-42.0625 53.3437 0ZM77.3646 0 77.3646-24.125 72.3021-24.125 72.3021-30.5 77.3646-30.5 77.3646-31.4687C77.3646-33.3021 77.5417-34.8906 77.8958-36.2344 78.25-37.5781 78.8594-38.6771 79.724-39.5312 80.5885-40.3854 81.7812-41.0208 83.3021-41.4375 84.8229-41.8542 86.75-42.0625 89.0833-42.0625L92.1146-42.0625 92.1146-36.0625 89.3646-36.0625C87.7812-36.0625 86.7656-35.6979 86.3177-34.9687 85.8698-34.2396 85.6458-33.0729 85.6458-31.4687L85.6458-30.5 92.1458-30.5 92.1458-24.125 85.6458-24.125 85.6458 0ZM111.162 0.5C108.079 0.5 105.376-0.114583 103.053-1.34375 100.73-2.57292 98.9333-4.35417 97.6625-6.6875 96.3917-9.02083 95.7562-11.8437 95.7562-15.1562 95.7562-18.5312 96.3917-21.401 97.6625-23.7656 98.9333-26.1302 100.73-27.9323 103.053-29.1719 105.376-30.4115 108.079-31.0312 111.162-31.0312 114.287-31.0312 117.011-30.4115 119.334-29.1719 121.657-27.9323 123.465-26.1302 124.756-23.7656 126.048-21.401 126.694-18.5312 126.694-15.1562 126.694-11.8437 126.048-9.02083 124.756-6.6875 123.465-4.35417 121.657-2.57292 119.334-1.34375 117.011-0.114583 114.287 0.5 111.162 0.5ZM111.162-5.8125C112.975-5.8125 114.397-6.23437 115.428-7.07812 116.459-7.92187 117.189-9.05208 117.616-10.4687 118.043-11.8854 118.256-13.4479 118.256-15.1562 118.256-16.9062 118.043-18.5 117.616-19.9375 117.189-21.375 116.459-22.5208 115.428-23.375 114.397-24.2292 112.975-24.6562 111.162-24.6562 109.392-24.6562 108.001-24.2292 106.991-23.375 105.98-22.5208 105.267-21.375 104.85-19.9375 104.433-18.5 104.225-16.9062 104.225-15.1562 104.225-13.4479 104.433-11.8854 104.85-10.4687 105.267-9.05208 105.98-7.92187 106.991-7.07812 108.001-6.23437 109.392-5.8125 111.162-5.8125ZM143.392 0.40625C140.308 0.40625 137.923-0.546875 136.235-2.45312 134.548-4.35937 133.704-7.07292 133.704-10.5937L133.704-30.5 141.985-30.5 141.985-11.5937C141.985-10.5521 142.136-9.63021 142.439-8.82812 142.741-8.02604 143.241-7.40625 143.939-6.96875 144.636-6.53125 145.558-6.3125 146.704-6.3125 148.371-6.3125 149.793-6.68229 150.97-7.42187 152.147-8.16146 153.173-9.0625 154.048-10.125L154.048-30.5 162.329-30.5 162.329 0 154.329 0 154.204-4.59375C153.183-3.30208 151.787-2.14583 150.017-1.125 148.246-0.104167 146.037 0.40625 143.392 0.40625ZM171.225 0 171.225-30.5 179.194-30.5 179.35-25.9375C180.371-27.25 181.715-28.4115 183.381-29.4219 185.048-30.4323 187.215-30.9375 189.881-30.9375 192.985-30.9375 195.392-29.9948 197.1-28.1094 198.808-26.224 199.662-23.4687 199.662-19.8437L199.662 0 191.444 0 191.444-18.7812C191.444-19.8854 191.287-20.8542 190.975-21.6875 190.662-22.5208 190.168-23.1667 189.491-23.625 188.814-24.0833 187.923-24.3125 186.819-24.3125 185.173-24.3125 183.761-23.9271 182.584-23.1562 181.407-22.3854 180.381-21.4479 179.506-20.3437L179.506 0ZM218.965 0.53125C216.673 0.53125 214.616-0.0416667 212.793-1.1875 210.97-2.33333 209.532-4.08854 208.48-6.45312 207.428-8.81771 206.902-11.8229 206.902-15.4687 206.902-18.9896 207.47-21.8958 208.605-24.1875 209.741-26.4792 211.277-28.1875 213.215-29.3125 215.152-30.4375 217.329-31 219.746-31 221.871-31 223.694-30.5625 225.215-29.6875 226.735-28.8125 227.944-27.6667 228.84-26.25L228.84-42.0625 237.121-42.0625 237.121 0 229.183 0 228.84-4.34375C227.756-2.84375 226.412-1.65625 224.808-0.78125 223.204 0.0937499 221.256 0.53125 218.965 0.53125ZM221.402-5.78125C223.152-5.78125 224.662-6.27083 225.933-7.25 227.204-8.22917 228.173-9.375 228.84-10.6875L228.84-19.5937C228.194-20.9687 227.287-22.1667 226.121-23.1875 224.954-24.2083 223.517-24.7187 221.808-24.7187 219.767-24.7187 218.183-23.9271 217.058-22.3437 215.933-20.7604 215.371-18.4687 215.371-15.4687 215.371-12.1771 215.907-9.73958 216.98-8.15625 218.053-6.57292 219.527-5.78125 221.402-5.78125ZM254.59 0.53125C252.86 0.53125 251.246 0.197917 249.746-0.46875 248.246-1.13542 247.032-2.14062 246.105-3.48437 245.178-4.82812 244.715-6.51042 244.715-8.53125 244.715-11.3437 245.558-13.4635 247.246-14.8906 248.933-16.3177 251.293-17.2865 254.324-17.7969 257.355-18.3073 260.881-18.6042 264.902-18.6875L264.902-20.3125C264.902-22.2917 264.428-23.6458 263.48-24.375 262.532-25.1042 261.308-25.4687 259.808-25.4687 258.162-25.4687 256.808-25.0781 255.746-24.2969 254.683-23.5156 254.152-22.25 254.152-20.5L246.402-20.5C246.402-23.1042 246.97-25.1667 248.105-26.6875 249.241-28.2083 250.814-29.3021 252.824-29.9687 254.834-30.6354 257.162-30.9687 259.808-30.9687 261.746-30.9687 263.517-30.8073 265.121-30.4844 266.725-30.1615 268.116-29.6042 269.293-28.8125 270.47-28.0208 271.381-26.9427 272.027-25.5781 272.673-24.2135 272.996-22.5104 272.996-20.4687L272.996 0 265.246 0 264.996-3.96875C263.704-2.48958 262.204-1.36979 260.496-0.609375 258.787 0.151042 256.819 0.53125 254.59 0.53125ZM257.308-5.15625C258.871-5.15625 260.314-5.5625 261.636-6.375 262.959-7.1875 264.017-8.11458 264.808-9.15625L264.808-14.0937C260.433-14.0729 257.371-13.6615 255.621-12.8594 253.871-12.0573 252.996-10.7604 252.996-8.96875 252.996-7.67708 253.397-6.71875 254.199-6.09375 255.001-5.46875 256.037-5.15625 257.308-5.15625ZM294.417 0C291.333 0 288.943-0.369792 287.245-1.10937 285.547-1.84896 284.365-2.99479 283.698-4.54687 283.031-6.09896 282.698-8.125 282.698-10.625L282.698-24.125 277.635-24.125 277.635-30.5 282.698-30.5 282.698-37.6875 290.979-37.6875 290.979-30.5 297.635-30.5 297.635-24.125 290.979-24.125 290.979-11.125C290.979-9.52083 291.203-8.33333 291.651-7.5625 292.099-6.79167 293.115-6.40625 294.698-6.40625L297.635-6.40625 297.635 0ZM304.302 0 304.302-30.5 312.583-30.5 312.583 0ZM308.458-34.5C306.937-34.5 305.776-34.8854 304.974-35.6562 304.172-36.4271 303.771-37.3854 303.771-38.5312 303.771-39.6979 304.172-40.6615 304.974-41.4219 305.776-42.1823 306.937-42.5625 308.458-42.5625 309.979-42.5625 311.141-42.1823 311.943-41.4219 312.745-40.6615 313.146-39.6979 313.146-38.5312 313.146-37.3854 312.745-36.4271 311.943-35.6562 311.141-34.8854 309.979-34.5 308.458-34.5ZM335.333 0.5C332.25 0.5 329.547-0.114583 327.224-1.34375 324.901-2.57292 323.104-4.35417 321.833-6.6875 320.562-9.02083 319.927-11.8437 319.927-15.1562 319.927-18.5312 320.562-21.401 321.833-23.7656 323.104-26.1302 324.901-27.9323 327.224-29.1719 329.547-30.4115 332.25-31.0312 335.333-31.0312 338.458-31.0312 341.182-30.4115 343.505-29.1719 345.828-27.9323 347.635-26.1302 348.927-23.7656 350.219-21.401 350.865-18.5312 350.865-15.1562 350.865-11.8437 350.219-9.02083 348.927-6.6875 347.635-4.35417 345.828-2.57292 343.505-1.34375 341.182-0.114583 338.458 0.5 335.333 0.5ZM335.333-5.8125C337.146-5.8125 338.568-6.23437 339.599-7.07812 340.63-7.92187 341.359-9.05208 341.786-10.4687 342.214-11.8854 342.427-13.4479 342.427-15.1562 342.427-16.9062 342.214-18.5 341.786-19.9375 341.359-21.375 340.63-22.5208 339.599-23.375 338.568-24.2292 337.146-24.6562 335.333-24.6562 333.562-24.6562 332.172-24.2292 331.161-23.375 330.151-22.5208 329.437-21.375 329.021-19.9375 328.604-18.5 328.396-16.9062 328.396-15.1562 328.396-13.4479 328.604-11.8854 329.021-10.4687 329.437-9.05208 330.151-7.92187 331.161-7.07812 332.172-6.23437 333.562-5.8125 335.333-5.8125ZM358.156 0 358.156-30.5 366.125-30.5 366.281-25.9375C367.302-27.25 368.646-28.4115 370.312-29.4219 371.979-30.4323 374.146-30.9375 376.812-30.9375 379.917-30.9375 382.323-29.9948 384.031-28.1094 385.74-26.224 386.594-23.4687 386.594-19.8437L386.594 0 378.375 0 378.375-18.7812C378.375-19.8854 378.219-20.8542 377.906-21.6875 377.594-22.5208 377.099-23.1667 376.422-23.625 375.745-24.0833 374.854-24.3125 373.75-24.3125 372.104-24.3125 370.693-23.9271 369.516-23.1562 368.339-22.3854 367.312-21.4479 366.437-20.3437L366.437 0Z" transform="matrix(1 0 0 1 58.1323 98)"/></g></g><rect x="269" y="1415" width="2101" height="104" fill="#F2F2F2"/><text font-family="Aptos,Aptos_MSFontService,sans-serif" font-weight="700" font-size="64" transform="matrix(1 0 0 1 1124.13 1487)">AI foundation</text><g filter="url(#fx14)" transform="translate(2439 1409)"><g><rect x="19.9998" y="19.7499" width="2279" height="104" fill="#F2F2F2"/></g></g><g clip-path="url(#clip26)" filter="url(#fx15)" transform="translate(3387 1403)"><g><path d="M0.09375 0 15.2187-42.0625 24.4375-42.0625 39.5937 0 30.4375 0 27.4375-9.25 12.25-9.25 9.15625 0ZM14.3437-16.5312 25.2812-16.5312 19.8125-33.375ZM44.5625 0 44.5625-42.0625 53.3437-42.0625 53.3437 0ZM76.0521 11.1875 76.0521-30.5 83.8646-30.5 84.3333-25.8437C85.4583-27.4896 86.8125-28.7552 88.3958-29.6406 89.9792-30.526 91.8542-30.9687 94.0208-30.9687 96.3958-30.9687 98.5052-30.3958 100.349-29.25 102.193-28.1042 103.641-26.3646 104.693-24.0312 105.745-21.6979 106.271-18.7083 106.271-15.0625 106.271-11.5417 105.703-8.63542 104.568-6.34375 103.432-4.05208 101.896-2.33333 99.9583-1.1875 98.0208-0.0416667 95.8437 0.541667 93.4271 0.5625 91.4479 0.583333 89.6823 0.177083 88.1302-0.65625 86.5781-1.48958 85.3125-2.65625 84.3333-4.15625L84.3333 11.1875ZM91.3646-5.78125C93.4479-5.78125 95.0417-6.58333 96.1458-8.1875 97.25-9.79167 97.8021-12.1146 97.8021-15.1562 97.8021-18.3854 97.2864-20.7812 96.2552-22.3437 95.224-23.9062 93.8125-24.6875 92.0208-24.6875 90.1458-24.6875 88.5417-24.1615 87.2083-23.1094 85.875-22.0573 84.9167-20.9062 84.3333-19.6562L84.3333-10.6562C85-9.32292 85.9323-8.17708 87.1302-7.21875 88.3281-6.26042 89.7396-5.78125 91.3646-5.78125ZM113.865 0 113.865-30.5 121.802-30.5 121.958-25.2187C122.75-27.0521 123.937-28.4583 125.521-29.4375 127.104-30.4167 129.021-30.9062 131.271-30.9062L131.896-30.9062 131.896-23.9375 131.115-23.9375C129.885-23.9375 128.708-23.8281 127.583-23.6094 126.458-23.3906 125.437-23.0156 124.521-22.4844 123.604-21.9531 122.812-21.2187 122.146-20.2812L122.146 0ZM150.487 0.5C147.404 0.5 144.701-0.114583 142.378-1.34375 140.055-2.57292 138.258-4.35417 136.987-6.6875 135.717-9.02083 135.081-11.8437 135.081-15.1562 135.081-18.5312 135.717-21.401 136.987-23.7656 138.258-26.1302 140.055-27.9323 142.378-29.1719 144.701-30.4115 147.404-31.0312 150.487-31.0312 153.612-31.0312 156.336-30.4115 158.659-29.1719 160.982-27.9323 162.79-26.1302 164.081-23.7656 165.373-21.401 166.019-18.5312 166.019-15.1562 166.019-11.8437 165.373-9.02083 164.081-6.6875 162.79-4.35417 160.982-2.57292 158.659-1.34375 156.336-0.114583 153.612 0.5 150.487 0.5ZM150.487-5.8125C152.3-5.8125 153.722-6.23437 154.753-7.07812 155.784-7.92187 156.514-9.05208 156.941-10.4687 157.368-11.8854 157.581-13.4479 157.581-15.1562 157.581-16.9062 157.368-18.5 156.941-19.9375 156.514-21.375 155.784-22.5208 154.753-23.375 153.722-24.2292 152.3-24.6562 150.487-24.6562 148.717-24.6562 147.326-24.2292 146.316-23.375 145.305-22.5208 144.592-21.375 144.175-19.9375 143.758-18.5 143.55-16.9062 143.55-15.1562 143.55-13.4479 143.758-11.8854 144.175-10.4687 144.592-9.05208 145.305-7.92187 146.316-7.07812 147.326-6.23437 148.717-5.8125 150.487-5.8125ZM186.998 0.4375C184.165 0.4375 181.592-0.104167 179.279-1.1875 176.967-2.27083 175.133-3.95833 173.779-6.25 172.425-8.54167 171.748-11.5 171.748-15.125 171.748-18.75 172.394-21.7292 173.685-24.0625 174.977-26.3958 176.774-28.1302 179.076-29.2656 181.378-30.401 184.019-30.9687 186.998-30.9687 189.581-30.9687 191.915-30.5417 193.998-29.6875 196.081-28.8333 197.737-27.5573 198.967-25.8594 200.196-24.1615 200.821-22.0208 200.842-19.4375L192.81-19.4375C192.769-21 192.248-22.2448 191.248-23.1719 190.248-24.099 188.842-24.5625 187.029-24.5625 184.633-24.5625 182.899-23.7396 181.826-22.0937 180.753-20.4479 180.217-18.125 180.217-15.125 180.217-13.1875 180.451-11.5365 180.92-10.1719 181.389-8.80729 182.128-7.76562 183.139-7.04687 184.149-6.32812 185.446-5.96875 187.029-5.96875 188.883-5.96875 190.347-6.47396 191.42-7.48437 192.493-8.49479 193.05-9.92708 193.092-11.7812L201.123-11.7812C201.06-9.13542 200.42-6.90625 199.201-5.09375 197.982-3.28125 196.321-1.90625 194.217-0.96875 192.112-0.03125 189.706 0.4375 186.998 0.4375ZM222.29 0.5625C218.894 0.5625 216.04-0.0677084 213.727-1.32812 211.415-2.58854 209.665-4.40625 208.477-6.78125 207.29-9.15625 206.696-12.0104 206.696-15.3437 206.696-18.5729 207.274-21.3542 208.43-23.6875 209.586-26.0208 211.284-27.8177 213.524-29.0781 215.763-30.3385 218.519-30.9687 221.79-30.9687 226.331-30.9687 229.92-29.6406 232.555-26.9844 235.191-24.3281 236.508-20.5417 236.508-15.625 236.508-15.375 236.498-15.0365 236.477-14.6094 236.456-14.1823 236.425-13.8542 236.383-13.625L214.977-13.625C215.019-12.1875 215.284-10.8437 215.774-9.59375 216.263-8.34375 217.04-7.33854 218.102-6.57812 219.165-5.81771 220.56-5.4375 222.29-5.4375 224.081-5.4375 225.519-5.82812 226.602-6.60937 227.685-7.39062 228.237-8.55208 228.258-10.0937L236.415-10.0937C236.31-7.71875 235.659-5.73958 234.461-4.15625 233.264-2.57292 231.628-1.39062 229.555-0.609375 227.482 0.171875 225.06 0.5625 222.29 0.5625ZM215.071-18.875 228.29-18.875C228.227-21 227.597-22.5885 226.399-23.6406 225.201-24.6927 223.665-25.2187 221.79-25.2187 219.873-25.2187 218.305-24.6771 217.086-23.5937 215.868-22.5104 215.196-20.9375 215.071-18.875ZM256.029 0.5625C254.342 0.5625 252.685 0.40625 251.06 0.09375 249.435-0.21875 247.967-0.755208 246.654-1.51562 245.342-2.27604 244.3-3.3125 243.529-4.625 242.758-5.9375 242.373-7.57292 242.373-9.53125L250.06-9.53125C250.06-7.82292 250.659-6.63542 251.857-5.96875 253.055-5.30208 254.456-4.96875 256.06-4.96875 257.644-4.96875 258.873-5.22396 259.748-5.73437 260.623-6.24479 261.06-7.10417 261.06-8.3125 261.06-9.45833 260.545-10.3125 259.513-10.875 258.482-11.4375 256.675-12.0104 254.092-12.5937 251.925-13.1146 249.993-13.7448 248.295-14.4844 246.597-15.224 245.269-16.2135 244.31-17.4531 243.352-18.6927 242.873-20.3229 242.873-22.3437 242.873-23.9271 243.237-25.2708 243.967-26.375 244.696-27.4792 245.67-28.3698 246.889-29.0469 248.107-29.724 249.482-30.2187 251.014-30.5312 252.545-30.8437 254.112-31 255.717-31 257.279-31 258.81-30.8437 260.31-30.5312 261.81-30.2187 263.165-29.6927 264.373-28.9531 265.581-28.2135 266.55-27.2187 267.279-25.9687 268.008-24.7187 268.373-23.1562 268.373-21.2812L260.685-21.2812C260.685-22.8437 260.191-23.9271 259.201-24.5312 258.211-25.1354 257.05-25.4375 255.717-25.4375 254.279-25.4375 253.149-25.2292 252.326-24.8125 251.503-24.3958 251.092-23.7083 251.092-22.75 251.092-22.1875 251.352-21.6927 251.873-21.2656 252.394-20.8385 253.227-20.4427 254.373-20.0781 255.519-19.7135 257.029-19.3229 258.904-18.9062 260.883-18.4479 262.654-17.8542 264.217-17.125 265.779-16.3958 267.019-15.4167 267.935-14.1875 268.852-12.9583 269.31-11.3646 269.31-9.40625 269.31-7.57292 268.941-6.02083 268.201-4.75 267.461-3.47917 266.472-2.45312 265.232-1.67187 263.993-0.890625 262.576-0.322917 260.982 0.03125 259.388 0.385417 257.737 0.5625 256.029 0.5625ZM289.258 0.5625C287.571 0.5625 285.915 0.40625 284.29 0.09375 282.665-0.21875 281.196-0.755208 279.883-1.51562 278.571-2.27604 277.529-3.3125 276.758-4.625 275.987-5.9375 275.602-7.57292 275.602-9.53125L283.29-9.53125C283.29-7.82292 283.888-6.63542 285.086-5.96875 286.284-5.30208 287.685-4.96875 289.29-4.96875 290.873-4.96875 292.102-5.22396 292.977-5.73437 293.852-6.24479 294.29-7.10417 294.29-8.3125 294.29-9.45833 293.774-10.3125 292.743-10.875 291.711-11.4375 289.904-12.0104 287.321-12.5937 285.154-13.1146 283.222-13.7448 281.524-14.4844 279.826-15.224 278.498-16.2135 277.54-17.4531 276.581-18.6927 276.102-20.3229 276.102-22.3437 276.102-23.9271 276.467-25.2708 277.196-26.375 277.925-27.4792 278.899-28.3698 280.118-29.0469 281.336-29.724 282.711-30.2187 284.243-30.5312 285.774-30.8437 287.342-31 288.946-31 290.508-31 292.04-30.8437 293.54-30.5312 295.04-30.2187 296.394-29.6927 297.602-28.9531 298.81-28.2135 299.779-27.2187 300.508-25.9687 301.237-24.7187 301.602-23.1562 301.602-21.2812L293.915-21.2812C293.915-22.8437 293.42-23.9271 292.43-24.5312 291.441-25.1354 290.279-25.4375 288.946-25.4375 287.508-25.4375 286.378-25.2292 285.555-24.8125 284.732-24.3958 284.321-23.7083 284.321-22.75 284.321-22.1875 284.581-21.6927 285.102-21.2656 285.623-20.8385 286.456-20.4427 287.602-20.0781 288.748-19.7135 290.258-19.3229 292.133-18.9062 294.112-18.4479 295.883-17.8542 297.446-17.125 299.008-16.3958 300.248-15.4167 301.165-14.1875 302.081-12.9583 302.54-11.3646 302.54-9.40625 302.54-7.57292 302.17-6.02083 301.43-4.75 300.691-3.47917 299.701-2.45312 298.461-1.67187 297.222-0.890625 295.805-0.322917 294.211 0.03125 292.618 0.385417 290.967 0.5625 289.258 0.5625Z" transform="matrix(1 0 0 1 58.5176 98)"/></g></g><rect x="2459" y="1415" width="2279" height="104" fill="#F2F2F2"/><text font-family="Aptos,Aptos_MSFontService,sans-serif" font-weight="700" font-size="64" transform="matrix(1 0 0 1 3445.52 1487)">AI process</text><g filter="url(#fx16)" transform="translate(249 1556)"><g><rect x="20.0002" y="19.75" width="4469" height="105" fill="#C1E5F5"/></g></g><g clip-path="url(#clip27)" filter="url(#fx17)" transform="translate(2227 1551)"><g><path d="M5.03125 0 5.03125-42.0625 22.3437-42.0625C25.0521-42.0625 27.4687-41.6823 29.5937-40.9219 31.7187-40.1615 33.401-38.9323 34.6406-37.2344 35.8802-35.5365 36.5-33.2812 36.5-30.4687 36.5-27.8021 35.7865-25.5417 34.3594-23.6875 32.9323-21.8333 30.7708-20.5104 27.875-19.7187 29.6458-19.4479 31.0625-18.9115 32.125-18.1094 33.1875-17.3073 34.0469-16.2292 34.7031-14.875 35.3594-13.5208 35.9583-11.8542 36.5-9.875L39.2812 0 30.0937 0 28.125-8.125C27.7083-9.95833 27.2292-11.4583 26.6875-12.625 26.1458-13.7917 25.4115-14.6615 24.4844-15.2344 23.5573-15.8073 22.2812-16.0937 20.6562-16.0937L13.8125-16.0937 13.8125 0ZM13.8125-23.3437 20.875-23.3437C22.25-23.3437 23.4323-23.5625 24.4219-24 25.4115-24.4375 26.1771-25.0937 26.7187-25.9687 27.2604-26.8437 27.5312-27.9167 27.5312-29.1875 27.5312-31.0417 26.9687-32.4375 25.8437-33.375 24.7187-34.3125 23.2292-34.7812 21.375-34.7812L13.8125-34.7812ZM59.1458 0.5625C55.75 0.5625 52.8958-0.0677084 50.5833-1.32812 48.2708-2.58854 46.5208-4.40625 45.3333-6.78125 44.1458-9.15625 43.5521-12.0104 43.5521-15.3437 43.5521-18.5729 44.1302-21.3542 45.2865-23.6875 46.4427-26.0208 48.1406-27.8177 50.3802-29.0781 52.6198-30.3385 55.375-30.9687 58.6458-30.9687 63.1875-30.9687 66.776-29.6406 69.4115-26.9844 72.0469-24.3281 73.3646-20.5417 73.3646-15.625 73.3646-15.375 73.3542-15.0365 73.3333-14.6094 73.3125-14.1823 73.2812-13.8542 73.2396-13.625L51.8333-13.625C51.875-12.1875 52.1406-10.8437 52.6302-9.59375 53.1198-8.34375 53.8958-7.33854 54.9583-6.57812 56.0208-5.81771 57.4167-5.4375 59.1458-5.4375 60.9375-5.4375 62.375-5.82812 63.4583-6.60937 64.5417-7.39062 65.0937-8.55208 65.1146-10.0937L73.2708-10.0937C73.1667-7.71875 72.5156-5.73958 71.3177-4.15625 70.1198-2.57292 68.4844-1.39062 66.4115-0.609375 64.3385 0.171875 61.9167 0.5625 59.1458 0.5625ZM51.9271-18.875 65.1458-18.875C65.0833-21 64.4531-22.5885 63.2552-23.6406 62.0573-24.6927 60.5208-25.2187 58.6458-25.2187 56.7292-25.2187 55.1615-24.6771 53.9427-23.5937 52.724-22.5104 52.0521-20.9375 51.9271-18.875ZM92.8854 0.5625C91.1979 0.5625 89.5417 0.40625 87.9167 0.09375 86.2917-0.21875 84.8229-0.755208 83.5104-1.51562 82.1979-2.27604 81.1562-3.3125 80.3854-4.625 79.6146-5.9375 79.2292-7.57292 79.2292-9.53125L86.9167-9.53125C86.9167-7.82292 87.5156-6.63542 88.7135-5.96875 89.9115-5.30208 91.3125-4.96875 92.9167-4.96875 94.5-4.96875 95.7292-5.22396 96.6042-5.73437 97.4792-6.24479 97.9167-7.10417 97.9167-8.3125 97.9167-9.45833 97.401-10.3125 96.3698-10.875 95.3385-11.4375 93.5312-12.0104 90.9479-12.5937 88.7812-13.1146 86.849-13.7448 85.151-14.4844 83.4531-15.224 82.125-16.2135 81.1667-17.4531 80.2083-18.6927 79.7292-20.3229 79.7292-22.3437 79.7292-23.9271 80.0938-25.2708 80.8229-26.375 81.5521-27.4792 82.526-28.3698 83.7448-29.0469 84.9635-29.724 86.3385-30.2187 87.8698-30.5312 89.401-30.8437 90.9688-31 92.5729-31 94.1354-31 95.6667-30.8437 97.1667-30.5312 98.6667-30.2187 100.021-29.6927 101.229-28.9531 102.437-28.2135 103.406-27.2187 104.135-25.9687 104.865-24.7187 105.229-23.1562 105.229-21.2812L97.5417-21.2812C97.5417-22.8437 97.0469-23.9271 96.0573-24.5312 95.0677-25.1354 93.9062-25.4375 92.5729-25.4375 91.1354-25.4375 90.0052-25.2292 89.1823-24.8125 88.3594-24.3958 87.9479-23.7083 87.9479-22.75 87.9479-22.1875 88.2083-21.6927 88.7292-21.2656 89.25-20.8385 90.0833-20.4427 91.2292-20.0781 92.375-19.7135 93.8854-19.3229 95.7604-18.9062 97.7396-18.4479 99.5104-17.8542 101.073-17.125 102.635-16.3958 103.875-15.4167 104.792-14.1875 105.708-12.9583 106.167-11.3646 106.167-9.40625 106.167-7.57292 105.797-6.02083 105.057-4.75 104.318-3.47917 103.328-2.45312 102.089-1.67187 100.849-0.890625 99.4323-0.322917 97.8385 0.03125 96.2448 0.385417 94.5937 0.5625 92.8854 0.5625ZM113.865 11.1875 113.865-30.5 121.677-30.5 122.146-25.8437C123.271-27.4896 124.625-28.7552 126.208-29.6406 127.792-30.526 129.667-30.9687 131.833-30.9687 134.208-30.9687 136.318-30.3958 138.161-29.25 140.005-28.1042 141.453-26.3646 142.505-24.0312 143.557-21.6979 144.083-18.7083 144.083-15.0625 144.083-11.5417 143.516-8.63542 142.38-6.34375 141.245-4.05208 139.708-2.33333 137.771-1.1875 135.833-0.0416667 133.656 0.541667 131.24 0.5625 129.26 0.583333 127.495 0.177083 125.943-0.65625 124.391-1.48958 123.125-2.65625 122.146-4.15625L122.146 11.1875ZM129.177-5.78125C131.26-5.78125 132.854-6.58333 133.958-8.1875 135.062-9.79167 135.615-12.1146 135.615-15.1562 135.615-18.3854 135.099-20.7812 134.068-22.3437 133.036-23.9062 131.625-24.6875 129.833-24.6875 127.958-24.6875 126.354-24.1615 125.021-23.1094 123.687-22.0573 122.729-20.9062 122.146-19.6562L122.146-10.6562C122.812-9.32292 123.745-8.17708 124.943-7.21875 126.141-6.26042 127.552-5.78125 129.177-5.78125ZM165.521 0.5C162.437 0.5 159.734-0.114583 157.411-1.34375 155.089-2.57292 153.292-4.35417 152.021-6.6875 150.75-9.02083 150.115-11.8437 150.115-15.1562 150.115-18.5312 150.75-21.401 152.021-23.7656 153.292-26.1302 155.089-27.9323 157.411-29.1719 159.734-30.4115 162.437-31.0312 165.521-31.0312 168.646-31.0312 171.37-30.4115 173.693-29.1719 176.016-27.9323 177.823-26.1302 179.115-23.7656 180.406-21.401 181.052-18.5312 181.052-15.1562 181.052-11.8437 180.406-9.02083 179.115-6.6875 177.823-4.35417 176.016-2.57292 173.693-1.34375 171.37-0.114583 168.646 0.5 165.521 0.5ZM165.521-5.8125C167.333-5.8125 168.755-6.23437 169.786-7.07812 170.818-7.92187 171.547-9.05208 171.974-10.4687 172.401-11.8854 172.615-13.4479 172.615-15.1562 172.615-16.9062 172.401-18.5 171.974-19.9375 171.547-21.375 170.818-22.5208 169.786-23.375 168.755-24.2292 167.333-24.6562 165.521-24.6562 163.75-24.6562 162.359-24.2292 161.349-23.375 160.339-22.5208 159.625-21.375 159.208-19.9375 158.792-18.5 158.583-16.9062 158.583-15.1562 158.583-13.4479 158.792-11.8854 159.208-10.4687 159.625-9.05208 160.339-7.92187 161.349-7.07812 162.359-6.23437 163.75-5.8125 165.521-5.8125ZM188.344 0 188.344-30.5 196.312-30.5 196.469-25.9375C197.49-27.25 198.833-28.4115 200.5-29.4219 202.167-30.4323 204.333-30.9375 207-30.9375 210.104-30.9375 212.51-29.9948 214.219-28.1094 215.927-26.224 216.781-23.4687 216.781-19.8437L216.781 0 208.562 0 208.562-18.7812C208.562-19.8854 208.406-20.8542 208.094-21.6875 207.781-22.5208 207.286-23.1667 206.609-23.625 205.932-24.0833 205.042-24.3125 203.938-24.3125 202.292-24.3125 200.88-23.9271 199.703-23.1562 198.526-22.3854 197.5-21.4479 196.625-20.3437L196.625 0ZM237.833 0.5625C236.146 0.5625 234.49 0.40625 232.865 0.09375 231.24-0.21875 229.771-0.755208 228.458-1.51562 227.146-2.27604 226.104-3.3125 225.333-4.625 224.562-5.9375 224.177-7.57292 224.177-9.53125L231.865-9.53125C231.865-7.82292 232.464-6.63542 233.661-5.96875 234.859-5.30208 236.26-4.96875 237.865-4.96875 239.448-4.96875 240.677-5.22396 241.552-5.73437 242.427-6.24479 242.865-7.10417 242.865-8.3125 242.865-9.45833 242.349-10.3125 241.318-10.875 240.286-11.4375 238.479-12.0104 235.896-12.5937 233.729-13.1146 231.797-13.7448 230.099-14.4844 228.401-15.224 227.073-16.2135 226.115-17.4531 225.156-18.6927 224.677-20.3229 224.677-22.3437 224.677-23.9271 225.042-25.2708 225.771-26.375 226.5-27.4792 227.474-28.3698 228.693-29.0469 229.911-29.724 231.286-30.2187 232.818-30.5312 234.349-30.8437 235.917-31 237.521-31 239.083-31 240.615-30.8437 242.115-30.5312 243.615-30.2187 244.969-29.6927 246.177-28.9531 247.385-28.2135 248.354-27.2187 249.083-25.9687 249.812-24.7187 250.177-23.1562 250.177-21.2812L242.49-21.2812C242.49-22.8437 241.995-23.9271 241.005-24.5312 240.016-25.1354 238.854-25.4375 237.521-25.4375 236.083-25.4375 234.953-25.2292 234.13-24.8125 233.307-24.3958 232.896-23.7083 232.896-22.75 232.896-22.1875 233.156-21.6927 233.677-21.2656 234.198-20.8385 235.031-20.4427 236.177-20.0781 237.323-19.7135 238.833-19.3229 240.708-18.9062 242.687-18.4479 244.458-17.8542 246.021-17.125 247.583-16.3958 248.823-15.4167 249.74-14.1875 250.656-12.9583 251.115-11.3646 251.115-9.40625 251.115-7.57292 250.745-6.02083 250.005-4.75 249.266-3.47917 248.276-2.45312 247.036-1.67187 245.797-0.890625 244.38-0.322917 242.786 0.03125 241.193 0.385417 239.542 0.5625 237.833 0.5625ZM258.812 0 258.812-30.5 267.094-30.5 267.094 0ZM262.969-34.5C261.448-34.5 260.286-34.8854 259.484-35.6562 258.682-36.4271 258.281-37.3854 258.281-38.5312 258.281-39.6979 258.682-40.6615 259.484-41.4219 260.286-42.1823 261.448-42.5625 262.969-42.5625 264.49-42.5625 265.651-42.1823 266.453-41.4219 267.255-40.6615 267.656-39.6979 267.656-38.5312 267.656-37.3854 267.255-36.4271 266.453-35.6562 265.651-34.8854 264.49-34.5 262.969-34.5ZM293.375 0.5625C291.146 0.5625 289.312 0.135417 287.875-0.71875 286.438-1.57292 285.208-2.75 284.188-4.25L283.844 0 276 0 276-42.0625 284.281-42.0625 284.281-26.125C285.365-27.6042 286.688-28.7865 288.25-29.6719 289.812-30.5573 291.74-31 294.031-31 296.365-31 298.448-30.4323 300.281-29.2969 302.115-28.1615 303.562-26.4323 304.625-24.1094 305.688-21.7865 306.219-18.8229 306.219-15.2187 306.219-11.6354 305.651-8.67708 304.516-6.34375 303.38-4.01042 301.844-2.27604 299.906-1.14062 297.969-0.00520837 295.792 0.5625 293.375 0.5625ZM291.312-5.78125C293.333-5.78125 294.911-6.57292 296.047-8.15625 297.182-9.73958 297.75-12.0417 297.75-15.0625 297.75-18.3333 297.214-20.7656 296.141-22.3594 295.068-23.9531 293.573-24.75 291.656-24.75 289.948-24.75 288.453-24.2396 287.172-23.2187 285.891-22.1979 284.927-21 284.281-19.625L284.281-10.6875C284.885-9.375 285.786-8.22917 286.984-7.25 288.182-6.27083 289.625-5.78125 291.312-5.78125ZM325.25 0C322.146 0 319.75-0.369792 318.062-1.10937 316.375-1.84896 315.198-2.99479 314.531-4.54687 313.865-6.09896 313.531-8.125 313.531-10.625L313.531-42.0625 321.781-42.0625 321.781-11.125C321.781-9.52083 322-8.34375 322.438-7.59375 322.875-6.84375 323.896-6.46875 325.5-6.46875L327.406-6.46875 327.406 0ZM346.75 0.5625C343.354 0.5625 340.5-0.0677084 338.188-1.32812 335.875-2.58854 334.125-4.40625 332.938-6.78125 331.75-9.15625 331.156-12.0104 331.156-15.3437 331.156-18.5729 331.734-21.3542 332.891-23.6875 334.047-26.0208 335.745-27.8177 337.984-29.0781 340.224-30.3385 342.979-30.9687 346.25-30.9687 350.792-30.9687 354.38-29.6406 357.016-26.9844 359.651-24.3281 360.969-20.5417 360.969-15.625 360.969-15.375 360.958-15.0365 360.938-14.6094 360.917-14.1823 360.885-13.8542 360.844-13.625L339.438-13.625C339.479-12.1875 339.745-10.8437 340.234-9.59375 340.724-8.34375 341.5-7.33854 342.562-6.57812 343.625-5.81771 345.021-5.4375 346.75-5.4375 348.542-5.4375 349.979-5.82812 351.062-6.60937 352.146-7.39062 352.698-8.55208 352.719-10.0937L360.875-10.0937C360.771-7.71875 360.12-5.73958 358.922-4.15625 357.724-2.57292 356.089-1.39062 354.016-0.609375 351.943 0.171875 349.521 0.5625 346.75 0.5625ZM339.531-18.875 352.75-18.875C352.688-21 352.057-22.5885 350.859-23.6406 349.661-24.6927 348.125-25.2187 346.25-25.2187 344.333-25.2187 342.766-24.6771 341.547-23.5937 340.328-22.5104 339.656-20.9375 339.531-18.875ZM377.073 0 392.198-42.0625 401.417-42.0625 416.573 0 407.417 0 404.417-9.25 389.229-9.25 386.135 0ZM391.323-16.5312 402.26-16.5312 396.792-33.375ZM421.542 0 421.542-42.0625 430.323-42.0625 430.323 0Z" transform="matrix(1 0 0 1 58.7495 98)"/></g></g><rect x="269" y="1562" width="4469" height="105" fill="#C1E5F5"/><text font-family="Aptos,Aptos_MSFontService,sans-serif" font-weight="700" font-size="64" transform="matrix(1 0 0 1 2285.75 1635)">Responsible AI</text></g></svg>