<svg width="4578" height="984" xmlns="http://www.w3.org/2000/svg" xmlns:xlink="http://www.w3.org/1999/xlink" xml:space="preserve" overflow="hidden"><defs><filter id="fx0" x="-10%" y="-10%" width="120%" height="120%" filterUnits="userSpaceOnUse" primitiveUnits="userSpaceOnUse"><feComponentTransfer color-interpolation-filters="sRGB"><feFuncR type="discrete" tableValues="0 0"/><feFuncG type="discrete" tableValues="0 0"/><feFuncB type="discrete" tableValues="0 0"/><feFuncA type="linear" slope="0.4" intercept="0"/></feComponentTransfer><feGaussianBlur stdDeviation="6.11111 6.11111"/></filter><filter id="fx1" x="-10%" y="-10%" width="120%" height="120%" filterUnits="userSpaceOnUse" primitiveUnits="userSpaceOnUse"><feComponentTransfer color-interpolation-filters="sRGB"><feFuncR type="discrete" tableValues="0 0"/><feFuncG type="discrete" tableValues="0 0"/><feFuncB type="discrete" tableValues="0 0"/><feFuncA type="linear" slope="0.4" intercept="0"/></feComponentTransfer><feGaussianBlur stdDeviation="6.11111 6.11111"/></filter><filter id="fx2" x="-10%" y="-10%" width="120%" height="120%" filterUnits="userSpaceOnUse" primitiveUnits="userSpaceOnUse"><feComponentTransfer color-interpolation-filters="sRGB"><feFuncR type="discrete" tableValues="0 0"/><feFuncG type="discrete" tableValues="0 0"/><feFuncB type="discrete" tableValues="0 0"/><feFuncA type="linear" slope="0.4" intercept="0"/></feComponentTransfer><feGaussianBlur stdDeviation="6.11111 6.11111"/></filter><filter id="fx3" x="-10%" y="-10%" width="120%" height="120%" filterUnits="userSpaceOnUse" primitiveUnits="userSpaceOnUse"><feComponentTransfer color-interpolation-filters="sRGB"><feFuncR type="discrete" tableValues="0 0"/><feFuncG type="discrete" tableValues="0 0"/><feFuncB type="discrete" tableValues="0 0"/><feFuncA type="linear" slope="0.4" intercept="0"/></feComponentTransfer><feGaussianBlur stdDeviation="6.11111 6.11111"/></filter><filter id="fx4" x="-10%" y="-10%" width="120%" height="120%" filterUnits="userSpaceOnUse" primitiveUnits="userSpaceOnUse"><feComponentTransfer color-interpolation-filters="sRGB"><feFuncR type="discrete" tableValues="0 0"/><feFuncG type="discrete" tableValues="0 0"/><feFuncB type="discrete" tableValues="0 0"/><feFuncA type="linear" slope="0.4" intercept="0"/></feComponentTransfer><feGaussianBlur stdDeviation="6.11111 6.11111"/></filter><filter id="fx5" x="-10%" y="-10%" width="120%" height="120%" filterUnits="userSpaceOnUse" primitiveUnits="userSpaceOnUse"><feComponentTransfer color-interpolation-filters="sRGB"><feFuncR type="discrete" tableValues="0 0"/><feFuncG type="discrete" tableValues="0 0"/><feFuncB type="discrete" tableValues="0 0"/><feFuncA type="linear" slope="0.4" intercept="0"/></feComponentTransfer><feGaussianBlur stdDeviation="6.11111 6.11111"/></filter><filter id="fx6" x="-10%" y="-10%" width="120%" height="120%" filterUnits="userSpaceOnUse" primitiveUnits="userSpaceOnUse"><feComponentTransfer color-interpolation-filters="sRGB"><feFuncR type="discrete" tableValues="0 0"/><feFuncG type="discrete" tableValues="0 0"/><feFuncB type="discrete" tableValues="0 0"/><feFuncA type="linear" slope="0.4" intercept="0"/></feComponentTransfer><feGaussianBlur stdDeviation="6.11111 6.11111"/></filter><filter id="fx7" x="-10%" y="-10%" width="120%" height="120%" filterUnits="userSpaceOnUse" primitiveUnits="userSpaceOnUse"><feComponentTransfer color-interpolation-filters="sRGB"><feFuncR type="discrete" tableValues="0 0"/><feFuncG type="discrete" tableValues="0 0"/><feFuncB type="discrete" tableValues="0 0"/><feFuncA type="linear" slope="0.4" intercept="0"/></feComponentTransfer><feGaussianBlur stdDeviation="6.11111 6.11111"/></filter><clipPath id="clip8"><rect x="210" y="819" width="4578" height="984"/></clipPath><clipPath id="clip9"><rect x="35" y="32" width="300" height="100"/></clipPath><clipPath id="clip10"><rect x="35" y="32" width="434" height="89"/></clipPath><clipPath id="clip11"><rect x="35" y="32" width="348" height="100"/></clipPath><clipPath id="clip12"><rect x="39" y="32" width="475" height="100"/></clipPath></defs><g clip-path="url(#clip8)" transform="translate(-210 -819)"><rect x="210" y="819" width="4578" height="984" fill="#FFFFFF"/><rect x="269" y="1009" width="578" height="248" fill="#95C8E8" fill-opacity="0.25098"/><text font-family="Aptos,Aptos_MSFontService,sans-serif" font-weight="700" font-size="64" transform="matrix(1 0 0 1 401.859 1153)">AI Strategy</text><rect x="2554" y="1009" width="577" height="248" fill="#95C8E8" fill-opacity="0.25098"/><text font-family="Aptos,Aptos_MSFontService,sans-serif" font-weight="700" font-size="64" transform="matrix(1 0 0 1 2704.6 1153)">Secure AI</text><g filter="url(#fx0)" transform="translate(1772 1003)"><g><rect x="20" y="19.7499" width="578" height="248" fill="#95C8E8"/></g></g><g clip-path="url(#clip9)" filter="url(#fx1)" transform="translate(1896 1069)"><g><path d="M0.09375 0 15.2187-42.0625 24.4375-42.0625 39.5937 0 30.4375 0 27.4375-9.25 12.25-9.25 9.15625 0ZM14.3437-16.5312 25.2812-16.5312 19.8125-33.375ZM44.5625 0 44.5625-42.0625 53.3437-42.0625 53.3437 0ZM76.6458 0 76.6458-42.0625 93.9583-42.0625C96.6667-42.0625 99.0833-41.6823 101.208-40.9219 103.333-40.1615 105.016-38.9323 106.255-37.2344 107.495-35.5365 108.115-33.2812 108.115-30.4687 108.115-27.8021 107.401-25.5417 105.974-23.6875 104.547-21.8333 102.385-20.5104 99.4896-19.7187 101.26-19.4479 102.677-18.9115 103.74-18.1094 104.802-17.3073 105.661-16.2292 106.318-14.875 106.974-13.5208 107.573-11.8542 108.115-9.875L110.896 0 101.708 0 99.7396-8.125C99.3229-9.95833 98.8437-11.4583 98.3021-12.625 97.7604-13.7917 97.026-14.6615 96.099-15.2344 95.1719-15.8073 93.8958-16.0937 92.2708-16.0937L85.4271-16.0937 85.4271 0ZM85.4271-23.3437 92.4896-23.3437C93.8646-23.3437 95.0469-23.5625 96.0365-24 97.026-24.4375 97.7917-25.0937 98.3333-25.9687 98.875-26.8437 99.1458-27.9167 99.1458-29.1875 99.1458-31.0417 98.5833-32.4375 97.4583-33.375 96.3333-34.3125 94.8437-34.7812 92.9896-34.7812L85.4271-34.7812ZM130.76 0.5625C127.365 0.5625 124.51-0.0677084 122.198-1.32812 119.885-2.58854 118.135-4.40625 116.948-6.78125 115.76-9.15625 115.167-12.0104 115.167-15.3437 115.167-18.5729 115.745-21.3542 116.901-23.6875 118.057-26.0208 119.755-27.8177 121.995-29.0781 124.234-30.3385 126.99-30.9687 130.26-30.9687 134.802-30.9687 138.391-29.6406 141.026-26.9844 143.661-24.3281 144.979-20.5417 144.979-15.625 144.979-15.375 144.969-15.0365 144.948-14.6094 144.927-14.1823 144.896-13.8542 144.854-13.625L123.448-13.625C123.49-12.1875 123.755-10.8437 124.245-9.59375 124.734-8.34375 125.51-7.33854 126.573-6.57812 127.635-5.81771 129.031-5.4375 130.76-5.4375 132.552-5.4375 133.99-5.82812 135.073-6.60937 136.156-7.39062 136.708-8.55208 136.729-10.0937L144.885-10.0937C144.781-7.71875 144.13-5.73958 142.932-4.15625 141.734-2.57292 140.099-1.39062 138.026-0.609375 135.953 0.171875 133.531 0.5625 130.76 0.5625ZM123.542-18.875 136.76-18.875C136.698-21 136.068-22.5885 134.87-23.6406 133.672-24.6927 132.135-25.2187 130.26-25.2187 128.344-25.2187 126.776-24.6771 125.557-23.5937 124.339-22.5104 123.667-20.9375 123.542-18.875ZM160.562 0.53125C158.833 0.53125 157.219 0.197917 155.719-0.46875 154.219-1.13542 153.005-2.14062 152.078-3.48437 151.151-4.82812 150.687-6.51042 150.687-8.53125 150.687-11.3437 151.531-13.4635 153.219-14.8906 154.906-16.3177 157.266-17.2865 160.297-17.7969 163.328-18.3073 166.854-18.6042 170.875-18.6875L170.875-20.3125C170.875-22.2917 170.401-23.6458 169.453-24.375 168.505-25.1042 167.281-25.4687 165.781-25.4687 164.135-25.4687 162.781-25.0781 161.719-24.2969 160.656-23.5156 160.125-22.25 160.125-20.5L152.375-20.5C152.375-23.1042 152.943-25.1667 154.078-26.6875 155.214-28.2083 156.786-29.3021 158.797-29.9687 160.807-30.6354 163.135-30.9687 165.781-30.9687 167.719-30.9687 169.49-30.8073 171.094-30.4844 172.698-30.1615 174.089-29.6042 175.266-28.8125 176.443-28.0208 177.354-26.9427 178-25.5781 178.646-24.2135 178.969-22.5104 178.969-20.4687L178.969 0 171.219 0 170.969-3.96875C169.677-2.48958 168.177-1.36979 166.469-0.609375 164.76 0.151042 162.792 0.53125 160.562 0.53125ZM163.281-5.15625C164.844-5.15625 166.286-5.5625 167.609-6.375 168.932-7.1875 169.99-8.11458 170.781-9.15625L170.781-14.0937C166.406-14.0729 163.344-13.6615 161.594-12.8594 159.844-12.0573 158.969-10.7604 158.969-8.96875 158.969-7.67708 159.37-6.71875 160.172-6.09375 160.974-5.46875 162.01-5.15625 163.281-5.15625ZM198.271 0.53125C195.979 0.53125 193.922-0.0416667 192.099-1.1875 190.276-2.33333 188.839-4.08854 187.786-6.45312 186.734-8.81771 186.208-11.8229 186.208-15.4687 186.208-18.9896 186.776-21.8958 187.911-24.1875 189.047-26.4792 190.583-28.1875 192.521-29.3125 194.458-30.4375 196.635-31 199.052-31 201.177-31 203-30.5625 204.521-29.6875 206.042-28.8125 207.25-27.6667 208.146-26.25L208.146-42.0625 216.427-42.0625 216.427 0 208.49 0 208.146-4.34375C207.062-2.84375 205.719-1.65625 204.115-0.78125 202.51 0.0937499 200.562 0.53125 198.271 0.53125ZM200.708-5.78125C202.458-5.78125 203.969-6.27083 205.24-7.25 206.51-8.22917 207.479-9.375 208.146-10.6875L208.146-19.5937C207.5-20.9687 206.594-22.1667 205.427-23.1875 204.26-24.2083 202.823-24.7187 201.115-24.7187 199.073-24.7187 197.49-23.9271 196.365-22.3437 195.24-20.7604 194.677-18.4687 194.677-15.4687 194.677-12.1771 195.214-9.73958 196.286-8.15625 197.359-6.57292 198.833-5.78125 200.708-5.78125ZM224.708 11.1875 224.708 4.46875 227.458 4.46875C228.687 4.46875 229.714 4.25 230.536 3.8125 231.359 3.375 231.958 2.65625 232.333 1.65625L233.021 0 221.146-30.5 229.771-30.5 237.49-7.9375 244.365-30.5 252.74-30.5 241.771 0 240.646 3.03125C239.854 5.17708 238.937 6.84375 237.896 8.03125 236.854 9.21875 235.578 10.0417 234.068 10.5 232.557 10.9583 230.677 11.1875 228.427 11.1875Z" transform="matrix(1 0 0 1 58.7786 98)"/></g></g><rect x="1792" y="1009" width="578" height="248" fill="#95C8E8"/><text font-family="Aptos,Aptos_MSFontService,sans-serif" font-weight="700" font-size="64" transform="matrix(1 0 0 1 1954.78 1153)">AI Ready</text><rect x="3315" y="1009" width="578" height="248" fill="#95C8E8" fill-opacity="0.25098"/><text font-family="Aptos,Aptos_MSFontService,sans-serif" font-weight="700" font-size="64" transform="matrix(1 0 0 1 3463.78 1153)">Govern AI</text><rect x="1031" y="1009" width="577" height="248" fill="#95C8E8" fill-opacity="0.25098"/><text font-family="Aptos,Aptos_MSFontService,sans-serif" font-weight="700" font-size="64" transform="matrix(1 0 0 1 1218.49 1153)">AI Plan</text><path d="M871.5 1130.06 978.75 1130.06 978.75 1136.94 871.5 1136.94ZM974.167 1110.58 1020 1133.5 974.167 1156.42Z" fill="#3B3B40"/><path d="M1631.5 1130.06 1738.75 1130.06 1738.75 1136.94 1631.5 1136.94ZM1734.17 1110.58 1780 1133.5 1734.17 1156.42Z" fill="#3B3B40"/><path d="M2391.5 1130.06 2498.75 1130.06 2498.75 1136.94 2391.5 1136.94ZM2494.17 1110.58 2540 1133.5 2494.17 1156.42Z" fill="#3B3B40"/><path d="M3151.5 1130.06 3258.75 1130.06 3258.75 1136.94 3151.5 1136.94ZM3254.17 1110.58 3300 1133.5 3254.17 1156.42Z" fill="#3B3B40"/><path d="M2459.5 986.502C2459.5 946.736 2491.74 914.5 2531.5 914.5L4666.5 914.5C4706.26 914.5 4738.5 946.736 4738.5 986.502L4738.5 1274.5C4738.5 1314.26 4706.26 1346.5 4666.5 1346.5L2531.5 1346.5C2491.74 1346.5 2459.5 1314.26 2459.5 1274.5Z" stroke="#2D2D2D" stroke-width="6.875" stroke-miterlimit="8" fill="none" fill-rule="evenodd"/><path d="M1.2531e-05-3.4375 91.9188-3.43716 91.9188 3.43784-1.2531e-05 3.4375ZM52.3382-25.9214 98.997 0.000360899 52.3381 25.9218C50.6785 26.8438 48.5857 26.2458 47.6637 24.5862 46.7418 22.9267 47.3397 20.8339 48.9993 19.9119L90.2494-3.00459 90.2493 3.00524 48.9994-19.9116C47.3399-20.8336 46.7419-22.9263 47.6639-24.5859 48.5859-26.2455 50.6787-26.8434 52.3382-25.9214Z" fill="#2D2D2D" transform="matrix(1.83697e-16 1 1 -1.83697e-16 4738.5 1131.5)"/><path d="M1.87965e-05-3.4375 58.9188-3.43718 58.9188 3.43782-1.87965e-05 3.4375ZM19.3383-25.9215 65.997 0.000360662 19.338 25.9217C17.6784 26.8437 15.5857 26.2457 14.6637 24.5861 13.7417 22.9266 14.3397 20.8338 15.9992 19.9118L57.2494-3.0046 57.2493 3.00523 15.9995-19.9117C14.3399-20.8337 13.742-22.9264 14.664-24.586 15.586-26.2456 17.6787-26.8435 19.3383-25.9215Z" fill="#2D2D2D" transform="matrix(-6.12323e-17 -1 -1 6.12323e-17 2459.5 1074.5)"/><path d="M3469.5 911.062 3591.22 911.063 3591.22 917.938 3469.5 917.937ZM3551.64 888.579 3598.29 914.5 3551.64 940.422C3549.98 941.344 3547.88 940.746 3546.96 939.086 3546.04 937.427 3546.64 935.334 3548.3 934.412L3589.55 911.495 3589.55 917.505 3548.3 894.588C3546.64 893.666 3546.04 891.574 3546.96 889.914 3547.88 888.254 3549.98 887.657 3551.64 888.579Z" fill="#2D2D2D"/><path d="M9.63195e-06-3.4375 121.716-3.43716 121.716 3.43784-9.63195e-06 3.4375ZM82.1353-25.9214 128.794 0.000360718 82.1352 25.9218C80.4756 26.8438 78.3828 26.2459 77.4608 24.5863 76.5389 22.9267 77.1368 20.834 78.7964 19.912L120.046-3.00458 120.046 3.00525 78.7965-19.9115C77.1369-20.8335 76.539-22.9263 77.461-24.5858 78.383-26.2454 80.4757-26.8433 82.1353-25.9214Z" fill="#2D2D2D" transform="matrix(-1 0 0 1 3727.3 1346.5)"/><rect x="4077" y="1009" width="577" height="248" fill="#95C8E8" fill-opacity="0.25098"/><text font-family="Aptos,Aptos_MSFontService,sans-serif" font-weight="700" font-size="64" transform="matrix(1 0 0 1 4215.59 1153)">Manage AI</text><path d="M3911.5 1130.06 4018.75 1130.06 4018.75 1136.94 3911.5 1136.94ZM4014.17 1110.58 4060 1133.5 4014.17 1156.42Z" fill="#3B3B40"/><g filter="url(#fx2)" transform="translate(249 1409)"><g><rect x="20.0002" y="19.7499" width="2101" height="104" fill="#F2F2F2"/></g></g><g clip-path="url(#clip10)" filter="url(#fx3)" transform="translate(1066 1403)"><g><path d="M0.09375 0 15.2187-42.0625 24.4375-42.0625 39.5937 0 30.4375 0 27.4375-9.25 12.25-9.25 9.15625 0ZM14.3437-16.5312 25.2812-16.5312 19.8125-33.375ZM44.5625 0 44.5625-42.0625 53.3437-42.0625 53.3437 0ZM77.3646 0 77.3646-24.125 72.3021-24.125 72.3021-30.5 77.3646-30.5 77.3646-31.4687C77.3646-33.3021 77.5417-34.8906 77.8958-36.2344 78.25-37.5781 78.8594-38.6771 79.724-39.5312 80.5885-40.3854 81.7812-41.0208 83.3021-41.4375 84.8229-41.8542 86.75-42.0625 89.0833-42.0625L92.1146-42.0625 92.1146-36.0625 89.3646-36.0625C87.7812-36.0625 86.7656-35.6979 86.3177-34.9687 85.8698-34.2396 85.6458-33.0729 85.6458-31.4687L85.6458-30.5 92.1458-30.5 92.1458-24.125 85.6458-24.125 85.6458 0ZM111.162 0.5C108.079 0.5 105.376-0.114583 103.053-1.34375 100.73-2.57292 98.9333-4.35417 97.6625-6.6875 96.3917-9.02083 95.7562-11.8437 95.7562-15.1562 95.7562-18.5312 96.3917-21.401 97.6625-23.7656 98.9333-26.1302 100.73-27.9323 103.053-29.1719 105.376-30.4115 108.079-31.0312 111.162-31.0312 114.287-31.0312 117.011-30.4115 119.334-29.1719 121.657-27.9323 123.465-26.1302 124.756-23.7656 126.048-21.401 126.694-18.5312 126.694-15.1562 126.694-11.8437 126.048-9.02083 124.756-6.6875 123.465-4.35417 121.657-2.57292 119.334-1.34375 117.011-0.114583 114.287 0.5 111.162 0.5ZM111.162-5.8125C112.975-5.8125 114.397-6.23437 115.428-7.07812 116.459-7.92187 117.189-9.05208 117.616-10.4687 118.043-11.8854 118.256-13.4479 118.256-15.1562 118.256-16.9062 118.043-18.5 117.616-19.9375 117.189-21.375 116.459-22.5208 115.428-23.375 114.397-24.2292 112.975-24.6562 111.162-24.6562 109.392-24.6562 108.001-24.2292 106.991-23.375 105.98-22.5208 105.267-21.375 104.85-19.9375 104.433-18.5 104.225-16.9062 104.225-15.1562 104.225-13.4479 104.433-11.8854 104.85-10.4687 105.267-9.05208 105.98-7.92187 106.991-7.07812 108.001-6.23437 109.392-5.8125 111.162-5.8125ZM143.392 0.40625C140.308 0.40625 137.923-0.546875 136.235-2.45312 134.548-4.35937 133.704-7.07292 133.704-10.5937L133.704-30.5 141.985-30.5 141.985-11.5937C141.985-10.5521 142.136-9.63021 142.439-8.82812 142.741-8.02604 143.241-7.40625 143.939-6.96875 144.636-6.53125 145.558-6.3125 146.704-6.3125 148.371-6.3125 149.793-6.68229 150.97-7.42187 152.147-8.16146 153.173-9.0625 154.048-10.125L154.048-30.5 162.329-30.5 162.329 0 154.329 0 154.204-4.59375C153.183-3.30208 151.787-2.14583 150.017-1.125 148.246-0.104167 146.037 0.40625 143.392 0.40625ZM171.225 0 171.225-30.5 179.194-30.5 179.35-25.9375C180.371-27.25 181.715-28.4115 183.381-29.4219 185.048-30.4323 187.215-30.9375 189.881-30.9375 192.985-30.9375 195.392-29.9948 197.1-28.1094 198.808-26.224 199.662-23.4687 199.662-19.8437L199.662 0 191.444 0 191.444-18.7812C191.444-19.8854 191.287-20.8542 190.975-21.6875 190.662-22.5208 190.168-23.1667 189.491-23.625 188.814-24.0833 187.923-24.3125 186.819-24.3125 185.173-24.3125 183.761-23.9271 182.584-23.1562 181.407-22.3854 180.381-21.4479 179.506-20.3437L179.506 0ZM218.965 0.53125C216.673 0.53125 214.616-0.0416667 212.793-1.1875 210.97-2.33333 209.532-4.08854 208.48-6.45312 207.428-8.81771 206.902-11.8229 206.902-15.4687 206.902-18.9896 207.47-21.8958 208.605-24.1875 209.741-26.4792 211.277-28.1875 213.215-29.3125 215.152-30.4375 217.329-31 219.746-31 221.871-31 223.694-30.5625 225.215-29.6875 226.735-28.8125 227.944-27.6667 228.84-26.25L228.84-42.0625 237.121-42.0625 237.121 0 229.183 0 228.84-4.34375C227.756-2.84375 226.412-1.65625 224.808-0.78125 223.204 0.0937499 221.256 0.53125 218.965 0.53125ZM221.402-5.78125C223.152-5.78125 224.662-6.27083 225.933-7.25 227.204-8.22917 228.173-9.375 228.84-10.6875L228.84-19.5937C228.194-20.9687 227.287-22.1667 226.121-23.1875 224.954-24.2083 223.517-24.7187 221.808-24.7187 219.767-24.7187 218.183-23.9271 217.058-22.3437 215.933-20.7604 215.371-18.4687 215.371-15.4687 215.371-12.1771 215.907-9.73958 216.98-8.15625 218.053-6.57292 219.527-5.78125 221.402-5.78125ZM254.59 0.53125C252.86 0.53125 251.246 0.197917 249.746-0.46875 248.246-1.13542 247.032-2.14062 246.105-3.48437 245.178-4.82812 244.715-6.51042 244.715-8.53125 244.715-11.3437 245.558-13.4635 247.246-14.8906 248.933-16.3177 251.293-17.2865 254.324-17.7969 257.355-18.3073 260.881-18.6042 264.902-18.6875L264.902-20.3125C264.902-22.2917 264.428-23.6458 263.48-24.375 262.532-25.1042 261.308-25.4687 259.808-25.4687 258.162-25.4687 256.808-25.0781 255.746-24.2969 254.683-23.5156 254.152-22.25 254.152-20.5L246.402-20.5C246.402-23.1042 246.97-25.1667 248.105-26.6875 249.241-28.2083 250.814-29.3021 252.824-29.9687 254.834-30.6354 257.162-30.9687 259.808-30.9687 261.746-30.9687 263.517-30.8073 265.121-30.4844 266.725-30.1615 268.116-29.6042 269.293-28.8125 270.47-28.0208 271.381-26.9427 272.027-25.5781 272.673-24.2135 272.996-22.5104 272.996-20.4687L272.996 0 265.246 0 264.996-3.96875C263.704-2.48958 262.204-1.36979 260.496-0.609375 258.787 0.151042 256.819 0.53125 254.59 0.53125ZM257.308-5.15625C258.871-5.15625 260.314-5.5625 261.636-6.375 262.959-7.1875 264.017-8.11458 264.808-9.15625L264.808-14.0937C260.433-14.0729 257.371-13.6615 255.621-12.8594 253.871-12.0573 252.996-10.7604 252.996-8.96875 252.996-7.67708 253.397-6.71875 254.199-6.09375 255.001-5.46875 256.037-5.15625 257.308-5.15625ZM294.417 0C291.333 0 288.943-0.369792 287.245-1.10937 285.547-1.84896 284.365-2.99479 283.698-4.54687 283.031-6.09896 282.698-8.125 282.698-10.625L282.698-24.125 277.635-24.125 277.635-30.5 282.698-30.5 282.698-37.6875 290.979-37.6875 290.979-30.5 297.635-30.5 297.635-24.125 290.979-24.125 290.979-11.125C290.979-9.52083 291.203-8.33333 291.651-7.5625 292.099-6.79167 293.115-6.40625 294.698-6.40625L297.635-6.40625 297.635 0ZM304.302 0 304.302-30.5 312.583-30.5 312.583 0ZM308.458-34.5C306.937-34.5 305.776-34.8854 304.974-35.6562 304.172-36.4271 303.771-37.3854 303.771-38.5312 303.771-39.6979 304.172-40.6615 304.974-41.4219 305.776-42.1823 306.937-42.5625 308.458-42.5625 309.979-42.5625 311.141-42.1823 311.943-41.4219 312.745-40.6615 313.146-39.6979 313.146-38.5312 313.146-37.3854 312.745-36.4271 311.943-35.6562 311.141-34.8854 309.979-34.5 308.458-34.5ZM335.333 0.5C332.25 0.5 329.547-0.114583 327.224-1.34375 324.901-2.57292 323.104-4.35417 321.833-6.6875 320.562-9.02083 319.927-11.8437 319.927-15.1562 319.927-18.5312 320.562-21.401 321.833-23.7656 323.104-26.1302 324.901-27.9323 327.224-29.1719 329.547-30.4115 332.25-31.0312 335.333-31.0312 338.458-31.0312 341.182-30.4115 343.505-29.1719 345.828-27.9323 347.635-26.1302 348.927-23.7656 350.219-21.401 350.865-18.5312 350.865-15.1562 350.865-11.8437 350.219-9.02083 348.927-6.6875 347.635-4.35417 345.828-2.57292 343.505-1.34375 341.182-0.114583 338.458 0.5 335.333 0.5ZM335.333-5.8125C337.146-5.8125 338.568-6.23437 339.599-7.07812 340.63-7.92187 341.359-9.05208 341.786-10.4687 342.214-11.8854 342.427-13.4479 342.427-15.1562 342.427-16.9062 342.214-18.5 341.786-19.9375 341.359-21.375 340.63-22.5208 339.599-23.375 338.568-24.2292 337.146-24.6562 335.333-24.6562 333.562-24.6562 332.172-24.2292 331.161-23.375 330.151-22.5208 329.437-21.375 329.021-19.9375 328.604-18.5 328.396-16.9062 328.396-15.1562 328.396-13.4479 328.604-11.8854 329.021-10.4687 329.437-9.05208 330.151-7.92187 331.161-7.07812 332.172-6.23437 333.562-5.8125 335.333-5.8125ZM358.156 0 358.156-30.5 366.125-30.5 366.281-25.9375C367.302-27.25 368.646-28.4115 370.312-29.4219 371.979-30.4323 374.146-30.9375 376.812-30.9375 379.917-30.9375 382.323-29.9948 384.031-28.1094 385.74-26.224 386.594-23.4687 386.594-19.8437L386.594 0 378.375 0 378.375-18.7812C378.375-19.8854 378.219-20.8542 377.906-21.6875 377.594-22.5208 377.099-23.1667 376.422-23.625 375.745-24.0833 374.854-24.3125 373.75-24.3125 372.104-24.3125 370.693-23.9271 369.516-23.1562 368.339-22.3854 367.312-21.4479 366.437-20.3437L366.437 0Z" transform="matrix(1 0 0 1 58.1323 98)"/></g></g><rect x="269" y="1415" width="2101" height="104" fill="#F2F2F2"/><text font-family="Aptos,Aptos_MSFontService,sans-serif" font-weight="700" font-size="64" transform="matrix(1 0 0 1 1124.13 1487)">AI foundation</text><g filter="url(#fx4)" transform="translate(2439 1409)"><g><rect x="19.9998" y="19.7499" width="2279" height="104" fill="#F2F2F2"/></g></g><g clip-path="url(#clip11)" filter="url(#fx5)" transform="translate(3387 1403)"><g><path d="M0.09375 0 15.2187-42.0625 24.4375-42.0625 39.5937 0 30.4375 0 27.4375-9.25 12.25-9.25 9.15625 0ZM14.3437-16.5312 25.2812-16.5312 19.8125-33.375ZM44.5625 0 44.5625-42.0625 53.3437-42.0625 53.3437 0ZM76.0521 11.1875 76.0521-30.5 83.8646-30.5 84.3333-25.8437C85.4583-27.4896 86.8125-28.7552 88.3958-29.6406 89.9792-30.526 91.8542-30.9687 94.0208-30.9687 96.3958-30.9687 98.5052-30.3958 100.349-29.25 102.193-28.1042 103.641-26.3646 104.693-24.0312 105.745-21.6979 106.271-18.7083 106.271-15.0625 106.271-11.5417 105.703-8.63542 104.568-6.34375 103.432-4.05208 101.896-2.33333 99.9583-1.1875 98.0208-0.0416667 95.8437 0.541667 93.4271 0.5625 91.4479 0.583333 89.6823 0.177083 88.1302-0.65625 86.5781-1.48958 85.3125-2.65625 84.3333-4.15625L84.3333 11.1875ZM91.3646-5.78125C93.4479-5.78125 95.0417-6.58333 96.1458-8.1875 97.25-9.79167 97.8021-12.1146 97.8021-15.1562 97.8021-18.3854 97.2864-20.7812 96.2552-22.3437 95.224-23.9062 93.8125-24.6875 92.0208-24.6875 90.1458-24.6875 88.5417-24.1615 87.2083-23.1094 85.875-22.0573 84.9167-20.9062 84.3333-19.6562L84.3333-10.6562C85-9.32292 85.9323-8.17708 87.1302-7.21875 88.3281-6.26042 89.7396-5.78125 91.3646-5.78125ZM113.865 0 113.865-30.5 121.802-30.5 121.958-25.2187C122.75-27.0521 123.937-28.4583 125.521-29.4375 127.104-30.4167 129.021-30.9062 131.271-30.9062L131.896-30.9062 131.896-23.9375 131.115-23.9375C129.885-23.9375 128.708-23.8281 127.583-23.6094 126.458-23.3906 125.437-23.0156 124.521-22.4844 123.604-21.9531 122.812-21.2187 122.146-20.2812L122.146 0ZM150.487 0.5C147.404 0.5 144.701-0.114583 142.378-1.34375 140.055-2.57292 138.258-4.35417 136.987-6.6875 135.717-9.02083 135.081-11.8437 135.081-15.1562 135.081-18.5312 135.717-21.401 136.987-23.7656 138.258-26.1302 140.055-27.9323 142.378-29.1719 144.701-30.4115 147.404-31.0312 150.487-31.0312 153.612-31.0312 156.336-30.4115 158.659-29.1719 160.982-27.9323 162.79-26.1302 164.081-23.7656 165.373-21.401 166.019-18.5312 166.019-15.1562 166.019-11.8437 165.373-9.02083 164.081-6.6875 162.79-4.35417 160.982-2.57292 158.659-1.34375 156.336-0.114583 153.612 0.5 150.487 0.5ZM150.487-5.8125C152.3-5.8125 153.722-6.23437 154.753-7.07812 155.784-7.92187 156.514-9.05208 156.941-10.4687 157.368-11.8854 157.581-13.4479 157.581-15.1562 157.581-16.9062 157.368-18.5 156.941-19.9375 156.514-21.375 155.784-22.5208 154.753-23.375 153.722-24.2292 152.3-24.6562 150.487-24.6562 148.717-24.6562 147.326-24.2292 146.316-23.375 145.305-22.5208 144.592-21.375 144.175-19.9375 143.758-18.5 143.55-16.9062 143.55-15.1562 143.55-13.4479 143.758-11.8854 144.175-10.4687 144.592-9.05208 145.305-7.92187 146.316-7.07812 147.326-6.23437 148.717-5.8125 150.487-5.8125ZM186.998 0.4375C184.165 0.4375 181.592-0.104167 179.279-1.1875 176.967-2.27083 175.133-3.95833 173.779-6.25 172.425-8.54167 171.748-11.5 171.748-15.125 171.748-18.75 172.394-21.7292 173.685-24.0625 174.977-26.3958 176.774-28.1302 179.076-29.2656 181.378-30.401 184.019-30.9687 186.998-30.9687 189.581-30.9687 191.915-30.5417 193.998-29.6875 196.081-28.8333 197.737-27.5573 198.967-25.8594 200.196-24.1615 200.821-22.0208 200.842-19.4375L192.81-19.4375C192.769-21 192.248-22.2448 191.248-23.1719 190.248-24.099 188.842-24.5625 187.029-24.5625 184.633-24.5625 182.899-23.7396 181.826-22.0937 180.753-20.4479 180.217-18.125 180.217-15.125 180.217-13.1875 180.451-11.5365 180.92-10.1719 181.389-8.80729 182.128-7.76562 183.139-7.04687 184.149-6.32812 185.446-5.96875 187.029-5.96875 188.883-5.96875 190.347-6.47396 191.42-7.48437 192.493-8.49479 193.05-9.92708 193.092-11.7812L201.123-11.7812C201.06-9.13542 200.42-6.90625 199.201-5.09375 197.982-3.28125 196.321-1.90625 194.217-0.96875 192.112-0.03125 189.706 0.4375 186.998 0.4375ZM222.29 0.5625C218.894 0.5625 216.04-0.0677084 213.727-1.32812 211.415-2.58854 209.665-4.40625 208.477-6.78125 207.29-9.15625 206.696-12.0104 206.696-15.3437 206.696-18.5729 207.274-21.3542 208.43-23.6875 209.586-26.0208 211.284-27.8177 213.524-29.0781 215.763-30.3385 218.519-30.9687 221.79-30.9687 226.331-30.9687 229.92-29.6406 232.555-26.9844 235.191-24.3281 236.508-20.5417 236.508-15.625 236.508-15.375 236.498-15.0365 236.477-14.6094 236.456-14.1823 236.425-13.8542 236.383-13.625L214.977-13.625C215.019-12.1875 215.284-10.8437 215.774-9.59375 216.263-8.34375 217.04-7.33854 218.102-6.57812 219.165-5.81771 220.56-5.4375 222.29-5.4375 224.081-5.4375 225.519-5.82812 226.602-6.60937 227.685-7.39062 228.237-8.55208 228.258-10.0937L236.415-10.0937C236.31-7.71875 235.659-5.73958 234.461-4.15625 233.264-2.57292 231.628-1.39062 229.555-0.609375 227.482 0.171875 225.06 0.5625 222.29 0.5625ZM215.071-18.875 228.29-18.875C228.227-21 227.597-22.5885 226.399-23.6406 225.201-24.6927 223.665-25.2187 221.79-25.2187 219.873-25.2187 218.305-24.6771 217.086-23.5937 215.868-22.5104 215.196-20.9375 215.071-18.875ZM256.029 0.5625C254.342 0.5625 252.685 0.40625 251.06 0.09375 249.435-0.21875 247.967-0.755208 246.654-1.51562 245.342-2.27604 244.3-3.3125 243.529-4.625 242.758-5.9375 242.373-7.57292 242.373-9.53125L250.06-9.53125C250.06-7.82292 250.659-6.63542 251.857-5.96875 253.055-5.30208 254.456-4.96875 256.06-4.96875 257.644-4.96875 258.873-5.22396 259.748-5.73437 260.623-6.24479 261.06-7.10417 261.06-8.3125 261.06-9.45833 260.545-10.3125 259.513-10.875 258.482-11.4375 256.675-12.0104 254.092-12.5937 251.925-13.1146 249.993-13.7448 248.295-14.4844 246.597-15.224 245.269-16.2135 244.31-17.4531 243.352-18.6927 242.873-20.3229 242.873-22.3437 242.873-23.9271 243.237-25.2708 243.967-26.375 244.696-27.4792 245.67-28.3698 246.889-29.0469 248.107-29.724 249.482-30.2187 251.014-30.5312 252.545-30.8437 254.112-31 255.717-31 257.279-31 258.81-30.8437 260.31-30.5312 261.81-30.2187 263.165-29.6927 264.373-28.9531 265.581-28.2135 266.55-27.2187 267.279-25.9687 268.008-24.7187 268.373-23.1562 268.373-21.2812L260.685-21.2812C260.685-22.8437 260.191-23.9271 259.201-24.5312 258.211-25.1354 257.05-25.4375 255.717-25.4375 254.279-25.4375 253.149-25.2292 252.326-24.8125 251.503-24.3958 251.092-23.7083 251.092-22.75 251.092-22.1875 251.352-21.6927 251.873-21.2656 252.394-20.8385 253.227-20.4427 254.373-20.0781 255.519-19.7135 257.029-19.3229 258.904-18.9062 260.883-18.4479 262.654-17.8542 264.217-17.125 265.779-16.3958 267.019-15.4167 267.935-14.1875 268.852-12.9583 269.31-11.3646 269.31-9.40625 269.31-7.57292 268.941-6.02083 268.201-4.75 267.461-3.47917 266.472-2.45312 265.232-1.67187 263.993-0.890625 262.576-0.322917 260.982 0.03125 259.388 0.385417 257.737 0.5625 256.029 0.5625ZM289.258 0.5625C287.571 0.5625 285.915 0.40625 284.29 0.09375 282.665-0.21875 281.196-0.755208 279.883-1.51562 278.571-2.27604 277.529-3.3125 276.758-4.625 275.987-5.9375 275.602-7.57292 275.602-9.53125L283.29-9.53125C283.29-7.82292 283.888-6.63542 285.086-5.96875 286.284-5.30208 287.685-4.96875 289.29-4.96875 290.873-4.96875 292.102-5.22396 292.977-5.73437 293.852-6.24479 294.29-7.10417 294.29-8.3125 294.29-9.45833 293.774-10.3125 292.743-10.875 291.711-11.4375 289.904-12.0104 287.321-12.5937 285.154-13.1146 283.222-13.7448 281.524-14.4844 279.826-15.224 278.498-16.2135 277.54-17.4531 276.581-18.6927 276.102-20.3229 276.102-22.3437 276.102-23.9271 276.467-25.2708 277.196-26.375 277.925-27.4792 278.899-28.3698 280.118-29.0469 281.336-29.724 282.711-30.2187 284.243-30.5312 285.774-30.8437 287.342-31 288.946-31 290.508-31 292.04-30.8437 293.54-30.5312 295.04-30.2187 296.394-29.6927 297.602-28.9531 298.81-28.2135 299.779-27.2187 300.508-25.9687 301.237-24.7187 301.602-23.1562 301.602-21.2812L293.915-21.2812C293.915-22.8437 293.42-23.9271 292.43-24.5312 291.441-25.1354 290.279-25.4375 288.946-25.4375 287.508-25.4375 286.378-25.2292 285.555-24.8125 284.732-24.3958 284.321-23.7083 284.321-22.75 284.321-22.1875 284.581-21.6927 285.102-21.2656 285.623-20.8385 286.456-20.4427 287.602-20.0781 288.748-19.7135 290.258-19.3229 292.133-18.9062 294.112-18.4479 295.883-17.8542 297.446-17.125 299.008-16.3958 300.248-15.4167 301.165-14.1875 302.081-12.9583 302.54-11.3646 302.54-9.40625 302.54-7.57292 302.17-6.02083 301.43-4.75 300.691-3.47917 299.701-2.45312 298.461-1.67187 297.222-0.890625 295.805-0.322917 294.211 0.03125 292.618 0.385417 290.967 0.5625 289.258 0.5625Z" transform="matrix(1 0 0 1 58.5176 98)"/></g></g><rect x="2459" y="1415" width="2279" height="104" fill="#F2F2F2"/><text font-family="Aptos,Aptos_MSFontService,sans-serif" font-weight="700" font-size="64" transform="matrix(1 0 0 1 3445.52 1487)">AI process</text><g filter="url(#fx6)" transform="translate(249 1556)"><g><rect x="20.0002" y="19.75" width="4469" height="105" fill="#C1E5F5"/></g></g><g clip-path="url(#clip12)" filter="url(#fx7)" transform="translate(2227 1551)"><g><path d="M5.03125 0 5.03125-42.0625 22.3437-42.0625C25.0521-42.0625 27.4687-41.6823 29.5937-40.9219 31.7187-40.1615 33.401-38.9323 34.6406-37.2344 35.8802-35.5365 36.5-33.2812 36.5-30.4687 36.5-27.8021 35.7865-25.5417 34.3594-23.6875 32.9323-21.8333 30.7708-20.5104 27.875-19.7187 29.6458-19.4479 31.0625-18.9115 32.125-18.1094 33.1875-17.3073 34.0469-16.2292 34.7031-14.875 35.3594-13.5208 35.9583-11.8542 36.5-9.875L39.2812 0 30.0937 0 28.125-8.125C27.7083-9.95833 27.2292-11.4583 26.6875-12.625 26.1458-13.7917 25.4115-14.6615 24.4844-15.2344 23.5573-15.8073 22.2812-16.0937 20.6562-16.0937L13.8125-16.0937 13.8125 0ZM13.8125-23.3437 20.875-23.3437C22.25-23.3437 23.4323-23.5625 24.4219-24 25.4115-24.4375 26.1771-25.0937 26.7187-25.9687 27.2604-26.8437 27.5312-27.9167 27.5312-29.1875 27.5312-31.0417 26.9687-32.4375 25.8437-33.375 24.7187-34.3125 23.2292-34.7812 21.375-34.7812L13.8125-34.7812ZM59.1458 0.5625C55.75 0.5625 52.8958-0.0677084 50.5833-1.32812 48.2708-2.58854 46.5208-4.40625 45.3333-6.78125 44.1458-9.15625 43.5521-12.0104 43.5521-15.3437 43.5521-18.5729 44.1302-21.3542 45.2865-23.6875 46.4427-26.0208 48.1406-27.8177 50.3802-29.0781 52.6198-30.3385 55.375-30.9687 58.6458-30.9687 63.1875-30.9687 66.776-29.6406 69.4115-26.9844 72.0469-24.3281 73.3646-20.5417 73.3646-15.625 73.3646-15.375 73.3542-15.0365 73.3333-14.6094 73.3125-14.1823 73.2812-13.8542 73.2396-13.625L51.8333-13.625C51.875-12.1875 52.1406-10.8437 52.6302-9.59375 53.1198-8.34375 53.8958-7.33854 54.9583-6.57812 56.0208-5.81771 57.4167-5.4375 59.1458-5.4375 60.9375-5.4375 62.375-5.82812 63.4583-6.60937 64.5417-7.39062 65.0937-8.55208 65.1146-10.0937L73.2708-10.0937C73.1667-7.71875 72.5156-5.73958 71.3177-4.15625 70.1198-2.57292 68.4844-1.39062 66.4115-0.609375 64.3385 0.171875 61.9167 0.5625 59.1458 0.5625ZM51.9271-18.875 65.1458-18.875C65.0833-21 64.4531-22.5885 63.2552-23.6406 62.0573-24.6927 60.5208-25.2187 58.6458-25.2187 56.7292-25.2187 55.1615-24.6771 53.9427-23.5937 52.724-22.5104 52.0521-20.9375 51.9271-18.875ZM92.8854 0.5625C91.1979 0.5625 89.5417 0.40625 87.9167 0.09375 86.2917-0.21875 84.8229-0.755208 83.5104-1.51562 82.1979-2.27604 81.1562-3.3125 80.3854-4.625 79.6146-5.9375 79.2292-7.57292 79.2292-9.53125L86.9167-9.53125C86.9167-7.82292 87.5156-6.63542 88.7135-5.96875 89.9115-5.30208 91.3125-4.96875 92.9167-4.96875 94.5-4.96875 95.7292-5.22396 96.6042-5.73437 97.4792-6.24479 97.9167-7.10417 97.9167-8.3125 97.9167-9.45833 97.401-10.3125 96.3698-10.875 95.3385-11.4375 93.5312-12.0104 90.9479-12.5937 88.7812-13.1146 86.849-13.7448 85.151-14.4844 83.4531-15.224 82.125-16.2135 81.1667-17.4531 80.2083-18.6927 79.7292-20.3229 79.7292-22.3437 79.7292-23.9271 80.0938-25.2708 80.8229-26.375 81.5521-27.4792 82.526-28.3698 83.7448-29.0469 84.9635-29.724 86.3385-30.2187 87.8698-30.5312 89.401-30.8437 90.9688-31 92.5729-31 94.1354-31 95.6667-30.8437 97.1667-30.5312 98.6667-30.2187 100.021-29.6927 101.229-28.9531 102.437-28.2135 103.406-27.2187 104.135-25.9687 104.865-24.7187 105.229-23.1562 105.229-21.2812L97.5417-21.2812C97.5417-22.8437 97.0469-23.9271 96.0573-24.5312 95.0677-25.1354 93.9062-25.4375 92.5729-25.4375 91.1354-25.4375 90.0052-25.2292 89.1823-24.8125 88.3594-24.3958 87.9479-23.7083 87.9479-22.75 87.9479-22.1875 88.2083-21.6927 88.7292-21.2656 89.25-20.8385 90.0833-20.4427 91.2292-20.0781 92.375-19.7135 93.8854-19.3229 95.7604-18.9062 97.7396-18.4479 99.5104-17.8542 101.073-17.125 102.635-16.3958 103.875-15.4167 104.792-14.1875 105.708-12.9583 106.167-11.3646 106.167-9.40625 106.167-7.57292 105.797-6.02083 105.057-4.75 104.318-3.47917 103.328-2.45312 102.089-1.67187 100.849-0.890625 99.4323-0.322917 97.8385 0.03125 96.2448 0.385417 94.5937 0.5625 92.8854 0.5625ZM113.865 11.1875 113.865-30.5 121.677-30.5 122.146-25.8437C123.271-27.4896 124.625-28.7552 126.208-29.6406 127.792-30.526 129.667-30.9687 131.833-30.9687 134.208-30.9687 136.318-30.3958 138.161-29.25 140.005-28.1042 141.453-26.3646 142.505-24.0312 143.557-21.6979 144.083-18.7083 144.083-15.0625 144.083-11.5417 143.516-8.63542 142.38-6.34375 141.245-4.05208 139.708-2.33333 137.771-1.1875 135.833-0.0416667 133.656 0.541667 131.24 0.5625 129.26 0.583333 127.495 0.177083 125.943-0.65625 124.391-1.48958 123.125-2.65625 122.146-4.15625L122.146 11.1875ZM129.177-5.78125C131.26-5.78125 132.854-6.58333 133.958-8.1875 135.062-9.79167 135.615-12.1146 135.615-15.1562 135.615-18.3854 135.099-20.7812 134.068-22.3437 133.036-23.9062 131.625-24.6875 129.833-24.6875 127.958-24.6875 126.354-24.1615 125.021-23.1094 123.687-22.0573 122.729-20.9062 122.146-19.6562L122.146-10.6562C122.812-9.32292 123.745-8.17708 124.943-7.21875 126.141-6.26042 127.552-5.78125 129.177-5.78125ZM165.521 0.5C162.437 0.5 159.734-0.114583 157.411-1.34375 155.089-2.57292 153.292-4.35417 152.021-6.6875 150.75-9.02083 150.115-11.8437 150.115-15.1562 150.115-18.5312 150.75-21.401 152.021-23.7656 153.292-26.1302 155.089-27.9323 157.411-29.1719 159.734-30.4115 162.437-31.0312 165.521-31.0312 168.646-31.0312 171.37-30.4115 173.693-29.1719 176.016-27.9323 177.823-26.1302 179.115-23.7656 180.406-21.401 181.052-18.5312 181.052-15.1562 181.052-11.8437 180.406-9.02083 179.115-6.6875 177.823-4.35417 176.016-2.57292 173.693-1.34375 171.37-0.114583 168.646 0.5 165.521 0.5ZM165.521-5.8125C167.333-5.8125 168.755-6.23437 169.786-7.07812 170.818-7.92187 171.547-9.05208 171.974-10.4687 172.401-11.8854 172.615-13.4479 172.615-15.1562 172.615-16.9062 172.401-18.5 171.974-19.9375 171.547-21.375 170.818-22.5208 169.786-23.375 168.755-24.2292 167.333-24.6562 165.521-24.6562 163.75-24.6562 162.359-24.2292 161.349-23.375 160.339-22.5208 159.625-21.375 159.208-19.9375 158.792-18.5 158.583-16.9062 158.583-15.1562 158.583-13.4479 158.792-11.8854 159.208-10.4687 159.625-9.05208 160.339-7.92187 161.349-7.07812 162.359-6.23437 163.75-5.8125 165.521-5.8125ZM188.344 0 188.344-30.5 196.312-30.5 196.469-25.9375C197.49-27.25 198.833-28.4115 200.5-29.4219 202.167-30.4323 204.333-30.9375 207-30.9375 210.104-30.9375 212.51-29.9948 214.219-28.1094 215.927-26.224 216.781-23.4687 216.781-19.8437L216.781 0 208.562 0 208.562-18.7812C208.562-19.8854 208.406-20.8542 208.094-21.6875 207.781-22.5208 207.286-23.1667 206.609-23.625 205.932-24.0833 205.042-24.3125 203.938-24.3125 202.292-24.3125 200.88-23.9271 199.703-23.1562 198.526-22.3854 197.5-21.4479 196.625-20.3437L196.625 0ZM237.833 0.5625C236.146 0.5625 234.49 0.40625 232.865 0.09375 231.24-0.21875 229.771-0.755208 228.458-1.51562 227.146-2.27604 226.104-3.3125 225.333-4.625 224.562-5.9375 224.177-7.57292 224.177-9.53125L231.865-9.53125C231.865-7.82292 232.464-6.63542 233.661-5.96875 234.859-5.30208 236.26-4.96875 237.865-4.96875 239.448-4.96875 240.677-5.22396 241.552-5.73437 242.427-6.24479 242.865-7.10417 242.865-8.3125 242.865-9.45833 242.349-10.3125 241.318-10.875 240.286-11.4375 238.479-12.0104 235.896-12.5937 233.729-13.1146 231.797-13.7448 230.099-14.4844 228.401-15.224 227.073-16.2135 226.115-17.4531 225.156-18.6927 224.677-20.3229 224.677-22.3437 224.677-23.9271 225.042-25.2708 225.771-26.375 226.5-27.4792 227.474-28.3698 228.693-29.0469 229.911-29.724 231.286-30.2187 232.818-30.5312 234.349-30.8437 235.917-31 237.521-31 239.083-31 240.615-30.8437 242.115-30.5312 243.615-30.2187 244.969-29.6927 246.177-28.9531 247.385-28.2135 248.354-27.2187 249.083-25.9687 249.812-24.7187 250.177-23.1562 250.177-21.2812L242.49-21.2812C242.49-22.8437 241.995-23.9271 241.005-24.5312 240.016-25.1354 238.854-25.4375 237.521-25.4375 236.083-25.4375 234.953-25.2292 234.13-24.8125 233.307-24.3958 232.896-23.7083 232.896-22.75 232.896-22.1875 233.156-21.6927 233.677-21.2656 234.198-20.8385 235.031-20.4427 236.177-20.0781 237.323-19.7135 238.833-19.3229 240.708-18.9062 242.687-18.4479 244.458-17.8542 246.021-17.125 247.583-16.3958 248.823-15.4167 249.74-14.1875 250.656-12.9583 251.115-11.3646 251.115-9.40625 251.115-7.57292 250.745-6.02083 250.005-4.75 249.266-3.47917 248.276-2.45312 247.036-1.67187 245.797-0.890625 244.38-0.322917 242.786 0.03125 241.193 0.385417 239.542 0.5625 237.833 0.5625ZM258.812 0 258.812-30.5 267.094-30.5 267.094 0ZM262.969-34.5C261.448-34.5 260.286-34.8854 259.484-35.6562 258.682-36.4271 258.281-37.3854 258.281-38.5312 258.281-39.6979 258.682-40.6615 259.484-41.4219 260.286-42.1823 261.448-42.5625 262.969-42.5625 264.49-42.5625 265.651-42.1823 266.453-41.4219 267.255-40.6615 267.656-39.6979 267.656-38.5312 267.656-37.3854 267.255-36.4271 266.453-35.6562 265.651-34.8854 264.49-34.5 262.969-34.5ZM293.375 0.5625C291.146 0.5625 289.312 0.135417 287.875-0.71875 286.438-1.57292 285.208-2.75 284.188-4.25L283.844 0 276 0 276-42.0625 284.281-42.0625 284.281-26.125C285.365-27.6042 286.688-28.7865 288.25-29.6719 289.812-30.5573 291.74-31 294.031-31 296.365-31 298.448-30.4323 300.281-29.2969 302.115-28.1615 303.562-26.4323 304.625-24.1094 305.688-21.7865 306.219-18.8229 306.219-15.2187 306.219-11.6354 305.651-8.67708 304.516-6.34375 303.38-4.01042 301.844-2.27604 299.906-1.14062 297.969-0.00520837 295.792 0.5625 293.375 0.5625ZM291.312-5.78125C293.333-5.78125 294.911-6.57292 296.047-8.15625 297.182-9.73958 297.75-12.0417 297.75-15.0625 297.75-18.3333 297.214-20.7656 296.141-22.3594 295.068-23.9531 293.573-24.75 291.656-24.75 289.948-24.75 288.453-24.2396 287.172-23.2187 285.891-22.1979 284.927-21 284.281-19.625L284.281-10.6875C284.885-9.375 285.786-8.22917 286.984-7.25 288.182-6.27083 289.625-5.78125 291.312-5.78125ZM325.25 0C322.146 0 319.75-0.369792 318.062-1.10937 316.375-1.84896 315.198-2.99479 314.531-4.54687 313.865-6.09896 313.531-8.125 313.531-10.625L313.531-42.0625 321.781-42.0625 321.781-11.125C321.781-9.52083 322-8.34375 322.438-7.59375 322.875-6.84375 323.896-6.46875 325.5-6.46875L327.406-6.46875 327.406 0ZM346.75 0.5625C343.354 0.5625 340.5-0.0677084 338.188-1.32812 335.875-2.58854 334.125-4.40625 332.938-6.78125 331.75-9.15625 331.156-12.0104 331.156-15.3437 331.156-18.5729 331.734-21.3542 332.891-23.6875 334.047-26.0208 335.745-27.8177 337.984-29.0781 340.224-30.3385 342.979-30.9687 346.25-30.9687 350.792-30.9687 354.38-29.6406 357.016-26.9844 359.651-24.3281 360.969-20.5417 360.969-15.625 360.969-15.375 360.958-15.0365 360.938-14.6094 360.917-14.1823 360.885-13.8542 360.844-13.625L339.438-13.625C339.479-12.1875 339.745-10.8437 340.234-9.59375 340.724-8.34375 341.5-7.33854 342.562-6.57812 343.625-5.81771 345.021-5.4375 346.75-5.4375 348.542-5.4375 349.979-5.82812 351.062-6.60937 352.146-7.39062 352.698-8.55208 352.719-10.0937L360.875-10.0937C360.771-7.71875 360.12-5.73958 358.922-4.15625 357.724-2.57292 356.089-1.39062 354.016-0.609375 351.943 0.171875 349.521 0.5625 346.75 0.5625ZM339.531-18.875 352.75-18.875C352.688-21 352.057-22.5885 350.859-23.6406 349.661-24.6927 348.125-25.2187 346.25-25.2187 344.333-25.2187 342.766-24.6771 341.547-23.5937 340.328-22.5104 339.656-20.9375 339.531-18.875ZM377.073 0 392.198-42.0625 401.417-42.0625 416.573 0 407.417 0 404.417-9.25 389.229-9.25 386.135 0ZM391.323-16.5312 402.26-16.5312 396.792-33.375ZM421.542 0 421.542-42.0625 430.323-42.0625 430.323 0Z" transform="matrix(1 0 0 1 58.7495 98)"/></g></g><rect x="269" y="1562" width="4469" height="105" fill="#C1E5F5"/><text font-family="Aptos,Aptos_MSFontService,sans-serif" font-weight="700" font-size="64" transform="matrix(1 0 0 1 2285.75 1635)">Responsible AI</text></g></svg>