<?xml version="1.0" encoding="UTF-8" standalone="no"?>
<!DOCTYPE svg PUBLIC "-//W3C//DTD SVG 1.1//EN" "http://www.w3.org/Graphics/SVG/1.1/DTD/svg11.dtd">
<!-- Generated by Microsoft Visio, SVG Export analytical-ai-app.svg Page-1 -->
<svg xmlns="http://www.w3.org/2000/svg" xmlns:xlink="http://www.w3.org/1999/xlink" xmlns:ev="http://www.w3.org/2001/xml-events"
		xmlns:v="http://schemas.microsoft.com/visio/2003/SVGExtensions/" width="15.1979in" height="4.88542in"
		viewBox="0 0 1094.25 351.75" xml:space="preserve" color-interpolation-filters="sRGB" class="st50">
	<v:documentProperties v:langID="1033" v:viewMarkup="false"/>

	<style type="text/css">
	<![CDATA[
		.st1 {fill:#ffffff;stroke:none;stroke-linecap:round;stroke-linejoin:round;stroke-width:0.75}
		.st2 {visibility:visible}
		.st3 {fill:#000000;fill-opacity:0.4;filter:url(#filter_2.6666667461395);stroke:#000000;stroke-linecap:round;stroke-linejoin:round;stroke-opacity:0.4}
		.st4 {fill:#ffffff;stroke:#bfbfbf;stroke-linecap:round;stroke-linejoin:round;stroke-width:0.75}
		.st5 {fill:#000000;fill-opacity:0.4;filter:url(#filter_2.6666667461395);stroke:none;stroke-linecap:round;stroke-linejoin:round}
		.st6 {fill:#c1dcfc;stroke:none;stroke-linecap:round;stroke-linejoin:round;stroke-width:0.75}
		.st7 {marker-end:url(#mrkr4-23);stroke:#000000;stroke-linecap:round;stroke-linejoin:round;stroke-width:0.75}
		.st8 {fill:#000000;fill-opacity:1;stroke:#000000;stroke-opacity:1;stroke-width:0.29411764705882}
		.st9 {marker-start:url(#mrkr4-29);stroke:#000000;stroke-linecap:round;stroke-linejoin:round;stroke-width:0.75}
		.st10 {fill:#0070c0;stroke:none;stroke-linecap:butt;stroke-width:6.375}
		.st11 {fill:#107c10;stroke:#000000;stroke-linecap:round;stroke-linejoin:round;stroke-width:0.75}
		.st12 {fill:#ffffff;font-family:Calibri;font-size:1.00001em;font-weight:bold}
		.st13 {fill:none;stroke:none;stroke-linecap:round;stroke-linejoin:round;stroke-width:0.75}
		.st14 {fill:#000000;font-family:Calibri;font-size:1.00001em;font-style:italic}
		.st15 {fill:#0072c6;stroke:none;stroke-linecap:butt;stroke-width:0.25}
		.st16 {fill:#000000;stroke:#ffffff;stroke-linecap:butt;stroke-width:0.25}
		.st17 {fill:#0072c6;stroke:#ffffff;stroke-linecap:butt;stroke-width:0.25}
		.st18 {fill:#000000}
		.st19 {stroke:#ffffff;stroke-linecap:butt;stroke-width:0.25}
		.st20 {fill:none;stroke:#ffffff;stroke-linecap:round;stroke-linejoin:round;stroke-width:0.75}
		.st21 {fill:#000000;font-family:Calibri;font-size:1.00001em;font-weight:bold}
		.st22 {fill:#0078d4;stroke:none;stroke-linecap:butt;stroke-width:12.75}
		.st23 {fill:#50e6ff;stroke:none;stroke-linecap:butt;stroke-width:12.75}
		.st24 {fill:#ffffff;stroke:none;stroke-linecap:butt;stroke-width:12.75}
		.st25 {font-size:1em;font-style:italic;font-weight:normal}
		.st26 {fill:#0078d7;stroke:none;stroke-linecap:butt;stroke-width:12.75}
		.st27 {fill:url(#grad0-209);stroke:none;stroke-linecap:butt;stroke-width:0.75}
		.st28 {fill:#e8e8e8;stroke:none;stroke-linecap:butt;stroke-width:0.75}
		.st29 {fill:#50e6ff;stroke:none;stroke-linecap:butt;stroke-width:0.75}
		.st30 {fill:#198ab3;stroke:none;stroke-linecap:butt;stroke-width:0.75}
		.st31 {fill:url(#grad3-219);stroke:none;stroke-linecap:butt;stroke-width:0.75}
		.st32 {fill:url(#grad0-227);stroke:none;stroke-linecap:butt;stroke-width:0.75}
		.st33 {fill:#37c2b1;stroke:none;stroke-linecap:butt;stroke-width:0.75}
		.st34 {fill:#ffffff;stroke:none;stroke-linecap:butt;stroke-width:0.75}
		.st35 {fill:#258277;stroke:none;stroke-linecap:butt;stroke-width:0.75}
		.st36 {font-size:1em}
		.st37 {fill:none;stroke:none;stroke-width:0.5}
		.st38 {fill:url(#grad0-275);stroke:none;stroke-linecap:butt;stroke-width:0.75}
		.st39 {fill:#32bedd;stroke:none;stroke-linecap:butt;stroke-width:0.75}
		.st40 {fill:none;stroke:none;stroke-linecap:round;stroke-linejoin:round;stroke-width:0.5}
		.st41 {fill:url(#grad0-286);stroke:none;stroke-linecap:butt;stroke-width:12.75}
		.st42 {fill:#9cebff;stroke:none;stroke-linecap:butt;stroke-width:12.75}
		.st43 {fill:#f2f2f2;stroke:none;stroke-linecap:butt;stroke-width:12.75}
		.st44 {fill:url(#grad0-314);stroke:none;stroke-linecap:butt;stroke-width:0.75}
		.st45 {fill:#0078d4;stroke:none;stroke-linecap:butt;stroke-width:0.75}
		.st46 {fill:#5ea0ef;stroke:none;stroke-linecap:butt;stroke-width:0.75}
		.st47 {fill:#ffffff;fill-opacity:0.9;stroke:none;stroke-linecap:butt;stroke-width:0.75}
		.st48 {fill:url(#grad0-332);stroke:none;stroke-linecap:butt;stroke-width:0.75}
		.st49 {fill:#f2f2f2;stroke:none;stroke-linecap:butt;stroke-width:0.75}
		.st50 {fill:none;fill-rule:evenodd;font-size:12px;overflow:visible;stroke-linecap:square;stroke-miterlimit:3}
	]]>
	</style>

	<defs id="Patterns_And_Gradients">
		<linearGradient id="grad0-209" x1="0" y1="0" x2="1" y2="0" gradientTransform="rotate(0 0.5 0.5)">
			<stop offset="0" stop-color="#005ba1" stop-opacity="1"/>
			<stop offset="0.07" stop-color="#0060a9" stop-opacity="1"/>
			<stop offset="0.36" stop-color="#0071c8" stop-opacity="1"/>
			<stop offset="0.52" stop-color="#0078d4" stop-opacity="1"/>
			<stop offset="0.64" stop-color="#0074cd" stop-opacity="1"/>
			<stop offset="0.82" stop-color="#006abb" stop-opacity="1"/>
			<stop offset="1" stop-color="#005ba1" stop-opacity="1"/>
		</linearGradient>
		<radialGradient id="grad3-219" cx="0.5" cy="0.5" r="0.73">
			<stop offset="0" stop-color="#f2f2f2" stop-opacity="1"/>
			<stop offset="0.58" stop-color="#eeeeee" stop-opacity="1"/>
			<stop offset="1" stop-color="#e6e6e6" stop-opacity="1"/>
		</radialGradient>
		<linearGradient id="grad0-227" x1="0" y1="0" x2="1" y2="0" gradientTransform="rotate(-90 0.5 0.5)">
			<stop offset="0" stop-color="#b3b3b3" stop-opacity="1"/>
			<stop offset="0.26" stop-color="#c1c1c1" stop-opacity="1"/>
			<stop offset="1" stop-color="#e6e6e6" stop-opacity="1"/>
		</linearGradient>
		<linearGradient id="grad0-275" x1="0" y1="0" x2="1" y2="0" gradientTransform="rotate(0 0.5 0.5)">
			<stop offset="0" stop-color="#50c7e8" stop-opacity="1"/>
			<stop offset="0.25" stop-color="#4cc3e4" stop-opacity="1"/>
			<stop offset="0.51" stop-color="#41b6da" stop-opacity="1"/>
			<stop offset="0.77" stop-color="#2fa2c8" stop-opacity="1"/>
			<stop offset="1" stop-color="#1989b2" stop-opacity="1"/>
		</linearGradient>
		<linearGradient id="grad0-286" x1="0" y1="0" x2="1" y2="0" gradientTransform="rotate(-90 0.5 0.5)">
			<stop offset="0" stop-color="#0078d4" stop-opacity="1"/>
			<stop offset="0.16" stop-color="#1380da" stop-opacity="1"/>
			<stop offset="0.53" stop-color="#3c91e5" stop-opacity="1"/>
			<stop offset="0.82" stop-color="#559cec" stop-opacity="1"/>
			<stop offset="1" stop-color="#5ea0ef" stop-opacity="1"/>
		</linearGradient>
		<linearGradient id="grad0-314" x1="0" y1="0" x2="1" y2="0" gradientTransform="rotate(-90 0.5 0.5)">
			<stop offset="0" stop-color="#32bedd" stop-opacity="1"/>
			<stop offset="0.775" stop-color="#32d4f5" stop-opacity="1"/>
		</linearGradient>
		<linearGradient id="grad0-332" x1="0" y1="0" x2="1" y2="0" gradientTransform="rotate(-0.0087329700482809 0.5 0.5)">
			<stop offset="0" stop-color="#005ba1" stop-opacity="1"/>
			<stop offset="0.07" stop-color="#0060a9" stop-opacity="1"/>
			<stop offset="0.36" stop-color="#0071c8" stop-opacity="1"/>
			<stop offset="0.52" stop-color="#0078d4" stop-opacity="1"/>
			<stop offset="0.64" stop-color="#0074cd" stop-opacity="1"/>
			<stop offset="0.82" stop-color="#006abb" stop-opacity="1"/>
			<stop offset="1" stop-color="#005ba1" stop-opacity="1"/>
		</linearGradient>
	</defs>
	<defs id="Markers">
		<g id="lend4">
			<path d="M 2 1 L 0 0 L 2 -1 L 2 1 " style="stroke:none"/>
		</g>
		<marker id="mrkr4-23" class="st8" v:arrowType="4" v:arrowSize="1" v:setback="6.8" refX="-6.8" orient="auto"
				markerUnits="strokeWidth" overflow="visible">
			<use xlink:href="#lend4" transform="scale(-3.4,-3.4) "/>
		</marker>
		<marker id="mrkr4-29" class="st8" v:arrowType="4" v:arrowSize="1" v:setback="6.32" refX="6.32" orient="auto"
				markerUnits="strokeWidth" overflow="visible">
			<use xlink:href="#lend4" transform="scale(3.4) "/>
		</marker>
	</defs>
	<defs id="Filters">
		<filter id="filter_2.6666667461395">
			<feGaussianBlur stdDeviation="2.6666667461395"/>
		</filter>
	</defs>
	<g v:mID="0" v:index="1" v:groupContext="foregroundPage">
		<v:userDefs>
			<v:ud v:nameU="visNavType" v:val="VT0(1):26"/>
		</v:userDefs>
		<title>Page-1</title>
		<v:pageProperties v:drawingScale="1" v:pageScale="1" v:drawingUnits="19" v:shadowOffsetX="9" v:shadowOffsetY="-9"/>
		<g id="shape2253-1" v:mID="2253" v:groupContext="shape" transform="translate(0.375,-0.375)">
			<title>Sheet.2253</title>
			<v:userDefs>
				<v:ud v:nameU="visNavOrder" v:val="VT0(93000):26"/>
			</v:userDefs>
			<rect x="0" y="0.75001" width="1093.5" height="351" class="st1"/>
		</g>
		<g id="shape2170-3" v:mID="2170" v:groupContext="shape" transform="translate(594.375,-166.875)">
			<title>Sheet.2170</title>
			<v:userDefs>
				<v:ud v:nameU="visNavOrder" v:val="VT0(61000):26"/>
			</v:userDefs>
			<g id="shadow2170-4" v:groupContext="shadow" v:shadowOffsetX="2.12132" v:shadowOffsetY="-2.12132" v:shadowType="1"
					transform="matrix(1,0,0,1,2.12132,2.12132)" class="st2">
				<rect x="0" y="189.75" width="472.5" height="162" rx="13.5" ry="13.5" class="st3"/>
			</g>
			<rect x="0" y="189.75" width="472.5" height="162" rx="13.5" ry="13.5" class="st4"/>
		</g>
		<g id="shape2173-8" v:mID="2173" v:groupContext="shape" transform="translate(612.938,-180.937)">
			<title>Sheet.2173</title>
			<v:userDefs>
				<v:ud v:nameU="visNavOrder" v:val="VT0(39000):26"/>
			</v:userDefs>
			<g id="shadow2173-9" v:groupContext="shadow" v:shadowOffsetX="2.12132" v:shadowOffsetY="-2.12132" v:shadowType="1"
					transform="matrix(1,0,0,1,2.12132,2.12132)" class="st2">
				<rect x="0" y="311.25" width="179.438" height="40.5" rx="13.5" ry="13.5" class="st5"/>
			</g>
			<rect x="0" y="311.25" width="179.438" height="40.5" rx="13.5" ry="13.5" class="st6"/>
		</g>
		<g id="shape2117-13" v:mID="2117" v:groupContext="shape" transform="translate(311.437,-167.859)">
			<title>Sheet.2117</title>
			<v:userDefs>
				<v:ud v:nameU="visNavOrder" v:val="VT0(37000):26"/>
			</v:userDefs>
			<g id="shadow2117-14" v:groupContext="shadow" v:shadowOffsetX="2.12132" v:shadowOffsetY="-2.12132" v:shadowType="1"
					transform="matrix(1,0,0,1,2.12132,2.12132)" class="st2">
				<rect x="0" y="191.719" width="231.188" height="160.031" rx="13.5" ry="13.5" class="st3"/>
			</g>
			<rect x="0" y="191.719" width="231.188" height="160.031" rx="13.5" ry="13.5" class="st4"/>
		</g>
		<g id="shape2003-18" v:mID="2003" v:groupContext="shape" transform="translate(-162.375,259.125) rotate(-90)">
			<title>Sheet.2003</title>
			<v:userDefs>
				<v:ud v:nameU="visNavOrder" v:val="VT0(4000):26"/>
			</v:userDefs>
			<path d="M0 351.75 L63.52 351.75" class="st7"/>
		</g>
		<g id="shape2004-24" v:mID="2004" v:groupContext="shape" transform="translate(-146.336,261.375) rotate(-90)">
			<title>Sheet.2004</title>
			<v:userDefs>
				<v:ud v:nameU="visNavOrder" v:val="VT0(5000):26"/>
			</v:userDefs>
			<path d="M4.74 351.75 L5.1 351.75 L70.01 351.75" class="st9"/>
		</g>
		<g id="group2006-30" transform="translate(17.25,-189.608)" v:mID="2006" v:groupContext="group">
			<v:userDefs>
				<v:ud v:nameU="visNavOrder" v:val="VT0(7000):26"/>
			</v:userDefs>
			<title>Sheet.2006</title>
			<g id="group2007-31" v:mID="2007" v:groupContext="group">
				<title>Sheet.2007</title>
				<g id="shape2008-32" v:mID="2008" v:groupContext="shape" transform="translate(7.02121,-15.7977)">
					<title>Sheet.2008</title>
					<ellipse cx="7.02121" cy="344.729" rx="7.02121" ry="7.02121" class="st10"/>
				</g>
				<g id="shape2009-34" v:mID="2009" v:groupContext="shape">
					<title>Sheet.2009</title>
					<path d="M28.08 351.75 L28.08 344.73 C28.08 343.68 27.56 342.62 26.68 341.92 C24.75 340.34 22.29 339.29 19.83
								 338.59 C18.08 338.06 16.15 337.71 14.04 337.71 C12.11 337.71 10.18 338.06 8.25 338.59 C5.79 339.29
								 3.34 340.52 1.4 341.92 C0.53 342.62 0 343.68 0 344.73 L0 351.75 L28.08 351.75 Z" class="st10"/>
				</g>
			</g>
		</g>
		<g id="shape2103-36" v:mID="2103" v:groupContext="shape" transform="translate(183.75,-232.125)">
			<title>Sheet.2103</title>
			<desc>1</desc>
			<v:userDefs>
				<v:ud v:nameU="visNavOrder" v:val="VT0(33000):26"/>
			</v:userDefs>
			<v:textBlock v:margins="rect(4,4,4,4)"/>
			<v:textRect cx="14.625" cy="337.125" width="29.25" height="29.25"/>
			<ellipse cx="14.625" cy="337.125" rx="14.625" ry="14.625" class="st11"/>
			<text x="11.58" y="340.73" class="st12" v:langID="1033"><v:paragraph v:horizAlign="1"/><v:tabList/>1</text>		</g>
		<g id="shape2119-39" v:mID="2119" v:groupContext="shape" transform="translate(340.406,-181.219)">
			<title>Sheet.2119</title>
			<v:userDefs>
				<v:ud v:nameU="visNavOrder" v:val="VT0(39000):26"/>
			</v:userDefs>
			<g id="shadow2119-40" v:groupContext="shadow" v:shadowOffsetX="2.12132" v:shadowOffsetY="-2.12132" v:shadowType="1"
					transform="matrix(1,0,0,1,2.12132,2.12132)" class="st2">
				<rect x="0" y="311.25" width="179.438" height="40.5" rx="13.5" ry="13.5" class="st5"/>
			</g>
			<rect x="0" y="311.25" width="179.438" height="40.5" rx="13.5" ry="13.5" class="st6"/>
		</g>
		<g id="shape2012-44" v:mID="2012" v:groupContext="shape" transform="translate(354.687,-189.375)">
			<title>Sheet.2012</title>
			<desc>Analytical AI endpoint</desc>
			<v:userDefs>
				<v:ud v:nameU="visNavOrder" v:prompt="" v:val="VT0(10000):26"/>
			</v:userDefs>
			<v:textBlock v:margins="rect(4,4,4,4)"/>
			<v:textRect cx="79.344" cy="339.516" width="158.69" height="24.4687"/>
			<rect x="0" y="327.281" width="158.688" height="24.4687" rx="12.2343" ry="12.2343" class="st13"/>
			<text x="25.93" y="343.12" class="st14" v:langID="1033"><v:paragraph v:horizAlign="1"/><v:tabList/>Analytical AI endpoint</text>		</g>
		<g id="group2036-47" transform="translate(346.035,-189.875)" v:mID="2036" v:groupContext="group">
			<v:userDefs>
				<v:ud v:nameU="visNavOrder" v:val="VT0(14000):26"/>
			</v:userDefs>
			<title>Sheet.2036</title>
			<g id="shape2037-48" v:mID="2037" v:groupContext="shape">
				<title>Sheet.2037</title>
				<path d="M10.69 327.78 C4.78 327.78 0 332.5 0 338.33 L0 351.75 L17.74 351.75 L17.74 344.5 L21.37 344.5 L21.37 338.33
							 C21.37 335.53 20.24 332.85 18.24 330.87 C16.24 328.89 13.52 327.78 10.69 327.78 Z" class="st15"/>
			</g>
			<g id="group2038-50" transform="translate(2.66143,-5.65745)" v:mID="2038" v:groupContext="group">
				<title>Sheet.2038</title>
				<g id="shape2039-51" v:mID="2039" v:groupContext="shape" transform="translate(2.90116,-3.16188)">
					<title>Sheet.2039</title>
					<ellipse cx="0.697394" cy="351.065" rx="0.697394" ry="0.685439" class="st16"/>
				</g>
				<g id="shape2040-53" v:mID="2040" v:groupContext="shape" transform="translate(9.09404,-9.52277)">
					<title>Sheet.2040</title>
					<ellipse cx="0.697394" cy="351.065" rx="0.697394" ry="0.685439" class="st16"/>
				</g>
				<g id="shape2041-55" v:mID="2041" v:groupContext="shape" transform="translate(0,-6.781)">
					<title>Sheet.2041</title>
					<ellipse cx="0.697394" cy="351.065" rx="0.697394" ry="0.685439" class="st16"/>
				</g>
				<g id="shape2042-57" v:mID="2042" v:groupContext="shape" transform="translate(1.61796,-11.2775)">
					<title>Sheet.2042</title>
					<ellipse cx="0.697394" cy="351.065" rx="0.697394" ry="0.685439" class="st16"/>
				</g>
				<g id="shape2043-59" v:mID="2043" v:groupContext="shape" transform="translate(5.24442,-13.1967)">
					<title>Sheet.2043</title>
					<ellipse cx="0.697394" cy="351.065" rx="0.697394" ry="0.685439" class="st16"/>
				</g>
				<g id="shape2044-61" v:mID="2044" v:groupContext="shape" transform="translate(11.1862,-12.6758)">
					<title>Sheet.2044</title>
					<ellipse cx="0.697394" cy="351.065" rx="0.697394" ry="0.685439" class="st16"/>
				</g>
				<g id="shape2045-63" v:mID="2045" v:groupContext="shape" transform="translate(14.2269,-9.46793)">
					<title>Sheet.2045</title>
					<ellipse cx="0.697394" cy="351.065" rx="0.697394" ry="0.685439" class="st16"/>
				</g>
				<g id="shape2046-65" v:mID="2046" v:groupContext="shape" transform="translate(13.2226,-5.84881)">
					<title>Sheet.2046</title>
					<ellipse cx="0.697394" cy="351.065" rx="0.697394" ry="0.685439" class="st16"/>
				</g>
				<g id="shape2047-67" v:mID="2047" v:groupContext="shape" transform="translate(10.2657,-4.53276)">
					<title>Sheet.2047</title>
					<ellipse cx="0.697394" cy="351.065" rx="0.697394" ry="0.685439" class="st16"/>
				</g>
				<g id="shape2048-69" v:mID="2048" v:groupContext="shape" transform="translate(5.74654,-5.51979)">
					<title>Sheet.2048</title>
					<ellipse cx="0.697394" cy="351.065" rx="0.697394" ry="0.685439" class="st16"/>
				</g>
				<g id="shape2049-71" v:mID="2049" v:groupContext="shape" transform="translate(4.96545,-8.91957)">
					<title>Sheet.2049</title>
					<ellipse cx="0.697394" cy="351.065" rx="0.697394" ry="0.685439" class="st16"/>
				</g>
				<g id="shape2050-73" v:mID="2050" v:groupContext="shape" transform="translate(7.69925,-2.44902)">
					<title>Sheet.2050</title>
					<ellipse cx="0.697394" cy="351.065" rx="0.697394" ry="0.685439" class="st17"/>
				</g>
				<g id="shape2051-75" v:mID="2051" v:groupContext="shape" transform="translate(8.98245,-3.51831)">
					<title>Sheet.2051</title>
					<path d="M0 351.75 L1.62 350.49 L0 351.75 Z" class="st18"/>
					<path d="M0 351.75 L1.62 350.49" class="st19"/>
				</g>
				<g id="shape2052-78" v:mID="2052" v:groupContext="shape" transform="translate(11.6604,-5.2182)">
					<title>Sheet.2052</title>
					<path d="M0 351.75 L1.73 350.82 L0 351.75 Z" class="st18"/>
					<path d="M0 351.75 L1.73 350.82" class="st19"/>
				</g>
				<g id="shape2053-81" v:mID="2053" v:groupContext="shape" transform="translate(14.3942,-7.13743)">
					<title>Sheet.2053</title>
					<path d="M0 351.75 L0.53 349.42 L0 351.75 Z" class="st18"/>
					<path d="M0 351.75 L0.53 349.42" class="st19"/>
				</g>
				<g id="shape2054-84" v:mID="2054" v:groupContext="shape" transform="translate(1.11583,-4.39567)">
					<title>Sheet.2054</title>
					<path d="M0 349.39 L2.12 351.75 L0 349.39 Z" class="st18"/>
					<path d="M0 349.39 L2.12 351.75" class="st19"/>
				</g>
				<g id="shape2055-87" v:mID="2055" v:groupContext="shape" transform="translate(0.697394,-8.15188)">
					<title>Sheet.2055</title>
					<path d="M0 351.75 L1.26 348.43 L0 351.75 Z" class="st18"/>
					<path d="M0 351.75 L1.26 348.43" class="st19"/>
				</g>
				<g id="shape2056-90" v:mID="2056" v:groupContext="shape" transform="translate(2.78958,-12.4564)">
					<title>Sheet.2056</title>
					<path d="M0 351.75 L2.45 350.71 L0 351.75 Z" class="st18"/>
					<path d="M0 351.75 L2.45 350.71" class="st19"/>
				</g>
				<g id="shape2057-93" v:mID="2057" v:groupContext="shape" transform="translate(6.6392,-13.3886)">
					<title>Sheet.2057</title>
					<path d="M0 351.26 L4.57 351.75 L0 351.26 Z" class="st18"/>
					<path d="M0 351.26 L4.57 351.75" class="st19"/>
				</g>
				<g id="shape2058-96" v:mID="2058" v:groupContext="shape" transform="translate(12.3857,-10.6469)">
					<title>Sheet.2058</title>
					<path d="M0 349.45 L2.4 351.75 L0 349.45 Z" class="st18"/>
					<path d="M0 349.45 L2.4 351.75" class="st19"/>
				</g>
				<g id="shape2059-99" v:mID="2059" v:groupContext="shape" transform="translate(10.4888,-10.1534)">
					<title>Sheet.2059</title>
					<path d="M3.74 351.75 L0 351.7 L3.74 351.75 Z" class="st18"/>
					<path d="M3.74 351.75 L0 351.7" class="st19"/>
				</g>
				<g id="shape2060-102" v:mID="2060" v:groupContext="shape" transform="translate(10.0425,-10.8662)">
					<title>Sheet.2060</title>
					<path d="M0 351.75 L1.39 349.78 L0 351.75 Z" class="st18"/>
					<path d="M0 351.75 L1.39 349.78" class="st19"/>
				</g>
				<g id="shape2061-105" v:mID="2061" v:groupContext="shape" transform="translate(5.66285,-10.2905)">
					<title>Sheet.2061</title>
					<path d="M0 351.75 L0.59 348.65 L0 351.75 Z" class="st18"/>
					<path d="M0 351.75 L0.59 348.65" class="st19"/>
				</g>
				<g id="shape2062-108" v:mID="2062" v:groupContext="shape" transform="translate(6.36024,-9.60501)">
					<title>Sheet.2062</title>
					<path d="M0 351.75 L2.79 351.37 L0 351.75 Z" class="st18"/>
					<path d="M0 351.75 L2.79 351.37" class="st19"/>
				</g>
				<g id="shape2063-111" v:mID="2063" v:groupContext="shape" transform="translate(2.95695,-9.60501)">
					<title>Sheet.2063</title>
					<path d="M2.01 351.75 L0 349.83 L2.01 351.75 Z" class="st18"/>
					<path d="M2.01 351.75 L0 349.83" class="st19"/>
				</g>
				<g id="shape2064-114" v:mID="2064" v:groupContext="shape" transform="translate(9.9867,-5.82139)">
					<title>Sheet.2064</title>
					<path d="M0 348.02 L0.67 351.75 L0 348.02 Z" class="st18"/>
					<path d="M0 348.02 L0.67 351.75" class="st19"/>
				</g>
				<g id="shape2065-117" v:mID="2065" v:groupContext="shape" transform="translate(7.14133,-5.2182)">
					<title>Sheet.2065</title>
					<path d="M0 350.76 L3.12 351.75 L0 350.76 Z" class="st18"/>
					<path d="M0 350.76 L3.12 351.75" class="st19"/>
				</g>
				<g id="shape2066-120" v:mID="2066" v:groupContext="shape" transform="translate(6.91816,-6.86326)">
					<title>Sheet.2066</title>
					<path d="M0 351.75 L2.57 348.9 L0 351.75 Z" class="st18"/>
					<path d="M0 351.75 L2.57 348.9" class="st19"/>
				</g>
				<g id="shape2067-123" v:mID="2067" v:groupContext="shape" transform="translate(5.9697,-6.69875)">
					<title>Sheet.2067</title>
					<path d="M0.22 351.75 L0 349.45 L0.22 351.75 Z" class="st18"/>
					<path d="M0.22 351.75 L0 349.45" class="st19"/>
				</g>
				<g id="shape2068-126" v:mID="2068" v:groupContext="shape" transform="translate(1.39479,-7.68578)">
					<title>Sheet.2068</title>
					<path d="M3.79 350.16 L0 351.75 L3.79 350.16 Z" class="st18"/>
					<path d="M3.79 350.16 L0 351.75" class="st19"/>
				</g>
				<g id="shape2069-129" v:mID="2069" v:groupContext="shape" transform="translate(1.22741,-6.20523)">
					<title>Sheet.2069</title>
					<path d="M0 350.87 L4.52 351.75 L0 350.87 Z" class="st18"/>
					<path d="M0 350.87 L4.52 351.75" class="st19"/>
				</g>
				<g id="shape2070-132" v:mID="2070" v:groupContext="shape" transform="translate(10.3214,-7.0826)">
					<title>Sheet.2070</title>
					<path d="M3.01 351.75 L0 349.01 L3.01 351.75 Z" class="st18"/>
					<path d="M3.01 351.75 L0 349.01" class="st19"/>
				</g>
				<g id="shape2071-135" v:mID="2071" v:groupContext="shape" transform="translate(3.59856,-0.685439)">
					<title>Sheet.2071</title>
					<path d="M0 351.75 L0 349.27 L0 351.75 Z" class="st18"/>
					<path d="M0 351.75 L0 349.27" class="st19"/>
				</g>
				<g id="shape2072-138" v:mID="2072" v:groupContext="shape" transform="translate(4.18437,-4.34084)">
					<title>Sheet.2072</title>
					<path d="M0 351.75 L1.79 350.38 L0 351.75 Z" class="st18"/>
					<path d="M0 351.75 L1.79 350.38" class="st19"/>
				</g>
				<g id="shape2073-141" v:mID="2073" v:groupContext="shape" transform="translate(6.44394,-3.40864)">
					<title>Sheet.2073</title>
					<path d="M0 349.64 L1.53 351.75 L0 349.64 Z" class="st18"/>
					<path d="M0 349.64 L1.53 351.75" class="st19"/>
				</g>
				<g id="shape2074-144" v:mID="2074" v:groupContext="shape" transform="translate(2.90116,5.68434E-14)">
					<title>Sheet.2074</title>
					<ellipse cx="0.697394" cy="351.065" rx="0.697394" ry="0.685439" class="st17"/>
				</g>
			</g>
		</g>
		<g id="group2130-146" transform="translate(148.749,-155.605)" v:mID="2130" v:groupContext="group">
			<v:userDefs>
				<v:ud v:nameU="visNavOrder" v:val="VT0(48000):26"/>
			</v:userDefs>
			<title>Sheet.2130</title>
			<g id="shape2000-147" v:mID="2000" v:groupContext="shape">
				<title>Sheet.2000</title>
				<desc>Application</desc>
				<v:userDefs>
					<v:ud v:nameU="visNavOrder" v:prompt="" v:val="VT0(1000):26"/>
				</v:userDefs>
				<v:textBlock v:margins="rect(4,4,4,4)"/>
				<v:textRect cx="49.0004" cy="336" width="98.01" height="31.5"/>
				<rect x="0" y="320.25" width="98.0008" height="31.5" rx="13.5" ry="13.5" class="st20"/>
				<text x="20.51" y="339.6" class="st21" v:langID="1033"><v:paragraph v:horizAlign="1"/><v:tabList/>Application</text>			</g>
			<g id="group2025-150" transform="translate(24.2504,-27)" v:mID="2025" v:groupContext="group">
				<v:userDefs>
					<v:ud v:nameU="visNavOrder" v:val="VT0(13000):26"/>
				</v:userDefs>
				<title>Sheet.2025</title>
				<g id="shape2026-151" v:mID="2026" v:groupContext="shape">
					<title>Sheet.2026</title>
					<path d="M0 351.75 L51.25 351.75 L51.25 312.29 L0 312.29 L0 351.75 Z" class="st22"/>
				</g>
				<g id="shape2027-153" v:mID="2027" v:groupContext="shape" transform="translate(0,-35.2)">
					<title>Sheet.2027</title>
					<path d="M0 351.75 L51.23 351.75 L51.23 346.41 L0 346.41 L0 351.75 Z" class="st23"/>
				</g>
				<g id="shape2028-155" v:mID="2028" v:groupContext="shape" transform="translate(6.68053,-36.459)">
					<title>Sheet.2028</title>
					<path d="M1.3 351.75 C2.02 351.75 2.61 351.17 2.61 350.45 C2.61 349.73 2.02 349.14 1.3 349.14 C0.58 349.14 0
								 349.73 0 350.45 C0 351.17 0.58 351.75 1.3 351.75 Z" class="st24"/>
				</g>
				<g id="shape2029-157" v:mID="2029" v:groupContext="shape" transform="translate(2.63437,-36.459)">
					<title>Sheet.2029</title>
					<path d="M1.3 351.75 C2.02 351.75 2.61 351.17 2.61 350.45 C2.61 349.73 2.02 349.14 1.3 349.14 C0.58 349.14 0
								 349.73 0 350.45 C0 351.17 0.58 351.75 1.3 351.75 Z" class="st24"/>
				</g>
				<g id="shape2030-159" v:mID="2030" v:groupContext="shape" transform="translate(10.8164,-36.459)">
					<title>Sheet.2030</title>
					<path d="M1.3 351.75 C2.02 351.75 2.61 351.17 2.61 350.45 C2.61 349.73 2.02 349.14 1.3 349.14 C0.58 349.14 0
								 349.73 0 350.45 C0 351.17 0.58 351.75 1.3 351.75 Z" class="st24"/>
				</g>
				<g id="shape2031-161" v:mID="2031" v:groupContext="shape" transform="translate(35.6413,-10.7351)">
					<title>Sheet.2031</title>
					<path d="M2 335.37 L0.07 337.29 L6.3 343.52 L0 349.83 L1.92 351.75 L10.15 343.52 L2 335.37 Z" class="st23"/>
				</g>
				<g id="shape2032-163" v:mID="2032" v:groupContext="shape" transform="translate(5.28697,-10.7351)">
					<title>Sheet.2032</title>
					<path d="M8.16 351.75 L10.09 349.83 L3.86 343.59 L10.16 337.29 L8.24 335.37 L0 343.59 L8.16 351.75 Z"
							class="st23"/>
				</g>
				<g id="shape2033-165" v:mID="2033" v:groupContext="shape" transform="translate(30.9752,-16.1832)">
					<title>Sheet.2033</title>
					<path d="M2.72 351.75 C4.22 351.75 5.43 350.53 5.43 349.03 C5.43 347.53 4.22 346.32 2.72 346.32 C1.22 346.32
								 0 347.53 0 349.03 C0 350.53 1.22 351.75 2.72 351.75 Z" class="st24"/>
				</g>
				<g id="shape2034-167" v:mID="2034" v:groupContext="shape" transform="translate(22.7928,-16.1832)">
					<title>Sheet.2034</title>
					<path d="M2.72 351.75 C4.22 351.75 5.43 350.53 5.43 349.03 C5.43 347.53 4.22 346.32 2.72 346.32 C1.22 346.32
								 0 347.53 0 349.03 C0 350.53 1.22 351.75 2.72 351.75 Z" class="st24"/>
				</g>
				<g id="shape2035-169" v:mID="2035" v:groupContext="shape" transform="translate(14.7905,-16.1832)">
					<title>Sheet.2035</title>
					<path d="M2.72 351.75 C4.22 351.75 5.43 350.53 5.43 349.03 C5.43 347.53 4.22 346.32 2.72 346.32 C1.22 346.32
								 0 347.53 0 349.03 C0 350.53 1.22 351.75 2.72 351.75 Z" class="st24"/>
				</g>
			</g>
		</g>
		<g id="shape2010-171" v:mID="2010" v:groupContext="shape" transform="translate(137.946,-9.37501)">
			<title>Sheet.2010</title>
			<desc>Data processing (optional)</desc>
			<v:userDefs>
				<v:ud v:nameU="visNavOrder" v:prompt="" v:val="VT0(8000):26"/>
			</v:userDefs>
			<v:textBlock v:margins="rect(4,4,4,4)"/>
			<v:textRect cx="56.8754" cy="331.5" width="113.76" height="40.5"/>
			<rect x="0" y="311.25" width="113.751" height="40.5" rx="13.5" ry="13.5" class="st20"/>
			<text x="17.3" y="327.9" class="st21" v:langID="1033"><v:paragraph v:horizAlign="1"/><v:tabList/>Data processing <tspan
						x="33.06" dy="1.2em" class="st25">(optional)</tspan></text>		</g>
		<g id="shape2002-175" v:mID="2002" v:groupContext="shape" transform="translate(643.875,-189.937)">
			<title>Sheet.2002</title>
			<desc>Training or fine-tuning data</desc>
			<v:userDefs>
				<v:ud v:nameU="visNavOrder" v:prompt="" v:val="VT0(3000):26"/>
			</v:userDefs>
			<v:textBlock v:margins="rect(4,4,4,4)"/>
			<v:textRect cx="72.4922" cy="341.625" width="144.99" height="20.25"/>
			<rect x="0" y="331.5" width="144.984" height="20.25" rx="10.125" ry="10.125" class="st13"/>
			<text x="5.23" y="345.23" class="st14" v:langID="1033"><v:paragraph v:horizAlign="1"/><v:tabList/>Training or fine-tuning data</text>		</g>
		<g id="group2013-178" transform="translate(625.997,-188.812)" v:mID="2013" v:groupContext="group">
			<v:userDefs>
				<v:ud v:nameU="visNavOrder" v:val="VT0(11000):26"/>
			</v:userDefs>
			<title>Sheet.2013</title>
			<g id="shape2014-179" v:mID="2014" v:groupContext="shape" transform="translate(0.000117858,1.7053E-13)">
				<title>Sheet.2014</title>
				<path d="M17.83 342.18 L0 342.18 L0 347.53 C0 349.86 4 351.75 8.94 351.75 C13.88 351.75 17.87 349.86 17.87 347.53
							 C17.87 347.53 17.87 342.22 17.83 342.18 Z" class="st26"/>
			</g>
			<g id="shape2015-181" v:mID="2015" v:groupContext="shape" transform="translate(0.000117858,-1.62154)">
				<title>Sheet.2015</title>
				<path d="M17.87 342.85 L17.88 347.53 C17.88 349.86 13.88 351.75 8.94 351.75 C4 351.75 0 349.86 0 347.53 L0 342.85
							 L17.87 342.85 Z" class="st23"/>
			</g>
			<g id="shape2016-183" v:mID="2016" v:groupContext="shape" transform="translate(0.000117858,-5.77879)">
				<title>Sheet.2016</title>
				<path d="M17.83 342.18 L0 342.18 L0 347.53 C0 349.86 4 351.75 8.94 351.75 C13.88 351.75 17.88 349.86 17.88 347.53
							 C17.87 347.53 17.87 342.22 17.83 342.18 Z" class="st26"/>
			</g>
			<g id="shape2017-185" v:mID="2017" v:groupContext="shape" transform="translate(8.59313E-14,-10.0071)">
				<title>Sheet.2017</title>
				<path d="M17.87 343.1 L0 343.1 L0 347.53 C0 349.86 4 351.75 8.94 351.75 C13.88 351.75 17.87 349.86 17.87 347.53 C17.87
							 347.53 17.87 343.13 17.87 343.1 Z" class="st23"/>
			</g>
			<g id="shape2018-187" v:mID="2018" v:groupContext="shape" transform="translate(-8.69305E-14,-14.2635)">
				<title>Sheet.2018</title>
				<path d="M8.94 351.75 C13.88 351.75 17.88 349.88 17.88 347.58 C17.88 345.28 13.88 343.41 8.94 343.41 C4 343.41 0
							 345.28 0 347.58 C0 349.88 4 351.75 8.94 351.75 Z" class="st26"/>
			</g>
		</g>
		<g id="shape2166-189" v:mID="2166" v:groupContext="shape" transform="translate(58.5623,-210.448)">
			<title>Sheet.2166</title>
			<v:userDefs>
				<v:ud v:nameU="visNavOrder" v:val="VT0(57000):26"/>
			</v:userDefs>
			<path d="M0 351.75 L102.9 351.75" class="st7"/>
		</g>
		<g id="shape2167-194" v:mID="2167" v:groupContext="shape" transform="translate(58.5623,-194.409)">
			<title>Sheet.2167</title>
			<v:userDefs>
				<v:ud v:nameU="visNavOrder" v:val="VT0(58000):26"/>
			</v:userDefs>
			<path d="M4.74 351.75 L5.1 351.75 L107.14 351.75" class="st9"/>
		</g>
		<g id="shape2168-199" v:mID="2168" v:groupContext="shape" transform="translate(71.8351,-212.338)">
			<title>Sheet.2168</title>
			<desc>Incoming data</desc>
			<v:userDefs>
				<v:ud v:nameU="visNavOrder" v:prompt="" v:val="VT0(59000):26"/>
			</v:userDefs>
			<v:textBlock v:margins="rect(4,4,4,4)"/>
			<v:textRect cx="41.0399" cy="339.195" width="82.08" height="25.11"/>
			<rect x="0" y="326.64" width="82.0798" height="25.11" rx="12.555" ry="12.555" class="st13"/>
			<text x="5.95" y="342.8" class="st14" v:langID="1033"><v:paragraph v:horizAlign="1"/><v:tabList/>Incoming data</text>		</g>
		<g id="shape2171-202" v:mID="2171" v:groupContext="shape" transform="translate(594.375,-302.82)">
			<title>Sheet.2171</title>
			<desc>Example data sources</desc>
			<v:userDefs>
				<v:ud v:nameU="visNavOrder" v:prompt="" v:val="VT0(62000):26"/>
			</v:userDefs>
			<v:textBlock v:margins="rect(4,4,4,4)"/>
			<v:textRect cx="231.75" cy="339.195" width="463.5" height="25.11"/>
			<rect x="0" y="326.64" width="463.5" height="25.11" rx="12.555" ry="12.555" class="st13"/>
			<text x="177.68" y="342.8" class="st21" v:langID="1033"><v:paragraph v:horizAlign="1"/><v:tabList/>Example data sources</text>		</g>
		<g id="group2175-205" transform="translate(776,-265.974)" v:mID="2175" v:groupContext="group">
			<v:userDefs>
				<v:ud v:nameU="visNavOrder" v:val="VT0(65000):26"/>
			</v:userDefs>
			<title>Icon-databases-130</title>
			<g id="shape2176-206" v:mID="2176" v:groupContext="shape">
				<title>Sheet.2176</title>
				<path d="M13.01 326.66 C5.83 326.66 0 324.62 0 321.94 L0 347.04 C0 349.62 5.73 351.71 12.83 351.75 L13.01 351.75
							 C20.2 351.75 26.03 349.72 26.03 347.04 L26.03 321.94 C26.03 324.56 20.2 326.66 13.01 326.66 Z"
						class="st27"/>
			</g>
			<g id="shape2177-210" v:mID="2177" v:groupContext="shape" transform="translate(0,-25.0948)">
				<title>Sheet.2177</title>
				<path d="M26.03 347.04 C26.03 349.66 20.2 351.75 13.01 351.75 C5.83 351.75 0 349.72 0 347.04 C0 344.36 5.83 342.33
							 13.01 342.33 C20.2 342.33 26.03 344.36 26.03 347.04 Z" class="st28"/>
			</g>
			<g id="shape2178-212" v:mID="2178" v:groupContext="shape" transform="translate(3.02518,-27.186)">
				<title>Sheet.2178</title>
				<path d="M19.98 348.75 C19.98 350.41 15.49 351.75 9.99 351.75 C4.49 351.75 0 350.41 0 348.75 C0 347.08 4.49 345.76
							 9.99 345.76 C15.49 345.76 19.98 347.1 19.98 348.75 Z" class="st29"/>
			</g>
			<g id="shape2179-214" v:mID="2179" v:groupContext="shape" transform="translate(5.11642,-27.186)">
				<title>Sheet.2179</title>
				<path d="M7.9 349.5 A23.4502 23.4502 -180 0 0 0 350.65 A23.1863 23.1863 -180 0 0 7.9 351.75 A22.6381 22.6381 -180
							 0 0 15.8 350.57 A24.039 24.039 -180 0 0 7.9 349.5 Z" class="st30"/>
			</g>
			<g id="shape2180-216" v:mID="2180" v:groupContext="shape" transform="translate(3.24852,-8.771)">
				<title>Sheet.2180</title>
				<path d="M17.68 348.14 L17.68 341.23 L15.86 341.23 L15.86 349.62 L20.85 349.62 L20.85 348.14 L17.68 348.14 ZM3.19
							 344.75 A3.71549 3.71549 0 0 1 2.15 344.12 a0.893342 0.893342 0 0 1 -0.243639 -0.649704 a0.69031 0.69031
							 0 0 1 0.304549 -0.609097 A1.38062 1.38062 0 0 1 3.07 342.61 A3.28912 3.28912 0 0 1 5.1 343.2 L5.1 341.46
							 A5.23824 5.23824 -180 0 0 3.07 341.13 A3.32973 3.32973 -180 0 0 0.85 341.82 A2.19275 2.19275 -180 0
							 0 -0 343.63 C0 344.66 0.65 345.48 2.03 346.09 A5.84733 5.84733 0 0 1 3.29 346.82 a0.852736 0.852736
							 0 0 1 0.304549 0.649704 a0.771523 0.771523 0 0 1 -0.324852 0.6294 A1.64456 1.64456 0 0 1 2.36 348.32
							 A3.37034 3.37034 0 0 1 0.14 347.47 L0.14 349.35 A4.4058 4.4058 -180 0 0 2.31 349.84 A3.81701 3.81701
							 -180 0 0 4.71 349.17 A2.19275 2.19275 -180 0 0 5.38 347.32 A2.13184 2.13184 -180 0 0 4.87 345.9 A4.91338
							 4.91338 -180 0 0 3.19 344.75 ZM13.83 347.97 A4.75096 4.75096 -180 0 0 14.5 345.42 A4.71035 4.71035 -180
							 0 0 13.83 343.26 A3.67489 3.67489 -180 0 0 12.41 341.74 A4.06065 4.06065 -180 0 0 10.37 341.21 A4.28398
							 4.28398 -180 0 0 8.18 341.76 A3.7764 3.7764 -180 0 0 6.7 343.26 A4.9946 4.9946 -180 0 0 6.17 345.58
							 A4.58853 4.58853 -180 0 0 6.66 347.61 A3.57337 3.57337 -180 0 0 8.06 349.11 A4.18247 4.18247 -180 0
							 0 10.09 349.72 L11.84 351.75 L14.29 351.75 L11.8 349.52 A3.63428 3.63428 -180 0 0 13.83 347.97 ZM11.8
							 347.47 A1.9085 1.9085 0 0 1 10.25 348.18 A1.8679 1.8679 0 0 1 8.71 347.45 A3.08609 3.08609 0 0 1 8.12
							 345.42 A3.1064 3.1064 0 0 1 8.71 343.39 A2.03032 2.03032 0 0 1 10.29 342.63 A1.76638 1.76638 0 0 1 11.82
							 343.39 A3.28912 3.28912 0 0 1 12.36 345.42 A2.96427 2.96427 0 0 1 11.8 347.47 Z" class="st31"/>
			</g>
		</g>
		<g id="shape2181-220" v:mID="2181" v:groupContext="shape" transform="translate(733.25,-245.625)">
			<title>Sheet.2181</title>
			<desc>Azure SQL Database</desc>
			<v:userDefs>
				<v:ud v:nameU="visNavOrder" v:prompt="" v:val="VT0(66000):26"/>
			</v:userDefs>
			<v:textBlock v:margins="rect(4,4,4,4)"/>
			<v:textRect cx="54.8752" cy="341.625" width="109.76" height="20.25"/>
			<rect x="0" y="331.5" width="109.75" height="20.25" rx="10.125" ry="10.125" class="st13"/>
			<text x="4.9" y="345.23" class="st21" v:langID="1033"><v:paragraph v:horizAlign="1"/><v:tabList/>Azure SQL Database</text>		</g>
		<g id="group2193-223" transform="translate(644.562,-267.98)" v:mID="2193" v:groupContext="group">
			<v:userDefs>
				<v:ud v:nameU="visNavOrder" v:val="VT0(68000):26"/>
			</v:userDefs>
			<title>Icon-storage-86</title>
			<g id="shape2194-224" v:mID="2194" v:groupContext="shape">
				<title>Sheet.2194</title>
				<path d="M0.96 332.48 L33.56 332.48 L33.56 350.66 A1.09318 1.09318 0 0 1 32.47 351.75 L2.05 351.75 A1.09318 1.09318
							 0 0 1 0.96 350.66 L0.96 332.48 Z" class="st32"/>
			</g>
			<g id="shape2195-228" v:mID="2195" v:groupContext="shape" transform="translate(0,-19.2745)">
				<title>Sheet.2195</title>
				<path d="M2.05 344.81 L32.47 344.81 A1.09318 1.09318 0 0 1 33.56 345.9 L33.56 351.75 L0.96 351.75 L0.96 345.88 A1.09318
							 1.09318 0 0 1 2.05 344.81 Z" class="st33"/>
			</g>
			<g id="shape2196-230" v:mID="2196" v:groupContext="shape" transform="translate(4.89054,-13.4442)">
				<title>Sheet.2196</title>
				<path d="M0.5 348.03 L24.22 348.03 a0.517822 0.517822 0 0 1 0.498643 0.517822 L24.72 351.23 a0.517822 0.517822 0
							 0 1 -0.498643 0.517822 L0.5 351.75 a0.517822 0.517822 0 0 1 -0.498643 -0.517822 L0 348.55 a0.517822
							 0.517822 0 0 1 0.498643 -0.517822 Z" class="st34"/>
			</g>
			<g id="shape2197-232" v:mID="2197" v:groupContext="shape" transform="translate(4.90972,-8.07418)">
				<title>Sheet.2197</title>
				<path d="M0.5 348.01 L24.22 348.01 a0.517822 0.517822 0 0 1 0.498643 0.517822 L24.72 351.23 a0.517822 0.517822 0
							 0 1 -0.498643 0.517822 L0.5 351.75 a0.517822 0.517822 0 0 1 -0.498643 -0.517822 L0 348.62 a0.517822
							 0.517822 0 0 1 0.498643 -0.613715 Z" class="st33"/>
			</g>
			<g id="shape2198-234" v:mID="2198" v:groupContext="shape" transform="translate(4.90972,-2.66582)">
				<title>Sheet.2198</title>
				<path d="M0.5 348.01 L24.22 348.01 a0.517822 0.517822 0 0 1 0.498643 0.517822 L24.72 351.23 a0.517822 0.517822 0
							 0 1 -0.498643 0.517822 L0.5 351.75 a0.517822 0.517822 0 0 1 -0.498643 -0.517822 L0 348.53 a0.517822
							 0.517822 0 0 1 0.498643 -0.517822 Z" class="st35"/>
			</g>
		</g>
		<g id="shape2199-236" v:mID="2199" v:groupContext="shape" transform="translate(598.187,-241.125)">
			<title>Sheet.2199</title>
			<desc>Azure Blob Storage</desc>
			<v:userDefs>
				<v:ud v:nameU="visNavOrder" v:prompt="" v:val="VT0(69000):26"/>
			</v:userDefs>
			<v:textBlock v:margins="rect(4,4,4,4)"/>
			<v:textRect cx="62.4689" cy="338.883" width="124.94" height="25.7344"/>
			<rect x="0" y="326.016" width="124.938" height="25.7344" rx="12.8672" ry="12.8672" class="st13"/>
			<text x="14.98" y="342.48" class="st21" v:langID="1033"><v:paragraph v:horizAlign="1"/><v:tabList/>Azure Blob Storage</text>		</g>
		<g id="shape2200-239" v:mID="2200" v:groupContext="shape" transform="translate(522.375,-200.625)">
			<title>Sheet.2200</title>
			<v:userDefs>
				<v:ud v:nameU="visNavOrder" v:val="VT0(70000):26"/>
			</v:userDefs>
			<path d="M4.74 351.75 L5.1 351.75 L90 351.75" class="st9"/>
		</g>
		<g id="shape2201-244" v:mID="2201" v:groupContext="shape" transform="translate(219.75,-81.375)">
			<title>Sheet.2201</title>
			<desc>2</desc>
			<v:userDefs>
				<v:ud v:nameU="visNavOrder" v:val="VT0(71000):26"/>
			</v:userDefs>
			<v:textBlock v:margins="rect(4,4,4,4)"/>
			<v:textRect cx="14.625" cy="337.125" width="29.25" height="29.25"/>
			<ellipse cx="14.625" cy="337.125" rx="14.625" ry="14.625" class="st11"/>
			<text x="11.58" y="340.73" class="st12" v:langID="1033"><v:paragraph v:horizAlign="1"/><v:tabList/>2</text>		</g>
		<g id="group2204-247" transform="translate(175.197,-45.4378)" v:mID="2204" v:groupContext="group">
			<v:userDefs>
				<v:ud v:nameU="visNavOrder" v:val="VT0(74000):26"/>
			</v:userDefs>
			<title>Sheet.2204</title>
			<g id="shape2205-248" v:mID="2205" v:groupContext="shape">
				<title>Sheet.2205</title>
				<path d="M21.34 337.94 C17.2 337.94 13.81 334.55 13.81 330.41 C13.81 326.26 17.2 322.87 21.34 322.87 C25.49 322.87
							 28.88 326.26 28.88 330.41 C28.88 334.55 25.49 337.94 21.34 337.94 ZM38.29 325.7 C37.92 324.32 37.35
							 323 36.66 321.81 L38.23 317.1 L34.65 313.52 L29.94 315.09 C28.69 314.4 27.37 313.83 25.99 313.46 L23.85
							 309.06 L18.83 309.06 L16.64 313.46 C15.25 313.83 13.94 314.4 12.74 315.09 L8.04 313.52 L4.46 317.1 L6.03
							 321.81 C5.34 323.06 4.77 324.38 4.39 325.76 L0 327.9 L0 332.92 L4.39 335.11 C4.77 336.5 5.34 337.81
							 6.03 339.01 L4.46 343.71 L8.04 347.29 L12.74 345.72 C14 346.41 15.32 346.98 16.7 347.36 L18.9 351.75
							 L23.92 351.75 L26.11 347.36 C27.5 346.98 28.81 346.41 30.01 345.72 L34.71 347.29 L38.29 343.71 L36.72
							 339.01 C37.41 337.75 37.98 336.43 38.36 335.05 L42.75 332.85 L42.75 327.83 L38.29 325.7 Z"
						class="st10"/>
			</g>
		</g>
		<g id="shape2206-250" v:mID="2206" v:groupContext="shape" transform="translate(52.125,-167.518)">
			<title>Sheet.2206</title>
			<desc>AI generated response</desc>
			<v:userDefs>
				<v:ud v:nameU="visNavOrder" v:prompt="" v:val="VT0(75000):26"/>
			</v:userDefs>
			<v:textBlock v:margins="rect(4,4,4,4)"/>
			<v:textRect cx="59.625" cy="339.195" width="119.25" height="25.11"/>
			<rect x="0" y="326.64" width="119.25" height="25.11" rx="12.555" ry="12.555" class="st13"/>
			<text x="28.28" y="335.6" class="st14" v:langID="1033"><v:paragraph v:horizAlign="1"/><v:tabList/>AI generated <v:newlineChar/><tspan
						x="37.92" dy="1.2em" class="st36">response</tspan></text>		</g>
		<g id="shape2118-254" v:mID="2118" v:groupContext="shape" transform="translate(312,-301.093)">
			<title>Sheet.2118</title>
			<desc>Non-generative AI platform</desc>
			<v:userDefs>
				<v:ud v:nameU="visNavOrder" v:prompt="" v:val="VT0(38000):26"/>
			</v:userDefs>
			<v:textBlock v:margins="rect(4,4,4,4)"/>
			<v:textRect cx="114.188" cy="339.195" width="228.38" height="25.11"/>
			<rect x="0" y="326.64" width="228.375" height="25.11" rx="12.555" ry="12.555" class="st13"/>
			<text x="45.52" y="342.8" class="st21" v:langID="1033"><v:paragraph v:horizAlign="1"/><v:tabList/>Non-generative AI platform</text>		</g>
		<g id="group2214-257" transform="translate(882.375,-190.588)" v:mID="2214" v:groupContext="group">
			<v:userDefs>
				<v:ud v:nameU="visNavOrder" v:val="VT0(79000):26"/>
			</v:userDefs>
			<title>Sheet.2214</title>
			<g id="shape2215-258" v:mID="2215" v:groupContext="shape" transform="translate(0,-6.90307)">
				<title>Sheet.2215</title>
				<path d="M40.54 344.56 C40.68 343.91 40.76 343.24 40.76 342.56 C40.76 337.48 36.64 333.37 31.57 333.37 C30.86 333.37
							 30.17 333.45 29.52 333.61 C27.42 330.3 23.73 328.11 19.53 328.11 C13 328.11 7.72 333.4 7.72 339.92 C7.72
							 340.09 7.72 340.25 7.72 340.4 C7.13 340.2 6.49 340.09 5.82 340.09 C2.6 340.09 0 342.69 0 345.91 C0 348.93
							 2.3 351.41 5.24 351.7 L31.56 351.75 C35.12 351.75 38.2 349.73 39.73 346.78 C40.24 345.72 40.29 345.49
							 40.54 344.56 Z" class="st23"/>
			</g>
			<g id="shape2216-260" v:mID="2216" v:groupContext="shape" transform="translate(12.5444,-5.68434E-14)">
				<title>Sheet.2216</title>
				<path d="M7.76 330.61 L0 338.36 L2.25 340.61 L6.21 336.65 L6.2 351.75 L9.36 351.75 L9.36 336.65 L13.32 340.61 L15.57
							 338.36 L7.8 330.57 L7.76 330.61 Z" class="st22"/>
			</g>
		</g>
		<g id="shape2217-262" v:mID="2217" v:groupContext="shape" transform="translate(838.437,-173.625)">
			<title>Sheet.2217</title>
			<desc>Local upload</desc>
			<v:userDefs>
				<v:ud v:nameU="visNavOrder" v:prompt="" v:val="VT0(80000):26"/>
			</v:userDefs>
			<v:textBlock v:margins="rect(4,4,4,4)"/>
			<v:textRect cx="62.4689" cy="341.625" width="124.94" height="20.25"/>
			<rect x="0" y="331.5" width="124.938" height="20.25" rx="10.125" ry="10.125" class="st13"/>
			<text x="31.08" y="345.23" class="st21" v:langID="1033"><v:paragraph v:horizAlign="1"/><v:tabList/>Local upload</text>		</g>
		<g id="group2218-265" transform="translate(410.485,-237.047)" v:mID="2218" v:groupContext="group">
			<v:userDefs>
				<v:ud v:nameU="visNavOrder" v:val="VT0(81000):26"/>
			</v:userDefs>
			<title>Sheet.2218</title>
			<g id="shape2219-266" v:mID="2219" v:groupContext="shape" transform="translate(-5.59552E-14,-6.04463)">
				<title>Sheet.2219</title>
				<desc>Azure Machine Learning</desc>
				<v:userDefs>
					<v:ud v:nameU="visNavOrder" v:prompt="" v:val="VT0(4000):26"/>
				</v:userDefs>
				<v:textBlock v:margins="rect(4,4,4,4)"/>
				<v:textRect cx="64.3826" cy="341.75" width="128.77" height="20"/>
				<rect x="0" y="331.75" width="128.765" height="20" class="st37"/>
				<text x="4.21" y="345.35" class="st21" v:langID="1033"><v:paragraph v:horizAlign="1"/><v:tabList/>Azure Machine Learning</text>			</g>
			<g id="group2220-269" transform="translate(49.5,-25.1225)" v:mID="2220" v:groupContext="group">
				<v:userDefs>
					<v:ud v:nameU="visNavOrder" v:val="VT0(82000):26"/>
				</v:userDefs>
				<title>Icon-166Artboard 1</title>
				<g id="shape2221-270" v:mID="2221" v:groupContext="shape">
					<title>bc892891-989d-4c43-80d3-d2b4546</title>
					<path d="M27.21 351.75 L2.04 351.75 L0 344.16 L29.25 344.16 L27.21 351.75 Z" class="st30"/>
				</g>
				<g id="shape2222-272" v:mID="2222" v:groupContext="shape">
					<title>Sheet.2222</title>
					<path d="M10.74 320.28 L10.74 332.13 L0 344.16 L2.04 351.75 L18.51 332.13 L18.51 320.28 L10.74 320.28 Z"
							class="st38"/>
				</g>
				<g id="shape2223-276" v:mID="2223" v:groupContext="shape" transform="translate(15.7334,1.7053E-13)">
					<title>e6be01d6-345d-4df4-bbdb-151aa8e</title>
					<path d="M11.48 351.75 L0 339.9 L4.81 334.35 L13.51 344.16 L11.48 351.75 Z" class="st39"/>
				</g>
			</g>
		</g>
		<g id="group2224-278" transform="translate(308.406,-243.234)" v:mID="2224" v:groupContext="group">
			<v:userDefs>
				<v:ud v:nameU="visNavOrder" v:val="VT0(82000):26"/>
			</v:userDefs>
			<title>Sheet.2224</title>
			<g id="shape2111-279" v:mID="2111" v:groupContext="shape">
				<title>Sheet.2111</title>
				<desc>Azure AI Services</desc>
				<v:userDefs>
					<v:ud v:nameU="visNavOrder" v:prompt="" v:val="VT0(30000):26"/>
				</v:userDefs>
				<v:textBlock v:margins="rect(4,4,4,4)"/>
				<v:textRect cx="52.4219" cy="342.288" width="104.85" height="18.9232"/>
				<rect x="0" y="332.827" width="104.844" height="18.9232" class="st40"/>
				<text x="9.85" y="345.89" class="st21" v:langID="1033"><v:paragraph v:horizAlign="1"/><v:tabList/>Azure AI Services</text>			</g>
			<g id="group2207-282" transform="translate(29.9219,-19.3104)" v:mID="2207" v:groupContext="group">
				<v:userDefs>
					<v:ud v:nameU="visNavOrder" v:val="VT0(76000):26"/>
				</v:userDefs>
				<title>Sheet.2207</title>
				<g id="shape2208-283" v:mID="2208" v:groupContext="shape">
					<title>Sheet.2208</title>
					<path d="M41.25 342.48 C41.2 340.28 40.36 338.17 38.88 336.53 C37.41 334.9 35.39 333.86 33.21 333.59 C33.08 330.51
								 31.74 327.62 29.49 325.52 C27.23 323.43 24.25 322.31 21.17 322.4 C18.69 322.35 16.25 323.06 14.19
								 324.45 C12.13 325.84 10.55 327.83 9.67 330.15 C7.04 330.47 4.61 331.73 2.84 333.69 C1.06 335.66
								 0.05 338.2 0 340.85 C0.11 343.82 1.4 346.63 3.58 348.65 C5.76 350.67 8.65 351.75 11.62 351.64 L12.63
								 351.64 L31.44 351.64 C31.61 351.67 31.78 351.67 31.95 351.64 C34.38 351.62 36.72 350.65 38.45 348.94
								 C40.19 347.23 41.19 344.91 41.25 342.48 Z" class="st41"/>
				</g>
				<g id="shape2209-287" v:mID="2209" v:groupContext="shape" transform="translate(5.4718,-0.100614)">
					<title>Sheet.2209</title>
					<path d="M6.95 340.31 L4.93 340.31 C4.79 339.72 4.44 339.19 3.94 338.84 C3.44 338.48 2.83 338.32 2.22 338.39
								 C1.61 338.46 1.04 338.75 0.63 339.21 C0.23 339.67 0 340.26 0 340.88 C0 341.49 0.23 342.08 0.63 342.54
								 C1.04 343 1.61 343.29 2.22 343.36 C2.83 343.43 3.44 343.27 3.94 342.92 C4.44 342.56 4.79 342.04
								 4.93 341.44 L6.95 341.44 C7.07 341.44 7.19 341.49 7.27 341.57 C7.36 341.66 7.41 341.77 7.41 341.9
								 L7.41 351.75 L8.53 351.75 L8.53 341.9 C8.53 341.48 8.36 341.07 8.07 340.78 C7.77 340.48 7.37 340.31
								 6.95 340.31 ZM2.48 342.33 C2.19 342.33 1.91 342.25 1.66 342.08 C1.42 341.92 1.24 341.69 1.12 341.43
								 C1.01 341.16 0.98 340.86 1.04 340.58 C1.1 340.29 1.24 340.03 1.44 339.83 C1.65 339.62 1.91 339.48
								 2.19 339.43 C2.48 339.37 2.77 339.4 3.04 339.51 C3.31 339.62 3.54 339.81 3.7 340.05 C3.86 340.29
								 3.95 340.57 3.95 340.86 C3.95 341.25 3.79 341.63 3.52 341.9 C3.24 342.18 2.87 342.33 2.48 342.33
								 Z" class="st42"/>
				</g>
				<g id="shape2210-289" v:mID="2210" v:groupContext="shape" transform="translate(13.75,-6.18768)">
					<title>Sheet.2210</title>
					<path d="M6.74 346.9 L6.74 344.61 C6.74 344.18 6.57 343.77 6.27 343.47 C5.97 343.17 5.56 343 5.13 343 L1.58 343
								 C1.46 343 1.34 342.95 1.26 342.87 C1.17 342.78 1.12 342.67 1.12 342.54 L1.12 330.38 L0.6 330.65
								 L0 330.97 L0 342.43 C0 342.85 0.17 343.25 0.46 343.55 C0.76 343.84 1.16 344.01 1.58 344.01 L5.13
								 344.01 C5.2 344.01 5.26 344.02 5.32 344.05 C5.38 344.07 5.43 344.11 5.47 344.15 C5.52 344.2 5.55
								 344.25 5.58 344.31 C5.6 344.37 5.61 344.43 5.61 344.49 L5.61 346.78 C5.06 346.91 4.57 347.21 4.21
								 347.65 C3.86 348.1 3.66 348.65 3.67 349.21 C3.67 349.68 3.8 350.14 4.05 350.54 C4.3 350.94 4.65
								 351.26 5.08 351.46 C5.5 351.67 5.97 351.75 6.44 351.7 C6.9 351.65 7.35 351.47 7.71 351.17 C8.08
								 350.88 8.36 350.49 8.52 350.05 C8.68 349.61 8.7 349.13 8.6 348.67 C8.5 348.21 8.27 347.79 7.94 347.46
								 C7.61 347.13 7.19 346.89 6.74 346.78 L6.74 346.9 ZM6.16 350.79 C5.87 350.79 5.59 350.71 5.35 350.55
								 C5.11 350.39 4.92 350.16 4.81 349.89 C4.7 349.62 4.67 349.33 4.73 349.04 C4.78 348.76 4.92 348.5
								 5.13 348.29 C5.33 348.09 5.59 347.95 5.88 347.89 C6.16 347.83 6.46 347.86 6.73 347.97 C6.99 348.08
								 7.22 348.27 7.38 348.51 C7.55 348.75 7.63 349.04 7.63 349.33 C7.63 349.52 7.59 349.71 7.52 349.89
								 C7.45 350.07 7.34 350.23 7.2 350.37 C7.07 350.5 6.9 350.61 6.73 350.68 C6.55 350.76 6.36 350.79
								 6.16 350.79 Z" class="st43"/>
				</g>
				<g id="shape2211-291" v:mID="2211" v:groupContext="shape" transform="translate(18.7525,-0.103753)">
					<title>Sheet.2211</title>
					<path d="M14.54 335.98 C13.93 335.99 13.34 336.21 12.89 336.62 C12.43 337.03 12.14 337.59 12.07 338.19 C12 338.8
								 12.16 339.41 12.51 339.91 C12.86 340.41 13.38 340.77 13.97 340.91 L13.97 341.37 C13.97 341.43 13.96
								 341.49 13.94 341.55 C13.91 341.61 13.88 341.66 13.83 341.71 C13.79 341.75 13.73 341.79 13.67 341.81
								 C13.62 341.84 13.55 341.85 13.49 341.85 L8.91 341.85 L8.91 333.78 C8.91 333.58 8.87 333.37 8.79
								 333.18 C8.71 332.99 8.59 332.81 8.44 332.67 C8.3 332.52 8.12 332.4 7.93 332.32 C7.74 332.24 7.53
								 332.2 7.33 332.2 L4.97 332.2 C4.84 331.65 4.54 331.15 4.1 330.8 C3.65 330.44 3.1 330.25 2.54 330.25
								 C2.07 330.25 1.61 330.39 1.21 330.63 C0.81 330.88 0.49 331.24 0.29 331.66 C0.08 332.09 0 332.56
								 0.05 333.02 C0.1 333.49 0.28 333.93 0.58 334.3 C0.87 334.67 1.26 334.95 1.7 335.11 C2.14 335.26
								 2.62 335.29 3.08 335.19 C3.53 335.09 3.96 334.86 4.29 334.53 C4.62 334.2 4.86 333.78 4.97 333.32
								 L7.42 333.32 C7.54 333.32 7.66 333.37 7.74 333.46 C7.83 333.55 7.88 333.66 7.88 333.78 L7.88 351.75
								 L9 351.75 L9 342.97 L13.58 342.97 C14.01 342.97 14.42 342.8 14.72 342.5 C15.02 342.2 15.19 341.79
								 15.19 341.37 L15.19 340.91 C15.74 340.79 16.23 340.48 16.59 340.04 C16.94 339.6 17.13 339.05 17.13
								 338.48 C17.13 338.15 17.07 337.81 16.94 337.5 C16.8 337.19 16.61 336.91 16.37 336.68 C16.13 336.45
								 15.84 336.27 15.53 336.15 C15.22 336.03 14.88 335.97 14.54 335.98 ZM2.54 334.22 C2.25 334.22 1.96
								 334.13 1.72 333.97 C1.48 333.81 1.29 333.58 1.18 333.31 C1.07 333.05 1.04 332.75 1.1 332.47 C1.15
								 332.18 1.29 331.92 1.5 331.71 C1.7 331.51 1.97 331.37 2.25 331.31 C2.53 331.26 2.83 331.29 3.1 331.4
								 C3.37 331.51 3.59 331.7 3.76 331.94 C3.92 332.18 4 332.46 4 332.75 C4 332.94 3.97 333.14 3.89 333.31
								 C3.82 333.49 3.71 333.65 3.57 333.79 C3.44 333.93 3.28 334.03 3.1 334.11 C2.92 334.18 2.73 334.22
								 2.54 334.22 ZM14.54 339.95 C14.25 339.95 13.97 339.87 13.72 339.71 C13.48 339.55 13.29 339.33 13.17
								 339.06 C13.06 338.79 13.03 338.5 13.08 338.21 C13.13 337.92 13.27 337.66 13.48 337.45 C13.68 337.25
								 13.94 337.1 14.23 337.04 C14.51 336.99 14.81 337.01 15.08 337.12 C15.35 337.23 15.58 337.42 15.74
								 337.66 C15.9 337.91 15.99 338.19 15.99 338.48 C15.99 338.87 15.84 339.24 15.57 339.51 C15.3 339.78
								 14.93 339.94 14.54 339.95 Z" class="st42"/>
				</g>
			</g>
		</g>
		<g id="shape2225-293" v:mID="2225" v:groupContext="shape" transform="translate(318.75,-293.859)">
			<title>Sheet.2225</title>
			<desc>3</desc>
			<v:userDefs>
				<v:ud v:nameU="visNavOrder" v:val="VT0(83000):26"/>
			</v:userDefs>
			<v:textBlock v:margins="rect(4,4,4,4)"/>
			<v:textRect cx="14.625" cy="337.125" width="29.25" height="29.25"/>
			<ellipse cx="14.625" cy="337.125" rx="14.625" ry="14.625" class="st11"/>
			<text x="11.58" y="340.73" class="st12" v:langID="1033"><v:paragraph v:horizAlign="1"/><v:tabList/>3</text>		</g>
		<g id="shape2226-296" v:mID="2226" v:groupContext="shape" transform="translate(601.125,-300.75)">
			<title>Sheet.2226</title>
			<desc>4</desc>
			<v:userDefs>
				<v:ud v:nameU="visNavOrder" v:val="VT0(84000):26"/>
			</v:userDefs>
			<v:textBlock v:margins="rect(4,4,4,4)"/>
			<v:textRect cx="14.625" cy="337.125" width="29.25" height="29.25"/>
			<ellipse cx="14.625" cy="337.125" rx="14.625" ry="14.625" class="st11"/>
			<text x="11.58" y="340.73" class="st12" v:langID="1033"><v:paragraph v:horizAlign="1"/><v:tabList/>4</text>		</g>
		<g id="shape2227-299" v:mID="2227" v:groupContext="shape" transform="translate(229.875,-210.894)">
			<title>Sheet.2227</title>
			<v:userDefs>
				<v:ud v:nameU="visNavOrder" v:val="VT0(85000):26"/>
			</v:userDefs>
			<path d="M0 351.75 L102.9 351.75" class="st7"/>
		</g>
		<g id="shape2228-304" v:mID="2228" v:groupContext="shape" transform="translate(229.875,-194.856)">
			<title>Sheet.2228</title>
			<v:userDefs>
				<v:ud v:nameU="visNavOrder" v:val="VT0(86000):26"/>
			</v:userDefs>
			<path d="M4.74 351.75 L5.1 351.75 L107.14 351.75" class="st9"/>
		</g>
		<g id="group2229-309" transform="translate(990.375,-193.242)" v:mID="2229" v:groupContext="group">
			<v:userDefs>
				<v:ud v:nameU="visNavOrder" v:val="VT0(87000):26"/>
			</v:userDefs>
			<title>MsPortalFx.base.images-1</title>
			<g id="group2230-310" v:mID="2230" v:groupContext="group">
				<title>Sheet.2230</title>
				<g id="shape2231-311" v:mID="2231" v:groupContext="shape">
					<title>Sheet.2231</title>
					<path d="M1.16 329.46 L37.12 329.46 L37.12 350.55 A1.20163 1.20163 0 0 1 35.92 351.75 L2.36 351.75 A1.20163 1.20163
								 0 0 1 1.16 350.55 L1.16 329.46 Z" class="st44"/>
				</g>
				<g id="shape2232-315" v:mID="2232" v:groupContext="shape" transform="translate(0,-22.2971)">
					<title>Sheet.2232</title>
					<path d="M2.36 345.13 L35.92 345.13 A1.20163 1.20163 0 0 1 37.12 346.33 L37.12 351.75 L1.16 351.75 L1.16 346.33
								 A1.20163 1.20163 0 0 1 2.36 345.13 Z" class="st45"/>
				</g>
				<g id="shape2233-317" v:mID="2233" v:groupContext="shape" transform="translate(9.63004,-3.21356)">
					<title>Sheet.2233</title>
					<path d="M19.93 336.93 L11.03 336.93 a0.476398 0.476398 0 0 1 -0.265847 -0.0808175 L8.21 335.16 a0.465764 0.465764
								 -180 0 0 -0.26372 -0.0808175 L0.48 335.08 a0.476398 0.476398 -180 0 0 -0.476398 0.476398 L0 351.28
								 a0.474271 0.474271 -180 0 0 0.476398 0.474271 L19.93 351.75 a0.476398 0.476398 -180 0 0 0.476398
								 -0.474271 L20.41 337.41 a0.476398 0.476398 -180 0 0 -0.476398 -0.476398 Z" class="st46"/>
				</g>
				<g id="shape2234-319" v:mID="2234" v:groupContext="shape" transform="translate(10.9614,-17.9287)">
					<title>Sheet.2234</title>
					<path d="M0 351.54 a0.208429 0.208429 -180 0 0 0.208424 0.208424 L4.72 351.75 a0.208429 0.208429 -180 0 0 0.208424
								 -0.208424 L4.93 350.97 a0.208429 0.208429 -180 0 0 -0.208424 -0.208424 L0.21 350.76 a0.208429 0.208429
								 -180 0 0 -0.208424 0.208424 L0 351.54 Z" class="st34"/>
				</g>
				<g id="shape2235-321" v:mID="2235" v:groupContext="shape" transform="translate(10.9614,-17.9287)">
					<title>Sheet.2235</title>
					<path d="M0 351.61 a0.142497 0.142497 -180 0 0 0.142494 0.142494 L0.84 351.75 a0.142497 0.142497 -180 0 0 0.142494
								 -0.142494 L0.99 350.91 a0.142497 0.142497 -180 0 0 -0.142494 -0.142494 L0.14 350.76 a0.142497 0.142497
								 -180 0 0 -0.142494 0.142494 L0 351.61 Z" class="st45"/>
				</g>
				<g id="shape2236-323" v:mID="2236" v:groupContext="shape" transform="translate(9.63004,-3.23695)">
					<title>Sheet.2236</title>
					<path d="M19.93 336.93 L10.15 336.93 a0.478525 0.478525 -180 0 0 -0.338157 0.140367 L8.24 338.64 a0.478525 0.478525
								 0 0 1 -0.338157 0.140367 L0.48 338.78 a0.476398 0.476398 -180 0 0 -0.476398 0.476398 L0 351.28 a0.474271
								 0.474271 -180 0 0 0.476398 0.474271 L19.93 351.75 a0.476398 0.476398 -180 0 0 0.476398 -0.474271
								 L20.41 337.41 a0.476398 0.476398 -180 0 0 -0.476398 -0.476398 Z" class="st47"/>
				</g>
			</g>
		</g>
		<g id="shape2237-325" v:mID="2237" v:groupContext="shape" transform="translate(967.812,-171.375)">
			<title>Sheet.2237</title>
			<desc>Azure Files</desc>
			<v:userDefs>
				<v:ud v:nameU="visNavOrder" v:prompt="" v:val="VT0(88000):26"/>
			</v:userDefs>
			<v:textBlock v:margins="rect(4,4,4,4)"/>
			<v:textRect cx="42.7814" cy="338.883" width="85.57" height="25.7344"/>
			<rect x="0" y="326.016" width="85.5629" height="25.7344" rx="12.8672" ry="12.8672" class="st13"/>
			<text x="15.92" y="342.48" class="st21" v:langID="1033"><v:paragraph v:horizAlign="1"/><v:tabList/>Azure Files</text>		</g>
		<g id="group2238-328" transform="translate(994.375,-265.582)" v:mID="2238" v:groupContext="group">
			<v:userDefs>
				<v:ud v:nameU="visNavOrder" v:val="VT0(89000):26"/>
			</v:userDefs>
			<title>Icon-databases-131</title>
			<g id="shape2239-329" v:mID="2239" v:groupContext="shape">
				<title>Sheet.2239</title>
				<path d="M13.5 325.72 C6.04 325.72 0 323.61 0 320.83 L0 346.86 C0 349.54 5.94 351.71 13.31 351.75 L13.5 351.75 C20.96
							 351.75 27 349.64 27 346.86 L27 320.83 C27 323.53 20.96 325.72 13.5 325.72 Z" class="st48"/>
			</g>
			<g id="shape2240-333" v:mID="2240" v:groupContext="shape" transform="translate(0,-26.0312)">
				<title>Sheet.2240</title>
				<path d="M27 346.86 C27 349.56 20.96 351.75 13.5 351.75 C6.04 351.75 0 349.64 0 346.86 C0 344.08 6.04 341.98 13.5
							 341.98 C20.96 341.98 27 344.08 27 346.86 Z" class="st28"/>
			</g>
			<g id="shape2241-335" v:mID="2241" v:groupContext="shape" transform="translate(3.13807,-28.2005)">
				<title>Sheet.2241</title>
				<path d="M20.7 348.63 C20.7 350.36 16.07 351.75 10.36 351.75 C4.65 351.75 0 350.36 0 348.65 C0 346.95 4.63 345.54
							 10.36 345.54 C16.09 345.54 20.7 346.93 20.7 348.63 Z" class="st29"/>
			</g>
			<g id="shape2242-337" v:mID="2242" v:groupContext="shape" transform="translate(5.28627,-28.2005)">
				<title>Sheet.2242</title>
				<path d="M8.21 349.41 A24.5359 24.5359 -180 0 0 -0 350.61 A24.2832 24.2832 -180 0 0 8.21 351.75 A24.1568 24.1568
							 -180 0 0 16.41 350.53 A25.1256 25.1256 -180 0 0 8.21 349.41 Z" class="st30"/>
			</g>
			<g id="shape2243-339" v:mID="2243" v:groupContext="shape" transform="translate(4.02262,-3.72777)">
				<title>Sheet.2243</title>
				<path d="M15.8 337.58 C15.8 337.74 15.8 338.08 15.8 338.46 A10.7832 10.7832 -180 0 0 15.63 339.79 C15.63 340.04 15.63
							 340.42 15.73 340.76 C15.84 341.09 15.73 341.32 15.73 341.51 A3.53822 3.53822 0 0 1 15.21 343.33 a0.905616
							 0.905616 -180 0 0 -8.88178E-15 0.147426 L15.42 343.73 A22.2192 22.2192 -180 0 0 17.65 338.71 C18.24
							 336.71 18.3 335.28 17.84 334.67 A5.4337 5.4337 -180 0 0 12.19 332.86 A6.92902 6.92902 0 0 1 14.11 334.27
							 A4.80187 4.80187 0 0 1 15.8 337.58 ZM15.14 337.74 A2.422 2.422 -180 0 0 13.48 337.93 C12.87 338.31 13.06
							 339.09 13.48 340.04 A16.3643 16.3643 -180 0 0 14.22 341.83 L14.41 342.17 C14.51 342.34 14.57 342.48
							 14.64 342.59 L14.81 342.86 A2.69579 2.69579 -180 0 0 15.18 341.49 A6.0234 6.0234 -180 0 0 15.18 340.8
							 C15.18 340.44 15.18 340.04 15.08 339.77 A12.8471 12.8471 0 0 1 15.25 338.31 C15.18 338.08 15.21 337.85
							 15.23 337.68 L15.14 337.74 ZM14.51 338.61 a0.842434 0.842434 0 0 1 -0.379095 0.210608 a0.695008 0.695008
							 0 0 1 -0.294852 5.68434E-14 a0.484399 0.484399 0 0 1 -0.147426 -0.400156 C13.69 338.27 13.92 338.14
							 14.2 338.1 L14.6 338.1 C14.6 338.1 14.78 338.1 14.78 338.27 a0.421217 0.421217 0 0 1 -0.189548 0.273791
							 L14.51 338.61 ZM4.63 340.48 C4.63 340.34 4.63 340.21 4.63 340.12 A2.10608 2.10608 -180 0 0 4.63 339.77
							 A11.6888 11.6888 0 0 1 4.63 337.66 A10.9938 10.9938 0 0 1 5.27 335.34 A5.07566 5.07566 0 0 1 6.49 333.36
							 A10.0671 10.0671 -180 0 0 3.64 332.94 A3.93838 3.93838 -180 0 0 1.33 333.57 A4.21217 4.21217 -180 0
							 0 0 337.41 A25.8417 25.8417 -180 0 0 1.05 342.13 C1.77 344.53 2.59 346 3.31 346.23 C3.62 346.34 3.96
							 346.23 4.3 345.79 C4.89 345.07 5.43 344.46 5.75 344.1 A3.95944 3.95944 0 0 1 4.72 340.42 L4.63 340.48
							 ZM5.18 341.32 A4.59126 4.59126 -180 0 0 5.31 342.5 A3.15913 3.15913 -180 0 0 5.85 343.43 A2.25351 2.25351
							 -180 0 0 6.59 343.96 A2.29563 2.29563 -180 0 0 7.41 344.13 C7.41 343.77 7.71 343.33 7.9 342.86 A9.16147
							 9.16147 -180 0 0 8.34 341.62 A13.9212 13.9212 -180 0 0 8.34 339.28 C8.34 339.09 8.34 338.88 8.21 338.65
							 a0.947738 0.947738 -180 0 0 -0.25273 -0.568643 A1.39002 1.39002 -180 0 0 7.37 337.74 L6.95 337.74 A3.28549
							 3.28549 -180 0 0 5.94 338.04 A4.21217 4.21217 -180 0 0 5.27 338.44 L5.27 338.67 C5.27 339.09 5.27 339.53
							 5.27 339.96 A1.81123 1.81123 0 0 1 5.27 340.27 L5.27 341.09 L5.18 341.32 ZM6.57 338.5 a0.968799 0.968799
							 0 0 1 0.589704 0 A1.26365 1.26365 0 0 1 7.56 338.63 C7.75 338.63 7.77 338.86 7.75 338.92 a0.779251 0.779251
							 0 0 1 -0.25273 0.273791 a0.631825 0.631825 0 0 1 -0.126365 -0.0842434 a0.716069 0.716069 0 0 1 -0.589704
							 -0.589704 L6.57 338.5 ZM8.13 344.82 a0.484399 0.484399 -180 0 0 -0.273791 0.126365 L7.56 345.31 C7.2
							 345.75 7.06 345.9 6.02 346.11 A1.09516 1.09516 -180 0 0 5.48 346.32 A1.22153 1.22153 -180 0 0 5.98 346.55
							 A2.48518 2.48518 -180 0 0 7.5 346.55 A3.58034 3.58034 -180 0 0 8.32 346 A1.28471 1.28471 -180 0 0 8.74
							 345.35 a0.75819 0.75819 -180 0 0 -0.210608 -0.589704 a0.315913 0.315913 -180 0 0 -0.315913 -0.0421217
							 L8.13 344.82 ZM17.84 344.82 A3.43292 3.43292 0 0 1 15.46 344.82 a0.463339 0.463339 -180 0 0 -0.294852
							 5.68434E-14 a0.631825 0.631825 -180 0 0 -0.358034 0.294852 A2.29563 2.29563 -180 0 0 14.81 345.77 A3.79095
							 3.79095 -180 0 0 17.12 345.56 A2.86427 2.86427 -180 0 0 18.13 344.84 L17.84 344.82 ZM12.78 340.31 C12.49
							 339.45 12.07 338.21 13.16 337.45 A2.84321 2.84321 0 0 1 15.04 337.13 A6.69735 6.69735 -180 0 0 13.69
							 334.71 L13.48 334.5 L13.35 334.37 a0.716069 0.716069 -180 0 0 -0.126365 -0.126365 A4.92824 4.92824 -180
							 0 0 11.82 333.36 A5.539 5.539 -180 0 0 9.48 332.9 A3.20125 3.20125 -180 0 0 8 333.13 A3.72777 3.72777
							 -180 0 0 7.37 333.36 A4.42278 4.42278 -180 0 0 5.81 335.47 A12.2995 12.2995 -180 0 0 5.37 337.58 A3.4961
							 3.4961 0 0 1 7.48 337.09 A1.76911 1.76911 0 0 1 9.1 339.01 A15.2902 15.2902 0 0 1 9.1 341.68 A8.15055
							 8.15055 0 0 1 8.61 343.01 C8.49 343.37 8.32 343.75 8.23 344.04 A1.05304 1.05304 0 0 1 9.04 344.34 A1.39002
							 1.39002 0 0 1 9.44 345.45 L9.48 345.45 C9.48 345.62 9.48 345.79 9.48 345.96 A13.7949 13.7949 -180 0
							 0 9.98 351.1 A1.13729 1.13729 -180 0 0 10.49 351.54 A1.26365 1.26365 -180 0 0 11.14 351.75 A2.73791
							 2.73791 -180 0 0 13.25 351.03 A2.21139 2.21139 -180 0 0 13.86 349.64 C14.01 348.7 14.32 346.06 14.36
							 345.43 A1.51638 1.51638 0 0 1 14.55 344.51 A1.32683 1.32683 0 0 1 15.12 344 A11.2886 11.2886 0 0 1 12.87
							 340.19 L12.78 340.31 Z" class="st49"/>
			</g>
		</g>
		<g id="shape2244-341" v:mID="2244" v:groupContext="shape" transform="translate(954.375,-240.832)">
			<title>Sheet.2244</title>
			<desc>Azure Database for PostgreSQL</desc>
			<v:userDefs>
				<v:ud v:nameU="visNavOrder" v:prompt="" v:val="VT0(90000):26"/>
			</v:userDefs>
			<v:textBlock v:margins="rect(4,4,4,4)"/>
			<v:textRect cx="54.8752" cy="341.625" width="109.76" height="20.25"/>
			<rect x="0" y="331.5" width="109.75" height="20.25" rx="10.125" ry="10.125" class="st13"/>
			<text x="7.13" y="338.03" class="st21" v:langID="1033"><v:paragraph v:horizAlign="1"/><v:tabList/>Azure Database for <tspan
						x="26.49" dy="1.2em" class="st36">PostgreSQL</tspan></text>		</g>
		<g id="group2245-345" transform="translate(886.875,-264.882)" v:mID="2245" v:groupContext="group">
			<v:userDefs>
				<v:ud v:nameU="visNavOrder" v:val="VT0(91000):26"/>
			</v:userDefs>
			<title>Icon-databases-122</title>
			<g id="shape2246-346" v:mID="2246" v:groupContext="shape">
				<title>Sheet.2246</title>
				<path d="M12.53 327.59 C5.61 327.59 0 325.64 0 323.06 L0 347.22 C0 349.7 5.51 351.71 12.35 351.75 L12.53 351.75 C19.45
							 351.75 25.06 349.8 25.06 347.22 L25.06 323.06 C25.06 325.58 19.45 327.59 12.53 327.59 Z" class="st27"/>
			</g>
			<g id="shape2247-349" v:mID="2247" v:groupContext="shape" transform="translate(0,-24.1584)">
				<title>Sheet.2247</title>
				<path d="M25.06 347.22 C25.06 349.74 19.45 351.75 12.53 351.75 C5.61 351.75 0 349.8 0 347.22 C0 344.64 5.61 342.68
							 12.53 342.68 C19.45 342.68 25.06 344.64 25.06 347.22 Z" class="st28"/>
			</g>
			<g id="shape2248-351" v:mID="2248" v:groupContext="shape" transform="translate(2.9123,-26.1716)">
				<title>Sheet.2248</title>
				<path d="M19.23 348.86 C19.23 350.46 14.91 351.75 9.62 351.75 C4.32 351.75 0 350.46 0 348.86 C0 347.25 4.32 345.98
							 9.62 345.98 C14.91 345.98 19.23 347.27 19.23 348.86 Z" class="st29"/>
			</g>
			<g id="shape2249-353" v:mID="2249" v:groupContext="shape" transform="translate(4.9255,-26.1716)">
				<title>Sheet.2249</title>
				<path d="M7.6 349.58 A22.5752 22.5752 -180 0 0 0 350.69 A22.3211 22.3211 -180 0 0 7.6 351.75 A21.7934 21.7934 -180
							 0 0 15.21 350.62 A23.142 23.142 -180 0 0 7.6 349.58 Z" class="st30"/>
			</g>
			<g id="shape2250-355" v:mID="2250" v:groupContext="shape" transform="translate(14.4833,-8.85417)">
				<title>Sheet.2250</title>
				<path d="M5.16 343.99 L5.16 347.18 L3.21 347.18 a0.762279 0.762279 0 0 1 -0.566823 -0.273639 L2.64 343.99 L0 343.99
							 L0 347.47 A1.7982 1.7982 -180 0 0 1.95 349.21 L4.87 349.21 L5.38 348.95 C5.38 348.95 5.16 349.76 4.87
							 349.8 L0.22 349.8 L0.22 351.75 L5.41 351.75 A2.36502 2.36502 -180 0 0 7.82 349.27 L7.82 343.99 L5.16
							 343.99 Z" class="st49"/>
			</g>
			<g id="shape2251-357" v:mID="2251" v:groupContext="shape" transform="translate(2.87321,-11.1606)">
				<title>Sheet.2251</title>
				<path d="M10.69 346.3 C10.69 346.3 10.69 346.3 10.69 346.3 L10.69 345.34 A1.36819 1.36819 -180 0 0 9.75 343.83 A3.40094
							 3.40094 -180 0 0 8.78 343.68 A1.83729 1.83729 -180 0 0 7 344.81 L5.47 348.52 L3.52 344.81 A1.81774 1.81774
							 -180 0 0 1.84 343.68 A2.81457 2.81457 -180 0 0 0.84 343.85 C0.16 344.07 0 344.52 0 345.28 L0 351.75
							 L2.29 351.75 L2.29 347.39 L3.52 350.46 A2.11093 2.11093 -180 0 0 5.47 351.75 C6.33 351.75 6.68 351.24
							 7.04 350.46 L8.35 347.51 L8.35 351.71 L10.65 351.71 L10.65 346.3 L10.69 346.3 Z" class="st49"/>
			</g>
		</g>
		<g id="shape2252-359" v:mID="2252" v:groupContext="shape" transform="translate(845.5,-239.397)">
			<title>Sheet.2252</title>
			<desc>Azure Database for MySQL</desc>
			<v:userDefs>
				<v:ud v:nameU="visNavOrder" v:prompt="" v:val="VT0(92000):26"/>
			</v:userDefs>
			<v:textBlock v:margins="rect(4,4,4,4)"/>
			<v:textRect cx="54.8752" cy="341.625" width="109.76" height="20.25"/>
			<rect x="0" y="331.5" width="109.75" height="20.25" rx="10.125" ry="10.125" class="st13"/>
			<text x="7.13" y="338.03" class="st21" v:langID="1033"><v:paragraph v:horizAlign="1"/><v:tabList/>Azure Database for <tspan
						x="37.3" dy="1.2em" class="st36">MySQL</tspan></text>		</g>
	</g>
</svg>
