<svg xmlns="http://www.w3.org/2000/svg" width="62" height="62" viewBox="0 0 62 62"><circle fill="#fff" cx="31" cy="31" r="30.002"/><path fill="#006341" d="M34.017 13.97c-.263-.048-1.53-.26-3.017-.26s-2.754.21-3.017.26c-.15.026-.21-.122-.094-.208L31 11.397l3.107 2.365c.117.086.06.234-.09.207zm-5.194 14.855s-.16.057-.2.197c.63.484 1.063 1.585 2.377 1.585s1.748-1.1 2.377-1.585c-.04-.14-.2-.197-.2-.197s-.823.194-2.177.194l-2.177-.2zM31 26.972c-.365 0-.445-.138-.694-.137-.237 0-.697.19-.797.363 0 .088.03.167.1.237.53.08.77.376 1.39.376s.85-.29 1.39-.37c.06-.07.09-.15.1-.23-.1-.17-.56-.36-.8-.36-.25 0-.33.14-.7.14zm29.956 5.673c-.038.717-.102 1.428-.19 2.13-3.396.563-4.61-2.463-8.09-2.31.21.737.378 1.49.508 2.257 2.87-.002 4.025 2.68 7.217 2.285-.16.82-.37 1.63-.6 2.426-2.52.248-3.41-2.26-6.33-2.19.03.415.04.835.04 1.26l-.01.7 5.67 2.164c-.29.807-.63 1.596-.99 2.37-1.7-.095-2.29-2.282-4.88-2.108-.08.56-.17 1.11-.29 1.66 2.26-.16 2.74 1.91 4.36 2.08-.41.75-.85 1.48-1.32 2.19-.95-.51-1.78-2.06-3.59-2.15.19-.58.35-1.16.49-1.75-1.61 0-3.45-.63-4.99-2.03.5-2.85-3.92-5.75-3.92-7.83 0-2.27 1.15-3.52 1.15-6.57 0-2.27-1.1-4.72-2.76-6.4-.32-.33-.65-.59-1.03-.83 1.53 1.88 2.7 4.12 2.7 6.71 0 2.87-1.34 4.39-1.34 7.04s3.88 4.94 3.88 7.68c0 1.07-.34 2.12-1.48 4.19 1.74 1.74 4.01 2.69 5.48 2.69.48 0 .73-.15.9-.52.15-.32.29-.65.42-.98 1.58.06 2.3 1.49 3.17 2.06-.48.64-.98 1.26-1.51 1.86-.58-.65-1.37-1.74-2.52-2.04-.2.4-.42.79-.65 1.18.99.27 1.67 1.27 2.2 1.93-.57.58-1.15 1.14-1.77 1.68-.38-.6-.98-1.35-1.65-1.76-.25.33-.5.66-.77.98.57.38 1.07 1.07 1.4 1.64-.71.57-1.44 1.11-2.2 1.61-.38-3.05-4.53-5.14-3.41-8.67-.37.62-.81 1.4-.81 2.34 0 2.56 2.72 4.59 2.94 7.13-.56.34-1.14.66-1.73.96-.1-2.8-2.99-5.85-2.99-8.15C41.65 47 45 44.43 45 41.41s-3.87-5.12-3.87-7.78 1.644-4.18 1.644-7.58c0-2.49-1.18-5.02-3.01-6.63-.32-.287-.64-.51-1.023-.71 1.73 2.07 2.73 3.943 2.73 6.79 0 3.2-1.88 4.974-1.88 8.106 0 3.14 3.8 4.88 3.8 7.8s-3.54 5.38-3.54 8.38c0 2.73 3.12 5.45 3.17 8.69-.68.3-1.37.57-2.08.815.4-3.27-3.11-6.64-3.11-9.31 0-2.91 3.67-5.42 3.67-8.57 0-3.15-3.73-4.61-3.73-7.84 0-3.23 2.29-5.02 2.29-8.59 0-2.78-1.37-5.28-3.38-6.83l-.13-.09c-.19-.14-.34.03-.21.19 1.42 1.77 2.18 3.56 2.18 6.22 0 3.26-2.62 5.91-2.62 9.08 0 3.73 3.53 4.8 3.53 7.86 0 3.06-3.78 5.51-3.78 8.76 0 3.02 3.58 6.36 2.97 9.84-.71.19-1.44.35-2.18.48.67-4.33-2.84-7.44-2.84-10.28 0-3.07 3.92-5.8 3.92-8.8 0-2.83-2.81-3.75-3.18-6.64-.05-.39-.37-.69-.81-.61-.57.11-1.31.48-2.46.48s-1.88-.37-2.45-.48c-.44-.07-.75.22-.8.62-.37 2.9-3.18 3.82-3.18 6.65 0 3 3.92 5.73 3.92 8.8 0 2.84-3.51 5.95-2.84 10.28-.73-.13-1.46-.29-2.18-.48-.62-3.48 2.97-6.82 2.97-9.84 0-3.25-3.79-5.7-3.79-8.76 0-3.06 3.53-4.13 3.53-7.86 0-3.16-2.63-5.81-2.63-9.07 0-2.65.76-4.44 2.18-6.22.13-.16-.02-.33-.21-.19l-.13.09c-2.03 1.56-3.4 4.06-3.4 6.84 0 3.57 2.29 5.36 2.29 8.59 0 3.23-3.73 4.69-3.73 7.84 0 3.15 3.67 5.66 3.67 8.57 0 2.67-3.5 6.05-3.11 9.32-.7-.24-1.4-.51-2.08-.81.05-3.24 3.16-5.96 3.16-8.69 0-3-3.53-5.46-3.53-8.38s3.8-4.66 3.8-7.79-1.88-4.91-1.88-8.11c0-2.85 1-4.73 2.73-6.8-.38.2-.7.42-1.02.71-1.83 1.61-3.01 4.13-3.01 6.62 0 3.4 1.65 4.93 1.65 7.58s-3.87 4.75-3.87 7.77c0 3.02 3.35 5.6 3.35 8.16 0 2.29-2.89 5.35-2.98 8.15-.59-.3-1.17-.62-1.73-.96.22-2.54 2.95-4.57 2.95-7.13 0-.94-.44-1.71-.8-2.34 1.12 3.54-3.04 5.63-3.41 8.67-.76-.5-1.49-1.04-2.2-1.61.32-.56.82-1.26 1.39-1.64-.26-.32-.52-.64-.77-.98-.67.41-1.26 1.17-1.64 1.76-.61-.54-1.2-1.1-1.77-1.68.53-.66 1.21-1.66 2.2-1.93-.23-.39-.45-.78-.65-1.18-1.15.3-1.94 1.39-2.52 2.04-.53-.6-1.03-1.23-1.51-1.87.87-.57 1.59-2 3.17-2.06.13.33.27.65.417.98.17.37.42.52.9.52 1.46 0 3.73-.95 5.47-2.69-1.13-2.06-1.47-3.11-1.47-4.19 0-2.73 3.88-5.03 3.88-7.68S18 29.55 18 26.67c0-2.59 1.17-4.82 2.69-6.71-.38.24-.71.5-1.03.83-1.66 1.68-2.76 4.14-2.76 6.4 0 3.06 1.15 4.31 1.15 6.57 0 2.09-4.42 4.987-3.92 7.83-1.54 1.41-3.38 2.03-4.99 2.03.14.597.3 1.18.49 1.75-1.81.1-2.64 1.64-3.6 2.15-.47-.71-.91-1.44-1.323-2.19 1.615-.17 2.1-2.24 4.355-2.08-.12-.55-.22-1.104-.295-1.664-2.59-.175-3.18 2.013-4.882 2.106-.36-.77-.694-1.56-.99-2.37l5.67-2.15-.012-.7c0-.42.014-.84.037-1.26-2.92-.063-3.81 2.44-6.334 2.19-.23-.79-.43-1.6-.6-2.42 3.19.394 4.35-2.29 7.22-2.286.13-.762.3-1.52.505-2.252-3.47-.15-4.69 2.877-8.08 2.31-.09-.7-.15-1.41-.19-2.13 3.95.44 5.43-2.8 9.02-2.404.34-.86.74-1.69 1.18-2.49-4.5-.793-6.03 2.975-10.23 2.395C1.47 13.97 14.72 1 31 1s29.536 12.97 29.99 29.145c-4.196.58-5.726-3.188-10.23-2.397.442.8.836 1.63 1.176 2.49 3.592-.398 5.072 2.848 9.02 2.407zM18.104 20.062c-2.21-.903-4.883-.695-7.167.772-.354-2.125-1.507-4.013-3.15-5.152-.226-.157-.462-.008-.44.255.346 4.49-2.28 8.39-5.507 11.816 3.327 1 6.16-3.284 10.474-1.79 1.548-2.304 3.514-4.307 5.79-5.9zM31 17.346c-2.785 0-5.118 1.575-5.73 3.61-.046.156.018.257.198.176.5-.225 1.07-.333 1.69-.333 1.136 0 2.137.41 2.73 1.14.26.86.283 2.11-.013 2.83-.468-.11-.636-.47-1.093-.47s-.81.32-1.586.32c-.774 0-.865-.37-1.374-.37-.6 0-.71.61-.71 1.31 0 3.1 2.853 7.37 5.887 7.37 3.03 0 5.88-4.27 5.88-7.38 0-.7-.15-1.3-.77-1.38-.31.22-.6.42-1.31.42-.78 0-.99-.32-1.45-.32-.55 0-.5 1.16-1.15 1.23-.44-1.05-.46-2.39-.1-3.59.59-.73 1.59-1.15 2.73-1.15.62 0 1.19.1 1.69.33.18.08.24-.02.19-.18-.61-2.04-2.94-3.61-5.73-3.61zm4.434 4.452c-.668 0-1.45.205-1.943.753-.05.15-.05.38.03.52 1.21-.41 2.28-.43 2.8.15.28-.25.37-.47.37-.73 0-.4-.41-.68-1.23-.68zm-9.74 1.418c.583-.585 1.814-.56 3.093-.088.056-.636-1.083-1.33-2.22-1.33-.828 0-1.237.278-1.237.682 0 .26.088.487.363.736zm19.193-10.504c-2.2.157-4.11.912-5.654 2.17.656-1.86 1.49-3.487 2.545-5.064-2.8.297-5.14 1.32-6.85 3.07l-1.336-3.504 2.968-2.62-3.974-.282L31 2.786l-1.587 3.696-3.974.28 2.96 2.622-1.34 3.505c-1.71-1.75-4.05-2.78-6.85-3.08 1.05 1.58 1.88 3.2 2.54 5.06-1.55-1.26-3.46-2.02-5.66-2.17 1.32 1.69 2.48 3.5 3.35 5.45.1.22.31.29.53.17 3.01-1.5 6.4-2.34 9.99-2.34s6.98.84 9.99 2.34c.23.11.44.04.53-.18.87-1.95 2.04-3.76 3.36-5.45zm4.8 13.254c4.314-1.495 7.147 2.788 10.474 1.79-3.22-3.428-5.85-7.327-5.5-11.817.02-.27-.21-.42-.44-.26-1.64 1.14-2.79 3.02-3.15 5.15-2.28-1.47-4.95-1.68-7.16-.77 2.28 1.59 4.24 3.59 5.79 5.9z"/><path d="M47.213 60.736h3.604V61h-3.604z" fill="none"/><path d="M53.595 57.01H52.07v4.105h-.548V57.01H50v-.51h3.595v.51zm.64-.51h.812l1.57 3.618h.01l1.575-3.618H59v4.615h-.55v-3.87h-.013l-1.653 3.87h-.333l-1.65-3.87h-.01v3.87h-.54V56.5z" fill="#006341"/></svg>