<?xml version="1.0" encoding="UTF-8"?>
<svg width="171px" height="47px" viewBox="0 0 171 47" version="1.1" xmlns="http://www.w3.org/2000/svg" xmlns:xlink="http://www.w3.org/1999/xlink">
    <!-- Generator: sketchtool 61.2 (101010) - https://sketch.com -->
    <title>73199666-0B5B-4FFE-AB4A-F5CA296CDD01</title>
    <desc>Created with sketchtool.</desc>
    <g id="Page-1" stroke="none" stroke-width="1" fill="none" fill-rule="evenodd">
        <g id="01---IR-Landing" transform="translate(-37.000000, -19.000000)" fill-rule="nonzero">
            <g id="tractor-supply-logo" transform="translate(37.000000, 19.000000)">
                <rect id="Rectangle" fill="#FFFFFF" x="157.997171" y="41.2562396" width="10.81198" height="4.7515807"></rect>
                <polygon id="Path" fill="#FFFFFF" points="52.2104825 21.8515807 62.2826955 21.8515807 62.2826955 17.1853577 60.4048253 17.1853577 60.4048253 5.14991681 62.0550749 5.14991681 62.0550749 9.53161398 65.6400998 9.53161398 65.6400998 0.59750416 48.9668885 0.59750416 48.9668885 9.53161398 52.4950083 9.53161398 52.4950083 5.14991681 54.1452579 5.14991681 54.1452579 17.1853577 52.2104825 17.1853577"></polygon>
                <path d="M66.1237937,21.8515807 L75.4562396,21.8515807 L75.4562396,17.1853577 L73.7490849,17.1853577 L73.7490849,13.3442596 C73.9767055,13.3442596 74.1758735,13.315807 74.346589,13.315807 C76.6797005,13.315807 77.2202995,14.1978369 77.2202995,16.6732113 L77.2202995,21.8515807 L84.6464226,21.8515807 L84.6464226,17.1853577 L83.1953411,17.1853577 L83.1953411,15.9618968 C83.1953411,13.1450915 82.9392679,11.9500832 80.0655574,11.3810316 C82.4840266,10.5843594 83.7074875,8.87720466 83.7074875,6.28801997 C83.7074875,2.24775374 81.0044925,0.569051581 75.4846922,0.569051581 L66.1522463,0.569051581 L66.1522463,5.12146423 L67.8024958,5.12146423 L67.8024958,17.1569052 L66.1522463,17.1569052 L66.1522463,21.8515807 L66.1237937,21.8515807 Z M73.7775374,5.14991681 L74.2612313,5.14991681 C76.4805324,5.14991681 77.5048253,5.74742097 77.5048253,7.25540765 C77.5048253,8.73494176 76.5374376,9.3608985 74.5173045,9.3608985 C74.2896839,9.3608985 74.0336106,9.3608985 73.7775374,9.33244592 L73.7775374,5.14991681 L73.7775374,5.14991681 Z" id="Shape" fill="#FFFFFF"></path>
                <path d="M51.6698835,46.093178 L51.6698835,44.6990017 C52.6372712,45.8655574 54.0883527,46.5484193 55.9093178,46.5484193 C59.6935108,46.5484193 62.1973378,43.6747088 62.1973378,38.9800333 C62.1973378,35.2242928 60.6039933,33.4886855 57.1327787,32.0945092 L55.1410982,31.2978369 C54.344426,30.9848586 53.8891847,30.7003328 53.8891847,30.0174709 C53.8891847,29.2777038 54.4866889,28.7086522 55.4825291,28.7086522 C57.2181364,28.7086522 58.2708819,29.7044925 58.4985025,31.6108153 L61.1161398,31.6108153 L61.1161398,24.7252912 L58.2424293,24.7252912 L58.2424293,25.6926789 C57.4742097,24.7821963 56.3645591,24.2700499 54.8565724,24.2700499 C51.2430948,24.2700499 48.7392679,27.2006656 48.7392679,31.6392679 C48.7392679,35.2242928 50.2472546,37.2159734 53.5193012,38.3540765 L55.2264559,38.9515807 C56.1938436,39.2645591 56.6206323,39.7767055 56.6206323,40.6018303 C56.6206323,41.5976705 55.9093178,42.2520799 54.6858569,42.2520799 C53.0640599,42.2520799 51.9544093,41.028619 51.3569052,38.6386023 L48.8246256,38.6386023 L48.8246256,46.093178 L51.6698835,46.093178 Z" id="Path" fill="#FFFFFF"></path>
                <path d="M156.77371,31.7815308 C156.77371,36.3339434 159.391348,39.2930116 163.431614,39.2930116 C167.443428,39.2930116 170.089517,36.3339434 170.089517,31.7815308 C170.089517,27.2291181 167.47188,24.2985025 163.431614,24.2985025 C159.4198,24.2985025 156.77371,27.2575707 156.77371,31.7815308 M163.431614,35.6510815 C162.236606,35.6510815 162.008985,34.3422629 162.008985,31.5823627 C162.008985,29.1069884 162.321963,27.91198 163.431614,27.91198 C164.683527,27.91198 164.854243,29.334609 164.854243,32.1798669 C164.854243,34.5698835 164.455907,35.6510815 163.431614,35.6510815" id="Shape" fill="#FFFFFF"></path>
                <path d="M63.1647255,29.4484193 L63.1647255,39.2930116 C63.1647255,44.1868552 65.5831947,46.5768719 70.5339434,46.5768719 C74.9725458,46.5768719 77.1064892,44.3006656 77.1064892,39.6344426 L77.1064892,29.4768719 L78.4153078,29.4768719 L78.4153078,24.7821963 L71.7858569,24.7821963 L71.7858569,29.4768719 L73.066223,29.4768719 L73.066223,39.6628952 C73.066223,41.1708819 72.3833611,42.0244592 71.1314476,42.0244592 C69.822629,42.0244592 69.1113145,41.1708819 69.1113145,39.6344426 L69.1113145,29.4768719 L70.3916805,29.4768719 L70.3916805,24.7821963 L61.8843594,24.7821963 L61.8843594,29.4484193 L63.1647255,29.4484193 L63.1647255,29.4484193 Z" id="Path" fill="#FFFFFF"></path>
                <path d="M78.9559068,46.0362729 L88.003827,46.0362729 L88.003827,41.3700499 L86.4104825,41.3700499 L86.4104825,38.4394343 L87.9753744,38.4394343 C92.6415973,38.4394343 95.0600666,36.0209651 95.0600666,31.4685524 C95.0600666,27.1437604 92.8123128,24.7537438 88.544426,24.7537438 L78.9274542,24.7537438 L78.9274542,29.3061564 L80.4923461,29.3061564 L80.4923461,41.3415973 L78.9274542,41.3415973 L78.9274542,46.0362729 L78.9559068,46.0362729 Z M86.4104825,34.0292845 L86.4104825,29.334609 L86.8372712,29.334609 C88.544426,29.334609 89.3695507,30.0174709 89.3695507,31.5254576 C89.3695507,33.1757072 88.4590682,34.0292845 86.7519135,34.0292845 L86.4104825,34.0292845 Z" id="Shape" fill="#FFFFFF"></path>
                <path d="M94.5763727,46.0362729 L103.624293,46.0362729 L103.624293,41.3700499 L102.030948,41.3700499 L102.030948,38.4394343 L103.59584,38.4394343 C108.262063,38.4394343 110.680532,36.0209651 110.680532,31.4685524 C110.680532,27.1437604 108.432779,24.7537438 104.164892,24.7537438 L94.5479201,24.7537438 L94.5479201,29.3061564 L96.112812,29.3061564 L96.112812,41.3415973 L94.5479201,41.3415973 L94.5479201,46.0362729 L94.5763727,46.0362729 Z M102.030948,34.0292845 L102.030948,29.334609 L102.457737,29.334609 C104.164892,29.334609 104.990017,30.0174709 104.990017,31.5254576 C104.990017,33.1757072 104.079534,34.0292845 102.400832,34.0292845 L102.030948,34.0292845 Z" id="Shape" fill="#FFFFFF"></path>
                <polygon id="Path" fill="#FFFFFF" points="110.310649 46.0362729 124.906822 46.0362729 124.906822 37.6427621 120.638935 37.6427621 120.638935 41.3700499 117.651414 41.3700499 117.651414 29.334609 119.074043 29.334609 119.074043 24.7821963 110.310649 24.7821963 110.310649 29.334609 111.704825 29.334609 111.704825 41.3700499 110.310649 41.3700499"></polygon>
                <polygon id="Path" fill="#FFFFFF" points="128.008153 37.2728785 128.008153 41.3700499 125.98802 41.3700499 125.98802 46.0362729 135.91797 46.0362729 135.91797 41.3700499 133.869384 41.3700499 133.869384 37.2728785 138.279534 29.3061564 139.44609 29.3061564 139.44609 24.7821963 132.873544 24.7821963 132.873544 29.3061564 134.125458 29.3061564 132.048419 33.31797 129.914476 29.3061564 131.194842 29.3061564 131.194842 24.7821963 122.23228 24.7821963 122.23228 29.3061564 123.398835 29.3061564"></polygon>
                <path d="M152.961065,38.1264559 C152.733444,40.2319468 151.879867,41.3131448 150.627953,41.3131448 C148.835441,41.3131448 148.181032,39.4352745 148.181032,35.3950083 C148.181032,31.155574 148.806988,29.1069884 150.599501,29.1069884 C152.02213,29.1069884 152.818802,30.415807 152.818802,32.9480865 L152.818802,33.0618968 L156.346922,33.0618968 L156.346922,24.7537438 L153.074875,24.7537438 L153.074875,26.1194676 C152.050582,24.8960067 150.713311,24.3269551 149.119967,24.3269551 C144.96589,24.3269551 141.722296,28.8793677 141.722296,35.7933444 C141.722296,42.308985 144.795175,46.5484193 149.603661,46.5484193 C154.184526,46.5484193 156.745258,43.5608985 156.802163,38.1264559 L152.961065,38.1264559 L152.961065,38.1264559 Z" id="Path" fill="#FFFFFF"></path>
                <path d="M90.0524126,21.8515807 L90.0524126,17.2422629 L88.2599002,17.2422629 L88.7720466,15.3928453 L93.6374376,15.3928453 L94.0642263,17.2422629 L92.1863561,17.2422629 L92.1863561,21.8515807 L101.148918,21.8515807 L101.148918,17.2422629 L99.6693844,17.2422629 L96.6249584,5.14991681 L98.1613977,5.14991681 L98.1613977,0.59750416 L86.1259567,0.59750416 L86.1259567,5.14991681 L87.662396,5.14991681 L84.1911814,17.2422629 L82.7400998,17.2422629 L82.7400998,21.8515807 L90.0524126,21.8515807 Z M92.7554077,11.0396007 L89.9670549,11.0396007 L91.0482529,6.94242928 C91.2189684,6.31647255 91.3612313,5.66206323 91.4750416,5.00765391 C91.6173045,5.94658902 91.7311148,6.60099834 91.8164725,6.94242928 L92.7554077,11.0396007 Z" id="Shape" fill="#FFFFFF"></path>
                <path d="M111.619468,13.9417637 C111.363394,16.0472546 110.481364,17.1284526 109.144093,17.1284526 C107.23777,17.1284526 106.554908,15.2505824 106.554908,11.2103161 C106.554908,6.97088186 107.23777,4.92229617 109.115641,4.92229617 C110.623627,4.92229617 111.477205,6.23111481 111.477205,8.76339434 L111.477205,8.87720466 L115.204493,8.87720466 L115.204493,0.569051581 L111.733278,0.569051581 L111.733278,1.93477537 C110.65208,0.711314476 109.229451,0.142262895 107.550749,0.142262895 C103.169052,0.142262895 99.7547421,4.69467554 99.7547421,11.6086522 C99.7547421,18.1242928 102.998336,22.3637271 108.091348,22.3637271 C112.928286,22.3637271 115.631281,19.3762063 115.688186,13.9417637 L111.619468,13.9417637 L111.619468,13.9417637 Z" id="Path" fill="#FFFFFF"></path>
                <path d="M150.115807,21.8515807 L159.448253,21.8515807 L159.448253,17.1853577 L157.741098,17.1853577 L157.741098,13.3442596 C157.968719,13.3442596 158.167887,13.315807 158.338602,13.315807 C160.671714,13.315807 161.212313,14.1978369 161.212313,16.6732113 L161.212313,21.8515807 L168.638436,21.8515807 L168.638436,17.1853577 L167.187354,17.1853577 L167.187354,15.9618968 C167.187354,13.1450915 166.931281,11.9500832 164.057571,11.3810316 C166.47604,10.5843594 167.699501,8.87720466 167.699501,6.28801997 C167.699501,2.24775374 164.996506,0.569051581 159.476705,0.569051581 L150.14426,0.569051581 L150.14426,5.12146423 L151.794509,5.12146423 L151.794509,17.1569052 L150.14426,17.1569052 L150.14426,21.8515807 L150.115807,21.8515807 Z M157.741098,5.14991681 L158.224792,5.14991681 C160.444093,5.14991681 161.468386,5.74742097 161.468386,7.25540765 C161.468386,8.73494176 160.500998,9.3608985 158.480865,9.3608985 C158.253245,9.3608985 157.997171,9.3608985 157.741098,9.33244592 L157.741098,5.14991681 Z" id="Shape" fill="#FFFFFF"></path>
                <polygon id="Path" fill="#FFFFFF" points="119.102496 21.8515807 129.174709 21.8515807 129.174709 17.1853577 127.296839 17.1853577 127.296839 5.14991681 128.947088 5.14991681 128.947088 9.53161398 132.532113 9.53161398 132.532113 0.59750416 115.858902 0.59750416 115.858902 9.53161398 119.387022 9.53161398 119.387022 5.14991681 121.037271 5.14991681 121.037271 17.1853577 119.102496 17.1853577"></polygon>
                <path d="M131.849251,11.4663894 C131.849251,14.6530782 132.759734,17.2991681 134.466889,19.2908486 C136.287854,21.3963394 138.421797,22.3352745 141.295507,22.3352745 C144.283028,22.3352745 146.502329,21.3394343 148.323295,19.1485857 C149.945092,17.1569052 150.884027,14.4539101 150.884027,11.3810316 C150.884027,4.43860233 147.156739,0.142126911 141.267055,0.142126911 C135.604992,0.113810316 131.849251,4.55241265 131.849251,11.4663894 M141.352413,4.6093178 C143.486356,4.6093178 143.941597,6.74326123 143.941597,11.2103161 C143.941597,15.7058236 143.486356,17.8113145 141.352413,17.8113145 C139.218469,17.8113145 138.734775,15.677371 138.734775,11.2103161 C138.734775,6.74326123 139.218469,4.6093178 141.352413,4.6093178" id="Shape" fill="#FFFFFF"></path>
                <polygon id="Path" fill="#C8102E" points="13.0597338 45.1826955 39.1222962 36.3054908 47.8856905 2.58918469 0 2.58918469"></polygon>
                <polygon id="Path" fill="#FFFFFF" points="13.3727121 8.25124792 14.1978369 8.25124792 14.1978369 10.1860233 16.7585691 10.1860233 16.7585691 4.23943428 6.28801997 4.23943428 6.28801997 10.1860233 8.84875208 10.1860233 8.84875208 8.25124792 9.64542429 8.25124792 9.64542429 22.9327787 8.70648918 23.5018303 8.70648918 26.3470882 14.2831947 26.3470882 14.2831947 23.5018303 13.3727121 22.9327787"></polygon>
                <path d="M17.4983361,30.5011647 L19.4046589,30.5011647 L19.9737105,29.7329451 C23.3595674,33.5740433 29.3915141,28.2249584 25.208985,19.9168053 C23.6440932,16.8154742 21.8231281,13.9417637 21.6808652,13.1166389 C21.3678869,11.2387687 24.0708819,11.1818636 24.0708819,13.6856905 L24.0708819,14.6246256 L26.9445923,14.6246256 L26.9445923,8.39351082 L24.8675541,8.39351082 L24.2985025,9.19018303 C24.2700499,9.19018303 23.6156406,8.39351082 22.0792013,8.36505824 C20.0306156,8.30815308 16.9008319,10.271381 18.4088186,14.7099834 C18.9778702,16.3602329 19.6322795,17.4983361 21.2540765,20.4289517 C25.6357737,28.3672213 20.343594,27.9404326 20.4574043,25.4650582 L20.4574043,23.7294509 L17.4983361,23.7294509 L17.4983361,30.5011647 Z" id="Path" fill="#FFFFFF"></path>
                <path d="M35.8502496,13.6856905 C35.6795341,12.8605657 28.9078203,10.072213 28.5948419,23.0181364 C28.3387687,34.2 31.0702163,35.8502496 34.0577371,35.8502496 C36.0494176,35.8502496 38.5816972,33.8870216 38.5816972,30.0174709 L38.5816972,27.9404326 L35.5657238,27.9404326 L35.5657238,30.3873544 C35.5657238,30.3873544 35.5657238,32.0091514 34.3422629,32.0091514 C32.4928453,32.0091514 32.3505824,29.5622296 32.236772,23.38802 C32.0945092,15.2221298 35.3381032,15.1652246 35.5657238,18.1242928 L35.5657238,19.2339434 L38.4678869,19.2339434 L38.4678869,13.0028286 L36.4193012,13.0028286 L35.8502496,13.6856905 Z" id="Path" fill="#FFFFFF"></path>
                <path d="M168.894509,0.170715474 C168.382363,0.170715474 167.927121,0.369883527 167.614143,0.682861897 C167.272712,1.05274542 167.073544,1.50798669 167.073544,1.99168053 C167.073544,2.47537438 167.272712,2.93061564 167.614143,3.27204659 C167.984027,3.61347754 168.410815,3.81264559 168.894509,3.81264559 C169.378203,3.81264559 169.833444,3.61347754 170.203328,3.27204659 C170.544759,2.93061564 170.743927,2.50382696 170.743927,1.99168053 C170.743927,1.50798669 170.544759,1.02429285 170.203328,0.682861897 C169.861897,0.369883527 169.378203,0.170715474 168.894509,0.170715474 M170.345591,2.02013311 C170.345591,2.41846922 170.203328,2.78835275 169.918802,3.04442596 C169.634276,3.32895175 169.264393,3.47121464 168.866057,3.47121464 C168.46772,3.47121464 168.12629,3.32895175 167.841764,3.04442596 C167.557238,2.75990017 167.414975,2.39001664 167.414975,2.02013311 C167.414975,1.621797 167.557238,1.25191348 167.841764,0.967387687 C168.097837,0.682861897 168.46772,0.540599002 168.866057,0.540599002 C169.264393,0.540599002 169.634276,0.682861897 169.890349,0.967387687 C170.203328,1.25191348 170.345591,1.621797 170.345591,2.02013311 M168.922962,0.967387687 L168.097837,0.967387687 L168.097837,2.95906822 L168.723794,2.95906822 L168.723794,2.19084859 L168.780699,2.19084859 L169.150582,2.95906822 L169.833444,2.95906822 L169.406656,2.10549085 C169.662729,2.02013311 169.804992,1.82096506 169.804992,1.56489185 C169.776539,1.19500832 169.492013,0.967387687 168.922962,0.967387687 M168.809151,1.36572379 C169.036772,1.36572379 169.12213,1.42262895 169.12213,1.59334443 C169.12213,1.73560732 169.036772,1.82096506 168.837604,1.82096506 L168.723794,1.82096506 L168.723794,1.33727121 L168.809151,1.33727121 L168.809151,1.36572379 Z" id="Shape" fill="#FFFFFF"></path>
            </g>
        </g>
    </g>
</svg>