<?xml version="1.0" encoding="UTF-8" standalone="no"?>
<!DOCTYPE svg PUBLIC "-//W3C//DTD SVG 1.1//EN" "http://www.w3.org/Graphics/SVG/1.1/DTD/svg11.dtd">
<!-- Generated by Microsoft Visio, SVG Export power-platform-overview.svg Page-1 -->
<svg xmlns="http://www.w3.org/2000/svg" xmlns:xlink="http://www.w3.org/1999/xlink" xmlns:ev="http://www.w3.org/2001/xml-events"
		xmlns:v="http://schemas.microsoft.com/visio/2003/SVGExtensions/" width="15.9566in" height="7.52083in"
		viewBox="0 0 1148.88 541.5" xml:space="preserve" color-interpolation-filters="sRGB" class="st11">
	<v:documentProperties v:langID="1033" v:viewMarkup="false"/>

	<style type="text/css">
	<![CDATA[
		.st1 {fill:#ffffff;stroke:none;stroke-linecap:butt;stroke-width:0.75}
		.st2 {fill:#000000;stroke:none;stroke-linecap:butt;stroke-width:0.75}
		.st3 {fill:#fff8f3;stroke:none;stroke-linecap:butt;stroke-width:0.75}
		.st4 {fill:none;stroke:none;stroke-linecap:butt;stroke-width:0.75}
		.st5 {fill:#ffffff;font-family:Segoe UI Semibold;font-size:3em;font-weight:bold}
		.st6 {fill:#0078d4;font-family:Segoe UI Semibold;font-size:1.3125em;font-weight:bold}
		.st7 {fill:none}
		.st8 {fill:#000000;stroke:#ffffff;stroke-linecap:butt;stroke-width:0.75}
		.st9 {fill:#0078d4;font-family:Segoe UI;font-size:1.00001em}
		.st10 {fill:#50e6ff;font-family:Segoe UI Semibold;font-size:1.99999em;font-weight:bold}
		.st11 {fill:none;fill-rule:evenodd;font-size:12px;overflow:visible;stroke-linecap:square;stroke-miterlimit:3}
	]]>
	</style>

	<g v:mID="0" v:index="1" v:groupContext="foregroundPage">
		<title>Page-1</title>
		<v:pageProperties v:drawingScale="1" v:pageScale="1" v:drawingUnits="19" v:shadowOffsetX="9" v:shadowOffsetY="-9"/>
		<g id="group1-1" transform="translate(0.75,-0.75)" v:mID="1" v:groupContext="group">
			<title>Sheet.1</title>
			<g id="shape2-2" v:mID="2" v:groupContext="shape">
				<title>Sheet.2</title>
				<rect x="0" y="1.5" width="960" height="540" class="st1"/>
			</g>
			<g id="shape3-4" v:mID="3" v:groupContext="shape">
				<title>Sheet.3</title>
				<rect x="0" y="1.5" width="960" height="540" class="st2"/>
			</g>
			<g id="shape4-6" v:mID="4" v:groupContext="shape">
				<title>Sheet.4</title>
				<rect x="0" y="411.75" width="960" height="129.75" class="st3"/>
			</g>
			<g id="shape5-8" v:mID="5" v:groupContext="shape" transform="translate(283.378,-448.95)">
				<title>Sheet.5</title>
				<desc>Microsoft Power Platform</desc>
				<v:textBlock v:margins="rect(0,0,0,0)"/>
				<v:textRect cx="432" cy="519.9" width="864" height="43.2"/>
				<rect x="0" y="498.3" width="864" height="43.2" class="st4"/>
				<text x="0" y="530.7" class="st5" v:langID="1033"><v:paragraph/><v:tabList/>Microsoft Power Platform</text>			</g>
			<g id="group6-11" transform="translate(828.75,-296.25)" v:mID="6" v:groupContext="group">
				<title>clip1</title>
				<g id="shape7-12" v:mID="7" v:groupContext="shape">
					<title>Sheet.7</title>
					<rect x="0" y="469.5" width="72.0001" height="72.0001" class="st2"/>
				</g>
			</g>
			<g id="shape8-14" v:mID="8" v:groupContext="shape" transform="translate(832.883,-262.275)">
				<title>Sheet.8</title>
				<desc>Power BI</desc>
				<v:textBlock v:margins="rect(0,0,0,0)"/>
				<v:textRect cx="63" cy="532.05" width="126" height="18.9"/>
				<rect x="0" y="522.6" width="126" height="18.9" class="st4"/>
				<text x="0" y="536.78" class="st6" v:langID="1033"><v:paragraph/><v:tabList/>Power BI</text>			</g>
			<g id="group9-17" transform="translate(78,-293.25)" v:mID="9" v:groupContext="group">
				<title>clip2</title>
				<g id="shape10-18" v:mID="10" v:groupContext="shape">
					<title>Sheet.10</title>
					<rect x="0" y="470.25" width="72.0001" height="71.2501" class="st2"/>
				</g>
			</g>
			<g id="shape11-20" v:mID="11" v:groupContext="shape" transform="translate(67.7026,-258.525)">
				<title>Sheet.11</title>
				<desc>Power Apps</desc>
				<v:textBlock v:margins="rect(0,0,0,0)"/>
				<v:textRect cx="78.75" cy="532.05" width="157.51" height="18.9"/>
				<rect x="0" y="522.6" width="157.5" height="18.9" class="st4"/>
				<text x="0" y="536.78" class="st6" v:langID="1033"><v:paragraph/><v:tabList/>Power Apps</text>			</g>
			<g id="group12-23" transform="translate(264,-292.5)" v:mID="12" v:groupContext="group">
				<title>clip6</title>
				<g id="shape13-24" v:mID="13" v:groupContext="shape">
					<title>Sheet.13</title>
					<rect x="0" y="469.5" width="72.0001" height="72.0001" class="st2"/>
				</g>
			</g>
			<g id="shape14-26" v:mID="14" v:groupContext="shape" transform="translate(239.467,-258.525)">
				<title>Sheet.14</title>
				<desc>Power Automate</desc>
				<v:textBlock v:margins="rect(0,0,0,0)"/>
				<v:textRect cx="110.25" cy="532.05" width="220.51" height="18.9"/>
				<rect x="0" y="522.6" width="220.5" height="18.9" class="st4"/>
				<text x="0" y="536.78" class="st6" v:langID="1033"><v:paragraph/><v:tabList/>Power Automate</text>			</g>
			<g id="shape15-29" v:mID="15" v:groupContext="shape" transform="translate(434.147,-258.525)">
				<title>Sheet.15</title>
				<desc>Copilot Studio</desc>
				<v:textBlock v:margins="rect(0,0,0,0)"/>
				<v:textRect cx="110.25" cy="532.05" width="220.51" height="18.9"/>
				<rect x="0" y="522.6" width="220.5" height="18.9" class="st4"/>
				<text x="0" y="536.78" class="st6" v:langID="1033"><v:paragraph/><v:tabList/>Copilot Studio</text>			</g>
			<g id="group16-32" transform="translate(641.25,-292.5)" v:mID="16" v:groupContext="group">
				<title>clip8</title>
				<g id="shape17-33" v:mID="17" v:groupContext="shape">
					<title>Sheet.17</title>
					<rect x="0" y="470.25" width="66.75" height="71.25" class="st2"/>
				</g>
			</g>
			<g id="shape18-35" v:mID="18" v:groupContext="shape" transform="translate(628.976,-260.025)">
				<title>Sheet.18</title>
				<desc>Power Pages</desc>
				<v:textBlock v:margins="rect(0,0,0,0)"/>
				<v:textRect cx="86.625" cy="532.05" width="173.25" height="18.9"/>
				<rect x="0" y="522.6" width="173.25" height="18.9" class="st4"/>
				<text x="0" y="536.78" class="st6" v:langID="1033"><v:paragraph/><v:tabList/>Power Pages</text>			</g>
			<g id="shape19-38" v:mID="19" v:groupContext="shape" transform="translate(139.928,-72.744)">
				<title>Sheet.19</title>
				<path d="M9.97 523.97 L17.78 531.91 L14.69 534.94 C14.29 535.34 13.8 535.66 13.23 535.91 C12.75 536.22 12.19 536.3
							 11.7 536.46 C11.06 536.62 10.49 536.53 9.93 536.44 C9.36 536.36 8.8 536.28 8.32 535.95 L2.79 541.39
							 L2.63 541.5 L0 538.83 L0.16 538.72 L5.69 533.28 C5.38 532.79 5.3 532.23 5.23 531.67 C5.15 531.1 5.07
							 530.54 5.24 529.89 C5.41 529.41 5.49 528.85 5.82 528.37 C6.07 527.81 6.48 527.4 6.88 527.01 L9.97 523.97
							 Z" class="st7"/>
			</g>
			<g id="shape20-41" v:mID="20" v:groupContext="shape"
					transform="translate(-210.045,818.718) rotate(44.5372) scale(1,-1)">
				<title>Sheet.20</title>
				<path d="M0 523.97 L11.14 523.97 L11.14 528.3 C11.14 528.87 11.02 529.44 10.8 530.02 C10.68 530.59 10.34 531.04 10.12
							 531.49 C9.78 532.07 9.32 532.41 8.86 532.75 C8.41 533.1 7.95 533.44 7.39 533.55 L7.39 541.31 L7.35 541.5
							 L3.6 541.5 L3.64 541.31 L3.64 533.55 C3.07 533.44 2.61 533.1 2.16 532.75 C1.7 532.41 1.25 532.07 0.91
							 531.49 C0.68 531.04 0.34 530.59 0.23 530.02 C0 529.44 0 528.87 0 528.3 L0 523.97 Z" class="st7"/>
			</g>
			<g id="shape21-44" v:mID="21" v:groupContext="shape" transform="translate(139.927,-72.744)">
				<title>Sheet.21</title>
				<path d="M9.97 523.97 L17.78 531.91 L14.7 534.94 C14.29 535.34 13.8 535.66 13.23 535.91 C12.75 536.22 12.19 536.3
							 11.7 536.46 C11.06 536.62 10.49 536.53 9.93 536.44 C9.36 536.36 8.8 536.28 8.32 535.95 L2.79 541.39
							 L2.63 541.5 L0 538.83 L0.16 538.72 L5.69 533.28 C5.38 532.79 5.3 532.23 5.23 531.67 C5.15 531.1 5.07
							 530.54 5.24 529.89 C5.41 529.41 5.49 528.85 5.82 528.37 C6.07 527.81 6.48 527.4 6.88 527.01 L9.97 523.97
							 Z" class="st2"/>
			</g>
			<g id="shape22-46" v:mID="22" v:groupContext="shape"
					transform="translate(-210.045,818.718) rotate(44.5372) scale(1,-1)">
				<title>Sheet.22</title>
				<path d="M0 523.97 L11.14 523.97 L11.14 528.3 C11.14 528.87 11.02 529.44 10.8 530.02 C10.68 530.59 10.34 531.04 10.12
							 531.49 C9.78 532.07 9.32 532.41 8.86 532.75 C8.41 533.1 7.95 533.44 7.39 533.55 L7.39 541.31 L7.35 541.5
							 L3.6 541.5 L3.64 541.31 L3.64 533.55 C3.07 533.44 2.61 533.1 2.16 532.75 C1.7 532.41 1.25 532.07 0.91
							 531.49 C0.68 531.04 0.34 530.59 0.23 530.02 C0 529.44 0 528.87 0 528.3 L0 523.97 Z" class="st2"/>
			</g>
			<g id="shape23-48" v:mID="23" v:groupContext="shape" transform="translate(148.441,-84.228)">
				<title>Sheet.23</title>
				<path d="M5.69 534.43 C6.1 534.03 6.75 534.03 7.16 534.44 C7.56 534.85 7.55 535.51 7.14 535.91 L1.87 541.1 C1.46
							 541.5 0.8 541.49 0.4 541.09 C0 540.68 0.01 540.02 0.41 539.62 L5.69 534.43 Z" class="st8"/>
			</g>
			<g id="shape24-50" v:mID="24" v:groupContext="shape" transform="translate(151.656,-80.958)">
				<title>Sheet.24</title>
				<path d="M5.69 534.43 C6.1 534.03 6.75 534.03 7.15 534.44 C7.56 534.85 7.55 535.51 7.14 535.91 L1.87 541.1 C1.46
							 541.5 0.8 541.49 0.4 541.09 C0 540.68 0.01 540.02 0.41 539.62 L5.69 534.43 Z" class="st8"/>
			</g>
			<g id="shape25-52" v:mID="25" v:groupContext="shape" transform="translate(139.628,-43.275)">
				<title>Sheet.25</title>
				<desc>Data</desc>
				<v:textBlock v:margins="rect(0,0,0,0)"/>
				<v:textRect cx="31.5" cy="532.05" width="63.01" height="18.9"/>
				<rect x="0" y="522.6" width="63" height="18.9" class="st4"/>
				<text x="0" y="536.78" class="st6" v:langID="1033"><v:paragraph/><v:tabList/>Data</text>			</g>
			<g id="shape26-55" v:mID="26" v:groupContext="shape" transform="translate(116.752,-24.525)">
				<title>Sheet.26</title>
				<desc>connectors</desc>
				<v:textBlock v:margins="rect(0,0,0,0)"/>
				<v:textRect cx="78.75" cy="532.05" width="157.51" height="18.9"/>
				<rect x="0" y="522.6" width="157.5" height="18.9" class="st4"/>
				<text x="0" y="536.78" class="st6" v:langID="1033"><v:paragraph/><v:tabList/>connectors</text>			</g>
			<g id="group27-58" transform="translate(302.25,-75)" v:mID="27" v:groupContext="group">
				<title>clip10</title>
				<g id="shape28-59" v:mID="28" v:groupContext="shape">
					<title>Sheet.28</title>
					<rect x="0" y="509.25" width="32.25" height="32.25" class="st2"/>
				</g>
			</g>
			<g id="shape29-61" v:mID="29" v:groupContext="shape" transform="translate(310.63,-43.275)">
				<title>Sheet.29</title>
				<desc>AI</desc>
				<v:textBlock v:margins="rect(0,0,0,0)"/>
				<v:textRect cx="15.75" cy="532.05" width="31.51" height="18.9"/>
				<rect x="0" y="522.6" width="31.5" height="18.9" class="st4"/>
				<text x="0" y="536.78" class="st6" v:langID="1033"><v:paragraph/><v:tabList/>AI</text>			</g>
			<g id="shape30-64" v:mID="30" v:groupContext="shape" transform="translate(292.69,-24.525)">
				<title>Sheet.30</title>
				<desc>Builder</desc>
				<v:textBlock v:margins="rect(0,0,0,0)"/>
				<v:textRect cx="55.125" cy="532.05" width="110.26" height="18.9"/>
				<rect x="0" y="522.6" width="110.25" height="18.9" class="st4"/>
				<text x="0" y="536.78" class="st6" v:langID="1033"><v:paragraph/><v:tabList/>Builder</text>			</g>
			<g id="group31-67" transform="translate(462,-72)" v:mID="31" v:groupContext="group">
				<title>clip11</title>
				<g id="shape32-68" v:mID="32" v:groupContext="shape">
					<title>Sheet.32</title>
					<rect x="0" y="505.5" width="36" height="36" class="st2"/>
				</g>
			</g>
			<g id="shape33-70" v:mID="33" v:groupContext="shape" transform="translate(445.37,-42.525)">
				<title>Sheet.33</title>
				<desc>Microsoft</desc>
				<v:textBlock v:margins="rect(0,0,0,0)"/>
				<v:textRect cx="70.875" cy="532.05" width="141.76" height="18.9"/>
				<rect x="0" y="522.6" width="141.75" height="18.9" class="st4"/>
				<text x="0" y="536.78" class="st6" v:langID="1033"><v:paragraph/><v:tabList/>Microsoft</text>			</g>
			<g id="shape34-73" v:mID="34" v:groupContext="shape" transform="translate(444.075,-23.775)">
				<title>Sheet.34</title>
				<desc>Dataverse</desc>
				<v:textBlock v:margins="rect(0,0,0,0)"/>
				<v:textRect cx="70.875" cy="532.05" width="141.76" height="18.9"/>
				<rect x="0" y="522.6" width="141.75" height="18.9" class="st4"/>
				<text x="0" y="536.78" class="st6" v:langID="1033"><v:paragraph/><v:tabList/>Dataverse</text>			</g>
			<g id="group35-76" transform="translate(624,-72)" v:mID="35" v:groupContext="group">
				<title>clip14</title>
				<g id="shape36-77" v:mID="36" v:groupContext="shape">
					<title>Sheet.36</title>
					<rect x="0" y="505.5" width="36" height="36" class="st2"/>
				</g>
			</g>
			<g id="shape37-79" v:mID="37" v:groupContext="shape" transform="translate(619.307,-41.775)">
				<title>Sheet.37</title>
				<desc>Power</desc>
				<v:textBlock v:margins="rect(0,0,0,0)"/>
				<v:textRect cx="39.375" cy="532.05" width="78.76" height="18.9"/>
				<rect x="0" y="522.6" width="78.75" height="18.9" class="st4"/>
				<text x="-0" y="536.78" class="st6" v:langID="1033"><v:paragraph/><v:tabList/>Power</text>			</g>
			<g id="shape38-82" v:mID="38" v:groupContext="shape" transform="translate(633.683,-23.025)">
				<title>Sheet.38</title>
				<desc>Fx</desc>
				<v:textBlock v:margins="rect(0,0,0,0)"/>
				<v:textRect cx="15.75" cy="532.05" width="31.51" height="18.9"/>
				<rect x="0" y="522.6" width="31.5" height="18.9" class="st4"/>
				<text x="0" y="536.78" class="st6" v:langID="1033"><v:paragraph/><v:tabList/>Fx</text>			</g>
			<g id="group39-85" transform="translate(783.75,-69.75)" v:mID="39" v:groupContext="group">
				<title>clip17</title>
				<g id="shape40-86" v:mID="40" v:groupContext="shape">
					<title>Sheet.40</title>
					<rect x="0" y="502.5" width="39" height="39" class="st2"/>
				</g>
			</g>
			<g id="shape41-88" v:mID="41" v:groupContext="shape" transform="translate(769.058,-41.025)">
				<title>Sheet.41</title>
				<desc>Managed</desc>
				<v:textBlock v:margins="rect(0,0,0,0)"/>
				<v:textRect cx="55.125" cy="532.05" width="110.26" height="18.9"/>
				<rect x="0" y="522.6" width="110.25" height="18.9" class="st4"/>
				<text x="-0" y="536.78" class="st6" v:langID="1033"><v:paragraph/><v:tabList/>Managed</text>			</g>
			<g id="shape42-91" v:mID="42" v:groupContext="shape" transform="translate(753.817,-22.275)">
				<title>Sheet.42</title>
				<desc>Environments</desc>
				<v:textBlock v:margins="rect(0,0,0,0)"/>
				<v:textRect cx="94.5" cy="532.05" width="189.01" height="18.9"/>
				<rect x="0" y="522.6" width="189" height="18.9" class="st4"/>
				<text x="-0" y="536.78" class="st6" v:langID="1033"><v:paragraph/><v:tabList/>Environments</text>			</g>
			<g id="shape43-94" v:mID="43" v:groupContext="shape" transform="translate(855.51,-230.4)">
				<title>Sheet.43</title>
				<desc>for</desc>
				<v:textBlock v:margins="rect(0,0,0,0)"/>
				<v:textRect cx="18" cy="534.3" width="36" height="14.4"/>
				<rect x="0" y="527.1" width="36" height="14.4" class="st4"/>
				<text x="0" y="537.9" class="st9" v:langID="1033"><v:paragraph/><v:tabList/>for</text>			</g>
			<g id="shape44-97" v:mID="44" v:groupContext="shape" transform="translate(820.073,-216.15)">
				<title>Sheet.44</title>
				<desc>data exploration,</desc>
				<v:textBlock v:margins="rect(0,0,0,0)"/>
				<v:textRect cx="102" cy="534.3" width="204" height="14.4"/>
				<rect x="0" y="527.1" width="204" height="14.4" class="st4"/>
				<text x="0" y="537.9" class="st9" v:langID="1033"><v:paragraph/><v:tabList/>data exploration,</text>			</g>
			<g id="shape45-100" v:mID="45" v:groupContext="shape" transform="translate(830.302,-201.9)">
				<title>Sheet.45</title>
				<desc>analytics and</desc>
				<v:textBlock v:margins="rect(0,0,0,0)"/>
				<v:textRect cx="78" cy="534.3" width="156" height="14.4"/>
				<rect x="0" y="527.1" width="156" height="14.4" class="st4"/>
				<text x="0" y="537.9" class="st9" v:langID="1033"><v:paragraph/><v:tabList/>analytics and</text>			</g>
			<g id="shape46-103" v:mID="46" v:groupContext="shape" transform="translate(839.79,-187.65)">
				<title>Sheet.46</title>
				<desc>reporting</desc>
				<v:textBlock v:margins="rect(0,0,0,0)"/>
				<v:textRect cx="54" cy="534.3" width="108" height="14.4"/>
				<rect x="0" y="527.1" width="108" height="14.4" class="st4"/>
				<text x="0" y="537.9" class="st9" v:langID="1033"><v:paragraph/><v:tabList/>reporting</text>			</g>
			<g id="shape47-106" v:mID="47" v:groupContext="shape" transform="translate(667.84,-230.4)">
				<title>Sheet.47</title>
				<desc>for</desc>
				<v:textBlock v:margins="rect(0,0,0,0)"/>
				<v:textRect cx="18" cy="534.3" width="36" height="14.4"/>
				<rect x="0" y="527.1" width="36" height="14.4" class="st4"/>
				<text x="0" y="537.9" class="st9" v:langID="1033"><v:paragraph/><v:tabList/>for</text>			</g>
			<g id="shape48-109" v:mID="48" v:groupContext="shape" transform="translate(633.73,-216.15)">
				<title>Sheet.48</title>
				<desc>building secure,</desc>
				<v:textBlock v:margins="rect(0,0,0,0)"/>
				<v:textRect cx="96" cy="534.3" width="192" height="14.4"/>
				<rect x="0" y="527.1" width="192" height="14.4" class="st4"/>
				<text x="-0" y="537.9" class="st9" v:langID="1033"><v:paragraph/><v:tabList/>building secure,</text>			</g>
			<g id="shape49-112" v:mID="49" v:groupContext="shape" transform="translate(645.215,-201.9)">
				<title>Sheet.49</title>
				<desc>data</desc>
				<v:textBlock v:margins="rect(0,0,0,0)"/>
				<v:textRect cx="24" cy="534.3" width="48" height="14.4"/>
				<rect x="0" y="527.1" width="48" height="14.4" class="st4"/>
				<text x="-0" y="537.9" class="st9" v:langID="1033"><v:paragraph/><v:tabList/>data</text>			</g>
			<g id="shape50-115" v:mID="50" v:groupContext="shape" transform="translate(668.715,-201.9)">
				<title>Sheet.50</title>
				<desc>-</desc>
				<v:textBlock v:margins="rect(0,0,0,0)"/>
				<v:textRect cx="6" cy="534.3" width="12.01" height="14.4"/>
				<rect x="0" y="527.1" width="12" height="14.4" class="st4"/>
				<text x="-0" y="537.9" class="st9" v:langID="1033"><v:paragraph/><v:tabList/>-</text>			</g>
			<g id="shape51-118" v:mID="51" v:groupContext="shape" transform="translate(673.465,-201.9)">
				<title>Sheet.51</title>
				<desc>centric</desc>
				<v:textBlock v:margins="rect(0,0,0,0)"/>
				<v:textRect cx="42" cy="534.3" width="84" height="14.4"/>
				<rect x="0" y="527.1" width="84" height="14.4" class="st4"/>
				<text x="0" y="537.9" class="st9" v:langID="1033"><v:paragraph/><v:tabList/>centric</text>			</g>
			<g id="shape52-121" v:mID="52" v:groupContext="shape" transform="translate(628.54,-187.65)">
				<title>Sheet.52</title>
				<desc>business websites</desc>
				<v:textBlock v:margins="rect(0,0,0,0)"/>
				<v:textRect cx="102" cy="534.3" width="204" height="14.4"/>
				<rect x="0" y="527.1" width="204" height="14.4" class="st4"/>
				<text x="0" y="537.9" class="st9" v:langID="1033"><v:paragraph/><v:tabList/>business websites</text>			</g>
			<g id="shape53-124" v:mID="53" v:groupContext="shape" transform="translate(481.857,-229.65)">
				<title>Sheet.53</title>
				<desc>for</desc>
				<v:textBlock v:margins="rect(0,0,0,0)"/>
				<v:textRect cx="18" cy="534.3" width="36" height="14.4"/>
				<rect x="0" y="527.1" width="36" height="14.4" class="st4"/>
				<text x="0" y="537.9" class="st9" v:langID="1033"><v:paragraph/><v:tabList/>for</text>			</g>
			<g id="shape54-127" v:mID="54" v:groupContext="shape" transform="translate(456.312,-215.4)">
				<title>Sheet.54</title>
				<desc>creating and</desc>
				<v:textBlock v:margins="rect(0,0,0,0)"/>
				<v:textRect cx="72" cy="534.3" width="144" height="14.4"/>
				<rect x="0" y="527.1" width="144" height="14.4" class="st4"/>
				<text x="0" y="537.9" class="st9" v:langID="1033"><v:paragraph/><v:tabList/>creating and</text>			</g>
			<g id="shape55-130" v:mID="55" v:groupContext="shape" transform="translate(457.403,-201.15)">
				<title>Sheet.55</title>
				<desc>customizing</desc>
				<v:textBlock v:margins="rect(0,0,0,0)"/>
				<v:textRect cx="66" cy="534.3" width="132.01" height="14.4"/>
				<rect x="0" y="527.1" width="132" height="14.4" class="st4"/>
				<text x="0" y="537.9" class="st9" v:langID="1033"><v:paragraph/><v:tabList/>customizing</text>			</g>
			<g id="shape56-133" v:mID="56" v:groupContext="shape" transform="translate(467.607,-186.9)">
				<title>Sheet.56</title>
				<desc>Copilots</desc>
				<v:textBlock v:margins="rect(0,0,0,0)"/>
				<v:textRect cx="48" cy="534.3" width="96" height="14.4"/>
				<rect x="0" y="527.1" width="96" height="14.4" class="st4"/>
				<text x="0" y="537.9" class="st9" v:langID="1033"><v:paragraph/><v:tabList/>Copilots</text>			</g>
			<g id="shape57-136" v:mID="57" v:groupContext="shape" transform="translate(292.565,-230.4)">
				<title>Sheet.57</title>
				<desc>for</desc>
				<v:textBlock v:margins="rect(0,0,0,0)"/>
				<v:textRect cx="18" cy="534.3" width="36" height="14.4"/>
				<rect x="0" y="527.1" width="36" height="14.4" class="st4"/>
				<text x="0" y="537.9" class="st9" v:langID="1033"><v:paragraph/><v:tabList/>for</text>			</g>
			<g id="shape58-139" v:mID="58" v:groupContext="shape" transform="translate(280.02,-216.15)">
				<title>Sheet.58</title>
				<desc>process</desc>
				<v:textBlock v:margins="rect(0,0,0,0)"/>
				<v:textRect cx="42" cy="534.3" width="84" height="14.4"/>
				<rect x="0" y="527.1" width="84" height="14.4" class="st4"/>
				<text x="0" y="537.9" class="st9" v:langID="1033"><v:paragraph/><v:tabList/>process</text>			</g>
			<g id="shape59-142" v:mID="59" v:groupContext="shape" transform="translate(268.83,-201.9)">
				<title>Sheet.59</title>
				<desc>or workflow</desc>
				<v:textBlock v:margins="rect(0,0,0,0)"/>
				<v:textRect cx="66" cy="534.3" width="132.01" height="14.4"/>
				<rect x="0" y="527.1" width="132" height="14.4" class="st4"/>
				<text x="0" y="537.9" class="st9" v:langID="1033"><v:paragraph/><v:tabList/>or workflow</text>			</g>
			<g id="shape60-145" v:mID="60" v:groupContext="shape" transform="translate(269.425,-187.65)">
				<title>Sheet.60</title>
				<desc>automation</desc>
				<v:textBlock v:margins="rect(0,0,0,0)"/>
				<v:textRect cx="60" cy="534.3" width="120.01" height="14.4"/>
				<rect x="0" y="527.1" width="120" height="14.4" class="st4"/>
				<text x="0" y="537.9" class="st9" v:langID="1033"><v:paragraph/><v:tabList/>automation</text>			</g>
			<g id="shape61-148" v:mID="61" v:groupContext="shape" transform="translate(103.27,-230.4)">
				<title>Sheet.61</title>
				<desc>for</desc>
				<v:textBlock v:margins="rect(0,0,0,0)"/>
				<v:textRect cx="18" cy="534.3" width="36" height="14.4"/>
				<rect x="0" y="527.1" width="36" height="14.4" class="st4"/>
				<text x="-0" y="537.9" class="st9" v:langID="1033"><v:paragraph/><v:tabList/>for</text>			</g>
			<g id="shape62-151" v:mID="62" v:groupContext="shape" transform="translate(68.36,-216.15)">
				<title>Sheet.62</title>
				<desc>web and mobile</desc>
				<v:textBlock v:margins="rect(0,0,0,0)"/>
				<v:textRect cx="84" cy="534.3" width="168.01" height="14.4"/>
				<rect x="0" y="527.1" width="168" height="14.4" class="st4"/>
				<text x="-0" y="537.9" class="st9" v:langID="1033"><v:paragraph/><v:tabList/>web and mobile</text>			</g>
			<g id="shape63-154" v:mID="63" v:groupContext="shape" transform="translate(81.5797,-201.9)">
				<title>Sheet.63</title>
				<desc>application</desc>
				<v:textBlock v:margins="rect(0,0,0,0)"/>
				<v:textRect cx="66" cy="534.3" width="132.01" height="14.4"/>
				<rect x="0" y="527.1" width="132" height="14.4" class="st4"/>
				<text x="-0" y="537.9" class="st9" v:langID="1033"><v:paragraph/><v:tabList/>application</text>			</g>
			<g id="shape64-157" v:mID="64" v:groupContext="shape" transform="translate(75.8648,-187.65)">
				<title>Sheet.64</title>
				<desc>development</desc>
				<v:textBlock v:margins="rect(0,0,0,0)"/>
				<v:textRect cx="66" cy="534.3" width="132.01" height="14.4"/>
				<rect x="0" y="527.1" width="132" height="14.4" class="st4"/>
				<text x="0" y="537.9" class="st9" v:langID="1033"><v:paragraph/><v:tabList/>development</text>			</g>
			<g id="shape65-160" v:mID="65" v:groupContext="shape" transform="translate(82.2053,-416.55)">
				<title>Sheet.65</title>
				<desc>A comprehensive set of integrated, low-code development tools</desc>
				<v:textBlock v:margins="rect(0,0,0,0)" v:verticalAlign="0"/>
				<v:textRect cx="480" cy="527.1" width="960" height="28.8"/>
				<rect x="0" y="512.7" width="960" height="28.8" class="st4"/>
				<text x="0" y="534.3" class="st10" v:langID="1033"><v:paragraph/><v:tabList/>A comprehensive set of integrated, low-code development tools</text>			</g>
			<g id="group66-163" transform="translate(450,-288)" v:mID="66" v:groupContext="group">
				<title>clip20</title>
				<g id="shape67-164" v:mID="67" v:groupContext="shape">
					<title>Sheet.67</title>
					<rect x="0" y="465.75" width="75.7501" height="75.7501" class="st2"/>
				</g>
			</g>
		</g>
	</g>
</svg>
