<?xml version="1.0" encoding="utf-8"?>
<!-- Generator: Adobe Illustrator 28.3.0, SVG Export Plug-In . SVG Version: 6.00 Build 0)  -->
<svg version="1.1" xmlns="http://www.w3.org/2000/svg" xmlns:xlink="http://www.w3.org/1999/xlink" x="0px" y="0px"
	 viewBox="0 0 752.4 126.234" enable-background="new 0 0 752.4 126.234" xml:space="preserve">
<symbol  id="PIPELINE" viewBox="-32 -12.266 64 24.531">
	<linearGradient id="SVGID_1_" gradientUnits="userSpaceOnUse" x1="0" y1="-12.2655" x2="1.502093e-15" y2="12.2655">
		<stop  offset="0" style="stop-color:#1B89B2"/>
		<stop  offset="1" style="stop-color:#51C8E8"/>
	</linearGradient>
	<path fill="url(#SVGID_1_)" d="M26.096,12.266h-51.448v0h0C-29.08,12.265-32,6.878-32,0s2.92-12.265,6.648-12.265h0v0h51.448
		C29.356-12.266,32-6.363,32,0S29.356,12.266,26.096,12.266z"/>
	<g>
		
			<linearGradient id="SVGID_00000097498464339946232100000014542623632757653412_" gradientUnits="userSpaceOnUse" x1="-31.461" y1="-6.1136" x2="-19.2338" y2="6.1136">
			<stop  offset="0" style="stop-color:#B3B4B4"/>
			<stop  offset="1" style="stop-color:#4F4F4F"/>
		</linearGradient>
		<ellipse fill="url(#SVGID_00000097498464339946232100000014542623632757653412_)" cx="-25.347" cy="0" rx="5.575" ry="10.879"/>
	</g>
</symbol>
<g id="Shapes">
	<rect fill="#FFFFFF" width="752.4" height="126.234"/>
	<g id="Wrench_tool_x28_s_x29_">
	</g>
	<g id="user2">
	</g>
	<g id="user2_1_">
	</g>
	<g id="user2_4_">
	</g>
	<g id="user2_3_">
	</g>
	<g id="user2_2_">
	</g>
	<g id="Internet_2">
	</g>
	<g id="Enterprise">
	</g>
	<g id="Tunnel__x28_stackable_x29_">
	</g>
	<g id="New_Symbol">
	</g>
	<g id="New_Symbol_1">
	</g>
	<g id="Files">
	</g>
	<g id="BlobBlock">
	</g>
	<g id="E_x5F_Enterprise">
	</g>
	<g id="E_x5F_AD_FS">
	</g>
	<g id="C_x5F_Azure_Active_Directory">
	</g>
	<g>
		<g opacity="0.3">
			<rect x="14.351" y="36.803" fill="#212121" width="145.2" height="48.4"/>
			<rect x="14.351" y="36.803" fill="#212121" width="145.2" height="48.4"/>
		</g>
		<g>
			<rect x="13.351" y="35.803" fill="#FFFFFF" width="145.2" height="48.4"/>
			<rect x="13.351" y="35.803" fill="#8DC8E8" width="145.2" height="48.4"/>
		</g>
	</g>
	<g>
		<g opacity="0.3">
			<rect x="216.147" y="36.803" fill="#212121" width="145.2" height="48.4"/>
			<rect x="216.147" y="36.803" fill="#212121" width="145.2" height="48.4"/>
		</g>
		<g>
			<rect x="215.147" y="35.803" fill="#FFFFFF" width="145.2" height="48.4"/>
			<rect x="215.147" y="35.803" fill="#8DC8E8" width="145.2" height="48.4"/>
		</g>
	</g>
	<g>
		<g opacity="0.3">
			<rect x="392.147" y="36.803" fill="#212121" width="145.2" height="48.4"/>
			<rect x="392.147" y="36.803" fill="#212121" width="145.2" height="48.4"/>
		</g>
		<g>
			<rect x="391.147" y="35.803" fill="#FFFFFF" width="145.2" height="48.4"/>
			<rect x="391.147" y="35.803" fill="#8DC8E8" width="145.2" height="48.4"/>
		</g>
	</g>
	<g>
		<g>
			<line fill="none" stroke="#3C3C41" stroke-miterlimit="10" x1="162.649" y1="60.003" x2="205.667" y2="60.003"/>
			<g>
				<polygon fill="#3C3C41" points="204.573,63.743 211.049,60.003 204.573,56.263 				"/>
			</g>
		</g>
	</g>
	<g>
		<g>
			<line fill="none" stroke="#3C3C41" stroke-miterlimit="10" x1="365.049" y1="60.003" x2="381.667" y2="60.003"/>
			<g>
				<polygon fill="#3C3C41" points="380.573,63.743 387.049,60.003 380.573,56.263 				"/>
			</g>
		</g>
	</g>
	<g>
		<g opacity="0.3">
			<rect x="567.15" y="36.803" fill="#212121" width="145.998" height="48.4"/>
			<rect x="567.15" y="36.803" fill="#212121" width="145.998" height="48.4"/>
		</g>
		<g>
			<rect x="566.15" y="35.803" fill="#FFFFFF" width="145.998" height="48.4"/>
			<rect x="566.15" y="35.803" fill="#8DC8E8" width="145.998" height="48.4"/>
		</g>
	</g>
	<g>
		<g>
			<line fill="none" stroke="#3C3C41" stroke-miterlimit="10" x1="541.049" y1="60.003" x2="557.667" y2="60.003"/>
			<g>
				<polygon fill="#3C3C41" points="556.573,63.743 563.049,60.003 556.573,56.263 				"/>
			</g>
		</g>
	</g>
	<g>
		<path fill="none" stroke="#2F2F2F" stroke-width="1.5" stroke-miterlimit="10" d="M730.649,14.353c2.2,0,4,1.8,4,4v84.4
			c0,2.2-1.8,4-4,4h-533.2c-2.2,0-4-1.8-4-4v-84.4c0-2.2,1.8-4,4-4H730.649z"/>
	</g>
	<g>
		<g>
			
				<line fill="none" stroke="#2F2F2F" stroke-width="1.5" stroke-miterlimit="10" x1="690.649" y1="14.353" x2="697.096" y2="14.353"/>
			<g>
				<path fill="#2F2F2F" d="M687.87,20.833c-0.2-0.314-0.107-0.732,0.207-0.932l8.711-5.548l-8.711-5.548
					c-0.314-0.2-0.407-0.618-0.207-0.932c0.2-0.314,0.62-0.405,0.932-0.207l9.605,6.117c0.194,0.124,0.312,0.339,0.312,0.57
					s-0.118,0.446-0.312,0.57l-9.605,6.117c-0.112,0.071-0.238,0.105-0.362,0.105C688.217,21.145,687.999,21.035,687.87,20.833z"/>
			</g>
		</g>
	</g>
	<g>
		<g>
			
				<line fill="none" stroke="#2F2F2F" stroke-width="1.5" stroke-miterlimit="10" x1="514.649" y1="14.353" x2="521.096" y2="14.353"/>
			<g>
				<path fill="#2F2F2F" d="M511.87,20.833c-0.2-0.314-0.107-0.732,0.207-0.932l8.711-5.548l-8.711-5.548
					c-0.314-0.2-0.407-0.618-0.207-0.932c0.2-0.314,0.62-0.405,0.932-0.207l9.605,6.117c0.194,0.124,0.312,0.339,0.312,0.57
					s-0.118,0.446-0.312,0.57l-9.605,6.117c-0.112,0.071-0.238,0.105-0.362,0.105C512.217,21.145,511.999,21.035,511.87,20.833z"/>
			</g>
		</g>
	</g>
	<g>
		<g>
			
				<line fill="none" stroke="#2F2F2F" stroke-width="1.5" stroke-miterlimit="10" x1="338.649" y1="14.353" x2="345.096" y2="14.353"/>
			<g>
				<path fill="#2F2F2F" d="M335.87,20.833c-0.2-0.314-0.107-0.732,0.207-0.932l8.711-5.548l-8.711-5.548
					c-0.314-0.2-0.407-0.618-0.207-0.932c0.2-0.314,0.62-0.405,0.932-0.207l9.605,6.117c0.194,0.124,0.312,0.339,0.312,0.57
					s-0.118,0.446-0.312,0.57l-9.605,6.117c-0.112,0.071-0.238,0.105-0.362,0.105C336.217,21.145,335.999,21.035,335.87,20.833z"/>
			</g>
		</g>
	</g>
	<g>
		<g>
			
				<line fill="none" stroke="#2F2F2F" stroke-width="1.5" stroke-miterlimit="10" x1="591.802" y1="106.753" x2="598.249" y2="106.753"/>
			<g>
				<path fill="#2F2F2F" d="M601.028,113.233c0.2-0.314,0.107-0.732-0.207-0.932l-8.711-5.548l8.711-5.548
					c0.314-0.2,0.407-0.618,0.207-0.932c-0.2-0.314-0.62-0.405-0.932-0.207l-9.605,6.117c-0.194,0.124-0.312,0.339-0.312,0.57
					s0.118,0.446,0.312,0.57l9.605,6.117c0.112,0.071,0.238,0.105,0.362,0.105C600.681,113.545,600.899,113.435,601.028,113.233z"/>
			</g>
		</g>
	</g>
	<g>
		<g>
			
				<line fill="none" stroke="#2F2F2F" stroke-width="1.5" stroke-miterlimit="10" x1="407.002" y1="106.753" x2="413.449" y2="106.753"/>
			<g>
				<path fill="#2F2F2F" d="M416.228,113.233c0.2-0.314,0.107-0.732-0.207-0.932l-8.711-5.548l8.711-5.548
					c0.314-0.2,0.407-0.618,0.207-0.932c-0.2-0.314-0.62-0.405-0.932-0.207l-9.605,6.117c-0.194,0.124-0.312,0.339-0.312,0.57
					s0.118,0.446,0.312,0.57l9.605,6.117c0.112,0.071,0.238,0.105,0.362,0.105C415.881,113.545,416.099,113.435,416.228,113.233z"/>
			</g>
		</g>
	</g>
	<g>
		<g>
			
				<line fill="none" stroke="#2F2F2F" stroke-width="1.5" stroke-miterlimit="10" x1="231.002" y1="106.753" x2="237.449" y2="106.753"/>
			<g>
				<path fill="#2F2F2F" d="M240.228,113.233c0.2-0.314,0.107-0.732-0.207-0.932l-8.711-5.548l8.711-5.548
					c0.314-0.2,0.407-0.618,0.207-0.932c-0.2-0.314-0.62-0.405-0.932-0.207l-9.605,6.117c-0.194,0.124-0.312,0.339-0.312,0.57
					s0.118,0.446,0.312,0.57l9.605,6.117c0.112,0.071,0.238,0.105,0.362,0.105C239.881,113.545,240.099,113.435,240.228,113.233z"/>
			</g>
		</g>
	</g>
	<g>
		<g>
			
				<line fill="none" stroke="#2F2F2F" stroke-width="1.5" stroke-miterlimit="10" x1="734.649" y1="58.353" x2="734.649" y2="66.312"/>
			<g>
				<path fill="#2F2F2F" d="M728.169,57.086c0.314-0.2,0.732-0.107,0.932,0.207l5.548,8.711l5.548-8.711
					c0.2-0.314,0.618-0.407,0.932-0.207s0.405,0.62,0.207,0.932l-6.117,9.605c-0.124,0.194-0.339,0.312-0.57,0.312
					s-0.446-0.118-0.57-0.312l-6.117-9.605c-0.071-0.112-0.105-0.238-0.105-0.362C727.857,57.433,727.968,57.215,728.169,57.086z"/>
			</g>
		</g>
	</g>
	<g>
		<g>
			
				<line fill="none" stroke="#2F2F2F" stroke-width="1.5" stroke-miterlimit="10" x1="193.449" y1="37.194" x2="193.449" y2="45.153"/>
			<g>
				<path fill="#2F2F2F" d="M186.969,46.42c0.314,0.2,0.732,0.107,0.932-0.207l5.548-8.711l5.548,8.711
					c0.2,0.314,0.618,0.407,0.932,0.207c0.314-0.2,0.405-0.62,0.207-0.932l-6.117-9.605c-0.124-0.194-0.339-0.312-0.57-0.312
					s-0.446,0.118-0.57,0.312l-6.117,9.605c-0.071,0.112-0.105,0.238-0.105,0.362C186.657,46.073,186.768,46.291,186.969,46.42z"/>
			</g>
		</g>
	</g>
</g>
<g id="Text">
	<g>
		<path fill="#2F2F2F" d="M63.673,60.776v3.377h-2.208V54.35h3.459c2.47,0,3.705,1.042,3.705,3.124c0,0.984-0.354,1.781-1.063,2.389
			s-1.655,0.913-2.84,0.913H63.673z M63.673,56.046v3.056h0.868c1.176,0,1.764-0.515,1.764-1.545c0-1.007-0.588-1.511-1.764-1.511
			H63.673z"/>
		<path fill="#2F2F2F" d="M74.298,59.101c-0.26-0.141-0.563-0.212-0.909-0.212c-0.469,0-0.836,0.172-1.101,0.516
			s-0.396,0.812-0.396,1.405v3.343h-2.16v-7h2.16v1.299h0.027c0.342-0.948,0.957-1.422,1.846-1.422c0.228,0,0.406,0.027,0.533,0.082
			V59.101z"/>
		<path fill="#2F2F2F" d="M81.671,61.268h-4.566c0.073,1.016,0.713,1.524,1.921,1.524c0.77,0,1.447-0.182,2.03-0.547v1.559
			c-0.647,0.346-1.488,0.52-2.522,0.52c-1.13,0-2.007-0.313-2.632-0.94s-0.937-1.5-0.937-2.622c0-1.162,0.337-2.083,1.012-2.762
			s1.504-1.019,2.488-1.019c1.021,0,1.811,0.303,2.369,0.909s0.837,1.429,0.837,2.468V61.268z M79.668,59.942
			c0-1.002-0.406-1.504-1.217-1.504c-0.346,0-0.646,0.144-0.899,0.431s-0.407,0.645-0.461,1.073H79.668z"/>
		<path fill="#2F2F2F" d="M85.222,63.339h-0.027v4.033h-2.16v-10.22h2.16v1.053h0.027c0.533-0.816,1.283-1.224,2.249-1.224
			c0.907,0,1.607,0.311,2.102,0.933s0.742,1.469,0.742,2.54c0,1.167-0.288,2.103-0.865,2.81s-1.343,1.06-2.3,1.06
			C86.307,64.324,85.664,63.996,85.222,63.339z M85.161,60.468v0.561c0,0.483,0.127,0.877,0.383,1.183s0.59,0.458,1.005,0.458
			c0.492,0,0.874-0.19,1.145-0.571s0.407-0.919,0.407-1.617c0-1.23-0.479-1.846-1.436-1.846c-0.442,0-0.803,0.167-1.083,0.502
			S85.161,59.917,85.161,60.468z"/>
		<path fill="#2F2F2F" d="M97.547,64.153h-2.044v-1.005h-0.027c-0.469,0.784-1.165,1.176-2.085,1.176
			c-0.679,0-1.213-0.192-1.603-0.578s-0.584-0.899-0.584-1.542c0-1.358,0.804-2.142,2.413-2.352l1.9-0.253
			c0-0.766-0.415-1.148-1.244-1.148c-0.834,0-1.627,0.249-2.379,0.745V57.57c0.301-0.155,0.712-0.292,1.234-0.41
			s0.997-0.178,1.425-0.178c1.996,0,2.994,0.996,2.994,2.987V64.153z M95.517,61.309v-0.472l-1.271,0.164
			c-0.702,0.091-1.053,0.408-1.053,0.95c0,0.246,0.085,0.448,0.256,0.605s0.402,0.236,0.694,0.236c0.406,0,0.736-0.14,0.991-0.42
			S95.517,61.737,95.517,61.309z"/>
		<path fill="#2F2F2F" d="M103.81,59.101c-0.26-0.141-0.563-0.212-0.909-0.212c-0.469,0-0.836,0.172-1.101,0.516
			s-0.396,0.812-0.396,1.405v3.343h-2.16v-7h2.16v1.299h0.027c0.342-0.948,0.957-1.422,1.846-1.422c0.228,0,0.406,0.027,0.533,0.082
			V59.101z"/>
		<path fill="#2F2F2F" d="M111.183,61.268h-4.566c0.073,1.016,0.713,1.524,1.921,1.524c0.77,0,1.447-0.182,2.03-0.547v1.559
			c-0.647,0.346-1.488,0.52-2.522,0.52c-1.13,0-2.007-0.313-2.632-0.94s-0.937-1.5-0.937-2.622c0-1.162,0.337-2.083,1.012-2.762
			s1.504-1.019,2.488-1.019c1.021,0,1.811,0.303,2.369,0.909s0.837,1.429,0.837,2.468V61.268z M109.18,59.942
			c0-1.002-0.406-1.504-1.217-1.504c-0.346,0-0.646,0.144-0.899,0.431s-0.407,0.645-0.461,1.073H109.18z"/>
	</g>
	<g>
		<path fill="#2F2F2F" d="M276.1,64.153h-2.406l-0.697-2.181h-3.486l-0.69,2.181h-2.393l3.568-9.803h2.618L276.1,64.153z
			 M272.49,60.277l-1.053-3.295c-0.078-0.246-0.132-0.54-0.164-0.882h-0.055c-0.023,0.287-0.08,0.572-0.171,0.854l-1.066,3.322
			H272.49z"/>
		<path fill="#2F2F2F" d="M276.863,63.968v-1.75c0.355,0.214,0.71,0.374,1.063,0.479s0.687,0.157,1.001,0.157
			c0.383,0,0.685-0.052,0.906-0.157s0.332-0.264,0.332-0.479c0-0.137-0.05-0.25-0.15-0.342s-0.229-0.171-0.386-0.239
			s-0.329-0.13-0.516-0.185s-0.367-0.116-0.54-0.185c-0.278-0.105-0.523-0.218-0.735-0.338s-0.39-0.261-0.533-0.42
			s-0.253-0.344-0.328-0.554s-0.113-0.458-0.113-0.745c0-0.392,0.085-0.729,0.256-1.012s0.399-0.514,0.684-0.694
			s0.611-0.312,0.978-0.396s0.749-0.126,1.145-0.126c0.31,0,0.625,0.024,0.943,0.072s0.633,0.117,0.943,0.208v1.668
			c-0.273-0.16-0.566-0.279-0.878-0.359s-0.619-0.12-0.919-0.12c-0.141,0-0.274,0.013-0.4,0.038s-0.236,0.062-0.332,0.109
			s-0.171,0.109-0.226,0.185s-0.082,0.161-0.082,0.256c0,0.127,0.041,0.237,0.123,0.328s0.189,0.17,0.321,0.236
			s0.279,0.125,0.441,0.178s0.322,0.106,0.482,0.161c0.287,0.1,0.547,0.209,0.779,0.328s0.432,0.257,0.598,0.417
			s0.294,0.346,0.383,0.561s0.133,0.469,0.133,0.766c0,0.415-0.09,0.769-0.27,1.063s-0.419,0.533-0.718,0.718
			s-0.643,0.319-1.032,0.403s-0.794,0.126-1.213,0.126C278.233,64.324,277.52,64.205,276.863,63.968z"/>
		<path fill="#2F2F2F" d="M283.176,63.968v-1.75c0.355,0.214,0.71,0.374,1.063,0.479s0.687,0.157,1.001,0.157
			c0.383,0,0.685-0.052,0.906-0.157s0.332-0.264,0.332-0.479c0-0.137-0.05-0.25-0.15-0.342s-0.229-0.171-0.386-0.239
			s-0.329-0.13-0.516-0.185s-0.367-0.116-0.54-0.185c-0.278-0.105-0.523-0.218-0.735-0.338s-0.39-0.261-0.533-0.42
			s-0.253-0.344-0.328-0.554s-0.113-0.458-0.113-0.745c0-0.392,0.085-0.729,0.256-1.012s0.399-0.514,0.684-0.694
			s0.611-0.312,0.978-0.396s0.749-0.126,1.145-0.126c0.31,0,0.625,0.024,0.943,0.072s0.633,0.117,0.943,0.208v1.668
			c-0.273-0.16-0.566-0.279-0.878-0.359s-0.619-0.12-0.919-0.12c-0.141,0-0.274,0.013-0.4,0.038s-0.236,0.062-0.332,0.109
			s-0.171,0.109-0.226,0.185s-0.082,0.161-0.082,0.256c0,0.127,0.041,0.237,0.123,0.328s0.189,0.17,0.321,0.236
			s0.279,0.125,0.441,0.178s0.322,0.106,0.482,0.161c0.287,0.1,0.547,0.209,0.779,0.328s0.432,0.257,0.598,0.417
			s0.294,0.346,0.383,0.561s0.133,0.469,0.133,0.766c0,0.415-0.09,0.769-0.27,1.063s-0.419,0.533-0.718,0.718
			s-0.643,0.319-1.032,0.403s-0.794,0.126-1.213,0.126C284.546,64.324,283.833,64.205,283.176,63.968z"/>
		<path fill="#2F2F2F" d="M296.126,61.268h-4.566c0.073,1.016,0.713,1.524,1.921,1.524c0.77,0,1.447-0.182,2.03-0.547v1.559
			c-0.647,0.346-1.488,0.52-2.522,0.52c-1.13,0-2.007-0.313-2.632-0.94s-0.937-1.5-0.937-2.622c0-1.162,0.337-2.083,1.012-2.762
			s1.504-1.019,2.488-1.019c1.021,0,1.811,0.303,2.369,0.909s0.837,1.429,0.837,2.468V61.268z M294.123,59.942
			c0-1.002-0.406-1.504-1.217-1.504c-0.346,0-0.646,0.144-0.899,0.431s-0.407,0.645-0.461,1.073H294.123z"/>
		<path fill="#2F2F2F" d="M297.114,63.968v-1.75c0.355,0.214,0.71,0.374,1.063,0.479s0.687,0.157,1.001,0.157
			c0.383,0,0.685-0.052,0.906-0.157s0.332-0.264,0.332-0.479c0-0.137-0.05-0.25-0.15-0.342s-0.229-0.171-0.386-0.239
			s-0.329-0.13-0.516-0.185s-0.367-0.116-0.54-0.185c-0.278-0.105-0.523-0.218-0.735-0.338s-0.39-0.261-0.533-0.42
			s-0.253-0.344-0.328-0.554s-0.113-0.458-0.113-0.745c0-0.392,0.085-0.729,0.256-1.012s0.399-0.514,0.684-0.694
			s0.611-0.312,0.978-0.396s0.749-0.126,1.145-0.126c0.31,0,0.625,0.024,0.943,0.072s0.633,0.117,0.943,0.208v1.668
			c-0.273-0.16-0.566-0.279-0.878-0.359s-0.619-0.12-0.919-0.12c-0.141,0-0.274,0.013-0.4,0.038s-0.236,0.062-0.332,0.109
			s-0.171,0.109-0.226,0.185s-0.082,0.161-0.082,0.256c0,0.127,0.041,0.237,0.123,0.328s0.189,0.17,0.321,0.236
			s0.279,0.125,0.441,0.178s0.322,0.106,0.482,0.161c0.287,0.1,0.547,0.209,0.779,0.328s0.432,0.257,0.598,0.417
			s0.294,0.346,0.383,0.561s0.133,0.469,0.133,0.766c0,0.415-0.09,0.769-0.27,1.063s-0.419,0.533-0.718,0.718
			s-0.643,0.319-1.032,0.403s-0.794,0.126-1.213,0.126C298.484,64.324,297.771,64.205,297.114,63.968z"/>
		<path fill="#2F2F2F" d="M303.427,63.968v-1.75c0.355,0.214,0.71,0.374,1.063,0.479s0.687,0.157,1.001,0.157
			c0.383,0,0.685-0.052,0.906-0.157s0.332-0.264,0.332-0.479c0-0.137-0.05-0.25-0.15-0.342s-0.229-0.171-0.386-0.239
			s-0.329-0.13-0.516-0.185s-0.367-0.116-0.54-0.185c-0.278-0.105-0.523-0.218-0.735-0.338s-0.39-0.261-0.533-0.42
			s-0.253-0.344-0.328-0.554s-0.113-0.458-0.113-0.745c0-0.392,0.085-0.729,0.256-1.012s0.399-0.514,0.684-0.694
			s0.611-0.312,0.978-0.396s0.749-0.126,1.145-0.126c0.31,0,0.625,0.024,0.943,0.072s0.633,0.117,0.943,0.208v1.668
			c-0.273-0.16-0.566-0.279-0.878-0.359s-0.619-0.12-0.919-0.12c-0.141,0-0.274,0.013-0.4,0.038s-0.236,0.062-0.332,0.109
			s-0.171,0.109-0.226,0.185s-0.082,0.161-0.082,0.256c0,0.127,0.041,0.237,0.123,0.328s0.189,0.17,0.321,0.236
			s0.279,0.125,0.441,0.178s0.322,0.106,0.482,0.161c0.287,0.1,0.547,0.209,0.779,0.328s0.432,0.257,0.598,0.417
			s0.294,0.346,0.383,0.561s0.133,0.469,0.133,0.766c0,0.415-0.09,0.769-0.27,1.063s-0.419,0.533-0.718,0.718
			s-0.643,0.319-1.032,0.403s-0.794,0.126-1.213,0.126C304.797,64.324,304.084,64.205,303.427,63.968z"/>
	</g>
	<g>
		<path fill="#2F2F2F" d="M441.585,64.153V54.35h3.473c3.482,0,5.223,1.593,5.223,4.778c0,1.527-0.475,2.746-1.425,3.657
			s-2.216,1.367-3.797,1.367H441.585z M443.793,56.148v6.214h1.094c0.957,0,1.708-0.287,2.252-0.861s0.817-1.356,0.817-2.345
			c0-0.934-0.27-1.669-0.81-2.205s-1.298-0.803-2.273-0.803H443.793z"/>
		<path fill="#2F2F2F" d="M457.977,61.268h-4.566c0.073,1.016,0.713,1.524,1.921,1.524c0.77,0,1.447-0.182,2.03-0.547v1.559
			c-0.647,0.346-1.488,0.52-2.522,0.52c-1.13,0-2.007-0.313-2.632-0.94s-0.937-1.5-0.937-2.622c0-1.162,0.337-2.083,1.012-2.762
			s1.504-1.019,2.488-1.019c1.021,0,1.811,0.303,2.369,0.909s0.837,1.429,0.837,2.468V61.268z M455.974,59.942
			c0-1.002-0.406-1.504-1.217-1.504c-0.346,0-0.646,0.144-0.899,0.431s-0.407,0.645-0.461,1.073H455.974z"/>
		<path fill="#2F2F2F" d="M461.529,63.339h-0.027v4.033h-2.16v-10.22h2.16v1.053h0.027c0.533-0.816,1.283-1.224,2.249-1.224
			c0.907,0,1.607,0.311,2.102,0.933s0.742,1.469,0.742,2.54c0,1.167-0.288,2.103-0.865,2.81s-1.343,1.06-2.3,1.06
			C462.614,64.324,461.971,63.996,461.529,63.339z M461.468,60.468v0.561c0,0.483,0.127,0.877,0.383,1.183s0.59,0.458,1.005,0.458
			c0.492,0,0.874-0.19,1.145-0.571s0.407-0.919,0.407-1.617c0-1.23-0.479-1.846-1.436-1.846c-0.442,0-0.803,0.167-1.083,0.502
			S461.468,59.917,461.468,60.468z"/>
		<path fill="#2F2F2F" d="M470.212,64.153h-2.16V53.79h2.16V64.153z"/>
		<path fill="#2F2F2F" d="M475.355,64.324c-1.167,0-2.084-0.327-2.751-0.981s-1.001-1.542-1.001-2.663
			c0-1.158,0.346-2.063,1.039-2.717s1.629-0.981,2.81-0.981c1.162,0,2.074,0.327,2.734,0.981s0.991,1.519,0.991,2.594
			c0,1.162-0.341,2.081-1.022,2.755S476.54,64.324,475.355,64.324z M475.41,58.636c-0.51,0-0.907,0.175-1.189,0.526
			s-0.424,0.848-0.424,1.49c0,1.344,0.542,2.017,1.627,2.017c1.035,0,1.552-0.69,1.552-2.071
			C476.975,59.29,476.453,58.636,475.41,58.636z"/>
		<path fill="#2F2F2F" d="M487.03,57.153l-2.844,7.561c-0.684,1.818-1.713,2.728-3.09,2.728c-0.524,0-0.955-0.059-1.292-0.178
			v-1.723c0.287,0.168,0.599,0.253,0.937,0.253c0.556,0,0.943-0.262,1.162-0.786l0.369-0.868l-2.844-6.986h2.393l1.306,4.259
			c0.082,0.264,0.146,0.577,0.191,0.937h0.027c0.041-0.264,0.116-0.572,0.226-0.923l1.319-4.272H487.03z"/>
	</g>
	<g>
		<path fill="#2F2F2F" d="M623.662,64.153h-2.536l-1.524-2.522c-0.113-0.191-0.223-0.362-0.328-0.513
			c-0.104-0.15-0.211-0.279-0.317-0.386c-0.107-0.107-0.219-0.189-0.335-0.246s-0.243-0.085-0.38-0.085h-0.595v3.753h-2.208V54.35
			h3.5c2.379,0,3.568,0.889,3.568,2.666c0,0.342-0.052,0.657-0.157,0.947c-0.104,0.29-0.253,0.55-0.444,0.783
			s-0.423,0.433-0.693,0.602c-0.271,0.168-0.573,0.301-0.906,0.396v0.027c0.146,0.045,0.287,0.12,0.424,0.222
			s0.27,0.222,0.396,0.359c0.128,0.137,0.25,0.284,0.366,0.441s0.222,0.311,0.317,0.461L623.662,64.153z M617.646,56.004v2.728
			h0.957c0.475,0,0.854-0.137,1.142-0.41c0.292-0.278,0.438-0.622,0.438-1.032c0-0.857-0.513-1.285-1.538-1.285H617.646z"/>
		<path fill="#2F2F2F" d="M630.48,61.268h-4.566c0.073,1.016,0.714,1.524,1.921,1.524c0.771,0,1.447-0.182,2.03-0.547v1.559
			c-0.646,0.346-1.487,0.52-2.522,0.52c-1.13,0-2.007-0.313-2.632-0.94c-0.624-0.626-0.937-1.5-0.937-2.622
			c0-1.162,0.338-2.083,1.012-2.762c0.675-0.679,1.504-1.019,2.488-1.019c1.021,0,1.811,0.303,2.369,0.909
			c0.558,0.606,0.837,1.429,0.837,2.468V61.268z M628.477,59.942c0-1.002-0.405-1.504-1.217-1.504c-0.346,0-0.646,0.144-0.898,0.431
			s-0.407,0.645-0.462,1.073H628.477z"/>
		<path fill="#2F2F2F" d="M633.999,64.153h-2.16V53.79h2.16V64.153z"/>
		<path fill="#2F2F2F" d="M642.114,61.268h-4.566c0.073,1.016,0.714,1.524,1.921,1.524c0.771,0,1.447-0.182,2.03-0.547v1.559
			c-0.646,0.346-1.487,0.52-2.522,0.52c-1.13,0-2.007-0.313-2.632-0.94c-0.624-0.626-0.937-1.5-0.937-2.622
			c0-1.162,0.338-2.083,1.012-2.762c0.675-0.679,1.504-1.019,2.488-1.019c1.021,0,1.811,0.303,2.369,0.909
			c0.558,0.606,0.837,1.429,0.837,2.468V61.268z M640.111,59.942c0-1.002-0.405-1.504-1.217-1.504c-0.346,0-0.646,0.144-0.898,0.431
			s-0.407,0.645-0.462,1.073H640.111z"/>
		<path fill="#2F2F2F" d="M649.28,64.153h-2.044v-1.005h-0.027c-0.47,0.784-1.165,1.176-2.085,1.176
			c-0.68,0-1.214-0.192-1.604-0.578s-0.584-0.899-0.584-1.542c0-1.358,0.804-2.142,2.413-2.352l1.9-0.253
			c0-0.766-0.415-1.148-1.244-1.148c-0.834,0-1.627,0.249-2.379,0.745V57.57c0.301-0.155,0.712-0.292,1.233-0.41
			c0.522-0.119,0.997-0.178,1.426-0.178c1.996,0,2.994,0.996,2.994,2.987V64.153z M647.25,61.309v-0.472l-1.271,0.164
			c-0.702,0.091-1.053,0.408-1.053,0.95c0,0.246,0.085,0.448,0.256,0.605s0.402,0.236,0.694,0.236c0.405,0,0.735-0.14,0.991-0.42
			C647.122,62.092,647.25,61.737,647.25,61.309z"/>
		<path fill="#2F2F2F" d="M650.654,63.968v-1.75c0.355,0.214,0.71,0.374,1.062,0.479c0.354,0.105,0.688,0.157,1.002,0.157
			c0.383,0,0.685-0.052,0.905-0.157c0.222-0.105,0.332-0.264,0.332-0.479c0-0.137-0.051-0.25-0.15-0.342
			c-0.101-0.091-0.229-0.171-0.387-0.239s-0.329-0.13-0.516-0.185c-0.188-0.055-0.367-0.116-0.54-0.185
			c-0.278-0.105-0.523-0.218-0.735-0.338s-0.39-0.261-0.533-0.42s-0.253-0.344-0.328-0.554s-0.112-0.458-0.112-0.745
			c0-0.392,0.085-0.729,0.256-1.012s0.399-0.514,0.684-0.694c0.285-0.18,0.611-0.312,0.978-0.396
			c0.367-0.084,0.749-0.126,1.146-0.126c0.31,0,0.624,0.024,0.943,0.072c0.318,0.048,0.633,0.117,0.943,0.208v1.668
			c-0.273-0.16-0.566-0.279-0.879-0.359c-0.312-0.08-0.618-0.12-0.919-0.12c-0.142,0-0.274,0.013-0.4,0.038
			c-0.125,0.025-0.235,0.062-0.331,0.109s-0.171,0.109-0.226,0.185s-0.082,0.161-0.082,0.256c0,0.127,0.041,0.237,0.123,0.328
			s0.188,0.17,0.321,0.236c0.132,0.066,0.279,0.125,0.44,0.178c0.162,0.052,0.322,0.106,0.482,0.161
			c0.287,0.1,0.547,0.209,0.779,0.328s0.432,0.257,0.598,0.417c0.167,0.16,0.294,0.346,0.383,0.561s0.134,0.469,0.134,0.766
			c0,0.415-0.09,0.769-0.271,1.063c-0.18,0.294-0.419,0.533-0.718,0.718c-0.298,0.185-0.643,0.319-1.032,0.403
			s-0.794,0.126-1.213,0.126C652.023,64.324,651.31,64.205,650.654,63.968z"/>
		<path fill="#2F2F2F" d="M663.603,61.268h-4.566c0.073,1.016,0.714,1.524,1.921,1.524c0.771,0,1.447-0.182,2.03-0.547v1.559
			c-0.646,0.346-1.487,0.52-2.522,0.52c-1.13,0-2.007-0.313-2.632-0.94c-0.624-0.626-0.937-1.5-0.937-2.622
			c0-1.162,0.338-2.083,1.012-2.762c0.675-0.679,1.504-1.019,2.488-1.019c1.021,0,1.811,0.303,2.369,0.909
			c0.558,0.606,0.837,1.429,0.837,2.468V61.268z M661.6,59.942c0-1.002-0.405-1.504-1.217-1.504c-0.346,0-0.646,0.144-0.898,0.431
			s-0.407,0.645-0.462,1.073H661.6z"/>
	</g>
</g>
<g id="Layer_1">
</g>
</svg>
