<svg width="160" height="188" viewBox="0 0 160 188" fill="none" xmlns="http://www.w3.org/2000/svg">
<g clip-path="url(#clip0)">
<path d="M79.6779 188C82.7592 187.994 85.7796 187.141 88.4083 185.534L150.384 147.874C153.165 146.11 155.449 143.665 157.019 140.771C158.589 137.876 159.394 134.628 159.356 131.336V56.6207C159.392 53.3283 158.587 50.0812 157.017 47.1871C155.447 44.2929 153.163 41.8476 150.384 40.0829L88.4083 2.4228C85.7749 0.837605 82.7592 0 79.6855 0C76.6118 0 73.5961 0.837605 70.9627 2.4228L8.9876 40.098C6.2045 41.8604 3.91796 44.3048 2.34499 47.1991C0.772021 50.0935 -0.0351786 53.3418 4.1431e-06 56.6358V131.336C-0.0185283 134.119 0.556189 136.874 1.68588 139.418C2.81557 141.962 4.4743 144.236 6.5516 146.089V146.115L70.9627 185.549C73.5884 187.149 76.6032 187.996 79.6779 188V188ZM80.3257 6.95218C82.2776 6.95218 84.7548 8.1651 86.4646 9.20912L147.222 46.4034C150.974 48.6881 153.09 55.2842 153.09 60.0352L152.458 131.336C152.458 136.087 149.259 140.355 145.506 142.64L85.1104 179.021C81.6758 181.109 78.8854 181.109 75.4507 179.021L14.2427 142.549C10.4903 140.265 7.47191 136.072 7.47191 131.336V57.688C7.50442 55.3228 8.11341 53.0013 9.24608 50.9247C10.3787 48.8482 12.0009 47.0792 13.9718 45.7714L74.548 9.20912C76.2577 8.1651 78.3739 6.95218 80.3257 6.95218Z" fill="#F2F1F0"/>
<path fill-rule="evenodd" clip-rule="evenodd" d="M87.5765 10.5328C85.2056 9.05922 82.4697 8.27832 79.6783 8.27832C76.8868 8.27832 74.1509 9.05922 71.7801 10.5328L15.6454 44.8642C13.1193 46.4758 11.047 48.7062 9.625 51.3436C8.203 53.9811 7.47851 56.9382 7.52026 59.9343V128.037C7.48034 131.033 8.20562 133.99 9.62745 136.627C11.0493 139.264 13.1206 141.494 15.6454 143.107L71.7801 177.438C74.1508 178.912 76.8867 179.693 79.6783 179.693C82.4698 179.693 85.2057 178.912 87.5765 177.438L143.711 143.107C146.236 141.495 148.307 139.264 149.729 136.627C151.151 133.99 151.877 131.033 151.837 128.037V59.9343C151.875 56.9387 151.149 53.9829 149.727 51.346C148.305 48.7092 146.234 46.4783 143.711 44.8642L87.5765 10.5328Z" fill="url(#paint0_linear)"/>
<path fill-rule="evenodd" clip-rule="evenodd" d="M79.6783 9.7539C81.3615 9.7539 83.2442 10.6196 85.311 11.8777L143.777 47.4201C145.668 48.6335 147.218 50.3104 148.278 52.2914C149.339 54.2725 149.875 56.4918 149.837 58.7386V129.217C149.875 131.464 149.339 133.683 148.278 135.664C147.218 137.645 145.668 139.322 143.777 140.535L85.312 176.077L85.311 176.078C83.6408 177.217 81.6958 177.888 79.6783 178.021C77.6609 177.888 75.7158 177.217 74.0456 176.078L74.0446 176.077L15.5823 140.537L15.5801 140.536C13.7918 139.572 12.2668 138.185 11.1383 136.496C10.1614 134.893 9.52031 132.678 9.52031 129.217V58.7386C9.48157 56.4919 10.018 54.2726 11.0785 52.2916C12.139 50.3106 13.6885 48.6336 15.5797 47.4202L74.0365 11.8831L74.0406 11.8807C76.1244 10.6277 77.9846 9.7539 79.6783 9.7539ZM87.3908 8.4609L145.855 44.0021C148.333 45.5722 150.368 47.751 151.765 50.3307C153.162 52.9104 153.876 55.8051 153.837 58.7386V129.217C153.876 132.151 153.162 135.045 151.765 137.625C150.368 140.205 148.333 142.384 145.855 143.954L87.3898 179.495C85.0956 181.02 82.4302 181.893 79.6783 182.021C76.9264 181.893 74.261 181.02 71.9667 179.495H71.9658L13.502 143.953L13.4995 143.952C11.1642 142.659 9.18097 140.814 7.72281 138.578C6.12823 135.725 5.36521 132.482 5.52031 129.217V58.7386C5.48125 55.805 6.19436 52.9103 7.59165 50.3305C8.98894 47.7508 11.0238 45.572 13.5022 44.002L71.9667 8.46025L71.9749 8.45537C74.0655 7.19796 76.7734 5.75391 79.6783 5.75391C82.5645 5.75391 85.2816 7.17699 87.3908 8.46085V8.4609Z" fill="#0078D4"/>
<path opacity="0.2" d="M139.959 132.026L80.409 166.633L20.47 132.027L80.02 97.4199L139.959 132.026Z" fill="#003067"/>
<path d="M140.601 120.649L79.878 155.937L18.767 120.654L79.489 85.3662L140.601 120.649Z" fill="#1B93EB"/>
<path d="M140.601 120.649L140.589 124.755L79.8669 160.043L79.8779 155.937L140.601 120.649Z" fill="#1F56A3"/>
<path d="M79.878 155.937L79.867 160.043L18.755 124.76L18.767 120.654L79.878 155.937Z" fill="#0078D4"/>
<path d="M87.0134 54.706L83.8312 56.5553C85.2361 55.7389 87.1811 55.8541 89.3252 57.092C90.2433 57.63 91.0929 58.2774 91.8552 59.0199L95.0373 57.1706C94.275 56.4282 93.4255 55.7808 92.5074 55.2427C90.3633 54.0049 88.4181 53.8897 87.0134 54.706Z" fill="#E8E8E8"/>
<path d="M126.734 64.6783C125.874 64.1713 124.957 63.7681 124.002 63.477C121.222 56.7965 116.344 50.6543 110.764 47.4326C106.406 44.9165 102.459 44.6822 99.6069 46.3395L96.4247 48.1887C99.2765 46.5315 103.224 46.7657 107.582 49.2819C113.162 52.5036 118.04 58.6458 120.82 65.3262C121.775 65.6173 122.692 66.0206 123.551 66.5276C130.294 70.4203 135.729 79.8614 135.707 87.5996C135.709 88.4445 135.635 89.2878 135.484 90.119C135.468 90.2378 135.428 90.3521 135.411 90.4893C135.195 91.4786 134.832 92.4302 134.335 93.3127C134.279 93.4085 134.207 93.4861 134.151 93.582C133.635 94.3447 132.955 94.9827 132.161 95.4496L135.343 93.6004C136.137 93.1334 136.817 92.4954 137.333 91.7328C137.389 91.6368 137.461 91.5593 137.517 91.4634C138.014 90.581 138.377 89.6294 138.593 88.64C138.61 88.5029 138.65 88.3886 138.666 88.2697C138.817 87.4385 138.891 86.5952 138.889 85.7504C138.911 78.0121 133.476 68.571 126.734 64.6783Z" fill="#E8E8E8"/>
<path d="M107.582 49.2823C113.162 52.504 118.04 58.6461 120.82 65.3266C121.775 65.6177 122.692 66.0209 123.551 66.5279C130.294 70.4206 135.728 79.8617 135.707 87.5999C135.709 88.4447 135.635 89.2881 135.484 90.1193C135.468 90.2382 135.428 90.3524 135.411 90.4895C135.195 91.4789 134.832 92.4305 134.335 93.313C134.279 93.4088 134.207 93.4864 134.151 93.5823C132.037 96.6497 128.033 97.2513 123.456 94.6087L88.5108 74.3508C84.6195 71.6552 81.5655 66.1173 81.5785 61.5073C81.5924 56.6045 85.0664 54.634 89.3252 57.0928C90.2433 57.6309 91.0928 58.2782 91.8552 59.0207C91.84 58.7646 91.8407 58.5267 91.8414 58.2798C91.8697 48.3006 98.9135 44.2775 107.582 49.2823Z" fill="white"/>
<path d="M102.895 66.87C103.073 66.9854 103.221 67.1415 103.328 67.3254C103.434 67.5093 103.495 67.7157 103.506 67.9278L103.481 76.5731C103.48 76.9632 103.206 77.1195 102.866 76.9235L100.175 75.3698C99.9969 75.2542 99.8482 75.0979 99.7415 74.9138C99.6349 74.7296 99.5734 74.5229 99.562 74.3104L99.5865 65.665C99.5876 65.2749 99.8645 65.1203 100.204 65.3163L102.895 66.87Z" fill="#0078D4"/>
<path d="M108.028 59.4686C108.206 59.584 108.354 59.7401 108.46 59.924C108.566 60.1079 108.627 60.3144 108.638 60.5264L108.584 79.5202C108.583 79.9103 108.309 80.0665 107.97 79.8705L105.279 78.3169C105.1 78.2013 104.951 78.045 104.845 77.8608C104.738 77.6767 104.677 77.47 104.665 77.2575L104.719 58.2637C104.72 57.8736 104.997 57.719 105.337 57.9149L108.028 59.4686Z" fill="#50E6FF"/>
<path d="M113.114 68.3386C113.292 68.4547 113.441 68.6114 113.547 68.7958C113.653 68.9802 113.714 69.1871 113.725 69.3996L113.688 82.466C113.687 82.8561 113.413 83.0123 113.073 82.8163L110.379 81.2611C110.201 81.1453 110.053 80.9892 109.947 80.8053C109.841 80.6215 109.78 80.4152 109.769 80.2032L109.806 67.1369C109.807 66.7468 110.084 66.589 110.42 66.7834L113.114 68.3386Z" fill="#C3F1FF"/>
<path d="M76.9683 95.5823C77.1192 95.6333 77.2505 95.7302 77.3438 95.8594C77.437 95.9886 77.4876 96.1437 77.4885 96.303C77.4894 96.4624 77.4406 96.618 77.3488 96.7483C77.257 96.8785 77.1268 96.9769 76.9765 97.0296C76.589 97.2288 76.1597 97.333 75.7241 97.3337C75.2884 97.3344 74.8589 97.2316 74.4708 97.0337C73.7626 96.6248 73.7591 95.9871 74.4556 95.5823C74.8446 95.3838 75.2752 95.2803 75.7119 95.2803C76.1487 95.2803 76.5793 95.3838 76.9683 95.5823V95.5823Z" fill="#50E6FF"/>
<path d="M77.3122 95.7278C77.4631 95.7788 77.5944 95.8757 77.6876 96.0049C77.7809 96.1341 77.8315 96.2892 77.8324 96.4485C77.8333 96.6079 77.7844 96.7635 77.6926 96.8938C77.6008 97.024 77.4707 97.1224 77.3203 97.1751C76.9329 97.3743 76.5036 97.4785 76.068 97.4792C75.6323 97.4799 75.2027 97.3771 74.8146 97.1792C74.1065 96.7703 74.103 96.1326 74.7995 95.7278C75.1885 95.5293 75.619 95.4258 76.0558 95.4258C76.4926 95.4258 76.9231 95.5293 77.3122 95.7278V95.7278Z" fill="#50E6FF"/>
<path d="M123.707 120.868C123.794 120.897 123.869 120.953 123.923 121.028C123.976 121.102 124.005 121.191 124.006 121.283C124.006 121.375 123.978 121.464 123.926 121.539C123.873 121.614 123.798 121.671 123.712 121.702L119.301 124.265L69.7949 95.683L73.8824 93.3076L74.2061 93.1196C74.429 93.0057 74.6757 92.9463 74.926 92.9463C75.1763 92.9463 75.4231 93.0057 75.646 93.1196L123.707 120.868ZM74.8147 97.1794C75.2028 97.3772 75.6324 97.4801 76.068 97.4793C76.5037 97.4786 76.9329 97.3744 77.3204 97.1753C77.4708 97.1225 77.6009 97.0242 77.6927 96.8939C77.7845 96.7637 77.8333 96.608 77.8325 96.4487C77.8316 96.2894 77.7809 96.1343 77.6877 96.0051C77.5944 95.8759 77.4632 95.779 77.3122 95.7279C76.9232 95.5294 76.4926 95.4259 76.0559 95.4259C75.6191 95.4259 75.1886 95.5295 74.7995 95.728C74.103 96.1327 74.1065 96.7705 74.8147 97.1794" fill="#0078D4"/>
<path d="M123.712 121.701L119.301 124.265L119.293 126.977L123.704 124.413C123.785 124.377 123.855 124.319 123.907 124.246C123.959 124.173 123.99 124.088 123.998 123.999L124.006 121.287C123.998 121.376 123.966 121.461 123.915 121.534C123.863 121.607 123.793 121.664 123.712 121.701V121.701Z" fill="#1F56A3"/>
<path d="M86.4526 143.354C86.1616 143.501 85.84 143.578 85.5138 143.578C85.1877 143.578 84.8661 143.501 84.575 143.354L36.953 115.859C36.8452 115.811 36.7522 115.735 36.6837 115.638C36.6153 115.542 36.5738 115.429 36.5636 115.312L36.5558 118.024C36.566 118.142 36.6075 118.254 36.676 118.351C36.7445 118.447 36.8375 118.523 36.9453 118.571L84.5675 146.066C84.8586 146.213 85.1801 146.29 85.5063 146.29C85.8324 146.29 86.154 146.213 86.4451 146.066L119.293 126.977L119.301 124.265L86.4526 143.354Z" fill="#E8E8E8"/>
<path d="M69.7949 95.6826L119.301 124.265L86.4526 143.354C86.1615 143.501 85.84 143.578 85.5138 143.578C85.1877 143.578 84.8661 143.501 84.5751 143.354L36.953 115.859C36.8399 115.821 36.7417 115.748 36.6719 115.651C36.6021 115.554 36.5643 115.437 36.5636 115.318C36.5629 115.198 36.5995 115.081 36.6682 114.984C36.7369 114.886 36.8344 114.812 36.947 114.772L69.7949 95.6826Z" fill="#F2F2F2"/>
<path d="M42.8624 115.807C42.7581 115.771 42.6677 115.704 42.6036 115.614C42.5395 115.524 42.5049 115.417 42.5048 115.306C42.5046 115.196 42.5388 115.088 42.6027 114.999C42.6665 114.909 42.7568 114.841 42.861 114.805L68.9355 99.6523C69.2035 99.516 69.4998 99.4448 69.8005 99.4443C70.1012 99.4439 70.3977 99.5143 70.6661 99.6499L112.449 123.773C112.553 123.809 112.643 123.877 112.708 123.967C112.772 124.056 112.806 124.164 112.806 124.274C112.807 124.384 112.772 124.492 112.708 124.582C112.645 124.672 112.554 124.74 112.45 124.776L86.3766 139.928C86.1086 140.064 85.8123 140.136 85.5116 140.136C85.2109 140.137 84.9144 140.066 84.646 139.931L42.8624 115.807Z" fill="#E8E8E8"/>
<path opacity="0.2" d="M81.9039 106.136L54.101 122.293L55.2319 122.946L83.035 106.789L81.9039 106.136Z" fill="#999999"/>
<path opacity="0.2" d="M76.416 104.353L77.613 103.658L76.481 103.005L75.285 103.7L76.416 104.353Z" fill="#999999"/>
<path opacity="0.2" d="M65.026 109.662L66.158 110.315L71.292 107.331L70.16 106.678L65.026 109.662Z" fill="#999999"/>
<path opacity="0.2" d="M71.059 99.874L43.256 116.031L44.397 116.69L72.2 100.533L71.059 99.874Z" fill="#999999"/>
<path opacity="0.2" d="M54.7681 115.623L55.8991 116.276L61.0231 113.299L59.8921 112.645L54.7681 115.623Z" fill="#999999"/>
<path opacity="0.2" d="M49.634 118.607L48.678 119.162L49.81 119.815L50.765 119.26L49.634 118.607Z" fill="#999999"/>
<path d="M96.414 114.516L68.611 130.673L69.742 131.326L97.545 115.169L96.414 114.516Z" fill="#999999"/>
<path d="M90.926 112.734L92.123 112.038L90.991 111.385L89.795 112.081L90.926 112.734Z" fill="#999999"/>
<path d="M79.536 118.042L80.668 118.695L85.802 115.711L84.671 115.058L79.536 118.042Z" fill="#999999"/>
<path d="M85.569 108.254L57.766 124.412L58.907 125.071L86.71 108.913L85.569 108.254Z" fill="#999999"/>
<path d="M69.278 124.003L70.409 124.657L75.534 121.679L74.402 121.026L69.278 124.003Z" fill="#999999"/>
<path d="M64.144 126.987L63.188 127.542L64.32 128.196L65.275 127.64L64.144 126.987Z" fill="#999999"/>
<path opacity="0.2" d="M110.934 122.894L83.131 139.051L84.263 139.704L112.066 123.547L110.934 122.894Z" fill="#999999"/>
<path opacity="0.2" d="M105.447 121.112L106.643 120.416L105.512 119.763L104.315 120.459L105.447 121.112Z" fill="#999999"/>
<path opacity="0.2" d="M94.057 126.42L95.188 127.073L100.322 124.09L99.191 123.436L94.057 126.42Z" fill="#999999"/>
<path opacity="0.2" d="M100.089 116.632L72.286 132.79L73.428 133.449L101.231 117.291L100.089 116.632Z" fill="#999999"/>
<path opacity="0.2" d="M83.7991 132.382L84.9301 133.035L90.0541 130.057L88.9231 129.404L83.7991 132.382Z" fill="#999999"/>
<path opacity="0.2" d="M78.664 135.365L77.709 135.92L78.84 136.574L79.796 136.018L78.664 135.365Z" fill="#999999"/>
<path opacity="0.2" fill-rule="evenodd" clip-rule="evenodd" d="M58.439 112.335L66.773 118.288L69.154 129.599L74.738 124.016L81.06 129.004L94.795 104.175L91.783 102.436L58.439 112.335Z" fill="#767676"/>
<path d="M62.8336 128.397C62.7255 128.397 62.6204 128.362 62.5339 128.297C62.4475 128.233 62.3843 128.141 62.354 128.038C62.3236 127.934 62.3277 127.823 62.3656 127.722C62.4034 127.621 62.4731 127.535 62.5641 127.476L64.6686 126.128C64.7802 126.056 64.9156 126.032 65.0451 126.06C65.1746 126.089 65.2875 126.167 65.359 126.279C65.4305 126.391 65.4547 126.526 65.4263 126.656C65.3979 126.785 65.3193 126.898 65.2076 126.97L63.1031 128.318C63.0228 128.37 62.9292 128.398 62.8336 128.397V128.397Z" fill="white"/>
<path d="M45.1178 136.787C44.9866 136.787 44.8607 136.735 44.7672 136.643C44.6736 136.551 44.62 136.426 44.6178 136.295C44.6156 136.164 44.6651 136.037 44.7555 135.942C44.8459 135.847 44.9701 135.792 45.1012 135.787C46.7141 135.734 48.3114 135.454 49.8463 134.956C49.9722 134.916 50.1087 134.928 50.2261 134.988C50.3434 135.049 50.4322 135.153 50.4729 135.279C50.5137 135.404 50.5031 135.541 50.4435 135.658C50.3839 135.776 50.2802 135.866 50.1549 135.907C48.531 136.435 46.8409 136.731 45.1344 136.786L45.1178 136.787ZM40.1881 136.257C40.147 136.257 40.106 136.252 40.066 136.242C38.4817 135.842 36.9585 135.231 35.5377 134.423L35.3492 134.316C35.2345 134.249 35.1509 134.14 35.1168 134.011C35.0828 133.883 35.1011 133.747 35.1676 133.632C35.2342 133.517 35.3436 133.434 35.4718 133.4C35.6 133.365 35.7365 133.384 35.8512 133.45L36.0329 133.555C37.375 134.317 38.8137 134.895 40.3102 135.273C40.4284 135.302 40.5316 135.374 40.6005 135.475C40.6693 135.576 40.699 135.698 40.684 135.819C40.669 135.94 40.6103 136.051 40.519 136.132C40.4277 136.213 40.3101 136.257 40.1882 136.257H40.1881ZM54.4576 133.762C54.3496 133.762 54.2445 133.727 54.158 133.662C54.0716 133.597 54.0085 133.506 53.9781 133.402C53.9478 133.299 53.9518 133.188 53.9897 133.087C54.0275 132.985 54.0972 132.899 54.1881 132.841L58.3756 130.158C58.4309 130.123 58.4926 130.098 58.5573 130.087C58.622 130.075 58.6883 130.076 58.7525 130.09C58.8167 130.104 58.8776 130.131 58.9315 130.168C58.9854 130.206 59.0314 130.254 59.0669 130.309C59.1023 130.364 59.1265 130.426 59.138 130.491C59.1496 130.556 59.1482 130.622 59.1341 130.686C59.1199 130.75 59.0933 130.811 59.0556 130.865C59.018 130.919 58.9701 130.965 58.9147 131L54.7272 133.683C54.6469 133.735 54.5532 133.762 54.4576 133.762V133.762ZM31.6988 131.328C31.6316 131.328 31.565 131.314 31.503 131.288C31.4411 131.261 31.3851 131.223 31.3385 131.174C30.1541 129.943 29.1529 128.548 28.3658 127.032C28.3356 126.974 28.3171 126.91 28.3114 126.845C28.3057 126.78 28.313 126.714 28.3327 126.651C28.3525 126.589 28.3844 126.531 28.4266 126.48C28.4688 126.43 28.5205 126.389 28.5787 126.358C28.637 126.328 28.7006 126.31 28.7659 126.304C28.8313 126.298 28.8972 126.306 28.9597 126.325C29.0223 126.345 29.0804 126.377 29.1306 126.419C29.1809 126.461 29.2223 126.513 29.2526 126.571C29.9957 128.002 30.941 129.319 32.0592 130.481C32.1272 130.552 32.1729 130.641 32.1907 130.737C32.2084 130.834 32.1974 130.933 32.159 131.024C32.1206 131.114 32.0565 131.191 31.9747 131.245C31.8928 131.299 31.7969 131.328 31.6988 131.328V131.328ZM27.1627 122.626C27.0474 122.626 26.9358 122.586 26.8466 122.513C26.7575 122.439 26.6963 122.338 26.6735 122.225C26.432 121.022 26.3106 119.799 26.3112 118.572C26.3112 118.095 26.3297 117.616 26.3668 117.139C26.379 117.007 26.4418 116.886 26.5421 116.8C26.6424 116.714 26.7722 116.671 26.9039 116.679C26.9693 116.684 27.0331 116.702 27.0916 116.732C27.15 116.761 27.2021 116.802 27.2447 116.852C27.2873 116.902 27.3197 116.96 27.34 117.022C27.3603 117.085 27.3681 117.15 27.3629 117.216C27.3278 117.668 27.3105 118.12 27.3112 118.573C27.3105 119.733 27.4253 120.89 27.6539 122.027C27.6669 122.092 27.667 122.158 27.6544 122.223C27.6417 122.287 27.6165 122.348 27.5801 122.403C27.5437 122.458 27.497 122.505 27.4424 122.541C27.3879 122.578 27.3267 122.603 27.2623 122.616C27.2296 122.623 27.1962 122.626 27.1627 122.626V122.626ZM27.9274 112.836C27.868 112.836 27.8091 112.826 27.7535 112.805C27.6293 112.759 27.5284 112.665 27.4731 112.544C27.4179 112.424 27.4126 112.286 27.4586 112.162C28.0529 110.56 28.8734 109.052 29.8951 107.684C29.9745 107.578 30.0928 107.507 30.2241 107.488C30.3553 107.469 30.4887 107.503 30.5948 107.583C30.701 107.662 30.7713 107.78 30.7903 107.912C30.8092 108.043 30.7753 108.176 30.6959 108.282C29.7312 109.575 28.9567 110.998 28.3961 112.51C28.3605 112.606 28.2965 112.688 28.2127 112.747C28.1289 112.805 28.0294 112.836 27.9274 112.836V112.836ZM33.7955 104.974C33.6907 104.974 33.5884 104.941 33.5033 104.88C33.4182 104.819 33.3545 104.733 33.3212 104.633C33.2879 104.534 33.2868 104.426 33.3179 104.326C33.3491 104.226 33.4109 104.138 33.4947 104.075C34.0053 103.69 34.5349 103.331 35.0817 103L37.7379 101.389C37.7941 101.355 37.8565 101.332 37.9215 101.322C37.9865 101.312 38.0529 101.315 38.1168 101.33C38.1807 101.346 38.241 101.374 38.294 101.413C38.347 101.452 38.3919 101.501 38.4259 101.557C38.46 101.614 38.4826 101.676 38.4925 101.741C38.5024 101.806 38.4993 101.873 38.4834 101.936C38.4676 102 38.4393 102.06 38.4002 102.113C38.3611 102.166 38.3119 102.211 38.2555 102.245L35.6002 103.855C35.0787 104.172 34.5719 104.515 34.0963 104.873C34.0099 104.939 33.9042 104.975 33.7955 104.974V104.974ZM42.2487 99.7379C42.1394 99.738 42.0332 99.7023 41.9462 99.6363C41.8592 99.5702 41.7962 99.4776 41.7669 99.3724C41.7375 99.2672 41.7435 99.1552 41.7837 99.0537C41.824 98.9522 41.8964 98.8667 41.9899 98.8102L46.2419 96.2316C46.298 96.1975 46.3604 96.1748 46.4253 96.1648C46.4903 96.1548 46.5566 96.1578 46.6204 96.1734C46.6842 96.1891 46.7443 96.2172 46.7973 96.2561C46.8502 96.295 46.895 96.3439 46.929 96.4002C46.963 96.4564 46.9856 96.5187 46.9955 96.5837C47.0054 96.6487 47.0024 96.715 46.9866 96.7788C46.9709 96.8425 46.9427 96.9026 46.9037 96.9555C46.8647 97.0084 46.8157 97.0531 46.7594 97.087L42.5084 99.6657C42.4301 99.713 42.3402 99.738 42.2487 99.7379V99.7379ZM98.9606 97.1486C98.8728 97.1486 98.7866 97.1255 98.7106 97.0817L94.403 94.5958C94.2881 94.5295 94.2043 94.4203 94.1699 94.2922C94.1356 94.1641 94.1535 94.0276 94.2198 93.9127C94.2862 93.7979 94.3954 93.714 94.5235 93.6797C94.6516 93.6454 94.7881 93.6633 94.903 93.7296L99.2106 96.2155C99.3058 96.2706 99.3802 96.3555 99.4223 96.4572C99.4643 96.5589 99.4717 96.6716 99.4432 96.7778C99.4147 96.8841 99.352 96.978 99.2648 97.0451C99.1775 97.1121 99.0706 97.1485 98.9606 97.1486V97.1486ZM50.7536 94.5802C50.6444 94.5803 50.5381 94.5446 50.4511 94.4785C50.3641 94.4125 50.3011 94.3198 50.2718 94.2146C50.2424 94.1094 50.2484 93.9975 50.2886 93.896C50.3289 93.7945 50.4013 93.709 50.4948 93.6525L54.7468 91.0739C54.803 91.0396 54.8653 91.0168 54.9304 91.0067C54.9954 90.9966 55.0618 90.9994 55.1257 91.015C55.1896 91.0306 55.2498 91.0587 55.3029 91.0976C55.3559 91.1366 55.4007 91.1856 55.4348 91.2419C55.4689 91.2982 55.4915 91.3607 55.5013 91.4257C55.5112 91.4908 55.5081 91.5571 55.4923 91.621C55.4765 91.6849 55.4482 91.745 55.4091 91.7979C55.3699 91.8508 55.3208 91.8955 55.2643 91.9293L51.0123 94.5079C50.9343 94.5553 50.8448 94.5803 50.7535 94.5802L50.7536 94.5802ZM90.3454 92.1769C90.2576 92.1769 90.1714 92.1538 90.0954 92.11L85.7877 89.6237C85.673 89.5573 85.5892 89.4481 85.5549 89.32C85.5206 89.192 85.5386 89.0555 85.6049 88.9407C85.6711 88.8259 85.7803 88.7421 85.9084 88.7077C86.0364 88.6733 86.1729 88.6912 86.2877 88.7575L90.5953 91.2437C90.6906 91.2988 90.765 91.3838 90.807 91.4855C90.8491 91.5871 90.8565 91.6998 90.828 91.8061C90.7995 91.9124 90.7368 92.0063 90.6495 92.0733C90.5623 92.1403 90.4554 92.1767 90.3453 92.1768L90.3454 92.1769ZM59.2584 89.4225C59.1492 89.4225 59.043 89.3868 58.956 89.3208C58.869 89.2548 58.806 89.1621 58.7766 89.0569C58.7473 88.9517 58.7532 88.8398 58.7935 88.7383C58.8338 88.6368 58.9062 88.5512 58.9996 88.4947L63.2516 85.9161C63.3078 85.882 63.3702 85.8593 63.4351 85.8494C63.5001 85.8394 63.5663 85.8423 63.6302 85.858C63.694 85.8736 63.7541 85.9017 63.807 85.9406C63.86 85.9795 63.9048 86.0285 63.9388 86.0847C63.9728 86.1409 63.9954 86.2033 64.0053 86.2683C64.0152 86.3332 64.0121 86.3995 63.9964 86.4633C63.9807 86.5271 63.9525 86.5872 63.9135 86.6401C63.8745 86.693 63.8255 86.7377 63.7692 86.7716L59.5172 89.3502C59.4392 89.3976 59.3497 89.4226 59.2584 89.4225V89.4225ZM81.7311 87.2047C81.6433 87.2047 81.5571 87.1817 81.4811 87.1378L77.5211 84.8527C77.4107 84.7892 77.2984 84.7267 77.1861 84.6671C77.128 84.6365 77.0766 84.5947 77.0347 84.5442C76.9929 84.4936 76.9613 84.4354 76.942 84.3727C76.9226 84.31 76.9158 84.244 76.9219 84.1787C76.928 84.1134 76.9469 84.0499 76.9776 83.9918C77.0082 83.9338 77.05 83.8824 77.1005 83.8405C77.1511 83.7986 77.2093 83.7671 77.2721 83.7477C77.3348 83.7284 77.4007 83.7216 77.466 83.7277C77.5313 83.7338 77.5948 83.7527 77.6529 83.7834C77.7769 83.8488 77.899 83.9162 78.0201 83.9865L81.981 86.2716C82.0762 86.3267 82.1506 86.4117 82.1927 86.5134C82.2348 86.615 82.2421 86.7277 82.2136 86.834C82.1852 86.9403 82.1225 87.0342 82.0352 87.1012C81.9479 87.1682 81.841 87.2046 81.731 87.2047H81.7311ZM67.8121 84.3531C67.6971 84.3533 67.5856 84.3137 67.4964 84.2412C67.4071 84.1687 67.3456 84.0676 67.3222 83.955C67.2988 83.8424 67.315 83.7252 67.3679 83.6231C67.4209 83.5211 67.5074 83.4404 67.6129 83.3946C69.2071 82.6987 70.9384 82.3737 72.6764 82.444C72.7422 82.4461 72.8069 82.4612 72.8669 82.4884C72.9268 82.5157 72.9808 82.5545 73.0257 82.6026C73.0706 82.6507 73.1056 82.7073 73.1286 82.769C73.1515 82.8307 73.1621 82.8963 73.1597 82.9621C73.1572 83.0279 73.1418 83.0926 73.1143 83.1524C73.0868 83.2122 73.0477 83.266 72.9994 83.3107C72.951 83.3553 72.8943 83.39 72.8325 83.4127C72.7707 83.4354 72.7051 83.4457 72.6393 83.443C71.051 83.3812 69.4691 83.6781 68.0113 84.3116C67.9485 84.3391 67.8807 84.3532 67.8121 84.3531V84.3531Z" fill="white"/>
<path d="M105.479 100.911C105.391 100.911 105.305 100.888 105.229 100.844L103.064 99.5947C102.949 99.5284 102.866 99.4192 102.831 99.2911C102.797 99.163 102.815 99.0266 102.881 98.9117C102.947 98.7969 103.057 98.7131 103.185 98.6787C103.313 98.6444 103.449 98.6623 103.564 98.7285L104.979 99.5454V97.9111C104.979 97.7785 105.032 97.6513 105.126 97.5576C105.219 97.4638 105.346 97.4111 105.479 97.4111C105.612 97.4111 105.739 97.4638 105.833 97.5576C105.926 97.6513 105.979 97.7785 105.979 97.9111V100.411C105.979 100.477 105.966 100.542 105.941 100.603C105.916 100.663 105.879 100.718 105.833 100.765C105.786 100.811 105.731 100.848 105.67 100.873C105.61 100.898 105.545 100.911 105.479 100.911V100.911Z" fill="white"/>
<path d="M105.479 93.1494C105.413 93.1495 105.348 93.1365 105.288 93.1114C105.227 93.0863 105.172 93.0495 105.125 93.0031C105.079 92.9566 105.042 92.9015 105.017 92.8408C104.992 92.7801 104.979 92.7151 104.979 92.6494V90.1494C104.979 90.0168 105.032 89.8896 105.126 89.7959C105.219 89.7021 105.347 89.6494 105.479 89.6494C105.612 89.6494 105.739 89.7021 105.833 89.7959C105.926 89.8896 105.979 90.0168 105.979 90.1494V92.6494C105.979 92.7151 105.966 92.7801 105.941 92.8408C105.916 92.9015 105.879 92.9566 105.833 93.0031C105.786 93.0495 105.731 93.0863 105.671 93.1114C105.61 93.1365 105.545 93.1495 105.479 93.1494V93.1494Z" fill="white"/>
<path fill-rule="evenodd" clip-rule="evenodd" d="M96.5382 94.8623L66.7731 112.126L58.4388 106.173L96.5382 94.8623Z" fill="white"/>
<path fill-rule="evenodd" clip-rule="evenodd" d="M96.5383 94.8623L81.0604 122.842L74.7383 117.854L69.7496 113.912L96.5383 94.8623Z" fill="white"/>
<path fill-rule="evenodd" clip-rule="evenodd" d="M74.7382 117.853L69.1543 123.436L69.7496 113.911L74.7382 117.853Z" fill="#F2F2F2"/>
<path fill-rule="evenodd" clip-rule="evenodd" d="M96.5382 94.8623L69.7496 113.912L69.1543 123.437L66.7731 112.126L96.5382 94.8623Z" fill="#E8E8E8"/>
</g>
<defs>
<linearGradient id="paint0_linear" x1="79.6785" y1="8.27832" x2="79.6785" y2="179.693" gradientUnits="userSpaceOnUse">
<stop stop-color="#00ABDE"/>
<stop offset="1" stop-color="#007ED8"/>
</linearGradient>
<clipPath id="clip0">
<rect width="159.356" height="188" fill="white"/>
</clipPath>
</defs>
</svg>
