<?xml version="1.0" encoding="UTF-8"?>
<svg width="202px" height="168px" viewBox="0 0 202 168" version="1.1" xmlns="http://www.w3.org/2000/svg" xmlns:xlink="http://www.w3.org/1999/xlink">
    <title>Explore Microsoft Azure cloud concepts/explore-microsoft-azure-cloud-concepts</title>
    <defs>
        <path d="M45.9102524,160 L153.401474,160 C163.025776,160 171.28527,153.145229 173.058918,143.685771 L194.818366,27.6353808 C196.853961,16.7788744 189.703199,6.32776127 178.846693,4.29216632 C176.651494,3.8805665 174.402856,3.83957154 172.194113,4.170883 L21.3829699,26.7925545 C10.4594805,28.4310779 2.93252847,38.6146013 4.57105187,49.5380906 C4.64810856,50.0518019 4.74514986,50.5623161 4.86195501,51.0684717 L26.4224285,144.49719 C28.516572,153.571812 36.5971328,160 45.9102524,160 Z" id="path-1"></path>
        <linearGradient x1="77.8299825%" y1="25.1678322%" x2="-99.6885927%" y2="180.437063%" id="linearGradient-3">
            <stop stop-color="#FFFFFF" offset="0%"></stop>
            <stop stop-color="#000000" stop-opacity="0.5" offset="100%"></stop>
        </linearGradient>
        <rect id="path-4" x="0" y="0" width="200" height="160"></rect>
        <rect id="path-5" x="0" y="0" width="200" height="160"></rect>
        <path d="M169.061361,0.991094726 C171.276638,0.658803101 173.531929,0.699919342 175.733622,1.11273685 C186.50763,3.13286328 193.642764,13.4166469 191.813962,24.181304 L191.752546,24.5250108 L169.928724,140.918729 C168.172065,150.287579 160.071981,157.108938 150.574452,157.278009 L150.213125,157.281223 L42.4038967,157.281223 C33.1861283,157.281223 25.1722476,151.002564 22.944435,142.09043 L22.8584192,141.732549 L1.23416039,48.0274271 C1.11700968,47.5197741 1.01968128,47.0077496 0.942396628,46.4925185 C-0.683675604,35.652037 6.69033349,25.5381684 17.459218,23.7344267 L17.8040517,23.6796911 L169.061361,0.991094726 Z M174.749852,5.30897766 C173.266584,5.02934135 171.750819,4.97631136 170.253638,5.15082405 L169.755337,5.21742374 L18.7906257,27.9861799 C10.5896664,29.2230626 4.93870391,36.9103646 6.16884781,45.1562495 C6.20741539,45.4147751 6.25265129,45.6722282 6.3045064,45.9283489 L6.38724733,46.3114981 L27.9696753,140.347684 C29.5165241,147.087415 35.4139467,151.893338 42.2628432,152.046615 L42.6004263,152.05039 L150.201104,152.05039 C157.315517,152.05039 163.436568,147.033875 164.894298,140.063326 L164.959199,139.735162 L186.740804,22.9302205 C188.269055,14.7348995 182.900523,6.84560035 174.749852,5.30897766 Z" id="path-6"></path>
        <filter x="-9.9%" y="-14.6%" width="119.8%" height="129.3%" filterUnits="objectBoundingBox" id="filter-8">
            <feOffset dx="0" dy="2" in="SourceAlpha" result="shadowOffsetOuter1"></feOffset>
            <feGaussianBlur stdDeviation="2" in="shadowOffsetOuter1" result="shadowBlurOuter1"></feGaussianBlur>
            <feColorMatrix values="0 0 0 0 0   0 0 0 0 0   0 0 0 0 0  0 0 0 0.1 0" type="matrix" in="shadowBlurOuter1" result="shadowMatrixOuter1"></feColorMatrix>
            <feMerge>
                <feMergeNode in="shadowMatrixOuter1"></feMergeNode>
                <feMergeNode in="SourceGraphic"></feMergeNode>
            </feMerge>
        </filter>
        <polygon id="path-9" points="0 0.0900567686 120.807917 0.0900567686 120.807917 81.8164847 0 81.8164847"></polygon>
        <linearGradient x1="50%" y1="0.670396959%" x2="50%" y2="100%" id="linearGradient-11">
            <stop stop-color="#6A6A6A" offset="0%"></stop>
            <stop stop-color="#343333" offset="100%"></stop>
        </linearGradient>
        <filter x="-19.4%" y="-26.7%" width="138.7%" height="153.3%" filterUnits="objectBoundingBox" id="filter-12">
            <feOffset dx="0" dy="2" in="SourceAlpha" result="shadowOffsetOuter1"></feOffset>
            <feGaussianBlur stdDeviation="2" in="shadowOffsetOuter1" result="shadowBlurOuter1"></feGaussianBlur>
            <feColorMatrix values="0 0 0 0 0   0 0 0 0 0   0 0 0 0 0  0 0 0 0.1 0" type="matrix" in="shadowBlurOuter1" result="shadowMatrixOuter1"></feColorMatrix>
            <feMerge>
                <feMergeNode in="shadowMatrixOuter1"></feMergeNode>
                <feMergeNode in="SourceGraphic"></feMergeNode>
            </feMerge>
        </filter>
        <filter x="-9.5%" y="-9.5%" width="119.0%" height="119.0%" filterUnits="objectBoundingBox" id="filter-13">
            <feOffset dx="0" dy="2" in="SourceAlpha" result="shadowOffsetOuter1"></feOffset>
            <feColorMatrix values="0 0 0 0 0   0 0 0 0 0   0 0 0 0 0  0 0 0 0.0964956975 0" type="matrix" in="shadowOffsetOuter1" result="shadowMatrixOuter1"></feColorMatrix>
            <feMerge>
                <feMergeNode in="shadowMatrixOuter1"></feMergeNode>
                <feMergeNode in="SourceGraphic"></feMergeNode>
            </feMerge>
        </filter>
    </defs>
    <g id="Badges" stroke="none" stroke-width="1" fill="none" fill-rule="evenodd">
        <g id="Explore-Microsoft-Azure-cloud-concepts" transform="translate(-109.000000, -47.000000)">
            <g id="Explore-Microsoft-Azure-cloud-concepts/explore-microsoft-azure-cloud-concepts" transform="translate(148.000000, 80.000000)">
                <g id="Trophy-Plates/Trailhead" transform="translate(12.000000, 0.000000)">
                    <g id="BG" transform="translate(-50.000000, -30.474805)">
                        <mask id="mask-2" fill="white">
                            <use xlink:href="#path-1"></use>
                        </mask>
                        <path stroke="#FFFFFF" stroke-width="5" d="M21.0121187,24.3202136 C14.867656,25.241883 9.67846935,28.5668337 6.25581574,33.1974827 C2.83316214,37.8281317 1.17704157,43.764479 2.09871098,49.9089418 C2.18539976,50.4868669 2.29457123,51.0611954 2.42597702,51.6306205 L23.9864505,145.059339 C25.1644062,150.163814 28.0260418,154.523979 31.9028459,157.608026 C35.77965,160.692072 40.6716226,162.5 45.9102524,162.5 L153.401474,162.5 C158.815144,162.5 163.844961,160.572096 167.770781,157.313955 C171.6966,154.055814 174.518421,149.467437 175.516098,144.146492 L197.275547,28.0961021 C198.420569,21.9893173 196.981928,15.9965493 193.730336,11.244222 C190.478743,6.49189465 185.414199,2.98000801 179.307414,1.83498585 C176.837815,1.37193606 174.308098,1.32581673 171.823262,1.69854212 L21.0121187,24.3202136 Z"></path>
                        <g id="Colors/Azure/BG-Solid-Badges" mask="url(#mask-2)">
                            <g transform="translate(0.000000, -0.000000)">
                                <g id="Rectangle">
                                    <use fill="#0078D4" xlink:href="#path-4"></use>
                                    <use fill-opacity="0.4" fill="url(#linearGradient-3)" xlink:href="#path-4"></use>
                                </g>
                                <g id="Rectangle-Copy">
                                    <use fill="#0078D4" xlink:href="#path-5"></use>
                                    <use fill-opacity="0.4" fill="url(#linearGradient-3)" xlink:href="#path-5"></use>
                                </g>
                            </g>
                        </g>
                    </g>
                    <g id="Border" transform="translate(-46.652943, -27.525195)">
                        <mask id="mask-7" fill="white">
                            <use xlink:href="#path-6"></use>
                        </mask>
                        <use fill="#000000" fill-rule="nonzero" xlink:href="#path-6"></use>
                        <g id="Colors/Azure/Border" mask="url(#mask-7)" fill="#27C0F5">
                            <g transform="translate(-3.347057, -2.949610)" id="Rectangle">
                                <rect x="0" y="0" width="200" height="164"></rect>
                            </g>
                        </g>
                    </g>
                </g>
                <g id="chalk-board--" filter="url(#filter-8)" transform="translate(0.000000, 18.000000)">
                    <g id="Group-17">
                        <g id="Group-7">
                            <g id="Group-3">
                                <mask id="mask-10" fill="white">
                                    <use xlink:href="#path-9"></use>
                                </mask>
                                <g id="Clip-2"></g>
                                <path d="M114.024235,4.05327074 C116.124955,4.05327074 117.827599,5.69491623 117.827599,7.7203776 L117.827599,74.1861639 C117.827599,76.2116253 116.124955,77.8532707 114.024235,77.8532707 L6.78350602,77.8532707 C4.68312049,77.8532707 2.98014145,76.2116253 2.98014145,74.1861639 L2.98014145,7.7203776 C2.98014145,5.69491623 4.68312049,4.05327074 6.78350602,4.05327074 L114.024235,4.05327074 Z" id="Fill-1" stroke="#F1CF99" fill="url(#linearGradient-11)" mask="url(#mask-10)"></path>
                            </g>
                        </g>
                    </g>
                </g>
                <g id="Group-31-" transform="translate(60.000000, 47.000000)" fill="#FFFFFF" fill-rule="nonzero">
                    <g id="Icon-migrate-281-Azure-Migrate">
                        <path d="M42.6891566,21.6156937 C42.5425095,16.7321069 39.016164,12.6772021 34.3574109,12.0351135 C34.0704742,5.15852965 28.5213297,-0.201610127 21.9039535,0.00582275526 C16.6638852,-0.0512702174 11.9527787,3.31612056 10.1276344,8.42326541 C4.4465434,9.109749 0.123486962,14.0485572 0,19.9934229 C0.332557881,26.5989034 5.65119575,31.7355225 12.0118455,31.5941894 L32.6204038,31.5941894 L33.1503382,31.5941894 C38.40801,31.5113273 42.6418129,27.0823739 42.6891566,21.6156937 L42.6891566,21.6156937 Z" id="Path"></path>
                    </g>
                </g>
                <g id="Cloud-White-" filter="url(#filter-12)" transform="translate(20.000000, 34.000000)" fill="#FFFFFF" fill-rule="nonzero">
                    <g id="Group-31">
                        <g id="Icon-migrate-281-Azure-Migrate">
                            <path d="M61.5518072,30.7291337 C61.3403626,23.7865672 56.2558643,18.022065 49.5385924,17.1092641 C49.1248697,7.33342863 41.1237777,-0.286611414 31.5824445,0.00827769986 C24.0269972,-0.072886366 17.2342391,4.71423741 14.6026356,11.9746168 C6.41129513,12.9505302 0.178050968,19.9716002 0,28.4228938 C0.479502061,37.8133253 8.14823573,45.1156057 17.3194051,44.9146847 L47.0340706,44.9146847 L47.798162,44.9146847 C55.3789912,44.7968871 61.4835441,38.5006328 61.5518072,30.7291337 L61.5518072,30.7291337 Z" id="Path"></path>
                        </g>
                    </g>
                </g>
                <g id="Compass-" filter="url(#filter-13)" transform="translate(40.000000, 42.000000)">
                    <path d="M40.6875,21 C40.6875,31.8720938 31.8720938,40.6875 21,40.6875 C10.1279062,40.6875 1.3125,31.8720938 1.3125,21 C1.3125,10.1279062 10.1279062,1.3125 21,1.3125 C31.8720938,1.3125 40.6875,10.1279062 40.6875,21" id="Fill-49" fill="#EBEBEB"></path>
                    <path d="M34.44,33.5120625 L33.0651562,32.1372188 C32.8085625,31.880625 32.3931562,31.880625 32.1372187,32.1372188 C31.880625,32.3931562 31.880625,32.8085625 32.1372187,33.0651562 L33.5120625,34.44 C30.3784688,37.359 26.2283437,39.1971562 21.65625,39.3585937 L21.65625,37.40625 C21.65625,37.0433437 21.3629062,36.75 21,36.75 C20.6370937,36.75 20.34375,37.0433437 20.34375,37.40625 L20.34375,39.3585937 C15.7716563,39.1971562 11.6215313,37.359 8.4879375,34.44 L9.86278125,33.0651562 C10.119375,32.8085625 10.119375,32.3931562 9.86278125,32.1372188 C9.60684375,31.880625 9.1914375,31.880625 8.93484375,32.1372188 L7.56,33.5120625 C4.641,30.3784687 2.80284375,26.2283437 2.64140625,21.65625 L4.59375,21.65625 C4.95665625,21.65625 5.25,21.3629062 5.25,21 C5.25,20.6370938 4.95665625,20.34375 4.59375,20.34375 L2.64140625,20.34375 C2.80284375,15.7716563 4.641,11.6215313 7.56,8.4879375 L8.93484375,9.86278125 C9.0628125,9.99140625 9.2308125,10.0550625 9.3988125,10.0550625 C9.5668125,10.0550625 9.7348125,9.99140625 9.86278125,9.86278125 C10.119375,9.60684375 10.119375,9.1914375 9.86278125,8.93484375 L8.4879375,7.56 C11.6215313,4.641 15.7716563,2.80284375 20.34375,2.64140625 L20.34375,4.59375 C20.34375,4.95665625 20.6370937,5.25 21,5.25 C21.3629062,5.25 21.65625,4.95665625 21.65625,4.59375 L21.65625,2.64140625 C26.2283437,2.80284375 30.3784688,4.641 33.5120625,7.56 L32.1372187,8.93484375 C31.880625,9.1914375 31.880625,9.60684375 32.1372187,9.86278125 C32.2651875,9.99140625 32.4331875,10.0550625 32.6011875,10.0550625 C32.7691875,10.0550625 32.9371875,9.99140625 33.0651562,9.86278125 L34.44,8.4879375 C37.359,11.6215313 39.1971563,15.7716563 39.3585938,20.34375 L37.40625,20.34375 C37.0433437,20.34375 36.75,20.6370938 36.75,21 C36.75,21.3629062 37.0433437,21.65625 37.40625,21.65625 L39.3585938,21.65625 C39.1971563,26.2283437 37.359,30.3784687 34.44,33.5120625 Z M21,0 C9.42046875,0 0,9.42046875 0,21 C0,32.5795312 9.42046875,42 21,42 C32.578875,42 42,32.5795312 42,21 C42,9.42046875 32.578875,0 21,0 L21,0 Z" id="Fill-55" fill="#000000"></path>
                    <polyline id="Fill-56" fill="#75757A" points="22.3125 19.6875 19.6875 19.6875 21 7.875 22.3125 19.6875"></polyline>
                    <polyline id="Fill-57" fill="#75757A" points="22.3125 22.3125 22.3125 19.6875 34.125 21 22.3125 22.3125"></polyline>
                    <polyline id="Fill-58" fill="#75757A" points="19.6875 19.6875 19.6875 22.3125 7.875 21 19.6875 19.6875"></polyline>
                    <polyline id="Fill-59" fill="#75757A" points="19.6875 22.3125 22.3125 22.3125 21 34.125 19.6875 22.3125"></polyline>
                    <polyline id="Fill-60" fill="#0078D4" points="23.9703947 24.9375 17.0625 18.0296053 30.1875 11.8125 23.9703947 24.9375"></polyline>
                    <polyline id="Fill-61" fill="#A9B3B6" points="21 26.0198152 21.0984142 27.5625 22.2033582 26.6506921 22.3125 24.9375 21 26.0198152"></polyline>
                    <polyline id="Fill-62" fill="#50E6FF" points="18.0296053 17.0625 24.9375 23.9703947 11.8125 30.1875 18.0296053 17.0625"></polyline>
                    <path d="M22.3125,21 C22.3125,21.7245 21.7245,22.3125 21,22.3125 C20.2748438,22.3125 19.6875,21.7245 19.6875,21 C19.6875,20.2755 20.2748438,19.6875 21,19.6875 C21.7245,19.6875 22.3125,20.2755 22.3125,21" id="Fill-65" fill="#30404D"></path>
                </g>
            </g>
        </g>
    </g>
</svg>