<svg width="103" height="103" viewBox="0 0 103 103" fill="none" xmlns="http://www.w3.org/2000/svg">
<path d="M51.1176 97.8715C25.2676 97.8715 4.30762 76.9215 4.30762 51.0615C4.30762 25.2015 25.2676 4.25146 51.1176 4.25146C76.9676 4.25146 97.9276 25.2115 97.9276 51.0615C97.9276 76.9115 76.9676 97.8715 51.1176 97.8715Z" fill="url(#paint0_linear)"/>
<path fill-rule="evenodd" clip-rule="evenodd" d="M97.0178 51.0614C97.0178 76.4114 76.4678 96.9614 51.1178 96.9614C25.7678 96.9614 5.21778 76.4114 5.21778 51.0614C5.21778 25.7114 25.7678 5.16139 51.1178 5.16139C76.4678 5.16139 97.0178 25.7114 97.0178 51.0614ZM51.1178 1.42139C78.5378 1.42139 100.758 23.6414 100.758 51.0614C100.758 78.4814 78.5278 100.701 51.1178 100.701C23.6978 100.701 1.47778 78.4714 1.47778 51.0614C1.47778 23.6414 23.6978 1.42139 51.1178 1.42139Z" fill="#F2F1F0"/>
<path fill-rule="evenodd" clip-rule="evenodd" d="M94.2076 51.0614C94.2076 74.8614 74.9176 94.1514 51.1176 94.1514C27.3176 94.1514 8.0276 74.8614 8.0276 51.0614C8.0276 27.2614 27.3176 7.97145 51.1176 7.97145C74.9176 7.97145 94.2076 27.2614 94.2076 51.0614ZM51.1176 4.23145C76.9776 4.23145 97.9476 25.2014 97.9476 51.0614C97.9476 76.9214 76.9776 97.8914 51.1176 97.8914C25.2576 97.8914 4.2876 76.9214 4.2876 51.0614C4.2876 25.2014 25.2476 4.23145 51.1176 4.23145Z" fill="url(#paint1_linear)"/>
<path opacity="0.15" d="M81.6677 28.2915H38.4077V65.8715C38.4077 66.3315 38.7777 66.6815 39.2177 66.6815H80.8377C81.2977 66.6815 81.6477 66.3115 81.6477 65.8715L81.6677 28.2915Z" fill="#1F1D20"/>
<path d="M81.6677 27.3218H38.4077V64.9018C38.4077 65.3618 38.7777 65.7118 39.2177 65.7118H80.8377C81.2977 65.7118 81.6477 65.3418 81.6477 64.9018L81.6677 27.3218Z" fill="#9CEBFF"/>
<path d="M80.7877 25.1216H39.2777C38.7977 25.1216 38.4077 25.5116 38.4077 25.9916V27.8516H81.6677V25.9916C81.6677 25.5116 81.2777 25.1216 80.7877 25.1216Z" fill="#9CEBFF"/>
<path d="M70.9077 34.1418V34.6218C70.9077 35.4718 71.5877 36.1518 72.4377 36.1518C73.2877 36.1518 73.9677 35.4718 73.9677 34.6218V34.1418C73.9677 33.2918 73.2877 32.6118 72.4377 32.6118C71.5877 32.6118 70.9077 33.2918 70.9077 34.1418Z" fill="white"/>
<path d="M64.6877 34.1418V37.6718C64.6877 38.5218 65.3677 39.2018 66.2177 39.2018C67.0677 39.2018 67.7377 38.5218 67.7377 37.6718V34.1418C67.7377 33.2918 67.0677 32.6118 66.2177 32.6118C65.3777 32.6118 64.6877 33.2918 64.6877 34.1418Z" fill="white"/>
<path d="M52.3677 34.1418V49.8518C52.3677 50.7018 53.0477 51.3818 53.8977 51.3818C54.7477 51.3818 55.4277 50.7018 55.4277 49.8518V34.1418C55.4277 33.2918 54.7477 32.6118 53.8977 32.6118C53.0477 32.6118 52.3677 33.2918 52.3677 34.1418Z" fill="white"/>
<path d="M58.5776 34.1418V44.0918C58.5776 44.9418 59.2576 43.6318 60.1076 43.6318C60.9576 43.6318 61.5376 44.9418 61.5376 44.0918V34.1418C61.5376 33.2918 60.9676 32.6118 60.1076 32.6118C59.2776 32.6118 58.5776 33.2918 58.5776 34.1418Z" fill="white"/>
<path d="M46.1577 34.1418V55.9918C46.1577 56.8418 46.8377 57.5218 47.6877 57.5218H47.7177C48.5677 57.5218 49.2477 56.8418 49.2377 55.9918V34.1418C49.2377 33.2918 48.5577 32.6118 47.7077 32.6118H47.6977C46.8377 32.6118 46.1577 33.2918 46.1577 34.1418Z" fill="white"/>
<path d="M49.1677 56.7318V53.5818C49.1677 52.7318 48.4877 52.0518 47.6377 52.0518C46.7877 52.0518 46.1077 52.7318 46.1077 53.5818V56.7318C46.1077 57.5818 46.7877 58.2618 47.6377 58.2618C48.4877 58.2718 49.1677 57.5918 49.1677 56.7318Z" fill="#50E6FF"/>
<path d="M55.3776 56.7417V49.5617C55.3776 48.7117 54.6976 48.0317 53.8476 48.0317C52.9976 48.0317 52.3176 48.7117 52.3176 49.5617V56.7417C52.3176 57.5917 52.9976 58.2717 53.8476 58.2717C54.6976 58.2717 55.3776 57.5917 55.3776 56.7417Z" fill="#45CAF2"/>
<path d="M67.7377 55.9818V38.8518C67.7377 38.0018 67.0577 37.3218 66.2077 37.3218C65.3577 37.3218 64.6777 38.0018 64.6777 38.8518V55.9718C64.6777 56.8218 65.3577 57.5018 66.2077 57.5018C67.0677 57.5118 67.7377 56.8418 67.7377 55.9818Z" fill="#0078D1"/>
<path d="M61.5278 55.9817V43.5617C61.5278 42.7117 60.8478 42.0317 59.9978 42.0317C59.1478 42.0317 58.4678 42.7117 58.4678 43.5617V55.9817C58.4678 56.8317 59.1478 57.5117 59.9978 57.5117C60.8378 57.5117 61.5278 56.8417 61.5278 55.9817Z" fill="#32B0E7"/>
<path d="M73.9676 55.9818V34.1418C73.9676 33.2918 73.2876 32.6118 72.4376 32.6118H72.4076C71.5576 32.6118 70.8776 33.2918 70.8876 34.1418V55.9918C70.8876 56.8418 71.5676 57.5218 72.4176 57.5218H72.4276C73.2876 57.5118 73.9676 56.8418 73.9676 55.9818Z" fill="#185A97"/>
<path opacity="0.15" d="M50.6878 50.3217C47.6878 46.6017 43.1078 44.2417 37.9678 44.2417C28.9578 44.2417 21.6378 51.5617 21.6378 60.5717C21.6378 62.0017 21.8278 63.3517 22.1678 64.6617C18.8678 64.7417 16.1978 67.4817 16.1978 70.7817C16.1978 74.1617 18.9378 76.9017 22.3178 76.9017H64.5478C67.9278 76.9017 70.6678 74.1617 70.6678 70.7817C70.6678 67.4017 67.9278 64.6617 64.5478 64.6617H64.4378C64.9678 63.3817 65.2278 62.0317 65.2278 60.5717C65.2278 54.5617 60.3478 49.6817 54.3378 49.6817C53.0578 49.6817 51.8178 49.9017 50.6878 50.3217Z" fill="#1F1D20"/>
<path d="M50.6878 48.9115C47.6878 45.1915 43.1078 42.8315 37.9678 42.8315C28.9578 42.8315 21.6378 50.1515 21.6378 59.1615C21.6378 60.5915 21.8278 61.9415 22.1678 63.2515C18.8678 63.3315 16.1978 66.0715 16.1978 69.3715C16.1978 72.7515 18.9378 75.4915 22.3178 75.4915H64.5478C67.9278 75.4915 70.6678 72.7515 70.6678 69.3715C70.6678 65.9915 67.9278 63.2515 64.5478 63.2515H64.4378C64.9678 61.9715 65.2278 60.6215 65.2278 59.1615C65.2278 53.1515 60.3478 48.2715 54.3378 48.2715C53.0578 48.2815 51.8178 48.5015 50.6878 48.9115Z" fill="white"/>
<path d="M38.1778 52.3018C38.3178 51.8718 38.7177 51.5918 39.1677 51.5918H45.7678L38.9177 71.8718C38.7777 72.3018 38.3778 72.5818 37.9278 72.5818H32.7977C32.0777 72.5818 31.5777 71.8718 31.8077 71.1918L38.1778 52.3018Z" fill="url(#paint2_linear)"/>
<path d="M48.7177 65.2319H38.3277C37.8877 65.2319 37.6777 65.7619 37.9977 66.0619L44.6777 72.2919C44.8677 72.4719 45.1277 72.5719 45.3977 72.5719H51.2877L48.7177 65.2319Z" fill="#0078D4"/>
<path d="M45.7676 51.5918H38.4176L31.3276 72.5918H38.6776L40.1876 68.1218L44.9776 72.5918H51.2776L48.7176 65.2418H41.1576L45.7676 51.5918Z" fill="url(#paint3_linear)"/>
<path d="M47.5775 52.3018C47.4375 51.8718 47.0375 51.5918 46.5875 51.5918H39.2075H39.2375C39.6875 51.5918 40.0875 51.8818 40.2275 52.3018L46.6075 71.2018C46.8375 71.8818 46.3275 72.5918 45.6175 72.5918H45.5075H52.9675C53.6875 72.5918 54.1875 71.8818 53.9575 71.2018L47.5775 52.3018Z" fill="url(#paint4_linear)"/>
<defs>
<linearGradient id="paint0_linear" x1="49.3474" y1="-13.7325" x2="53.3304" y2="132.036" gradientUnits="userSpaceOnUse">
<stop stop-color="#00ABDE"/>
<stop offset="1" stop-color="#007ED8"/>
</linearGradient>
<linearGradient id="paint1_linear" x1="51.1176" y1="-2.43046" x2="51.1176" y2="99.3332" gradientUnits="userSpaceOnUse">
<stop stop-color="#007ED8"/>
<stop offset="0.7065" stop-color="#002D4C"/>
</linearGradient>
<linearGradient id="paint2_linear" x1="41.5742" y1="53.1428" x2="34.7257" y2="73.3752" gradientUnits="userSpaceOnUse">
<stop stop-color="#114A8B"/>
<stop offset="1" stop-color="#0669BC"/>
</linearGradient>
<linearGradient id="paint3_linear" x1="43.6636" y1="62.4895" x2="42.0398" y2="63.0432" gradientUnits="userSpaceOnUse">
<stop stop-opacity="0.3"/>
<stop offset="0.0712" stop-opacity="0.2"/>
<stop offset="0.321" stop-opacity="0.1"/>
<stop offset="0.6231" stop-opacity="0.05"/>
<stop offset="1" stop-opacity="0"/>
</linearGradient>
<linearGradient id="paint4_linear" x1="42.8297" y1="52.553" x2="50.3472" y2="72.5813" gradientUnits="userSpaceOnUse">
<stop stop-color="#3CCBF4"/>
<stop offset="1" stop-color="#2892DF"/>
</linearGradient>
</defs>
</svg>
