<?xml version="1.0" encoding="UTF-8" standalone="no"?>
<!DOCTYPE svg PUBLIC "-//W3C//DTD SVG 1.1//EN" "http://www.w3.org/Graphics/SVG/1.1/DTD/svg11.dtd">
<!-- Generated by Microsoft Visio, SVG Export caf-strategy-overview.svg Strategy2 -->
<svg xmlns="http://www.w3.org/2000/svg" xmlns:xlink="http://www.w3.org/1999/xlink" xmlns:ev="http://www.w3.org/2001/xml-events"
		xmlns:v="http://schemas.microsoft.com/visio/2003/SVGExtensions/" width="9.71321in" height="1.72027in"
		viewBox="0 0 699.351 123.859" xml:space="preserve" color-interpolation-filters="sRGB" class="st14">
	<v:documentProperties v:langID="127" v:viewMarkup="false"/>

	<style type="text/css">
	<![CDATA[
		.st1 {fill:#ffffff;stroke:none;stroke-linecap:round;stroke-linejoin:round;stroke-width:0.75}
		.st2 {fill:#8dc8e8;fill-opacity:0.3;stroke:none;stroke-linecap:butt;stroke-width:0.813397}
		.st3 {fill:#8dc8e8;stroke:none;stroke-linecap:butt;stroke-width:0.813397}
		.st4 {fill:#8dc8e8;stroke:none;stroke-linecap:round;stroke-linejoin:round;stroke-width:0.75}
		.st5 {fill:#000000;font-family:Segoe UI Variable Text Semibold;font-size:0.833336em}
		.st6 {fill:#000000;font-family:Segoe UI Variable Text Semibold;font-size:0.75em;font-weight:bold}
		.st7 {font-size:1em}
		.st8 {fill:#000000;font-family:Segoe UI Variable Text Semibold;font-size:0.833336em;font-weight:bold}
		.st9 {stroke:#3c3c41;stroke-linecap:butt;stroke-width:0.813397}
		.st10 {fill:#3c3c41;stroke:none;stroke-linecap:butt;stroke-width:0.813397}
		.st11 {fill:none;stroke:#2f2f2f;stroke-linecap:butt;stroke-width:1.2201}
		.st12 {stroke:#2f2f2f;stroke-linecap:butt;stroke-width:1.2201}
		.st13 {fill:#2f2f2f;stroke:none;stroke-linecap:butt;stroke-width:0.813397}
		.st14 {fill:none;fill-rule:evenodd;font-size:12px;overflow:visible;stroke-linecap:square;stroke-miterlimit:3}
	]]>
	</style>

	<g v:mID="11" v:index="1" v:groupContext="backgroundPage">
		<v:userDefs>
			<v:ud v:nameU="msvVisioCreated" v:prompt="" v:val="VT0(0):26"/>
		</v:userDefs>
		<title>VBackground-1</title>
		<v:pageProperties width="9.71321" height="1.72027" v:drawingScale="1" v:pageScale="1" v:drawingUnits="19"
				v:shadowOffsetX="9" v:shadowOffsetY="-9"/>
		<g id="shape1000-1" v:mID="1000" v:groupContext="shape">
			<title>Solid.1000</title>
			<v:userDefs>
				<v:ud v:nameU="Background" v:val="VT0(0):26"/>
				<v:ud v:nameU="visVersion" v:val="VT0(15):26"/>
				<v:ud v:nameU="msvShapeCategories" v:prompt="" v:val="VT4(DoNotContain)"/>
				<v:ud v:nameU="msvVisioCreated" v:prompt="" v:val="VT0(0):26"/>
			</v:userDefs>
			<rect x="0" y="0" width="699.351" height="123.859" class="st1"/>
		</g>
	</g>
	<g v:mID="4" v:index="2" v:groupContext="foregroundPage">
		<title>Strategy</title>
		<v:pageProperties v:drawingScale="1" v:pageScale="1" v:drawingUnits="19" v:shadowOffsetX="9" v:shadowOffsetY="-9"/>
		<g id="group1000-3" transform="translate(42.5846,-41.872)" v:mID="1000" v:groupContext="group">
			<title>Sheet.1000</title>
			<g id="group1001-4" transform="translate(-1.1191E-13,-0.318164)" v:mID="1001" v:groupContext="group">
				<title>Sheet.1001</title>
				<g id="group1002-5" transform="translate(0.737581,2.70006E-13)" v:mID="1002" v:groupContext="group">
					<title>Sheet.1002</title>
					<g id="shape1003-6" v:mID="1003" v:groupContext="shape">
						<title>Sheet.1003</title>
						<rect x="0" y="84.4909" width="107.097" height="39.3684" class="st2"/>
					</g>
					<g id="shape1004-8" v:mID="1004" v:groupContext="shape">
						<title>Sheet.1004</title>
						<rect x="0" y="84.4909" width="107.097" height="39.3684" class="st2"/>
					</g>
				</g>
				<g id="group1005-10" transform="translate(0,-0.813397)" v:mID="1005" v:groupContext="group">
					<title>Sheet.1005</title>
					<g id="shape1006-11" v:mID="1006" v:groupContext="shape">
						<title>Sheet.1006</title>
						<rect x="0" y="84.4909" width="107.097" height="39.3684" class="st3"/>
					</g>
					<g id="shape1007-13" v:mID="1007" v:groupContext="shape">
						<title>Sheet.1007</title>
						<rect x="0" y="84.4909" width="107.097" height="39.3684" class="st3"/>
					</g>
				</g>
			</g>
			<g id="shape1008-15" v:mID="1008" v:groupContext="shape" transform="translate(1.89005,1.42109E-13)">
				<title>Sheet.1008</title>
				<desc>Assess your strategy</desc>
				<v:textBlock v:margins="rect(4,4,4,4)"/>
				<v:textRect cx="52.0271" cy="103.609" width="104.06" height="40.5"/>
				<rect x="0" y="83.3593" width="104.054" height="40.5" class="st4"/>
				<text x="5.91" y="106.61" class="st5" v:langID="1033"><v:paragraph v:horizAlign="1"/><v:tabList/>Assess your strategy</text>			</g>
		</g>
		<g id="group1009-18" transform="translate(171.865,-41.7887)" v:mID="1009" v:groupContext="group">
			<title>Sheet.1009</title>
			<g id="group1010-19" transform="translate(-1.1191E-13,-0.318164)" v:mID="1010" v:groupContext="group">
				<title>Sheet.1010</title>
				<g id="group1011-20" transform="translate(0.737581,2.70006E-13)" v:mID="1011" v:groupContext="group">
					<title>Sheet.1011</title>
					<g id="shape1012-21" v:mID="1012" v:groupContext="shape">
						<title>Sheet.1012</title>
						<rect x="0" y="84.4909" width="107.097" height="39.3684" class="st2"/>
					</g>
					<g id="shape1013-23" v:mID="1013" v:groupContext="shape">
						<title>Sheet.1013</title>
						<rect x="0" y="84.4909" width="107.097" height="39.3684" class="st2"/>
					</g>
				</g>
				<g id="group1014-25" transform="translate(0,-0.813397)" v:mID="1014" v:groupContext="group">
					<title>Sheet.1014</title>
					<g id="shape1015-26" v:mID="1015" v:groupContext="shape">
						<title>Sheet.1015</title>
						<rect x="0" y="84.4909" width="107.097" height="39.3684" class="st3"/>
					</g>
					<g id="shape1016-28" v:mID="1016" v:groupContext="shape">
						<title>Sheet.1016</title>
						<rect x="0" y="84.4909" width="107.097" height="39.3684" class="st3"/>
					</g>
				</g>
			</g>
			<g id="shape1017-30" v:mID="1017" v:groupContext="shape" transform="translate(1.89005,1.42109E-13)">
				<title>Sheet.1017</title>
				<desc>Define your motivations, mission, and objectives</desc>
				<v:textBlock v:margins="rect(4,4,4,4)"/>
				<v:textRect cx="52.0271" cy="103.609" width="104.06" height="40.5"/>
				<rect x="0" y="83.3593" width="104.054" height="40.5" class="st4"/>
				<text x="28.16" y="95.51" class="st6" v:langID="1033"><v:paragraph v:horizAlign="1"/><v:tabList/>Define your <tspan
							x="8.93" dy="1.2em" class="st7">motivations, mission, </tspan><tspan x="22.61" dy="1.2em" class="st7">and objectives</tspan></text>			</g>
		</g>
		<g id="group1018-35" transform="translate(551.416,-41.8095)" v:mID="1018" v:groupContext="group">
			<title>Sheet.1018</title>
			<g id="group1019-36" transform="translate(-1.1191E-13,-0.318164)" v:mID="1019" v:groupContext="group">
				<title>Sheet.1019</title>
				<g id="group1020-37" transform="translate(0.737581,2.70006E-13)" v:mID="1020" v:groupContext="group">
					<title>Sheet.1020</title>
					<g id="shape1021-38" v:mID="1021" v:groupContext="shape">
						<title>Sheet.1021</title>
						<rect x="0" y="84.4909" width="107.097" height="39.3684" class="st2"/>
					</g>
					<g id="shape1022-40" v:mID="1022" v:groupContext="shape">
						<title>Sheet.1022</title>
						<rect x="0" y="84.4909" width="107.097" height="39.3684" class="st2"/>
					</g>
				</g>
				<g id="group1023-42" transform="translate(0,-0.813397)" v:mID="1023" v:groupContext="group">
					<title>Sheet.1023</title>
					<g id="shape1024-43" v:mID="1024" v:groupContext="shape">
						<title>Sheet.1024</title>
						<rect x="0" y="84.4909" width="107.097" height="39.3684" class="st3"/>
					</g>
					<g id="shape1025-45" v:mID="1025" v:groupContext="shape">
						<title>Sheet.1025</title>
						<rect x="0" y="84.4909" width="107.097" height="39.3684" class="st3"/>
					</g>
				</g>
			</g>
			<g id="shape1026-47" v:mID="1026" v:groupContext="shape" transform="translate(1.89005,1.42109E-13)">
				<title>Sheet.1026</title>
				<desc>Inform your strategy</desc>
				<v:textBlock v:margins="rect(4,4,4,4)"/>
				<v:textRect cx="52.0271" cy="103.609" width="104.06" height="40.5"/>
				<rect x="0" y="83.3593" width="104.054" height="40.5" class="st4"/>
				<text x="5.18" y="106.61" class="st8" v:langID="1033"><v:paragraph v:horizAlign="1"/><v:tabList/>Inform your strategy</text>			</g>
		</g>
		<g id="group1027-50" transform="translate(299.961,-41.8096)" v:mID="1027" v:groupContext="group">
			<title>Sheet.1027</title>
			<g id="group1028-51" transform="translate(-1.1191E-13,-0.318164)" v:mID="1028" v:groupContext="group">
				<title>Sheet.1028</title>
				<g id="group1029-52" transform="translate(0.737581,2.70006E-13)" v:mID="1029" v:groupContext="group">
					<title>Sheet.1029</title>
					<g id="shape1030-53" v:mID="1030" v:groupContext="shape">
						<title>Sheet.1030</title>
						<rect x="0" y="84.4909" width="107.097" height="39.3684" class="st2"/>
					</g>
					<g id="shape1031-55" v:mID="1031" v:groupContext="shape">
						<title>Sheet.1031</title>
						<rect x="0" y="84.4909" width="107.097" height="39.3684" class="st2"/>
					</g>
				</g>
				<g id="group1032-57" transform="translate(0,-0.813397)" v:mID="1032" v:groupContext="group">
					<title>Sheet.1032</title>
					<g id="shape1033-58" v:mID="1033" v:groupContext="shape">
						<title>Sheet.1033</title>
						<rect x="0" y="84.4909" width="107.097" height="39.3684" class="st3"/>
					</g>
					<g id="shape1034-60" v:mID="1034" v:groupContext="shape">
						<title>Sheet.1034</title>
						<rect x="0" y="84.4909" width="107.097" height="39.3684" class="st3"/>
					</g>
				</g>
			</g>
			<g id="shape1035-62" v:mID="1035" v:groupContext="shape" transform="translate(1.89005,1.42109E-13)">
				<title>Sheet.1035</title>
				<desc>Define your team</desc>
				<v:textBlock v:margins="rect(4,4,4,4)"/>
				<v:textRect cx="52.0271" cy="103.609" width="104.06" height="40.5"/>
				<rect x="0" y="83.3593" width="104.054" height="40.5" class="st4"/>
				<text x="12.63" y="106.61" class="st8" v:langID="1033"><v:paragraph v:horizAlign="1"/><v:tabList/>Define your team</text>			</g>
		</g>
		<g id="group1036-65" transform="translate(425.499,-41.8095)" v:mID="1036" v:groupContext="group">
			<title>Sheet.1036</title>
			<g id="group1037-66" transform="translate(-1.1191E-13,-0.318164)" v:mID="1037" v:groupContext="group">
				<title>Sheet.1037</title>
				<g id="group1038-67" transform="translate(0.737581,2.70006E-13)" v:mID="1038" v:groupContext="group">
					<title>Sheet.1038</title>
					<g id="shape1039-68" v:mID="1039" v:groupContext="shape">
						<title>Sheet.1039</title>
						<rect x="0" y="84.4909" width="107.097" height="39.3684" class="st2"/>
					</g>
					<g id="shape1040-70" v:mID="1040" v:groupContext="shape">
						<title>Sheet.1040</title>
						<rect x="0" y="84.4909" width="107.097" height="39.3684" class="st2"/>
					</g>
				</g>
				<g id="group1041-72" transform="translate(0,-0.813397)" v:mID="1041" v:groupContext="group">
					<title>Sheet.1041</title>
					<g id="shape1042-73" v:mID="1042" v:groupContext="shape">
						<title>Sheet.1042</title>
						<rect x="0" y="84.4909" width="107.097" height="39.3684" class="st3"/>
					</g>
					<g id="shape1043-75" v:mID="1043" v:groupContext="shape">
						<title>Sheet.1043</title>
						<rect x="0" y="84.4909" width="107.097" height="39.3684" class="st3"/>
					</g>
				</g>
			</g>
			<g id="shape1044-77" v:mID="1044" v:groupContext="shape" transform="translate(1.89005,1.42109E-13)">
				<title>Sheet.1044</title>
				<desc>Prepare your organization</desc>
				<v:textBlock v:margins="rect(4,4,4,4)"/>
				<v:textRect cx="52.0271" cy="103.609" width="104.06" height="40.5"/>
				<rect x="0" y="83.3593" width="104.054" height="40.5" class="st4"/>
				<text x="22.8" y="100.61" class="st8" v:langID="1033"><v:paragraph v:horizAlign="1"/><v:tabList/>Prepare your <tspan
							x="23.4" dy="1.2em" class="st7">organization</tspan></text>			</g>
		</g>
		<g id="group1045-81" transform="translate(281.878,-58.8924)" v:mID="1045" v:groupContext="group">
			<title>Sheet.1045</title>
			<g id="shape1046-82" v:mID="1046" v:groupContext="shape" transform="translate(0,-3.04211)">
				<title>Sheet.1046</title>
				<path d="M0 123.86 L12.75 123.86" class="st9"/>
			</g>
			<g id="shape1047-85" v:mID="1047" v:groupContext="shape" transform="translate(11.9076,-2.84217E-14)">
				<title>Sheet.1047</title>
				<path d="M0 123.86 L4.97 120.82 L0 117.78 L0 123.86 Z" class="st10"/>
			</g>
		</g>
		<g id="group1048-87" transform="translate(410.128,-58.8924)" v:mID="1048" v:groupContext="group">
			<title>Sheet.1048</title>
			<g id="shape1049-88" v:mID="1049" v:groupContext="shape" transform="translate(0,-3.04211)">
				<title>Sheet.1049</title>
				<path d="M0 123.86 L10.2 123.86" class="st9"/>
			</g>
			<g id="shape1050-91" v:mID="1050" v:groupContext="shape" transform="translate(9.52609,-2.84217E-14)">
				<title>Sheet.1050</title>
				<path d="M0 123.86 L3.97 120.82 L0 117.78 L0 123.86 Z" class="st10"/>
			</g>
		</g>
		<g id="group1051-93" transform="translate(534.541,-58.8924)" v:mID="1051" v:groupContext="group">
			<title>Sheet.1051</title>
			<g id="shape1052-94" v:mID="1052" v:groupContext="shape" transform="translate(0,-3.04211)">
				<title>Sheet.1052</title>
				<path d="M0 123.86 L11.05 123.86" class="st9"/>
			</g>
			<g id="shape1053-97" v:mID="1053" v:groupContext="shape" transform="translate(10.3199,-2.84217E-14)">
				<title>Sheet.1053</title>
				<path d="M0 123.86 L4.31 120.82 L0 117.78 L0 123.86 Z" class="st10"/>
			</g>
		</g>
		<g id="shape1054-99" v:mID="1054" v:groupContext="shape" transform="translate(24.5018,-24.3556)">
			<title>Sheet.1054</title>
			<path d="M645.69 48.7 C648.33 48.7 650.5 50.17 650.5 51.95 L650.5 120.61 C650.5 122.4 648.33 123.86 645.69 123.86 L4.81
						 123.86 C2.16 123.86 0 122.4 0 120.61 L0 51.95 C0 50.17 2.16 48.7 4.81 48.7 L645.69 48.7 Z" class="st11"/>
		</g>
		<g id="group1055-101" transform="translate(175.506,-93.9883)" v:mID="1055" v:groupContext="group">
			<title>Sheet.1055</title>
			<g id="shape1056-102" v:mID="1056" v:groupContext="shape" transform="translate(2.42311,-5.52459)">
				<title>Sheet.1056</title>
				<path d="M0 123.86 L5.24 123.86" class="st12"/>
			</g>
			<g id="shape1057-105" v:mID="1057" v:groupContext="shape">
				<title>Sheet.1057</title>
				<path d="M0.16 123.61 C0 123.35 0.08 123.01 0.33 122.85 L7.42 118.33 L0.33 113.82 C0.08 113.66 0 113.32 0.16 113.06
							 C0.33 112.81 0.67 112.73 0.92 112.9 L8.73 117.87 C8.89 117.97 8.99 118.15 8.99 118.33 C8.99 118.52 8.89
							 118.7 8.73 118.8 L0.92 123.77 C0.83 123.83 0.73 123.86 0.63 123.86 C0.44 123.86 0.27 123.77 0.16 123.61
							 Z" class="st13"/>
			</g>
		</g>
		<g id="group1058-107" transform="translate(427.506,-93.9971)" v:mID="1058" v:groupContext="group">
			<title>Sheet.1058</title>
			<g id="shape1059-108" v:mID="1059" v:groupContext="shape" transform="translate(2.42311,-5.52459)">
				<title>Sheet.1059</title>
				<path d="M0 123.86 L5.24 123.86" class="st12"/>
			</g>
			<g id="shape1060-111" v:mID="1060" v:groupContext="shape">
				<title>Sheet.1060</title>
				<path d="M0.16 123.61 C0 123.35 0.08 123.01 0.33 122.85 L7.42 118.33 L0.33 113.82 C0.08 113.66 0 113.32 0.16 113.06
							 C0.33 112.81 0.67 112.73 0.92 112.9 L8.73 117.87 C8.89 117.97 8.99 118.15 8.99 118.33 C8.99 118.52 8.89
							 118.7 8.73 118.8 L0.92 123.77 C0.83 123.83 0.73 123.86 0.63 123.86 C0.44 123.86 0.27 123.77 0.16 123.61
							 Z" class="st13"/>
			</g>
		</g>
		<g id="group1064-113" transform="translate(220.667,-18.8134)" v:mID="1064" v:groupContext="group">
			<title>Sheet.1064</title>
			<g id="shape1065-114" v:mID="1065" v:groupContext="shape" transform="translate(1.32014,-5.52459)">
				<title>Sheet.1065</title>
				<path d="M0 123.86 L5.24 123.86" class="st12"/>
			</g>
			<g id="shape1066-117" v:mID="1066" v:groupContext="shape">
				<title>Sheet.1066</title>
				<path d="M8.82 123.61 C8.99 123.35 8.91 123.01 8.66 122.85 L1.57 118.33 L8.66 113.82 C8.91 113.66 8.99 113.32 8.82
							 113.06 C8.66 112.81 8.32 112.73 8.07 112.9 L0.25 117.87 C0.1 117.97 0 118.15 0 118.33 C0 118.52 0.1
							 118.7 0.25 118.8 L8.07 123.77 C8.16 123.83 8.26 123.86 8.36 123.86 C8.54 123.86 8.72 123.77 8.82 123.61
							 Z" class="st13"/>
			</g>
		</g>
		<g id="group1070-119" transform="translate(18.8134,-42.7564)" v:mID="1070" v:groupContext="group">
			<title>Sheet.1070</title>
			<g id="shape1071-120" v:mID="1071" v:groupContext="shape" transform="translate(129.384,116.192) rotate(90)">
				<title>Sheet.1071</title>
				<path d="M0 123.86 L6.47 123.86" class="st12"/>
			</g>
			<g id="shape1072-123" v:mID="1072" v:groupContext="shape">
				<title>Sheet.1072</title>
				<path d="M0.25 123.7 C0.51 123.86 0.85 123.78 1.01 123.53 L5.52 116.44 L10.04 123.53 C10.2 123.78 10.54 123.86 10.8
							 123.7 C11.05 123.53 11.12 123.19 10.96 122.94 L5.99 115.13 C5.89 114.97 5.71 114.87 5.52 114.87 C5.34
							 114.87 5.16 114.97 5.06 115.13 L0.09 122.94 C0.03 123.03 0 123.13 0 123.23 C0 123.41 0.09 123.59 0.25
							 123.7 Z" class="st13"/>
			</g>
		</g>
		<g id="group1073-125" transform="translate(669.489,-76.5064)" v:mID="1073" v:groupContext="group">
			<title>Sheet.1073</title>
			<g id="shape1074-126" v:mID="1074" v:groupContext="shape" transform="translate(129.384,116.065) rotate(90)">
				<title>Sheet.1074</title>
				<path d="M0 123.86 L6.47 123.86" class="st12"/>
			</g>
			<g id="shape1075-129" v:mID="1075" v:groupContext="shape">
				<title>Sheet.1075</title>
				<path d="M0.25 115.03 C0.51 114.87 0.85 114.95 1.01 115.2 L5.52 122.29 L10.04 115.2 C10.2 114.95 10.54 114.87 10.8
							 115.03 C11.05 115.2 11.12 115.54 10.96 115.79 L5.99 123.61 C5.89 123.76 5.71 123.86 5.52 123.86 C5.34
							 123.86 5.16 123.76 5.06 123.61 L0.09 115.79 C0.03 115.7 0 115.6 0 115.5 C0 115.32 0.09 115.14 0.25 115.03
							 Z" class="st13"/>
			</g>
		</g>
		<g id="group1076-131" transform="translate(152.752,-58.8954)" v:mID="1076" v:groupContext="group">
			<title>Sheet.1076</title>
			<g id="shape1077-132" v:mID="1077" v:groupContext="shape" transform="translate(0,-3.04211)">
				<title>Sheet.1077</title>
				<path d="M0 123.86 L12.75 123.86" class="st9"/>
			</g>
			<g id="shape1078-135" v:mID="1078" v:groupContext="shape" transform="translate(11.9076,-2.84217E-14)">
				<title>Sheet.1078</title>
				<path d="M0 123.86 L4.97 120.82 L0 117.78 L0 123.86 Z" class="st10"/>
			</g>
		</g>
		<g id="group1079-137" transform="translate(477.013,-18.8752)" v:mID="1079" v:groupContext="group">
			<title>Sheet.1079</title>
			<g id="shape1080-138" v:mID="1080" v:groupContext="shape" transform="translate(1.32014,-5.52459)">
				<title>Sheet.1080</title>
				<path d="M0 123.86 L5.24 123.86" class="st12"/>
			</g>
			<g id="shape1081-141" v:mID="1081" v:groupContext="shape">
				<title>Sheet.1081</title>
				<path d="M8.82 123.61 C8.99 123.35 8.91 123.01 8.66 122.85 L1.57 118.33 L8.66 113.82 C8.91 113.66 8.99 113.32 8.82
							 113.06 C8.66 112.81 8.32 112.73 8.07 112.9 L0.25 117.87 C0.1 117.97 0 118.15 0 118.33 C0 118.52 0.1
							 118.7 0.25 118.8 L8.07 123.77 C8.16 123.83 8.26 123.86 8.36 123.86 C8.54 123.86 8.72 123.77 8.82 123.61
							 Z" class="st13"/>
			</g>
		</g>
	</g>
</svg>
