<svg width="3186" height="564" xmlns="http://www.w3.org/2000/svg" xmlns:xlink="http://www.w3.org/1999/xlink" xml:space="preserve" overflow="hidden"><defs><filter id="fx0" x="-10%" y="-10%" width="120%" height="120%" filterUnits="userSpaceOnUse" primitiveUnits="userSpaceOnUse"><feComponentTransfer color-interpolation-filters="sRGB"><feFuncR type="discrete" tableValues="0 0"/><feFuncG type="discrete" tableValues="0 0"/><feFuncB type="discrete" tableValues="0 0"/><feFuncA type="linear" slope="0.4" intercept="0"/></feComponentTransfer><feGaussianBlur stdDeviation="6.11111 6.11111"/></filter><filter id="fx1" x="-10%" y="-10%" width="120%" height="120%" filterUnits="userSpaceOnUse" primitiveUnits="userSpaceOnUse"><feComponentTransfer color-interpolation-filters="sRGB"><feFuncR type="discrete" tableValues="0 0"/><feFuncG type="discrete" tableValues="0 0"/><feFuncB type="discrete" tableValues="0 0"/><feFuncA type="linear" slope="0.4" intercept="0"/></feComponentTransfer><feGaussianBlur stdDeviation="6.11111 6.11111"/></filter><filter id="fx2" x="-10%" y="-10%" width="120%" height="120%" filterUnits="userSpaceOnUse" primitiveUnits="userSpaceOnUse"><feComponentTransfer color-interpolation-filters="sRGB"><feFuncR type="discrete" tableValues="0 0"/><feFuncG type="discrete" tableValues="0 0"/><feFuncB type="discrete" tableValues="0 0"/><feFuncA type="linear" slope="0.4" intercept="0"/></feComponentTransfer><feGaussianBlur stdDeviation="6.11111 6.11111"/></filter><filter id="fx3" x="-10%" y="-10%" width="120%" height="120%" filterUnits="userSpaceOnUse" primitiveUnits="userSpaceOnUse"><feComponentTransfer color-interpolation-filters="sRGB"><feFuncR type="discrete" tableValues="0 0"/><feFuncG type="discrete" tableValues="0 0"/><feFuncB type="discrete" tableValues="0 0"/><feFuncA type="linear" slope="0.4" intercept="0"/></feComponentTransfer><feGaussianBlur stdDeviation="6.11111 6.11111"/></filter><filter id="fx4" x="-10%" y="-10%" width="120%" height="120%" filterUnits="userSpaceOnUse" primitiveUnits="userSpaceOnUse"><feComponentTransfer color-interpolation-filters="sRGB"><feFuncR type="discrete" tableValues="0 0"/><feFuncG type="discrete" tableValues="0 0"/><feFuncB type="discrete" tableValues="0 0"/><feFuncA type="linear" slope="0.4" intercept="0"/></feComponentTransfer><feGaussianBlur stdDeviation="6.11111 6.11111"/></filter><filter id="fx5" x="-10%" y="-10%" width="120%" height="120%" filterUnits="userSpaceOnUse" primitiveUnits="userSpaceOnUse"><feComponentTransfer color-interpolation-filters="sRGB"><feFuncR type="discrete" tableValues="0 0"/><feFuncG type="discrete" tableValues="0 0"/><feFuncB type="discrete" tableValues="0 0"/><feFuncA type="linear" slope="0.4" intercept="0"/></feComponentTransfer><feGaussianBlur stdDeviation="6.11111 6.11111"/></filter><filter id="fx6" x="-10%" y="-10%" width="120%" height="120%" filterUnits="userSpaceOnUse" primitiveUnits="userSpaceOnUse"><feComponentTransfer color-interpolation-filters="sRGB"><feFuncR type="discrete" tableValues="0 0"/><feFuncG type="discrete" tableValues="0 0"/><feFuncB type="discrete" tableValues="0 0"/><feFuncA type="linear" slope="0.4" intercept="0"/></feComponentTransfer><feGaussianBlur stdDeviation="6.11111 6.11111"/></filter><filter id="fx7" x="-10%" y="-10%" width="120%" height="120%" filterUnits="userSpaceOnUse" primitiveUnits="userSpaceOnUse"><feComponentTransfer color-interpolation-filters="sRGB"><feFuncR type="discrete" tableValues="0 0"/><feFuncG type="discrete" tableValues="0 0"/><feFuncB type="discrete" tableValues="0 0"/><feFuncA type="linear" slope="0.4" intercept="0"/></feComponentTransfer><feGaussianBlur stdDeviation="6.11111 6.11111"/></filter><clipPath id="clip8"><rect x="-164" y="849" width="3186" height="564"/></clipPath><clipPath id="clip9"><rect x="35" y="28" width="527" height="224"/></clipPath><clipPath id="clip10"><rect x="32" y="28" width="547" height="93"/></clipPath><clipPath id="clip11"><rect x="32" y="28" width="351" height="159"/></clipPath><clipPath id="clip12"><rect x="35" y="28" width="506" height="148"/></clipPath></defs><g clip-path="url(#clip8)" transform="translate(164 -849)"><rect x="-164" y="849" width="3186" height="564" fill="#FFFFFF"/><g filter="url(#fx0)" transform="translate(-35 1003)"><g><rect x="19.9999" y="19.7499" width="578" height="248" fill="#95C8E8"/></g></g><g clip-path="url(#clip9)" filter="url(#fx1)" transform="translate(-24 1011)"><g><path d="M4.32373 0 4.32373-36.1475 17.7783-36.1475C21.6455-36.1475 24.9532-35.4313 27.7014-33.999 30.4496-32.5667 32.5488-30.5078 33.999-27.8223 35.4492-25.1367 36.1743-21.9141 36.1743-18.1543 36.1743-14.2692 35.4403-10.9749 33.9722-8.27148 32.5041-5.56803 30.3959-3.51359 27.6477-2.10815 24.8995-0.702718 21.6097 0 17.7783 0ZM11.8701-6.28418 16.9727-6.28418C19.5329-6.28418 21.6589-6.71834 23.3508-7.58667 25.0427-8.455 26.3094-9.77091 27.1509-11.5344 27.9923-13.2979 28.4131-15.5225 28.4131-18.208 28.4131-20.7682 27.961-22.9122 27.0569-24.6399 26.1527-26.3676 24.8503-27.6701 23.1494-28.5474 21.4486-29.4246 19.3896-29.8633 16.9727-29.8633L11.8701-29.8633ZM54.8299 0.483398C51.9116 0.483398 49.4588-0.0581869 47.4715-1.14136 45.4842-2.22453 43.9803-3.78662 42.9598-5.82764 41.9393-7.86865 41.429-10.3215 41.429-13.186 41.429-15.9611 41.9259-18.3512 42.9195-20.3564 43.9132-22.3617 45.3723-23.9058 47.297-24.989 49.2216-26.0722 51.5894-26.6138 54.4002-26.6138 58.3032-26.6138 61.3871-25.4724 63.6519-23.1897 65.9167-20.907 67.0491-17.653 67.0491-13.4277 67.0491-13.2129 67.0402-12.922 67.0223-12.5549 67.0044-12.1879 66.9775-11.9059 66.9417-11.709L48.5457-11.709C48.5815-10.4736 48.8098-9.31885 49.2305-8.24463 49.6513-7.17041 50.3182-6.30656 51.2313-5.65308 52.1444-4.99959 53.3439-4.67285 54.8299-4.67285 56.3696-4.67285 57.605-5.00854 58.536-5.67993 59.467-6.35132 59.9414-7.34945 59.9593-8.67432L66.9686-8.67432C66.8791-6.6333 66.3196-4.93245 65.2901-3.57178 64.2607-2.2111 62.8552-1.19507 61.0738-0.523682 59.2924 0.147705 57.2111 0.483398 54.8299 0.483398ZM48.6263-16.2207 59.9862-16.2207C59.9324-18.0469 59.3909-19.412 58.3614-20.3162 57.3319-21.2203 56.0116-21.6724 54.4002-21.6724 52.7531-21.6724 51.4058-21.2069 50.3585-20.2759 49.3111-19.3449 48.7337-17.9932 48.6263-16.2207ZM74.2643 0 74.2643-20.7324 69.9137-20.7324 69.9137-26.2109 74.2643-26.2109 74.2643-27.0435C74.2643-28.619 74.4165-29.9841 74.7209-31.1389 75.0252-32.2937 75.5489-33.2381 76.2919-33.9722 77.0349-34.7062 78.0599-35.2523 79.3669-35.6103 80.6738-35.9684 82.3299-36.1475 84.3351-36.1475L86.9401-36.1475 86.9401-30.9912 84.5768-30.9912C83.2161-30.9912 82.3433-30.6779 81.9584-30.0513 81.5735-29.4246 81.381-28.422 81.381-27.0435L81.381-26.2109 86.967-26.2109 86.967-20.7324 81.381-20.7324 81.381 0ZM91.4697 0 91.4697-26.2109 98.5864-26.2109 98.5864 0ZM95.0415-29.6484C93.7345-29.6484 92.7364-29.9797 92.0471-30.6421 91.3578-31.3045 91.0132-32.1281 91.0132-33.1128 91.0132-34.1154 91.3578-34.9434 92.0471-35.5969 92.7364-36.2504 93.7345-36.5771 95.0415-36.5771 96.3485-36.5771 97.3466-36.2504 98.0359-35.5969 98.7252-34.9434 99.0698-34.1154 99.0698-33.1128 99.0698-32.1281 98.7252-31.3045 98.0359-30.6421 97.3466-29.9797 96.3485-29.6484 95.0415-29.6484ZM106.366 0 106.366-26.2109 113.214-26.2109 113.348-22.29C114.225-23.418 115.38-24.4161 116.812-25.2844 118.245-26.1527 120.107-26.5869 122.398-26.5869 125.066-26.5869 127.134-25.7768 128.602-24.1565 130.07-22.5362 130.804-20.1685 130.804-17.0532L130.804 0 123.741 0 123.741-16.1401C123.741-17.089 123.607-17.9215 123.338-18.6377 123.07-19.3538 122.644-19.9089 122.063-20.3027 121.481-20.6966 120.715-20.8936 119.766-20.8936 118.352-20.8936 117.139-20.5623 116.128-19.8999 115.116-19.2375 114.234-18.4318 113.482-17.4829L113.482 0ZM150.507 0.483398C147.589 0.483398 145.136-0.0581869 143.149-1.14136 141.161-2.22453 139.657-3.78662 138.637-5.82764 137.616-7.86865 137.106-10.3215 137.106-13.186 137.106-15.9611 137.603-18.3512 138.597-20.3564 139.59-22.3617 141.049-23.9058 142.974-24.989 144.899-26.0722 147.266-26.6138 150.077-26.6138 153.98-26.6138 157.064-25.4724 159.329-23.1897 161.594-20.907 162.726-17.653 162.726-13.4277 162.726-13.2129 162.717-12.922 162.699-12.5549 162.681-12.1879 162.655-11.9059 162.619-11.709L144.223-11.709C144.259-10.4736 144.487-9.31885 144.908-8.24463 145.328-7.17041 145.995-6.30656 146.908-5.65308 147.821-4.99959 149.021-4.67285 150.507-4.67285 152.047-4.67285 153.282-5.00854 154.213-5.67993 155.144-6.35132 155.618-7.34945 155.636-8.67432L162.646-8.67432C162.556-6.6333 161.997-4.93245 160.967-3.57178 159.938-2.2111 158.532-1.19507 156.751-0.523682 154.969 0.147705 152.888 0.483398 150.507 0.483398ZM144.303-16.2207 155.663-16.2207C155.61-18.0469 155.068-19.412 154.038-20.3162 153.009-21.2203 151.689-21.6724 150.077-21.6724 148.43-21.6724 147.083-21.2069 146.036-20.2759 144.988-19.3449 144.411-17.9932 144.303-16.2207ZM180.272 0 180.272-26.2109 187.12-26.2109 187.254-22.29C188.114-23.418 189.3-24.4161 190.813-25.2844 192.325-26.1527 194.192-26.5869 196.412-26.5869 199.044-26.5869 201.062-25.7589 202.468-24.1028 203.873-22.4467 204.576-20.0968 204.576-17.0532L204.576 0 197.459 0 197.459-16.1401C197.459-17.089 197.329-17.9215 197.07-18.6377 196.81-19.3538 196.39-19.9089 195.808-20.3027 195.226-20.6966 194.469-20.8936 193.538-20.8936 192.16-20.8936 190.978-20.5623 189.993-19.8999 189.009-19.2375 188.14-18.4318 187.389-17.4829L187.389 0ZM214.674 0 214.674-16.1401C214.674-17.089 214.544-17.9215 214.284-18.6377 214.025-19.3538 213.604-19.9089 213.022-20.3027 212.44-20.6966 211.684-20.8936 210.753-20.8936 209.374-20.8936 208.188-20.5892 207.194-19.9805 206.201-19.3717 205.31-18.6108 204.522-17.6978L203.663-22.102C204.791-23.3016 206.174-24.349 207.812-25.2441 209.45-26.1393 211.379-26.5869 213.599-26.5869 216.213-26.5869 218.232-25.7589 219.655-24.1028 221.079-22.4467 221.79-20.0968 221.79-17.0532L221.79 0ZM240.867 0.429687C238.217 0.429687 235.894-0.0984701 233.898-1.15479 231.901-2.2111 230.357-3.74186 229.265-5.74707 228.173-7.75228 227.627-10.1782 227.627-13.0249 227.627-15.9253 228.173-18.3915 229.265-20.4236 230.357-22.4556 231.901-24.0043 233.898-25.0696 235.894-26.1348 238.217-26.6675 240.867-26.6675 243.552-26.6675 245.893-26.1348 247.889-25.0696 249.886-24.0043 251.439-22.4556 252.549-20.4236 253.659-18.3915 254.214-15.9253 254.214-13.0249 254.214-10.1782 253.659-7.75228 252.549-5.74707 251.439-3.74186 249.886-2.2111 247.889-1.15479 245.893-0.0984701 243.552 0.429687 240.867 0.429687ZM240.867-4.99512C242.424-4.99512 243.646-5.35767 244.532-6.08276 245.419-6.80786 246.045-7.77913 246.412-8.99658 246.779-10.214 246.963-11.5568 246.963-13.0249 246.963-14.5288 246.779-15.8984 246.412-17.1338 246.045-18.3691 245.419-19.3538 244.532-20.0879 243.646-20.8219 242.424-21.189 240.867-21.189 239.345-21.189 238.15-20.8219 237.281-20.0879 236.413-19.3538 235.8-18.3691 235.442-17.1338 235.084-15.8984 234.905-14.5288 234.905-13.0249 234.905-11.5568 235.084-10.214 235.442-8.99658 235.8-7.77913 236.413-6.80786 237.281-6.08276 238.15-5.35767 239.345-4.99512 240.867-4.99512ZM271.679 0C269.029 0 266.975-0.31779 265.516-0.953369 264.056-1.58895 263.04-2.57365 262.467-3.90747 261.895-5.24129 261.608-6.98242 261.608-9.13086L261.608-20.7324 257.257-20.7324 257.257-26.2109 261.608-26.2109 261.608-32.3877 268.725-32.3877 268.725-26.2109 274.445-26.2109 274.445-20.7324 268.725-20.7324 268.725-9.56055C268.725-8.18196 268.917-7.16146 269.302-6.49902 269.687-5.83659 270.56-5.50537 271.921-5.50537L274.445-5.50537 274.445 0ZM279.959 0 279.959-26.2109 287.076-26.2109 287.076 0ZM283.531-29.6484C282.224-29.6484 281.226-29.9797 280.537-30.6421 279.847-31.3045 279.503-32.1281 279.503-33.1128 279.503-34.1154 279.847-34.9434 280.537-35.5969 281.226-36.2504 282.224-36.5771 283.531-36.5771 284.838-36.5771 285.836-36.2504 286.525-35.5969 287.215-34.9434 287.559-34.1154 287.559-33.1128 287.559-32.1281 287.215-31.3045 286.525-30.6421 285.836-29.9797 284.838-29.6484 283.531-29.6484ZM300.575 0 291.042-26.2109 298.454-26.2109 304.631-6.6333 310.995-26.2109 318.193-26.2109 308.686 0ZM328.33 0.456543C326.844 0.456543 325.456 0.170085 324.167-0.402832 322.878-0.975749 321.835-1.8396 321.039-2.99438 320.242-4.14917 319.844-5.59489 319.844-7.33154 319.844-9.74853 320.569-11.5702 322.019-12.7966 323.469-14.023 325.497-14.8555 328.102-15.2942 330.707-15.7328 333.737-15.988 337.192-16.0596L337.192-17.4561C337.192-19.1569 336.785-20.3206 335.97-20.9473 335.156-21.5739 334.104-21.8872 332.815-21.8872 331.4-21.8872 330.237-21.5515 329.324-20.8801 328.41-20.2087 327.954-19.1211 327.954-17.6172L321.294-17.6172C321.294-19.8551 321.782-21.6276 322.757-22.9346 323.733-24.2415 325.085-25.1815 326.813-25.7544 328.54-26.3273 330.541-26.6138 332.815-26.6138 334.48-26.6138 336.002-26.475 337.38-26.1975 338.759-25.92 339.954-25.4411 340.965-24.7607 341.977-24.0804 342.76-23.1539 343.315-21.9812 343.87-20.8085 344.148-19.3449 344.148-17.5903L344.148 0 337.488 0 337.273-3.41064C336.163-2.13949 334.874-1.17716 333.406-0.523682 331.938 0.129801 330.246 0.456543 328.33 0.456543ZM330.666-4.43115C332.009-4.43115 333.249-4.78027 334.386-5.47852 335.523-6.17676 336.431-6.97347 337.112-7.86865L337.112-12.1118C333.352-12.0939 330.72-11.7403 329.216-11.051 327.712-10.3617 326.96-9.24723 326.96-7.70752 326.96-6.59749 327.305-5.77393 327.994-5.23682 328.684-4.69971 329.574-4.43115 330.666-4.43115ZM362.406 0C359.756 0 357.702-0.31779 356.243-0.953369 354.783-1.58895 353.767-2.57365 353.195-3.90747 352.622-5.24129 352.335-6.98242 352.335-9.13086L352.335-20.7324 347.985-20.7324 347.985-26.2109 352.335-26.2109 352.335-32.3877 359.452-32.3877 359.452-26.2109 365.172-26.2109 365.172-20.7324 359.452-20.7324 359.452-9.56055C359.452-8.18196 359.644-7.16146 360.029-6.49902 360.414-5.83659 361.287-5.50537 362.648-5.50537L365.172-5.50537 365.172 0ZM370.686 0 370.686-26.2109 377.803-26.2109 377.803 0ZM374.258-29.6484C372.951-29.6484 371.953-29.9797 371.264-30.6421 370.574-31.3045 370.23-32.1281 370.23-33.1128 370.23-34.1154 370.574-34.9434 371.264-35.5969 371.953-36.2504 372.951-36.5771 374.258-36.5771 375.565-36.5771 376.563-36.2504 377.253-35.5969 377.942-34.9434 378.286-34.1154 378.286-33.1128 378.286-32.1281 377.942-31.3045 377.253-30.6421 376.563-29.9797 375.565-29.6484 374.258-29.6484ZM397.479 0.429687C394.829 0.429687 392.506-0.0984701 390.51-1.15479 388.514-2.2111 386.97-3.74186 385.878-5.74707 384.785-7.75228 384.239-10.1782 384.239-13.0249 384.239-15.9253 384.785-18.3915 385.878-20.4236 386.97-22.4556 388.514-24.0043 390.51-25.0696 392.506-26.1348 394.829-26.6675 397.479-26.6675 400.165-26.6675 402.506-26.1348 404.502-25.0696 406.498-24.0043 408.051-22.4556 409.161-20.4236 410.271-18.3915 410.826-15.9253 410.826-13.0249 410.826-10.1782 410.271-7.75228 409.161-5.74707 408.051-3.74186 406.498-2.2111 404.502-1.15479 402.506-0.0984701 400.165 0.429687 397.479 0.429687ZM397.479-4.99512C399.037-4.99512 400.259-5.35767 401.145-6.08276 402.031-6.80786 402.658-7.77913 403.025-8.99658 403.392-10.214 403.575-11.5568 403.575-13.0249 403.575-14.5288 403.392-15.8984 403.025-17.1338 402.658-18.3691 402.031-19.3538 401.145-20.0879 400.259-20.8219 399.037-21.189 397.479-21.189 395.957-21.189 394.762-20.8219 393.894-20.0879 393.026-19.3538 392.412-18.3691 392.054-17.1338 391.696-15.8984 391.517-14.5288 391.517-13.0249 391.517-11.5568 391.696-10.214 392.054-8.99658 392.412-7.77913 393.026-6.80786 393.894-6.08276 394.762-5.35767 395.957-4.99512 397.479-4.99512ZM417.093 0 417.093-26.2109 423.941-26.2109 424.075-22.29C424.952-23.418 426.107-24.4161 427.539-25.2844 428.972-26.1527 430.834-26.5869 433.125-26.5869 435.793-26.5869 437.861-25.7768 439.329-24.1565 440.797-22.5362 441.531-20.1685 441.531-17.0532L441.531 0 434.468 0 434.468-16.1401C434.468-17.089 434.334-17.9215 434.065-18.6377 433.797-19.3538 433.371-19.9089 432.79-20.3027 432.208-20.6966 431.442-20.8936 430.493-20.8936 429.079-20.8936 427.866-20.5623 426.855-19.8999 425.843-19.2375 424.961-18.4318 424.209-17.4829L424.209 0ZM459.703 0.483398C458.253 0.483398 456.83 0.349121 455.433 0.0805664 454.037-0.187988 452.775-0.649007 451.647-1.30249 450.519-1.95597 449.624-2.84668 448.961-3.97461 448.299-5.10254 447.967-6.50797 447.967-8.19092L454.574-8.19092C454.574-6.72282 455.089-5.70231 456.118-5.12939 457.148-4.55648 458.352-4.27002 459.73-4.27002 461.091-4.27002 462.147-4.48934 462.899-4.92798 463.651-5.36662 464.027-6.10514 464.027-7.14355 464.027-8.12825 463.584-8.8623 462.698-9.3457 461.811-9.8291 460.258-10.3215 458.038-10.8228 456.176-11.2703 454.516-11.8119 453.057-12.4475 451.597-13.0831 450.456-13.9335 449.633-14.9988 448.809-16.064 448.397-17.465 448.397-19.2017 448.397-20.5623 448.71-21.7171 449.337-22.666 449.964-23.6149 450.801-24.3803 451.848-24.9622 452.895-25.544 454.077-25.9692 455.393-26.2378 456.709-26.5063 458.056-26.6406 459.435-26.6406 460.778-26.6406 462.093-26.5063 463.383-26.2378 464.672-25.9692 465.835-25.5172 466.874-24.8816 467.912-24.246 468.745-23.3911 469.371-22.3169 469.998-21.2427 470.311-19.8999 470.311-18.2886L463.705-18.2886C463.705-19.6313 463.28-20.5623 462.429-21.0815 461.579-21.6007 460.581-21.8603 459.435-21.8603 458.199-21.8603 457.228-21.6813 456.521-21.3232 455.814-20.9652 455.46-20.3743 455.46-19.5508 455.46-19.0674 455.684-18.6422 456.132-18.2751 456.579-17.9081 457.295-17.568 458.28-17.2546 459.265-16.9413 460.563-16.6056 462.174-16.2476 463.875-15.8537 465.397-15.3434 466.739-14.7168 468.082-14.0902 469.147-13.2487 469.935-12.1924 470.723-11.1361 471.117-9.76644 471.117-8.0835 471.117-6.50797 470.799-5.17415 470.164-4.08203 469.528-2.98991 468.677-2.10815 467.612-1.43677 466.547-0.765381 465.33-0.277506 463.96 0.0268555 462.59 0.331217 461.171 0.483398 459.703 0.483398ZM477.713 8.32519 476.746 4.80713C478 4.41325 479.02 3.8269 479.808 3.0481 480.596 2.26929 481.07 1.25326 481.231 0L481.688 0.375977C480.309 0.375977 479.195-0.049235 478.344-0.899658 477.494-1.75008 477.069-2.78402 477.069-4.00146 477.069-5.32633 477.494-6.38265 478.344-7.17041 479.195-7.95817 480.309-8.35205 481.688-8.35205 483.031-8.35205 484.118-7.88208 484.951-6.94214 485.783-6.0022 486.2-4.60124 486.2-2.73926 486.2-0.537109 485.783 1.32935 484.951 2.86011 484.118 4.39087 483.057 5.60384 481.768 6.49902 480.479 7.39421 479.128 8.00293 477.713 8.32519Z" transform="matrix(1 0 0 1 53.0269 88)"/><path d="M3.81348 0 3.81348-26.2109 10.6616-26.2109 10.7959-22.29C11.6553-23.418 12.8414-24.4161 14.3542-25.2844 15.8671-26.1527 17.7336-26.5869 19.9536-26.5869 22.5854-26.5869 24.6041-25.7589 26.0095-24.1028 27.415-22.4467 28.1177-20.0968 28.1177-17.0532L28.1177 0 21.001 0 21.001-16.1401C21.001-17.089 20.8712-17.9215 20.6116-18.6377 20.352-19.3538 19.9312-19.9089 19.3494-20.3027 18.7675-20.6966 18.0111-20.8936 17.0801-20.8936 15.7015-20.8936 14.5199-20.5623 13.5352-19.8999 12.5505-19.2375 11.6821-18.4318 10.9302-17.4829L10.9302 0ZM38.2153 0 38.2153-16.1401C38.2153-17.089 38.0855-17.9215 37.8259-18.6377 37.5663-19.3538 37.1456-19.9089 36.5637-20.3027 35.9818-20.6966 35.2254-20.8936 34.2944-20.8936 32.9158-20.8936 31.7297-20.5892 30.7361-19.9805 29.7424-19.3717 28.8517-18.6108 28.064-17.6978L27.2046-22.102C28.3325-23.3016 29.7156-24.349 31.3538-25.2441 32.9919-26.1393 34.9211-26.5869 37.1411-26.5869 39.755-26.5869 41.7737-25.7589 43.197-24.1028 44.6204-22.4467 45.332-20.0968 45.332-17.0532L45.332 0ZM52.5114 0 52.5114-26.2109 59.6281-26.2109 59.6281 0ZM56.0832-29.6484C54.7762-29.6484 53.7781-29.9797 53.0888-30.6421 52.3995-31.3045 52.0548-32.1281 52.0548-33.1128 52.0548-34.1154 52.3995-34.9434 53.0888-35.5969 53.7781-36.2504 54.7762-36.5771 56.0832-36.5771 57.3901-36.5771 58.3883-36.2504 59.0776-35.5969 59.7668-34.9434 60.1115-34.1154 60.1115-33.1128 60.1115-32.1281 59.7668-31.3045 59.0776-30.6421 58.3883-29.9797 57.3901-29.6484 56.0832-29.6484ZM77.9346 0.483398C76.4844 0.483398 75.061 0.349121 73.6645 0.0805664 72.2681-0.187988 71.0058-0.649007 69.8779-1.30249 68.75-1.95597 67.8548-2.84668 67.1924-3.97461 66.5299-5.10254 66.1987-6.50797 66.1987-8.19092L72.8052-8.19092C72.8052-6.72282 73.3199-5.70231 74.3494-5.12939 75.3788-4.55648 76.5828-4.27002 77.9614-4.27002 79.3221-4.27002 80.3784-4.48934 81.1304-4.92798 81.8823-5.36662 82.2583-6.10514 82.2583-7.14355 82.2583-8.12825 81.8152-8.8623 80.9289-9.3457 80.0427-9.8291 78.4896-10.3215 76.2695-10.8228 74.4075-11.2703 72.747-11.8119 71.2878-12.4475 69.8287-13.0831 68.6873-13.9335 67.8638-14.9988 67.0402-16.064 66.6284-17.465 66.6284-19.2017 66.6284-20.5623 66.9417-21.7171 67.5684-22.666 68.195-23.6149 69.032-24.3803 70.0793-24.9622 71.1267-25.544 72.3083-25.9692 73.6243-26.2378 74.9402-26.5063 76.2874-26.6406 77.666-26.6406 79.0088-26.6406 80.3247-26.5063 81.6138-26.2378 82.9028-25.9692 84.0666-25.5172 85.105-24.8816 86.1434-24.246 86.9759-23.3911 87.6025-22.3169 88.2292-21.2427 88.5425-19.8999 88.5425-18.2886L81.936-18.2886C81.936-19.6313 81.5108-20.5623 80.6604-21.0815 79.81-21.6007 78.8118-21.8603 77.666-21.8603 76.4307-21.8603 75.4594-21.6813 74.7522-21.3232 74.045-20.9652 73.6914-20.3743 73.6914-19.5508 73.6914-19.0674 73.9152-18.6422 74.3628-18.2751 74.8104-17.9081 75.5265-17.568 76.5112-17.2546 77.4959-16.9413 78.7939-16.6056 80.4053-16.2476 82.1061-15.8537 83.6279-15.3434 84.9707-14.7168 86.3135-14.0902 87.3787-13.2487 88.1665-12.1924 88.9543-11.1361 89.3481-9.76644 89.3481-8.0835 89.3481-6.50797 89.0303-5.17415 88.3948-4.08203 87.7592-2.98991 86.9088-2.10815 85.8435-1.43677 84.7782-0.765381 83.5608-0.277506 82.1912 0.0268555 80.8215 0.331217 79.4027 0.483398 77.9346 0.483398ZM106.58 0.483398C105.13 0.483398 103.707 0.349121 102.31 0.0805664 100.914-0.187988 99.6517-0.649007 98.5238-1.30249 97.3958-1.95597 96.5006-2.84668 95.8382-3.97461 95.1758-5.10254 94.8446-6.50797 94.8446-8.19092L101.451-8.19092C101.451-6.72282 101.966-5.70231 102.995-5.12939 104.025-4.55648 105.229-4.27002 106.607-4.27002 107.968-4.27002 109.024-4.48934 109.776-4.92798 110.528-5.36662 110.904-6.10514 110.904-7.14355 110.904-8.12825 110.461-8.8623 109.575-9.3457 108.689-9.8291 107.135-10.3215 104.915-10.8228 103.053-11.2703 101.393-11.8119 99.9337-12.4475 98.4745-13.0831 97.3332-13.9335 96.5096-14.9988 95.686-16.064 95.2742-17.465 95.2742-19.2017 95.2742-20.5623 95.5876-21.7171 96.2142-22.666 96.8408-23.6149 97.6778-24.3803 98.7252-24.9622 99.7725-25.544 100.954-25.9692 102.27-26.2378 103.586-26.5063 104.933-26.6406 106.312-26.6406 107.655-26.6406 108.971-26.5063 110.26-26.2378 111.549-25.9692 112.712-25.5172 113.751-24.8816 114.789-24.246 115.622-23.3911 116.248-22.3169 116.875-21.2427 117.188-19.8999 117.188-18.2886L110.582-18.2886C110.582-19.6313 110.157-20.5623 109.306-21.0815 108.456-21.6007 107.458-21.8603 106.312-21.8603 105.076-21.8603 104.105-21.6813 103.398-21.3232 102.691-20.9652 102.337-20.3743 102.337-19.5508 102.337-19.0674 102.561-18.6422 103.009-18.2751 103.456-17.9081 104.172-17.568 105.157-17.2546 106.142-16.9413 107.44-16.6056 109.051-16.2476 110.752-15.8537 112.274-15.3434 113.617-14.7168 114.959-14.0902 116.025-13.2487 116.812-12.1924 117.6-11.1361 117.994-9.76644 117.994-8.0835 117.994-6.50797 117.676-5.17415 117.041-4.08203 116.405-2.98991 115.555-2.10815 114.489-1.43677 113.424-0.765381 112.207-0.277506 110.837 0.0268555 109.467 0.331217 108.048 0.483398 106.58 0.483398ZM124.699 0 124.699-26.2109 131.816-26.2109 131.816 0ZM128.271-29.6484C126.964-29.6484 125.966-29.9797 125.276-30.6421 124.587-31.3045 124.242-32.1281 124.242-33.1128 124.242-34.1154 124.587-34.9434 125.276-35.5969 125.966-36.2504 126.964-36.5771 128.271-36.5771 129.578-36.5771 130.576-36.2504 131.265-35.5969 131.954-34.9434 132.299-34.1154 132.299-33.1128 132.299-32.1281 131.954-31.3045 131.265-30.6421 130.576-29.9797 129.578-29.6484 128.271-29.6484ZM151.492 0.429687C148.842 0.429687 146.519-0.0984701 144.523-1.15479 142.526-2.2111 140.982-3.74186 139.89-5.74707 138.798-7.75228 138.252-10.1782 138.252-13.0249 138.252-15.9253 138.798-18.3915 139.89-20.4236 140.982-22.4556 142.526-24.0043 144.523-25.0696 146.519-26.1348 148.842-26.6675 151.492-26.6675 154.177-26.6675 156.518-26.1348 158.514-25.0696 160.511-24.0043 162.064-22.4556 163.174-20.4236 164.284-18.3915 164.839-15.9253 164.839-13.0249 164.839-10.1782 164.284-7.75228 163.174-5.74707 162.064-3.74186 160.511-2.2111 158.514-1.15479 156.518-0.0984701 154.177 0.429687 151.492 0.429687ZM151.492-4.99512C153.049-4.99512 154.271-5.35767 155.157-6.08276 156.044-6.80786 156.67-7.77913 157.037-8.99658 157.404-10.214 157.588-11.5568 157.588-13.0249 157.588-14.5288 157.404-15.8984 157.037-17.1338 156.67-18.3691 156.044-19.3538 155.157-20.0879 154.271-20.8219 153.049-21.189 151.492-21.189 149.97-21.189 148.775-20.8219 147.906-20.0879 147.038-19.3538 146.425-18.3691 146.067-17.1338 145.709-15.8984 145.53-14.5288 145.53-13.0249 145.53-11.5568 145.709-10.214 146.067-8.99658 146.425-7.77913 147.038-6.80786 147.906-6.08276 148.775-5.35767 149.97-4.99512 151.492-4.99512ZM171.105 0 171.105-26.2109 177.953-26.2109 178.088-22.29C178.965-23.418 180.12-24.4161 181.552-25.2844 182.984-26.1527 184.846-26.5869 187.138-26.5869 189.805-26.5869 191.873-25.7768 193.341-24.1565 194.81-22.5362 195.544-20.1685 195.544-17.0532L195.544 0 188.481 0 188.481-16.1401C188.481-17.089 188.346-17.9215 188.078-18.6377 187.809-19.3538 187.384-19.9089 186.802-20.3027 186.22-20.6966 185.455-20.8936 184.506-20.8936 183.092-20.8936 181.879-20.5623 180.867-19.8999 179.856-19.2375 178.974-18.4318 178.222-17.4829L178.222 0ZM203.699 8.32519 202.732 4.80713C203.985 4.41325 205.006 3.8269 205.793 3.0481 206.581 2.26929 207.056 1.25326 207.217 0L207.673 0.375977C206.295 0.375977 205.18-0.049235 204.33-0.899658 203.479-1.75008 203.054-2.78402 203.054-4.00146 203.054-5.32633 203.479-6.38265 204.33-7.17041 205.18-7.95817 206.295-8.35205 207.673-8.35205 209.016-8.35205 210.104-7.88208 210.936-6.94214 211.769-6.0022 212.185-4.60124 212.185-2.73926 212.185-0.537109 211.769 1.32935 210.936 2.86011 210.104 4.39087 209.043 5.60384 207.754 6.49902 206.465 7.39421 205.113 8.00293 203.699 8.32519ZM238.405 0.456543C236.919 0.456543 235.531 0.170085 234.242-0.402832 232.953-0.975749 231.91-1.8396 231.114-2.99438 230.317-4.14917 229.919-5.59489 229.919-7.33154 229.919-9.74853 230.644-11.5702 232.094-12.7966 233.544-14.023 235.572-14.8555 238.177-15.2942 240.782-15.7328 243.812-15.988 247.267-16.0596L247.267-17.4561C247.267-19.1569 246.86-20.3206 246.045-20.9473 245.231-21.5739 244.179-21.8872 242.89-21.8872 241.475-21.8872 240.312-21.5515 239.399-20.8801 238.485-20.2087 238.029-19.1211 238.029-17.6172L231.369-17.6172C231.369-19.8551 231.857-21.6276 232.832-22.9346 233.808-24.2415 235.16-25.1815 236.888-25.7544 238.615-26.3273 240.616-26.6138 242.89-26.6138 244.555-26.6138 246.077-26.475 247.455-26.1975 248.834-25.92 250.029-25.4411 251.04-24.7607 252.052-24.0804 252.835-23.1539 253.39-21.9812 253.945-20.8085 254.223-19.3449 254.223-17.5903L254.223 0 247.563 0 247.348-3.41064C246.238-2.13949 244.949-1.17716 243.481-0.523682 242.012 0.129801 240.321 0.456543 238.405 0.456543ZM240.741-4.43115C242.084-4.43115 243.324-4.78027 244.461-5.47852 245.598-6.17676 246.506-6.97347 247.187-7.86865L247.187-12.1118C243.427-12.0939 240.795-11.7403 239.291-11.051 237.787-10.3617 237.035-9.24723 237.035-7.70752 237.035-6.59749 237.38-5.77393 238.069-5.23682 238.759-4.69971 239.649-4.43115 240.741-4.43115ZM261.626 0 261.626-26.2109 268.474-26.2109 268.608-22.29C269.486-23.418 270.64-24.4161 272.073-25.2844 273.505-26.1527 275.367-26.5869 277.659-26.5869 280.326-26.5869 282.394-25.7768 283.862-24.1565 285.33-22.5362 286.064-20.1685 286.064-17.0532L286.064 0 279.001 0 279.001-16.1401C279.001-17.089 278.867-17.9215 278.599-18.6377 278.33-19.3538 277.905-19.9089 277.323-20.3027 276.741-20.6966 275.976-20.8936 275.027-20.8936 273.612-20.8936 272.399-20.5623 271.388-19.8999 270.376-19.2375 269.495-18.4318 268.743-17.4829L268.743 0ZM302.733 0.456543C300.763 0.456543 298.995-0.0358073 297.429-1.02051 295.862-2.00521 294.627-3.51359 293.723-5.54565 292.819-7.57772 292.367-10.1603 292.367-13.2935 292.367-16.3192 292.854-18.8167 293.83-20.7861 294.806-22.7555 296.126-24.2236 297.791-25.1904 299.456-26.1572 301.327-26.6406 303.404-26.6406 305.23-26.6406 306.797-26.2646 308.104-25.5127 309.411-24.7607 310.449-23.776 311.219-22.5586L311.219-36.1475 318.336-36.1475 318.336 0 311.514 0 311.219-3.73291C310.288-2.44385 309.133-1.42334 307.755-0.671387 306.376 0.0805664 304.702 0.456543 302.733 0.456543ZM304.827-4.96826C306.331-4.96826 307.629-5.389 308.721-6.23047 309.814-7.07194 310.646-8.05664 311.219-9.18457L311.219-16.8384C310.664-18.02 309.885-19.0495 308.883-19.9268 307.88-20.804 306.645-21.2427 305.177-21.2427 303.422-21.2427 302.061-20.5623 301.095-19.2017 300.128-17.841 299.644-15.8716 299.644-13.2935 299.644-10.4647 300.105-8.36995 301.027-7.00928 301.949-5.6486 303.216-4.96826 304.827-4.96826Z" transform="matrix(1 0 0 1 137.039 154)"/><path d="M15.7104 0.429687C13.0607 0.429687 10.7377-0.0984701 8.74145-1.15479 6.7452-2.2111 5.20101-3.74186 4.10889-5.74707 3.01676-7.75228 2.4707-10.1782 2.4707-13.0249 2.4707-15.9253 3.01676-18.3915 4.10889-20.4236 5.20101-22.4556 6.7452-24.0043 8.74145-25.0696 10.7377-26.1348 13.0607-26.6675 15.7104-26.6675 18.396-26.6675 20.7369-26.1348 22.7332-25.0696 24.7294-24.0043 26.2825-22.4556 27.3926-20.4236 28.5026-18.3915 29.0576-15.9253 29.0576-13.0249 29.0576-10.1782 28.5026-7.75228 27.3926-5.74707 26.2825-3.74186 24.7294-2.2111 22.7332-1.15479 20.7369-0.0984701 18.396 0.429687 15.7104 0.429687ZM15.7104-4.99512C17.2681-4.99512 18.49-5.35767 19.3762-6.08276 20.2624-6.80786 20.8891-7.77913 21.2561-8.99658 21.6231-10.214 21.8066-11.5568 21.8066-13.0249 21.8066-14.5288 21.6231-15.8984 21.2561-17.1338 20.8891-18.3691 20.2624-19.3538 19.3762-20.0879 18.49-20.8219 17.2681-21.189 15.7104-21.189 14.1886-21.189 12.9936-20.8219 12.1252-20.0879 11.2569-19.3538 10.6437-18.3691 10.2856-17.1338 9.92757-15.8984 9.74853-14.5288 9.74853-13.0249 9.74853-11.5568 9.92757-10.214 10.2856-8.99658 10.6437-7.77913 11.2569-6.80786 12.1252-6.08276 12.9936-5.35767 14.1886-4.99512 15.7104-4.99512ZM50.2555 0.483398C48.3398 0.483398 46.7643 0.116374 45.529-0.617676 44.2936-1.35173 43.2373-2.36328 42.36-3.65234L42.0646 0 35.3239 0 35.3239-36.1475 42.4406-36.1475 42.4406-22.4512C43.3716-23.7223 44.5085-24.7384 45.8512-25.4993 47.194-26.2602 48.8501-26.6406 50.8195-26.6406 52.8247-26.6406 54.6151-26.1527 56.1906-25.177 57.7661-24.2013 59.0104-22.7152 59.9235-20.719 60.8366-18.7227 61.2931-16.1759 61.2931-13.0786 61.2931-9.99919 60.8053-7.45687 59.8295-5.45166 58.8538-3.44645 57.5334-1.95597 55.8683-0.980225 54.2033-0.00447592 52.3324 0.483398 50.2555 0.483398ZM48.4831-4.96826C50.2197-4.96826 51.5759-5.6486 52.5517-7.00928 53.5274-8.36995 54.0153-10.3483 54.0153-12.9443 54.0153-15.7552 53.5543-17.8455 52.6322-19.2151 51.7102-20.5847 50.4256-21.2695 48.7785-21.2695 47.3104-21.2695 46.0258-20.8309 44.9247-19.9536 43.8236-19.0763 42.9956-18.0469 42.4406-16.8652L42.4406-9.18457C42.9598-8.05664 43.7341-7.07194 44.7636-6.23047 45.793-5.389 47.0329-4.96826 48.4831-4.96826ZM62.4121 9.61426 62.4121 4.00146 63.9429 4.00146C65.1066 4.00146 65.9749 3.72396 66.5479 3.16895 67.1208 2.61393 67.4072 1.7277 67.4072 0.510254L67.4072-26.2109 74.5239-26.2109 74.5239-0.0537109C74.5239 3.06152 73.7451 5.45166 72.1875 7.1167 70.6299 8.78174 68.195 9.61426 64.8828 9.61426ZM70.979-29.6484C69.672-29.6484 68.6739-29.9797 67.9846-30.6421 67.2953-31.3045 66.9507-32.1281 66.9507-33.1128 66.9507-34.1333 67.2953-34.9658 67.9846-35.6103 68.6739-36.2549 69.672-36.5771 70.979-36.5771 72.286-36.5771 73.2841-36.2549 73.9734-35.6103 74.6627-34.9658 75.0073-34.1333 75.0073-33.1128 75.0073-32.1281 74.6627-31.3045 73.9734-30.6421 73.2841-29.9797 72.286-29.6484 70.979-29.6484ZM94.3612 0.483398C91.4429 0.483398 88.9901-0.0581869 87.0028-1.14136 85.0155-2.22453 83.5116-3.78662 82.4911-5.82764 81.4705-7.86865 80.9603-10.3215 80.9603-13.186 80.9603-15.9611 81.4571-18.3512 82.4508-20.3564 83.4444-22.3617 84.9036-23.9058 86.8282-24.989 88.7529-26.0722 91.1206-26.6138 93.9315-26.6138 97.8345-26.6138 100.918-25.4724 103.183-23.1897 105.448-20.907 106.58-17.653 106.58-13.4277 106.58-13.2129 106.571-12.922 106.554-12.5549 106.536-12.1879 106.509-11.9059 106.473-11.709L88.077-11.709C88.1128-10.4736 88.3411-9.31885 88.7618-8.24463 89.1825-7.17041 89.8494-6.30656 90.7625-5.65308 91.6756-4.99959 92.8752-4.67285 94.3612-4.67285 95.9009-4.67285 97.1362-5.00854 98.0672-5.67993 98.9982-6.35132 99.4727-7.34945 99.4906-8.67432L106.5-8.67432C106.41-6.6333 105.851-4.93245 104.821-3.57178 103.792-2.2111 102.386-1.19507 100.605-0.523682 98.8237 0.147705 96.7424 0.483398 94.3612 0.483398ZM88.1576-16.2207 99.5174-16.2207C99.4637-18.0469 98.9221-19.412 97.8927-20.3162 96.8632-21.2203 95.5428-21.6724 93.9315-21.6724 92.2843-21.6724 90.9371-21.2069 89.8897-20.2759 88.8424-19.3449 88.265-17.9932 88.1576-16.2207ZM124.43 0.375977C121.995 0.375977 119.784-0.0895182 117.797-1.02051 115.81-1.9515 114.234-3.40169 113.07-5.37109 111.907-7.34049 111.325-9.88281 111.325-12.998 111.325-16.1133 111.88-18.6735 112.99-20.6787 114.1-22.6839 115.644-24.1744 117.622-25.1501 119.601-26.1259 121.87-26.6138 124.43-26.6138 126.65-26.6138 128.656-26.2467 130.446-25.5127 132.236-24.7786 133.66-23.682 134.716-22.2229 135.772-20.7638 136.309-18.9242 136.327-16.7041L129.425-16.7041C129.39-18.0469 128.942-19.1166 128.083-19.9133 127.223-20.71 126.015-21.1084 124.457-21.1084 122.398-21.1084 120.908-20.4012 119.986-18.9868 119.064-17.5724 118.603-15.5762 118.603-12.998 118.603-11.333 118.804-9.91414 119.207-8.74145 119.61-7.56877 120.245-6.67358 121.114-6.05591 121.982-5.43823 123.097-5.12939 124.457-5.12939 126.051-5.12939 127.308-5.56356 128.23-6.43188 129.152-7.30021 129.631-8.53109 129.667-10.1245L136.569-10.1245C136.515-7.85075 135.965-5.93506 134.917-4.37744 133.87-2.81982 132.442-1.63818 130.634-0.832519 128.826-0.0268555 126.758 0.375977 124.43 0.375977ZM154.231 0C151.581 0 149.527-0.31779 148.068-0.953369 146.608-1.58895 145.592-2.57365 145.02-3.90747 144.447-5.24129 144.16-6.98242 144.16-9.13086L144.16-20.7324 139.81-20.7324 139.81-26.2109 144.16-26.2109 144.16-32.3877 151.277-32.3877 151.277-26.2109 156.997-26.2109 156.997-20.7324 151.277-20.7324 151.277-9.56055C151.277-8.18196 151.469-7.16146 151.854-6.49902 152.239-5.83659 153.112-5.50537 154.473-5.50537L156.997-5.50537 156.997 0ZM162.511 0 162.511-26.2109 169.628-26.2109 169.628 0ZM166.083-29.6484C164.776-29.6484 163.778-29.9797 163.089-30.6421 162.399-31.3045 162.055-32.1281 162.055-33.1128 162.055-34.1154 162.399-34.9434 163.089-35.5969 163.778-36.2504 164.776-36.5771 166.083-36.5771 167.39-36.5771 168.388-36.2504 169.078-35.5969 169.767-34.9434 170.111-34.1154 170.111-33.1128 170.111-32.1281 169.767-31.3045 169.078-30.6421 168.388-29.9797 167.39-29.6484 166.083-29.6484ZM183.127 0 173.594-26.2109 181.006-26.2109 187.183-6.6333 193.547-26.2109 200.745-26.2109 191.238 0ZM215.865 0.483398C212.947 0.483398 210.494-0.0581869 208.507-1.14136 206.52-2.22453 205.016-3.78662 203.995-5.82764 202.975-7.86865 202.464-10.3215 202.464-13.186 202.464-15.9611 202.961-18.3512 203.955-20.3564 204.949-22.3617 206.408-23.9058 208.332-24.989 210.257-26.0722 212.625-26.6138 215.436-26.6138 219.339-26.6138 222.423-25.4724 224.687-23.1897 226.952-20.907 228.085-17.653 228.085-13.4277 228.085-13.2129 228.076-12.922 228.058-12.5549 228.04-12.1879 228.013-11.9059 227.977-11.709L209.581-11.709C209.617-10.4736 209.845-9.31885 210.266-8.24463 210.687-7.17041 211.354-6.30656 212.267-5.65308 213.18-4.99959 214.379-4.67285 215.865-4.67285 217.405-4.67285 218.64-5.00854 219.571-5.67993 220.502-6.35132 220.977-7.34945 220.995-8.67432L228.004-8.67432C227.914-6.6333 227.355-4.93245 226.326-3.57178 225.296-2.2111 223.891-1.19507 222.109-0.523682 220.328 0.147705 218.247 0.483398 215.865 0.483398ZM209.662-16.2207 221.022-16.2207C220.968-18.0469 220.426-19.412 219.397-20.3162 218.367-21.2203 217.047-21.6724 215.436-21.6724 213.788-21.6724 212.441-21.2069 211.394-20.2759 210.347-19.3449 209.769-17.9932 209.662-16.2207ZM244.699 0.483398C243.249 0.483398 241.826 0.349121 240.429 0.0805664 239.033-0.187988 237.77-0.649007 236.643-1.30249 235.515-1.95597 234.619-2.84668 233.957-3.97461 233.295-5.10254 232.963-6.50797 232.963-8.19092L239.57-8.19092C239.57-6.72282 240.084-5.70231 241.114-5.12939 242.143-4.55648 243.347-4.27002 244.726-4.27002 246.087-4.27002 247.143-4.48934 247.895-4.92798 248.647-5.36662 249.023-6.10514 249.023-7.14355 249.023-8.12825 248.58-8.8623 247.694-9.3457 246.807-9.8291 245.254-10.3215 243.034-10.8228 241.172-11.2703 239.512-11.8119 238.052-12.4475 236.593-13.0831 235.452-13.9335 234.628-14.9988 233.805-16.064 233.393-17.465 233.393-19.2017 233.393-20.5623 233.706-21.7171 234.333-22.666 234.96-23.6149 235.797-24.3803 236.844-24.9622 237.891-25.544 239.073-25.9692 240.389-26.2378 241.705-26.5063 243.052-26.6406 244.431-26.6406 245.773-26.6406 247.089-26.5063 248.378-26.2378 249.667-25.9692 250.831-25.5172 251.87-24.8816 252.908-24.246 253.74-23.3911 254.367-22.3169 254.994-21.2427 255.307-19.8999 255.307-18.2886L248.701-18.2886C248.701-19.6313 248.275-20.5623 247.425-21.0815 246.575-21.6007 245.576-21.8603 244.431-21.8603 243.195-21.8603 242.224-21.6813 241.517-21.3232 240.81-20.9652 240.456-20.3743 240.456-19.5508 240.456-19.0674 240.68-18.6422 241.127-18.2751 241.575-17.9081 242.291-17.568 243.276-17.2546 244.26-16.9413 245.559-16.6056 247.17-16.2476 248.871-15.8537 250.392-15.3434 251.735-14.7168 253.078-14.0902 254.143-13.2487 254.931-12.1924 255.719-11.1361 256.113-9.76644 256.113-8.0835 256.113-6.50797 255.795-5.17415 255.159-4.08203 254.524-2.98991 253.673-2.10815 252.608-1.43677 251.543-0.765381 250.325-0.277506 248.956 0.0268555 247.586 0.331217 246.167 0.483398 244.699 0.483398Z" transform="matrix(1 0 0 1 168.527 220)"/></g></g><rect x="-15.0001" y="1009" width="578" height="248" fill="#95C8E8"/><text font-family="Aptos,Aptos_MSFontService,sans-serif" font-weight="700" font-size="55" transform="matrix(1 0 0 1 29.0269 1085)">Define motivations, </text><text font-family="Aptos,Aptos_MSFontService,sans-serif" font-weight="700" font-size="55" transform="matrix(1 0 0 1 113.039 1151)">mission, and </text><text font-family="Aptos,Aptos_MSFontService,sans-serif" font-weight="700" font-size="55" transform="matrix(1 0 0 1 144.527 1217)">objectives</text><g filter="url(#fx2)" transform="translate(2250 1003)"><g><rect x="20.0002" y="19.7499" width="577" height="248" fill="#95C8E8"/></g></g><g clip-path="url(#clip10)" filter="url(#fx3)" transform="translate(2250 1077)"><g><path d="M1.53076 0 9.21142-36.1475 16.7578-36.1475 9.104 0ZM17.089 0 22.6481-26.2109 29.55-26.2109 28.8249-22.3706C29.9528-23.4985 31.2061-24.4832 32.5846-25.3247 33.9632-26.1662 35.6462-26.5869 37.6335-26.5869 39.4059-26.5869 40.9188-26.1527 42.172-25.2844 43.4253-24.4161 44.3026-23.1718 44.8039-21.5515 45.3052-19.9312 45.3141-17.9842 44.8307-15.7104L41.5275 0 34.4377 0 37.7946-15.7373C38.1527-17.4023 38.0631-18.678 37.526-19.5642 36.9889-20.4504 36.0848-20.8936 34.8136-20.8936 33.4709-20.8936 32.231-20.5623 31.0942-19.8999 29.9573-19.2375 28.8965-18.4318 27.9118-17.4829L24.152 0ZM49.9243 0 54.3555-20.7324 50.0586-20.7324 51.2134-26.2109 55.4834-26.2109 55.6445-27.0703C56.0205-28.7891 56.4591-30.2303 56.9604-31.394 57.4618-32.5578 58.1152-33.4888 58.9209-34.187 59.7266-34.8853 60.7874-35.3866 62.1033-35.6909 63.4192-35.9953 65.0887-36.1475 67.1118-36.1475L70.3076-36.1475 69.1797-30.9912 66.8164-30.9912C65.4557-30.9912 64.4934-30.6734 63.9294-30.0378 63.3655-29.4023 62.9403-28.3952 62.6538-27.0166L62.4658-26.2109 68.186-26.2109 67.0044-20.7324 61.4453-20.7324 57.041 0ZM79.6834 0.483398C76.8546 0.483398 74.469-0.125326 72.5264-1.34277 70.5839-2.56022 69.2277-4.2924 68.4578-6.53931 67.688-8.78621 67.6342-11.4583 68.2967-14.5557 69.1202-18.4945 70.7987-21.4933 73.3321-23.5522 75.8654-25.6112 79.0031-26.6406 82.7449-26.6406 85.5737-26.6406 87.9549-26.0229 89.8885-24.7876 91.8221-23.5522 93.1783-21.7977 93.9571-19.5239 94.7359-17.2502 94.7941-14.5646 94.1316-11.4673 93.2902-7.52848 91.6162-4.552 89.1097-2.53784 86.6031-0.523682 83.4611 0.483398 79.6834 0.483398ZM80.1399-4.67285C82.1451-4.67285 83.6804-5.38004 84.7457-6.79443 85.8109-8.20882 86.5853-10.026 87.0686-12.2461 87.4267-13.8037 87.5207-15.2897 87.3506-16.7041 87.1805-18.1185 86.6927-19.2688 85.887-20.155 85.0813-21.0413 83.8818-21.4844 82.2884-21.4844 80.9277-21.4844 79.7863-21.1487 78.8643-20.4773 77.9423-19.8059 77.1948-18.8883 76.6219-17.7246 76.049-16.5609 75.6014-15.236 75.2791-13.75 74.9389-12.1745 74.8628-10.6974 75.0508-9.31885 75.2388-7.94027 75.7401-6.82129 76.5547-5.96191 77.3693-5.10254 78.5644-4.67285 80.1399-4.67285ZM98.0078 0 103.567-26.2109 110.415-26.2109 109.556-21.6724C110.576-23.2479 111.771-24.4564 113.141-25.2978 114.51-26.1393 116.162-26.5601 118.096-26.5601L119.116-26.5601 117.854-20.5713 117.209-20.5713C116.135-20.5713 115.097-20.4773 114.094-20.2893 113.092-20.1013 112.147-19.779 111.261-19.3225 110.375-18.866 109.565-18.2349 108.831-17.4292L105.071 0ZM118.06 0 123.619-26.2109 130.521-26.2109 129.823-22.3975C130.933-23.5075 132.168-24.4832 133.529-25.3247 134.889-26.1662 136.554-26.5869 138.524-26.5869 140.332-26.5869 141.854-26.1438 143.089-25.2576 144.325-24.3713 145.188-23.1315 145.681-21.5381 146.173-19.9447 146.195-18.0737 145.748-15.9253L142.337 0 135.247 0 138.631-15.7373C138.989-17.4023 138.886-18.678 138.322-19.5642 137.758-20.4504 136.805-20.8936 135.462-20.8936 134.209-20.8936 133.041-20.5623 131.958-19.8999 130.874-19.2375 129.849-18.4318 128.883-17.4829L125.123 0ZM152.489 0 155.846-15.7373C156.204-17.4023 156.105-18.678 155.55-19.5642 154.995-20.4504 154.055-20.8936 152.73-20.8936 151.889-20.8936 151.074-20.7324 150.286-20.4102 149.499-20.0879 148.738-19.6627 148.004-19.1345 147.27-18.6064 146.553-18.029 145.855-17.4023L145.291-21.5112C146.831-23.0151 148.465-24.2371 150.192-25.177 151.92-26.1169 153.778-26.5869 155.765-26.5869 157.537-26.5869 159.046-26.1438 160.29-25.2576 161.534-24.3713 162.412-23.1315 162.922-21.5381 163.432-19.9447 163.446-18.0737 162.962-15.9253L159.552 0ZM175.423 9.77539 176.632 3.97461 179.022 3.97461C180.203 3.97461 181.202 3.78214 182.016 3.39722 182.831 3.01229 183.498 2.35433 184.017 1.42334L184.849 0 180.015-26.2109 187.186-26.2109 189.818-6.98242 199.754-26.2109 207.139-26.2109 191.107 1.90674C190.247 3.41064 189.442 4.6639 188.69 5.6665 187.938 6.66911 187.137 7.4703 186.286 8.07007 185.436 8.66984 184.447 9.104 183.319 9.37256 182.191 9.64111 180.83 9.77539 179.237 9.77539ZM218.329 0.483398C215.5 0.483398 213.115-0.125326 211.172-1.34277 209.23-2.56022 207.873-4.2924 207.104-6.53931 206.334-8.78621 206.28-11.4583 206.943-14.5557 207.766-18.4945 209.445-21.4933 211.978-23.5522 214.511-25.6112 217.649-26.6406 221.391-26.6406 224.22-26.6406 226.601-26.0229 228.534-24.7876 230.468-23.5522 231.824-21.7977 232.603-19.5239 233.382-17.2502 233.44-14.5646 232.777-11.4673 231.936-7.52848 230.262-4.552 227.755-2.53784 225.249-0.523682 222.107 0.483398 218.329 0.483398ZM218.786-4.67285C220.791-4.67285 222.326-5.38004 223.391-6.79443 224.457-8.20882 225.231-10.026 225.714-12.2461 226.073-13.8037 226.167-15.2897 225.996-16.7041 225.826-18.1185 225.339-19.2688 224.533-20.155 223.727-21.0413 222.528-21.4844 220.934-21.4844 219.574-21.4844 218.432-21.1487 217.51-20.4773 216.588-19.8059 215.841-18.8883 215.268-17.7246 214.695-16.5609 214.247-15.236 213.925-13.75 213.585-12.1745 213.509-10.6974 213.697-9.31885 213.885-7.94027 214.386-6.82129 215.201-5.96191 216.015-5.10254 217.21-4.67285 218.786-4.67285ZM245.892 0.349121C244.102 0.349121 242.571-0.0939942 241.3-0.980225 240.028-1.86645 239.147-3.12866 238.654-4.76685 238.162-6.40503 238.158-8.361 238.641-10.6348L241.971-26.2109 249.115-26.2109 245.731-10.4468C245.373-8.81754 245.476-7.55981 246.04-6.67358 246.604-5.78735 247.566-5.34424 248.927-5.34424 249.804-5.34424 250.636-5.50985 251.424-5.84106 252.212-6.17228 252.959-6.60197 253.667-7.13013 254.374-7.65828 255.05-8.22672 255.694-8.83545L259.346-26.2109 266.436-26.2109 260.877 0 254.002 0 254.7-3.94775C253.966-3.1958 253.17-2.49308 252.31-1.8396 251.451-1.18612 250.498-0.657959 249.45-0.255127 248.403 0.147705 247.217 0.349121 245.892 0.349121ZM268.737 0 274.296-26.2109 281.144-26.2109 280.285-21.6724C281.305-23.2479 282.5-24.4564 283.87-25.2978 285.24-26.1393 286.891-26.5601 288.825-26.5601L289.845-26.5601 288.583-20.5713 287.939-20.5713C286.864-20.5713 285.826-20.4773 284.823-20.2893 283.821-20.1013 282.876-19.779 281.99-19.3225 281.104-18.866 280.294-18.2349 279.56-17.4292L275.8 0ZM311.93 0.483398C309.656 0.483398 307.633 0.174561 305.86-0.443115 304.088-1.06079 302.723-2.01416 301.765-3.30322 300.807-4.59228 300.373-6.22152 300.462-8.19092L307.096-8.19092C307.078-6.74072 307.525-5.71126 308.438-5.10254 309.351-4.49381 310.587-4.18945 312.144-4.18945 313.398-4.18945 314.396-4.41772 315.139-4.87427 315.882-5.33081 316.334-5.94401 316.495-6.71387 316.602-7.3584 316.526-7.91341 316.267-8.37891 316.007-8.8444 315.47-9.29199 314.655-9.72168 313.841-10.1514 312.672-10.6169 311.151-11.1182 308.179-12.1208 306.071-13.3695 304.826-14.8645 303.582-16.3595 303.175-18.2349 303.604-20.4907 304.016-22.4959 305.202-24.0222 307.163-25.0696 309.123-26.1169 311.625-26.6406 314.669-26.6406 316.835-26.6406 318.742-26.3094 320.389-25.647 322.036-24.9845 323.312-24.0267 324.216-22.7734 325.12-21.5202 325.527-20.0252 325.438-18.2886L318.805-18.2886C318.84-19.4523 318.491-20.352 317.757-20.9875 317.023-21.6231 315.895-21.9409 314.373-21.9409 313.335-21.9409 312.489-21.7843 311.836-21.4709 311.182-21.1576 310.784-20.6698 310.64-20.0073 310.461-19.1479 310.828-18.4363 311.742-17.8723 312.655-17.3083 314.346-16.6056 316.817-15.7642 319.646-14.8153 321.575-13.6112 322.605-12.1521 323.634-10.693 323.97-8.88916 323.612-6.74072 323.236-4.46696 322.103-2.6945 320.214-1.42334 318.326-0.152181 315.564 0.483398 311.93 0.483398ZM340.117 0C337.467 0 335.449-0.367025 334.061-1.10107 332.674-1.83512 331.814-2.9362 331.483-4.4043 331.152-5.8724 331.219-7.69857 331.684-9.88281L333.967-20.7324 329.617-20.7324 330.798-26.2109 335.149-26.2109 336.438-32.3877 343.501-32.3877 342.212-26.2109 347.986-26.2109 346.804-20.7324 341.03-20.7324 338.694-9.56055C338.425-8.28939 338.447-7.30469 338.761-6.60644 339.074-5.9082 339.848-5.55908 341.084-5.55908L343.528-5.55908 342.427 0ZM347.341 0 352.9-26.2109 359.748-26.2109 358.889-21.6724C359.909-23.2479 361.105-24.4564 362.474-25.2978 363.844-26.1393 365.495-26.5601 367.429-26.5601L368.45-26.5601 367.187-20.5713 366.543-20.5713C365.469-20.5713 364.43-20.4773 363.428-20.2893 362.425-20.1013 361.481-19.779 360.594-19.3225 359.708-18.866 358.898-18.2349 358.164-17.4292L354.404 0ZM374.366 0.483398C372.611 0.483398 371.094 0.138753 369.814-0.550537 368.533-1.23983 367.607-2.24691 367.034-3.57178 366.461-4.89665 366.345-6.50797 366.685-8.40576 367.007-10.1066 367.692-11.4628 368.739-12.4744 369.787-13.4859 371.147-14.2334 372.821-14.7168 374.495-15.2002 376.438-15.5269 378.649-15.697 380.86-15.8671 383.282-15.979 385.913-16.0327L386.128-17.2681C386.343-18.3602 386.303-19.2375 386.007-19.8999 385.712-20.5623 385.238-21.0413 384.584-21.3367 383.931-21.6321 383.165-21.7798 382.288-21.7798 380.891-21.7798 379.656-21.453 378.582-20.7996 377.508-20.1461 376.836-19.0853 376.568-17.6172L369.881-17.6172C370.4-20.7861 371.783-23.0823 374.03-24.5056 376.277-25.929 379.155-26.6406 382.664-26.6406 384.311-26.6406 385.837-26.4482 387.243-26.0632 388.648-25.6783 389.843-25.0561 390.828-24.1968 391.813-23.3374 392.489-22.205 392.856-20.7996 393.223-19.3941 393.182-17.6619 392.735-15.603L389.432 0 382.879 0 383.335-3.35693C382.154-2.15739 380.874-1.21745 379.495-0.537109 378.116 0.143229 376.407 0.483398 374.366 0.483398ZM376.944-4.43115C378.018-4.43115 379.016-4.646 379.938-5.07568 380.86-5.50537 381.688-6.02905 382.422-6.64673 383.156-7.2644 383.747-7.8418 384.195-8.37891L385.054-12.1118C381.187-12.0939 378.385-11.8075 376.648-11.2524 374.912-10.6974 373.909-9.65902 373.641-8.13721 373.426-6.99137 373.627-6.08724 374.245-5.4248 374.862-4.76237 375.762-4.43115 376.944-4.43115ZM407.905 0C405.255 0 403.236-0.367025 401.849-1.10107 400.461-1.83512 399.602-2.9362 399.27-4.4043 398.939-5.8724 399.006-7.69857 399.472-9.88281L401.755-20.7324 397.404-20.7324 398.586-26.2109 402.936-26.2109 404.225-32.3877 411.288-32.3877 409.999-26.2109 415.773-26.2109 414.592-20.7324 408.818-20.7324 406.481-9.56055C406.213-8.28939 406.235-7.30469 406.548-6.60644 406.862-5.9082 407.636-5.55908 408.871-5.55908L411.315-5.55908 410.214 0ZM427.959 0.456543C425.13 0.456543 422.794-0.143229 420.95-1.34277 419.106-2.54232 417.808-4.22526 417.056-6.3916 416.304-8.55794 416.143-11.1182 416.572-14.0723 416.984-16.6862 417.808-18.9331 419.043-20.813 420.278-22.6929 421.89-24.1341 423.877-25.1367 425.864-26.1393 428.183-26.6406 430.833-26.6406 433.554-26.6406 435.828-26.0229 437.654-24.7876 439.48-23.5522 440.751-21.8156 441.467-19.5776 442.184-17.3397 442.246-14.7168 441.655-11.709L423.233-11.709C423.071-10.4736 423.116-9.31885 423.367-8.24463 423.617-7.17041 424.155-6.30656 424.978-5.65308 425.802-4.99959 426.965-4.67285 428.469-4.67285 429.937-4.67285 431.177-4.99959 432.189-5.65308 433.2-6.30656 433.876-7.32259 434.216-8.70117L441.199-8.70117C440.375-5.56803 438.862-3.25846 436.66-1.77246 434.458-0.286458 431.558 0.456543 427.959 0.456543ZM424.065-16.2207 435.237-16.2207C435.398-17.3844 435.3-18.3691 434.942-19.1748 434.583-19.9805 434.033-20.6026 433.29-21.0413 432.547-21.4799 431.647-21.6992 430.591-21.6992 428.872-21.6992 427.453-21.2292 426.334-20.2893 425.215-19.3494 424.459-17.9932 424.065-16.2207ZM454.841 10.1245C451.744 10.1245 449.323 9.76644 447.577 9.05029 445.831 8.33415 444.636 7.41658 443.992 6.29761 443.347 5.17863 443.123 4.01042 443.32 2.79297 443.589 1.30697 444.533 0.0716145 446.154-0.913086 447.774-1.89779 450.133-2.60498 453.23-3.03467L454.68-5.55908 458.386-5.55908C462.737-5.55908 465.789-4.86979 467.544-3.49121 469.299-2.11263 469.961-0.170085 469.531 2.33643 469.102 4.73551 467.643 6.6333 465.154 8.02978 462.665 9.42627 459.228 10.1245 454.841 10.1245ZM455.379 5.6665C457.724 5.6665 459.47 5.35767 460.615 4.73999 461.761 4.12231 462.406 3.37484 462.549 2.49756 462.621 1.90674 462.522 1.40991 462.254 1.00708 461.985 0.604248 461.475 0.29541 460.723 0.0805664 459.971-0.134277 458.932-0.241699 457.608-0.241699L452.854-0.241699C452.12 0.0268555 451.493 0.407308 450.974 0.899658 450.455 1.39201 450.142 1.93359 450.034 2.52441 449.891 3.33008 450.222 4.05518 451.028 4.69971 451.834 5.34424 453.284 5.6665 455.379 5.6665ZM452.908-0.617676C451.1-0.814616 449.663-1.19059 448.598-1.74561 447.532-2.30062 446.794-2.96305 446.382-3.73291 445.97-4.50277 445.827-5.28158 445.952-6.06934 446.113-7.03613 446.673-7.87313 447.631-8.58032 448.589-9.28751 449.945-9.92757 451.699-10.5005L455.217-9.15771C454.215-8.94287 453.373-8.67431 452.693-8.35205 452.013-8.02978 451.619-7.62695 451.511-7.14355 451.44-6.82129 451.57-6.53931 451.901-6.29761 452.232-6.05591 452.854-5.8724 453.767-5.74707 454.68-5.62174 455.96-5.55908 457.608-5.55908ZM458.172-8.35205C455.665-8.35205 453.602-8.78621 451.981-9.65454 450.361-10.5229 449.22-11.6911 448.557-13.1592 447.895-14.6273 447.725-16.2565 448.047-18.0469 448.333-19.5687 448.974-20.9741 449.967-22.2632 450.961-23.5522 452.317-24.5862 454.036-25.365 455.755-26.1438 457.84-26.5332 460.293-26.5332 464.089-26.5332 466.823-25.6201 468.497-23.7939 470.171-21.9678 470.758-19.6851 470.256-16.9458 469.988-15.424 469.361-14.0141 468.377-12.7161 467.392-11.418 466.049-10.3662 464.348-9.56055 462.647-8.75488 460.589-8.35205 458.172-8.35205ZM458.467-12.6221C459.81-12.6221 460.947-13.0159 461.878-13.8037 462.809-14.5915 463.408-15.7284 463.677-17.2144 463.999-18.9689 463.771-20.2535 462.992-21.0681 462.213-21.8827 461.17-22.29 459.863-22.29 458.503-22.29 457.366-21.8827 456.453-21.0681 455.54-20.2535 454.94-19.1121 454.653-17.644 454.439-16.5161 454.497-15.5806 454.828-14.8376 455.159-14.0946 455.661-13.5396 456.332-13.1726 457.003-12.8056 457.715-12.6221 458.467-12.6221ZM467.464-22.478 465.852-25.2173C466.515-26.4705 467.307-27.4463 468.229-28.1445 469.151-28.8428 470.189-29.3396 471.344-29.635 472.499-29.9304 473.792-30.0781 475.225-30.0781L474.312-24.895C472.826-24.895 471.505-24.7518 470.35-24.4653 469.196-24.1789 468.233-23.5164 467.464-22.478ZM471.598 9.77539 472.807 3.97461 475.197 3.97461C476.378 3.97461 477.377 3.78214 478.191 3.39722 479.006 3.01229 479.673 2.35433 480.192 1.42334L481.024 0 476.19-26.2109 483.361-26.2109 485.993-6.98242 495.929-26.2109 503.314-26.2109 487.282 1.90674C486.422 3.41064 485.617 4.6639 484.865 5.6665 484.113 6.66911 483.312 7.4703 482.461 8.07007 481.611 8.66984 480.622 9.104 479.494 9.37256 478.366 9.64111 477.005 9.77539 475.412 9.77539Z" transform="matrix(1 0 0 1 52.7646 88)"/></g></g><rect x="2270" y="1009" width="577" height="248" fill="#95C8E8"/><text font-family="Aptos,Aptos_MSFontService,sans-serif" font-style="italic" font-weight="700" font-size="55" transform="matrix(1 0 0 1 2302.76 1151)">Inform your strategy</text><g filter="url(#fx4)" transform="translate(1488 1003)"><g><rect x="20" y="19.7499" width="578" height="248" fill="#95C8E8"/></g></g><g clip-path="url(#clip11)" filter="url(#fx5)" transform="translate(1589 1044)"><g><path d="M4.32373 0 4.32373-36.1475 18.5034-36.1475C20.8846-36.1475 23.0554-35.7267 25.0159-34.8853 26.9763-34.0438 28.5384-32.7637 29.7021-31.0449 30.8659-29.3262 31.4478-27.133 31.4478-24.4653 31.4478-21.8335 30.8659-19.6582 29.7021-17.9395 28.5384-16.2207 26.9763-14.9451 25.0159-14.1125 23.0554-13.28 20.8846-12.8638 18.5034-12.8638L11.8701-12.8638 11.8701 0ZM11.8701-18.9331 17.8052-18.9331C19.5597-18.9331 20.9786-19.3986 22.0618-20.3296 23.1449-21.2606 23.6865-22.6392 23.6865-24.4653 23.6865-26.3631 23.1315-27.7686 22.0215-28.6816 20.9115-29.5947 19.506-30.0513 17.8052-30.0513L11.8701-30.0513ZM36.5156 0 36.5156-26.2109 43.3368-26.2109 43.4711-21.6724C44.1515-23.2479 45.172-24.4564 46.5326-25.2978 47.8933-26.1393 49.5405-26.5601 51.4741-26.5601L52.0112-26.5601 52.0112-20.5713 51.3398-20.5713C50.2835-20.5713 49.2719-20.4773 48.3051-20.2893 47.3383-20.1013 46.461-19.779 45.6733-19.3225 44.8855-18.866 44.2052-18.2349 43.6323-17.4292L43.6323 0ZM68.007 0.483398C65.0887 0.483398 62.6359-0.0581869 60.6486-1.14136 58.6613-2.22453 57.1574-3.78662 56.1369-5.82764 55.1164-7.86865 54.6061-10.3215 54.6061-13.186 54.6061-15.9611 55.1029-18.3512 56.0966-20.3564 57.0902-22.3617 58.5494-23.9058 60.474-24.989 62.3987-26.0722 64.7664-26.6138 67.5773-26.6138 71.4803-26.6138 74.5642-25.4724 76.829-23.1897 79.0938-20.907 80.2262-17.653 80.2262-13.4277 80.2262-13.2129 80.2173-12.922 80.1994-12.5549 80.1815-12.1879 80.1546-11.9059 80.1188-11.709L61.7228-11.709C61.7586-10.4736 61.9869-9.31885 62.4076-8.24463 62.8284-7.17041 63.4953-6.30656 64.4084-5.65308 65.3214-4.99959 66.521-4.67285 68.007-4.67285 69.5467-4.67285 70.7821-5.00854 71.7131-5.67993 72.644-6.35132 73.1185-7.34945 73.1364-8.67432L80.1457-8.67432C80.0561-6.6333 79.4967-4.93245 78.4672-3.57178 77.4377-2.2111 76.0323-1.19507 74.2509-0.523682 72.4695 0.147705 70.3882 0.483398 68.007 0.483398ZM61.8034-16.2207 73.1632-16.2207C73.1095-18.0469 72.5679-19.412 71.5385-20.3162 70.509-21.2203 69.1886-21.6724 67.5773-21.6724 65.9302-21.6724 64.5829-21.2069 63.5356-20.2759 62.4882-19.3449 61.9108-17.9932 61.8034-16.2207ZM86.3135 9.61426 86.3135-26.2109 93.0273-26.2109 93.4302-22.2095C94.397-23.6239 95.5607-24.7115 96.9214-25.4724 98.2821-26.2333 99.8934-26.6138 101.755-26.6138 103.796-26.6138 105.609-26.1214 107.194-25.1367 108.778-24.152 110.022-22.6571 110.927-20.6519 111.831-18.6466 112.283-16.0775 112.283-12.9443 112.283-9.91862 111.795-7.42106 110.819-5.45166 109.843-3.48226 108.523-2.00521 106.858-1.02051 105.193-0.0358073 103.322 0.465495 101.245 0.483398 99.5443 0.501302 98.0269 0.152181 96.6931-0.563965 95.3593-1.28011 94.2716-2.28271 93.4302-3.57178L93.4302 9.61426ZM99.4727-4.96826C101.263-4.96826 102.633-5.65755 103.582-7.03613 104.53-8.41471 105.005-10.411 105.005-13.0249 105.005-15.8 104.562-17.8589 103.676-19.2017 102.789-20.5444 101.576-21.2158 100.037-21.2158 98.4253-21.2158 97.0467-20.7638 95.9009-19.8596 94.755-18.9555 93.9315-17.9663 93.4302-16.8921L93.4302-9.15771C94.0031-8.01188 94.8043-7.02718 95.8337-6.20361 96.8632-5.38004 98.0762-4.96826 99.4727-4.96826ZM125.54 0.456543C124.054 0.456543 122.667 0.170085 121.378-0.402832 120.089-0.975749 119.046-1.8396 118.249-2.99438 117.452-4.14917 117.054-5.59489 117.054-7.33154 117.054-9.74853 117.779-11.5702 119.229-12.7966 120.68-14.023 122.707-14.8555 125.312-15.2942 127.917-15.7328 130.947-15.988 134.403-16.0596L134.403-17.4561C134.403-19.1569 133.995-20.3206 133.181-20.9473 132.366-21.5739 131.314-21.8872 130.025-21.8872 128.611-21.8872 127.447-21.5515 126.534-20.8801 125.621-20.2087 125.164-19.1211 125.164-17.6172L118.504-17.6172C118.504-19.8551 118.992-21.6276 119.968-22.9346 120.944-24.2415 122.295-25.1815 124.023-25.7544 125.751-26.3273 127.751-26.6138 130.025-26.6138 131.69-26.6138 133.212-26.475 134.591-26.1975 135.969-25.92 137.164-25.4411 138.176-24.7607 139.187-24.0804 139.971-23.1539 140.526-21.9812 141.081-20.8085 141.358-19.3449 141.358-17.5903L141.358 0 134.698 0 134.483-3.41064C133.373-2.13949 132.084-1.17716 130.616-0.523682 129.148 0.129801 127.456 0.456543 125.54 0.456543ZM127.877-4.43115C129.22-4.43115 130.459-4.78027 131.596-5.47852 132.733-6.17676 133.642-6.97347 134.322-7.86865L134.322-12.1118C130.562-12.0939 127.93-11.7403 126.427-11.051 124.923-10.3617 124.171-9.24723 124.171-7.70752 124.171-6.59749 124.515-5.77393 125.205-5.23682 125.894-4.69971 126.785-4.43115 127.877-4.43115ZM148.761 0 148.761-26.2109 155.583-26.2109 155.717-21.6724C156.397-23.2479 157.418-24.4564 158.778-25.2978 160.139-26.1393 161.786-26.5601 163.72-26.5601L164.257-26.5601 164.257-20.5713 163.586-20.5713C162.529-20.5713 161.518-20.4773 160.551-20.2893 159.584-20.1013 158.707-19.779 157.919-19.3225 157.131-18.866 156.451-18.2349 155.878-17.4292L155.878 0ZM180.253 0.483398C177.335 0.483398 174.882-0.0581869 172.894-1.14136 170.907-2.22453 169.403-3.78662 168.383-5.82764 167.362-7.86865 166.852-10.3215 166.852-13.186 166.852-15.9611 167.349-18.3512 168.342-20.3564 169.336-22.3617 170.795-23.9058 172.72-24.989 174.645-26.0722 177.012-26.6138 179.823-26.6138 183.726-26.6138 186.81-25.4724 189.075-23.1897 191.34-20.907 192.472-17.653 192.472-13.4277 192.472-13.2129 192.463-12.922 192.445-12.5549 192.427-12.1879 192.4-11.9059 192.365-11.709L173.969-11.709C174.004-10.4736 174.233-9.31885 174.653-8.24463 175.074-7.17041 175.741-6.30656 176.654-5.65308 177.567-4.99959 178.767-4.67285 180.253-4.67285 181.793-4.67285 183.028-5.00854 183.959-5.67993 184.89-6.35132 185.364-7.34945 185.382-8.67432L192.391-8.67432C192.302-6.6333 191.742-4.93245 190.713-3.57178 189.684-2.2111 188.278-1.19507 186.497-0.523682 184.715 0.147705 182.634 0.483398 180.253 0.483398ZM174.049-16.2207 185.409-16.2207C185.355-18.0469 184.814-19.412 183.784-20.3162 182.755-21.2203 181.434-21.6724 179.823-21.6724 178.176-21.6724 176.829-21.2069 175.781-20.2759 174.734-19.3449 174.157-17.9932 174.049-16.2207ZM221.216 0C218.567 0 216.512-0.31779 215.053-0.953369 213.594-1.58895 212.578-2.57365 212.005-3.90747 211.432-5.24129 211.146-6.98242 211.146-9.13086L211.146-20.7324 206.795-20.7324 206.795-26.2109 211.146-26.2109 211.146-32.3877 218.262-32.3877 218.262-26.2109 223.982-26.2109 223.982-20.7324 218.262-20.7324 218.262-9.56055C218.262-8.18196 218.455-7.16146 218.84-6.49902 219.225-5.83659 220.097-5.50537 221.458-5.50537L223.982-5.50537 223.982 0ZM229.497 0 229.497-36.1475 236.479-36.1475 236.479-22.29C237.356-23.418 238.511-24.4161 239.944-25.2844 241.376-26.1527 243.22-26.5869 245.476-26.5869 248.197-26.5869 250.287-25.7857 251.747-24.1833 253.206-22.581 253.935-20.2043 253.935-17.0532L253.935 0 246.819 0 246.819-16.167C246.819-17.098 246.689-17.9215 246.429-18.6377 246.17-19.3538 245.753-19.9089 245.18-20.3027 244.607-20.6966 243.847-20.8936 242.898-20.8936 241.483-20.8936 240.27-20.5623 239.259-19.8999 238.247-19.2375 237.365-18.4318 236.613-17.4829L236.613 0ZM273.638 0.483398C270.72 0.483398 268.267-0.0581869 266.28-1.14136 264.293-2.22453 262.789-3.78662 261.768-5.82764 260.748-7.86865 260.237-10.3215 260.237-13.186 260.237-15.9611 260.734-18.3512 261.728-20.3564 262.721-22.3617 264.181-23.9058 266.105-24.989 268.03-26.0722 270.398-26.6138 273.209-26.6138 277.112-26.6138 280.195-25.4724 282.46-23.1897 284.725-20.907 285.857-17.653 285.857-13.4277 285.857-13.2129 285.849-12.922 285.831-12.5549 285.813-12.1879 285.786-11.9059 285.75-11.709L267.354-11.709C267.39-10.4736 267.618-9.31885 268.039-8.24463 268.46-7.17041 269.127-6.30656 270.04-5.65308 270.953-4.99959 272.152-4.67285 273.638-4.67285 275.178-4.67285 276.413-5.00854 277.344-5.67993 278.275-6.35132 278.75-7.34945 278.768-8.67432L285.777-8.67432C285.687-6.6333 285.128-4.93245 284.098-3.57178 283.069-2.2111 281.664-1.19507 279.882-0.523682 278.101 0.147705 276.019 0.483398 273.638 0.483398ZM267.435-16.2207 278.794-16.2207C278.741-18.0469 278.199-19.412 277.17-20.3162 276.14-21.2203 274.82-21.6724 273.209-21.6724 271.561-21.6724 270.214-21.2069 269.167-20.2759 268.119-19.3449 267.542-17.9932 267.435-16.2207Z" transform="matrix(1 0 0 1 63.9539 88)"/><path d="M15.7104 0.429687C13.0607 0.429687 10.7377-0.0984701 8.74145-1.15479 6.7452-2.2111 5.20101-3.74186 4.10889-5.74707 3.01676-7.75228 2.4707-10.1782 2.4707-13.0249 2.4707-15.9253 3.01676-18.3915 4.10889-20.4236 5.20101-22.4556 6.7452-24.0043 8.74145-25.0696 10.7377-26.1348 13.0607-26.6675 15.7104-26.6675 18.396-26.6675 20.7369-26.1348 22.7332-25.0696 24.7294-24.0043 26.2825-22.4556 27.3926-20.4236 28.5026-18.3915 29.0576-15.9253 29.0576-13.0249 29.0576-10.1782 28.5026-7.75228 27.3926-5.74707 26.2825-3.74186 24.7294-2.2111 22.7332-1.15479 20.7369-0.0984701 18.396 0.429687 15.7104 0.429687ZM15.7104-4.99512C17.2681-4.99512 18.49-5.35767 19.3762-6.08276 20.2624-6.80786 20.8891-7.77913 21.2561-8.99658 21.6231-10.214 21.8066-11.5568 21.8066-13.0249 21.8066-14.5288 21.6231-15.8984 21.2561-17.1338 20.8891-18.3691 20.2624-19.3538 19.3762-20.0879 18.49-20.8219 17.2681-21.189 15.7104-21.189 14.1886-21.189 12.9936-20.8219 12.1252-20.0879 11.2569-19.3538 10.6437-18.3691 10.2856-17.1338 9.92757-15.8984 9.74853-14.5288 9.74853-13.0249 9.74853-11.5568 9.92757-10.214 10.2856-8.99658 10.6437-7.77913 11.2569-6.80786 12.1252-6.08276 12.9936-5.35767 14.1886-4.99512 15.7104-4.99512ZM35.3239 0 35.3239-26.2109 42.1452-26.2109 42.2795-21.6724C42.9598-23.2479 43.9803-24.4564 45.341-25.2978 46.7017-26.1393 48.3488-26.5601 50.2824-26.5601L50.8195-26.5601 50.8195-20.5713 50.1481-20.5713C49.0918-20.5713 48.0802-20.4773 47.1134-20.2893 46.1466-20.1013 45.2694-19.779 44.4816-19.3225 43.6938-18.866 43.0135-18.2349 42.4406-17.4292L42.4406 0ZM65.001 10.1245C61.8678 10.1245 59.3792 9.80224 57.5352 9.15771 55.6911 8.51318 54.3662 7.66724 53.5605 6.61987 52.7549 5.57251 52.352 4.4401 52.3521 3.22266 52.352 1.73665 53.0592 0.434163 54.4736-0.684814 55.888-1.80379 58.126-2.58708 61.1875-3.03467L62.3691-5.55908 65.9141-5.55908C70.2646-5.55908 73.4381-4.95931 75.4343-3.75977 77.4306-2.56022 78.4287-0.725097 78.4287 1.74561 78.4287 4.25212 77.2829 6.27523 74.9912 7.81494 72.6995 9.35465 69.3695 10.1245 65.001 10.1245ZM64.8936 5.6665C67.2926 5.6665 68.9845 5.35319 69.9692 4.72656 70.9539 4.09993 71.4463 3.33903 71.4463 2.44385 71.4463 1.87093 71.2762 1.38753 70.936 0.993652 70.5959 0.599772 70.0319 0.29541 69.2441 0.0805664 68.4564-0.134277 67.409-0.241699 66.1021-0.241699L61.3218-0.241699C60.6235 0.0268555 60.0551 0.407308 59.6165 0.899658 59.1778 1.39201 58.9585 1.96045 58.9585 2.60498 58.9585 3.35693 59.424 4.05518 60.355 4.69971 61.286 5.34424 62.7988 5.6665 64.8936 5.6665ZM61.2949-0.59082C59.415-0.805664 57.8932-1.18612 56.7295-1.73218 55.5658-2.27824 54.7153-2.90934 54.1782-3.62549 53.6411-4.34163 53.3726-5.04883 53.3726-5.74707 53.3726-6.83919 53.7888-7.76571 54.6213-8.52661 55.4539-9.28752 56.7116-9.95443 58.3945-10.5273L62.1006-9.18457C61.1338-8.95182 60.3281-8.66984 59.6836-8.33862 59.0391-8.0074 58.7168-7.6001 58.7168-7.1167 58.7168-6.77653 58.9093-6.49007 59.2942-6.25732 59.6791-6.02458 60.3505-5.85002 61.3083-5.73364 62.2662-5.61727 63.5866-5.55908 65.2695-5.55908ZM64.5176-8.35205C62.1543-8.35205 60.1401-8.77279 58.4751-9.61426 56.8101-10.4557 55.5478-11.5658 54.6885-12.9443 53.8291-14.3229 53.3994-15.8089 53.3994-17.4023 53.3994-19.1032 53.8336-20.6384 54.7019-22.0081 55.5702-23.3777 56.8459-24.4743 58.5288-25.2978 60.2117-26.1214 62.2617-26.5332 64.6787-26.5332 67.1673-26.5332 69.2307-26.1214 70.8689-25.2978 72.5071-24.4743 73.7335-23.3777 74.5481-22.0081 75.3627-20.6384 75.77-19.1032 75.77-17.4023 75.77-15.7731 75.3538-14.2692 74.5212-12.8906 73.6887-11.512 72.4444-10.411 70.7883-9.5874 69.1322-8.76383 67.042-8.35205 64.5176-8.35205ZM64.5176-12.6221C65.8424-12.6221 66.948-13.0294 67.8342-13.844 68.7205-14.6586 69.1636-15.8447 69.1636-17.4023 69.1636-19.0495 68.7518-20.2759 67.9282-21.0815 67.1047-21.8872 66.0304-22.29 64.7056-22.29 63.3628-22.29 62.2528-21.8738 61.3755-21.0413 60.4982-20.2087 60.0596-18.9958 60.0596-17.4023 60.0596-15.8268 60.5116-14.6362 61.4158-13.8306 62.3199-13.0249 63.3538-12.6221 64.5176-12.6221ZM72.0103-22.5586 69.9155-25.2173C70.6138-27.0793 71.6925-28.3504 73.1516-29.0308 74.6108-29.7111 76.3698-30.0602 78.4287-30.0781L78.4287-24.895C77.0322-24.895 75.7566-24.7652 74.6018-24.5056 73.447-24.246 72.5832-23.597 72.0103-22.5586ZM89.2404 0.456543C87.7544 0.456543 86.3668 0.170085 85.0778-0.402832 83.7887-0.975749 82.7458-1.8396 81.9491-2.99438 81.1524-4.14917 80.754-5.59489 80.754-7.33154 80.754-9.74853 81.4791-11.5702 82.9293-12.7966 84.3795-14.023 86.4071-14.8555 89.0121-15.2942 91.6171-15.7328 94.6473-15.988 98.1027-16.0596L98.1027-17.4561C98.1027-19.1569 97.6954-20.3206 96.8807-20.9473 96.0661-21.5739 95.0143-21.8872 93.7252-21.8872 92.3108-21.8872 91.1471-21.5515 90.234-20.8801 89.3209-20.2087 88.8644-19.1211 88.8644-17.6172L82.2042-17.6172C82.2042-19.8551 82.6921-21.6276 83.6679-22.9346 84.6436-24.2415 85.9953-25.1815 87.723-25.7544 89.4507-26.3273 91.4515-26.6138 93.7252-26.6138 95.3903-26.6138 96.9121-26.475 98.2907-26.1975 99.6692-25.92 100.864-25.4411 101.876-24.7607 102.887-24.0804 103.671-23.1539 104.226-21.9812 104.781-20.8085 105.058-19.3449 105.058-17.5903L105.058 0 98.3981 0 98.1832-3.41064C97.0732-2.13949 95.7841-1.17716 94.316-0.523682 92.8479 0.129801 91.1561 0.456543 89.2404 0.456543ZM91.5768-4.43115C92.9196-4.43115 94.1594-4.78027 95.2963-5.47852 96.4332-6.17676 97.3418-6.97347 98.0221-7.86865L98.0221-12.1118C94.2623-12.0939 91.6305-11.7403 90.1266-11.051 88.6227-10.3617 87.8707-9.24723 87.8707-7.70752 87.8707-6.59749 88.2154-5.77393 88.9047-5.23682 89.594-4.69971 90.4847-4.43115 91.5768-4.43115ZM112.461 0 112.461-26.2109 119.31-26.2109 119.444-22.29C120.321-23.418 121.476-24.4161 122.908-25.2844 124.34-26.1527 126.202-26.5869 128.494-26.5869 131.162-26.5869 133.23-25.7768 134.698-24.1565 136.166-22.5362 136.9-20.1685 136.9-17.0532L136.9 0 129.837 0 129.837-16.1401C129.837-17.089 129.703-17.9215 129.434-18.6377 129.165-19.3538 128.74-19.9089 128.158-20.3027 127.577-20.6966 126.811-20.8936 125.862-20.8936 124.448-20.8936 123.235-20.5623 122.223-19.8999 121.212-19.2375 120.33-18.4318 119.578-17.4829L119.578 0ZM144.545 0 144.545-26.2109 151.661-26.2109 151.661 0ZM148.117-29.6484C146.81-29.6484 145.811-29.9797 145.122-30.6421 144.433-31.3045 144.088-32.1281 144.088-33.1128 144.088-34.1154 144.433-34.9434 145.122-35.5969 145.811-36.2504 146.81-36.5771 148.117-36.5771 149.423-36.5771 150.422-36.2504 151.111-35.5969 151.8-34.9434 152.145-34.1154 152.145-33.1128 152.145-32.1281 151.8-31.3045 151.111-30.6421 150.422-29.9797 149.423-29.6484 148.117-29.6484ZM157.588 0 157.588-5.15625 170.022-20.7324 158.662-20.7324 158.662-26.2109 178.427-26.2109 178.427-21.2427 165.966-5.50537 179.287-5.50537 179.287 0ZM192.09 0.456543C190.604 0.456543 189.217 0.170085 187.928-0.402832 186.639-0.975749 185.596-1.8396 184.799-2.99438 184.002-4.14917 183.604-5.59489 183.604-7.33154 183.604-9.74853 184.329-11.5702 185.779-12.7966 187.23-14.023 189.257-14.8555 191.862-15.2942 194.467-15.7328 197.497-15.988 200.953-16.0596L200.953-17.4561C200.953-19.1569 200.545-20.3206 199.731-20.9473 198.916-21.5739 197.864-21.8872 196.575-21.8872 195.161-21.8872 193.997-21.5515 193.084-20.8801 192.171-20.2087 191.714-19.1211 191.714-17.6172L185.054-17.6172C185.054-19.8551 185.542-21.6276 186.518-22.9346 187.494-24.2415 188.845-25.1815 190.573-25.7544 192.301-26.3273 194.301-26.6138 196.575-26.6138 198.24-26.6138 199.762-26.475 201.141-26.1975 202.519-25.92 203.714-25.4411 204.726-24.7607 205.737-24.0804 206.521-23.1539 207.076-21.9812 207.631-20.8085 207.908-19.3449 207.908-17.5903L207.908 0 201.248 0 201.033-3.41064C199.923-2.13949 198.634-1.17716 197.166-0.523682 195.698 0.129801 194.006 0.456543 192.09 0.456543ZM194.427-4.43115C195.77-4.43115 197.009-4.78027 198.146-5.47852 199.283-6.17676 200.192-6.97347 200.872-7.86865L200.872-12.1118C197.112-12.0939 194.48-11.7403 192.977-11.051 191.473-10.3617 190.721-9.24723 190.721-7.70752 190.721-6.59749 191.065-5.77393 191.755-5.23682 192.444-4.69971 193.335-4.43115 194.427-4.43115ZM226.166 0C223.517 0 221.462-0.31779 220.003-0.953369 218.544-1.58895 217.528-2.57365 216.955-3.90747 216.382-5.24129 216.096-6.98242 216.096-9.13086L216.096-20.7324 211.745-20.7324 211.745-26.2109 216.096-26.2109 216.096-32.3877 223.212-32.3877 223.212-26.2109 228.932-26.2109 228.932-20.7324 223.212-20.7324 223.212-9.56055C223.212-8.18196 223.405-7.16146 223.79-6.49902 224.175-5.83659 225.047-5.50537 226.408-5.50537L228.932-5.50537 228.932 0ZM234.447 0 234.447-26.2109 241.564-26.2109 241.564 0ZM238.019-29.6484C236.712-29.6484 235.713-29.9797 235.024-30.6421 234.335-31.3045 233.99-32.1281 233.99-33.1128 233.99-34.1154 234.335-34.9434 235.024-35.5969 235.713-36.2504 236.712-36.5771 238.019-36.5771 239.326-36.5771 240.324-36.2504 241.013-35.5969 241.702-34.9434 242.047-34.1154 242.047-33.1128 242.047-32.1281 241.702-31.3045 241.013-30.6421 240.324-29.9797 239.326-29.6484 238.019-29.6484ZM261.24 0.429687C258.59 0.429687 256.267-0.0984701 254.271-1.15479 252.274-2.2111 250.73-3.74186 249.638-5.74707 248.546-7.75228 248-10.1782 248-13.0249 248-15.9253 248.546-18.3915 249.638-20.4236 250.73-22.4556 252.274-24.0043 254.271-25.0696 256.267-26.1348 258.59-26.6675 261.24-26.6675 263.925-26.6675 266.266-26.1348 268.262-25.0696 270.259-24.0043 271.812-22.4556 272.922-20.4236 274.032-18.3915 274.587-15.9253 274.587-13.0249 274.587-10.1782 274.032-7.75228 272.922-5.74707 271.812-3.74186 270.259-2.2111 268.262-1.15479 266.266-0.0984701 263.925 0.429687 261.24 0.429687ZM261.24-4.99512C262.797-4.99512 264.019-5.35767 264.905-6.08276 265.792-6.80786 266.418-7.77913 266.785-8.99658 267.152-10.214 267.336-11.5568 267.336-13.0249 267.336-14.5288 267.152-15.8984 266.785-17.1338 266.418-18.3691 265.792-19.3538 264.905-20.0879 264.019-20.8219 262.797-21.189 261.24-21.189 259.718-21.189 258.523-20.8219 257.654-20.0879 256.786-19.3538 256.173-18.3691 255.815-17.1338 255.457-15.8984 255.278-14.5288 255.278-13.0249 255.278-11.5568 255.457-10.214 255.815-8.99658 256.173-7.77913 256.786-6.80786 257.654-6.08276 258.523-5.35767 259.718-4.99512 261.24-4.99512ZM280.853 0 280.853-26.2109 287.701-26.2109 287.835-22.29C288.713-23.418 289.868-24.4161 291.3-25.2844 292.732-26.1527 294.594-26.5869 296.886-26.5869 299.553-26.5869 301.621-25.7768 303.089-24.1565 304.557-22.5362 305.292-20.1685 305.292-17.0532L305.292 0 298.229 0 298.229-16.1401C298.229-17.089 298.094-17.9215 297.826-18.6377 297.557-19.3538 297.132-19.9089 296.55-20.3027 295.968-20.6966 295.203-20.8936 294.254-20.8936 292.84-20.8936 291.627-20.5623 290.615-19.8999 289.603-19.2375 288.722-18.4318 287.97-17.4829L287.97 0Z" transform="matrix(1 0 0 1 53.458 154)"/></g></g><rect x="1508" y="1009" width="578" height="248" fill="#95C8E8"/><text font-family="Aptos,Aptos_MSFontService,sans-serif" font-weight="700" font-size="55" transform="matrix(1 0 0 1 1652.95 1118)">Prepare the </text><text font-family="Aptos,Aptos_MSFontService,sans-serif" font-weight="700" font-size="55" transform="matrix(1 0 0 1 1642.46 1184)">organization</text><g filter="url(#fx6)" transform="translate(727 1003)"><g><rect x="19.9999" y="19.7499" width="577" height="248" fill="#95C8E8"/></g></g><g clip-path="url(#clip12)" filter="url(#fx7)" transform="translate(751 1044)"><g><path d="M4.32373 0 4.32373-36.1475 27.9565-36.1475 27.9565-29.8901 11.8701-29.8901 11.8701-21.4307 26.2915-21.4307 26.2915-15.4419 11.8701-15.4419 11.8701 0ZM45.0667 0.429687C42.417 0.429687 40.094-0.0984701 38.0977-1.15479 36.1014-2.2111 34.5573-3.74186 33.4651-5.74707 32.373-7.75228 31.827-10.1782 31.827-13.0249 31.827-15.9253 32.373-18.3915 33.4651-20.4236 34.5573-22.4556 36.1014-24.0043 38.0977-25.0696 40.094-26.1348 42.417-26.6675 45.0667-26.6675 47.7522-26.6675 50.0931-26.1348 52.0894-25.0696 54.0857-24.0043 55.6388-22.4556 56.7488-20.4236 57.8588-18.3915 58.4139-15.9253 58.4139-13.0249 58.4139-10.1782 57.8588-7.75228 56.7488-5.74707 55.6388-3.74186 54.0857-2.2111 52.0894-1.15479 50.0931-0.0984701 47.7522 0.429687 45.0667 0.429687ZM45.0667-4.99512C46.6243-4.99512 47.8462-5.35767 48.7325-6.08276 49.6187-6.80786 50.2453-7.77913 50.6124-8.99658 50.9794-10.214 51.1629-11.5568 51.1629-13.0249 51.1629-14.5288 50.9794-15.8984 50.6124-17.1338 50.2453-18.3691 49.6187-19.3538 48.7325-20.0879 47.8462-20.8219 46.6243-21.189 45.0667-21.189 43.5449-21.189 42.3498-20.8219 41.4815-20.0879 40.6132-19.3538 40-18.3691 39.6419-17.1338 39.2838-15.8984 39.1048-14.5288 39.1048-13.0249 39.1048-11.5568 39.2838-10.214 39.6419-8.99658 40-7.77913 40.6132-6.80786 41.4815-6.08276 42.3498-5.35767 43.5449-4.99512 45.0667-4.99512ZM64.6801 0 64.6801-26.2109 71.5014-26.2109 71.6357-21.6724C72.316-23.2479 73.3365-24.4564 74.6972-25.2978 76.0579-26.1393 77.705-26.5601 79.6386-26.5601L80.1757-26.5601 80.1757-20.5713 79.5044-20.5713C78.448-20.5713 77.4365-20.4773 76.4697-20.2893 75.5029-20.1013 74.6256-19.779 73.8379-19.3225 73.0501-18.866 72.3698-18.2349 71.7968-17.4292L71.7968 0ZM84.7322 0 84.7322-26.2109 91.5804-26.2109 91.7146-22.29C92.574-23.418 93.7601-24.4161 95.273-25.2844 96.7859-26.1527 98.6523-26.5869 100.872-26.5869 103.504-26.5869 105.523-25.7589 106.928-24.1028 108.334-22.4467 109.036-20.0968 109.036-17.0532L109.036 0 101.92 0 101.92-16.1401C101.92-17.089 101.79-17.9215 101.53-18.6377 101.271-19.3538 100.85-19.9089 100.268-20.3027 99.6862-20.6966 98.9298-20.8936 97.9988-20.8936 96.6202-20.8936 95.4386-20.5623 94.4539-19.8999 93.4692-19.2375 92.6009-18.4318 91.8489-17.4829L91.8489 0ZM119.134 0 119.134-16.1401C119.134-17.089 119.004-17.9215 118.745-18.6377 118.485-19.3538 118.064-19.9089 117.482-20.3027 116.901-20.6966 116.144-20.8936 115.213-20.8936 113.835-20.8936 112.648-20.5892 111.655-19.9805 110.661-19.3717 109.77-18.6108 108.983-17.6978L108.123-22.102C109.251-23.3016 110.634-24.349 112.273-25.2441 113.911-26.1393 115.84-26.5869 118.06-26.5869 120.674-26.5869 122.692-25.7589 124.116-24.1028 125.539-22.4467 126.251-20.0968 126.251-17.0532L126.251 0ZM144.137 9.61426 144.137 3.84033 146.5 3.84033C147.556 3.84033 148.438 3.65234 149.145 3.27637 149.852 2.90039 150.367 2.28271 150.689 1.42334L151.28 0 141.075-26.2109 148.487-26.2109 155.12-6.82129 161.029-26.2109 168.226-26.2109 158.8 0 157.833 2.60498C157.152 4.44906 156.365 5.88135 155.47 6.90185 154.574 7.92236 153.478 8.62956 152.18 9.02344 150.882 9.41732 149.266 9.61426 147.332 9.61426ZM183.185 0.429687C180.536 0.429687 178.213-0.0984701 176.216-1.15479 174.22-2.2111 172.676-3.74186 171.584-5.74707 170.492-7.75228 169.946-10.1782 169.946-13.0249 169.946-15.9253 170.492-18.3915 171.584-20.4236 172.676-22.4556 174.22-24.0043 176.216-25.0696 178.213-26.1348 180.536-26.6675 183.185-26.6675 185.871-26.6675 188.212-26.1348 190.208-25.0696 192.204-24.0043 193.758-22.4556 194.868-20.4236 195.978-18.3915 196.533-15.9253 196.533-13.0249 196.533-10.1782 195.978-7.75228 194.868-5.74707 193.758-3.74186 192.204-2.2111 190.208-1.15479 188.212-0.0984701 185.871 0.429687 183.185 0.429687ZM183.185-4.99512C184.743-4.99512 185.965-5.35767 186.851-6.08276 187.737-6.80786 188.364-7.77913 188.731-8.99658 189.098-10.214 189.282-11.5568 189.282-13.0249 189.282-14.5288 189.098-15.8984 188.731-17.1338 188.364-18.3691 187.737-19.3538 186.851-20.0879 185.965-20.8219 184.743-21.189 183.185-21.189 181.664-21.189 180.469-20.8219 179.6-20.0879 178.732-19.3538 178.119-18.3691 177.761-17.1338 177.403-15.8984 177.224-14.5288 177.224-13.0249 177.224-11.5568 177.403-10.214 177.761-8.99658 178.119-7.77913 178.732-6.80786 179.6-6.08276 180.469-5.35767 181.664-4.99512 183.185-4.99512ZM210.882 0.349121C208.233 0.349121 206.183-0.469971 204.732-2.10815 203.282-3.74634 202.557-6.07829 202.557-9.104L202.557-26.2109 209.674-26.2109 209.674-9.96338C209.674-9.0682 209.804-8.27596 210.063-7.58667 210.323-6.89738 210.753-6.36475 211.352-5.98877 211.952-5.61279 212.744-5.4248 213.729-5.4248 215.161-5.4248 216.383-5.74259 217.395-6.37817 218.406-7.01375 219.288-7.78808 220.04-8.70117L220.04-26.2109 227.157-26.2109 227.157 0 220.282 0 220.174-3.94775C219.297-2.83773 218.098-1.84408 216.576-0.966797 215.054-0.0895183 213.156 0.349121 210.882 0.349121ZM234.882 0 234.882-26.2109 241.704-26.2109 241.838-21.6724C242.518-23.2479 243.539-24.4564 244.899-25.2978 246.26-26.1393 247.907-26.5601 249.841-26.5601L250.378-26.5601 250.378-20.5713 249.706-20.5713C248.65-20.5713 247.639-20.4773 246.672-20.2893 245.705-20.1013 244.828-19.779 244.04-19.3225 243.252-18.866 242.572-18.2349 241.999-17.4292L241.999 0ZM276.92 0.483398C275.47 0.483398 274.046 0.349121 272.65 0.0805664 271.253-0.187988 269.991-0.649007 268.863-1.30249 267.735-1.95597 266.84-2.84668 266.178-3.97461 265.515-5.10254 265.184-6.50797 265.184-8.19092L271.791-8.19092C271.791-6.72282 272.305-5.70231 273.335-5.12939 274.364-4.55648 275.568-4.27002 276.947-4.27002 278.307-4.27002 279.364-4.48934 280.116-4.92798 280.868-5.36662 281.244-6.10514 281.244-7.14355 281.244-8.12825 280.801-8.8623 279.914-9.3457 279.028-9.8291 277.475-10.3215 275.255-10.8228 273.393-11.2703 271.732-11.8119 270.273-12.4475 268.814-13.0831 267.673-13.9335 266.849-14.9988 266.026-16.064 265.614-17.465 265.614-19.2017 265.614-20.5623 265.927-21.7171 266.554-22.666 267.18-23.6149 268.017-24.3803 269.065-24.9622 270.112-25.544 271.294-25.9692 272.61-26.2378 273.926-26.5063 275.273-26.6406 276.651-26.6406 277.994-26.6406 279.31-26.5063 280.599-26.2378 281.888-25.9692 283.052-25.5172 284.09-24.8816 285.129-24.246 285.961-23.3911 286.588-22.3169 287.215-21.2427 287.528-19.8999 287.528-18.2886L280.921-18.2886C280.921-19.6313 280.496-20.5623 279.646-21.0815 278.795-21.6007 277.797-21.8603 276.651-21.8603 275.416-21.8603 274.445-21.6813 273.738-21.3232 273.03-20.9652 272.677-20.3743 272.677-19.5508 272.677-19.0674 272.901-18.6422 273.348-18.2751 273.796-17.9081 274.512-17.568 275.497-17.2546 276.481-16.9413 277.779-16.6056 279.391-16.2476 281.092-15.8537 282.613-15.3434 283.956-14.7168 285.299-14.0902 286.364-13.2487 287.152-12.1924 287.94-11.1361 288.334-9.76644 288.334-8.0835 288.334-6.50797 288.016-5.17415 287.38-4.08203 286.745-2.98991 285.894-2.10815 284.829-1.43677 283.764-0.765381 282.546-0.277506 281.177 0.0268555 279.807 0.331217 278.388 0.483398 276.92 0.483398ZM305.779 0C303.129 0 301.075-0.31779 299.616-0.953369 298.156-1.58895 297.14-2.57365 296.567-3.90747 295.995-5.24129 295.708-6.98242 295.708-9.13086L295.708-20.7324 291.357-20.7324 291.357-26.2109 295.708-26.2109 295.708-32.3877 302.825-32.3877 302.825-26.2109 308.545-26.2109 308.545-20.7324 302.825-20.7324 302.825-9.56055C302.825-8.18196 303.017-7.16146 303.402-6.49902 303.787-5.83659 304.66-5.50537 306.021-5.50537L308.545-5.50537 308.545 0ZM314.059 0 314.059-26.2109 320.881-26.2109 321.015-21.6724C321.695-23.2479 322.716-24.4564 324.076-25.2978 325.437-26.1393 327.084-26.5601 329.018-26.5601L329.555-26.5601 329.555-20.5713 328.884-20.5713C327.827-20.5713 326.816-20.4773 325.849-20.2893 324.882-20.1013 324.005-19.779 323.217-19.3225 322.429-18.866 321.749-18.2349 321.176-17.4292L321.176 0ZM339.628 0.456543C338.142 0.456543 336.754 0.170085 335.465-0.402832 334.176-0.975749 333.133-1.8396 332.337-2.99438 331.54-4.14917 331.141-5.59489 331.142-7.33154 331.141-9.74853 331.867-11.5702 333.317-12.7966 334.767-14.023 336.795-14.8555 339.4-15.2942 342.005-15.7328 345.035-15.988 348.49-16.0596L348.49-17.4561C348.49-19.1569 348.083-20.3206 347.268-20.9473 346.454-21.5739 345.402-21.8872 344.113-21.8872 342.698-21.8872 341.535-21.5515 340.621-20.8801 339.708-20.2087 339.252-19.1211 339.252-17.6172L332.592-17.6172C332.592-19.8551 333.08-21.6276 334.055-22.9346 335.031-24.2415 336.383-25.1815 338.111-25.7544 339.838-26.3273 341.839-26.6138 344.113-26.6138 345.778-26.6138 347.3-26.475 348.678-26.1975 350.057-25.92 351.252-25.4411 352.263-24.7607 353.275-24.0804 354.058-23.1539 354.613-21.9812 355.168-20.8085 355.446-19.3449 355.446-17.5903L355.446 0 348.786 0 348.571-3.41064C347.461-2.13949 346.172-1.17716 344.704-0.523682 343.235 0.129801 341.544 0.456543 339.628 0.456543ZM341.964-4.43115C343.307-4.43115 344.547-4.78027 345.684-5.47852 346.821-6.17676 347.729-6.97347 348.41-7.86865L348.41-12.1118C344.65-12.0939 342.018-11.7403 340.514-11.051 339.01-10.3617 338.258-9.24723 338.258-7.70752 338.258-6.59749 338.603-5.77393 339.292-5.23682 339.981-4.69971 340.872-4.43115 341.964-4.43115ZM373.704 0C371.054 0 369-0.31779 367.541-0.953369 366.081-1.58895 365.065-2.57365 364.492-3.90747 363.919-5.24129 363.633-6.98242 363.633-9.13086L363.633-20.7324 359.282-20.7324 359.282-26.2109 363.633-26.2109 363.633-32.3877 370.75-32.3877 370.75-26.2109 376.47-26.2109 376.47-20.7324 370.75-20.7324 370.75-9.56055C370.75-8.18196 370.942-7.16146 371.327-6.49902 371.712-5.83659 372.585-5.50537 373.946-5.50537L376.47-5.50537 376.47 0ZM393.767 0.483398C390.849 0.483398 388.396-0.0581869 386.409-1.14136 384.422-2.22453 382.918-3.78662 381.897-5.82764 380.877-7.86865 380.367-10.3215 380.367-13.186 380.367-15.9611 380.863-18.3512 381.857-20.3564 382.851-22.3617 384.31-23.9058 386.234-24.989 388.159-26.0722 390.527-26.6138 393.338-26.6138 397.241-26.6138 400.325-25.4724 402.589-23.1897 404.854-20.907 405.987-17.653 405.987-13.4277 405.987-13.2129 405.978-12.922 405.96-12.5549 405.942-12.1879 405.915-11.9059 405.879-11.709L387.483-11.709C387.519-10.4736 387.747-9.31885 388.168-8.24463 388.589-7.17041 389.256-6.30656 390.169-5.65308 391.082-4.99959 392.281-4.67285 393.767-4.67285 395.307-4.67285 396.542-5.00854 397.473-5.67993 398.404-6.35132 398.879-7.34945 398.897-8.67432L405.906-8.67432C405.817-6.6333 405.257-4.93245 404.228-3.57178 403.198-2.2111 401.793-1.19507 400.011-0.523682 398.23 0.147705 396.149 0.483398 393.767 0.483398ZM387.564-16.2207 398.924-16.2207C398.87-18.0469 398.328-19.412 397.299-20.3162 396.269-21.2203 394.949-21.6724 393.338-21.6724 391.691-21.6724 390.343-21.2069 389.296-20.2759 388.249-19.3449 387.671-17.9932 387.564-16.2207ZM422.386 10.1245C419.253 10.1245 416.765 9.80224 414.921 9.15771 413.076 8.51318 411.752 7.66724 410.946 6.61987 410.14 5.57251 409.737 4.4401 409.737 3.22266 409.737 1.73665 410.445 0.434163 411.859-0.684814 413.273-1.80379 415.511-2.58708 418.573-3.03467L419.755-5.55908 423.299-5.55908C427.65-5.55908 430.823-4.95931 432.82-3.75977 434.816-2.56022 435.814-0.725097 435.814 1.74561 435.814 4.25212 434.668 6.27523 432.377 7.81494 430.085 9.35465 426.755 10.1245 422.386 10.1245ZM422.279 5.6665C424.678 5.6665 426.37 5.35319 427.355 4.72656 428.339 4.09993 428.832 3.33903 428.832 2.44385 428.832 1.87093 428.662 1.38753 428.321 0.993652 427.981 0.599772 427.417 0.29541 426.63 0.0805664 425.842-0.134277 424.794-0.241699 423.487-0.241699L418.707-0.241699C418.009 0.0268555 417.44 0.407308 417.002 0.899658 416.563 1.39201 416.344 1.96045 416.344 2.60498 416.344 3.35693 416.809 4.05518 417.74 4.69971 418.671 5.34424 420.184 5.6665 422.279 5.6665ZM418.68-0.59082C416.8-0.805664 415.279-1.18612 414.115-1.73218 412.951-2.27824 412.101-2.90934 411.564-3.62549 411.026-4.34163 410.758-5.04883 410.758-5.74707 410.758-6.83919 411.174-7.76571 412.007-8.52661 412.839-9.28752 414.097-9.95443 415.78-10.5273L419.486-9.18457C418.519-8.95182 417.714-8.66984 417.069-8.33862 416.424-8.0074 416.102-7.6001 416.102-7.1167 416.102-6.77653 416.295-6.49007 416.68-6.25732 417.065-6.02458 417.736-5.85002 418.694-5.73364 419.652-5.61727 420.972-5.55908 422.655-5.55908ZM421.903-8.35205C419.54-8.35205 417.526-8.77279 415.861-9.61426 414.195-10.4557 412.933-11.5658 412.074-12.9443 411.215-14.3229 410.785-15.8089 410.785-17.4023 410.785-19.1032 411.219-20.6384 412.087-22.0081 412.956-23.3777 414.231-24.4743 415.914-25.2978 417.597-26.1214 419.647-26.5332 422.064-26.5332 424.553-26.5332 426.616-26.1214 428.254-25.2978 429.892-24.4743 431.119-23.3777 431.934-22.0081 432.748-20.6384 433.155-19.1032 433.155-17.4023 433.155-15.7731 432.739-14.2692 431.907-12.8906 431.074-11.512 429.83-10.411 428.174-9.5874 426.518-8.76383 424.427-8.35205 421.903-8.35205ZM421.903-12.6221C423.228-12.6221 424.333-13.0294 425.22-13.844 426.106-14.6586 426.549-15.8447 426.549-17.4023 426.549-19.0495 426.137-20.2759 425.314-21.0815 424.49-21.8872 423.416-22.29 422.091-22.29 420.748-22.29 419.638-21.8738 418.761-21.0413 417.884-20.2087 417.445-18.9958 417.445-17.4023 417.445-15.8268 417.897-14.6362 418.801-13.8306 419.705-13.0249 420.739-12.6221 421.903-12.6221ZM429.396-22.5586 427.301-25.2173C427.999-27.0793 429.078-28.3504 430.537-29.0308 431.996-29.7111 433.755-30.0602 435.814-30.0781L435.814-24.895C434.418-24.895 433.142-24.7652 431.987-24.5056 430.832-24.246 429.969-23.597 429.396-22.5586ZM439.922 9.61426 439.922 3.84033 442.285 3.84033C443.342 3.84033 444.223 3.65234 444.93 3.27637 445.638 2.90039 446.152 2.28271 446.475 1.42334L447.065 0 436.86-26.2109 444.273-26.2109 450.906-6.82129 456.814-26.2109 464.011-26.2109 454.585 0 453.618 2.60498C452.938 4.44906 452.15 5.88135 451.255 6.90185 450.36 7.92236 449.263 8.62956 447.965 9.02344 446.667 9.41732 445.051 9.61426 443.118 9.61426Z" transform="matrix(1 0 0 1 52.6304 88)"/><path d="M15.0122 0C12.3625 0 10.308-0.31779 8.84888-0.953369 7.38973-1.58895 6.3737-2.57365 5.80078-3.90747 5.22786-5.24129 4.94141-6.98242 4.94141-9.13086L4.94141-20.7324 0.59082-20.7324 0.59082-26.2109 4.94141-26.2109 4.94141-32.3877 12.0581-32.3877 12.0581-26.2109 17.7783-26.2109 17.7783-20.7324 12.0581-20.7324 12.0581-9.56055C12.0581-8.18196 12.2506-7.16146 12.6355-6.49902 13.0204-5.83659 13.8932-5.50537 15.2539-5.50537L17.7783-5.50537 17.7783 0ZM35.0757 0.483398C32.1574 0.483398 29.7047-0.0581869 27.7173-1.14136 25.73-2.22453 24.2261-3.78662 23.2056-5.82764 22.1851-7.86865 21.6749-10.3215 21.6749-13.186 21.6749-15.9611 22.1717-18.3512 23.1653-20.3564 24.159-22.3617 25.6181-23.9058 27.5428-24.989 29.4674-26.0722 31.8352-26.6138 34.6461-26.6138 38.549-26.6138 41.633-25.4724 43.8978-23.1897 46.1626-20.907 47.295-17.653 47.295-13.4277 47.295-13.2129 47.286-12.922 47.2681-12.5549 47.2502-12.1879 47.2234-11.9059 47.1876-11.709L28.7916-11.709C28.8274-10.4736 29.0556-9.31885 29.4764-8.24463 29.8971-7.17041 30.564-6.30656 31.4771-5.65308 32.3902-4.99959 33.5897-4.67285 35.0757-4.67285 36.6155-4.67285 37.8508-5.00854 38.7818-5.67993 39.7128-6.35132 40.1872-7.34945 40.2051-8.67432L47.2144-8.67432C47.1249-6.6333 46.5654-4.93245 45.5359-3.57178 44.5065-2.2111 43.1011-1.19507 41.3196-0.523682 39.5382 0.147705 37.4569 0.483398 35.0757 0.483398ZM28.8721-16.2207 40.232-16.2207C40.1783-18.0469 39.6367-19.412 38.6072-20.3162 37.5778-21.2203 36.2574-21.6724 34.6461-21.6724 32.9989-21.6724 31.6517-21.2069 30.6043-20.2759 29.5569-19.3449 28.9796-17.9932 28.8721-16.2207ZM60.5258 0.456543C59.0398 0.456543 57.6522 0.170085 56.3632-0.402832 55.0741-0.975749 54.0312-1.8396 53.2345-2.99438 52.4378-4.14917 52.0395-5.59489 52.0395-7.33154 52.0395-9.74853 52.7645-11.5702 54.2147-12.7966 55.6649-14.023 57.6925-14.8555 60.2975-15.2942 62.9025-15.7328 65.9327-15.988 69.3881-16.0596L69.3881-17.4561C69.3881-19.1569 68.9808-20.3206 68.1662-20.9473 67.3515-21.5739 66.2997-21.8872 65.0106-21.8872 63.5963-21.8872 62.4325-21.5515 61.5194-20.8801 60.6063-20.2087 60.1498-19.1211 60.1498-17.6172L53.4896-17.6172C53.4896-19.8551 53.9775-21.6276 54.9533-22.9346 55.929-24.2415 57.2807-25.1815 59.0084-25.7544 60.7361-26.3273 62.7369-26.6138 65.0106-26.6138 66.6757-26.6138 68.1975-26.475 69.5761-26.1975 70.9547-25.92 72.1497-25.4411 73.1613-24.7607 74.1728-24.0804 74.9561-23.1539 75.5111-21.9812 76.0661-20.8085 76.3436-19.3449 76.3437-17.5903L76.3437 0 69.6835 0 69.4687-3.41064C68.3586-2.13949 67.0696-1.17716 65.6015-0.523682 64.1334 0.129801 62.4415 0.456543 60.5258 0.456543ZM62.8622-4.43115C64.205-4.43115 65.4448-4.78027 66.5817-5.47852 67.7186-6.17676 68.6272-6.97347 69.3075-7.86865L69.3075-12.1118C65.5478-12.0939 62.9159-11.7403 61.412-11.051 59.9081-10.3617 59.1562-9.24723 59.1562-7.70752 59.1562-6.59749 59.5008-5.77393 60.1901-5.23682 60.8794-4.69971 61.7701-4.43115 62.8622-4.43115ZM83.7468 0 83.7468-26.2109 90.595-26.2109 90.7292-22.29C91.5886-23.418 92.7747-24.4161 94.2876-25.2844 95.8004-26.1527 97.6669-26.5869 99.8869-26.5869 102.519-26.5869 104.537-25.7589 105.943-24.1028 107.348-22.4467 108.051-20.0968 108.051-17.0532L108.051 0 100.934 0 100.934-16.1401C100.934-17.089 100.805-17.9215 100.545-18.6377 100.285-19.3538 99.8646-19.9089 99.2827-20.3027 98.7008-20.6966 97.9444-20.8936 97.0134-20.8936 95.6348-20.8936 94.4532-20.5623 93.4685-19.8999 92.4838-19.2375 91.6155-18.4318 90.8635-17.4829L90.8635 0ZM118.149 0 118.149-16.1401C118.149-17.089 118.019-17.9215 117.759-18.6377 117.5-19.3538 117.079-19.9089 116.497-20.3027 115.915-20.6966 115.159-20.8936 114.228-20.8936 112.849-20.8936 111.663-20.5892 110.669-19.9805 109.676-19.3717 108.785-18.6108 107.997-17.6978L107.138-22.102C108.266-23.3016 109.649-24.349 111.287-25.2441 112.925-26.1393 114.854-26.5869 117.074-26.5869 119.688-26.5869 121.707-25.7589 123.13-24.1028 124.554-22.4467 125.265-20.0968 125.265-17.0532L125.265 0Z" transform="matrix(1 0 0 1 220.197 154)"/></g></g><rect x="747" y="1009" width="577" height="248" fill="#95C8E8"/><text font-family="Aptos,Aptos_MSFontService,sans-serif" font-weight="700" font-size="55" transform="matrix(1 0 0 1 803.63 1118)">Form your strategy </text><text font-family="Aptos,Aptos_MSFontService,sans-serif" font-weight="700" font-size="55" transform="matrix(1 0 0 1 971.197 1184)">team</text><path d="M586.5 1130.06 693.75 1130.06 693.75 1136.94 586.5 1136.94ZM689.167 1110.58 735 1133.5 689.167 1156.42Z" fill="#3B3B40"/><path d="M1347.5 1130.06 1454.75 1130.06 1454.75 1136.94 1347.5 1136.94ZM1450.17 1110.58 1496 1133.5 1450.17 1156.42Z" fill="#3B3B40"/><path d="M2107.5 1130.06 2214.75 1130.06 2214.75 1136.94 2107.5 1136.94ZM2210.17 1110.58 2256 1133.5 2210.17 1156.42Z" fill="#3B3B40"/><path d="M-87.5002 996.501C-87.5002 958.393-56.6077 927.5-18.4999 927.5L2863.5 927.5C2901.61 927.5 2932.5 958.393 2932.5 996.501L2932.5 1272.5C2932.5 1310.61 2901.61 1341.5 2863.5 1341.5L-18.4999 1341.5C-56.6077 1341.5-87.5002 1310.61-87.5002 1272.5Z" stroke="#2D2D2D" stroke-width="6.875" stroke-miterlimit="8" fill="none" fill-rule="evenodd"/><path d="M1.30777e-05-3.4375 87.7804-3.43717 87.7804 3.43783-1.30777e-05 3.4375ZM48.1999-25.9214 94.8587 0.000360497 48.1997 25.9218C46.5401 26.8437 44.4474 26.2458 43.5254 24.5862 42.6034 22.9267 43.2014 20.8339 44.8609 19.9119L86.111-3.00459 86.111 3.00524 44.8611-19.9116C43.2015-20.8336 42.6036-22.9263 43.5256-24.5859 44.4476-26.2455 46.5403-26.8434 48.1999-25.9214Z" fill="#2D2D2D" transform="matrix(1.83697e-16 1 1 -1.83697e-16 2932.5 1135.5)"/><path d="M1.96165e-05-3.4375 56.1597-3.43718 56.1597 3.43782-1.96165e-05 3.4375ZM16.5793-25.9215 63.238 0.000360661 16.579 25.9217C14.9194 26.8436 12.8266 26.2457 11.9047 24.5861 10.9827 22.9266 11.5806 20.8338 13.2402 19.9118L54.4903-3.0046 54.4903 3.00523 13.2404-19.9117C11.5809-20.8337 10.983-22.9264 11.905-24.586 12.8269-26.2456 14.9197-26.8435 16.5793-25.9215Z" fill="#2D2D2D" transform="matrix(-6.12323e-17 -1 -1 6.12323e-17 -87.5 1080.74)"/><path d="M1250.5 924.062 1414.19 924.063 1414.19 930.938 1250.5 930.937ZM1374.61 901.579 1421.26 927.5 1374.61 953.422C1372.95 954.344 1370.85 953.746 1369.93 952.086 1369.01 950.427 1369.61 948.334 1371.27 947.412L1412.52 924.495 1412.52 930.505 1371.27 907.588C1369.61 906.666 1369.01 904.574 1369.93 902.914 1370.85 901.255 1372.95 900.657 1374.61 901.579Z" fill="#2D2D2D"/><path d="M7.26468e-06-3.4375 163.686-3.43715 163.686 3.43785-7.26468e-06 3.4375ZM124.105-25.9213 170.764 0.000360527 124.105 25.9218C122.446 26.8438 120.353 26.2459 119.431 24.5863 118.509 22.9267 119.107 20.834 120.766 19.912L162.016-3.00457 162.016 3.00526 120.766-19.9115C119.107-20.8335 118.509-22.9262 119.431-24.5858 120.353-26.2454 122.446-26.8433 124.105-25.9213Z" fill="#2D2D2D" transform="matrix(-1 0 0 1 1593.27 1341.5)"/></g></svg>