<svg width="3153" height="737" xmlns="http://www.w3.org/2000/svg" xmlns:xlink="http://www.w3.org/1999/xlink" xml:space="preserve" overflow="hidden"><defs><filter id="fx0" x="-10%" y="-10%" width="120%" height="120%" filterUnits="userSpaceOnUse" primitiveUnits="userSpaceOnUse"><feComponentTransfer color-interpolation-filters="sRGB"><feFuncR type="discrete" tableValues="0 0"/><feFuncG type="discrete" tableValues="0 0"/><feFuncB type="discrete" tableValues="0 0"/><feFuncA type="linear" slope="0.4" intercept="0"/></feComponentTransfer><feGaussianBlur stdDeviation="6.11111 6.11111"/></filter><filter id="fx1" x="-10%" y="-10%" width="120%" height="120%" filterUnits="userSpaceOnUse" primitiveUnits="userSpaceOnUse"><feComponentTransfer color-interpolation-filters="sRGB"><feFuncR type="discrete" tableValues="0 0"/><feFuncG type="discrete" tableValues="0 0"/><feFuncB type="discrete" tableValues="0 0"/><feFuncA type="linear" slope="0.4" intercept="0"/></feComponentTransfer><feGaussianBlur stdDeviation="6.11111 6.11111"/></filter><filter id="fx2" x="-10%" y="-10%" width="120%" height="120%" filterUnits="userSpaceOnUse" primitiveUnits="userSpaceOnUse"><feComponentTransfer color-interpolation-filters="sRGB"><feFuncR type="discrete" tableValues="0 0"/><feFuncG type="discrete" tableValues="0 0"/><feFuncB type="discrete" tableValues="0 0"/><feFuncA type="linear" slope="0.4" intercept="0"/></feComponentTransfer><feGaussianBlur stdDeviation="6.11111 6.11111"/></filter><filter id="fx3" x="-10%" y="-10%" width="120%" height="120%" filterUnits="userSpaceOnUse" primitiveUnits="userSpaceOnUse"><feComponentTransfer color-interpolation-filters="sRGB"><feFuncR type="discrete" tableValues="0 0"/><feFuncG type="discrete" tableValues="0 0"/><feFuncB type="discrete" tableValues="0 0"/><feFuncA type="linear" slope="0.4" intercept="0"/></feComponentTransfer><feGaussianBlur stdDeviation="6.11111 6.11111"/></filter><filter id="fx4" x="-10%" y="-10%" width="120%" height="120%" filterUnits="userSpaceOnUse" primitiveUnits="userSpaceOnUse"><feComponentTransfer color-interpolation-filters="sRGB"><feFuncR type="discrete" tableValues="0 0"/><feFuncG type="discrete" tableValues="0 0"/><feFuncB type="discrete" tableValues="0 0"/><feFuncA type="linear" slope="0.4" intercept="0"/></feComponentTransfer><feGaussianBlur stdDeviation="6.11111 6.11111"/></filter><filter id="fx5" x="-10%" y="-10%" width="120%" height="120%" filterUnits="userSpaceOnUse" primitiveUnits="userSpaceOnUse"><feComponentTransfer color-interpolation-filters="sRGB"><feFuncR type="discrete" tableValues="0 0"/><feFuncG type="discrete" tableValues="0 0"/><feFuncB type="discrete" tableValues="0 0"/><feFuncA type="linear" slope="0.4" intercept="0"/></feComponentTransfer><feGaussianBlur stdDeviation="6.11111 6.11111"/></filter><filter id="fx6" x="-10%" y="-10%" width="120%" height="120%" filterUnits="userSpaceOnUse" primitiveUnits="userSpaceOnUse"><feComponentTransfer color-interpolation-filters="sRGB"><feFuncR type="discrete" tableValues="0 0"/><feFuncG type="discrete" tableValues="0 0"/><feFuncB type="discrete" tableValues="0 0"/><feFuncA type="linear" slope="0.4" intercept="0"/></feComponentTransfer><feGaussianBlur stdDeviation="6.11111 6.11111"/></filter><filter id="fx7" x="-10%" y="-10%" width="120%" height="120%" filterUnits="userSpaceOnUse" primitiveUnits="userSpaceOnUse"><feComponentTransfer color-interpolation-filters="sRGB"><feFuncR type="discrete" tableValues="0 0"/><feFuncG type="discrete" tableValues="0 0"/><feFuncB type="discrete" tableValues="0 0"/><feFuncA type="linear" slope="0.4" intercept="0"/></feComponentTransfer><feGaussianBlur stdDeviation="6.11111 6.11111"/></filter><filter id="fx8" x="-10%" y="-10%" width="120%" height="120%" filterUnits="userSpaceOnUse" primitiveUnits="userSpaceOnUse"><feComponentTransfer color-interpolation-filters="sRGB"><feFuncR type="discrete" tableValues="0 0"/><feFuncG type="discrete" tableValues="0 0"/><feFuncB type="discrete" tableValues="0 0"/><feFuncA type="linear" slope="0.4" intercept="0"/></feComponentTransfer><feGaussianBlur stdDeviation="6.11111 6.11111"/></filter><filter id="fx9" x="-10%" y="-10%" width="120%" height="120%" filterUnits="userSpaceOnUse" primitiveUnits="userSpaceOnUse"><feComponentTransfer color-interpolation-filters="sRGB"><feFuncR type="discrete" tableValues="0 0"/><feFuncG type="discrete" tableValues="0 0"/><feFuncB type="discrete" tableValues="0 0"/><feFuncA type="linear" slope="0.4" intercept="0"/></feComponentTransfer><feGaussianBlur stdDeviation="6.11111 6.11111"/></filter><clipPath id="clip10"><rect x="300" y="887" width="3153" height="737"/></clipPath><clipPath id="clip11"><rect x="39" y="32" width="223" height="100"/></clipPath><clipPath id="clip12"><rect x="39" y="32" width="268" height="89"/></clipPath><clipPath id="clip13"><rect x="35" y="32" width="368" height="89"/></clipPath><clipPath id="clip14"><rect x="39" y="35" width="254" height="86"/></clipPath><clipPath id="clip15"><rect x="39" y="32" width="389" height="100"/></clipPath></defs><g clip-path="url(#clip10)" transform="translate(-300 -887)"><rect x="304" y="887" width="3139" height="737" fill="#FFFFFF"/><g filter="url(#fx0)" transform="translate(413 1003)"><g><rect x="20.0001" y="19.7499" width="577" height="248" fill="#D9D9D9"/></g></g><g clip-path="url(#clip11)" filter="url(#fx1)" transform="translate(573 1069)"><g><path d="M5.03125 0 5.03125-42.0625 22.3437-42.0625C25.0521-42.0625 27.4687-41.6823 29.5937-40.9219 31.7187-40.1615 33.401-38.9323 34.6406-37.2344 35.8802-35.5365 36.5-33.2812 36.5-30.4687 36.5-27.8021 35.7865-25.5417 34.3594-23.6875 32.9323-21.8333 30.7708-20.5104 27.875-19.7187 29.6458-19.4479 31.0625-18.9115 32.125-18.1094 33.1875-17.3073 34.0469-16.2292 34.7031-14.875 35.3594-13.5208 35.9583-11.8542 36.5-9.875L39.2812 0 30.0937 0 28.125-8.125C27.7083-9.95833 27.2292-11.4583 26.6875-12.625 26.1458-13.7917 25.4115-14.6615 24.4844-15.2344 23.5573-15.8073 22.2812-16.0937 20.6562-16.0937L13.8125-16.0937 13.8125 0ZM13.8125-23.3437 20.875-23.3437C22.25-23.3437 23.4323-23.5625 24.4219-24 25.4115-24.4375 26.1771-25.0937 26.7187-25.9687 27.2604-26.8437 27.5312-27.9167 27.5312-29.1875 27.5312-31.0417 26.9687-32.4375 25.8437-33.375 24.7187-34.3125 23.2292-34.7812 21.375-34.7812L13.8125-34.7812ZM59.1458 0.5625C55.75 0.5625 52.8958-0.0677084 50.5833-1.32812 48.2708-2.58854 46.5208-4.40625 45.3333-6.78125 44.1458-9.15625 43.5521-12.0104 43.5521-15.3437 43.5521-18.5729 44.1302-21.3542 45.2865-23.6875 46.4427-26.0208 48.1406-27.8177 50.3802-29.0781 52.6198-30.3385 55.375-30.9687 58.6458-30.9687 63.1875-30.9687 66.776-29.6406 69.4115-26.9844 72.0469-24.3281 73.3646-20.5417 73.3646-15.625 73.3646-15.375 73.3542-15.0365 73.3333-14.6094 73.3125-14.1823 73.2812-13.8542 73.2396-13.625L51.8333-13.625C51.875-12.1875 52.1406-10.8437 52.6302-9.59375 53.1198-8.34375 53.8958-7.33854 54.9583-6.57812 56.0208-5.81771 57.4167-5.4375 59.1458-5.4375 60.9375-5.4375 62.375-5.82812 63.4583-6.60937 64.5417-7.39062 65.0937-8.55208 65.1146-10.0937L73.2708-10.0937C73.1667-7.71875 72.5156-5.73958 71.3177-4.15625 70.1198-2.57292 68.4844-1.39062 66.4115-0.609375 64.3385 0.171875 61.9167 0.5625 59.1458 0.5625ZM51.9271-18.875 65.1458-18.875C65.0833-21 64.4531-22.5885 63.2552-23.6406 62.0573-24.6927 60.5208-25.2187 58.6458-25.2187 56.7292-25.2187 55.1615-24.6771 53.9427-23.5937 52.724-22.5104 52.0521-20.9375 51.9271-18.875ZM88.9479 0.53125C87.2187 0.53125 85.6042 0.197917 84.1042-0.46875 82.6042-1.13542 81.3906-2.14062 80.4635-3.48437 79.5365-4.82812 79.0729-6.51042 79.0729-8.53125 79.0729-11.3437 79.9167-13.4635 81.6042-14.8906 83.2917-16.3177 85.651-17.2865 88.6823-17.7969 91.7135-18.3073 95.2396-18.6042 99.2604-18.6875L99.2604-20.3125C99.2604-22.2917 98.7865-23.6458 97.8385-24.375 96.8906-25.1042 95.6667-25.4687 94.1667-25.4687 92.5208-25.4687 91.1667-25.0781 90.1042-24.2969 89.0417-23.5156 88.5104-22.25 88.5104-20.5L80.7604-20.5C80.7604-23.1042 81.3281-25.1667 82.4635-26.6875 83.599-28.2083 85.1719-29.3021 87.1823-29.9687 89.1927-30.6354 91.5208-30.9687 94.1667-30.9687 96.1042-30.9687 97.875-30.8073 99.4792-30.4844 101.083-30.1615 102.474-29.6042 103.651-28.8125 104.828-28.0208 105.74-26.9427 106.385-25.5781 107.031-24.2135 107.354-22.5104 107.354-20.4687L107.354 0 99.6042 0 99.3542-3.96875C98.0625-2.48958 96.5625-1.36979 94.8542-0.609375 93.1458 0.151042 91.1771 0.53125 88.9479 0.53125ZM91.6667-5.15625C93.2292-5.15625 94.6719-5.5625 95.9948-6.375 97.3177-7.1875 98.375-8.11458 99.1667-9.15625L99.1667-14.0937C94.7917-14.0729 91.7292-13.6615 89.9792-12.8594 88.2292-12.0573 87.3542-10.7604 87.3542-8.96875 87.3542-7.67708 87.7552-6.71875 88.5573-6.09375 89.3594-5.46875 90.3958-5.15625 91.6667-5.15625ZM126.656 0.53125C124.365 0.53125 122.307-0.0416667 120.484-1.1875 118.661-2.33333 117.224-4.08854 116.172-6.45312 115.12-8.81771 114.594-11.8229 114.594-15.4687 114.594-18.9896 115.161-21.8958 116.297-24.1875 117.432-26.4792 118.969-28.1875 120.906-29.3125 122.844-30.4375 125.021-31 127.438-31 129.562-31 131.385-30.5625 132.906-29.6875 134.427-28.8125 135.635-27.6667 136.531-26.25L136.531-42.0625 144.812-42.0625 144.812 0 136.875 0 136.531-4.34375C135.448-2.84375 134.104-1.65625 132.5-0.78125 130.896 0.0937499 128.948 0.53125 126.656 0.53125ZM129.094-5.78125C130.844-5.78125 132.354-6.27083 133.625-7.25 134.896-8.22917 135.865-9.375 136.531-10.6875L136.531-19.5937C135.885-20.9687 134.979-22.1667 133.812-23.1875 132.646-24.2083 131.208-24.7187 129.5-24.7187 127.458-24.7187 125.875-23.9271 124.75-22.3437 123.625-20.7604 123.062-18.4687 123.062-15.4687 123.062-12.1771 123.599-9.73958 124.672-8.15625 125.745-6.57292 127.219-5.78125 129.094-5.78125ZM153.094 11.1875 153.094 4.46875 155.844 4.46875C157.073 4.46875 158.099 4.25 158.922 3.8125 159.745 3.375 160.344 2.65625 160.719 1.65625L161.406 0 149.531-30.5 158.156-30.5 165.875-7.9375 172.75-30.5 181.125-30.5 170.156 0 169.031 3.03125C168.24 5.17708 167.323 6.84375 166.281 8.03125 165.24 9.21875 163.964 10.0417 162.453 10.5 160.943 10.9583 159.062 11.1875 156.812 11.1875Z" transform="matrix(1 0 0 1 58.1607 98)"/></g></g><rect x="433" y="1009" width="577" height="248" fill="#D9D9D9"/><text font-family="Aptos,Aptos_MSFontService,sans-serif" font-weight="700" font-size="64" transform="matrix(1 0 0 1 631.161 1153)">Ready</text><g filter="url(#fx2)" transform="translate(1936 1003)"><g><rect x="19.9999" y="19.7499" width="577" height="248" fill="#95C8E8"/></g></g><g clip-path="url(#clip12)" filter="url(#fx3)" transform="translate(2073 1069)"><g><path d="M5.03125 0 5.03125-42.0625 15.125-42.0625 28.3125-19.625 24.8125-19.625 37.8125-42.0625 47.5312-42.0625 47.5312 0 38.875 0 38.875-37.375 42.7187-37.375 28.9687-13.4375 23.5625-13.4375 9.46875-37.375 13.4375-37.375 13.4375 0ZM70.9896 0.5C67.9062 0.5 65.2031-0.114583 62.8802-1.34375 60.5573-2.57292 58.7604-4.35417 57.4896-6.6875 56.2188-9.02083 55.5833-11.8437 55.5833-15.1562 55.5833-18.5312 56.2188-21.401 57.4896-23.7656 58.7604-26.1302 60.5573-27.9323 62.8802-29.1719 65.2031-30.4115 67.9062-31.0312 70.9896-31.0312 74.1146-31.0312 76.8385-30.4115 79.1615-29.1719 81.4844-27.9323 83.2917-26.1302 84.5833-23.7656 85.875-21.401 86.5208-18.5312 86.5208-15.1562 86.5208-11.8437 85.875-9.02083 84.5833-6.6875 83.2917-4.35417 81.4844-2.57292 79.1615-1.34375 76.8385-0.114583 74.1146 0.5 70.9896 0.5ZM70.9896-5.8125C72.8021-5.8125 74.224-6.23437 75.2552-7.07812 76.2865-7.92187 77.0156-9.05208 77.4427-10.4687 77.8698-11.8854 78.0833-13.4479 78.0833-15.1562 78.0833-16.9062 77.8698-18.5 77.4427-19.9375 77.0156-21.375 76.2865-22.5208 75.2552-23.375 74.224-24.2292 72.8021-24.6562 70.9896-24.6562 69.2187-24.6562 67.8281-24.2292 66.8177-23.375 65.8073-22.5208 65.0937-21.375 64.6771-19.9375 64.2604-18.5 64.0521-16.9062 64.0521-15.1562 64.0521-13.4479 64.2604-11.8854 64.6771-10.4687 65.0937-9.05208 65.8073-7.92187 66.8177-7.07812 67.8281-6.23437 69.2187-5.8125 70.9896-5.8125ZM93.8125 0 93.8125-30.5 101.781-30.5 101.938-25.9375C102.958-27.25 104.302-28.4115 105.969-29.4219 107.635-30.4323 109.802-30.9375 112.469-30.9375 115.573-30.9375 117.979-29.9948 119.688-28.1094 121.396-26.224 122.25-23.4687 122.25-19.8437L122.25 0 114.031 0 114.031-18.7812C114.031-19.8854 113.875-20.8542 113.562-21.6875 113.25-22.5208 112.755-23.1667 112.078-23.625 111.401-24.0833 110.51-24.3125 109.406-24.3125 107.76-24.3125 106.349-23.9271 105.172-23.1562 103.995-22.3854 102.969-21.4479 102.094-20.3437L102.094 0ZM131.052 0 131.052-30.5 139.333-30.5 139.333 0ZM135.208-34.5C133.688-34.5 132.526-34.8854 131.724-35.6562 130.922-36.4271 130.521-37.3854 130.521-38.5312 130.521-39.6979 130.922-40.6615 131.724-41.4219 132.526-42.1823 133.688-42.5625 135.208-42.5625 136.729-42.5625 137.891-42.1823 138.693-41.4219 139.495-40.6615 139.896-39.6979 139.896-38.5312 139.896-37.3854 139.495-36.4271 138.693-35.6562 137.891-34.8854 136.729-34.5 135.208-34.5ZM161.271 0C158.188 0 155.797-0.369792 154.099-1.10937 152.401-1.84896 151.219-2.99479 150.552-4.54687 149.885-6.09896 149.552-8.125 149.552-10.625L149.552-24.125 144.49-24.125 144.49-30.5 149.552-30.5 149.552-37.6875 157.833-37.6875 157.833-30.5 164.49-30.5 164.49-24.125 157.833-24.125 157.833-11.125C157.833-9.52083 158.057-8.33333 158.505-7.5625 158.953-6.79167 159.969-6.40625 161.552-6.40625L164.49-6.40625 164.49 0ZM184.679 0.5C181.596 0.5 178.893-0.114583 176.57-1.34375 174.247-2.57292 172.45-4.35417 171.179-6.6875 169.908-9.02083 169.273-11.8437 169.273-15.1562 169.273-18.5312 169.908-21.401 171.179-23.7656 172.45-26.1302 174.247-27.9323 176.57-29.1719 178.893-30.4115 181.596-31.0312 184.679-31.0312 187.804-31.0312 190.528-30.4115 192.851-29.1719 195.174-27.9323 196.981-26.1302 198.273-23.7656 199.565-21.401 200.21-18.5312 200.21-15.1562 200.21-11.8437 199.565-9.02083 198.273-6.6875 196.981-4.35417 195.174-2.57292 192.851-1.34375 190.528-0.114583 187.804 0.5 184.679 0.5ZM184.679-5.8125C186.492-5.8125 187.914-6.23437 188.945-7.07812 189.976-7.92187 190.705-9.05208 191.132-10.4687 191.559-11.8854 191.773-13.4479 191.773-15.1562 191.773-16.9062 191.559-18.5 191.132-19.9375 190.705-21.375 189.976-22.5208 188.945-23.375 187.914-24.2292 186.492-24.6562 184.679-24.6562 182.908-24.6562 181.518-24.2292 180.507-23.375 179.497-22.5208 178.783-21.375 178.367-19.9375 177.95-18.5 177.742-16.9062 177.742-15.1562 177.742-13.4479 177.95-11.8854 178.367-10.4687 178.783-9.05208 179.497-7.92187 180.507-7.07812 181.518-6.23437 182.908-5.8125 184.679-5.8125ZM207.502 0 207.502-30.5 215.44-30.5 215.596-25.2187C216.387-27.0521 217.575-28.4583 219.158-29.4375 220.742-30.4167 222.658-30.9062 224.908-30.9062L225.533-30.9062 225.533-23.9375 224.752-23.9375C223.523-23.9375 222.346-23.8281 221.221-23.6094 220.096-23.3906 219.075-23.0156 218.158-22.4844 217.242-21.9531 216.45-21.2187 215.783-20.2812L215.783 0Z" transform="matrix(1 0 0 1 58.3945 98)"/></g></g><rect x="1956" y="1009" width="577" height="248" fill="#95C8E8"/><text font-family="Aptos,Aptos_MSFontService,sans-serif" font-weight="700" font-size="64" transform="matrix(1 0 0 1 2131.39 1153)">Monitor</text><g filter="url(#fx4)" transform="translate(1174 1003)"><g><rect x="19.9999" y="19.7499" width="578" height="248" fill="#D9D9D9"/></g></g><g clip-path="url(#clip13)" filter="url(#fx5)" transform="translate(1264 1069)"><g><path d="M0.09375 0 15.2187-42.0625 24.4375-42.0625 39.5937 0 30.4375 0 27.4375-9.25 12.25-9.25 9.15625 0ZM14.3437-16.5312 25.2812-16.5312 19.8125-33.375ZM54.4687 0.53125C52.1771 0.53125 50.1198-0.0416667 48.2969-1.1875 46.474-2.33333 45.0365-4.08854 43.9844-6.45312 42.9323-8.81771 42.4062-11.8229 42.4062-15.4687 42.4062-18.9896 42.974-21.8958 44.1094-24.1875 45.2448-26.4792 46.7812-28.1875 48.7187-29.3125 50.6562-30.4375 52.8333-31 55.25-31 57.375-31 59.1979-30.5625 60.7187-29.6875 62.2396-28.8125 63.4479-27.6667 64.3437-26.25L64.3437-42.0625 72.625-42.0625 72.625 0 64.6875 0 64.3437-4.34375C63.2604-2.84375 61.9167-1.65625 60.3125-0.78125 58.7083 0.0937499 56.7604 0.53125 54.4687 0.53125ZM56.9062-5.78125C58.6562-5.78125 60.1667-6.27083 61.4375-7.25 62.7083-8.22917 63.6771-9.375 64.3437-10.6875L64.3437-19.5937C63.6979-20.9687 62.7917-22.1667 61.625-23.1875 60.4583-24.2083 59.0208-24.7187 57.3125-24.7187 55.2708-24.7187 53.6875-23.9271 52.5625-22.3437 51.4375-20.7604 50.875-18.4687 50.875-15.4687 50.875-12.1771 51.4115-9.73958 52.4844-8.15625 53.5573-6.57292 55.0312-5.78125 56.9062-5.78125ZM81.7812 0 81.7812-30.5 89.75-30.5 89.9062-25.9375C90.9062-27.25 92.2865-28.4115 94.0469-29.4219 95.8073-30.4323 97.9792-30.9375 100.562-30.9375 103.625-30.9375 105.974-29.974 107.609-28.0469 109.245-26.1198 110.062-23.3854 110.062-19.8437L110.062 0 101.781 0 101.781-18.7812C101.781-19.8854 101.63-20.8542 101.328-21.6875 101.026-22.5208 100.536-23.1667 99.8594-23.625 99.1823-24.0833 98.3021-24.3125 97.2187-24.3125 95.6146-24.3125 94.2396-23.9271 93.0937-23.1562 91.9479-22.3854 90.9375-21.4479 90.0625-20.3437L90.0625 0ZM121.812 0 121.812-18.7812C121.812-19.8854 121.661-20.8542 121.359-21.6875 121.057-22.5208 120.568-23.1667 119.891-23.625 119.214-24.0833 118.333-24.3125 117.25-24.3125 115.646-24.3125 114.266-23.9583 113.109-23.25 111.953-22.5417 110.917-21.6562 110-20.5937L109-25.7187C110.312-27.1146 111.922-28.3333 113.828-29.375 115.734-30.4167 117.979-30.9375 120.562-30.9375 123.604-30.9375 125.953-29.974 127.609-28.0469 129.266-26.1198 130.094-23.3854 130.094-19.8437L130.094 0ZM139.073 0 139.073-30.5 147.354-30.5 147.354 0ZM143.229-34.5C141.708-34.5 140.547-34.8854 139.745-35.6562 138.943-36.4271 138.542-37.3854 138.542-38.5312 138.542-39.6979 138.943-40.6615 139.745-41.4219 140.547-42.1823 141.708-42.5625 143.229-42.5625 144.75-42.5625 145.911-42.1823 146.714-41.4219 147.516-40.6615 147.917-39.6979 147.917-38.5312 147.917-37.3854 147.516-36.4271 146.714-35.6562 145.911-34.8854 144.75-34.5 143.229-34.5ZM156.26 0 156.26-30.5 164.229-30.5 164.385-25.9375C165.406-27.25 166.75-28.4115 168.417-29.4219 170.083-30.4323 172.25-30.9375 174.917-30.9375 178.021-30.9375 180.427-29.9948 182.135-28.1094 183.844-26.224 184.698-23.4687 184.698-19.8437L184.698 0 176.479 0 176.479-18.7812C176.479-19.8854 176.323-20.8542 176.01-21.6875 175.698-22.5208 175.203-23.1667 174.526-23.625 173.849-24.0833 172.958-24.3125 171.854-24.3125 170.208-24.3125 168.797-23.9271 167.62-23.1562 166.443-22.3854 165.417-21.4479 164.542-20.3437L164.542 0ZM193.5 0 193.5-30.5 201.781-30.5 201.781 0ZM197.656-34.5C196.135-34.5 194.974-34.8854 194.172-35.6562 193.37-36.4271 192.969-37.3854 192.969-38.5312 192.969-39.6979 193.37-40.6615 194.172-41.4219 194.974-42.1823 196.135-42.5625 197.656-42.5625 199.177-42.5625 200.339-42.1823 201.141-41.4219 201.943-40.6615 202.344-39.6979 202.344-38.5312 202.344-37.3854 201.943-36.4271 201.141-35.6562 200.339-34.8854 199.177-34.5 197.656-34.5ZM222.937 0.5625C221.25 0.5625 219.594 0.40625 217.969 0.09375 216.344-0.21875 214.875-0.755208 213.562-1.51562 212.25-2.27604 211.208-3.3125 210.437-4.625 209.667-5.9375 209.281-7.57292 209.281-9.53125L216.969-9.53125C216.969-7.82292 217.568-6.63542 218.766-5.96875 219.964-5.30208 221.365-4.96875 222.969-4.96875 224.552-4.96875 225.781-5.22396 226.656-5.73437 227.531-6.24479 227.969-7.10417 227.969-8.3125 227.969-9.45833 227.453-10.3125 226.422-10.875 225.391-11.4375 223.583-12.0104 221-12.5937 218.833-13.1146 216.901-13.7448 215.203-14.4844 213.505-15.224 212.177-16.2135 211.219-17.4531 210.26-18.6927 209.781-20.3229 209.781-22.3437 209.781-23.9271 210.146-25.2708 210.875-26.375 211.604-27.4792 212.578-28.3698 213.797-29.0469 215.016-29.724 216.391-30.2187 217.922-30.5312 219.453-30.8437 221.021-31 222.625-31 224.187-31 225.719-30.8437 227.219-30.5312 228.719-30.2187 230.073-29.6927 231.281-28.9531 232.49-28.2135 233.458-27.2187 234.187-25.9687 234.917-24.7187 235.281-23.1562 235.281-21.2812L227.594-21.2812C227.594-22.8437 227.099-23.9271 226.109-24.5312 225.12-25.1354 223.958-25.4375 222.625-25.4375 221.187-25.4375 220.057-25.2292 219.234-24.8125 218.411-24.3958 218-23.7083 218-22.75 218-22.1875 218.26-21.6927 218.781-21.2656 219.302-20.8385 220.135-20.4427 221.281-20.0781 222.427-19.7135 223.937-19.3229 225.812-18.9062 227.792-18.4479 229.562-17.8542 231.125-17.125 232.687-16.3958 233.927-15.4167 234.844-14.1875 235.76-12.9583 236.219-11.3646 236.219-9.40625 236.219-7.57292 235.849-6.02083 235.109-4.75 234.37-3.47917 233.38-2.45312 232.141-1.67187 230.901-0.890625 229.484-0.322917 227.891 0.03125 226.297 0.385417 224.646 0.5625 222.937 0.5625ZM256.421 0C253.337 0 250.947-0.369792 249.249-1.10937 247.551-1.84896 246.369-2.99479 245.702-4.54687 245.035-6.09896 244.702-8.125 244.702-10.625L244.702-24.125 239.64-24.125 239.64-30.5 244.702-30.5 244.702-37.6875 252.983-37.6875 252.983-30.5 259.64-30.5 259.64-24.125 252.983-24.125 252.983-11.125C252.983-9.52083 253.207-8.33333 253.655-7.5625 254.103-6.79167 255.119-6.40625 256.702-6.40625L259.64-6.40625 259.64 0ZM280.017 0.5625C276.621 0.5625 273.767-0.0677084 271.454-1.32812 269.142-2.58854 267.392-4.40625 266.204-6.78125 265.017-9.15625 264.423-12.0104 264.423-15.3437 264.423-18.5729 265.001-21.3542 266.157-23.6875 267.313-26.0208 269.011-27.8177 271.251-29.0781 273.491-30.3385 276.246-30.9687 279.517-30.9687 284.058-30.9687 287.647-29.6406 290.282-26.9844 292.918-24.3281 294.235-20.5417 294.235-15.625 294.235-15.375 294.225-15.0365 294.204-14.6094 294.183-14.1823 294.152-13.8542 294.11-13.625L272.704-13.625C272.746-12.1875 273.011-10.8437 273.501-9.59375 273.991-8.34375 274.767-7.33854 275.829-6.57812 276.892-5.81771 278.287-5.4375 280.017-5.4375 281.808-5.4375 283.246-5.82812 284.329-6.60937 285.412-7.39062 285.965-8.55208 285.985-10.0937L294.142-10.0937C294.037-7.71875 293.386-5.73958 292.189-4.15625 290.991-2.57292 289.355-1.39062 287.282-0.609375 285.209 0.171875 282.787 0.5625 280.017 0.5625ZM272.798-18.875 286.017-18.875C285.954-21 285.324-22.5885 284.126-23.6406 282.928-24.6927 281.392-25.2187 279.517-25.2187 277.6-25.2187 276.032-24.6771 274.814-23.5937 273.595-22.5104 272.923-20.9375 272.798-18.875ZM301.506 0 301.506-30.5 309.444-30.5 309.6-25.2187C310.392-27.0521 311.579-28.4583 313.162-29.4375 314.746-30.4167 316.662-30.9062 318.912-30.9062L319.537-30.9062 319.537-23.9375 318.756-23.9375C317.527-23.9375 316.35-23.8281 315.225-23.6094 314.1-23.3906 313.079-23.0156 312.162-22.4844 311.246-21.9531 310.454-21.2187 309.787-20.2812L309.787 0Z" transform="matrix(1 0 0 1 58.8976 98)"/></g></g><rect x="1194" y="1009" width="578" height="248" fill="#D9D9D9"/><text font-family="Aptos,Aptos_MSFontService,sans-serif" font-weight="700" font-size="64" transform="matrix(1 0 0 1 1322.9 1153)">Administer</text><path d="M1034.5 1130.06 1141.75 1130.06 1141.75 1136.94 1034.5 1136.94ZM1137.17 1110.58 1183 1133.5 1137.17 1156.42Z" fill="#3B3B40"/><path d="M1794.5 1130.06 1901.75 1130.06 1901.75 1136.94 1794.5 1136.94ZM1897.17 1110.58 1943 1133.5 1897.17 1156.42Z" fill="#3B3B40"/><path d="M2577.5 1130.06 2684.75 1130.06 2684.75 1136.94 2577.5 1136.94ZM2680.17 1110.58 2726 1133.5 2680.17 1156.42Z" fill="#3B3B40"/><path d="M343.5 999.502C343.5 961.393 374.393 930.5 412.502 930.5L3340.5 930.5C3378.61 930.5 3409.5 961.393 3409.5 999.502L3409.5 1275.5C3409.5 1313.61 3378.61 1344.5 3340.5 1344.5L412.502 1344.5C374.393 1344.5 343.5 1313.61 343.5 1275.5Z" stroke="#2D2D2D" stroke-width="6.875" stroke-miterlimit="8" fill="none" fill-rule="evenodd"/><path d="M1.30777e-05-3.4375 87.7804-3.43717 87.7804 3.43783-1.30777e-05 3.4375ZM48.1999-25.9214 94.8587 0.000360497 48.1997 25.9218C46.5401 26.8437 44.4474 26.2458 43.5254 24.5862 42.6034 22.9267 43.2014 20.8339 44.8609 19.9119L86.111-3.00459 86.111 3.00524 44.8611-19.9116C43.2015-20.8336 42.6036-22.9263 43.5256-24.5859 44.4476-26.2455 46.5403-26.8434 48.1999-25.9214Z" fill="#2D2D2D" transform="matrix(1.83697e-16 1 1 -1.83697e-16 3409.5 1043.5)"/><path d="M1.96165e-05-3.4375 56.1597-3.43718 56.1597 3.43782-1.96165e-05 3.4375ZM16.5793-25.9215 63.238 0.000360661 16.579 25.9217C14.9194 26.8436 12.8266 26.2457 11.9047 24.5861 10.9827 22.9266 11.5806 20.8338 13.2402 19.9118L54.4903-3.0046 54.4903 3.00523 13.2404-19.9117C11.5809-20.8337 10.983-22.9264 11.905-24.586 12.8269-26.2456 14.9197-26.8435 16.5793-25.9215Z" fill="#2D2D2D" transform="matrix(-6.12323e-17 -1 -1 6.12323e-17 343.5 1203.74)"/><path d="M1701.5 927.063 1867.78 927.063 1867.78 933.938 1701.5 933.938ZM1828.2 904.579 1874.85 930.5 1828.2 956.422C1826.54 957.344 1824.44 956.746 1823.52 955.086 1822.6 953.427 1823.2 951.334 1824.86 950.412L1866.11 927.495 1866.11 933.505 1824.86 910.589C1823.2 909.667 1822.6 907.574 1823.52 905.914 1824.44 904.255 1826.54 903.657 1828.2 904.579Z" fill="#2D2D2D"/><path d="M7.15615e-06-3.4375 166.276-3.43715 166.276 3.43785-7.15615e-06 3.4375ZM126.695-25.9213 173.354 0.00036075 126.695 25.9218C125.035 26.8438 122.943 26.2459 122.021 24.5863 121.099 22.9267 121.697 20.834 123.356 19.912L164.606-3.00457 164.606 3.00526 123.356-19.9115C121.697-20.8335 121.099-22.9262 122.021-24.5858 122.943-26.2454 125.035-26.8433 126.695-25.9213Z" fill="#2D2D2D" transform="matrix(-1 0 0 1 2049.86 1344.5)"/><g filter="url(#fx6)" transform="translate(2722 1005)"><g><rect x="20" y="19.75" width="578" height="247" fill="#D9D9D9"/></g></g><g clip-path="url(#clip14)" filter="url(#fx7)" transform="translate(2866 1070)"><g><path d="M5.03125 0 5.03125-42.0625 21.5312-42.0625C24.3021-42.0625 26.8281-41.5729 29.1094-40.5937 31.3906-39.6146 33.2083-38.125 34.5625-36.125 35.9167-34.125 36.5937-31.5729 36.5937-28.4687 36.5937-25.4062 35.9167-22.875 34.5625-20.875 33.2083-18.875 31.3906-17.3906 29.1094-16.4219 26.8281-15.4531 24.3021-14.9687 21.5312-14.9687L13.8125-14.9687 13.8125 0ZM13.8125-22.0312 20.7187-22.0312C22.7604-22.0312 24.4115-22.5729 25.6719-23.6562 26.9323-24.7396 27.5625-26.3437 27.5625-28.4687 27.5625-30.6771 26.9167-32.3125 25.625-33.375 24.3333-34.4375 22.6979-34.9687 20.7187-34.9687L13.8125-34.9687ZM42.7771 0 42.7771-30.5 50.7146-30.5 50.8708-25.2187C51.6625-27.0521 52.85-28.4583 54.4333-29.4375 56.0167-30.4167 57.9333-30.9062 60.1833-30.9062L60.8083-30.9062 60.8083-23.9375 60.0271-23.9375C58.7979-23.9375 57.6208-23.8281 56.4958-23.6094 55.3708-23.3906 54.35-23.0156 53.4333-22.4844 52.5167-21.9531 51.725-21.2187 51.0583-20.2812L51.0583 0ZM79.4 0.5C76.3167 0.5 73.6135-0.114583 71.2906-1.34375 68.9677-2.57292 67.1708-4.35417 65.9-6.6875 64.6292-9.02083 63.9937-11.8437 63.9937-15.1562 63.9937-18.5312 64.6292-21.401 65.9-23.7656 67.1708-26.1302 68.9677-27.9323 71.2906-29.1719 73.6135-30.4115 76.3167-31.0312 79.4-31.0312 82.525-31.0312 85.2489-30.4115 87.5719-29.1719 89.8948-27.9323 91.7021-26.1302 92.9937-23.7656 94.2854-21.401 94.9312-18.5312 94.9312-15.1562 94.9312-11.8437 94.2854-9.02083 92.9937-6.6875 91.7021-4.35417 89.8948-2.57292 87.5719-1.34375 85.2489-0.114583 82.525 0.5 79.4 0.5ZM79.4-5.8125C81.2125-5.8125 82.6344-6.23437 83.6656-7.07812 84.6969-7.92187 85.426-9.05208 85.8531-10.4687 86.2802-11.8854 86.4937-13.4479 86.4937-15.1562 86.4937-16.9062 86.2802-18.5 85.8531-19.9375 85.426-21.375 84.6969-22.5208 83.6656-23.375 82.6344-24.2292 81.2125-24.6562 79.4-24.6562 77.6292-24.6562 76.2385-24.2292 75.2281-23.375 74.2177-22.5208 73.5042-21.375 73.0875-19.9375 72.6708-18.5 72.4625-16.9062 72.4625-15.1562 72.4625-13.4479 72.6708-11.8854 73.0875-10.4687 73.5042-9.05208 74.2177-7.92187 75.2281-7.07812 76.2385-6.23437 77.6292-5.8125 79.4-5.8125ZM115.254 0C112.171 0 109.78-0.369792 108.082-1.10937 106.384-1.84896 105.202-2.99479 104.535-4.54687 103.869-6.09896 103.535-8.125 103.535-10.625L103.535-24.125 98.4729-24.125 98.4729-30.5 103.535-30.5 103.535-37.6875 111.817-37.6875 111.817-30.5 118.473-30.5 118.473-24.125 111.817-24.125 111.817-11.125C111.817-9.52083 112.041-8.33333 112.489-7.5625 112.936-6.79167 113.952-6.40625 115.535-6.40625L118.473-6.40625 118.473 0ZM138.85 0.5625C135.454 0.5625 132.6-0.0677084 130.287-1.32812 127.975-2.58854 126.225-4.40625 125.037-6.78125 123.85-9.15625 123.256-12.0104 123.256-15.3437 123.256-18.5729 123.834-21.3542 124.991-23.6875 126.147-26.0208 127.845-27.8177 130.084-29.0781 132.324-30.3385 135.079-30.9687 138.35-30.9687 142.892-30.9687 146.48-29.6406 149.116-26.9844 151.751-24.3281 153.069-20.5417 153.069-15.625 153.069-15.375 153.058-15.0365 153.037-14.6094 153.017-14.1823 152.985-13.8542 152.944-13.625L131.537-13.625C131.579-12.1875 131.845-10.8437 132.334-9.59375 132.824-8.34375 133.6-7.33854 134.662-6.57812 135.725-5.81771 137.121-5.4375 138.85-5.4375 140.642-5.4375 142.079-5.82812 143.162-6.60937 144.246-7.39062 144.798-8.55208 144.819-10.0937L152.975-10.0937C152.871-7.71875 152.22-5.73958 151.022-4.15625 149.824-2.57292 148.189-1.39062 146.116-0.609375 144.043 0.171875 141.621 0.5625 138.85 0.5625ZM131.631-18.875 144.85-18.875C144.787-21 144.157-22.5885 142.959-23.6406 141.761-24.6927 140.225-25.2187 138.35-25.2187 136.433-25.2187 134.866-24.6771 133.647-23.5937 132.428-22.5104 131.756-20.9375 131.631-18.875ZM174.027 0.4375C171.194 0.4375 168.621-0.104167 166.308-1.1875 163.996-2.27083 162.162-3.95833 160.808-6.25 159.454-8.54167 158.777-11.5 158.777-15.125 158.777-18.75 159.423-21.7292 160.715-24.0625 162.006-26.3958 163.803-28.1302 166.105-29.2656 168.407-30.401 171.048-30.9687 174.027-30.9687 176.61-30.9687 178.944-30.5417 181.027-29.6875 183.11-28.8333 184.767-27.5573 185.996-25.8594 187.225-24.1615 187.85-22.0208 187.871-19.4375L179.84-19.4375C179.798-21 179.277-22.2448 178.277-23.1719 177.277-24.099 175.871-24.5625 174.058-24.5625 171.662-24.5625 169.928-23.7396 168.855-22.0937 167.782-20.4479 167.246-18.125 167.246-15.125 167.246-13.1875 167.48-11.5365 167.949-10.1719 168.418-8.80729 169.157-7.76562 170.168-7.04687 171.178-6.32812 172.475-5.96875 174.058-5.96875 175.912-5.96875 177.376-6.47396 178.449-7.48437 179.522-8.49479 180.079-9.92708 180.121-11.7812L188.152-11.7812C188.09-9.13542 187.449-6.90625 186.23-5.09375 185.011-3.28125 183.35-1.90625 181.246-0.96875 179.142-0.03125 176.735 0.4375 174.027 0.4375ZM208.319 0C205.235 0 202.845-0.369792 201.147-1.10937 199.449-1.84896 198.267-2.99479 197.6-4.54687 196.933-6.09896 196.6-8.125 196.6-10.625L196.6-24.125 191.537-24.125 191.537-30.5 196.6-30.5 196.6-37.6875 204.881-37.6875 204.881-30.5 211.537-30.5 211.537-24.125 204.881-24.125 204.881-11.125C204.881-9.52083 205.105-8.33333 205.553-7.5625 206.001-6.79167 207.017-6.40625 208.6-6.40625L211.537-6.40625 211.537 0Z" transform="matrix(1 0 0 1 58.2056 99)"/></g></g><rect x="2742" y="1011" width="578" height="247" fill="#D9D9D9"/><text font-family="Aptos,Aptos_MSFontService,sans-serif" font-weight="700" font-size="64" transform="matrix(1 0 0 1 2924.21 1155)">Protect</text><g filter="url(#fx8)" transform="translate(323 1405)"><g><rect x="20.0001" y="19.7501" width="3066" height="165" fill="#F2F2F2"/></g></g><g clip-path="url(#clip15)" filter="url(#fx9)" transform="translate(1643 1429)"><g><path d="M23.4375 0.5625C19.0833 0.5625 15.4167-0.354167 12.4375-2.1875 9.45833-4.02083 7.20312-6.55208 5.67187-9.78125 4.14062-13.0104 3.375-16.75 3.375-21 3.375-25.25 4.14062-29 5.67187-32.25 7.20312-35.5 9.45833-38.0417 12.4375-39.875 15.4167-41.7083 19.0833-42.625 23.4375-42.625 26.3125-42.625 29.026-42.125 31.5781-41.125 34.1302-40.125 36.2552-38.599 37.9531-36.5469 39.651-34.4948 40.6458-31.9062 40.9375-28.7812L35.2812-28.7812C35.0312-30.8854 34.3281-32.6198 33.1719-33.9844 32.0156-35.349 30.5885-36.3646 28.8906-37.0312 27.1927-37.6979 25.375-38.0312 23.4375-38.0312 20.0625-38.0312 17.3281-37.2604 15.2344-35.7187 13.1406-34.1771 11.6146-32.125 10.6562-29.5625 9.69792-27 9.21875-24.1458 9.21875-21 9.21875-17.875 9.69792-15.0312 10.6562-12.4687 11.6146-9.90625 13.1406-7.86979 15.2344-6.35937 17.3281-4.84896 20.0625-4.09375 23.4375-4.09375 26.8542-4.09375 29.625-4.9375 31.75-6.625 33.875-8.3125 35.1042-10.8333 35.4375-14.1875L41.125-14.1875C40.7917-10.875 39.8229-8.13021 38.2187-5.95312 36.6146-3.77604 34.5417-2.14583 32-1.0625 29.4583 0.0208333 26.6042 0.5625 23.4375 0.5625ZM44.5708 0 60.3208-42.0625 66.2583-42.0625 81.7896 0 75.9771 0 71.9771-11.7812 54.5396-11.7812 50.3521 0ZM56.0708-16.5 70.3833-16.5 63.2583-36.4687ZM87.6333 0 87.6333-42.0625 113.821-42.0625 113.821-37.375 93.2583-37.375 93.2583-23.9375 111.883-23.9375 111.883-19.3437 93.2583-19.3437 93.2583 0ZM134.612 0 134.612-42.0625 140.769-42.0625 155.737-17.2812 153.456-17.2812 168.144-42.0625 174.144-42.0625 174.144 0 168.612 0 168.612-37.375 170.55-37.375 156.269-13.2187 152.581-13.2187 138.081-37.375 140.019-37.375 140.019 0ZM192.404 0.5625C190.654 0.5625 189.055 0.229167 187.607-0.4375 186.159-1.10417 185.003-2.08854 184.139-3.39062 183.274-4.69271 182.842-6.30208 182.842-8.21875 182.842-10.9479 183.696-13.0208 185.404-14.4375 187.112-15.8542 189.529-16.8177 192.654-17.3281 195.779-17.8385 199.435-18.1146 203.623-18.1562L203.623-20.2812C203.623-22.8854 202.977-24.6719 201.685-25.6406 200.394-26.6094 198.758-27.0937 196.779-27.0937 194.675-27.0937 192.904-26.5625 191.467-25.5 190.029-24.4375 189.31-22.7604 189.31-20.4687L184.248-20.4687C184.248-22.9687 184.784-24.9896 185.857-26.5312 186.93-28.0729 188.409-29.1979 190.295-29.9062 192.18-30.6146 194.342-30.9687 196.779-30.9687 198.342-30.9687 199.836-30.8229 201.264-30.5312 202.691-30.2396 203.972-29.7083 205.107-28.9375 206.243-28.1667 207.144-27.0885 207.81-25.7031 208.477-24.3177 208.81-22.5312 208.81-20.3437L208.81 0 203.935 0 203.717-4.625C202.321-3.0625 200.701-1.80729 198.857-0.859375 197.014 0.0885416 194.862 0.5625 192.404 0.5625ZM193.779-3.4375C195.862-3.4375 197.737-3.92708 199.404-4.90625 201.071-5.88542 202.467-7.125 203.592-8.625L203.592-14.8125C198.05-14.75 194.076-14.2292 191.67-13.25 189.264-12.2708 188.06-10.6667 188.06-8.4375 188.06-6.91667 188.545-5.70312 189.514-4.79687 190.482-3.89062 191.904-3.4375 193.779-3.4375ZM218.935 0 218.935-30.4375 223.935-30.4375 224.123-25.75C225.06-26.9792 226.404-28.1406 228.154-29.2344 229.904-30.3281 232.144-30.875 234.873-30.875 238.206-30.875 240.633-29.8906 242.154-27.9219 243.675-25.9531 244.435-23.1875 244.435-19.625L244.435 0 239.217 0 239.217-18.875C239.217-20.3542 239.06-21.6667 238.748-22.8125 238.435-23.9583 237.878-24.8594 237.076-25.5156 236.274-26.1719 235.112-26.5 233.592-26.5 231.321-26.5 229.415-25.9844 227.873-24.9531 226.331-23.9219 225.092-22.7917 224.154-21.5625L224.154 0ZM262.3 0.5625C260.55 0.5625 258.951 0.229167 257.503-0.4375 256.055-1.10417 254.899-2.08854 254.034-3.39062 253.17-4.69271 252.737-6.30208 252.737-8.21875 252.737-10.9479 253.592-13.0208 255.3-14.4375 257.008-15.8542 259.425-16.8177 262.55-17.3281 265.675-17.8385 269.331-18.1146 273.519-18.1562L273.519-20.2812C273.519-22.8854 272.873-24.6719 271.581-25.6406 270.29-26.6094 268.654-27.0937 266.675-27.0937 264.571-27.0937 262.8-26.5625 261.362-25.5 259.925-24.4375 259.206-22.7604 259.206-20.4687L254.144-20.4687C254.144-22.9687 254.68-24.9896 255.753-26.5312 256.826-28.0729 258.305-29.1979 260.191-29.9062 262.076-30.6146 264.237-30.9687 266.675-30.9687 268.237-30.9687 269.732-30.8229 271.159-30.5312 272.586-30.2396 273.868-29.7083 275.003-28.9375 276.138-28.1667 277.04-27.0885 277.706-25.7031 278.373-24.3177 278.706-22.5312 278.706-20.3437L278.706 0 273.831 0 273.612-4.625C272.217-3.0625 270.597-1.80729 268.753-0.859375 266.909 0.0885416 264.758 0.5625 262.3 0.5625ZM263.675-3.4375C265.758-3.4375 267.633-3.92708 269.3-4.90625 270.967-5.88542 272.362-7.125 273.487-8.625L273.487-14.8125C267.946-14.75 263.972-14.2292 261.566-13.25 259.159-12.2708 257.956-10.6667 257.956-8.4375 257.956-6.91667 258.441-5.70312 259.409-4.79687 260.378-3.89062 261.8-3.4375 263.675-3.4375ZM299.425 11.7812C296.133 11.7812 293.503 11.4062 291.534 10.6562 289.566 9.90625 288.144 8.90625 287.269 7.65625 286.394 6.40625 285.956 5.05208 285.956 3.59375 285.956 1.82292 286.711 0.25 288.222-1.125 289.732-2.5 292.06-3.46875 295.206-4.03125L296.206-5.75 300.05-5.75C305.05-5.75 308.623-5.08854 310.769-3.76562 312.915-2.44271 313.987-0.395833 313.987 2.375 313.987 5.125 312.763 7.38021 310.316 9.14062 307.868 10.901 304.237 11.7812 299.425 11.7812ZM299.3 8C302.842 8 305.336 7.5 306.784 6.5 308.232 5.5 308.956 4.26042 308.956 2.78125 308.956 1.90625 308.711 1.15104 308.222 0.515625 307.732-0.119792 306.826-0.614583 305.503-0.96875 304.18-1.32292 302.3-1.5 299.862-1.5L295.237-1.5C293.821-1.14583 292.727-0.541667 291.956 0.3125 291.185 1.16667 290.8 2.15625 290.8 3.28125 290.8 4.53125 291.456 5.63021 292.769 6.57812 294.081 7.52604 296.258 8 299.3 8ZM295.144-1.78125C293.165-1.98958 291.607-2.40104 290.472-3.01562 289.336-3.63021 288.529-4.31771 288.05-5.07812 287.571-5.83854 287.331-6.57292 287.331-7.28125 287.331-8.30208 287.743-9.26562 288.566-10.1719 289.388-11.0781 290.737-11.8229 292.612-12.4062L295.206-10.7812C294.102-10.4687 293.227-10.0677 292.581-9.57812 291.935-9.08854 291.612-8.54167 291.612-7.9375 291.612-7.52083 291.805-7.15104 292.191-6.82812 292.576-6.50521 293.232-6.24479 294.159-6.04687 295.086-5.84896 296.373-5.75 298.019-5.75ZM299.05-9.84375C296.55-9.84375 294.43-10.3281 292.691-11.2969 290.951-12.2656 289.633-13.5365 288.737-15.1094 287.842-16.6823 287.394-18.3854 287.394-20.2187 287.394-22.1562 287.847-23.9167 288.753-25.5 289.659-27.0833 290.993-28.3437 292.753-29.2812 294.513-30.2187 296.665-30.6875 299.206-30.6875 301.81-30.6875 303.977-30.2187 305.706-29.2812 307.435-28.3437 308.727-27.0833 309.581-25.5 310.435-23.9167 310.862-22.1562 310.862-20.2187 310.862-18.3437 310.43-16.6198 309.566-15.0469 308.701-13.474 307.394-12.2135 305.644-11.2656 303.894-10.3177 301.696-9.84375 299.05-9.84375ZM299.019-13.4062C301.019-13.4062 302.67-13.9792 303.972-15.125 305.274-16.2708 305.925-17.9687 305.925-20.2187 305.925-22.5729 305.31-24.3177 304.081-25.4531 302.852-26.5885 301.227-27.1562 299.206-27.1562 297.227-27.1562 295.586-26.5729 294.284-25.4062 292.982-24.2396 292.331-22.5208 292.331-20.25 292.331-17.9583 293.003-16.2448 294.347-15.1094 295.691-13.974 297.248-13.4062 299.019-13.4062ZM306.987-27.3437 304.862-29.3125C305.758-31.2708 306.93-32.6042 308.378-33.3125 309.826-34.0208 311.696-34.4062 313.987-34.4687L313.987-30.0625C312.529-30.0625 311.191-29.9115 309.972-29.6094 308.753-29.3073 307.758-28.5521 306.987-27.3437ZM331.944 0.5625C328.631 0.5625 325.918-0.130208 323.803-1.51562 321.688-2.90104 320.121-4.78646 319.1-7.17187 318.079-9.55729 317.569-12.2396 317.569-15.2187 317.569-18.3229 318.063-21.0573 319.053-23.4219 320.043-25.7865 321.553-27.6354 323.584-28.9687 325.616-30.3021 328.194-30.9687 331.319-30.9687 335.465-30.9687 338.715-29.7187 341.069-27.2187 343.423-24.7187 344.6-21.125 344.6-16.4375 344.6-16.125 344.59-15.7552 344.569-15.3281 344.548-14.901 344.517-14.5937 344.475-14.4062L322.787-14.4062C322.808-12.4271 323.126-10.6094 323.741-8.95312 324.355-7.29687 325.329-5.96875 326.662-4.96875 327.996-3.96875 329.756-3.46875 331.944-3.46875 334.277-3.46875 336.1-4.01562 337.412-5.10937 338.725-6.20312 339.412-7.78125 339.475-9.84375L344.631-9.84375C344.569-7.69792 344.017-5.84896 342.975-4.29687 341.933-2.74479 340.475-1.54687 338.6-0.703125 336.725 0.140625 334.506 0.5625 331.944 0.5625ZM322.819-18.2187 339.444-18.2187C339.381-21.0521 338.642-23.2187 337.225-24.7187 335.808-26.2187 333.84-26.9687 331.319-26.9687 328.777-26.9687 326.782-26.224 325.334-24.7344 323.886-23.2448 323.048-21.0729 322.819-18.2187Z" transform="matrix(1 0 0 1 58.7725 98)"/></g></g><rect x="343" y="1411" width="3066" height="165" fill="#F2F2F2"/><text font-family="Aptos,Aptos_MSFontService,sans-serif" font-weight="400" font-size="64" transform="matrix(1 0 0 1 1701.77 1514)">CAF Manage</text></g></svg>