<svg width="2472" height="1851" xmlns="http://www.w3.org/2000/svg" xmlns:xlink="http://www.w3.org/1999/xlink" xml:space="preserve" overflow="hidden" style="background-color:white"><defs><clipPath id="clip0"><rect x="221" y="1072" width="105" height="101"/></clipPath><clipPath id="clip1"><rect x="221" y="1072" width="105" height="101"/></clipPath><clipPath id="clip2"><rect x="221" y="1072" width="105" height="101"/></clipPath><linearGradient x1="66.2333" y1="45.4233" x2="75.3571" y2="54.5217" gradientUnits="userSpaceOnUse" spreadMethod="pad" id="fill3"><stop offset="0" stop-color="#86D633"/><stop offset="1" stop-color="#5E9624"/></linearGradient><linearGradient x1="34.3333" y1="47.7222" x2="43.3889" y2="56.8333" gradientUnits="userSpaceOnUse" spreadMethod="pad" id="fill4"><stop offset="0" stop-color="#86D633"/><stop offset="1" stop-color="#5E9624"/></linearGradient><linearGradient x1="13.7778" y1="47.7222" x2="22.8333" y2="56.8333" gradientUnits="userSpaceOnUse" spreadMethod="pad" id="fill5"><stop offset="0" stop-color="#86D633"/><stop offset="1" stop-color="#5E9624"/></linearGradient><clipPath id="clip6"><rect x="873" y="1670" width="34" height="37"/></clipPath><clipPath id="clip7"><rect x="873" y="1670" width="34" height="37"/></clipPath><clipPath id="clip8"><rect x="873" y="1670" width="34" height="37"/></clipPath><linearGradient x1="21.857" y1="14.9897" x2="24.8678" y2="17.9922" gradientUnits="userSpaceOnUse" spreadMethod="pad" id="fill9"><stop offset="0" stop-color="#86D633"/><stop offset="1" stop-color="#5E9624"/></linearGradient><linearGradient x1="11.33" y1="15.7483" x2="14.3183" y2="18.755" gradientUnits="userSpaceOnUse" spreadMethod="pad" id="fill10"><stop offset="0" stop-color="#86D633"/><stop offset="1" stop-color="#5E9624"/></linearGradient><linearGradient x1="4.54667" y1="15.7483" x2="7.535" y2="18.755" gradientUnits="userSpaceOnUse" spreadMethod="pad" id="fill11"><stop offset="0" stop-color="#86D633"/><stop offset="1" stop-color="#5E9624"/></linearGradient><clipPath id="clip12"><rect x="566" y="1670" width="34" height="37"/></clipPath><clipPath id="clip13"><rect x="566" y="1670" width="34" height="37"/></clipPath><clipPath id="clip14"><rect x="566" y="1670" width="34" height="37"/></clipPath><linearGradient x1="21.857" y1="14.9897" x2="24.8678" y2="17.9922" gradientUnits="userSpaceOnUse" spreadMethod="pad" id="fill15"><stop offset="0" stop-color="#86D633"/><stop offset="1" stop-color="#5E9624"/></linearGradient><linearGradient x1="11.33" y1="15.7483" x2="14.3183" y2="18.755" gradientUnits="userSpaceOnUse" spreadMethod="pad" id="fill16"><stop offset="0" stop-color="#86D633"/><stop offset="1" stop-color="#5E9624"/></linearGradient><linearGradient x1="4.54667" y1="15.7483" x2="7.535" y2="18.755" gradientUnits="userSpaceOnUse" spreadMethod="pad" id="fill17"><stop offset="0" stop-color="#86D633"/><stop offset="1" stop-color="#5E9624"/></linearGradient><clipPath id="clip18"><rect x="872" y="1387" width="35" height="36"/></clipPath><clipPath id="clip19"><rect x="872" y="1387" width="35" height="36"/></clipPath><clipPath id="clip20"><rect x="872" y="1387" width="35" height="36"/></clipPath><linearGradient x1="22.5193" y1="15.4439" x2="25.6214" y2="18.5374" gradientUnits="userSpaceOnUse" spreadMethod="pad" id="fill21"><stop offset="0" stop-color="#86D633"/><stop offset="1" stop-color="#5E9624"/></linearGradient><linearGradient x1="11.6733" y1="16.2256" x2="14.7522" y2="19.3234" gradientUnits="userSpaceOnUse" spreadMethod="pad" id="fill22"><stop offset="0" stop-color="#86D633"/><stop offset="1" stop-color="#5E9624"/></linearGradient><linearGradient x1="4.68445" y1="16.2256" x2="7.76334" y2="19.3234" gradientUnits="userSpaceOnUse" spreadMethod="pad" id="fill23"><stop offset="0" stop-color="#86D633"/><stop offset="1" stop-color="#5E9624"/></linearGradient><linearGradient x1="472.5" y1="1621.33" x2="472.5" y2="1519.96" gradientUnits="userSpaceOnUse" spreadMethod="pad" id="fill24"><stop offset="0" stop-color="#0078D4"/><stop offset="0.82" stop-color="#5EA0EF"/><stop offset="1" stop-color="#5EA0EF"/></linearGradient><clipPath id="clip25"><rect x="706" y="1522" width="149" height="149"/></clipPath><clipPath id="clip26"><rect x="706" y="1522" width="149" height="149"/></clipPath><clipPath id="clip27"><rect x="706" y="1522" width="149" height="149"/></clipPath><linearGradient x1="779.507" y1="1623.07" x2="779.507" y2="1523.74" gradientUnits="userSpaceOnUse" spreadMethod="pad" id="fill28"><stop offset="0" stop-color="#0078D4"/><stop offset="0.82" stop-color="#5EA0EF"/><stop offset="1" stop-color="#5EA0EF"/></linearGradient><linearGradient x1="779.507" y1="1661.4" x2="779.507" y2="1623.07" gradientUnits="userSpaceOnUse" spreadMethod="pad" id="fill29"><stop offset="0" stop-color="#CCCCCC"/><stop offset="0.15" stop-color="#CCCCCC"/><stop offset="1" stop-color="#707070"/></linearGradient><linearGradient x1="71.1062" y1="-64.484" x2="75.4934" y2="165.97" gradientUnits="userSpaceOnUse" spreadMethod="pad" id="fill30"><stop offset="0" stop-color="#32D4F5"/><stop offset="0.22" stop-color="#32D4F5"/><stop offset="0.47" stop-color="#31D1F3"/><stop offset="0.63" stop-color="#2EC9EB"/><stop offset="0.77" stop-color="#29BADE"/><stop offset="0.89" stop-color="#22A5CB"/><stop offset="1" stop-color="#198AB3"/><stop offset="1" stop-color="#198AB3"/></linearGradient><clipPath id="clip31"><rect x="1823" y="543" width="106" height="100"/></clipPath><clipPath id="clip32"><rect x="1823" y="543" width="106" height="100"/></clipPath><clipPath id="clip33"><rect x="1823" y="543" width="106" height="100"/></clipPath><linearGradient x1="65.5709" y1="44.9691" x2="74.6035" y2="53.9765" gradientUnits="userSpaceOnUse" spreadMethod="pad" id="fill34"><stop offset="0" stop-color="#86D633"/><stop offset="1" stop-color="#5E9624"/></linearGradient><linearGradient x1="33.99" y1="47.245" x2="42.955" y2="56.265" gradientUnits="userSpaceOnUse" spreadMethod="pad" id="fill35"><stop offset="0" stop-color="#86D633"/><stop offset="1" stop-color="#5E9624"/></linearGradient><linearGradient x1="13.64" y1="47.245" x2="22.605" y2="56.265" gradientUnits="userSpaceOnUse" spreadMethod="pad" id="fill36"><stop offset="0" stop-color="#86D633"/><stop offset="1" stop-color="#5E9624"/></linearGradient><linearGradient x1="2044.25" y1="1044.97" x2="2044.25" y2="970.307" gradientUnits="userSpaceOnUse" spreadMethod="pad" id="fill37"><stop offset="0" stop-color="#0078D4"/><stop offset="0.82" stop-color="#5EA0EF"/><stop offset="1" stop-color="#5EA0EF"/></linearGradient><linearGradient x1="2044.25" y1="1073.78" x2="2044.25" y2="1044.97" gradientUnits="userSpaceOnUse" spreadMethod="pad" id="fill38"><stop offset="0" stop-color="#CCCCCC"/><stop offset="0.15" stop-color="#CCCCCC"/><stop offset="1" stop-color="#707070"/></linearGradient><clipPath id="clip39"><rect x="2376" y="1072" width="33" height="36"/></clipPath><clipPath id="clip40"><rect x="2376" y="1072" width="33" height="36"/></clipPath><clipPath id="clip41"><rect x="2376" y="1072" width="33" height="36"/></clipPath><linearGradient x1="21.857" y1="14.9897" x2="24.8678" y2="17.9922" gradientUnits="userSpaceOnUse" spreadMethod="pad" id="fill42"><stop offset="0" stop-color="#86D633"/><stop offset="1" stop-color="#5E9624"/></linearGradient><linearGradient x1="11.33" y1="15.7483" x2="14.3183" y2="18.755" gradientUnits="userSpaceOnUse" spreadMethod="pad" id="fill43"><stop offset="0" stop-color="#86D633"/><stop offset="1" stop-color="#5E9624"/></linearGradient><linearGradient x1="4.54667" y1="15.7483" x2="7.535" y2="18.755" gradientUnits="userSpaceOnUse" spreadMethod="pad" id="fill44"><stop offset="0" stop-color="#86D633"/><stop offset="1" stop-color="#5E9624"/></linearGradient><linearGradient x1="55.2534" y1="75.9734" x2="55.2534" y2="1.30667" gradientUnits="userSpaceOnUse" spreadMethod="pad" id="fill45"><stop offset="0" stop-color="#0078D4"/><stop offset="0.82" stop-color="#5EA0EF"/><stop offset="1" stop-color="#5EA0EF"/></linearGradient><linearGradient x1="55.2534" y1="104.782" x2="55.2534" y2="75.9734" gradientUnits="userSpaceOnUse" spreadMethod="pad" id="fill46"><stop offset="0" stop-color="#CCCCCC"/><stop offset="0.15" stop-color="#CCCCCC"/><stop offset="1" stop-color="#707070"/></linearGradient><clipPath id="clip47"><rect x="2376" y="816" width="33" height="36"/></clipPath><clipPath id="clip48"><rect x="2376" y="816" width="33" height="36"/></clipPath><clipPath id="clip49"><rect x="2376" y="816" width="33" height="36"/></clipPath><linearGradient x1="21.857" y1="14.9897" x2="24.8678" y2="17.9922" gradientUnits="userSpaceOnUse" spreadMethod="pad" id="fill50"><stop offset="0" stop-color="#86D633"/><stop offset="1" stop-color="#5E9624"/></linearGradient><linearGradient x1="11.33" y1="15.7483" x2="14.3183" y2="18.755" gradientUnits="userSpaceOnUse" spreadMethod="pad" id="fill51"><stop offset="0" stop-color="#86D633"/><stop offset="1" stop-color="#5E9624"/></linearGradient><linearGradient x1="4.54667" y1="15.7483" x2="7.535" y2="18.755" gradientUnits="userSpaceOnUse" spreadMethod="pad" id="fill52"><stop offset="0" stop-color="#86D633"/><stop offset="1" stop-color="#5E9624"/></linearGradient><linearGradient x1="55.2534" y1="75.9734" x2="55.2534" y2="1.30667" gradientUnits="userSpaceOnUse" spreadMethod="pad" id="fill53"><stop offset="0" stop-color="#0078D4"/><stop offset="0.82" stop-color="#5EA0EF"/><stop offset="1" stop-color="#5EA0EF"/></linearGradient><linearGradient x1="55.2534" y1="104.782" x2="55.2534" y2="75.9734" gradientUnits="userSpaceOnUse" spreadMethod="pad" id="fill54"><stop offset="0" stop-color="#CCCCCC"/><stop offset="0.15" stop-color="#CCCCCC"/><stop offset="1" stop-color="#707070"/></linearGradient><linearGradient x1="2221.25" y1="782.974" x2="2221.25" y2="708.307" gradientUnits="userSpaceOnUse" spreadMethod="pad" id="fill55"><stop offset="0" stop-color="#0078D4"/><stop offset="0.82" stop-color="#5EA0EF"/><stop offset="1" stop-color="#5EA0EF"/></linearGradient><linearGradient x1="2221.25" y1="811.782" x2="2221.25" y2="782.974" gradientUnits="userSpaceOnUse" spreadMethod="pad" id="fill56"><stop offset="0" stop-color="#CCCCCC"/><stop offset="0.15" stop-color="#CCCCCC"/><stop offset="1" stop-color="#707070"/></linearGradient><clipPath id="clip57"><rect x="1823" y="1501" width="106" height="100"/></clipPath><clipPath id="clip58"><rect x="1823" y="1501" width="106" height="100"/></clipPath><clipPath id="clip59"><rect x="1823" y="1501" width="106" height="100"/></clipPath><linearGradient x1="65.5709" y1="44.9691" x2="74.6035" y2="53.9765" gradientUnits="userSpaceOnUse" spreadMethod="pad" id="fill60"><stop offset="0" stop-color="#86D633"/><stop offset="1" stop-color="#5E9624"/></linearGradient><linearGradient x1="33.99" y1="47.245" x2="42.955" y2="56.265" gradientUnits="userSpaceOnUse" spreadMethod="pad" id="fill61"><stop offset="0" stop-color="#86D633"/><stop offset="1" stop-color="#5E9624"/></linearGradient><linearGradient x1="13.64" y1="47.245" x2="22.605" y2="56.265" gradientUnits="userSpaceOnUse" spreadMethod="pad" id="fill62"><stop offset="0" stop-color="#86D633"/><stop offset="1" stop-color="#5E9624"/></linearGradient><linearGradient x1="2044.25" y1="2002.97" x2="2044.25" y2="1928.31" gradientUnits="userSpaceOnUse" spreadMethod="pad" id="fill63"><stop offset="0" stop-color="#0078D4"/><stop offset="0.82" stop-color="#5EA0EF"/><stop offset="1" stop-color="#5EA0EF"/></linearGradient><linearGradient x1="2044.25" y1="2031.78" x2="2044.25" y2="2002.97" gradientUnits="userSpaceOnUse" spreadMethod="pad" id="fill64"><stop offset="0" stop-color="#CCCCCC"/><stop offset="0.15" stop-color="#CCCCCC"/><stop offset="1" stop-color="#707070"/></linearGradient><clipPath id="clip65"><rect x="2376" y="2030" width="33" height="36"/></clipPath><clipPath id="clip66"><rect x="2376" y="2030" width="33" height="36"/></clipPath><clipPath id="clip67"><rect x="2376" y="2030" width="33" height="36"/></clipPath><linearGradient x1="21.857" y1="14.9897" x2="24.8678" y2="17.9922" gradientUnits="userSpaceOnUse" spreadMethod="pad" id="fill68"><stop offset="0" stop-color="#86D633"/><stop offset="1" stop-color="#5E9624"/></linearGradient><linearGradient x1="11.33" y1="15.7483" x2="14.3183" y2="18.755" gradientUnits="userSpaceOnUse" spreadMethod="pad" id="fill69"><stop offset="0" stop-color="#86D633"/><stop offset="1" stop-color="#5E9624"/></linearGradient><linearGradient x1="4.54667" y1="15.7483" x2="7.535" y2="18.755" gradientUnits="userSpaceOnUse" spreadMethod="pad" id="fill70"><stop offset="0" stop-color="#86D633"/><stop offset="1" stop-color="#5E9624"/></linearGradient><linearGradient x1="55.2534" y1="75.9734" x2="55.2534" y2="1.30667" gradientUnits="userSpaceOnUse" spreadMethod="pad" id="fill71"><stop offset="0" stop-color="#0078D4"/><stop offset="0.82" stop-color="#5EA0EF"/><stop offset="1" stop-color="#5EA0EF"/></linearGradient><linearGradient x1="55.2534" y1="104.782" x2="55.2534" y2="75.9734" gradientUnits="userSpaceOnUse" spreadMethod="pad" id="fill72"><stop offset="0" stop-color="#CCCCCC"/><stop offset="0.15" stop-color="#CCCCCC"/><stop offset="1" stop-color="#707070"/></linearGradient><clipPath id="clip73"><rect x="2376" y="1774" width="33" height="36"/></clipPath><clipPath id="clip74"><rect x="2376" y="1774" width="33" height="36"/></clipPath><clipPath id="clip75"><rect x="2376" y="1774" width="33" height="36"/></clipPath><linearGradient x1="21.857" y1="14.9897" x2="24.8678" y2="17.9922" gradientUnits="userSpaceOnUse" spreadMethod="pad" id="fill76"><stop offset="0" stop-color="#86D633"/><stop offset="1" stop-color="#5E9624"/></linearGradient><linearGradient x1="11.33" y1="15.7483" x2="14.3183" y2="18.755" gradientUnits="userSpaceOnUse" spreadMethod="pad" id="fill77"><stop offset="0" stop-color="#86D633"/><stop offset="1" stop-color="#5E9624"/></linearGradient><linearGradient x1="4.54667" y1="15.7483" x2="7.535" y2="18.755" gradientUnits="userSpaceOnUse" spreadMethod="pad" id="fill78"><stop offset="0" stop-color="#86D633"/><stop offset="1" stop-color="#5E9624"/></linearGradient><linearGradient x1="55.2532" y1="75.9731" x2="55.2532" y2="1.30666" gradientUnits="userSpaceOnUse" spreadMethod="pad" id="fill79"><stop offset="0" stop-color="#0078D4"/><stop offset="0.82" stop-color="#5EA0EF"/><stop offset="1" stop-color="#5EA0EF"/></linearGradient><linearGradient x1="55.2532" y1="104.782" x2="55.2532" y2="75.9731" gradientUnits="userSpaceOnUse" spreadMethod="pad" id="fill80"><stop offset="0" stop-color="#CCCCCC"/><stop offset="0.15" stop-color="#CCCCCC"/><stop offset="1" stop-color="#707070"/></linearGradient><linearGradient x1="55.2532" y1="75.9731" x2="55.2532" y2="1.30666" gradientUnits="userSpaceOnUse" spreadMethod="pad" id="fill81"><stop offset="0" stop-color="#0078D4"/><stop offset="0.82" stop-color="#5EA0EF"/><stop offset="1" stop-color="#5EA0EF"/></linearGradient><linearGradient x1="55.2532" y1="104.782" x2="55.2532" y2="75.9731" gradientUnits="userSpaceOnUse" spreadMethod="pad" id="fill82"><stop offset="0" stop-color="#CCCCCC"/><stop offset="0.15" stop-color="#CCCCCC"/><stop offset="1" stop-color="#707070"/></linearGradient></defs><g transform="translate(-213 -414)"><path d="M264.5 1226.84C264.5 1168.66 311.66 1121.5 369.835 1121.5L857.165 1121.5C915.34 1121.5 962.5 1168.66 962.5 1226.84L962.5 1648.16C962.5 1706.34 915.34 1753.5 857.165 1753.5L369.835 1753.5C311.66 1753.5 264.5 1706.34 264.5 1648.16Z" stroke="#2F528F" stroke-width="4.58333" stroke-miterlimit="8" stroke-dasharray="4.58333 4.58333" fill="#E9F5FD" fill-rule="evenodd"/><path d="M214 1086.17C214 1076.69 221.686 1069 231.167 1069L575.833 1069C585.314 1069 593 1076.69 593 1086.17L593 1154.83C593 1164.31 585.314 1172 575.833 1172L231.167 1172C221.686 1172 214 1164.31 214 1154.83Z" stroke="#2F528F" stroke-width="2.29167" stroke-miterlimit="8" fill="#FFFFFF" fill-rule="evenodd"/><text font-family="Calibri,Calibri_MSFontService,sans-serif" font-weight="700" font-size="41" transform="matrix(1 0 0 1 319.011 1110)">Routable Hub</text><text font-family="Calibri,Calibri_MSFontService,sans-serif" font-weight="700" font-size="41" transform="matrix(1 0 0 1 360.261 1159)">10.1.0.0/24</text><g clip-path="url(#clip0)"><g clip-path="url(#clip1)"><g clip-path="url(#clip2)"><path d="M77.2222 49.9445C77.2222 53.5036 74.337 56.3889 70.7778 56.3889 67.2186 56.3889 64.3334 53.5036 64.3334 49.9445 64.3334 46.3853 67.2186 43.5 70.7778 43.5 74.337 43.5 77.2222 46.3853 77.2222 49.9445Z" fill="url(#fill3)" transform="matrix(1.05 0 0 1 221 1073)"/><path d="M56.6667 50C56.6667 53.5592 53.7814 56.4445 50.2222 56.4445 46.6631 56.4445 43.7778 53.5592 43.7778 50 43.7778 46.4408 46.6631 43.5556 50.2222 43.5556 53.7814 43.5556 56.6667 46.4408 56.6667 50Z" fill="url(#fill4)" transform="matrix(1.05 0 0 1 221 1073)"/><path d="M36.1111 50C36.1111 53.5592 33.2258 56.4445 29.6667 56.4445 26.1075 56.4445 23.2222 53.5592 23.2222 50 23.2222 46.4408 26.1075 43.5556 29.6667 43.5556 33.2258 43.5556 36.1111 46.4408 36.1111 50Z" fill="url(#fill5)" transform="matrix(1.05 0 0 1 221 1073)"/><path d="M14.8502 41.4214 20.1986 41.4214C21.1413 41.4214 21.9055 42.1856 21.9055 43.1283L21.9055 82.6152C21.9055 84.5007 20.3771 86.029 18.4917 86.029L13.1433 86.029 13.1433 86.029 13.1433 43.1283C13.1433 42.1856 13.9075 41.4214 14.8502 41.4214Z" fill="#50E6FF" transform="matrix(-0.723937 0.691393 -0.725961 -0.689465 297.883 1167.06)"/><path d="M14.5638 16.5549 19.9114 16.5549C20.854 16.5549 21.6181 17.319 21.6181 18.2616L21.6181 60.5307 21.6181 60.5307 16.2705 60.5307C14.3853 60.5307 12.8571 59.0026 12.8571 57.1173L12.8571 18.2616C12.8571 17.319 13.6212 16.5549 14.5638 16.5549Z" fill="#1490DF" transform="matrix(0.72606 0.689559 -0.724036 0.691487 254.017 1072.11)"/><path d="M80.5099 41.4214 85.8583 41.4214C87.7439 41.4214 89.2721 42.9498 89.2721 44.8352L89.2721 84.3221C89.2721 85.2649 88.508 86.029 87.5652 86.029L82.2169 86.029C81.2741 86.029 80.5099 85.2649 80.5099 84.3221L80.5099 41.4214 80.5099 41.4214Z" fill="#50E6FF" transform="matrix(0.723937 0.691393 -0.725961 0.689465 292.867 1032.56)"/><path d="M84.2537 16.5549 89.6013 16.5549 89.6013 16.5549 89.6013 58.824C89.6013 59.7667 88.8373 60.5307 87.8946 60.5307L82.4901 60.5307C81.5475 60.5307 80.7834 59.7667 80.7834 58.824L80.7834 19.9683C80.7834 18.0831 82.3115 16.5549 84.1968 16.5549Z" fill="#1490DF" transform="matrix(-0.72606 0.689559 -0.724036 -0.691487 398.1 1078.5)"/></g></g></g><path d="M856.666 1461.5C877.561 1461.5 894.5 1478.44 894.5 1499.33L894.5 1656.67C894.5 1677.56 877.561 1694.5 856.666 1694.5L705.334 1694.5C684.439 1694.5 667.5 1677.56 667.5 1656.67L667.5 1499.33C667.5 1478.44 684.439 1461.5 705.334 1461.5Z" stroke="#2F528F" stroke-width="4.58333" stroke-miterlimit="8" stroke-dasharray="4.58333 4.58333" fill="#F2F2F2" fill-rule="evenodd"/><path d="M859 1675.17C859 1671.76 861.761 1669 865.167 1669L913.833 1669C917.239 1669 920 1671.76 920 1675.17L920 1699.83C920 1703.24 917.239 1706 913.833 1706L865.167 1706C861.761 1706 859 1703.24 859 1699.83Z" stroke="#2F528F" stroke-width="2.29167" stroke-miterlimit="8" fill="#FFFFFF" fill-rule="evenodd"/><g clip-path="url(#clip6)"><g clip-path="url(#clip7)"><g clip-path="url(#clip8)"><path d="M25.4833 16.4817C25.4833 17.6562 24.5312 18.6083 23.3567 18.6083 22.1821 18.6083 21.23 17.6562 21.23 16.4817 21.23 15.3071 22.1821 14.355 23.3567 14.355 24.5312 14.355 25.4833 15.3071 25.4833 16.4817Z" fill="url(#fill9)" transform="matrix(1 0 0 1.06061 873 1671)"/><path d="M18.7 16.5C18.7 17.6745 17.7479 18.6267 16.5733 18.6267 15.3988 18.6267 14.4467 17.6745 14.4467 16.5 14.4467 15.3255 15.3988 14.3733 16.5733 14.3733 17.7479 14.3733 18.7 15.3255 18.7 16.5Z" fill="url(#fill10)" transform="matrix(1 0 0 1.06061 873 1671)"/><path d="M11.9167 16.5C11.9167 17.6745 10.9645 18.6267 9.79 18.6267 8.61547 18.6267 7.66333 17.6745 7.66333 16.5 7.66333 15.3255 8.61547 14.3733 9.79 14.3733 10.9645 14.3733 11.9167 15.3255 11.9167 16.5Z" fill="url(#fill11)" transform="matrix(1 0 0 1.06061 873 1671)"/><path d="M4.92321 13.7322 6.69631 13.7322C7.00885 13.7322 7.2622 13.9855 7.2622 14.298L7.2622 27.3889C7.2622 28.014 6.75549 28.5206 6.13043 28.5206L4.35732 28.5206 4.35732 28.5206 4.35732 14.298C4.35732 13.9855 4.61067 13.7322 4.92321 13.7322Z" fill="#50E6FF" transform="matrix(-0.686297 0.729927 -0.688215 -0.727892 897.163 1703.92)"/><path d="M4.82968 5.48999 6.60308 5.48999C6.91567 5.48999 7.16906 5.74338 7.16906 6.05597L7.16906 20.0734 7.16906 20.0734 5.39566 20.0734C4.7705 20.0734 4.26371 19.5666 4.26371 18.9414L4.26371 6.05597C4.26371 5.74338 4.51709 5.48999 4.82968 5.48999Z" fill="#1490DF" transform="matrix(0.688102 0.727772 -0.686184 0.729807 883.377 1670.69)"/><path d="M26.6909 13.7322 28.4641 13.7322C29.0892 13.7322 29.5958 14.2389 29.5958 14.8639L29.5958 27.9548C29.5958 28.2673 29.3425 28.5206 29.0299 28.5206L27.2568 28.5206C26.9443 28.5206 26.6909 28.2673 26.6909 27.9548L26.6909 13.7322 26.6909 13.7322Z" fill="#50E6FF" transform="matrix(0.686297 0.729927 -0.688215 0.727892 895.587 1656.84)"/><path d="M27.9405 5.48999 29.7139 5.48999 29.7139 5.48999 29.7139 19.5074C29.7139 19.82 29.4605 20.0734 29.1479 20.0734L27.3556 20.0734C27.043 20.0734 26.7897 19.82 26.7897 19.5074L26.7897 6.62195C26.7897 5.99679 27.2964 5.48999 27.9216 5.48999Z" fill="#1490DF" transform="matrix(-0.688102 0.727772 -0.686184 -0.729807 928.66 1672.92)"/></g></g></g><path d="M548.666 1461.5C569.561 1461.5 586.5 1478.44 586.5 1499.33L586.5 1656.67C586.5 1677.56 569.561 1694.5 548.666 1694.5L397.334 1694.5C376.439 1694.5 359.5 1677.56 359.5 1656.67L359.5 1499.33C359.5 1478.44 376.439 1461.5 397.334 1461.5Z" stroke="#2F528F" stroke-width="4.58333" stroke-miterlimit="8" stroke-dasharray="4.58333 4.58333" fill="#F2F2F2" fill-rule="evenodd"/><path d="M552 1675.17C552 1671.76 554.761 1669 558.167 1669L606.833 1669C610.239 1669 613 1671.76 613 1675.17L613 1699.83C613 1703.24 610.239 1706 606.833 1706L558.167 1706C554.761 1706 552 1703.24 552 1699.83Z" stroke="#2F528F" stroke-width="2.29167" stroke-miterlimit="8" fill="#FFFFFF" fill-rule="evenodd"/><g clip-path="url(#clip12)"><g clip-path="url(#clip13)"><g clip-path="url(#clip14)"><path d="M25.4833 16.4817C25.4833 17.6562 24.5312 18.6083 23.3567 18.6083 22.1821 18.6083 21.23 17.6562 21.23 16.4817 21.23 15.3071 22.1821 14.355 23.3567 14.355 24.5312 14.355 25.4833 15.3071 25.4833 16.4817Z" fill="url(#fill15)" transform="matrix(1 0 0 1.06061 566 1671)"/><path d="M18.7 16.5C18.7 17.6745 17.7479 18.6267 16.5733 18.6267 15.3988 18.6267 14.4467 17.6745 14.4467 16.5 14.4467 15.3255 15.3988 14.3733 16.5733 14.3733 17.7479 14.3733 18.7 15.3255 18.7 16.5Z" fill="url(#fill16)" transform="matrix(1 0 0 1.06061 566 1671)"/><path d="M11.9167 16.5C11.9167 17.6745 10.9645 18.6267 9.79 18.6267 8.61547 18.6267 7.66333 17.6745 7.66333 16.5 7.66333 15.3255 8.61547 14.3733 9.79 14.3733 10.9645 14.3733 11.9167 15.3255 11.9167 16.5Z" fill="url(#fill17)" transform="matrix(1 0 0 1.06061 566 1671)"/><path d="M4.92321 13.7322 6.69631 13.7322C7.00885 13.7322 7.2622 13.9855 7.2622 14.298L7.2622 27.3889C7.2622 28.014 6.75549 28.5206 6.13043 28.5206L4.35732 28.5206 4.35732 28.5206 4.35732 14.298C4.35732 13.9855 4.61067 13.7322 4.92321 13.7322Z" fill="#50E6FF" transform="matrix(-0.686297 0.729927 -0.688215 -0.727892 590.164 1703.92)"/><path d="M4.82968 5.48999 6.60308 5.48999C6.91567 5.48999 7.16906 5.74338 7.16906 6.05597L7.16906 20.0734 7.16906 20.0734 5.39566 20.0734C4.7705 20.0734 4.26371 19.5666 4.26371 18.9414L4.26371 6.05597C4.26371 5.74338 4.51709 5.48999 4.82968 5.48999Z" fill="#1490DF" transform="matrix(0.688102 0.727772 -0.686184 0.729807 576.377 1670.69)"/><path d="M26.6909 13.7322 28.4641 13.7322C29.0892 13.7322 29.5958 14.2389 29.5958 14.8639L29.5958 27.9548C29.5958 28.2673 29.3425 28.5206 29.0299 28.5206L27.2568 28.5206C26.9443 28.5206 26.6909 28.2673 26.6909 27.9548L26.6909 13.7322 26.6909 13.7322Z" fill="#50E6FF" transform="matrix(0.686297 0.729927 -0.688215 0.727892 588.587 1656.84)"/><path d="M27.9405 5.48999 29.7139 5.48999 29.7139 5.48999 29.7139 19.5074C29.7139 19.82 29.4605 20.0734 29.1479 20.0734L27.3556 20.0734C27.043 20.0734 26.7897 19.82 26.7897 19.5074L26.7897 6.62195C26.7897 5.99679 27.2964 5.48999 27.9216 5.48999Z" fill="#1490DF" transform="matrix(-0.688102 0.727772 -0.686184 -0.729807 621.66 1672.92)"/></g></g></g><path d="M855.666 1177.5C876.561 1177.5 893.5 1194.44 893.5 1215.33L893.5 1373.67C893.5 1394.56 876.561 1411.5 855.666 1411.5L704.334 1411.5C683.439 1411.5 666.5 1394.56 666.5 1373.67L666.5 1215.33C666.5 1194.44 683.439 1177.5 704.334 1177.5Z" stroke="#2F528F" stroke-width="4.58333" stroke-miterlimit="8" stroke-dasharray="4.58333 4.58333" fill="#F2F2F2" fill-rule="evenodd"/><path d="M858 1392C858 1388.69 860.686 1386 864 1386L913 1386C916.313 1386 919 1388.69 919 1392L919 1416C919 1419.31 916.313 1422 913 1422L864 1422C860.686 1422 858 1419.31 858 1416Z" stroke="#2F528F" stroke-width="2.29167" stroke-miterlimit="8" fill="#FFFFFF" fill-rule="evenodd"/><g clip-path="url(#clip18)"><g clip-path="url(#clip19)"><g clip-path="url(#clip20)"><path d="M26.2556 16.9811C26.2556 18.1912 25.2746 19.1722 24.0645 19.1722 22.8543 19.1722 21.8734 18.1912 21.8734 16.9811 21.8734 15.771 22.8544 14.79 24.0645 14.79 25.2746 14.79 26.2556 15.771 26.2556 16.9811Z" fill="url(#fill21)" transform="matrix(1 0 0 1.02941 872 1387)"/><path d="M19.2667 17C19.2667 18.2101 18.2857 19.1911 17.0756 19.1911 15.8655 19.1911 14.8845 18.2101 14.8845 17 14.8845 15.7899 15.8655 14.8089 17.0756 14.8089 18.2857 14.8089 19.2667 15.7899 19.2667 17Z" fill="url(#fill22)" transform="matrix(1 0 0 1.02941 872 1387)"/><path d="M12.2778 17C12.2778 18.2101 11.2968 19.1911 10.0867 19.1911 8.87656 19.1911 7.89556 18.2101 7.89556 17 7.89556 15.7899 8.87656 14.8089 10.0867 14.8089 11.2968 14.8089 12.2778 15.7899 12.2778 17Z" fill="url(#fill23)" transform="matrix(1 0 0 1.02941 872 1387)"/><path d="M5.00073 13.9484 6.80176 13.9484C7.11922 13.9484 7.37655 14.2057 7.37655 14.5232L7.37655 27.8201C7.37655 28.4551 6.86186 28.9697 6.22696 28.9697L4.42593 28.9697 4.42593 28.9697 4.42593 14.5232C4.42593 14.2057 4.68327 13.9484 5.00073 13.9484Z" fill="#50E6FF" transform="matrix(-0.696133 0.718611 -0.698079 -0.716608 896.896 1419.92)"/><path d="M4.90533 5.57598 6.7065 5.57598C7.02399 5.57598 7.28134 5.83333 7.28134 6.15082L7.28134 20.3878 7.28134 20.3878 5.48017 20.3878C4.84522 20.3878 4.33048 19.8731 4.33048 19.2381L4.33048 6.15082C4.33048 5.83333 4.58784 5.57598 4.90533 5.57598Z" fill="#1490DF" transform="matrix(0.698022 0.71655 -0.696076 0.718553 882.691 1386.69)"/><path d="M27.1112 13.9484 28.9123 13.9484C29.5472 13.9484 30.0618 14.4631 30.0618 15.098L30.0618 28.3949C30.0618 28.7124 29.8045 28.9697 29.4871 28.9697L27.686 28.9697C27.3685 28.9697 27.1112 28.7124 27.1112 28.3949L27.1112 13.9484 27.1112 13.9484Z" fill="#50E6FF" transform="matrix(0.696133 0.718611 -0.698079 0.716608 895.271 1372.84)"/><path d="M28.3781 5.57598 30.1792 5.57598 30.1792 5.57598 30.1792 19.8129C30.1792 20.1304 29.9219 20.3878 29.6044 20.3878L27.7841 20.3878C27.4666 20.3878 27.2092 20.1304 27.2092 19.8129L27.2092 6.72566C27.2092 6.09071 27.7239 5.57598 28.3589 5.57598Z" fill="#1490DF" transform="matrix(-0.698022 0.71655 -0.696076 -0.718553 929.347 1388.93)"/></g></g></g><g><g><g><path d="M544 1589.56C543.485 1573.83 531.703 1560.78 516.115 1558.65 515.126 1536.52 496.548 1519.29 474.407 1519.96 456.755 1519.64 440.825 1530.5 434.685 1547.05 415.887 1549.32 401.571 1564.99 401 1583.92 401.819 1605.36 419.834 1622.09 441.279 1621.33L444.774 1621.33 509.998 1621.33C510.579 1621.38 511.164 1621.38 511.746 1621.33 529.305 1621.17 543.573 1607.11 544 1589.56Z" fill="url(#fill24)"/><path d="M514.526 1597.9C514.483 1596.09 513.002 1594.64 511.19 1594.64L433.811 1594.64C431.999 1594.64 430.517 1596.09 430.474 1597.9L430.474 1637.62C430.517 1639.43 431.999 1640.88 433.811 1640.88L511.19 1640.88C513.002 1640.88 514.483 1639.43 514.526 1637.62L514.526 1597.9Z" fill="#821010"/><path d="M435.161 1599.25 457.962 1599.25 457.962 1609.34 435.161 1609.34Z" fill="#E62323"/><path d="M461.378 1599.25 484.178 1599.25 484.178 1609.34 461.378 1609.34Z" fill="#FF7381"/><path d="M487.595 1599.25 510.395 1599.25 510.395 1609.34 487.595 1609.34Z" fill="#E62323"/><path d="M435.161 1612.75 444.615 1612.75 444.615 1622.84 435.161 1622.84Z" fill="#E62323"/><path d="M500.941 1612.75 510.395 1612.75 510.395 1622.84 500.941 1622.84Z" fill="#FF7381"/><path d="M448.031 1612.75 470.832 1612.75 470.832 1622.84 448.031 1622.84Z" fill="#FF7381"/><path d="M474.327 1612.75 497.128 1612.75 497.128 1622.84 474.327 1622.84Z" fill="#E62323"/><path d="M435.161 1626.26 457.962 1626.26 457.962 1636.35 435.161 1636.35Z" fill="#E62323"/><path d="M461.378 1626.26 484.178 1626.26 484.178 1636.35 461.378 1636.35Z" fill="#FF7381"/><path d="M487.595 1626.26 510.395 1626.26 510.395 1636.35 487.595 1636.35Z" fill="#E62323"/></g></g></g><g clip-path="url(#clip25)"><g clip-path="url(#clip26)"><g clip-path="url(#clip27)"><path d="M849.04 1523.74C851.783 1523.74 854.007 1525.96 854.007 1528.71L854.007 1618.1C854.007 1620.85 851.783 1623.07 849.04 1623.07L709.973 1623.07C707.23 1623.07 705.007 1620.85 705.007 1618.1L705.007 1528.71C705.007 1525.96 707.23 1523.74 709.973 1523.74Z" fill="url(#fill28)"/><path d="M804.34 1558.92 804.34 1587.81 779.507 1602.38 779.507 1573.41 804.34 1558.92Z" fill="#50E6FF"/><path d="M804.34 1558.92 779.507 1573.49 754.673 1558.92 779.507 1544.43 804.34 1558.92Z" fill="#C3F1FF"/><path d="M779.507 1573.49 779.507 1602.38 754.673 1587.81 754.673 1558.92 779.507 1573.49Z" fill="#9CEBFF"/><path d="M754.673 1587.81 779.507 1573.41 779.507 1602.38 754.673 1587.81Z" fill="#C3F1FF"/><path d="M804.34 1587.81 779.507 1573.41 779.507 1602.38 804.34 1587.81Z" fill="#9CEBFF"/><path d="M809.389 1653.12C794.655 1650.8 794.076 1640.21 794.076 1623.07L764.855 1623.07C764.855 1640.21 764.358 1650.8 749.624 1653.12 745.411 1653.59 742.231 1657.16 742.257 1661.4L816.757 1661.4C816.782 1657.16 813.602 1653.59 809.389 1653.12Z" fill="url(#fill29)"/></g></g></g><g><g><g><path d="M124.664 71.7684 116.386 71.7684 116.386 46.2728C116.458 34.2982 112.06 22.7275 104.052 13.8239 96.471 4.99282 85.3937-0.0617794 73.7551 1.61833e-06 62.0015-0.159768 50.7827 4.9038 43.1273 13.8239 35.0634 22.6931 30.6567 34.2866 30.7934 46.2728L30.7934 71.7684 24.0884 71.7684C20.9525 71.8129 18.4211 74.3442 18.3767 77.4801L18.3767 143.702C18.4211 146.838 20.9525 149.369 24.0884 149.414L124.664 149.414C127.814 149.371 130.369 146.851 130.458 143.702L130.458 77.4801C130.369 74.3309 127.814 71.8116 124.664 71.7684ZM96.7673 71.7684 50.7428 71.7684 50.7428 45.859C50.8173 39.2314 53.389 32.8759 57.9445 28.0617 61.8684 23.5634 67.5376 20.9701 73.5068 20.9428 79.4978 20.9784 85.1892 23.5681 89.1518 28.0617 90.1327 29.1718 91.0193 30.3624 91.8007 31.6212L91.8007 31.6212C94.9057 35.7047 96.6697 40.6496 96.8501 45.7762Z" fill="url(#fill30)" transform="matrix(1.00671 0 0 1 704 1216)"/><path d="M124.912 71.7684 24.1711 71.7684C22.8252 71.7728 21.5282 72.274 20.5289 73.1757L128.554 147.676C129.858 146.627 130.619 145.045 130.624 143.371L130.624 77.149C130.371 74.161 127.909 71.8423 124.912 71.7684Z" fill="#50E6FF" transform="matrix(1.00671 0 0 1 704 1216)"/><path d="M24.3367 71.7684 124.995 71.7684C126.364 71.7828 127.683 72.2812 128.72 73.1757L20.6117 147.676C19.3351 146.605 18.5812 145.037 18.5422 143.371L18.5422 77.149C18.8346 74.148 21.3223 71.838 24.3367 71.7684Z" fill="#FFFFFF" fill-opacity="0.2" transform="matrix(1.00671 0 0 1 704 1216)"/><path d="M64.5668 87.7446 74.5001 77.8112C74.7155 77.6304 75.0297 77.6304 75.2451 77.8112L85.0957 87.7446C85.3241 87.896 85.387 88.2048 85.2347 88.4333 85.1983 88.4879 85.1511 88.5359 85.0957 88.5723L79.3012 88.5723C79.0269 88.5723 78.8046 88.795 78.8046 89.069L78.8046 101.817C78.8046 102.091 78.5822 102.313 78.3079 102.313L71.7684 102.313C71.5458 102.365 71.3234 102.227 71.2718 102.004 71.2575 101.943 71.2575 101.878 71.2718 101.817L71.2718 89.069C71.2303 88.7818 70.9826 88.569 70.6923 88.5723L64.8979 88.5723C64.6244 88.5517 64.4196 88.3124 64.4404 88.0393 64.4488 87.93 64.4932 87.8265 64.5668 87.7446ZM85.0129 133.107 75.1623 142.957C74.9809 143.164 74.6671 143.183 74.4613 143.001 74.4457 142.988 74.4311 142.973 74.4173 142.957L64.5668 133.107C64.3382 132.955 64.2758 132.647 64.4274 132.418 64.4641 132.364 64.5115 132.315 64.5668 132.279L70.3612 132.279C70.6515 132.282 70.8992 132.07 70.9407 131.782L70.9407 118.952C70.9407 118.678 71.163 118.455 71.4373 118.455L77.5629 118.455C77.8372 118.455 78.0596 118.678 78.0596 118.952L78.0596 131.782C78.0596 132.056 78.2819 132.279 78.5562 132.279L84.3507 132.279C84.5791 132.096 84.9127 132.133 85.0957 132.362 85.2786 132.59 85.2414 132.924 85.0129 133.107ZM46.1073 120.276 46.1073 114.482C46.1073 114.208 45.8849 113.985 45.6106 113.985L33.1112 113.985C32.8368 113.985 32.6145 113.762 32.6145 113.488L32.6145 107.611C32.4747 107.375 32.5526 107.071 32.7886 106.931 32.8857 106.873 32.9994 106.851 33.1112 106.866L45.6106 106.866C45.8849 106.866 46.1073 106.644 46.1073 106.37L46.1073 100.575C46.1401 100.256 46.4248 100.025 46.7432 100.059 46.842 100.069 46.9366 100.104 47.0178 100.161L56.8684 110.095C57.037 110.283 57.037 110.568 56.8684 110.757L47.0178 120.69C46.7564 120.875 46.3949 120.813 46.2103 120.551 46.153 120.47 46.1175 120.375 46.1073 120.276ZM103.472 100.575 103.472 106.37C103.472 106.644 103.695 106.866 103.969 106.866L116.717 106.866C116.717 106.866 117.296 106.866 117.296 107.363L117.296 113.488C117.255 113.776 117.007 113.988 116.717 113.985L103.969 113.985C103.695 113.985 103.472 114.208 103.472 114.482L103.472 120.276C103.497 120.549 103.297 120.791 103.024 120.817 102.885 120.829 102.747 120.784 102.645 120.69L92.794 110.757 92.794 110.095 102.645 100.161C102.645 100.161 103.472 100.078 103.472 100.575Z" fill="#FFFFFF" transform="matrix(1.00671 0 0 1 704 1216)"/></g></g></g><path d="M1808.5 683.668C1808.5 631.661 1850.66 589.5 1902.67 589.5L2378.33 589.5C2430.34 589.5 2472.5 631.661 2472.5 683.668L2472.5 1060.33C2472.5 1112.34 2430.34 1154.5 2378.33 1154.5L1902.67 1154.5C1850.66 1154.5 1808.5 1112.34 1808.5 1060.33Z" stroke="#2F528F" stroke-width="4.58333" stroke-miterlimit="8" stroke-dasharray="4.58333 4.58333" fill="#E9F5FD" fill-rule="evenodd"/><path d="M1780 556.167C1780 546.686 1787.69 539 1797.17 539L2212.83 539C2222.31 539 2230 546.686 2230 556.167L2230 624.833C2230 634.314 2222.31 642 2212.83 642L1797.17 642C1787.69 642 1780 634.314 1780 624.833Z" stroke="#2F528F" stroke-width="2.29167" stroke-miterlimit="8" fill="#FFFFFF" fill-rule="evenodd"/><text font-family="Calibri,Calibri_MSFontService,sans-serif" font-weight="700" font-size="41" transform="matrix(1 0 0 1 2040.93 580)">LZ Spoke</text><text font-family="Calibri,Calibri_MSFontService,sans-serif" font-weight="700" font-size="41" transform="matrix(1 0 0 1 1996.81 629)">10.1.1.0/24</text><g clip-path="url(#clip31)"><g clip-path="url(#clip32)"><g clip-path="url(#clip33)"><path d="M76.45 49.445C76.45 52.9686 73.5936 55.825 70.07 55.825 66.5464 55.825 63.69 52.9686 63.69 49.445 63.69 45.9214 66.5464 43.065 70.07 43.065 73.5936 43.065 76.45 45.9214 76.45 49.445Z" fill="url(#fill34)" transform="matrix(1.05051 0 0 1 1824 543)"/><path d="M56.1 49.5C56.1 53.0236 53.2436 55.88 49.72 55.88 46.1964 55.88 43.34 53.0236 43.34 49.5 43.34 45.9764 46.1964 43.12 49.72 43.12 53.2436 43.12 56.1 45.9764 56.1 49.5Z" fill="url(#fill35)" transform="matrix(1.05051 0 0 1 1824 543)"/><path d="M35.75 49.5C35.75 53.0236 32.8936 55.88 29.37 55.88 25.8464 55.88 22.99 53.0236 22.99 49.5 22.99 45.9764 25.8464 43.12 29.37 43.12 32.8936 43.12 35.75 45.9764 35.75 49.5Z" fill="url(#fill36)" transform="matrix(1.05051 0 0 1 1824 543)"/><path d="M14.7051 41.0166 20.0012 41.0166C20.9348 41.0166 21.6915 41.7733 21.6915 42.7069L21.6915 81.8079C21.6915 83.675 20.178 85.1883 18.311 85.1883L13.0149 85.1883 13.0149 85.1883 13.0149 42.7069C13.0149 41.7733 13.7716 41.0166 14.7051 41.0166Z" fill="#50E6FF" transform="matrix(-0.724121 0.691233 -0.726145 -0.689306 1900.15 636.115)"/><path d="M14.4214 16.3931 19.7168 16.3931C20.6502 16.3931 21.4068 17.1497 21.4068 18.0831L21.4068 59.9391 21.4068 59.9391 16.1115 59.9391C14.2447 59.9391 12.7314 58.426 12.7314 56.5591L12.7314 18.0831C12.7314 17.1497 13.488 16.3931 14.4214 16.3931Z" fill="#1490DF" transform="matrix(0.726245 0.689401 -0.72422 0.691328 1856.7 542.12)"/><path d="M79.7232 41.0166 85.0193 41.0166C86.8865 41.0166 88.3998 42.5301 88.3998 44.3971L88.3998 83.4981C88.3998 84.4317 87.6432 85.1883 86.7096 85.1883L81.4135 85.1883C80.4799 85.1883 79.7232 84.4317 79.7232 83.4981L79.7232 41.0166 79.7232 41.0166Z" fill="#50E6FF" transform="matrix(0.724121 0.691233 -0.726145 0.689306 1895.18 502.96)"/><path d="M83.4303 16.3931 88.7257 16.3931 88.7257 16.3931 88.7257 58.2491C88.7257 59.1826 87.9691 59.9391 87.0357 59.9391L81.6839 59.9391C80.7505 59.9391 79.9939 59.1826 79.9939 58.2491L79.9939 19.7731C79.9939 17.9064 81.5071 16.3931 83.374 16.3931Z" fill="#1490DF" transform="matrix(-0.726245 0.689401 -0.72422 -0.691328 1999.41 548.445)"/></g></g></g><path d="M2394.17 921.5C2410.37 921.5 2423.5 934.634 2423.5 950.834L2423.5 1068.17C2423.5 1084.37 2410.37 1097.5 2394.17 1097.5L1890.83 1097.5C1874.63 1097.5 1861.5 1084.37 1861.5 1068.17L1861.5 950.834C1861.5 934.634 1874.63 921.5 1890.83 921.5Z" stroke="#2F528F" stroke-width="4.58333" stroke-miterlimit="8" stroke-dasharray="4.58333 4.58333" fill="#F2F2F2" fill-rule="evenodd"/><g><g><g><path d="M2096.52 970.307C2098.58 970.307 2100.25 971.978 2100.25 974.04L2100.25 1041.24C2100.25 1043.3 2098.58 1044.97 2096.52 1044.97L1991.99 1044.97C1989.92 1044.97 1988.25 1043.3 1988.25 1041.24L1988.25 974.04C1988.25 971.978 1989.92 970.307 1991.99 970.307Z" fill="url(#fill37)"/><path d="M2062.92 996.751 2062.92 1018.47 2044.25 1029.42 2044.25 1007.64 2062.92 996.751Z" fill="#50E6FF"/><path d="M2062.92 996.751 2044.25 1007.7 2025.59 996.751 2044.25 985.862 2062.92 996.751Z" fill="#C3F1FF"/><path d="M2044.25 1007.7 2044.25 1029.42 2025.59 1018.47 2025.59 996.751 2044.25 1007.7Z" fill="#9CEBFF"/><path d="M2025.59 1018.47 2044.25 1007.64 2044.25 1029.42 2025.59 1018.47Z" fill="#C3F1FF"/><path d="M2062.92 1018.47 2044.25 1007.64 2044.25 1029.42 2062.92 1018.47Z" fill="#9CEBFF"/><path d="M2066.72 1067.56C2055.64 1065.82 2055.2 1057.85 2055.2 1044.97L2033.24 1044.97C2033.24 1057.85 2032.87 1065.82 2021.79 1067.56 2018.62 1067.91 2016.23 1070.6 2016.25 1073.78L2072.25 1073.78C2072.27 1070.6 2069.88 1067.91 2066.72 1067.56Z" fill="url(#fill38)"/></g></g></g><path d="M2362 1078C2362 1074.69 2364.69 1072 2368 1072L2417 1072C2420.31 1072 2423 1074.69 2423 1078L2423 1102C2423 1105.31 2420.31 1108 2417 1108L2368 1108C2364.69 1108 2362 1105.31 2362 1102Z" stroke="#2F528F" stroke-width="2.29167" stroke-miterlimit="8" fill="#FFFFFF" fill-rule="evenodd"/><g clip-path="url(#clip39)"><g clip-path="url(#clip40)"><g clip-path="url(#clip41)"><path d="M25.4833 16.4817C25.4833 17.6562 24.5312 18.6083 23.3567 18.6083 22.1821 18.6083 21.23 17.6562 21.23 16.4817 21.23 15.3071 22.1821 14.355 23.3567 14.355 24.5312 14.355 25.4833 15.3071 25.4833 16.4817Z" fill="url(#fill42)" transform="matrix(1 0 0 1.06061 2376 1073)"/><path d="M18.7 16.5C18.7 17.6745 17.7479 18.6267 16.5733 18.6267 15.3988 18.6267 14.4467 17.6745 14.4467 16.5 14.4467 15.3255 15.3988 14.3733 16.5733 14.3733 17.7479 14.3733 18.7 15.3255 18.7 16.5Z" fill="url(#fill43)" transform="matrix(1 0 0 1.06061 2376 1073)"/><path d="M11.9167 16.5C11.9167 17.6745 10.9645 18.6267 9.79 18.6267 8.61547 18.6267 7.66333 17.6745 7.66333 16.5 7.66333 15.3255 8.61547 14.3733 9.79 14.3733 10.9645 14.3733 11.9167 15.3255 11.9167 16.5Z" fill="url(#fill44)" transform="matrix(1 0 0 1.06061 2376 1073)"/><path d="M4.92321 13.7322 6.69631 13.7322C7.00885 13.7322 7.2622 13.9855 7.2622 14.298L7.2622 27.3889C7.2622 28.014 6.75549 28.5206 6.13043 28.5206L4.35732 28.5206 4.35732 28.5206 4.35732 14.298C4.35732 13.9855 4.61067 13.7322 4.92321 13.7322Z" fill="#50E6FF" transform="matrix(-0.686297 0.729927 -0.688215 -0.727892 2400.16 1105.92)"/><path d="M4.82968 5.48999 6.60308 5.48999C6.91567 5.48999 7.16906 5.74338 7.16906 6.05597L7.16906 20.0734 7.16906 20.0734 5.39566 20.0734C4.7705 20.0734 4.26371 19.5666 4.26371 18.9414L4.26371 6.05597C4.26371 5.74338 4.51709 5.48999 4.82968 5.48999Z" fill="#1490DF" transform="matrix(0.688102 0.727772 -0.686184 0.729807 2386.38 1072.69)"/><path d="M26.6909 13.7322 28.4641 13.7322C29.0892 13.7322 29.5958 14.2389 29.5958 14.8639L29.5958 27.9548C29.5958 28.2673 29.3425 28.5206 29.0299 28.5206L27.2568 28.5206C26.9443 28.5206 26.6909 28.2673 26.6909 27.9548L26.6909 13.7322 26.6909 13.7322Z" fill="#50E6FF" transform="matrix(0.686297 0.729927 -0.688215 0.727892 2398.59 1058.84)"/><path d="M27.9405 5.48999 29.7139 5.48999 29.7139 5.48999 29.7139 19.5074C29.7139 19.82 29.4605 20.0734 29.1479 20.0734L27.3556 20.0734C27.043 20.0734 26.7897 19.82 26.7897 19.5074L26.7897 6.62195C26.7897 5.99679 27.2964 5.48999 27.9216 5.48999Z" fill="#1490DF" transform="matrix(-0.688102 0.727772 -0.686184 -0.729807 2431.66 1074.92)"/></g></g></g><g><g><g><path d="M107.52 1.30667C109.582 1.30667 111.253 2.97814 111.253 5.04L111.253 72.24C111.253 74.3019 109.582 75.9734 107.52 75.9734L2.98667 75.9734C0.924808 75.9734-0.746663 74.3019-0.746663 72.24L-0.746663 5.04C-0.746663 2.97814 0.924808 1.30667 2.98667 1.30667Z" fill="url(#fill45)" transform="matrix(1.00893 0 0 1 2176 969)"/><path d="M73.92 27.7511 73.92 49.4667 55.2534 60.4178 55.2534 38.64 73.92 27.7511Z" fill="#50E6FF" transform="matrix(1.00893 0 0 1 2176 969)"/><path d="M73.92 27.7511 55.2534 38.7022 36.5867 27.7511 55.2534 16.8622 73.92 27.7511Z" fill="#C3F1FF" transform="matrix(1.00893 0 0 1 2176 969)"/><path d="M55.2534 38.7022 55.2534 60.4178 36.5867 49.4667 36.5867 27.7511 55.2534 38.7022Z" fill="#9CEBFF" transform="matrix(1.00893 0 0 1 2176 969)"/><path d="M36.5867 49.4667 55.2534 38.64 55.2534 60.4178 36.5867 49.4667Z" fill="#C3F1FF" transform="matrix(1.00893 0 0 1 2176 969)"/><path d="M73.92 49.4667 55.2534 38.64 55.2534 60.4178 73.92 49.4667Z" fill="#9CEBFF" transform="matrix(1.00893 0 0 1 2176 969)"/><path d="M77.7156 98.5601C66.64 96.8178 66.2045 88.8534 66.2045 75.9734L44.24 75.9734C44.24 88.8534 43.8667 96.8178 32.7911 98.5601 29.6245 98.9104 27.234 101.596 27.2533 104.782L83.2534 104.782C83.2727 101.596 80.8821 98.9104 77.7156 98.5601Z" fill="url(#fill46)" transform="matrix(1.00893 0 0 1 2176 969)"/></g></g></g><path d="M2395.83 670.5C2411.11 670.5 2423.5 682.887 2423.5 698.168L2423.5 808.833C2423.5 824.113 2411.11 836.5 2395.83 836.5L1889.17 836.5C1873.89 836.5 1861.5 824.113 1861.5 808.833L1861.5 698.168C1861.5 682.887 1873.89 670.5 1889.17 670.5Z" stroke="#2F528F" stroke-width="4.58333" stroke-miterlimit="8" stroke-dasharray="4.58333 4.58333" fill="#F2F2F2" fill-rule="evenodd"/><path d="M2362 820C2362 816.686 2364.69 814 2368 814L2417 814C2420.31 814 2423 816.686 2423 820L2423 844C2423 847.314 2420.31 850 2417 850L2368 850C2364.69 850 2362 847.314 2362 844Z" stroke="#2F528F" stroke-width="2.29167" stroke-miterlimit="8" fill="#FFFFFF" fill-rule="evenodd"/><g clip-path="url(#clip47)"><g clip-path="url(#clip48)"><g clip-path="url(#clip49)"><path d="M25.4833 16.4817C25.4833 17.6562 24.5312 18.6083 23.3567 18.6083 22.1821 18.6083 21.23 17.6562 21.23 16.4817 21.23 15.3071 22.1821 14.355 23.3567 14.355 24.5312 14.355 25.4833 15.3071 25.4833 16.4817Z" fill="url(#fill50)" transform="matrix(1 0 0 1.06061 2376 816)"/><path d="M18.7 16.5C18.7 17.6745 17.7479 18.6267 16.5733 18.6267 15.3988 18.6267 14.4467 17.6745 14.4467 16.5 14.4467 15.3255 15.3988 14.3733 16.5733 14.3733 17.7479 14.3733 18.7 15.3255 18.7 16.5Z" fill="url(#fill51)" transform="matrix(1 0 0 1.06061 2376 816)"/><path d="M11.9167 16.5C11.9167 17.6745 10.9645 18.6267 9.79 18.6267 8.61547 18.6267 7.66333 17.6745 7.66333 16.5 7.66333 15.3255 8.61547 14.3733 9.79 14.3733 10.9645 14.3733 11.9167 15.3255 11.9167 16.5Z" fill="url(#fill52)" transform="matrix(1 0 0 1.06061 2376 816)"/><path d="M4.92321 13.7322 6.69631 13.7322C7.00885 13.7322 7.2622 13.9855 7.2622 14.298L7.2622 27.3889C7.2622 28.014 6.75549 28.5206 6.13043 28.5206L4.35732 28.5206 4.35732 28.5206 4.35732 14.298C4.35732 13.9855 4.61067 13.7322 4.92321 13.7322Z" fill="#50E6FF" transform="matrix(-0.686297 0.729927 -0.688215 -0.727892 2400.16 848.92)"/><path d="M4.82968 5.48999 6.60308 5.48999C6.91567 5.48999 7.16906 5.74338 7.16906 6.05597L7.16906 20.0734 7.16906 20.0734 5.39566 20.0734C4.7705 20.0734 4.26371 19.5666 4.26371 18.9414L4.26371 6.05597C4.26371 5.74338 4.51709 5.48999 4.82968 5.48999Z" fill="#1490DF" transform="matrix(0.688102 0.727772 -0.686184 0.729807 2386.38 815.689)"/><path d="M26.6909 13.7322 28.4641 13.7322C29.0892 13.7322 29.5958 14.2389 29.5958 14.8639L29.5958 27.9548C29.5958 28.2673 29.3425 28.5206 29.0299 28.5206L27.2568 28.5206C26.9443 28.5206 26.6909 28.2673 26.6909 27.9548L26.6909 13.7322 26.6909 13.7322Z" fill="#50E6FF" transform="matrix(0.686297 0.729927 -0.688215 0.727892 2398.59 801.844)"/><path d="M27.9405 5.48999 29.7139 5.48999 29.7139 5.48999 29.7139 19.5074C29.7139 19.82 29.4605 20.0734 29.1479 20.0734L27.3556 20.0734C27.043 20.0734 26.7897 19.82 26.7897 19.5074L26.7897 6.62195C26.7897 5.99679 27.2964 5.48999 27.9216 5.48999Z" fill="#1490DF" transform="matrix(-0.688102 0.727772 -0.686184 -0.729807 2431.66 817.925)"/></g></g></g><path d="M0 0 845.795 564.802" stroke="#4472C4" stroke-width="2.29167" stroke-miterlimit="8" fill="none" fill-rule="evenodd" transform="matrix(1 0 0 -1 962 1436.8)"/><path d="M1210.1 1226.74C1204.92 1218.75 1207.2 1208.07 1215.19 1202.89L1371.03 1101.84C1379.02 1096.66 1389.69 1098.94 1394.87 1106.92L1432.39 1164.78C1437.57 1172.77 1435.3 1183.45 1427.31 1188.63L1271.47 1289.68C1263.48 1294.86 1252.8 1292.58 1247.62 1284.6Z" stroke="#2F528F" stroke-width="2.29167" stroke-miterlimit="8" fill="#FFFFFF" fill-rule="evenodd"/><text font-family="Calibri,Calibri_MSFontService,sans-serif" font-weight="700" font-size="41" transform="matrix(0.839042 -0.544066 0.544066 0.839042 1279.24 1210)">VNet</text><text font-family="Calibri,Calibri_MSFontService,sans-serif" font-weight="700" font-size="41" transform="matrix(0.839042 -0.544066 0.544066 0.839042 1287.63 1263)">Peering</text><rect x="1665.5" y="452.5" width="970" height="800" stroke="#BFBFBF" stroke-width="4.58333" stroke-linecap="square" stroke-miterlimit="8" stroke-dasharray="13.75 4.58333" fill="none"/><path d="M2330 430.667C2330 424.776 2334.78 420 2340.67 420L2673.33 420C2679.22 420 2684 424.776 2684 430.667L2684 473.333C2684 479.224 2679.22 484 2673.33 484L2340.67 484C2334.78 484 2330 479.224 2330 473.333Z" stroke="#BFBFBF" stroke-width="2.29167" stroke-miterlimit="8" fill="#FFFFFF" fill-rule="evenodd"/><text font-family="Calibri,Calibri_MSFontService,sans-serif" font-weight="700" font-size="41" transform="matrix(1 0 0 1 2375.81 466)">Landing Zone A</text><g><g><g><path d="M107.52 1.30667C109.582 1.30667 111.253 2.97814 111.253 5.04L111.253 72.24C111.253 74.3019 109.582 75.9734 107.52 75.9734L2.98667 75.9734C0.924808 75.9734-0.746663 74.3019-0.746663 72.24L-0.746663 5.04C-0.746663 2.97814 0.924808 1.30667 2.98667 1.30667Z" fill="url(#fill53)" transform="matrix(1.00893 0 0 1 1978 707)"/><path d="M73.92 27.7511 73.92 49.4667 55.2534 60.4178 55.2534 38.64 73.92 27.7511Z" fill="#50E6FF" transform="matrix(1.00893 0 0 1 1978 707)"/><path d="M73.92 27.7511 55.2534 38.7022 36.5867 27.7511 55.2534 16.8622 73.92 27.7511Z" fill="#C3F1FF" transform="matrix(1.00893 0 0 1 1978 707)"/><path d="M55.2534 38.7022 55.2534 60.4178 36.5867 49.4667 36.5867 27.7511 55.2534 38.7022Z" fill="#9CEBFF" transform="matrix(1.00893 0 0 1 1978 707)"/><path d="M36.5867 49.4667 55.2534 38.64 55.2534 60.4178 36.5867 49.4667Z" fill="#C3F1FF" transform="matrix(1.00893 0 0 1 1978 707)"/><path d="M73.92 49.4667 55.2534 38.64 55.2534 60.4178 73.92 49.4667Z" fill="#9CEBFF" transform="matrix(1.00893 0 0 1 1978 707)"/><path d="M77.7156 98.5601C66.64 96.8178 66.2045 88.8534 66.2045 75.9734L44.24 75.9734C44.24 88.8534 43.8667 96.8178 32.7911 98.5601 29.6245 98.9104 27.234 101.596 27.2533 104.782L83.2534 104.782C83.2727 101.596 80.8821 98.9104 77.7156 98.5601Z" fill="url(#fill54)" transform="matrix(1.00893 0 0 1 1978 707)"/></g></g></g><g><g><g><path d="M2273.52 708.307C2275.58 708.307 2277.25 709.978 2277.25 712.04L2277.25 779.24C2277.25 781.302 2275.58 782.974 2273.52 782.974L2168.99 782.974C2166.92 782.974 2165.25 781.302 2165.25 779.24L2165.25 712.04C2165.25 709.978 2166.92 708.307 2168.99 708.307Z" fill="url(#fill55)"/><path d="M2239.92 734.751 2239.92 756.467 2221.25 767.418 2221.25 745.64 2239.92 734.751Z" fill="#50E6FF"/><path d="M2239.92 734.751 2221.25 745.702 2202.59 734.751 2221.25 723.862 2239.92 734.751Z" fill="#C3F1FF"/><path d="M2221.25 745.702 2221.25 767.418 2202.59 756.467 2202.59 734.751 2221.25 745.702Z" fill="#9CEBFF"/><path d="M2202.59 756.467 2221.25 745.64 2221.25 767.418 2202.59 756.467Z" fill="#C3F1FF"/><path d="M2239.92 756.467 2221.25 745.64 2221.25 767.418 2239.92 756.467Z" fill="#9CEBFF"/><path d="M2243.72 805.56C2232.64 803.818 2232.2 795.854 2232.2 782.974L2210.24 782.974C2210.24 795.854 2209.87 803.818 2198.79 805.56 2195.62 805.911 2193.23 808.597 2193.25 811.782L2249.25 811.782C2249.27 808.597 2246.88 805.911 2243.72 805.56Z" fill="url(#fill56)"/></g></g></g><path d="M963.143 1436.92 1005.34 2045.44 1003.06 2045.6 960.857 1437.08ZM1017.6 2039.99 1005.78 2068.38 990.165 2041.9Z"/><path d="M963.13 1436.81 1074.74 2104.91 1072.48 2105.28 960.87 1437.19ZM1086.41 2098.31 1077.38 2127.7 1059.29 2102.84Z"/><path d="M963.107 1436.7 1150.61 2134.73 1148.4 2135.33 960.894 1437.3ZM1161.59 2127.04 1155.45 2157.16 1135.03 2134.17Z"/><text font-family="Calibri,Calibri_MSFontService,sans-serif" font-weight="400" font-size="50" transform="matrix(1 0 0 1 802.22 2221)">Additional Landing Zones</text><path d="M1808.5 1641.67C1808.5 1589.66 1850.66 1547.5 1902.67 1547.5L2378.33 1547.5C2430.34 1547.5 2472.5 1589.66 2472.5 1641.67L2472.5 2018.33C2472.5 2070.34 2430.34 2112.5 2378.33 2112.5L1902.67 2112.5C1850.66 2112.5 1808.5 2070.34 1808.5 2018.33Z" stroke="#2F528F" stroke-width="4.58333" stroke-miterlimit="8" stroke-dasharray="4.58333 4.58333" fill="#E9F5FD" fill-rule="evenodd"/><path d="M1780 1514.17C1780 1504.69 1787.69 1497 1797.17 1497L2212.83 1497C2222.31 1497 2230 1504.69 2230 1514.17L2230 1582.83C2230 1592.31 2222.31 1600 2212.83 1600L1797.17 1600C1787.69 1600 1780 1592.31 1780 1582.83Z" stroke="#2F528F" stroke-width="2.29167" stroke-miterlimit="8" fill="#FFFFFF" fill-rule="evenodd"/><text font-family="Calibri,Calibri_MSFontService,sans-serif" font-weight="700" font-size="41" transform="matrix(1 0 0 1 2040.93 1538)">LZ Spoke</text><text font-family="Calibri,Calibri_MSFontService,sans-serif" font-weight="700" font-size="41" transform="matrix(1 0 0 1 1996.81 1587)">10.1.2.0/24</text><g clip-path="url(#clip57)"><g clip-path="url(#clip58)"><g clip-path="url(#clip59)"><path d="M76.45 49.445C76.45 52.9686 73.5936 55.825 70.07 55.825 66.5464 55.825 63.69 52.9686 63.69 49.445 63.69 45.9214 66.5464 43.065 70.07 43.065 73.5936 43.065 76.45 45.9214 76.45 49.445Z" fill="url(#fill60)" transform="matrix(1.05051 0 0 1 1824 1501)"/><path d="M56.1 49.5C56.1 53.0236 53.2436 55.88 49.72 55.88 46.1964 55.88 43.34 53.0236 43.34 49.5 43.34 45.9764 46.1964 43.12 49.72 43.12 53.2436 43.12 56.1 45.9764 56.1 49.5Z" fill="url(#fill61)" transform="matrix(1.05051 0 0 1 1824 1501)"/><path d="M35.75 49.5C35.75 53.0236 32.8936 55.88 29.37 55.88 25.8464 55.88 22.99 53.0236 22.99 49.5 22.99 45.9764 25.8464 43.12 29.37 43.12 32.8936 43.12 35.75 45.9764 35.75 49.5Z" fill="url(#fill62)" transform="matrix(1.05051 0 0 1 1824 1501)"/><path d="M14.7051 41.0166 20.0012 41.0166C20.9348 41.0166 21.6915 41.7733 21.6915 42.7069L21.6915 81.8079C21.6915 83.675 20.178 85.1883 18.311 85.1883L13.0149 85.1883 13.0149 85.1883 13.0149 42.7069C13.0149 41.7733 13.7716 41.0166 14.7051 41.0166Z" fill="#50E6FF" transform="matrix(-0.724121 0.691233 -0.726145 -0.689306 1900.15 1594.12)"/><path d="M14.4214 16.3931 19.7168 16.3931C20.6502 16.3931 21.4068 17.1497 21.4068 18.0831L21.4068 59.9391 21.4068 59.9391 16.1115 59.9391C14.2447 59.9391 12.7314 58.426 12.7314 56.5591L12.7314 18.0831C12.7314 17.1497 13.488 16.3931 14.4214 16.3931Z" fill="#1490DF" transform="matrix(0.726245 0.689401 -0.72422 0.691328 1856.7 1500.12)"/><path d="M79.7232 41.0166 85.0193 41.0166C86.8865 41.0166 88.3998 42.5301 88.3998 44.3971L88.3998 83.4981C88.3998 84.4317 87.6432 85.1883 86.7096 85.1883L81.4135 85.1883C80.4799 85.1883 79.7232 84.4317 79.7232 83.4981L79.7232 41.0166 79.7232 41.0166Z" fill="#50E6FF" transform="matrix(0.724121 0.691233 -0.726145 0.689306 1895.18 1460.96)"/><path d="M83.4303 16.3931 88.7257 16.3931 88.7257 16.3931 88.7257 58.2491C88.7257 59.1826 87.9691 59.9391 87.0357 59.9391L81.6839 59.9391C80.7505 59.9391 79.9939 59.1826 79.9939 58.2491L79.9939 19.7731C79.9939 17.9064 81.5071 16.3931 83.374 16.3931Z" fill="#1490DF" transform="matrix(-0.726245 0.689401 -0.72422 -0.691328 1999.41 1506.45)"/></g></g></g><path d="M2394.17 1879.5C2410.37 1879.5 2423.5 1892.63 2423.5 1908.83L2423.5 2026.17C2423.5 2042.37 2410.37 2055.5 2394.17 2055.5L1890.83 2055.5C1874.63 2055.5 1861.5 2042.37 1861.5 2026.17L1861.5 1908.83C1861.5 1892.63 1874.63 1879.5 1890.83 1879.5Z" stroke="#2F528F" stroke-width="4.58333" stroke-miterlimit="8" stroke-dasharray="4.58333 4.58333" fill="#F2F2F2" fill-rule="evenodd"/><g><g><g><path d="M2096.52 1928.31C2098.58 1928.31 2100.25 1929.98 2100.25 1932.04L2100.25 1999.24C2100.25 2001.3 2098.58 2002.97 2096.52 2002.97L1991.99 2002.97C1989.92 2002.97 1988.25 2001.3 1988.25 1999.24L1988.25 1932.04C1988.25 1929.98 1989.92 1928.31 1991.99 1928.31Z" fill="url(#fill63)"/><path d="M2062.92 1954.75 2062.92 1976.47 2044.25 1987.42 2044.25 1965.64 2062.92 1954.75Z" fill="#50E6FF"/><path d="M2062.92 1954.75 2044.25 1965.7 2025.59 1954.75 2044.25 1943.86 2062.92 1954.75Z" fill="#C3F1FF"/><path d="M2044.25 1965.7 2044.25 1987.42 2025.59 1976.47 2025.59 1954.75 2044.25 1965.7Z" fill="#9CEBFF"/><path d="M2025.59 1976.47 2044.25 1965.64 2044.25 1987.42 2025.59 1976.47Z" fill="#C3F1FF"/><path d="M2062.92 1976.47 2044.25 1965.64 2044.25 1987.42 2062.92 1976.47Z" fill="#9CEBFF"/><path d="M2066.72 2025.56C2055.64 2023.82 2055.2 2015.85 2055.2 2002.97L2033.24 2002.97C2033.24 2015.85 2032.87 2023.82 2021.79 2025.56 2018.62 2025.91 2016.23 2028.6 2016.25 2031.78L2072.25 2031.78C2072.27 2028.6 2069.88 2025.91 2066.72 2025.56Z" fill="url(#fill64)"/></g></g></g><path d="M2362 2036C2362 2032.69 2364.69 2030 2368 2030L2417 2030C2420.31 2030 2423 2032.69 2423 2036L2423 2060C2423 2063.31 2420.31 2066 2417 2066L2368 2066C2364.69 2066 2362 2063.31 2362 2060Z" stroke="#2F528F" stroke-width="2.29167" stroke-miterlimit="8" fill="#FFFFFF" fill-rule="evenodd"/><g clip-path="url(#clip65)"><g clip-path="url(#clip66)"><g clip-path="url(#clip67)"><path d="M25.4833 16.4817C25.4833 17.6562 24.5312 18.6083 23.3567 18.6083 22.1821 18.6083 21.23 17.6562 21.23 16.4817 21.23 15.3071 22.1821 14.355 23.3567 14.355 24.5312 14.355 25.4833 15.3071 25.4833 16.4817Z" fill="url(#fill68)" transform="matrix(1 0 0 1.06061 2376 2031)"/><path d="M18.7 16.5C18.7 17.6745 17.7479 18.6267 16.5733 18.6267 15.3988 18.6267 14.4467 17.6745 14.4467 16.5 14.4467 15.3255 15.3988 14.3733 16.5733 14.3733 17.7479 14.3733 18.7 15.3255 18.7 16.5Z" fill="url(#fill69)" transform="matrix(1 0 0 1.06061 2376 2031)"/><path d="M11.9167 16.5C11.9167 17.6745 10.9645 18.6267 9.79 18.6267 8.61547 18.6267 7.66333 17.6745 7.66333 16.5 7.66333 15.3255 8.61547 14.3733 9.79 14.3733 10.9645 14.3733 11.9167 15.3255 11.9167 16.5Z" fill="url(#fill70)" transform="matrix(1 0 0 1.06061 2376 2031)"/><path d="M4.92321 13.7322 6.69631 13.7322C7.00885 13.7322 7.2622 13.9855 7.2622 14.298L7.2622 27.3889C7.2622 28.014 6.75549 28.5206 6.13043 28.5206L4.35732 28.5206 4.35732 28.5206 4.35732 14.298C4.35732 13.9855 4.61067 13.7322 4.92321 13.7322Z" fill="#50E6FF" transform="matrix(-0.686297 0.729927 -0.688215 -0.727892 2400.16 2063.92)"/><path d="M4.82968 5.48999 6.60308 5.48999C6.91567 5.48999 7.16906 5.74338 7.16906 6.05597L7.16906 20.0734 7.16906 20.0734 5.39566 20.0734C4.7705 20.0734 4.26371 19.5666 4.26371 18.9414L4.26371 6.05597C4.26371 5.74338 4.51709 5.48999 4.82968 5.48999Z" fill="#1490DF" transform="matrix(0.688102 0.727772 -0.686184 0.729807 2386.38 2030.69)"/><path d="M26.6909 13.7322 28.4641 13.7322C29.0892 13.7322 29.5958 14.2389 29.5958 14.8639L29.5958 27.9548C29.5958 28.2673 29.3425 28.5206 29.0299 28.5206L27.2568 28.5206C26.9443 28.5206 26.6909 28.2673 26.6909 27.9548L26.6909 13.7322 26.6909 13.7322Z" fill="#50E6FF" transform="matrix(0.686297 0.729927 -0.688215 0.727892 2398.59 2016.84)"/><path d="M27.9405 5.48999 29.7139 5.48999 29.7139 5.48999 29.7139 19.5074C29.7139 19.82 29.4605 20.0734 29.1479 20.0734L27.3556 20.0734C27.043 20.0734 26.7897 19.82 26.7897 19.5074L26.7897 6.62195C26.7897 5.99679 27.2964 5.48999 27.9216 5.48999Z" fill="#1490DF" transform="matrix(-0.688102 0.727772 -0.686184 -0.729807 2431.66 2032.92)"/></g></g></g><g><g><g><path d="M107.52 1.30667C109.582 1.30667 111.253 2.97814 111.253 5.04L111.253 72.24C111.253 74.3019 109.582 75.9734 107.52 75.9734L2.98667 75.9734C0.924808 75.9734-0.746663 74.3019-0.746663 72.24L-0.746663 5.04C-0.746663 2.97814 0.924808 1.30667 2.98667 1.30667Z" fill="url(#fill71)" transform="matrix(1.00893 0 0 1 2176 1927)"/><path d="M73.92 27.7511 73.92 49.4667 55.2534 60.4178 55.2534 38.64 73.92 27.7511Z" fill="#50E6FF" transform="matrix(1.00893 0 0 1 2176 1927)"/><path d="M73.92 27.7511 55.2534 38.7022 36.5867 27.7511 55.2534 16.8622 73.92 27.7511Z" fill="#C3F1FF" transform="matrix(1.00893 0 0 1 2176 1927)"/><path d="M55.2534 38.7022 55.2534 60.4178 36.5867 49.4667 36.5867 27.7511 55.2534 38.7022Z" fill="#9CEBFF" transform="matrix(1.00893 0 0 1 2176 1927)"/><path d="M36.5867 49.4667 55.2534 38.64 55.2534 60.4178 36.5867 49.4667Z" fill="#C3F1FF" transform="matrix(1.00893 0 0 1 2176 1927)"/><path d="M73.92 49.4667 55.2534 38.64 55.2534 60.4178 73.92 49.4667Z" fill="#9CEBFF" transform="matrix(1.00893 0 0 1 2176 1927)"/><path d="M77.7156 98.5601C66.64 96.8178 66.2045 88.8534 66.2045 75.9734L44.24 75.9734C44.24 88.8534 43.8667 96.8178 32.7911 98.5601 29.6245 98.9104 27.234 101.596 27.2533 104.782L83.2534 104.782C83.2727 101.596 80.8821 98.9104 77.7156 98.5601Z" fill="url(#fill72)" transform="matrix(1.00893 0 0 1 2176 1927)"/></g></g></g><path d="M2395.83 1628.5C2411.11 1628.5 2423.5 1640.89 2423.5 1656.17L2423.5 1766.83C2423.5 1782.11 2411.11 1794.5 2395.83 1794.5L1889.17 1794.5C1873.89 1794.5 1861.5 1782.11 1861.5 1766.83L1861.5 1656.17C1861.5 1640.89 1873.89 1628.5 1889.17 1628.5Z" stroke="#2F528F" stroke-width="4.58333" stroke-miterlimit="8" stroke-dasharray="4.58333 4.58333" fill="#F2F2F2" fill-rule="evenodd"/><path d="M2362 1778C2362 1774.69 2364.69 1772 2368 1772L2417 1772C2420.31 1772 2423 1774.69 2423 1778L2423 1802C2423 1805.31 2420.31 1808 2417 1808L2368 1808C2364.69 1808 2362 1805.31 2362 1802Z" stroke="#2F528F" stroke-width="2.29167" stroke-miterlimit="8" fill="#FFFFFF" fill-rule="evenodd"/><g clip-path="url(#clip73)"><g clip-path="url(#clip74)"><g clip-path="url(#clip75)"><path d="M25.4833 16.4817C25.4833 17.6562 24.5312 18.6083 23.3567 18.6083 22.1821 18.6083 21.23 17.6562 21.23 16.4817 21.23 15.3071 22.1821 14.355 23.3567 14.355 24.5312 14.355 25.4833 15.3071 25.4833 16.4817Z" fill="url(#fill76)" transform="matrix(1 0 0 1.06061 2376 1774)"/><path d="M18.7 16.5C18.7 17.6745 17.7479 18.6267 16.5733 18.6267 15.3988 18.6267 14.4467 17.6745 14.4467 16.5 14.4467 15.3255 15.3988 14.3733 16.5733 14.3733 17.7479 14.3733 18.7 15.3255 18.7 16.5Z" fill="url(#fill77)" transform="matrix(1 0 0 1.06061 2376 1774)"/><path d="M11.9167 16.5C11.9167 17.6745 10.9645 18.6267 9.79 18.6267 8.61547 18.6267 7.66333 17.6745 7.66333 16.5 7.66333 15.3255 8.61547 14.3733 9.79 14.3733 10.9645 14.3733 11.9167 15.3255 11.9167 16.5Z" fill="url(#fill78)" transform="matrix(1 0 0 1.06061 2376 1774)"/><path d="M4.92321 13.7322 6.69631 13.7322C7.00885 13.7322 7.2622 13.9855 7.2622 14.298L7.2622 27.3889C7.2622 28.014 6.75549 28.5206 6.13043 28.5206L4.35732 28.5206 4.35732 28.5206 4.35732 14.298C4.35732 13.9855 4.61067 13.7322 4.92321 13.7322Z" fill="#50E6FF" transform="matrix(-0.686297 0.729927 -0.688215 -0.727892 2400.16 1806.92)"/><path d="M4.82968 5.48999 6.60308 5.48999C6.91567 5.48999 7.16906 5.74338 7.16906 6.05597L7.16906 20.0734 7.16906 20.0734 5.39566 20.0734C4.7705 20.0734 4.26371 19.5666 4.26371 18.9414L4.26371 6.05597C4.26371 5.74338 4.51709 5.48999 4.82968 5.48999Z" fill="#1490DF" transform="matrix(0.688102 0.727772 -0.686184 0.729807 2386.38 1773.69)"/><path d="M26.6909 13.7322 28.4641 13.7322C29.0892 13.7322 29.5958 14.2389 29.5958 14.8639L29.5958 27.9548C29.5958 28.2673 29.3425 28.5206 29.0299 28.5206L27.2568 28.5206C26.9443 28.5206 26.6909 28.2673 26.6909 27.9548L26.6909 13.7322 26.6909 13.7322Z" fill="#50E6FF" transform="matrix(0.686297 0.729927 -0.688215 0.727892 2398.59 1759.84)"/><path d="M27.9405 5.48999 29.7139 5.48999 29.7139 5.48999 29.7139 19.5074C29.7139 19.82 29.4605 20.0734 29.1479 20.0734L27.3556 20.0734C27.043 20.0734 26.7897 19.82 26.7897 19.5074L26.7897 6.62195C26.7897 5.99679 27.2964 5.48999 27.9216 5.48999Z" fill="#1490DF" transform="matrix(-0.688102 0.727772 -0.686184 -0.729807 2431.66 1775.93)"/></g></g></g><rect x="1665.5" y="1410.5" width="970" height="800" stroke="#BFBFBF" stroke-width="4.58333" stroke-linecap="square" stroke-miterlimit="8" stroke-dasharray="13.75 4.58333" fill="none"/><path d="M2330 1388.67C2330 1382.78 2334.78 1378 2340.67 1378L2673.33 1378C2679.22 1378 2684 1382.78 2684 1388.67L2684 1431.33C2684 1437.22 2679.22 1442 2673.33 1442L2340.67 1442C2334.78 1442 2330 1437.22 2330 1431.33Z" stroke="#BFBFBF" stroke-width="2.29167" stroke-miterlimit="8" fill="#FFFFFF" fill-rule="evenodd"/><text font-family="Calibri,Calibri_MSFontService,sans-serif" font-weight="700" font-size="41" transform="matrix(1 0 0 1 2376.96 1424)">Landing Zone B</text><g><g><g><path d="M107.52 1.30666C109.582 1.30666 111.253 2.97813 111.253 5.03999L111.253 72.2398C111.253 74.3017 109.582 75.9731 107.52 75.9731L2.98666 75.9731C0.924805 75.9731-0.74666 74.3017-0.74666 72.2398L-0.74666 5.03998C-0.74666 2.97813 0.924805 1.30666 2.98666 1.30666Z" fill="url(#fill79)" transform="matrix(1.00893 0 0 1 1978 1665)"/><path d="M73.9198 27.751 73.9198 49.4665 55.2532 60.4176 55.2532 38.6399 73.9198 27.751Z" fill="#50E6FF" transform="matrix(1.00893 0 0 1 1978 1665)"/><path d="M73.9198 27.751 55.2532 38.7021 36.5866 27.751 55.2532 16.8622 73.9198 27.751Z" fill="#C3F1FF" transform="matrix(1.00893 0 0 1 1978 1665)"/><path d="M55.2532 38.7021 55.2532 60.4176 36.5866 49.4665 36.5866 27.751 55.2532 38.7021Z" fill="#9CEBFF" transform="matrix(1.00893 0 0 1 1978 1665)"/><path d="M36.5866 49.4665 55.2532 38.6399 55.2532 60.4176 36.5866 49.4665Z" fill="#C3F1FF" transform="matrix(1.00893 0 0 1 1978 1665)"/><path d="M73.9198 49.4665 55.2532 38.6399 55.2532 60.4176 73.9198 49.4665Z" fill="#9CEBFF" transform="matrix(1.00893 0 0 1 1978 1665)"/><path d="M77.7153 98.5597C66.6398 96.8175 66.2043 88.8531 66.2043 75.9731L44.2399 75.9731C44.2399 88.8531 43.8666 96.8175 32.791 98.5597 29.6244 98.91 27.2339 101.596 27.2533 104.782L83.2531 104.782C83.2724 101.596 80.8818 98.91 77.7153 98.5597Z" fill="url(#fill80)" transform="matrix(1.00893 0 0 1 1978 1665)"/></g></g></g><g><g><g><path d="M107.52 1.30666C109.582 1.30666 111.253 2.97813 111.253 5.03999L111.253 72.2398C111.253 74.3017 109.582 75.9731 107.52 75.9731L2.98666 75.9731C0.924805 75.9731-0.74666 74.3017-0.74666 72.2398L-0.74666 5.03998C-0.74666 2.97813 0.924805 1.30666 2.98666 1.30666Z" fill="url(#fill81)" transform="matrix(1 0 0 1 2166 1665)"/><path d="M73.9198 27.751 73.9198 49.4665 55.2532 60.4176 55.2532 38.6399 73.9198 27.751Z" fill="#50E6FF" transform="matrix(1 0 0 1 2166 1665)"/><path d="M73.9198 27.751 55.2532 38.7021 36.5866 27.751 55.2532 16.8622 73.9198 27.751Z" fill="#C3F1FF" transform="matrix(1 0 0 1 2166 1665)"/><path d="M55.2532 38.7021 55.2532 60.4176 36.5866 49.4665 36.5866 27.751 55.2532 38.7021Z" fill="#9CEBFF" transform="matrix(1 0 0 1 2166 1665)"/><path d="M36.5866 49.4665 55.2532 38.6399 55.2532 60.4176 36.5866 49.4665Z" fill="#C3F1FF" transform="matrix(1 0 0 1 2166 1665)"/><path d="M73.9198 49.4665 55.2532 38.6399 55.2532 60.4176 73.9198 49.4665Z" fill="#9CEBFF" transform="matrix(1 0 0 1 2166 1665)"/><path d="M77.7153 98.5597C66.6398 96.8175 66.2043 88.8531 66.2043 75.9731L44.2399 75.9731C44.2399 88.8531 43.8666 96.8175 32.791 98.5597 29.6244 98.91 27.2339 101.596 27.2533 104.782L83.2531 104.782C83.2724 101.596 80.8818 98.91 77.7153 98.5597Z" fill="url(#fill82)" transform="matrix(1 0 0 1 2166 1665)"/></g></g></g><path d="M962 1437 1807.79 1830.17" stroke="#4472C4" stroke-width="2.29167" stroke-miterlimit="8" fill="none" fill-rule="evenodd"/><path d="M1304.42 1565.93C1308.73 1557.45 1319.11 1554.07 1327.6 1558.38L1493.15 1642.59C1501.64 1646.9 1505.02 1657.28 1500.7 1665.77L1469.44 1727.24C1465.12 1735.72 1454.74 1739.1 1446.26 1734.79L1280.71 1650.58C1272.22 1646.26 1268.84 1635.88 1273.15 1627.4Z" stroke="#2F528F" stroke-width="2.29167" stroke-miterlimit="8" fill="#FFFFFF" fill-rule="evenodd"/><text font-family="Calibri,Calibri_MSFontService,sans-serif" font-weight="700" font-size="41" transform="matrix(0.891326 0.453363 -0.453363 0.891326 1353.13 1618)">VNet</text><text font-family="Calibri,Calibri_MSFontService,sans-serif" font-weight="700" font-size="41" transform="matrix(0.891326 0.453363 -0.453363 0.891326 1311.52 1651)">Peering</text></g></svg>
