<svg width="2981" height="1851" xmlns="http://www.w3.org/2000/svg" xmlns:xlink="http://www.w3.org/1999/xlink" xml:space="preserve" overflow="hidden" style="background-color: white"><defs><clipPath id="clip0"><rect x="221" y="1072" width="105" height="101"/></clipPath><clipPath id="clip1"><rect x="221" y="1072" width="105" height="101"/></clipPath><clipPath id="clip2"><rect x="221" y="1072" width="105" height="101"/></clipPath><linearGradient x1="66.2333" y1="45.4233" x2="75.3571" y2="54.5217" gradientUnits="userSpaceOnUse" spreadMethod="pad" id="fill3"><stop offset="0" stop-color="#86D633"/><stop offset="1" stop-color="#5E9624"/></linearGradient><linearGradient x1="34.3333" y1="47.7222" x2="43.3889" y2="56.8333" gradientUnits="userSpaceOnUse" spreadMethod="pad" id="fill4"><stop offset="0" stop-color="#86D633"/><stop offset="1" stop-color="#5E9624"/></linearGradient><linearGradient x1="13.7778" y1="47.7222" x2="22.8333" y2="56.8333" gradientUnits="userSpaceOnUse" spreadMethod="pad" id="fill5"><stop offset="0" stop-color="#86D633"/><stop offset="1" stop-color="#5E9624"/></linearGradient><clipPath id="clip6"><rect x="873" y="1670" width="34" height="37"/></clipPath><clipPath id="clip7"><rect x="873" y="1670" width="34" height="37"/></clipPath><clipPath id="clip8"><rect x="873" y="1670" width="34" height="37"/></clipPath><linearGradient x1="21.857" y1="14.9897" x2="24.8678" y2="17.9922" gradientUnits="userSpaceOnUse" spreadMethod="pad" id="fill9"><stop offset="0" stop-color="#86D633"/><stop offset="1" stop-color="#5E9624"/></linearGradient><linearGradient x1="11.33" y1="15.7483" x2="14.3183" y2="18.755" gradientUnits="userSpaceOnUse" spreadMethod="pad" id="fill10"><stop offset="0" stop-color="#86D633"/><stop offset="1" stop-color="#5E9624"/></linearGradient><linearGradient x1="4.54667" y1="15.7483" x2="7.535" y2="18.755" gradientUnits="userSpaceOnUse" spreadMethod="pad" id="fill11"><stop offset="0" stop-color="#86D633"/><stop offset="1" stop-color="#5E9624"/></linearGradient><clipPath id="clip12"><rect x="566" y="1670" width="34" height="37"/></clipPath><clipPath id="clip13"><rect x="566" y="1670" width="34" height="37"/></clipPath><clipPath id="clip14"><rect x="566" y="1670" width="34" height="37"/></clipPath><linearGradient x1="21.857" y1="14.9897" x2="24.8678" y2="17.9922" gradientUnits="userSpaceOnUse" spreadMethod="pad" id="fill15"><stop offset="0" stop-color="#86D633"/><stop offset="1" stop-color="#5E9624"/></linearGradient><linearGradient x1="11.33" y1="15.7483" x2="14.3183" y2="18.755" gradientUnits="userSpaceOnUse" spreadMethod="pad" id="fill16"><stop offset="0" stop-color="#86D633"/><stop offset="1" stop-color="#5E9624"/></linearGradient><linearGradient x1="4.54667" y1="15.7483" x2="7.535" y2="18.755" gradientUnits="userSpaceOnUse" spreadMethod="pad" id="fill17"><stop offset="0" stop-color="#86D633"/><stop offset="1" stop-color="#5E9624"/></linearGradient><clipPath id="clip18"><rect x="872" y="1387" width="35" height="36"/></clipPath><clipPath id="clip19"><rect x="872" y="1387" width="35" height="36"/></clipPath><clipPath id="clip20"><rect x="872" y="1387" width="35" height="36"/></clipPath><linearGradient x1="22.5193" y1="15.4439" x2="25.6214" y2="18.5374" gradientUnits="userSpaceOnUse" spreadMethod="pad" id="fill21"><stop offset="0" stop-color="#86D633"/><stop offset="1" stop-color="#5E9624"/></linearGradient><linearGradient x1="11.6733" y1="16.2256" x2="14.7522" y2="19.3234" gradientUnits="userSpaceOnUse" spreadMethod="pad" id="fill22"><stop offset="0" stop-color="#86D633"/><stop offset="1" stop-color="#5E9624"/></linearGradient><linearGradient x1="4.68445" y1="16.2256" x2="7.76334" y2="19.3234" gradientUnits="userSpaceOnUse" spreadMethod="pad" id="fill23"><stop offset="0" stop-color="#86D633"/><stop offset="1" stop-color="#5E9624"/></linearGradient><linearGradient x1="472.5" y1="1621.33" x2="472.5" y2="1519.96" gradientUnits="userSpaceOnUse" spreadMethod="pad" id="fill24"><stop offset="0" stop-color="#0078D4"/><stop offset="0.82" stop-color="#5EA0EF"/><stop offset="1" stop-color="#5EA0EF"/></linearGradient><clipPath id="clip25"><rect x="706" y="1522" width="149" height="149"/></clipPath><clipPath id="clip26"><rect x="706" y="1522" width="149" height="149"/></clipPath><clipPath id="clip27"><rect x="706" y="1522" width="149" height="149"/></clipPath><linearGradient x1="779.507" y1="1623.07" x2="779.507" y2="1523.74" gradientUnits="userSpaceOnUse" spreadMethod="pad" id="fill28"><stop offset="0" stop-color="#0078D4"/><stop offset="0.82" stop-color="#5EA0EF"/><stop offset="1" stop-color="#5EA0EF"/></linearGradient><linearGradient x1="779.507" y1="1661.4" x2="779.507" y2="1623.07" gradientUnits="userSpaceOnUse" spreadMethod="pad" id="fill29"><stop offset="0" stop-color="#CCCCCC"/><stop offset="0.15" stop-color="#CCCCCC"/><stop offset="1" stop-color="#707070"/></linearGradient><linearGradient x1="71.1062" y1="-64.484" x2="75.4934" y2="165.97" gradientUnits="userSpaceOnUse" spreadMethod="pad" id="fill30"><stop offset="0" stop-color="#32D4F5"/><stop offset="0.22" stop-color="#32D4F5"/><stop offset="0.47" stop-color="#31D1F3"/><stop offset="0.63" stop-color="#2EC9EB"/><stop offset="0.77" stop-color="#29BADE"/><stop offset="0.89" stop-color="#22A5CB"/><stop offset="1" stop-color="#198AB3"/><stop offset="1" stop-color="#198AB3"/></linearGradient><clipPath id="clip31"><rect x="1529" y="543" width="105" height="100"/></clipPath><clipPath id="clip32"><rect x="1529" y="543" width="105" height="100"/></clipPath><clipPath id="clip33"><rect x="1529" y="543" width="105" height="100"/></clipPath><linearGradient x1="65.5709" y1="44.9691" x2="74.6035" y2="53.9765" gradientUnits="userSpaceOnUse" spreadMethod="pad" id="fill34"><stop offset="0" stop-color="#86D633"/><stop offset="1" stop-color="#5E9624"/></linearGradient><linearGradient x1="33.99" y1="47.245" x2="42.955" y2="56.265" gradientUnits="userSpaceOnUse" spreadMethod="pad" id="fill35"><stop offset="0" stop-color="#86D633"/><stop offset="1" stop-color="#5E9624"/></linearGradient><linearGradient x1="13.64" y1="47.245" x2="22.605" y2="56.265" gradientUnits="userSpaceOnUse" spreadMethod="pad" id="fill36"><stop offset="0" stop-color="#86D633"/><stop offset="1" stop-color="#5E9624"/></linearGradient><clipPath id="clip37"><rect x="1989" y="2030" width="34" height="36"/></clipPath><clipPath id="clip38"><rect x="1989" y="2030" width="34" height="36"/></clipPath><clipPath id="clip39"><rect x="1989" y="2030" width="34" height="36"/></clipPath><linearGradient x1="21.857" y1="14.9897" x2="24.8678" y2="17.9922" gradientUnits="userSpaceOnUse" spreadMethod="pad" id="fill40"><stop offset="0" stop-color="#86D633"/><stop offset="1" stop-color="#5E9624"/></linearGradient><linearGradient x1="11.33" y1="15.7483" x2="14.3183" y2="18.755" gradientUnits="userSpaceOnUse" spreadMethod="pad" id="fill41"><stop offset="0" stop-color="#86D633"/><stop offset="1" stop-color="#5E9624"/></linearGradient><linearGradient x1="4.54667" y1="15.7483" x2="7.535" y2="18.755" gradientUnits="userSpaceOnUse" spreadMethod="pad" id="fill42"><stop offset="0" stop-color="#86D633"/><stop offset="1" stop-color="#5E9624"/></linearGradient><clipPath id="clip43"><rect x="1987" y="1774" width="35" height="36"/></clipPath><clipPath id="clip44"><rect x="1987" y="1774" width="35" height="36"/></clipPath><clipPath id="clip45"><rect x="1987" y="1774" width="35" height="36"/></clipPath><linearGradient x1="22.5193" y1="15.4439" x2="25.6214" y2="18.5374" gradientUnits="userSpaceOnUse" spreadMethod="pad" id="fill46"><stop offset="0" stop-color="#86D633"/><stop offset="1" stop-color="#5E9624"/></linearGradient><linearGradient x1="11.6733" y1="16.2256" x2="14.7522" y2="19.3234" gradientUnits="userSpaceOnUse" spreadMethod="pad" id="fill47"><stop offset="0" stop-color="#86D633"/><stop offset="1" stop-color="#5E9624"/></linearGradient><linearGradient x1="4.68445" y1="16.2256" x2="7.76334" y2="19.3234" gradientUnits="userSpaceOnUse" spreadMethod="pad" id="fill48"><stop offset="0" stop-color="#86D633"/><stop offset="1" stop-color="#5E9624"/></linearGradient><clipPath id="clip49"><rect x="1720" y="1665" width="108" height="108"/></clipPath><clipPath id="clip50"><rect x="1720" y="1665" width="108" height="108"/></clipPath><clipPath id="clip51"><rect x="1720" y="1665" width="108" height="108"/></clipPath><linearGradient x1="1765.77" y1="1719.81" x2="1765.77" y2="1746.5" gradientUnits="userSpaceOnUse" spreadMethod="pad" id="fill52"><stop offset="0" stop-color="#5EA0EF"/><stop offset="0.23" stop-color="#5EA0EF"/><stop offset="0.32" stop-color="#5B9FEE"/><stop offset="0.48" stop-color="#509AEB"/><stop offset="0.57" stop-color="#3F92E6"/><stop offset="0.75" stop-color="#2688DF"/><stop offset="0.93" stop-color="#127FD9"/><stop offset="1" stop-color="#127FD9"/></linearGradient><linearGradient x1="1779.01" y1="1730.93" x2="1779.01" y2="1757.63" gradientUnits="userSpaceOnUse" spreadMethod="pad" id="fill53"><stop offset="0" stop-color="#5EA0EF"/><stop offset="0.02" stop-color="#5EA0EF"/><stop offset="0.14" stop-color="#5B9FEE"/><stop offset="0.23" stop-color="#5B9FEE"/><stop offset="0.34" stop-color="#509AEB"/><stop offset="0.44" stop-color="#3F92E6"/><stop offset="0.63" stop-color="#2688DF"/><stop offset="0.93" stop-color="#127FD9"/><stop offset="1" stop-color="#127FD9"/></linearGradient><linearGradient x1="1725.43" y1="880.2" x2="1821.58" y2="880.2" gradientUnits="userSpaceOnUse" spreadMethod="pad" id="fill54"><stop offset="0" stop-color="#005BA1"/><stop offset="0.07" stop-color="#0060A9"/><stop offset="0.36" stop-color="#0071C8"/><stop offset="0.52" stop-color="#0078D4"/><stop offset="0.64" stop-color="#0074CD"/><stop offset="0.82" stop-color="#006ABB"/><stop offset="1" stop-color="#005BA1"/></linearGradient><radialGradient cx="9.36" cy="10.57" r="7.07" gradientUnits="userSpaceOnUse" spreadMethod="pad" id="fill55" gradientTransform="matrix(7.50001 0 0 7.50001 1706 804)"><stop offset="0" stop-color="#F2F2F2"/><stop offset="0.58" stop-color="#EEEEEE"/><stop offset="1" stop-color="#E6E6E6"/></radialGradient><clipPath id="clip56"><rect x="1712" y="1908" width="120" height="121"/></clipPath><clipPath id="clip57"><rect x="1712" y="1908" width="120" height="121"/></clipPath><clipPath id="clip58"><rect x="1712" y="1908" width="120" height="121"/></clipPath><linearGradient x1="19.4367" y1="24.7255" x2="57.3183" y2="24.7255" gradientUnits="userSpaceOnUse" spreadMethod="pad" id="fill59"><stop offset="0" stop-color="#B77AF4"/><stop offset="1" stop-color="#773ADC"/></linearGradient><linearGradient x1="60.3594" y1="25.0561" x2="98.1749" y2="25.0561" gradientUnits="userSpaceOnUse" spreadMethod="pad" id="fill60"><stop offset="0" stop-color="#B77AF4"/><stop offset="1" stop-color="#773ADC"/></linearGradient><linearGradient x1="0.0661111" y1="60.2933" x2="37.8816" y2="60.2933" gradientUnits="userSpaceOnUse" spreadMethod="pad" id="fill61"><stop offset="0" stop-color="#B77AF4"/><stop offset="1" stop-color="#773ADC"/></linearGradient><linearGradient x1="40.8566" y1="60.0289" x2="78.6722" y2="60.0289" gradientUnits="userSpaceOnUse" spreadMethod="pad" id="fill62"><stop offset="0" stop-color="#B77AF4"/><stop offset="1" stop-color="#773ADC"/></linearGradient><linearGradient x1="81.6472" y1="60.3594" x2="119.529" y2="60.3594" gradientUnits="userSpaceOnUse" spreadMethod="pad" id="fill63"><stop offset="0" stop-color="#B77AF4"/><stop offset="1" stop-color="#773ADC"/></linearGradient><linearGradient x1="18.9739" y1="96.2577" x2="56.8555" y2="96.2577" gradientUnits="userSpaceOnUse" spreadMethod="pad" id="fill64"><stop offset="0" stop-color="#B77AF4"/><stop offset="1" stop-color="#773ADC"/></linearGradient><linearGradient x1="59.8305" y1="96.5222" x2="97.7122" y2="96.5222" gradientUnits="userSpaceOnUse" spreadMethod="pad" id="fill65"><stop offset="0" stop-color="#B77AF4"/><stop offset="1" stop-color="#773ADC"/></linearGradient><clipPath id="clip66"><rect x="2382" y="543" width="107" height="100"/></clipPath><clipPath id="clip67"><rect x="2382" y="543" width="107" height="100"/></clipPath><clipPath id="clip68"><rect x="2382" y="543" width="107" height="100"/></clipPath><linearGradient x1="65.5709" y1="44.9691" x2="74.6035" y2="53.9765" gradientUnits="userSpaceOnUse" spreadMethod="pad" id="fill69"><stop offset="0" stop-color="#86D633"/><stop offset="1" stop-color="#5E9624"/></linearGradient><linearGradient x1="33.99" y1="47.245" x2="42.955" y2="56.265" gradientUnits="userSpaceOnUse" spreadMethod="pad" id="fill70"><stop offset="0" stop-color="#86D633"/><stop offset="1" stop-color="#5E9624"/></linearGradient><linearGradient x1="13.64" y1="47.245" x2="22.605" y2="56.265" gradientUnits="userSpaceOnUse" spreadMethod="pad" id="fill71"><stop offset="0" stop-color="#86D633"/><stop offset="1" stop-color="#5E9624"/></linearGradient><linearGradient x1="55.2534" y1="75.9734" x2="55.2534" y2="1.30667" gradientUnits="userSpaceOnUse" spreadMethod="pad" id="fill72"><stop offset="0" stop-color="#0078D4"/><stop offset="0.82" stop-color="#5EA0EF"/><stop offset="1" stop-color="#5EA0EF"/></linearGradient><linearGradient x1="55.2534" y1="104.782" x2="55.2534" y2="75.9734" gradientUnits="userSpaceOnUse" spreadMethod="pad" id="fill73"><stop offset="0" stop-color="#CCCCCC"/><stop offset="0.15" stop-color="#CCCCCC"/><stop offset="1" stop-color="#707070"/></linearGradient><clipPath id="clip74"><rect x="2934" y="2030" width="34" height="36"/></clipPath><clipPath id="clip75"><rect x="2934" y="2030" width="34" height="36"/></clipPath><clipPath id="clip76"><rect x="2934" y="2030" width="34" height="36"/></clipPath><linearGradient x1="21.857" y1="14.9897" x2="24.8678" y2="17.9922" gradientUnits="userSpaceOnUse" spreadMethod="pad" id="fill77"><stop offset="0" stop-color="#86D633"/><stop offset="1" stop-color="#5E9624"/></linearGradient><linearGradient x1="11.33" y1="15.7483" x2="14.3183" y2="18.755" gradientUnits="userSpaceOnUse" spreadMethod="pad" id="fill78"><stop offset="0" stop-color="#86D633"/><stop offset="1" stop-color="#5E9624"/></linearGradient><linearGradient x1="4.54667" y1="15.7483" x2="7.535" y2="18.755" gradientUnits="userSpaceOnUse" spreadMethod="pad" id="fill79"><stop offset="0" stop-color="#86D633"/><stop offset="1" stop-color="#5E9624"/></linearGradient><linearGradient x1="2791.25" y1="2002.97" x2="2791.25" y2="1928.31" gradientUnits="userSpaceOnUse" spreadMethod="pad" id="fill80"><stop offset="0" stop-color="#0078D4"/><stop offset="0.82" stop-color="#5EA0EF"/><stop offset="1" stop-color="#5EA0EF"/></linearGradient><linearGradient x1="2791.25" y1="2031.78" x2="2791.25" y2="2002.97" gradientUnits="userSpaceOnUse" spreadMethod="pad" id="fill81"><stop offset="0" stop-color="#CCCCCC"/><stop offset="0.15" stop-color="#CCCCCC"/><stop offset="1" stop-color="#707070"/></linearGradient><clipPath id="clip82"><rect x="2934" y="1774" width="34" height="36"/></clipPath><clipPath id="clip83"><rect x="2934" y="1774" width="34" height="36"/></clipPath><clipPath id="clip84"><rect x="2934" y="1774" width="34" height="36"/></clipPath><linearGradient x1="21.857" y1="14.9897" x2="24.8678" y2="17.9922" gradientUnits="userSpaceOnUse" spreadMethod="pad" id="fill85"><stop offset="0" stop-color="#86D633"/><stop offset="1" stop-color="#5E9624"/></linearGradient><linearGradient x1="11.33" y1="15.7483" x2="14.3183" y2="18.755" gradientUnits="userSpaceOnUse" spreadMethod="pad" id="fill86"><stop offset="0" stop-color="#86D633"/><stop offset="1" stop-color="#5E9624"/></linearGradient><linearGradient x1="4.54667" y1="15.7483" x2="7.535" y2="18.755" gradientUnits="userSpaceOnUse" spreadMethod="pad" id="fill87"><stop offset="0" stop-color="#86D633"/><stop offset="1" stop-color="#5E9624"/></linearGradient><clipPath id="clip88"><rect x="2934" y="1072" width="34" height="36"/></clipPath><clipPath id="clip89"><rect x="2934" y="1072" width="34" height="36"/></clipPath><clipPath id="clip90"><rect x="2934" y="1072" width="34" height="36"/></clipPath><linearGradient x1="21.857" y1="14.9897" x2="24.8678" y2="17.9922" gradientUnits="userSpaceOnUse" spreadMethod="pad" id="fill91"><stop offset="0" stop-color="#86D633"/><stop offset="1" stop-color="#5E9624"/></linearGradient><linearGradient x1="11.33" y1="15.7483" x2="14.3183" y2="18.755" gradientUnits="userSpaceOnUse" spreadMethod="pad" id="fill92"><stop offset="0" stop-color="#86D633"/><stop offset="1" stop-color="#5E9624"/></linearGradient><linearGradient x1="4.54667" y1="15.7483" x2="7.535" y2="18.755" gradientUnits="userSpaceOnUse" spreadMethod="pad" id="fill93"><stop offset="0" stop-color="#86D633"/><stop offset="1" stop-color="#5E9624"/></linearGradient><linearGradient x1="57.3148" y1="45.2324" x2="57.3148" y2="78.6656" gradientUnits="userSpaceOnUse" spreadMethod="pad" id="fill94"><stop offset="0" stop-color="#5EA0EF"/><stop offset="0.23" stop-color="#5EA0EF"/><stop offset="0.93" stop-color="#127FD9"/><stop offset="1" stop-color="#127FD9"/></linearGradient><linearGradient x1="73.901" y1="59.1612" x2="73.901" y2="92.594" gradientUnits="userSpaceOnUse" spreadMethod="pad" id="fill95"><stop offset="0" stop-color="#5EA0EF"/><stop offset="0.02" stop-color="#5EA0EF"/><stop offset="0.93" stop-color="#127FD9"/><stop offset="1" stop-color="#127FD9"/></linearGradient><clipPath id="clip96"><rect x="2633" y="1661" width="108" height="107"/></clipPath><clipPath id="clip97"><rect x="2633" y="1661" width="108" height="107"/></clipPath><clipPath id="clip98"><rect x="2633" y="1661" width="108" height="107"/></clipPath><linearGradient x1="2678.77" y1="1715.81" x2="2678.77" y2="1742.5" gradientUnits="userSpaceOnUse" spreadMethod="pad" id="fill99"><stop offset="0" stop-color="#5EA0EF"/><stop offset="0.23" stop-color="#5EA0EF"/><stop offset="0.32" stop-color="#5B9FEE"/><stop offset="0.48" stop-color="#509AEB"/><stop offset="0.57" stop-color="#3F92E6"/><stop offset="0.75" stop-color="#2688DF"/><stop offset="0.93" stop-color="#127FD9"/><stop offset="1" stop-color="#127FD9"/></linearGradient><linearGradient x1="2692.01" y1="1726.93" x2="2692.01" y2="1753.63" gradientUnits="userSpaceOnUse" spreadMethod="pad" id="fill100"><stop offset="0" stop-color="#5EA0EF"/><stop offset="0.02" stop-color="#5EA0EF"/><stop offset="0.14" stop-color="#5B9FEE"/><stop offset="0.23" stop-color="#5B9FEE"/><stop offset="0.34" stop-color="#509AEB"/><stop offset="0.44" stop-color="#3F92E6"/><stop offset="0.63" stop-color="#2688DF"/><stop offset="0.93" stop-color="#127FD9"/><stop offset="1" stop-color="#127FD9"/></linearGradient><clipPath id="clip101"><rect x="2488" y="694" width="113" height="113"/></clipPath><clipPath id="clip102"><rect x="2488" y="694" width="113" height="113"/></clipPath><clipPath id="clip103"><rect x="2488" y="694" width="113" height="113"/></clipPath><linearGradient x1="2543.25" y1="769.973" x2="2543.25" y2="695.307" gradientUnits="userSpaceOnUse" spreadMethod="pad" id="fill104"><stop offset="0" stop-color="#0078D4"/><stop offset="0.82" stop-color="#5EA0EF"/><stop offset="1" stop-color="#5EA0EF"/></linearGradient><linearGradient x1="2543.25" y1="798.782" x2="2543.25" y2="769.973" gradientUnits="userSpaceOnUse" spreadMethod="pad" id="fill105"><stop offset="0" stop-color="#CCCCCC"/><stop offset="0.15" stop-color="#CCCCCC"/><stop offset="1" stop-color="#707070"/></linearGradient><clipPath id="clip106"><rect x="2777" y="695" width="113" height="114"/></clipPath><clipPath id="clip107"><rect x="2777" y="695" width="113" height="114"/></clipPath><clipPath id="clip108"><rect x="2777" y="695" width="113" height="114"/></clipPath><linearGradient x1="55.7465" y1="76.6515" x2="55.7465" y2="1.31833" gradientUnits="userSpaceOnUse" spreadMethod="pad" id="fill109"><stop offset="0" stop-color="#0078D4"/><stop offset="0.82" stop-color="#5EA0EF"/><stop offset="1" stop-color="#5EA0EF"/></linearGradient><linearGradient x1="55.7465" y1="105.718" x2="55.7465" y2="76.6515" gradientUnits="userSpaceOnUse" spreadMethod="pad" id="fill110"><stop offset="0" stop-color="#CCCCCC"/><stop offset="0.15" stop-color="#CCCCCC"/><stop offset="1" stop-color="#707070"/></linearGradient><clipPath id="clip111"><rect x="2636" y="775" width="101" height="100"/></clipPath><clipPath id="clip112"><rect x="2636" y="775" width="101" height="100"/></clipPath><clipPath id="clip113"><rect x="2636" y="775" width="101" height="100"/></clipPath><linearGradient x1="49.9998" y1="110.277" x2="49.9998" y2="-5.66665" gradientUnits="userSpaceOnUse" spreadMethod="pad" id="fill114"><stop offset="0" stop-color="#5E9624"/><stop offset="0.02" stop-color="#5F9724"/><stop offset="1" stop-color="#76BC2D"/></linearGradient><clipPath id="clip115"><rect x="2382" y="1501" width="107" height="100"/></clipPath><clipPath id="clip116"><rect x="2382" y="1501" width="107" height="100"/></clipPath><clipPath id="clip117"><rect x="2382" y="1501" width="107" height="100"/></clipPath><linearGradient x1="65.5709" y1="44.9691" x2="74.6035" y2="53.9765" gradientUnits="userSpaceOnUse" spreadMethod="pad" id="fill118"><stop offset="0" stop-color="#86D633"/><stop offset="1" stop-color="#5E9624"/></linearGradient><linearGradient x1="33.99" y1="47.245" x2="42.955" y2="56.265" gradientUnits="userSpaceOnUse" spreadMethod="pad" id="fill119"><stop offset="0" stop-color="#86D633"/><stop offset="1" stop-color="#5E9624"/></linearGradient><linearGradient x1="13.64" y1="47.245" x2="22.605" y2="56.265" gradientUnits="userSpaceOnUse" spreadMethod="pad" id="fill120"><stop offset="0" stop-color="#86D633"/><stop offset="1" stop-color="#5E9624"/></linearGradient><clipPath id="clip121"><rect x="1529" y="1501" width="105" height="100"/></clipPath><clipPath id="clip122"><rect x="1529" y="1501" width="105" height="100"/></clipPath><clipPath id="clip123"><rect x="1529" y="1501" width="105" height="100"/></clipPath><linearGradient x1="65.5709" y1="44.9691" x2="74.6035" y2="53.9765" gradientUnits="userSpaceOnUse" spreadMethod="pad" id="fill124"><stop offset="0" stop-color="#86D633"/><stop offset="1" stop-color="#5E9624"/></linearGradient><linearGradient x1="33.99" y1="47.245" x2="42.955" y2="56.265" gradientUnits="userSpaceOnUse" spreadMethod="pad" id="fill125"><stop offset="0" stop-color="#86D633"/><stop offset="1" stop-color="#5E9624"/></linearGradient><linearGradient x1="13.64" y1="47.245" x2="22.605" y2="56.265" gradientUnits="userSpaceOnUse" spreadMethod="pad" id="fill126"><stop offset="0" stop-color="#86D633"/><stop offset="1" stop-color="#5E9624"/></linearGradient></defs><g transform="translate(-213 -414)"><path d="M264.5 1226.84C264.5 1168.66 311.66 1121.5 369.835 1121.5L857.165 1121.5C915.34 1121.5 962.5 1168.66 962.5 1226.84L962.5 1648.16C962.5 1706.34 915.34 1753.5 857.165 1753.5L369.835 1753.5C311.66 1753.5 264.5 1706.34 264.5 1648.16Z" stroke="#2F528F" stroke-width="4.58333" stroke-miterlimit="8" stroke-dasharray="4.58333 4.58333" fill="#E9F5FD" fill-rule="evenodd"/><path d="M214 1086.17C214 1076.69 221.686 1069 231.167 1069L575.833 1069C585.314 1069 593 1076.69 593 1086.17L593 1154.83C593 1164.31 585.314 1172 575.833 1172L231.167 1172C221.686 1172 214 1164.31 214 1154.83Z" stroke="#2F528F" stroke-width="2.29167" stroke-miterlimit="8" fill="#FFFFFF" fill-rule="evenodd"/><text font-family="Calibri,Calibri_MSFontService,sans-serif" font-weight="700" font-size="41" transform="matrix(1 0 0 1 319.011 1110)">Routable Hub</text><text font-family="Calibri,Calibri_MSFontService,sans-serif" font-weight="700" font-size="41" transform="matrix(1 0 0 1 360.261 1159)">10.1.0.0/24</text><g clip-path="url(#clip0)"><g clip-path="url(#clip1)"><g clip-path="url(#clip2)"><path d="M77.2222 49.9445C77.2222 53.5036 74.337 56.3889 70.7778 56.3889 67.2186 56.3889 64.3334 53.5036 64.3334 49.9445 64.3334 46.3853 67.2186 43.5 70.7778 43.5 74.337 43.5 77.2222 46.3853 77.2222 49.9445Z" fill="url(#fill3)" transform="matrix(1.05 0 0 1 221 1073)"/><path d="M56.6667 50C56.6667 53.5592 53.7814 56.4445 50.2222 56.4445 46.6631 56.4445 43.7778 53.5592 43.7778 50 43.7778 46.4408 46.6631 43.5556 50.2222 43.5556 53.7814 43.5556 56.6667 46.4408 56.6667 50Z" fill="url(#fill4)" transform="matrix(1.05 0 0 1 221 1073)"/><path d="M36.1111 50C36.1111 53.5592 33.2258 56.4445 29.6667 56.4445 26.1075 56.4445 23.2222 53.5592 23.2222 50 23.2222 46.4408 26.1075 43.5556 29.6667 43.5556 33.2258 43.5556 36.1111 46.4408 36.1111 50Z" fill="url(#fill5)" transform="matrix(1.05 0 0 1 221 1073)"/><path d="M14.8502 41.4214 20.1986 41.4214C21.1413 41.4214 21.9055 42.1856 21.9055 43.1283L21.9055 82.6152C21.9055 84.5007 20.3771 86.029 18.4917 86.029L13.1433 86.029 13.1433 86.029 13.1433 43.1283C13.1433 42.1856 13.9075 41.4214 14.8502 41.4214Z" fill="#50E6FF" transform="matrix(-0.723937 0.691393 -0.725961 -0.689465 297.883 1167.06)"/><path d="M14.5638 16.5549 19.9114 16.5549C20.854 16.5549 21.6181 17.319 21.6181 18.2616L21.6181 60.5307 21.6181 60.5307 16.2705 60.5307C14.3853 60.5307 12.8571 59.0026 12.8571 57.1173L12.8571 18.2616C12.8571 17.319 13.6212 16.5549 14.5638 16.5549Z" fill="#1490DF" transform="matrix(0.72606 0.689559 -0.724036 0.691487 254.017 1072.11)"/><path d="M80.5099 41.4214 85.8583 41.4214C87.7439 41.4214 89.2721 42.9498 89.2721 44.8352L89.2721 84.3221C89.2721 85.2649 88.508 86.029 87.5652 86.029L82.2169 86.029C81.2741 86.029 80.5099 85.2649 80.5099 84.3221L80.5099 41.4214 80.5099 41.4214Z" fill="#50E6FF" transform="matrix(0.723937 0.691393 -0.725961 0.689465 292.867 1032.56)"/><path d="M84.2537 16.5549 89.6013 16.5549 89.6013 16.5549 89.6013 58.824C89.6013 59.7667 88.8373 60.5307 87.8946 60.5307L82.4901 60.5307C81.5475 60.5307 80.7834 59.7667 80.7834 58.824L80.7834 19.9683C80.7834 18.0831 82.3115 16.5549 84.1968 16.5549Z" fill="#1490DF" transform="matrix(-0.72606 0.689559 -0.724036 -0.691487 398.1 1078.5)"/></g></g></g><path d="M856.666 1461.5C877.561 1461.5 894.5 1478.44 894.5 1499.33L894.5 1656.67C894.5 1677.56 877.561 1694.5 856.666 1694.5L705.334 1694.5C684.439 1694.5 667.5 1677.56 667.5 1656.67L667.5 1499.33C667.5 1478.44 684.439 1461.5 705.334 1461.5Z" stroke="#2F528F" stroke-width="4.58333" stroke-miterlimit="8" stroke-dasharray="4.58333 4.58333" fill="#F2F2F2" fill-rule="evenodd"/><path d="M859 1675.17C859 1671.76 861.761 1669 865.167 1669L913.833 1669C917.239 1669 920 1671.76 920 1675.17L920 1699.83C920 1703.24 917.239 1706 913.833 1706L865.167 1706C861.761 1706 859 1703.24 859 1699.83Z" stroke="#2F528F" stroke-width="2.29167" stroke-miterlimit="8" fill="#FFFFFF" fill-rule="evenodd"/><g clip-path="url(#clip6)"><g clip-path="url(#clip7)"><g clip-path="url(#clip8)"><path d="M25.4833 16.4817C25.4833 17.6562 24.5312 18.6083 23.3567 18.6083 22.1821 18.6083 21.23 17.6562 21.23 16.4817 21.23 15.3071 22.1821 14.355 23.3567 14.355 24.5312 14.355 25.4833 15.3071 25.4833 16.4817Z" fill="url(#fill9)" transform="matrix(1 0 0 1.06061 873 1671)"/><path d="M18.7 16.5C18.7 17.6745 17.7479 18.6267 16.5733 18.6267 15.3988 18.6267 14.4467 17.6745 14.4467 16.5 14.4467 15.3255 15.3988 14.3733 16.5733 14.3733 17.7479 14.3733 18.7 15.3255 18.7 16.5Z" fill="url(#fill10)" transform="matrix(1 0 0 1.06061 873 1671)"/><path d="M11.9167 16.5C11.9167 17.6745 10.9645 18.6267 9.79 18.6267 8.61547 18.6267 7.66333 17.6745 7.66333 16.5 7.66333 15.3255 8.61547 14.3733 9.79 14.3733 10.9645 14.3733 11.9167 15.3255 11.9167 16.5Z" fill="url(#fill11)" transform="matrix(1 0 0 1.06061 873 1671)"/><path d="M4.92321 13.7322 6.69631 13.7322C7.00885 13.7322 7.2622 13.9855 7.2622 14.298L7.2622 27.3889C7.2622 28.014 6.75549 28.5206 6.13043 28.5206L4.35732 28.5206 4.35732 28.5206 4.35732 14.298C4.35732 13.9855 4.61067 13.7322 4.92321 13.7322Z" fill="#50E6FF" transform="matrix(-0.686297 0.729927 -0.688215 -0.727892 897.163 1703.92)"/><path d="M4.82968 5.48999 6.60308 5.48999C6.91567 5.48999 7.16906 5.74338 7.16906 6.05597L7.16906 20.0734 7.16906 20.0734 5.39566 20.0734C4.7705 20.0734 4.26371 19.5666 4.26371 18.9414L4.26371 6.05597C4.26371 5.74338 4.51709 5.48999 4.82968 5.48999Z" fill="#1490DF" transform="matrix(0.688102 0.727772 -0.686184 0.729807 883.377 1670.69)"/><path d="M26.6909 13.7322 28.4641 13.7322C29.0892 13.7322 29.5958 14.2389 29.5958 14.8639L29.5958 27.9548C29.5958 28.2673 29.3425 28.5206 29.0299 28.5206L27.2568 28.5206C26.9443 28.5206 26.6909 28.2673 26.6909 27.9548L26.6909 13.7322 26.6909 13.7322Z" fill="#50E6FF" transform="matrix(0.686297 0.729927 -0.688215 0.727892 895.587 1656.84)"/><path d="M27.9405 5.48999 29.7139 5.48999 29.7139 5.48999 29.7139 19.5074C29.7139 19.82 29.4605 20.0734 29.1479 20.0734L27.3556 20.0734C27.043 20.0734 26.7897 19.82 26.7897 19.5074L26.7897 6.62195C26.7897 5.99679 27.2964 5.48999 27.9216 5.48999Z" fill="#1490DF" transform="matrix(-0.688102 0.727772 -0.686184 -0.729807 928.66 1672.92)"/></g></g></g><path d="M548.666 1461.5C569.561 1461.5 586.5 1478.44 586.5 1499.33L586.5 1656.67C586.5 1677.56 569.561 1694.5 548.666 1694.5L397.334 1694.5C376.439 1694.5 359.5 1677.56 359.5 1656.67L359.5 1499.33C359.5 1478.44 376.439 1461.5 397.334 1461.5Z" stroke="#2F528F" stroke-width="4.58333" stroke-miterlimit="8" stroke-dasharray="4.58333 4.58333" fill="#F2F2F2" fill-rule="evenodd"/><path d="M552 1675.17C552 1671.76 554.761 1669 558.167 1669L606.833 1669C610.239 1669 613 1671.76 613 1675.17L613 1699.83C613 1703.24 610.239 1706 606.833 1706L558.167 1706C554.761 1706 552 1703.24 552 1699.83Z" stroke="#2F528F" stroke-width="2.29167" stroke-miterlimit="8" fill="#FFFFFF" fill-rule="evenodd"/><g clip-path="url(#clip12)"><g clip-path="url(#clip13)"><g clip-path="url(#clip14)"><path d="M25.4833 16.4817C25.4833 17.6562 24.5312 18.6083 23.3567 18.6083 22.1821 18.6083 21.23 17.6562 21.23 16.4817 21.23 15.3071 22.1821 14.355 23.3567 14.355 24.5312 14.355 25.4833 15.3071 25.4833 16.4817Z" fill="url(#fill15)" transform="matrix(1 0 0 1.06061 566 1671)"/><path d="M18.7 16.5C18.7 17.6745 17.7479 18.6267 16.5733 18.6267 15.3988 18.6267 14.4467 17.6745 14.4467 16.5 14.4467 15.3255 15.3988 14.3733 16.5733 14.3733 17.7479 14.3733 18.7 15.3255 18.7 16.5Z" fill="url(#fill16)" transform="matrix(1 0 0 1.06061 566 1671)"/><path d="M11.9167 16.5C11.9167 17.6745 10.9645 18.6267 9.79 18.6267 8.61547 18.6267 7.66333 17.6745 7.66333 16.5 7.66333 15.3255 8.61547 14.3733 9.79 14.3733 10.9645 14.3733 11.9167 15.3255 11.9167 16.5Z" fill="url(#fill17)" transform="matrix(1 0 0 1.06061 566 1671)"/><path d="M4.92321 13.7322 6.69631 13.7322C7.00885 13.7322 7.2622 13.9855 7.2622 14.298L7.2622 27.3889C7.2622 28.014 6.75549 28.5206 6.13043 28.5206L4.35732 28.5206 4.35732 28.5206 4.35732 14.298C4.35732 13.9855 4.61067 13.7322 4.92321 13.7322Z" fill="#50E6FF" transform="matrix(-0.686297 0.729927 -0.688215 -0.727892 590.164 1703.92)"/><path d="M4.82968 5.48999 6.60308 5.48999C6.91567 5.48999 7.16906 5.74338 7.16906 6.05597L7.16906 20.0734 7.16906 20.0734 5.39566 20.0734C4.7705 20.0734 4.26371 19.5666 4.26371 18.9414L4.26371 6.05597C4.26371 5.74338 4.51709 5.48999 4.82968 5.48999Z" fill="#1490DF" transform="matrix(0.688102 0.727772 -0.686184 0.729807 576.377 1670.69)"/><path d="M26.6909 13.7322 28.4641 13.7322C29.0892 13.7322 29.5958 14.2389 29.5958 14.8639L29.5958 27.9548C29.5958 28.2673 29.3425 28.5206 29.0299 28.5206L27.2568 28.5206C26.9443 28.5206 26.6909 28.2673 26.6909 27.9548L26.6909 13.7322 26.6909 13.7322Z" fill="#50E6FF" transform="matrix(0.686297 0.729927 -0.688215 0.727892 588.587 1656.84)"/><path d="M27.9405 5.48999 29.7139 5.48999 29.7139 5.48999 29.7139 19.5074C29.7139 19.82 29.4605 20.0734 29.1479 20.0734L27.3556 20.0734C27.043 20.0734 26.7897 19.82 26.7897 19.5074L26.7897 6.62195C26.7897 5.99679 27.2964 5.48999 27.9216 5.48999Z" fill="#1490DF" transform="matrix(-0.688102 0.727772 -0.686184 -0.729807 621.66 1672.92)"/></g></g></g><path d="M855.666 1177.5C876.561 1177.5 893.5 1194.44 893.5 1215.33L893.5 1373.67C893.5 1394.56 876.561 1411.5 855.666 1411.5L704.334 1411.5C683.439 1411.5 666.5 1394.56 666.5 1373.67L666.5 1215.33C666.5 1194.44 683.439 1177.5 704.334 1177.5Z" stroke="#2F528F" stroke-width="4.58333" stroke-miterlimit="8" stroke-dasharray="4.58333 4.58333" fill="#F2F2F2" fill-rule="evenodd"/><path d="M858 1392C858 1388.69 860.686 1386 864 1386L913 1386C916.313 1386 919 1388.69 919 1392L919 1416C919 1419.31 916.313 1422 913 1422L864 1422C860.686 1422 858 1419.31 858 1416Z" stroke="#2F528F" stroke-width="2.29167" stroke-miterlimit="8" fill="#FFFFFF" fill-rule="evenodd"/><g clip-path="url(#clip18)"><g clip-path="url(#clip19)"><g clip-path="url(#clip20)"><path d="M26.2556 16.9811C26.2556 18.1912 25.2746 19.1722 24.0645 19.1722 22.8543 19.1722 21.8734 18.1912 21.8734 16.9811 21.8734 15.771 22.8544 14.79 24.0645 14.79 25.2746 14.79 26.2556 15.771 26.2556 16.9811Z" fill="url(#fill21)" transform="matrix(1 0 0 1.02941 872 1387)"/><path d="M19.2667 17C19.2667 18.2101 18.2857 19.1911 17.0756 19.1911 15.8655 19.1911 14.8845 18.2101 14.8845 17 14.8845 15.7899 15.8655 14.8089 17.0756 14.8089 18.2857 14.8089 19.2667 15.7899 19.2667 17Z" fill="url(#fill22)" transform="matrix(1 0 0 1.02941 872 1387)"/><path d="M12.2778 17C12.2778 18.2101 11.2968 19.1911 10.0867 19.1911 8.87656 19.1911 7.89556 18.2101 7.89556 17 7.89556 15.7899 8.87656 14.8089 10.0867 14.8089 11.2968 14.8089 12.2778 15.7899 12.2778 17Z" fill="url(#fill23)" transform="matrix(1 0 0 1.02941 872 1387)"/><path d="M5.00073 13.9484 6.80176 13.9484C7.11922 13.9484 7.37655 14.2057 7.37655 14.5232L7.37655 27.8201C7.37655 28.4551 6.86186 28.9697 6.22696 28.9697L4.42593 28.9697 4.42593 28.9697 4.42593 14.5232C4.42593 14.2057 4.68327 13.9484 5.00073 13.9484Z" fill="#50E6FF" transform="matrix(-0.696133 0.718611 -0.698079 -0.716608 896.896 1419.92)"/><path d="M4.90533 5.57598 6.7065 5.57598C7.02399 5.57598 7.28134 5.83333 7.28134 6.15082L7.28134 20.3878 7.28134 20.3878 5.48017 20.3878C4.84522 20.3878 4.33048 19.8731 4.33048 19.2381L4.33048 6.15082C4.33048 5.83333 4.58784 5.57598 4.90533 5.57598Z" fill="#1490DF" transform="matrix(0.698022 0.71655 -0.696076 0.718553 882.691 1386.69)"/><path d="M27.1112 13.9484 28.9123 13.9484C29.5472 13.9484 30.0618 14.4631 30.0618 15.098L30.0618 28.3949C30.0618 28.7124 29.8045 28.9697 29.4871 28.9697L27.686 28.9697C27.3685 28.9697 27.1112 28.7124 27.1112 28.3949L27.1112 13.9484 27.1112 13.9484Z" fill="#50E6FF" transform="matrix(0.696133 0.718611 -0.698079 0.716608 895.271 1372.84)"/><path d="M28.3781 5.57598 30.1792 5.57598 30.1792 5.57598 30.1792 19.8129C30.1792 20.1304 29.9219 20.3878 29.6044 20.3878L27.7841 20.3878C27.4666 20.3878 27.2092 20.1304 27.2092 19.8129L27.2092 6.72566C27.2092 6.09071 27.7239 5.57598 28.3589 5.57598Z" fill="#1490DF" transform="matrix(-0.698022 0.71655 -0.696076 -0.718553 929.347 1388.93)"/></g></g></g><g><g><g><path d="M544 1589.56C543.485 1573.83 531.703 1560.78 516.115 1558.65 515.126 1536.52 496.548 1519.29 474.407 1519.96 456.755 1519.64 440.825 1530.5 434.685 1547.05 415.887 1549.32 401.571 1564.99 401 1583.92 401.819 1605.36 419.834 1622.09 441.279 1621.33L444.774 1621.33 509.998 1621.33C510.579 1621.38 511.164 1621.38 511.746 1621.33 529.305 1621.17 543.573 1607.11 544 1589.56Z" fill="url(#fill24)"/><path d="M514.526 1597.9C514.483 1596.09 513.002 1594.64 511.19 1594.64L433.811 1594.64C431.999 1594.64 430.517 1596.09 430.474 1597.9L430.474 1637.62C430.517 1639.43 431.999 1640.88 433.811 1640.88L511.19 1640.88C513.002 1640.88 514.483 1639.43 514.526 1637.62L514.526 1597.9Z" fill="#821010"/><path d="M435.161 1599.25 457.962 1599.25 457.962 1609.34 435.161 1609.34Z" fill="#E62323"/><path d="M461.378 1599.25 484.178 1599.25 484.178 1609.34 461.378 1609.34Z" fill="#FF7381"/><path d="M487.595 1599.25 510.395 1599.25 510.395 1609.34 487.595 1609.34Z" fill="#E62323"/><path d="M435.161 1612.75 444.615 1612.75 444.615 1622.84 435.161 1622.84Z" fill="#E62323"/><path d="M500.941 1612.75 510.395 1612.75 510.395 1622.84 500.941 1622.84Z" fill="#FF7381"/><path d="M448.031 1612.75 470.832 1612.75 470.832 1622.84 448.031 1622.84Z" fill="#FF7381"/><path d="M474.327 1612.75 497.128 1612.75 497.128 1622.84 474.327 1622.84Z" fill="#E62323"/><path d="M435.161 1626.26 457.962 1626.26 457.962 1636.35 435.161 1636.35Z" fill="#E62323"/><path d="M461.378 1626.26 484.178 1626.26 484.178 1636.35 461.378 1636.35Z" fill="#FF7381"/><path d="M487.595 1626.26 510.395 1626.26 510.395 1636.35 487.595 1636.35Z" fill="#E62323"/></g></g></g><g clip-path="url(#clip25)"><g clip-path="url(#clip26)"><g clip-path="url(#clip27)"><path d="M849.04 1523.74C851.783 1523.74 854.007 1525.96 854.007 1528.71L854.007 1618.1C854.007 1620.85 851.783 1623.07 849.04 1623.07L709.973 1623.07C707.23 1623.07 705.007 1620.85 705.007 1618.1L705.007 1528.71C705.007 1525.96 707.23 1523.74 709.973 1523.74Z" fill="url(#fill28)"/><path d="M804.34 1558.92 804.34 1587.81 779.507 1602.38 779.507 1573.41 804.34 1558.92Z" fill="#50E6FF"/><path d="M804.34 1558.92 779.507 1573.49 754.673 1558.92 779.507 1544.43 804.34 1558.92Z" fill="#C3F1FF"/><path d="M779.507 1573.49 779.507 1602.38 754.673 1587.81 754.673 1558.92 779.507 1573.49Z" fill="#9CEBFF"/><path d="M754.673 1587.81 779.507 1573.41 779.507 1602.38 754.673 1587.81Z" fill="#C3F1FF"/><path d="M804.34 1587.81 779.507 1573.41 779.507 1602.38 804.34 1587.81Z" fill="#9CEBFF"/><path d="M809.389 1653.12C794.655 1650.8 794.076 1640.21 794.076 1623.07L764.855 1623.07C764.855 1640.21 764.358 1650.8 749.624 1653.12 745.411 1653.59 742.231 1657.16 742.257 1661.4L816.757 1661.4C816.782 1657.16 813.602 1653.59 809.389 1653.12Z" fill="url(#fill29)"/></g></g></g><g><g><g><path d="M124.664 71.7684 116.386 71.7684 116.386 46.2728C116.458 34.2982 112.06 22.7275 104.052 13.8239 96.471 4.99282 85.3937-0.0617794 73.7551 1.61833e-06 62.0015-0.159768 50.7827 4.9038 43.1273 13.8239 35.0634 22.6931 30.6567 34.2866 30.7934 46.2728L30.7934 71.7684 24.0884 71.7684C20.9525 71.8129 18.4211 74.3442 18.3767 77.4801L18.3767 143.702C18.4211 146.838 20.9525 149.369 24.0884 149.414L124.664 149.414C127.814 149.371 130.369 146.851 130.458 143.702L130.458 77.4801C130.369 74.3309 127.814 71.8116 124.664 71.7684ZM96.7673 71.7684 50.7428 71.7684 50.7428 45.859C50.8173 39.2314 53.389 32.8759 57.9445 28.0617 61.8684 23.5634 67.5376 20.9701 73.5068 20.9428 79.4978 20.9784 85.1892 23.5681 89.1518 28.0617 90.1327 29.1718 91.0193 30.3624 91.8007 31.6212L91.8007 31.6212C94.9057 35.7047 96.6697 40.6496 96.8501 45.7762Z" fill="url(#fill30)" transform="matrix(1.00671 0 0 1 704 1216)"/><path d="M124.912 71.7684 24.1711 71.7684C22.8252 71.7728 21.5282 72.274 20.5289 73.1757L128.554 147.676C129.858 146.627 130.619 145.045 130.624 143.371L130.624 77.149C130.371 74.161 127.909 71.8423 124.912 71.7684Z" fill="#50E6FF" transform="matrix(1.00671 0 0 1 704 1216)"/><path d="M24.3367 71.7684 124.995 71.7684C126.364 71.7828 127.683 72.2812 128.72 73.1757L20.6117 147.676C19.3351 146.605 18.5812 145.037 18.5422 143.371L18.5422 77.149C18.8346 74.148 21.3223 71.838 24.3367 71.7684Z" fill="#FFFFFF" fill-opacity="0.2" transform="matrix(1.00671 0 0 1 704 1216)"/><path d="M64.5668 87.7446 74.5001 77.8112C74.7155 77.6304 75.0297 77.6304 75.2451 77.8112L85.0957 87.7446C85.3241 87.896 85.387 88.2048 85.2347 88.4333 85.1983 88.4879 85.1511 88.5359 85.0957 88.5723L79.3012 88.5723C79.0269 88.5723 78.8046 88.795 78.8046 89.069L78.8046 101.817C78.8046 102.091 78.5822 102.313 78.3079 102.313L71.7684 102.313C71.5458 102.365 71.3234 102.227 71.2718 102.004 71.2575 101.943 71.2575 101.878 71.2718 101.817L71.2718 89.069C71.2303 88.7818 70.9826 88.569 70.6923 88.5723L64.8979 88.5723C64.6244 88.5517 64.4196 88.3124 64.4404 88.0393 64.4488 87.93 64.4932 87.8265 64.5668 87.7446ZM85.0129 133.107 75.1623 142.957C74.9809 143.164 74.6671 143.183 74.4613 143.001 74.4457 142.988 74.4311 142.973 74.4173 142.957L64.5668 133.107C64.3382 132.955 64.2758 132.647 64.4274 132.418 64.4641 132.364 64.5115 132.315 64.5668 132.279L70.3612 132.279C70.6515 132.282 70.8992 132.07 70.9407 131.782L70.9407 118.952C70.9407 118.678 71.163 118.455 71.4373 118.455L77.5629 118.455C77.8372 118.455 78.0596 118.678 78.0596 118.952L78.0596 131.782C78.0596 132.056 78.2819 132.279 78.5562 132.279L84.3507 132.279C84.5791 132.096 84.9127 132.133 85.0957 132.362 85.2786 132.59 85.2414 132.924 85.0129 133.107ZM46.1073 120.276 46.1073 114.482C46.1073 114.208 45.8849 113.985 45.6106 113.985L33.1112 113.985C32.8368 113.985 32.6145 113.762 32.6145 113.488L32.6145 107.611C32.4747 107.375 32.5526 107.071 32.7886 106.931 32.8857 106.873 32.9994 106.851 33.1112 106.866L45.6106 106.866C45.8849 106.866 46.1073 106.644 46.1073 106.37L46.1073 100.575C46.1401 100.256 46.4248 100.025 46.7432 100.059 46.842 100.069 46.9366 100.104 47.0178 100.161L56.8684 110.095C57.037 110.283 57.037 110.568 56.8684 110.757L47.0178 120.69C46.7564 120.875 46.3949 120.813 46.2103 120.551 46.153 120.47 46.1175 120.375 46.1073 120.276ZM103.472 100.575 103.472 106.37C103.472 106.644 103.695 106.866 103.969 106.866L116.717 106.866C116.717 106.866 117.296 106.866 117.296 107.363L117.296 113.488C117.255 113.776 117.007 113.988 116.717 113.985L103.969 113.985C103.695 113.985 103.472 114.208 103.472 114.482L103.472 120.276C103.497 120.549 103.297 120.791 103.024 120.817 102.885 120.829 102.747 120.784 102.645 120.69L92.794 110.757 92.794 110.095 102.645 100.161C102.645 100.161 103.472 100.078 103.472 100.575Z" fill="#FFFFFF" transform="matrix(1.00671 0 0 1 704 1216)"/></g></g></g><path d="M1513.5 676.502C1513.5 628.452 1552.45 589.5 1600.5 589.5L1948.5 589.5C1996.55 589.5 2035.5 628.452 2035.5 676.502L2035.5 1067.5C2035.5 1115.55 1996.55 1154.5 1948.5 1154.5L1600.5 1154.5C1552.45 1154.5 1513.5 1115.55 1513.5 1067.5Z" stroke="#2F528F" stroke-width="4.58333" stroke-miterlimit="8" stroke-dasharray="4.58333 4.58333" fill="#E9F5FD" fill-rule="evenodd"/><path d="M1485 556.167C1485 546.686 1492.69 539 1502.17 539L1917.83 539C1927.31 539 1935 546.686 1935 556.167L1935 624.833C1935 634.314 1927.31 642 1917.83 642L1502.17 642C1492.69 642 1485 634.314 1485 624.833Z" stroke="#2F528F" stroke-width="2.29167" stroke-miterlimit="8" fill="#FFFFFF" fill-rule="evenodd"/><text font-family="Calibri,Calibri_MSFontService,sans-serif" font-weight="700" font-size="41" transform="matrix(1 0 0 1 1720.79 580)">LZA Spoke</text><text font-family="Calibri,Calibri_MSFontService,sans-serif" font-weight="700" font-size="41" transform="matrix(1 0 0 1 1720.79 629)">Any Prefix</text><g clip-path="url(#clip31)"><g clip-path="url(#clip32)"><g clip-path="url(#clip33)"><path d="M76.45 49.445C76.45 52.9686 73.5936 55.825 70.07 55.825 66.5464 55.825 63.69 52.9686 63.69 49.445 63.69 45.9214 66.5464 43.065 70.07 43.065 73.5936 43.065 76.45 45.9214 76.45 49.445Z" fill="url(#fill34)" transform="matrix(1.05051 0 0 1 1529 543)"/><path d="M56.1 49.5C56.1 53.0236 53.2436 55.88 49.72 55.88 46.1964 55.88 43.34 53.0236 43.34 49.5 43.34 45.9764 46.1964 43.12 49.72 43.12 53.2436 43.12 56.1 45.9764 56.1 49.5Z" fill="url(#fill35)" transform="matrix(1.05051 0 0 1 1529 543)"/><path d="M35.75 49.5C35.75 53.0236 32.8936 55.88 29.37 55.88 25.8464 55.88 22.99 53.0236 22.99 49.5 22.99 45.9764 25.8464 43.12 29.37 43.12 32.8936 43.12 35.75 45.9764 35.75 49.5Z" fill="url(#fill36)" transform="matrix(1.05051 0 0 1 1529 543)"/><path d="M14.7051 41.0166 20.0012 41.0166C20.9348 41.0166 21.6915 41.7733 21.6915 42.7069L21.6915 81.8079C21.6915 83.675 20.178 85.1883 18.311 85.1883L13.0149 85.1883 13.0149 85.1883 13.0149 42.7069C13.0149 41.7733 13.7716 41.0166 14.7051 41.0166Z" fill="#50E6FF" transform="matrix(-0.724121 0.691233 -0.726145 -0.689306 1605.15 636.115)"/><path d="M14.4214 16.3931 19.7168 16.3931C20.6502 16.3931 21.4068 17.1497 21.4068 18.0831L21.4068 59.9391 21.4068 59.9391 16.1115 59.9391C14.2447 59.9391 12.7314 58.426 12.7314 56.5591L12.7314 18.0831C12.7314 17.1497 13.488 16.3931 14.4214 16.3931Z" fill="#1490DF" transform="matrix(0.726245 0.689401 -0.72422 0.691328 1561.7 542.12)"/><path d="M79.7232 41.0166 85.0193 41.0166C86.8865 41.0166 88.3998 42.5301 88.3998 44.3971L88.3998 83.4981C88.3998 84.4317 87.6432 85.1883 86.7096 85.1883L81.4135 85.1883C80.4799 85.1883 79.7232 84.4317 79.7232 83.4981L79.7232 41.0166 79.7232 41.0166Z" fill="#50E6FF" transform="matrix(0.724121 0.691233 -0.726145 0.689306 1600.18 502.96)"/><path d="M83.4303 16.3931 88.7257 16.3931 88.7257 16.3931 88.7257 58.2491C88.7257 59.1826 87.9691 59.9391 87.0357 59.9391L81.6839 59.9391C80.7505 59.9391 79.9939 59.1826 79.9939 58.2491L79.9939 19.7731C79.9939 17.9064 81.5071 16.3931 83.374 16.3931Z" fill="#1490DF" transform="matrix(-0.726245 0.689401 -0.72422 -0.691328 1704.41 548.445)"/></g></g></g><rect x="1433.5" y="452.5" width="723" height="800" stroke="#BFBFBF" stroke-width="4.58333" stroke-linecap="square" stroke-miterlimit="8" stroke-dasharray="13.75 4.58333" fill="none"/><path d="M1871 430.667C1871 424.776 1875.78 420 1881.67 420L2214.33 420C2220.22 420 2225 424.776 2225 430.667L2225 473.333C2225 479.224 2220.22 484 2214.33 484L1881.67 484C1875.78 484 1871 479.224 1871 473.333Z" stroke="#BFBFBF" stroke-width="2.29167" stroke-miterlimit="8" fill="#FFFFFF" fill-rule="evenodd"/><text font-family="Calibri,Calibri_MSFontService,sans-serif" font-weight="700" font-size="41" transform="matrix(1 0 0 1 1916.68 466)">Landing Zone A</text><path d="M963.143 1436.92 1005.34 2045.44 1003.06 2045.6 960.857 1437.08ZM1017.6 2039.99 1005.78 2068.38 990.165 2041.9Z"/><path d="M963.13 1436.81 1074.74 2104.91 1072.48 2105.28 960.87 1437.19ZM1086.41 2098.31 1077.38 2127.7 1059.29 2102.84Z"/><path d="M963.107 1436.7 1150.61 2134.73 1148.4 2135.33 960.894 1437.3ZM1161.59 2127.04 1155.45 2157.16 1135.03 2134.17Z"/><text font-family="Calibri,Calibri_MSFontService,sans-serif" font-weight="400" font-size="50" transform="matrix(1 0 0 1 802.22 2221)">Additional Landing Zones</text><path d="M1513.5 1641.5C1513.5 1589.59 1555.59 1547.5 1607.5 1547.5L1983.5 1547.5C2035.41 1547.5 2077.5 1589.59 2077.5 1641.5L2077.5 2018.5C2077.5 2070.41 2035.41 2112.5 1983.5 2112.5L1607.5 2112.5C1555.59 2112.5 1513.5 2070.41 1513.5 2018.5Z" stroke="#2F528F" stroke-width="4.58333" stroke-miterlimit="8" stroke-dasharray="4.58333 4.58333" fill="#E9F5FD" fill-rule="evenodd"/><path d="M1975.17 1879.5C1991.37 1879.5 2004.5 1892.63 2004.5 1908.83L2004.5 2026.17C2004.5 2042.37 1991.37 2055.5 1975.17 2055.5L1595.83 2055.5C1579.63 2055.5 1566.5 2042.37 1566.5 2026.17L1566.5 1908.83C1566.5 1892.63 1579.63 1879.5 1595.83 1879.5Z" stroke="#2F528F" stroke-width="4.58333" stroke-miterlimit="8" stroke-dasharray="4.58333 4.58333" fill="#F2F2F2" fill-rule="evenodd"/><path d="M1976 2036C1976 2032.69 1978.69 2030 1982 2030L2031 2030C2034.31 2030 2037 2032.69 2037 2036L2037 2060C2037 2063.31 2034.31 2066 2031 2066L1982 2066C1978.69 2066 1976 2063.31 1976 2060Z" stroke="#2F528F" stroke-width="2.29167" stroke-miterlimit="8" fill="#FFFFFF" fill-rule="evenodd"/><g clip-path="url(#clip37)"><g clip-path="url(#clip38)"><g clip-path="url(#clip39)"><path d="M25.4833 16.4817C25.4833 17.6562 24.5312 18.6083 23.3567 18.6083 22.1821 18.6083 21.23 17.6562 21.23 16.4817 21.23 15.3071 22.1821 14.355 23.3567 14.355 24.5312 14.355 25.4833 15.3071 25.4833 16.4817Z" fill="url(#fill40)" transform="matrix(1 0 0 1.06061 1990 2031)"/><path d="M18.7 16.5C18.7 17.6745 17.7479 18.6267 16.5733 18.6267 15.3988 18.6267 14.4467 17.6745 14.4467 16.5 14.4467 15.3255 15.3988 14.3733 16.5733 14.3733 17.7479 14.3733 18.7 15.3255 18.7 16.5Z" fill="url(#fill41)" transform="matrix(1 0 0 1.06061 1990 2031)"/><path d="M11.9167 16.5C11.9167 17.6745 10.9645 18.6267 9.79 18.6267 8.61547 18.6267 7.66333 17.6745 7.66333 16.5 7.66333 15.3255 8.61547 14.3733 9.79 14.3733 10.9645 14.3733 11.9167 15.3255 11.9167 16.5Z" fill="url(#fill42)" transform="matrix(1 0 0 1.06061 1990 2031)"/><path d="M4.92321 13.7322 6.69631 13.7322C7.00885 13.7322 7.2622 13.9855 7.2622 14.298L7.2622 27.3889C7.2622 28.014 6.75549 28.5206 6.13043 28.5206L4.35732 28.5206 4.35732 28.5206 4.35732 14.298C4.35732 13.9855 4.61067 13.7322 4.92321 13.7322Z" fill="#50E6FF" transform="matrix(-0.686297 0.729927 -0.688215 -0.727892 2014.16 2063.92)"/><path d="M4.82968 5.48999 6.60308 5.48999C6.91567 5.48999 7.16906 5.74338 7.16906 6.05597L7.16906 20.0734 7.16906 20.0734 5.39566 20.0734C4.7705 20.0734 4.26371 19.5666 4.26371 18.9414L4.26371 6.05597C4.26371 5.74338 4.51709 5.48999 4.82968 5.48999Z" fill="#1490DF" transform="matrix(0.688102 0.727772 -0.686184 0.729807 2000.38 2030.69)"/><path d="M26.6909 13.7322 28.4641 13.7322C29.0892 13.7322 29.5958 14.2389 29.5958 14.8639L29.5958 27.9548C29.5958 28.2673 29.3425 28.5206 29.0299 28.5206L27.2568 28.5206C26.9443 28.5206 26.6909 28.2673 26.6909 27.9548L26.6909 13.7322 26.6909 13.7322Z" fill="#50E6FF" transform="matrix(0.686297 0.729927 -0.688215 0.727892 2012.59 2016.84)"/><path d="M27.9405 5.48999 29.7139 5.48999 29.7139 5.48999 29.7139 19.5074C29.7139 19.82 29.4605 20.0734 29.1479 20.0734L27.3556 20.0734C27.043 20.0734 26.7897 19.82 26.7897 19.5074L26.7897 6.62195C26.7897 5.99679 27.2964 5.48999 27.9216 5.48999Z" fill="#1490DF" transform="matrix(-0.688102 0.727772 -0.686184 -0.729807 2045.66 2032.92)"/></g></g></g><path d="M1976.83 1628.5C1992.11 1628.5 2004.5 1640.89 2004.5 1656.17L2004.5 1766.83C2004.5 1782.11 1992.11 1794.5 1976.83 1794.5L1594.17 1794.5C1578.89 1794.5 1566.5 1782.11 1566.5 1766.83L1566.5 1656.17C1566.5 1640.89 1578.89 1628.5 1594.17 1628.5Z" stroke="#2F528F" stroke-width="4.58333" stroke-miterlimit="8" stroke-dasharray="4.58333 4.58333" fill="#F2F2F2" fill-rule="evenodd"/><path d="M1974 1778C1974 1774.69 1976.69 1772 1980 1772L2030 1772C2033.31 1772 2036 1774.69 2036 1778L2036 1802C2036 1805.31 2033.31 1808 2030 1808L1980 1808C1976.69 1808 1974 1805.31 1974 1802Z" stroke="#2F528F" stroke-width="2.29167" stroke-miterlimit="8" fill="#FFFFFF" fill-rule="evenodd"/><g clip-path="url(#clip43)"><g clip-path="url(#clip44)"><g clip-path="url(#clip45)"><path d="M26.2556 16.9811C26.2556 18.1912 25.2746 19.1722 24.0645 19.1722 22.8543 19.1722 21.8734 18.1912 21.8734 16.9811 21.8734 15.771 22.8544 14.79 24.0645 14.79 25.2746 14.79 26.2556 15.771 26.2556 16.9811Z" fill="url(#fill46)" transform="matrix(1 0 0 1.02941 1988 1774)"/><path d="M19.2667 17C19.2667 18.2101 18.2857 19.1911 17.0756 19.1911 15.8655 19.1911 14.8845 18.2101 14.8845 17 14.8845 15.7899 15.8655 14.8089 17.0756 14.8089 18.2857 14.8089 19.2667 15.7899 19.2667 17Z" fill="url(#fill47)" transform="matrix(1 0 0 1.02941 1988 1774)"/><path d="M12.2778 17C12.2778 18.2101 11.2968 19.1911 10.0867 19.1911 8.87656 19.1911 7.89556 18.2101 7.89556 17 7.89556 15.7899 8.87656 14.8089 10.0867 14.8089 11.2968 14.8089 12.2778 15.7899 12.2778 17Z" fill="url(#fill48)" transform="matrix(1 0 0 1.02941 1988 1774)"/><path d="M5.00073 13.9484 6.80176 13.9484C7.11922 13.9484 7.37655 14.2057 7.37655 14.5232L7.37655 27.8201C7.37655 28.4551 6.86186 28.9697 6.22696 28.9697L4.42593 28.9697 4.42593 28.9697 4.42593 14.5232C4.42593 14.2057 4.68327 13.9484 5.00073 13.9484Z" fill="#50E6FF" transform="matrix(-0.696133 0.718611 -0.698079 -0.716608 2012.9 1806.92)"/><path d="M4.90533 5.57598 6.7065 5.57598C7.02399 5.57598 7.28134 5.83333 7.28134 6.15082L7.28134 20.3878 7.28134 20.3878 5.48017 20.3878C4.84522 20.3878 4.33048 19.8731 4.33048 19.2381L4.33048 6.15082C4.33048 5.83333 4.58784 5.57598 4.90533 5.57598Z" fill="#1490DF" transform="matrix(0.698022 0.71655 -0.696076 0.718553 1998.69 1773.69)"/><path d="M27.1112 13.9484 28.9123 13.9484C29.5472 13.9484 30.0618 14.4631 30.0618 15.098L30.0618 28.3949C30.0618 28.7124 29.8045 28.9697 29.4871 28.9697L27.686 28.9697C27.3685 28.9697 27.1112 28.7124 27.1112 28.3949L27.1112 13.9484 27.1112 13.9484Z" fill="#50E6FF" transform="matrix(0.696133 0.718611 -0.698079 0.716608 2011.27 1759.84)"/><path d="M28.3781 5.57598 30.1792 5.57598 30.1792 5.57598 30.1792 19.8129C30.1792 20.1304 29.9219 20.3878 29.6044 20.3878L27.7841 20.3878C27.4666 20.3878 27.2092 20.1304 27.2092 19.8129L27.2092 6.72566C27.2092 6.09071 27.7239 5.57598 28.3589 5.57598Z" fill="#1490DF" transform="matrix(-0.698022 0.71655 -0.696076 -0.718553 2045.35 1775.93)"/></g></g></g><rect x="1433.5" y="1410.5" width="723" height="800" stroke="#BFBFBF" stroke-width="4.58333" stroke-linecap="square" stroke-miterlimit="8" stroke-dasharray="13.75 4.58333" fill="none"/><path d="M1871 1388.67C1871 1382.78 1875.78 1378 1881.67 1378L2214.33 1378C2220.22 1378 2225 1382.78 2225 1388.67L2225 1431.33C2225 1437.22 2220.22 1442 2214.33 1442L1881.67 1442C1875.78 1442 1871 1437.22 1871 1431.33Z" stroke="#BFBFBF" stroke-width="2.29167" stroke-miterlimit="8" fill="#FFFFFF" fill-rule="evenodd"/><text font-family="Calibri,Calibri_MSFontService,sans-serif" font-weight="700" font-size="41" transform="matrix(1 0 0 1 1917.83 1424)">Landing Zone B</text><g clip-path="url(#clip49)"><g clip-path="url(#clip50)"><g clip-path="url(#clip51)"><path d="M1769.05 1679.99 1775.72 1679.99 1775.72 1722.03 1769.05 1722.03Z" fill="#7A7A7A"/><path d="M1782.17 1678.67C1782.16 1684.08 1777.77 1688.45 1772.36 1688.44 1766.96 1688.44 1762.58 1684.04 1762.59 1678.64 1762.6 1673.23 1766.99 1668.86 1772.39 1668.86L1772.39 1668.86C1777.79 1668.86 1782.17 1673.24 1782.17 1678.65 1782.17 1678.66 1782.17 1678.66 1782.17 1678.67Z" fill="#1490DF"/><path d="M1771.05 1719.81 1760.35 1719.81C1752.98 1719.88 1747.06 1725.92 1747.14 1733.3 1747.2 1739.77 1751.9 1745.26 1758.28 1746.33 1758.04 1744.68 1758.08 1743 1758.41 1741.36 1753.88 1740.32 1751.04 1735.8 1752.08 1731.26 1752.97 1727.41 1756.4 1724.69 1760.35 1724.72L1771.05 1724.72C1775.72 1724.72 1779.5 1728.5 1779.5 1733.17 1779.5 1737.84 1775.72 1741.62 1771.05 1741.62L1768.11 1741.62C1767.73 1742.46 1767.52 1743.37 1767.52 1744.3 1767.52 1745.06 1767.66 1745.81 1767.94 1746.52L1771.07 1746.52C1778.45 1746.68 1784.55 1740.83 1784.7 1733.46 1784.86 1726.08 1779.01 1719.98 1771.64 1719.83 1771.45 1719.82 1771.26 1719.82 1771.07 1719.83Z" fill="url(#fill52)"/><path d="M1786.47 1731.11C1786.57 1731.79 1786.62 1732.47 1786.63 1733.15 1786.63 1734.13 1786.54 1735.11 1786.33 1736.07 1790.87 1737.11 1793.7 1741.64 1792.66 1746.17 1791.78 1750.02 1788.35 1752.74 1784.4 1752.72L1773.7 1752.72C1769.03 1752.59 1765.35 1748.71 1765.47 1744.04 1765.59 1739.54 1769.21 1735.92 1773.7 1735.8L1776.64 1735.8C1777.03 1734.97 1777.24 1734.06 1777.23 1733.14 1777.23 1732.37 1777.09 1731.62 1776.81 1730.91L1773.72 1730.91C1766.35 1731.07 1760.5 1737.17 1760.65 1744.54 1760.8 1751.7 1766.57 1757.46 1773.72 1757.61L1784.42 1757.61C1791.79 1757.53 1797.71 1751.49 1797.63 1744.12 1797.57 1737.65 1792.87 1732.16 1786.49 1731.09Z" fill="url(#fill53)"/><path d="M1753.17 1763.23 1750.72 1765.7C1750.08 1766.36 1749.02 1766.37 1748.37 1765.72 1748.36 1765.71 1748.35 1765.71 1748.34 1765.7L1720.96 1738.35C1719.65 1737.04 1719.65 1734.91 1720.96 1733.6L1723.43 1731.15 1753.15 1760.82C1753.79 1761.46 1753.8 1762.5 1753.16 1763.14 1753.15 1763.15 1753.15 1763.15 1753.15 1763.15L1753.15 1763.15Z" fill="#50E6FF"/><path d="M1750.21 1706.73 1752.94 1709.46C1753.6 1710.12 1753.6 1711.18 1752.95 1711.84 1752.95 1711.84 1752.95 1711.84 1752.94 1711.84L1723.72 1741.14 1720.97 1738.43C1719.66 1737.11 1719.66 1734.98 1720.97 1733.67L1747.85 1706.73C1748.5 1706.08 1749.55 1706.08 1750.2 1706.72 1750.21 1706.73 1750.21 1706.73 1750.21 1706.73Z" fill="#1490DF"/><path d="M1793.81 1765.17C1793.16 1764.54 1793.15 1763.49 1793.78 1762.84L1793.78 1762.84 1793.81 1762.84 1823.53 1733.18 1826.01 1735.66C1827.32 1736.97 1827.32 1739.1 1826.01 1740.41L1798.6 1767.68C1797.96 1768.33 1796.93 1768.35 1796.27 1767.72L1796.27 1767.72 1796.24 1767.69Z" fill="#50E6FF"/><path d="M1799.13 1708.69 1826.03 1735.65C1827.32 1736.95 1827.32 1739.06 1826.03 1740.36L1823.28 1743.1 1794.03 1713.78C1793.39 1713.12 1793.39 1712.07 1794.03 1711.4L1796.77 1708.69C1797.42 1708.04 1798.47 1708.04 1799.13 1708.69Z" fill="#1490DF"/></g></g></g><g><g><g><path d="M1773.5 842.55C1746.95 842.55 1725.43 835.05 1725.43 825.15L1725.43 917.85C1725.43 927.375 1746.58 935.1 1772.83 935.25L1773.5 935.25C1800.05 935.25 1821.58 927.75 1821.58 917.85L1821.58 825.15C1821.58 834.825 1800.05 842.55 1773.5 842.55Z" fill="url(#fill54)"/><path d="M1821.58 825.15C1821.58 834.825 1800.05 842.55 1773.5 842.55 1746.95 842.55 1725.43 835.05 1725.43 825.15 1725.43 815.25 1746.95 807.75 1773.5 807.75 1800.05 807.75 1821.58 815.25 1821.58 825.15" fill="#E8E8E8"/><path d="M1810.4 823.725C1810.4 829.875 1793.83 834.825 1773.5 834.825 1753.18 834.825 1736.6 829.875 1736.6 823.725 1736.6 817.575 1753.18 812.7 1773.5 812.7 1793.83 812.7 1810.4 817.65 1810.4 823.725" fill="#50E6FF"/><path d="M1773.5 826.5C1763.6 826.247 1753.73 827.693 1744.33 830.775 1753.74 833.8 1763.61 835.17 1773.5 834.825 1783.41 835.115 1793.28 833.642 1802.68 830.475 1793.24 827.536 1783.38 826.192 1773.5 826.5Z" fill="#198AB3"/><path d="M1802.75 889.5 1802.75 864 1796 864 1796 894.975 1814.45 894.975 1814.45 889.5ZM1749.2 876.975C1747.81 876.415 1746.51 875.629 1745.38 874.65 1744.76 874.004 1744.44 873.139 1744.47 872.25 1744.43 871.354 1744.86 870.5 1745.6 870 1746.52 869.362 1747.63 869.046 1748.75 869.1 1751.42 868.98 1754.06 869.745 1756.25 871.275L1756.25 864.825C1753.85 863.934 1751.3 863.526 1748.75 863.625 1745.81 863.468 1742.91 864.373 1740.58 866.175 1738.51 867.765 1737.34 870.248 1737.43 872.85 1737.43 876.675 1739.83 879.675 1744.93 881.925 1746.58 882.628 1748.14 883.535 1749.58 884.625 1750.28 885.221 1750.7 886.099 1750.7 887.025 1750.7 887.949 1750.25 888.815 1749.5 889.35 1748.48 889.948 1747.31 890.234 1746.12 890.175 1743.11 890.15 1740.2 889.031 1737.95 887.025L1737.95 894C1740.43 895.277 1743.19 895.897 1745.97 895.8 1749.12 895.987 1752.23 895.115 1754.83 893.325 1756.68 891.568 1757.6 889.038 1757.3 886.5 1757.34 884.58 1756.67 882.713 1755.43 881.25 1753.67 879.404 1751.55 877.948 1749.2 876.975ZM1788.5 888.9C1790.2 886.048 1791.06 882.771 1790.98 879.45 1790.81 876.639 1789.96 873.911 1788.5 871.5 1787.33 869.158 1785.51 867.205 1783.25 865.875 1780.96 864.579 1778.38 863.907 1775.75 863.925 1772.92 863.863 1770.12 864.562 1767.65 865.95 1765.33 867.242 1763.44 869.167 1762.18 871.5 1760.85 874.152 1760.18 877.085 1760.23 880.05 1760.24 882.655 1760.86 885.221 1762.03 887.55 1763.17 889.867 1764.97 891.797 1767.2 893.1 1769.47 894.482 1772.05 895.256 1774.7 895.35L1781.15 902.85 1790.23 902.85 1781 894.6C1784.11 893.669 1786.77 891.644 1788.5 888.9ZM1781 887.025C1779.62 888.744 1777.51 889.715 1775.3 889.65 1773.08 889.722 1770.95 888.716 1769.6 886.95 1768.01 884.784 1767.24 882.128 1767.43 879.45 1767.25 876.773 1768.02 874.119 1769.6 871.95 1771.03 870.188 1773.18 869.167 1775.45 869.175 1777.68 869.079 1779.8 870.125 1781.08 871.95 1782.55 874.161 1783.26 876.796 1783.1 879.45 1783.36 882.148 1782.61 884.847 1781 887.025Z" fill="url(#fill55)"/></g></g></g><path d="M1774 939 1774 1664.76" stroke="#4472C4" stroke-width="2.29167" stroke-miterlimit="8" fill="none" fill-rule="evenodd"/><g clip-path="url(#clip56)"><g clip-path="url(#clip57)"><g clip-path="url(#clip58)"><path d="M38.3444 8.06555 19.4367 11.5694 19.4367 37.3528 38.3444 41.3855 57.3183 33.7828 57.3183 14.5444 38.3444 8.06555Z" fill="url(#fill59)" transform="matrix(1 0 0 1 1713 1909)"/><path d="M19.4367 11.5694 19.4367 37.3528 38.5428 41.3855 38.5428 8.33ZM27.5022 35.3694 22.1472 34.3116 22.1472 14.4783 27.5022 13.6189ZM35.8322 36.89 29.6839 35.8983 29.6839 13.2222 35.8322 12.1644Z" fill="#341A6E" transform="matrix(1 0 0 1 1713 1909)"/><path d="M79.2672 8.39611 60.3594 11.9 60.3594 37.6833 79.2672 41.7161 98.1749 34.0472 98.1749 14.875 79.2672 8.39611Z" fill="url(#fill60)" transform="matrix(1 0 0 1 1713 1909)"/><path d="M60.3594 11.9 60.3594 37.6833 79.3333 41.7161 79.3333 8.66055ZM68.3588 35.7 63.0039 34.6422 63.0039 14.8089 68.3588 13.9494ZM76.6889 37.2205 70.5405 36.2289 70.5405 13.5528 76.6889 12.4289Z" fill="#341A6E" transform="matrix(1 0 0 1 1713 1909)"/><path d="M18.9739 43.6333 0.0661111 47.1372 0.0661111 72.9205 18.9739 76.9533 37.9478 69.3505 37.9478 50.1122 18.9739 43.6333Z" fill="url(#fill61)" transform="matrix(1 0 0 1 1713 1909)"/><path d="M0 47.1372 0 72.7222 19.1061 76.755 19.1061 43.6994ZM7.99944 71.0033 2.64444 69.8794 2.64444 50.0461 7.99944 49.1205ZM16.3955 72.7222 10.2472 71.7305 10.2472 48.79 16.3955 47.7322Z" fill="#341A6E" transform="matrix(1 0 0 1 1713 1909)"/><path d="M59.7644 43.3689 40.8566 46.8728 40.8566 72.6561 59.7644 76.755 78.6722 69.0861 78.6722 49.8477 59.7644 43.3689Z" fill="url(#fill62)" transform="matrix(1 0 0 1 1713 1909)"/><path d="M40.8566 46.8728 40.8566 72.7222 59.8966 76.755 59.8966 43.6994ZM48.8561 70.7388 43.5011 69.615 43.5011 49.7816 48.8561 48.8561ZM57.1861 72.1933 51.0377 71.2016 51.0377 48.5255 57.1861 47.4678Z" fill="#341A6E" transform="matrix(1 0 0 1 1713 1909)"/><path d="M100.555 43.6994 81.6472 47.2033 81.6472 72.9866 100.555 77.0194 119.529 69.4166 119.529 50.1783 100.555 43.6994Z" fill="url(#fill63)" transform="matrix(1 0 0 1 1713 1909)"/><path d="M81.6472 47.2033 81.6472 72.7222 100.753 76.755 100.753 43.6994ZM89.7127 71.0694 84.3577 69.9455 84.3577 50.1122 89.7127 49.1866ZM98.0427 72.5238 91.8944 71.5322 91.8944 48.8561 98.0427 47.7983Z" fill="#341A6E" transform="matrix(1 0 0 1 1713 1909)"/><path d="M37.8816 79.5977 18.9739 83.0355 18.9739 108.819 37.8816 112.918 56.8555 105.249 56.8555 86.0766 37.8816 79.5977Z" fill="url(#fill64)" transform="matrix(1 0 0 1 1713 1909)"/><path d="M18.9739 83.0355 18.9739 108.819 38.08 112.918 38.08 79.3333ZM27.0394 106.902 21.6844 105.778 21.6844 85.9444 27.0394 85.0188ZM35.3694 108.422 29.2211 107.43 29.2211 84.6883 35.3694 83.6305Z" fill="#341A6E" transform="matrix(1 0 0 1 1713 1909)"/><path d="M78.7383 79.8622 59.8305 83.3661 59.8305 109.149 78.7383 113.182 97.7122 105.579 97.7122 86.3411 78.7383 79.8622Z" fill="url(#fill65)" transform="matrix(1 0 0 1 1713 1909)"/><path d="M59.8305 83.3661 59.8305 109.149 78.9366 113.182 78.9366 80.1266ZM67.8961 107.232 62.5411 106.108 62.5411 86.275 67.8961 85.3494ZM76.2261 108.687 70.0777 107.695 70.0777 85.0188 76.2261 83.9611Z" fill="#341A6E" transform="matrix(1 0 0 1 1713 1909)"/></g></g></g><path d="M2367.5 683.668C2367.5 631.661 2409.66 589.5 2461.67 589.5L2937.33 589.5C2989.34 589.5 3031.5 631.661 3031.5 683.668L3031.5 1060.33C3031.5 1112.34 2989.34 1154.5 2937.33 1154.5L2461.67 1154.5C2409.66 1154.5 2367.5 1112.34 2367.5 1060.33Z" stroke="#2F528F" stroke-width="4.58333" stroke-miterlimit="8" stroke-dasharray="4.58333 4.58333" fill="#E9F5FD" fill-rule="evenodd"/><path d="M2339 556.167C2339 546.686 2346.69 539 2356.17 539L2771.83 539C2781.31 539 2789 546.686 2789 556.167L2789 624.833C2789 634.314 2781.31 642 2771.83 642L2356.17 642C2346.69 642 2339 634.314 2339 624.833Z" stroke="#2F528F" stroke-width="2.29167" stroke-miterlimit="8" fill="#FFFFFF" fill-rule="evenodd"/><text font-family="Calibri,Calibri_MSFontService,sans-serif" font-weight="700" font-size="41" transform="matrix(1 0 0 1 2578.55 580)">LZC Spoke</text><text font-family="Calibri,Calibri_MSFontService,sans-serif" font-weight="700" font-size="41" transform="matrix(1 0 0 1 2575.11 629)">Any Prefix</text><g clip-path="url(#clip66)"><g clip-path="url(#clip67)"><g clip-path="url(#clip68)"><path d="M76.45 49.445C76.45 52.9686 73.5936 55.825 70.07 55.825 66.5464 55.825 63.69 52.9686 63.69 49.445 63.69 45.9214 66.5464 43.065 70.07 43.065 73.5936 43.065 76.45 45.9214 76.45 49.445Z" fill="url(#fill69)" transform="matrix(1.06061 0 0 1 2383 543)"/><path d="M56.1 49.5C56.1 53.0236 53.2436 55.88 49.72 55.88 46.1964 55.88 43.34 53.0236 43.34 49.5 43.34 45.9764 46.1964 43.12 49.72 43.12 53.2436 43.12 56.1 45.9764 56.1 49.5Z" fill="url(#fill70)" transform="matrix(1.06061 0 0 1 2383 543)"/><path d="M35.75 49.5C35.75 53.0236 32.8936 55.88 29.37 55.88 25.8464 55.88 22.99 53.0236 22.99 49.5 22.99 45.9764 25.8464 43.12 29.37 43.12 32.8936 43.12 35.75 45.9764 35.75 49.5Z" fill="url(#fill71)" transform="matrix(1.06061 0 0 1 2383 543)"/><path d="M14.772 41.2032 20.0922 41.2032C21.03 41.2032 21.7902 41.9634 21.7902 42.9012L21.7902 82.1801C21.7902 84.0557 20.2698 85.576 18.3943 85.576L13.0741 85.576 13.0741 85.576 13.0741 42.9012C13.0741 41.9634 13.8343 41.2032 14.772 41.2032Z" fill="#50E6FF" transform="matrix(-0.727772 0.688102 -0.729807 -0.686184 2459.88 636.115)"/><path d="M14.4867 16.4673 19.806 16.4673C20.7436 16.4673 21.5037 17.2273 21.5037 18.1649L21.5037 60.2102 21.5037 60.2102 16.1843 60.2102C14.3092 60.2102 12.789 58.6903 12.789 56.8149L12.789 18.1649C12.789 17.2273 13.5491 16.4673 14.4867 16.4673Z" fill="#1490DF" transform="matrix(0.729927 0.686297 -0.727892 0.688215 2416.02 542.12)"/><path d="M80.086 41.2032 85.4062 41.2032C87.2818 41.2032 88.802 42.7236 88.802 44.5991L88.802 83.878C88.802 84.8159 88.0419 85.576 87.1041 85.576L81.7839 85.576C80.8461 85.576 80.086 84.8159 80.086 83.878L80.086 41.2032 80.086 41.2032Z" fill="#50E6FF" transform="matrix(0.727772 0.688102 -0.729807 0.686184 2454.87 502.96)"/><path d="M83.8077 16.4673 89.127 16.4673 89.127 16.4673 89.127 58.5126C89.127 59.4503 88.367 60.2102 87.4293 60.2102L82.0534 60.2102C81.1158 60.2102 80.3558 59.4503 80.3558 58.5126L80.3558 19.8626C80.3558 17.9874 81.8757 16.4673 83.7511 16.4673Z" fill="#1490DF" transform="matrix(-0.729927 0.686297 -0.727892 -0.688215 2560.1 548.445)"/></g></g></g><rect x="2285.5" y="452.5" width="827" height="800" stroke="#BFBFBF" stroke-width="4.58333" stroke-linecap="square" stroke-miterlimit="8" stroke-dasharray="13.75 4.58333" fill="none"/><path d="M2839 430.667C2839 424.776 2843.78 420 2849.67 420L3182.33 420C3188.22 420 3193 424.776 3193 430.667L3193 473.333C3193 479.224 3188.22 484 3182.33 484L2849.67 484C2843.78 484 2839 479.224 2839 473.333Z" stroke="#BFBFBF" stroke-width="2.29167" stroke-miterlimit="8" fill="#FFFFFF" fill-rule="evenodd"/><text font-family="Calibri,Calibri_MSFontService,sans-serif" font-weight="700" font-size="41" transform="matrix(1 0 0 1 2885.91 466)">Landing Zone C</text><path d="M2367.5 1641.67C2367.5 1589.66 2409.66 1547.5 2461.67 1547.5L2937.33 1547.5C2989.34 1547.5 3031.5 1589.66 3031.5 1641.67L3031.5 2018.33C3031.5 2070.34 2989.34 2112.5 2937.33 2112.5L2461.67 2112.5C2409.66 2112.5 2367.5 2070.34 2367.5 2018.33Z" stroke="#2F528F" stroke-width="4.58333" stroke-miterlimit="8" stroke-dasharray="4.58333 4.58333" fill="#E9F5FD" fill-rule="evenodd"/><path d="M2953.17 1879.5C2969.37 1879.5 2982.5 1892.63 2982.5 1908.83L2982.5 2026.17C2982.5 2042.37 2969.37 2055.5 2953.17 2055.5L2450.83 2055.5C2434.63 2055.5 2421.5 2042.37 2421.5 2026.17L2421.5 1908.83C2421.5 1892.63 2434.63 1879.5 2450.83 1879.5Z" stroke="#2F528F" stroke-width="4.58333" stroke-miterlimit="8" stroke-dasharray="4.58333 4.58333" fill="#F2F2F2" fill-rule="evenodd"/><g><g><g><path d="M107.52 1.30667C109.582 1.30667 111.253 2.97814 111.253 5.04L111.253 72.24C111.253 74.3019 109.582 75.9734 107.52 75.9734L2.98667 75.9734C0.924808 75.9734-0.746663 74.3019-0.746663 72.24L-0.746663 5.04C-0.746663 2.97814 0.924808 1.30667 2.98667 1.30667Z" fill="url(#fill72)" transform="matrix(1.00893 0 0 1 2548 1927)"/><path d="M73.92 27.7511 73.92 49.4667 55.2534 60.4178 55.2534 38.64 73.92 27.7511Z" fill="#50E6FF" transform="matrix(1.00893 0 0 1 2548 1927)"/><path d="M73.92 27.7511 55.2534 38.7022 36.5867 27.7511 55.2534 16.8622 73.92 27.7511Z" fill="#C3F1FF" transform="matrix(1.00893 0 0 1 2548 1927)"/><path d="M55.2534 38.7022 55.2534 60.4178 36.5867 49.4667 36.5867 27.7511 55.2534 38.7022Z" fill="#9CEBFF" transform="matrix(1.00893 0 0 1 2548 1927)"/><path d="M36.5867 49.4667 55.2534 38.64 55.2534 60.4178 36.5867 49.4667Z" fill="#C3F1FF" transform="matrix(1.00893 0 0 1 2548 1927)"/><path d="M73.92 49.4667 55.2534 38.64 55.2534 60.4178 73.92 49.4667Z" fill="#9CEBFF" transform="matrix(1.00893 0 0 1 2548 1927)"/><path d="M77.7156 98.5601C66.64 96.8178 66.2045 88.8534 66.2045 75.9734L44.24 75.9734C44.24 88.8534 43.8667 96.8178 32.7911 98.5601 29.6245 98.9104 27.234 101.596 27.2533 104.782L83.2534 104.782C83.2727 101.596 80.8821 98.9104 77.7156 98.5601Z" fill="url(#fill73)" transform="matrix(1.00893 0 0 1 2548 1927)"/></g></g></g><path d="M2921 2036C2921 2032.69 2923.69 2030 2927 2030L2976 2030C2979.31 2030 2982 2032.69 2982 2036L2982 2060C2982 2063.31 2979.31 2066 2976 2066L2927 2066C2923.69 2066 2921 2063.31 2921 2060Z" stroke="#2F528F" stroke-width="2.29167" stroke-miterlimit="8" fill="#FFFFFF" fill-rule="evenodd"/><g clip-path="url(#clip74)"><g clip-path="url(#clip75)"><g clip-path="url(#clip76)"><path d="M25.4833 16.4817C25.4833 17.6562 24.5312 18.6083 23.3567 18.6083 22.1821 18.6083 21.23 17.6562 21.23 16.4817 21.23 15.3071 22.1821 14.355 23.3567 14.355 24.5312 14.355 25.4833 15.3071 25.4833 16.4817Z" fill="url(#fill77)" transform="matrix(1 0 0 1.06061 2935 2031)"/><path d="M18.7 16.5C18.7 17.6745 17.7479 18.6267 16.5733 18.6267 15.3988 18.6267 14.4467 17.6745 14.4467 16.5 14.4467 15.3255 15.3988 14.3733 16.5733 14.3733 17.7479 14.3733 18.7 15.3255 18.7 16.5Z" fill="url(#fill78)" transform="matrix(1 0 0 1.06061 2935 2031)"/><path d="M11.9167 16.5C11.9167 17.6745 10.9645 18.6267 9.79 18.6267 8.61547 18.6267 7.66333 17.6745 7.66333 16.5 7.66333 15.3255 8.61547 14.3733 9.79 14.3733 10.9645 14.3733 11.9167 15.3255 11.9167 16.5Z" fill="url(#fill79)" transform="matrix(1 0 0 1.06061 2935 2031)"/><path d="M4.92321 13.7322 6.69631 13.7322C7.00885 13.7322 7.2622 13.9855 7.2622 14.298L7.2622 27.3889C7.2622 28.014 6.75549 28.5206 6.13043 28.5206L4.35732 28.5206 4.35732 28.5206 4.35732 14.298C4.35732 13.9855 4.61067 13.7322 4.92321 13.7322Z" fill="#50E6FF" transform="matrix(-0.686297 0.729927 -0.688215 -0.727892 2959.16 2063.92)"/><path d="M4.82968 5.48999 6.60308 5.48999C6.91567 5.48999 7.16906 5.74338 7.16906 6.05597L7.16906 20.0734 7.16906 20.0734 5.39566 20.0734C4.7705 20.0734 4.26371 19.5666 4.26371 18.9414L4.26371 6.05597C4.26371 5.74338 4.51709 5.48999 4.82968 5.48999Z" fill="#1490DF" transform="matrix(0.688102 0.727772 -0.686184 0.729807 2945.38 2030.69)"/><path d="M26.6909 13.7322 28.4641 13.7322C29.0892 13.7322 29.5958 14.2389 29.5958 14.8639L29.5958 27.9548C29.5958 28.2673 29.3425 28.5206 29.0299 28.5206L27.2568 28.5206C26.9443 28.5206 26.6909 28.2673 26.6909 27.9548L26.6909 13.7322 26.6909 13.7322Z" fill="#50E6FF" transform="matrix(0.686297 0.729927 -0.688215 0.727892 2957.59 2016.84)"/><path d="M27.9405 5.48999 29.7139 5.48999 29.7139 5.48999 29.7139 19.5074C29.7139 19.82 29.4605 20.0734 29.1479 20.0734L27.3556 20.0734C27.043 20.0734 26.7897 19.82 26.7897 19.5074L26.7897 6.62195C26.7897 5.99679 27.2964 5.48999 27.9216 5.48999Z" fill="#1490DF" transform="matrix(-0.688102 0.727772 -0.686184 -0.729807 2990.66 2032.92)"/></g></g></g><g><g><g><path d="M2843.52 1928.31C2845.58 1928.31 2847.25 1929.98 2847.25 1932.04L2847.25 1999.24C2847.25 2001.3 2845.58 2002.97 2843.52 2002.97L2738.99 2002.97C2736.92 2002.97 2735.25 2001.3 2735.25 1999.24L2735.25 1932.04C2735.25 1929.98 2736.92 1928.31 2738.99 1928.31Z" fill="url(#fill80)"/><path d="M2809.92 1954.75 2809.92 1976.47 2791.25 1987.42 2791.25 1965.64 2809.92 1954.75Z" fill="#50E6FF"/><path d="M2809.92 1954.75 2791.25 1965.7 2772.59 1954.75 2791.25 1943.86 2809.92 1954.75Z" fill="#C3F1FF"/><path d="M2791.25 1965.7 2791.25 1987.42 2772.59 1976.47 2772.59 1954.75 2791.25 1965.7Z" fill="#9CEBFF"/><path d="M2772.59 1976.47 2791.25 1965.64 2791.25 1987.42 2772.59 1976.47Z" fill="#C3F1FF"/><path d="M2809.92 1976.47 2791.25 1965.64 2791.25 1987.42 2809.92 1976.47Z" fill="#9CEBFF"/><path d="M2813.72 2025.56C2802.64 2023.82 2802.2 2015.85 2802.2 2002.97L2780.24 2002.97C2780.24 2015.85 2779.87 2023.82 2768.79 2025.56 2765.62 2025.91 2763.23 2028.6 2763.25 2031.78L2819.25 2031.78C2819.27 2028.6 2816.88 2025.91 2813.72 2025.56Z" fill="url(#fill81)"/></g></g></g><path d="M2954.83 1628.5C2970.11 1628.5 2982.5 1640.89 2982.5 1656.17L2982.5 1766.83C2982.5 1782.11 2970.11 1794.5 2954.83 1794.5L2449.17 1794.5C2433.89 1794.5 2421.5 1782.11 2421.5 1766.83L2421.5 1656.17C2421.5 1640.89 2433.89 1628.5 2449.17 1628.5Z" stroke="#2F528F" stroke-width="4.58333" stroke-miterlimit="8" stroke-dasharray="4.58333 4.58333" fill="#F2F2F2" fill-rule="evenodd"/><path d="M2921 1778C2921 1774.69 2923.69 1772 2927 1772L2976 1772C2979.31 1772 2982 1774.69 2982 1778L2982 1802C2982 1805.31 2979.31 1808 2976 1808L2927 1808C2923.69 1808 2921 1805.31 2921 1802Z" stroke="#2F528F" stroke-width="2.29167" stroke-miterlimit="8" fill="#FFFFFF" fill-rule="evenodd"/><g clip-path="url(#clip82)"><g clip-path="url(#clip83)"><g clip-path="url(#clip84)"><path d="M25.4833 16.4817C25.4833 17.6562 24.5312 18.6083 23.3567 18.6083 22.1821 18.6083 21.23 17.6562 21.23 16.4817 21.23 15.3071 22.1821 14.355 23.3567 14.355 24.5312 14.355 25.4833 15.3071 25.4833 16.4817Z" fill="url(#fill85)" transform="matrix(1 0 0 1.06061 2935 1774)"/><path d="M18.7 16.5C18.7 17.6745 17.7479 18.6267 16.5733 18.6267 15.3988 18.6267 14.4467 17.6745 14.4467 16.5 14.4467 15.3255 15.3988 14.3733 16.5733 14.3733 17.7479 14.3733 18.7 15.3255 18.7 16.5Z" fill="url(#fill86)" transform="matrix(1 0 0 1.06061 2935 1774)"/><path d="M11.9167 16.5C11.9167 17.6745 10.9645 18.6267 9.79 18.6267 8.61547 18.6267 7.66333 17.6745 7.66333 16.5 7.66333 15.3255 8.61547 14.3733 9.79 14.3733 10.9645 14.3733 11.9167 15.3255 11.9167 16.5Z" fill="url(#fill87)" transform="matrix(1 0 0 1.06061 2935 1774)"/><path d="M4.92321 13.7322 6.69631 13.7322C7.00885 13.7322 7.2622 13.9855 7.2622 14.298L7.2622 27.3889C7.2622 28.014 6.75549 28.5206 6.13043 28.5206L4.35732 28.5206 4.35732 28.5206 4.35732 14.298C4.35732 13.9855 4.61067 13.7322 4.92321 13.7322Z" fill="#50E6FF" transform="matrix(-0.686297 0.729927 -0.688215 -0.727892 2959.16 1806.92)"/><path d="M4.82968 5.48999 6.60308 5.48999C6.91567 5.48999 7.16906 5.74338 7.16906 6.05597L7.16906 20.0734 7.16906 20.0734 5.39566 20.0734C4.7705 20.0734 4.26371 19.5666 4.26371 18.9414L4.26371 6.05597C4.26371 5.74338 4.51709 5.48999 4.82968 5.48999Z" fill="#1490DF" transform="matrix(0.688102 0.727772 -0.686184 0.729807 2945.38 1773.69)"/><path d="M26.6909 13.7322 28.4641 13.7322C29.0892 13.7322 29.5958 14.2389 29.5958 14.8639L29.5958 27.9548C29.5958 28.2673 29.3425 28.5206 29.0299 28.5206L27.2568 28.5206C26.9443 28.5206 26.6909 28.2673 26.6909 27.9548L26.6909 13.7322 26.6909 13.7322Z" fill="#50E6FF" transform="matrix(0.686297 0.729927 -0.688215 0.727892 2957.59 1759.84)"/><path d="M27.9405 5.48999 29.7139 5.48999 29.7139 5.48999 29.7139 19.5074C29.7139 19.82 29.4605 20.0734 29.1479 20.0734L27.3556 20.0734C27.043 20.0734 26.7897 19.82 26.7897 19.5074L26.7897 6.62195C26.7897 5.99679 27.2964 5.48999 27.9216 5.48999Z" fill="#1490DF" transform="matrix(-0.688102 0.727772 -0.686184 -0.729807 2990.66 1775.93)"/></g></g></g><rect x="2285.5" y="1410.5" width="827" height="800" stroke="#BFBFBF" stroke-width="4.58333" stroke-linecap="square" stroke-miterlimit="8" stroke-dasharray="13.75 4.58333" fill="none"/><path d="M2839 1388.67C2839 1382.78 2843.78 1378 2849.67 1378L3182.33 1378C3188.22 1378 3193 1382.78 3193 1388.67L3193 1431.33C3193 1437.22 3188.22 1442 3182.33 1442L2849.67 1442C2843.78 1442 2839 1437.22 2839 1431.33Z" stroke="#BFBFBF" stroke-width="2.29167" stroke-miterlimit="8" fill="#FFFFFF" fill-rule="evenodd"/><text font-family="Calibri,Calibri_MSFontService,sans-serif" font-weight="700" font-size="41" transform="matrix(1 0 0 1 2883.91 1424)">Landing Zone D</text><path d="M2952.83 922.5C2968.11 922.5 2980.5 934.887 2980.5 950.167L2980.5 1060.83C2980.5 1076.11 2968.11 1088.5 2952.83 1088.5L2446.17 1088.5C2430.89 1088.5 2418.5 1076.11 2418.5 1060.83L2418.5 950.167C2418.5 934.887 2430.89 922.5 2446.17 922.5Z" stroke="#2F528F" stroke-width="4.58333" stroke-miterlimit="8" stroke-dasharray="4.58333 4.58333" fill="#F2F2F2" fill-rule="evenodd"/><path d="M2921 1078C2921 1074.69 2923.69 1072 2927 1072L2976 1072C2979.31 1072 2982 1074.69 2982 1078L2982 1102C2982 1105.31 2979.31 1108 2976 1108L2927 1108C2923.69 1108 2921 1105.31 2921 1102Z" stroke="#2F528F" stroke-width="2.29167" stroke-miterlimit="8" fill="#FFFFFF" fill-rule="evenodd"/><g clip-path="url(#clip88)"><g clip-path="url(#clip89)"><g clip-path="url(#clip90)"><path d="M25.4833 16.4817C25.4833 17.6562 24.5312 18.6083 23.3567 18.6083 22.1821 18.6083 21.23 17.6562 21.23 16.4817 21.23 15.3071 22.1821 14.355 23.3567 14.355 24.5312 14.355 25.4833 15.3071 25.4833 16.4817Z" fill="url(#fill91)" transform="matrix(1 0 0 1.06061 2935 1073)"/><path d="M18.7 16.5C18.7 17.6745 17.7479 18.6267 16.5733 18.6267 15.3988 18.6267 14.4467 17.6745 14.4467 16.5 14.4467 15.3255 15.3988 14.3733 16.5733 14.3733 17.7479 14.3733 18.7 15.3255 18.7 16.5Z" fill="url(#fill92)" transform="matrix(1 0 0 1.06061 2935 1073)"/><path d="M11.9167 16.5C11.9167 17.6745 10.9645 18.6267 9.79 18.6267 8.61547 18.6267 7.66333 17.6745 7.66333 16.5 7.66333 15.3255 8.61547 14.3733 9.79 14.3733 10.9645 14.3733 11.9167 15.3255 11.9167 16.5Z" fill="url(#fill93)" transform="matrix(1 0 0 1.06061 2935 1073)"/><path d="M4.92321 13.7322 6.69631 13.7322C7.00885 13.7322 7.2622 13.9855 7.2622 14.298L7.2622 27.3889C7.2622 28.014 6.75549 28.5206 6.13043 28.5206L4.35732 28.5206 4.35732 28.5206 4.35732 14.298C4.35732 13.9855 4.61067 13.7322 4.92321 13.7322Z" fill="#50E6FF" transform="matrix(-0.686297 0.729927 -0.688215 -0.727892 2959.16 1105.92)"/><path d="M4.82968 5.48999 6.60308 5.48999C6.91567 5.48999 7.16906 5.74338 7.16906 6.05597L7.16906 20.0734 7.16906 20.0734 5.39566 20.0734C4.7705 20.0734 4.26371 19.5666 4.26371 18.9414L4.26371 6.05597C4.26371 5.74338 4.51709 5.48999 4.82968 5.48999Z" fill="#1490DF" transform="matrix(0.688102 0.727772 -0.686184 0.729807 2945.38 1072.69)"/><path d="M26.6909 13.7322 28.4641 13.7322C29.0892 13.7322 29.5958 14.2389 29.5958 14.8639L29.5958 27.9548C29.5958 28.2673 29.3425 28.5206 29.0299 28.5206L27.2568 28.5206C26.9443 28.5206 26.6909 28.2673 26.6909 27.9548L26.6909 13.7322 26.6909 13.7322Z" fill="#50E6FF" transform="matrix(0.686297 0.729927 -0.688215 0.727892 2957.59 1058.84)"/><path d="M27.9405 5.48999 29.7139 5.48999 29.7139 5.48999 29.7139 19.5074C29.7139 19.82 29.4605 20.0734 29.1479 20.0734L27.3556 20.0734C27.043 20.0734 26.7897 19.82 26.7897 19.5074L26.7897 6.62195C26.7897 5.99679 27.2964 5.48999 27.9216 5.48999Z" fill="#1490DF" transform="matrix(-0.688102 0.727772 -0.686184 -0.729807 2990.66 1074.92)"/></g></g></g><g><g><g><path d="M63.9329 45.2325 50.5329 45.2325C41.299 45.3277 33.8908 52.8904 33.986 62.1242 34.0696 70.2267 39.9508 77.1029 47.9422 78.4421 47.6425 76.3696 47.708 74.2609 48.1358 72.2111 42.4537 70.9063 38.9052 65.2422 40.2101 59.5601 41.3166 54.7416 45.619 51.3366 50.5627 51.3667L63.9627 51.3667C69.8092 51.3667 74.5487 56.1062 74.5487 61.9527 74.5487 67.7992 69.8092 72.5387 63.9627 72.5387L60.2554 72.5387C59.7678 73.5858 59.5138 74.7266 59.5109 75.8813 59.5105 76.8342 59.6898 77.7788 60.0395 78.6655L63.9627 78.6655C73.195 78.8605 80.837 71.5341 81.0321 62.3018 81.2271 53.0695 73.9005 45.4273 64.6683 45.2325 64.4331 45.2275 64.1979 45.2275 63.9627 45.2325Z" fill="url(#fill94)" transform="matrix(1 0 0 1.00746 2617 949)"/><path d="M83.2438 59.3844C83.3644 60.2353 83.4292 61.0933 83.4374 61.9527 83.4463 63.1781 83.3242 64.401 83.0726 65.6005 88.7549 66.9055 92.303 72.5696 90.998 78.2516 89.8925 83.0674 85.594 86.4717 80.6531 86.4449L67.2531 86.4449C61.4066 86.4449 56.6671 81.705 56.6671 75.8589 56.6671 70.0124 61.4066 65.2729 67.2531 65.2729L70.9307 65.2729C71.424 64.2279 71.6784 63.086 71.6751 61.9304 71.6748 60.9749 71.4955 60.0281 71.1466 59.1387L67.2755 59.1387C58.0432 59.3335 50.7169 66.9757 50.9118 76.2081 51.1008 85.166 58.3175 92.3826 67.2755 92.5717L80.6755 92.5717C89.9096 92.4764 97.3176 84.9136 97.2223 75.6803 97.1389 67.5775 91.2578 60.7011 83.2662 59.362Z" fill="url(#fill95)" transform="matrix(1 0 0 1.00746 2617 949)"/><path d="M41.54 99.6142 38.4729 102.711C37.6555 103.534 36.3263 103.537 35.504 102.72 35.501 102.717 35.4981 102.714 35.4951 102.711L1.22089 68.4889C-0.4224 66.8438-0.4224 64.1785 1.22089 62.5334L4.31778 59.496 41.54 96.6662C42.3438 97.4672 42.346 98.7685 41.5451 99.5717 41.5434 99.5732 41.5417 99.5754 41.54 99.5769L41.54 99.5769Z" fill="#50E6FF" transform="matrix(1 0 0 1.00746 2617 949)"/><path d="M37.8327 28.8547 41.2571 32.2791C42.0794 33.0965 42.0834 34.4257 41.266 35.248 41.2631 35.251 41.2601 35.2539 41.2571 35.2569L4.65278 71.9506 1.22089 68.5559C-0.4224 66.9108-0.4224 64.2455 1.22089 62.6004L34.8772 28.8547C35.6955 28.0438 37.0144 28.0438 37.8327 28.8547Z" fill="#1490DF" transform="matrix(1 0 0 1.00746 2617 949)"/><path d="M92.4377 102.041C91.6218 101.253 91.5995 99.9521 92.3878 99.1355 92.3893 99.134 92.3916 99.1318 92.393 99.1303L92.393 99.1303 92.4377 99.1303 129.66 61.9974 132.757 65.0868C134.4 66.732 134.4 69.3972 132.757 71.0424L98.4305 105.197C97.6421 106.013 96.3416 106.036 95.5249 105.247 95.5234 105.246 95.5212 105.244 95.5197 105.242L95.5197 105.242 95.475 105.205Z" fill="#50E6FF" transform="matrix(1 0 0 1.00746 2617 949)"/><path d="M99.093 31.3039 132.779 65.0719C134.4 66.7059 134.4 69.3414 132.779 70.9754L129.347 74.3998 92.7132 37.6838C91.9077 36.8546 91.9077 35.5352 92.7132 34.706L96.1376 31.3039C96.9557 30.493 98.2749 30.493 99.093 31.3039Z" fill="#1490DF" transform="matrix(1 0 0 1.00746 2617 949)"/></g></g></g><g clip-path="url(#clip96)"><g clip-path="url(#clip97)"><g clip-path="url(#clip98)"><path d="M2682.05 1675.99 2688.72 1675.99 2688.72 1718.03 2682.05 1718.03Z" fill="#7A7A7A"/><path d="M2695.17 1674.67C2695.16 1680.08 2690.77 1684.45 2685.36 1684.44 2679.96 1684.44 2675.58 1680.04 2675.59 1674.64 2675.6 1669.23 2679.99 1664.86 2685.39 1664.86L2685.39 1664.86C2690.79 1664.86 2695.17 1669.24 2695.17 1674.65 2695.17 1674.66 2695.17 1674.66 2695.17 1674.67Z" fill="#1490DF"/><path d="M2684.05 1715.81 2673.35 1715.81C2665.98 1715.88 2660.06 1721.92 2660.14 1729.3 2660.21 1735.77 2664.9 1741.26 2671.28 1742.33 2671.04 1740.68 2671.08 1739 2671.41 1737.36 2666.88 1736.32 2664.04 1731.8 2665.08 1727.26 2665.97 1723.41 2669.4 1720.69 2673.35 1720.72L2684.05 1720.72C2688.72 1720.72 2692.5 1724.5 2692.5 1729.17 2692.5 1733.84 2688.72 1737.62 2684.05 1737.62L2681.11 1737.62C2680.73 1738.46 2680.52 1739.37 2680.52 1740.3 2680.52 1741.06 2680.66 1741.81 2680.94 1742.52L2684.07 1742.52C2691.45 1742.68 2697.55 1736.83 2697.7 1729.46 2697.86 1722.08 2692.01 1715.98 2684.64 1715.83 2684.45 1715.82 2684.26 1715.82 2684.07 1715.83Z" fill="url(#fill99)"/><path d="M2699.47 1727.11C2699.57 1727.79 2699.62 1728.47 2699.63 1729.15 2699.63 1730.13 2699.54 1731.11 2699.33 1732.07 2703.87 1733.11 2706.7 1737.64 2705.66 1742.17 2704.78 1746.02 2701.35 1748.74 2697.4 1748.72L2686.7 1748.72C2682.03 1748.59 2678.35 1744.71 2678.47 1740.04 2678.59 1735.54 2682.21 1731.92 2686.7 1731.8L2689.64 1731.8C2690.03 1730.97 2690.24 1730.06 2690.23 1729.14 2690.23 1728.37 2690.09 1727.62 2689.81 1726.91L2686.72 1726.91C2679.35 1727.07 2673.5 1733.17 2673.65 1740.54 2673.8 1747.69 2679.57 1753.46 2686.72 1753.61L2697.42 1753.61C2704.79 1753.53 2710.71 1747.49 2710.63 1740.12 2710.57 1733.65 2705.87 1728.16 2699.49 1727.09Z" fill="url(#fill100)"/><path d="M2666.17 1759.23 2663.72 1761.7C2663.08 1762.36 2662.02 1762.37 2661.37 1761.72 2661.36 1761.71 2661.35 1761.71 2661.34 1761.7L2633.96 1734.35C2632.65 1733.04 2632.65 1730.91 2633.96 1729.6L2636.43 1727.15 2666.15 1756.82C2666.79 1757.46 2666.8 1758.5 2666.16 1759.14 2666.16 1759.15 2666.15 1759.15 2666.15 1759.15L2666.15 1759.15Z" fill="#50E6FF"/><path d="M2663.21 1702.73 2665.94 1705.46C2666.6 1706.12 2666.6 1707.18 2665.95 1707.84 2665.95 1707.84 2665.95 1707.84 2665.94 1707.84L2636.72 1737.14 2633.98 1734.43C2632.66 1733.11 2632.66 1730.98 2633.98 1729.67L2660.85 1702.73C2661.5 1702.08 2662.55 1702.08 2663.2 1702.72 2663.21 1702.73 2663.21 1702.73 2663.21 1702.73Z" fill="#1490DF"/><path d="M2706.81 1761.17C2706.16 1760.53 2706.15 1759.49 2706.78 1758.84L2706.78 1758.84 2706.81 1758.84 2736.53 1729.18 2739.01 1731.66C2740.32 1732.97 2740.32 1735.1 2739.01 1736.41L2711.6 1763.68C2710.97 1764.33 2709.93 1764.35 2709.27 1763.72L2709.27 1763.72 2709.24 1763.69Z" fill="#50E6FF"/><path d="M2712.13 1704.69 2739.03 1731.65C2740.32 1732.95 2740.32 1735.06 2739.03 1736.36L2736.28 1739.1 2707.03 1709.78C2706.4 1709.12 2706.4 1708.07 2707.03 1707.4L2709.77 1704.69C2710.42 1704.04 2711.47 1704.04 2712.13 1704.69Z" fill="#1490DF"/></g></g></g><path d="M2685 1065 2686.77 1661.7" stroke="#4472C4" stroke-width="2.29167" stroke-miterlimit="8" fill="none" fill-rule="evenodd"/><path d="M2583.85 1926.09 2583.85 1845.9 2686.68 1845.9 2685.53 1847.04 2685.53 1790.92 2687.82 1790.92 2687.82 1848.19 2585 1848.19 2586.15 1847.04 2586.15 1926.09ZM2672.93 1795.5 2686.68 1768 2700.43 1795.5Z" fill="#4472C4"/><path d="M0-1.14583 80.1887-1.14583 80.1887 105.329 79.0428 104.183 135.169 104.183 135.169 106.474 77.897 106.474 77.897 0 79.0428 1.14583 0 1.14583ZM130.586 91.5786 158.086 105.329 130.586 119.079Z" fill="#4472C4" transform="matrix(-1.83697e-16 -1 -1 1.83697e-16 2791.33 1926.09)"/><path d="M2941.5 661.5C2963.04 661.5 2980.5 678.961 2980.5 700.501L2980.5 856.499C2980.5 878.039 2963.04 895.5 2941.5 895.5L2457.5 895.5C2435.96 895.5 2418.5 878.039 2418.5 856.499L2418.5 700.501C2418.5 678.961 2435.96 661.5 2457.5 661.5Z" stroke="#2F528F" stroke-width="4.58333" stroke-miterlimit="8" stroke-dasharray="4.58333 4.58333" fill="#F2F2F2" fill-rule="evenodd"/><g clip-path="url(#clip101)"><g clip-path="url(#clip102)"><g clip-path="url(#clip103)"><path d="M2595.52 695.307C2597.58 695.307 2599.25 696.978 2599.25 699.04L2599.25 766.24C2599.25 768.302 2597.58 769.973 2595.52 769.973L2490.99 769.973C2488.92 769.973 2487.25 768.302 2487.25 766.24L2487.25 699.04C2487.25 696.978 2488.92 695.307 2490.99 695.307Z" fill="url(#fill104)"/><path d="M2561.92 721.751 2561.92 743.467 2543.25 754.418 2543.25 732.64 2561.92 721.751Z" fill="#50E6FF"/><path d="M2561.92 721.751 2543.25 732.702 2524.59 721.751 2543.25 710.862 2561.92 721.751Z" fill="#C3F1FF"/><path d="M2543.25 732.702 2543.25 754.418 2524.59 743.467 2524.59 721.751 2543.25 732.702Z" fill="#9CEBFF"/><path d="M2524.59 743.467 2543.25 732.64 2543.25 754.418 2524.59 743.467Z" fill="#C3F1FF"/><path d="M2561.92 743.467 2543.25 732.64 2543.25 754.418 2561.92 743.467Z" fill="#9CEBFF"/><path d="M2565.72 792.56C2554.64 790.818 2554.2 782.853 2554.2 769.973L2532.24 769.973C2532.24 782.853 2531.87 790.818 2520.79 792.56 2517.62 792.91 2515.23 795.597 2515.25 798.782L2571.25 798.782C2571.27 795.597 2568.88 792.91 2565.72 792.56Z" fill="url(#fill105)"/></g></g></g><g clip-path="url(#clip106)"><g clip-path="url(#clip107)"><g clip-path="url(#clip108)"><path d="M108.48 1.31833C110.56 1.31833 112.246 3.00472 112.246 5.08499L112.246 72.8848C112.246 74.9651 110.56 76.6515 108.48 76.6515L3.01333 76.6515C0.933063 76.6515-0.753327 74.9651-0.753327 72.8848L-0.753327 5.08499C-0.753327 3.00472 0.933063 1.31833 3.01333 1.31833Z" fill="url(#fill109)" transform="matrix(1 0 0 1 2777 695)"/><path d="M74.5798 27.9988 74.5798 49.9082 55.7465 60.9571 55.7465 38.9849 74.5798 27.9988Z" fill="#50E6FF" transform="matrix(1 0 0 1 2777 695)"/><path d="M74.5798 27.9988 55.7465 39.0477 36.9132 27.9988 55.7465 17.0127 74.5798 27.9988Z" fill="#C3F1FF" transform="matrix(1 0 0 1 2777 695)"/><path d="M55.7465 39.0477 55.7465 60.9571 36.9132 49.9082 36.9132 27.9988 55.7465 39.0477Z" fill="#9CEBFF" transform="matrix(1 0 0 1 2777 695)"/><path d="M36.9132 49.9082 55.7465 38.9849 55.7465 60.9571 36.9132 49.9082Z" fill="#C3F1FF" transform="matrix(1 0 0 1 2777 695)"/><path d="M74.5798 49.9082 55.7465 38.9849 55.7465 60.9571 74.5798 49.9082Z" fill="#9CEBFF" transform="matrix(1 0 0 1 2777 695)"/><path d="M78.4093 99.4398C67.2348 97.682 66.7954 89.6465 66.7954 76.6515L44.6349 76.6515C44.6349 89.6465 44.2582 97.682 33.0838 99.4398 29.8889 99.7932 27.4771 102.503 27.4966 105.718L83.9965 105.718C84.0159 102.503 81.604 99.7932 78.4093 99.4398Z" fill="url(#fill110)" transform="matrix(1 0 0 1 2777 695)"/></g></g></g><g clip-path="url(#clip111)"><g clip-path="url(#clip112)"><g clip-path="url(#clip113)"><path d="M0.999997 47.611 47.611 0.999997C48.8948-0.319346 51.0052-0.348076 52.3246 0.93583 52.3462 0.956925 52.3676 0.978319 52.3887 0.999997L98.9997 47.611C100.319 48.8948 100.348 51.0052 99.0641 52.3246 99.043 52.3462 99.0213 52.3676 98.9997 52.3887L52.3332 99.0552C51.037 100.326 48.9627 100.326 47.6665 99.0552L0.999997 52.3887C-0.319346 51.1048-0.348076 48.9944 0.93583 47.6751 0.956925 47.6535 0.978319 47.6321 0.999997 47.611Z" fill="url(#fill114)" transform="matrix(1 0 0 1 2637 775)"/><path d="M62.222 22.2221 50.4443 10.5C50.1912 10.2736 49.8084 10.2736 49.5554 10.5L37.7777 22.2221C37.5231 22.3934 37.4556 22.7386 37.6269 22.9932 37.7574 23.1871 37.9953 23.2786 38.2221 23.2221L45.111 23.2221C45.4485 23.2221 45.7221 23.4958 45.7221 23.8333L45.7221 34.9443C45.7221 35.2818 45.9957 35.5554 46.3332 35.5554L53.6665 35.5554C54.004 35.5554 54.2776 35.2818 54.2776 34.9443L54.2776 23.8333C54.2776 23.4958 54.5512 23.2221 54.8887 23.2221L61.7776 23.2221C62.0754 23.2963 62.377 23.1151 62.4509 22.8174 62.5076 22.5905 62.4159 22.3526 62.222 22.2221Z" fill="#B4EC36" transform="matrix(1 0 0 1 2637 775)"/><path d="M22.2221 36.7221 10.5555 48.5554C10.3367 48.7901 10.3367 49.154 10.5555 49.3887L22.2221 61.1109C22.4535 61.3565 22.8403 61.3681 23.086 61.137 23.2151 61.0154 23.2851 60.8437 23.2777 60.6665L23.2777 53.8332C23.2777 53.4957 23.5513 53.222 23.8888 53.222L34.9999 53.222C35.3067 53.2236 35.5567 52.9761 35.5582 52.6693 35.5583 52.6498 35.5574 52.6303 35.5554 52.6109L35.5554 45.2776C35.7127 45.0142 35.6267 44.6731 35.3633 44.5158 35.3028 44.4797 35.2361 44.4555 35.1665 44.4443L24.0555 44.4443C23.7502 44.475 23.4778 44.2524 23.4471 43.9471 23.4452 43.9277 23.4443 43.9082 23.4444 43.8887L23.4444 37.1665C23.5671 36.829 23.393 36.4559 23.0555 36.3332 22.718 36.2105 22.3449 36.3846 22.2221 36.7221Z" fill="#B4EC36" transform="matrix(1 0 0 1 2637 775)"/><path d="M78.222 61.1109 90.0553 49.3332C90.2741 49.0984 90.2741 48.7346 90.0553 48.4998L78.222 36.7221C77.962 36.507 77.5764 36.5435 77.3614 36.8035 77.277 36.9062 77.2275 37.0336 77.222 37.1665L77.222 44.111C77.2236 44.4178 76.9759 44.6677 76.6692 44.6693 76.6497 44.6694 76.6303 44.6685 76.6109 44.6665L65.4998 44.6665C65.1931 44.665 64.9431 44.9125 64.9415 45.2193 64.9415 45.2388 64.942 45.2582 64.9442 45.2776L64.9442 52.6109C64.9137 52.9162 65.1359 53.1886 65.4415 53.2193 65.4609 53.2212 65.4803 53.2222 65.4998 53.222L76.6109 53.222C76.9486 53.222 77.222 53.4957 77.222 53.8332L77.222 60.722C77.2653 61.057 77.5714 61.2931 77.9064 61.2498 78.0225 61.2348 78.1325 61.1865 78.222 61.1109Z" fill="#B4EC36" transform="matrix(1 0 0 1 2637 775)"/><path d="M65.4998 49.9998C65.5526 41.4396 58.6565 34.4572 50.0962 34.4042 41.536 34.3511 34.5536 41.2475 34.5005 49.8077 34.4572 56.7987 39.0993 62.9537 45.8332 64.8331L45.8332 70.1109C41.172 72.5192 39.3459 78.2509 41.7545 82.9119 44.163 87.573 49.8942 89.3991 54.5554 86.9903 59.2165 84.5819 61.0426 78.8509 58.6343 74.1898 57.7304 72.4403 56.3048 71.0148 54.5554 70.1109L54.5554 64.5553C60.9909 62.6142 65.422 56.7215 65.4998 49.9998Z" fill="#FFFFFF" transform="matrix(1 0 0 1 2637 775)"/><path d="M59.0554 49.9443C59.0554 54.9148 55.0259 58.9442 50.0554 58.9442 45.0848 58.9442 41.0554 54.9148 41.0554 49.9443 41.0554 44.9737 45.0848 40.9443 50.0554 40.9443 55.0259 40.9443 59.0554 44.9737 59.0554 49.9443Z" fill="#5EA0EF" transform="matrix(1 0 0 1 2637 775)"/></g></g></g><path d="M2637.03 825.262 2544 825.262 2544 806" stroke="#4472C4" stroke-width="2.29167" stroke-miterlimit="8" fill="none" fill-rule="evenodd"/><path d="M0 0 96.5315 0 96.5315 17.5838" stroke="#4472C4" stroke-width="2.29167" stroke-miterlimit="8" fill="none" fill-rule="evenodd" transform="matrix(1 0 0 -1 2737 825.584)"/><path d="M0 0 2.25955 84.1605" stroke="#4472C4" stroke-width="2.29167" stroke-miterlimit="8" fill="none" fill-rule="evenodd" transform="matrix(-1 0 0 1 2687.26 875)"/><path d="M2339 1514.17C2339 1504.69 2346.69 1497 2356.17 1497L2771.83 1497C2781.31 1497 2789 1504.69 2789 1514.17L2789 1582.83C2789 1592.31 2781.31 1600 2771.83 1600L2356.17 1600C2346.69 1600 2339 1592.31 2339 1582.83Z" stroke="#2F528F" stroke-width="2.29167" stroke-miterlimit="8" fill="#FFFFFF" fill-rule="evenodd"/><text font-family="Calibri,Calibri_MSFontService,sans-serif" font-weight="700" font-size="41" transform="matrix(1 0 0 1 2574.54 1538)">LZD Spoke</text><text font-family="Calibri,Calibri_MSFontService,sans-serif" font-weight="700" font-size="41" transform="matrix(1 0 0 1 2575.11 1587)">Any Prefix</text><g clip-path="url(#clip115)"><g clip-path="url(#clip116)"><g clip-path="url(#clip117)"><path d="M76.45 49.445C76.45 52.9686 73.5936 55.825 70.07 55.825 66.5464 55.825 63.69 52.9686 63.69 49.445 63.69 45.9214 66.5464 43.065 70.07 43.065 73.5936 43.065 76.45 45.9214 76.45 49.445Z" fill="url(#fill118)" transform="matrix(1.06061 0 0 1 2383 1501)"/><path d="M56.1 49.5C56.1 53.0236 53.2436 55.88 49.72 55.88 46.1964 55.88 43.34 53.0236 43.34 49.5 43.34 45.9764 46.1964 43.12 49.72 43.12 53.2436 43.12 56.1 45.9764 56.1 49.5Z" fill="url(#fill119)" transform="matrix(1.06061 0 0 1 2383 1501)"/><path d="M35.75 49.5C35.75 53.0236 32.8936 55.88 29.37 55.88 25.8464 55.88 22.99 53.0236 22.99 49.5 22.99 45.9764 25.8464 43.12 29.37 43.12 32.8936 43.12 35.75 45.9764 35.75 49.5Z" fill="url(#fill120)" transform="matrix(1.06061 0 0 1 2383 1501)"/><path d="M14.772 41.2032 20.0922 41.2032C21.03 41.2032 21.7902 41.9634 21.7902 42.9012L21.7902 82.1801C21.7902 84.0557 20.2698 85.576 18.3943 85.576L13.0741 85.576 13.0741 85.576 13.0741 42.9012C13.0741 41.9634 13.8343 41.2032 14.772 41.2032Z" fill="#50E6FF" transform="matrix(-0.727772 0.688102 -0.729807 -0.686184 2459.88 1594.12)"/><path d="M14.4867 16.4673 19.806 16.4673C20.7436 16.4673 21.5037 17.2273 21.5037 18.1649L21.5037 60.2102 21.5037 60.2102 16.1843 60.2102C14.3092 60.2102 12.789 58.6903 12.789 56.8149L12.789 18.1649C12.789 17.2273 13.5491 16.4673 14.4867 16.4673Z" fill="#1490DF" transform="matrix(0.729927 0.686297 -0.727892 0.688215 2416.02 1500.12)"/><path d="M80.086 41.2032 85.4062 41.2032C87.2818 41.2032 88.802 42.7236 88.802 44.5991L88.802 83.878C88.802 84.8159 88.0419 85.576 87.1041 85.576L81.7839 85.576C80.8461 85.576 80.086 84.8159 80.086 83.878L80.086 41.2032 80.086 41.2032Z" fill="#50E6FF" transform="matrix(0.727772 0.688102 -0.729807 0.686184 2454.87 1460.96)"/><path d="M83.8077 16.4673 89.127 16.4673 89.127 16.4673 89.127 58.5126C89.127 59.4503 88.367 60.2102 87.4293 60.2102L82.0534 60.2102C81.1158 60.2102 80.3558 59.4503 80.3558 58.5126L80.3558 19.8626C80.3558 17.9874 81.8757 16.4673 83.7511 16.4673Z" fill="#1490DF" transform="matrix(-0.729927 0.686297 -0.727892 -0.688215 2560.1 1506.45)"/></g></g></g><path d="M2650.17 1434C2640.13 1434 2632 1425.87 2632 1415.83L2632 1245.17C2632 1235.13 2640.13 1227 2650.17 1227L2722.83 1227C2732.87 1227 2741 1235.13 2741 1245.17L2741 1415.83C2741 1425.87 2732.87 1434 2722.83 1434Z" stroke="#2F528F" stroke-width="2.29167" stroke-miterlimit="8" fill="#FFFFFF" fill-rule="evenodd"/><text font-family="Calibri,Calibri_MSFontService,sans-serif" font-weight="700" font-size="41" transform="matrix(-1.83697e-16 -1 1 -1.83697e-16 2675.99 1392)">Private </text><text font-family="Calibri,Calibri_MSFontService,sans-serif" font-weight="700" font-size="41" transform="matrix(-1.83697e-16 -1 1 -1.83697e-16 2724.98 1366)">Link</text><path d="M1739.17 1435C1729.13 1435 1721 1426.87 1721 1416.83L1721 1247.17C1721 1237.13 1729.13 1229 1739.17 1229L1811.83 1229C1821.87 1229 1830 1237.13 1830 1247.17L1830 1416.83C1830 1426.87 1821.87 1435 1811.83 1435Z" stroke="#2F528F" stroke-width="2.29167" stroke-miterlimit="8" fill="#FFFFFF" fill-rule="evenodd"/><text font-family="Calibri,Calibri_MSFontService,sans-serif" font-weight="700" font-size="41" transform="matrix(-1.83697e-16 -1 1 -1.83697e-16 1764.97 1393)">Private </text><text font-family="Calibri,Calibri_MSFontService,sans-serif" font-weight="700" font-size="41" transform="matrix(-1.83697e-16 -1 1 -1.83697e-16 1813.97 1367)">Link</text><path d="M1485 1514.17C1485 1504.69 1492.69 1497 1502.17 1497L1917.83 1497C1927.31 1497 1935 1504.69 1935 1514.17L1935 1582.83C1935 1592.31 1927.31 1600 1917.83 1600L1502.17 1600C1492.69 1600 1485 1592.31 1485 1582.83Z" stroke="#2F528F" stroke-width="2.29167" stroke-miterlimit="8" fill="#FFFFFF" fill-rule="evenodd"/><text font-family="Calibri,Calibri_MSFontService,sans-serif" font-weight="700" font-size="41" transform="matrix(1 0 0 1 1723.08 1538)">LZB Spoke</text><text font-family="Calibri,Calibri_MSFontService,sans-serif" font-weight="700" font-size="41" transform="matrix(1 0 0 1 1720.79 1587)">Any Prefix</text><g clip-path="url(#clip121)"><g clip-path="url(#clip122)"><g clip-path="url(#clip123)"><path d="M76.45 49.445C76.45 52.9686 73.5936 55.825 70.07 55.825 66.5464 55.825 63.69 52.9686 63.69 49.445 63.69 45.9214 66.5464 43.065 70.07 43.065 73.5936 43.065 76.45 45.9214 76.45 49.445Z" fill="url(#fill124)" transform="matrix(1.05051 0 0 1 1529 1501)"/><path d="M56.1 49.5C56.1 53.0236 53.2436 55.88 49.72 55.88 46.1964 55.88 43.34 53.0236 43.34 49.5 43.34 45.9764 46.1964 43.12 49.72 43.12 53.2436 43.12 56.1 45.9764 56.1 49.5Z" fill="url(#fill125)" transform="matrix(1.05051 0 0 1 1529 1501)"/><path d="M35.75 49.5C35.75 53.0236 32.8936 55.88 29.37 55.88 25.8464 55.88 22.99 53.0236 22.99 49.5 22.99 45.9764 25.8464 43.12 29.37 43.12 32.8936 43.12 35.75 45.9764 35.75 49.5Z" fill="url(#fill126)" transform="matrix(1.05051 0 0 1 1529 1501)"/><path d="M14.7051 41.0166 20.0012 41.0166C20.9348 41.0166 21.6915 41.7733 21.6915 42.7069L21.6915 81.8079C21.6915 83.675 20.178 85.1883 18.311 85.1883L13.0149 85.1883 13.0149 85.1883 13.0149 42.7069C13.0149 41.7733 13.7716 41.0166 14.7051 41.0166Z" fill="#50E6FF" transform="matrix(-0.724121 0.691233 -0.726145 -0.689306 1605.15 1594.12)"/><path d="M14.4214 16.3931 19.7168 16.3931C20.6502 16.3931 21.4068 17.1497 21.4068 18.0831L21.4068 59.9391 21.4068 59.9391 16.1115 59.9391C14.2447 59.9391 12.7314 58.426 12.7314 56.5591L12.7314 18.0831C12.7314 17.1497 13.488 16.3931 14.4214 16.3931Z" fill="#1490DF" transform="matrix(0.726245 0.689401 -0.72422 0.691328 1561.7 1500.12)"/><path d="M79.7232 41.0166 85.0193 41.0166C86.8865 41.0166 88.3998 42.5301 88.3998 44.3971L88.3998 83.4981C88.3998 84.4317 87.6432 85.1883 86.7096 85.1883L81.4135 85.1883C80.4799 85.1883 79.7232 84.4317 79.7232 83.4981L79.7232 41.0166 79.7232 41.0166Z" fill="#50E6FF" transform="matrix(0.724121 0.691233 -0.726145 0.689306 1600.18 1460.96)"/><path d="M83.4303 16.3931 88.7257 16.3931 88.7257 16.3931 88.7257 58.2491C88.7257 59.1826 87.9691 59.9391 87.0357 59.9391L81.6839 59.9391C80.7505 59.9391 79.9939 59.1826 79.9939 58.2491L79.9939 19.7731C79.9939 17.9064 81.5071 16.3931 83.374 16.3931Z" fill="#1490DF" transform="matrix(-0.726245 0.689401 -0.72422 -0.691328 1704.41 1506.45)"/></g></g></g></g></svg>
