<?xml version="1.0" encoding="UTF-8" standalone="no"?>
<!DOCTYPE svg PUBLIC "-//W3C//DTD SVG 1.1//EN" "http://www.w3.org/Graphics/SVG/1.1/DTD/svg11.dtd">
<!-- Generated by Microsoft Visio, SVG Export zero-trust-architecture.svg Page-1 -->
<svg xmlns="http://www.w3.org/2000/svg" xmlns:xlink="http://www.w3.org/1999/xlink" xmlns:ev="http://www.w3.org/2001/xml-events"
		xmlns:v="http://schemas.microsoft.com/visio/2003/SVGExtensions/" width="2.10652in" height="0.799995in"
		viewBox="0 0 151.669 57.5997" xml:space="preserve" color-interpolation-filters="sRGB" class="st6">
	<v:documentProperties v:langID="1033" v:viewMarkup="false"/>

	<style type="text/css">
	<![CDATA[
		.st1 {fill:none;stroke:none;stroke-linecap:round;stroke-linejoin:round;stroke-width:0.75}
		.st2 {fill:#000000;font-family:Calibri;font-size:1.99999em}
		.st3 {font-size:1em}
		.st4 {fill:url(#grad0-10);stroke:none;stroke-linecap:butt;stroke-width:0.419906}
		.st5 {fill:url(#grad0-14);stroke:none;stroke-linecap:butt;stroke-width:0.419906}
		.st6 {fill:none;fill-rule:evenodd;font-size:12px;overflow:visible;stroke-linecap:square;stroke-miterlimit:3}
	]]>
	</style>

	<defs id="Patterns_And_Gradients">
		<linearGradient id="grad0-10" x1="0" y1="0" x2="1" y2="0" gradientTransform="rotate(90 0.5 0.5)">
			<stop offset="0" stop-color="#76bc2d" stop-opacity="1"/>
			<stop offset="0.32" stop-color="#73b82c" stop-opacity="1"/>
			<stop offset="0.65" stop-color="#6cab29" stop-opacity="1"/>
			<stop offset="0.99" stop-color="#5e9724" stop-opacity="1"/>
			<stop offset="1" stop-color="#5e9624" stop-opacity="1"/>
		</linearGradient>
		<linearGradient id="grad0-14" x1="0" y1="0" x2="1" y2="0" gradientTransform="rotate(0 0.5 0.5)">
			<stop offset="0" stop-color="#ffffff" stop-opacity="1"/>
			<stop offset="1" stop-color="#ffffff" stop-opacity="1"/>
		</linearGradient>
	</defs>
	<g v:mID="0" v:index="1" v:groupContext="foregroundPage">
		<title>Page-1</title>
		<v:pageProperties v:drawingScale="1" v:pageScale="1" v:drawingUnits="19" v:shadowOffsetX="9" v:shadowOffsetY="-9"/>
		<g id="group11023-1" transform="translate(0.375,-1.93704)" v:mID="11023" v:groupContext="group">
			<title>Sheet.11023</title>
			<g id="shape11024-2" v:mID="11024" v:groupContext="shape" transform="translate(0,-2.43257)">
				<title>Sheet.11024</title>
				<desc>Cost Management</desc>
				<v:textBlock v:margins="rect(4,4,4,4)"/>
				<v:textRect cx="75.4597" cy="33.1693" width="150.92" height="48.8608"/>
				<rect x="0" y="8.73887" width="150.919" height="48.8608" class="st1"/>
				<text x="54.02" y="25.97" class="st2" v:langID="1033"><v:paragraph v:horizAlign="1"/><v:tabList/>Cost<v:newlineChar/><tspan
							x="9.9" dy="1.2em" class="st3">Management</tspan></text>			</g>
			<g id="group11025-6" transform="translate(48.9407,-57.7677)" v:mID="11025" v:groupContext="group">
				<title>Sheet.11025</title>
				<g id="shape11026-7" v:mID="11026" v:groupContext="shape">
					<title>Sheet.11026</title>
					<path d="M35.87 11.14 L15.91 11.14 A5.98679 5.98679 -180 0 0 10.75 14.12 L0.79 31.4 A6.02253 6.02253 -180 0 0
								 0.79 37.37 L10.75 54.62 A5.95105 5.95105 -180 0 0 15.91 57.6 L35.87 57.6 A5.95105 5.95105 -180 0
								 0 41.04 54.62 L50.99 37.37 A6.02253 6.02253 -180 0 0 50.99 31.4 L41.04 14.12 A5.98679 5.98679 -180
								 0 0 35.87 11.14 Z" class="st4"/>
				</g>
				<g id="shape11027-11" v:mID="11027" v:groupContext="shape" transform="translate(17.34,-5.02176)">
					<title>Sheet.11027</title>
					<path d="M8.76 26.09 A2.43046 2.43046 0 1 1 11.21 23.7 A2.44833 2.44833 0 0 1 8.76 26.09 ZM6.31 55.15 A2.44833
								 2.44833 -180 0 0 11.21 55.15 A2.44833 2.44833 -180 1 0 6.31 55.15 ZM8.81 47.09 A4.44988 4.44988
								 0 0 1 4.32 44.54 L0 45.38 A7.97048 7.97048 -180 0 0 8.54 50.5 C13.58 50.5 17.23 47.86 17.23 44.16
								 A6.1655 6.1655 -180 0 0 13.89 38.21 A36.7964 36.7964 -180 0 0 8.52 36.6 C6.54 36.12 5.25 35.01 5.25
								 33.62 A2.96659 2.96659 0 0 1 8.52 31.03 A4.19969 4.19969 0 0 1 12.46 33.06 L16.17 31.87 A7.6488
								 7.6488 -180 0 0 8.6 27.99 C5.02 27.99 1 29.54 1 33.96 C1 39.32 4.31 40.43 9.02 41.35 C10.11 41.55
								 12.6 42.3 12.6 44.32 C12.46 45.47 11.53 47.09 8.88 47.09 L8.81 47.09 Z" class="st5"/>
				</g>
			</g>
		</g>
	</g>
</svg>
