<svg width="4681" height="906" xmlns="http://www.w3.org/2000/svg" xmlns:xlink="http://www.w3.org/1999/xlink" xml:space="preserve" overflow="hidden"><defs><filter id="fx0" x="-10%" y="-10%" width="120%" height="120%" filterUnits="userSpaceOnUse" primitiveUnits="userSpaceOnUse"><feComponentTransfer color-interpolation-filters="sRGB"><feFuncR type="discrete" tableValues="0 0"/><feFuncG type="discrete" tableValues="0 0"/><feFuncB type="discrete" tableValues="0 0"/><feFuncA type="linear" slope="0.4" intercept="0"/></feComponentTransfer><feGaussianBlur stdDeviation="6.11111 6.11111"/></filter><filter id="fx1" x="-10%" y="-10%" width="120%" height="120%" filterUnits="userSpaceOnUse" primitiveUnits="userSpaceOnUse"><feComponentTransfer color-interpolation-filters="sRGB"><feFuncR type="discrete" tableValues="0 0"/><feFuncG type="discrete" tableValues="0 0"/><feFuncB type="discrete" tableValues="0 0"/><feFuncA type="linear" slope="0.4" intercept="0"/></feComponentTransfer><feGaussianBlur stdDeviation="6.11111 6.11111"/></filter><filter id="fx2" x="-10%" y="-10%" width="120%" height="120%" filterUnits="userSpaceOnUse" primitiveUnits="userSpaceOnUse"><feComponentTransfer color-interpolation-filters="sRGB"><feFuncR type="discrete" tableValues="0 0"/><feFuncG type="discrete" tableValues="0 0"/><feFuncB type="discrete" tableValues="0 0"/><feFuncA type="linear" slope="0.4" intercept="0"/></feComponentTransfer><feGaussianBlur stdDeviation="6.11111 6.11111"/></filter><filter id="fx3" x="-10%" y="-10%" width="120%" height="120%" filterUnits="userSpaceOnUse" primitiveUnits="userSpaceOnUse"><feComponentTransfer color-interpolation-filters="sRGB"><feFuncR type="discrete" tableValues="0 0"/><feFuncG type="discrete" tableValues="0 0"/><feFuncB type="discrete" tableValues="0 0"/><feFuncA type="linear" slope="0.4" intercept="0"/></feComponentTransfer><feGaussianBlur stdDeviation="6.11111 6.11111"/></filter><filter id="fx4" x="-10%" y="-10%" width="120%" height="120%" filterUnits="userSpaceOnUse" primitiveUnits="userSpaceOnUse"><feComponentTransfer color-interpolation-filters="sRGB"><feFuncR type="discrete" tableValues="0 0"/><feFuncG type="discrete" tableValues="0 0"/><feFuncB type="discrete" tableValues="0 0"/><feFuncA type="linear" slope="0.4" intercept="0"/></feComponentTransfer><feGaussianBlur stdDeviation="6.11111 6.11111"/></filter><filter id="fx5" x="-10%" y="-10%" width="120%" height="120%" filterUnits="userSpaceOnUse" primitiveUnits="userSpaceOnUse"><feComponentTransfer color-interpolation-filters="sRGB"><feFuncR type="discrete" tableValues="0 0"/><feFuncG type="discrete" tableValues="0 0"/><feFuncB type="discrete" tableValues="0 0"/><feFuncA type="linear" slope="0.4" intercept="0"/></feComponentTransfer><feGaussianBlur stdDeviation="6.11111 6.11111"/></filter><filter id="fx6" x="-10%" y="-10%" width="120%" height="120%" filterUnits="userSpaceOnUse" primitiveUnits="userSpaceOnUse"><feComponentTransfer color-interpolation-filters="sRGB"><feFuncR type="discrete" tableValues="0 0"/><feFuncG type="discrete" tableValues="0 0"/><feFuncB type="discrete" tableValues="0 0"/><feFuncA type="linear" slope="0.4" intercept="0"/></feComponentTransfer><feGaussianBlur stdDeviation="6.11111 6.11111"/></filter><filter id="fx7" x="-10%" y="-10%" width="120%" height="120%" filterUnits="userSpaceOnUse" primitiveUnits="userSpaceOnUse"><feComponentTransfer color-interpolation-filters="sRGB"><feFuncR type="discrete" tableValues="0 0"/><feFuncG type="discrete" tableValues="0 0"/><feFuncB type="discrete" tableValues="0 0"/><feFuncA type="linear" slope="0.4" intercept="0"/></feComponentTransfer><feGaussianBlur stdDeviation="6.11111 6.11111"/></filter><filter id="fx8" x="-10%" y="-10%" width="120%" height="120%" filterUnits="userSpaceOnUse" primitiveUnits="userSpaceOnUse"><feComponentTransfer color-interpolation-filters="sRGB"><feFuncR type="discrete" tableValues="0 0"/><feFuncG type="discrete" tableValues="0 0"/><feFuncB type="discrete" tableValues="0 0"/><feFuncA type="linear" slope="0.4" intercept="0"/></feComponentTransfer><feGaussianBlur stdDeviation="6.11111 6.11111"/></filter><filter id="fx9" x="-10%" y="-10%" width="120%" height="120%" filterUnits="userSpaceOnUse" primitiveUnits="userSpaceOnUse"><feComponentTransfer color-interpolation-filters="sRGB"><feFuncR type="discrete" tableValues="0 0"/><feFuncG type="discrete" tableValues="0 0"/><feFuncB type="discrete" tableValues="0 0"/><feFuncA type="linear" slope="0.4" intercept="0"/></feComponentTransfer><feGaussianBlur stdDeviation="6.11111 6.11111"/></filter><filter id="fx10" x="-10%" y="-10%" width="120%" height="120%" filterUnits="userSpaceOnUse" primitiveUnits="userSpaceOnUse"><feComponentTransfer color-interpolation-filters="sRGB"><feFuncR type="discrete" tableValues="0 0"/><feFuncG type="discrete" tableValues="0 0"/><feFuncB type="discrete" tableValues="0 0"/><feFuncA type="linear" slope="0.4" intercept="0"/></feComponentTransfer><feGaussianBlur stdDeviation="6.11111 6.11111"/></filter><filter id="fx11" x="-10%" y="-10%" width="120%" height="120%" filterUnits="userSpaceOnUse" primitiveUnits="userSpaceOnUse"><feComponentTransfer color-interpolation-filters="sRGB"><feFuncR type="discrete" tableValues="0 0"/><feFuncG type="discrete" tableValues="0 0"/><feFuncB type="discrete" tableValues="0 0"/><feFuncA type="linear" slope="0.4" intercept="0"/></feComponentTransfer><feGaussianBlur stdDeviation="6.11111 6.11111"/></filter><filter id="fx12" x="-10%" y="-10%" width="120%" height="120%" filterUnits="userSpaceOnUse" primitiveUnits="userSpaceOnUse"><feComponentTransfer color-interpolation-filters="sRGB"><feFuncR type="discrete" tableValues="0 0"/><feFuncG type="discrete" tableValues="0 0"/><feFuncB type="discrete" tableValues="0 0"/><feFuncA type="linear" slope="0.4" intercept="0"/></feComponentTransfer><feGaussianBlur stdDeviation="6.11111 6.11111"/></filter><filter id="fx13" x="-10%" y="-10%" width="120%" height="120%" filterUnits="userSpaceOnUse" primitiveUnits="userSpaceOnUse"><feComponentTransfer color-interpolation-filters="sRGB"><feFuncR type="discrete" tableValues="0 0"/><feFuncG type="discrete" tableValues="0 0"/><feFuncB type="discrete" tableValues="0 0"/><feFuncA type="linear" slope="0.4" intercept="0"/></feComponentTransfer><feGaussianBlur stdDeviation="6.11111 6.11111"/></filter><clipPath id="clip14"><rect x="-164" y="816" width="4681" height="906"/></clipPath><clipPath id="clip15"><rect x="35" y="32" width="362" height="100"/></clipPath><clipPath id="clip16"><rect x="39" y="32" width="316" height="89"/></clipPath><clipPath id="clip17"><rect x="35" y="32" width="300" height="100"/></clipPath><clipPath id="clip18"><rect x="39" y="32" width="313" height="89"/></clipPath><clipPath id="clip19"><rect x="35" y="32" width="245" height="89"/></clipPath><clipPath id="clip20"><rect x="39" y="32" width="337" height="100"/></clipPath><clipPath id="clip21"><rect x="39" y="32" width="739" height="100"/></clipPath></defs><g clip-path="url(#clip14)" transform="translate(164 -816)"><rect x="-164" y="816" width="4681" height="906" fill="#FFFFFF"/><g filter="url(#fx0)" transform="translate(-35 1003)"><g><rect x="19.9999" y="19.7499" width="578" height="248" fill="#95C8E8"/></g></g><g clip-path="url(#clip15)" filter="url(#fx1)" transform="translate(59 1069)"><g><path d="M0.09375 0 15.2187-42.0625 24.4375-42.0625 39.5937 0 30.4375 0 27.4375-9.25 12.25-9.25 9.15625 0ZM14.3437-16.5312 25.2812-16.5312 19.8125-33.375ZM44.5625 0 44.5625-42.0625 53.3437-42.0625 53.3437 0ZM90.9271 0.5625C87.7396 0.5625 84.8698 0.109375 82.3177-0.796875 79.7656-1.70312 77.7396-3.14583 76.2396-5.125 74.7396-7.10417 73.9896-9.6875 73.9896-12.875L82.9896-12.875C83.0312-11.25 83.4062-9.97396 84.1146-9.04687 84.8229-8.11979 85.776-7.45833 86.974-7.0625 88.1719-6.66667 89.5417-6.46875 91.0833-6.46875 92.5625-6.46875 93.8646-6.64583 94.9896-7 96.1146-7.35417 96.9948-7.90104 97.6302-8.64062 98.2656-9.38021 98.5833-10.3229 98.5833-11.4687 98.5833-12.5729 98.3125-13.4844 97.7708-14.2031 97.2292-14.9219 96.2708-15.5781 94.8958-16.1719 93.5208-16.7656 91.5937-17.4062 89.1146-18.0937 86.2187-18.9271 83.7135-19.8437 81.599-20.8437 79.4844-21.8437 77.849-23.1354 76.6927-24.7187 75.5365-26.3021 74.9583-28.3646 74.9583-30.9062 74.9583-33.6354 75.6198-35.8594 76.9427-37.5781 78.2656-39.2969 80.0937-40.5625 82.4271-41.375 84.7604-42.1875 87.4375-42.5937 90.4583-42.5937 93.3333-42.5937 95.974-42.1562 98.3802-41.2812 100.786-40.4062 102.708-39.0729 104.146-37.2812 105.583-35.4896 106.302-33.2083 106.302-30.4375L97.3021-30.4375C97.3229-32.2292 96.6562-33.5677 95.3021-34.4531 93.9479-35.3385 92.3229-35.7812 90.4271-35.7812 88.5521-35.7812 87-35.4323 85.7708-34.7344 84.5417-34.0365 83.9271-32.9583 83.9271-31.5 83.9271-30.6667 84.1875-29.9323 84.7083-29.2969 85.2292-28.6615 86.1927-28.0417 87.599-27.4375 89.0052-26.8333 91.0417-26.1458 93.7083-25.375 96.8958-24.4375 99.5104-23.4531 101.552-22.4219 103.594-21.3906 105.109-20.0573 106.099-18.4219 107.089-16.7865 107.583-14.6354 107.583-11.9687 107.583-8.98958 106.854-6.58333 105.396-4.75 103.937-2.91667 101.953-1.57292 99.4427-0.71875 96.9323 0.135417 94.0937 0.5625 90.9271 0.5625ZM127.469 0C124.385 0 121.995-0.369792 120.297-1.10937 118.599-1.84896 117.417-2.99479 116.75-4.54687 116.083-6.09896 115.75-8.125 115.75-10.625L115.75-24.125 110.687-24.125 110.687-30.5 115.75-30.5 115.75-37.6875 124.031-37.6875 124.031-30.5 130.687-30.5 130.687-24.125 124.031-24.125 124.031-11.125C124.031-9.52083 124.255-8.33333 124.703-7.5625 125.151-6.79167 126.167-6.40625 127.75-6.40625L130.687-6.40625 130.687 0ZM137.354 0 137.354-30.5 145.292-30.5 145.448-25.2187C146.24-27.0521 147.427-28.4583 149.01-29.4375 150.594-30.4167 152.51-30.9062 154.76-30.9062L155.385-30.9062 155.385-23.9375 154.604-23.9375C153.375-23.9375 152.198-23.8281 151.073-23.6094 149.948-23.3906 148.927-23.0156 148.01-22.4844 147.094-21.9531 146.302-21.2187 145.635-20.2812L145.635 0ZM167.254 0.53125C165.525 0.53125 163.91 0.197917 162.41-0.46875 160.91-1.13542 159.697-2.14062 158.77-3.48437 157.843-4.82812 157.379-6.51042 157.379-8.53125 157.379-11.3437 158.223-13.4635 159.91-14.8906 161.598-16.3177 163.957-17.2865 166.989-17.7969 170.02-18.3073 173.546-18.6042 177.567-18.6875L177.567-20.3125C177.567-22.2917 177.093-23.6458 176.145-24.375 175.197-25.1042 173.973-25.4687 172.473-25.4687 170.827-25.4687 169.473-25.0781 168.41-24.2969 167.348-23.5156 166.817-22.25 166.817-20.5L159.067-20.5C159.067-23.1042 159.634-25.1667 160.77-26.6875 161.905-28.2083 163.478-29.3021 165.489-29.9687 167.499-30.6354 169.827-30.9687 172.473-30.9687 174.41-30.9687 176.181-30.8073 177.785-30.4844 179.39-30.1615 180.78-29.6042 181.957-28.8125 183.134-28.0208 184.046-26.9427 184.692-25.5781 185.337-24.2135 185.66-22.5104 185.66-20.4687L185.66 0 177.91 0 177.66-3.96875C176.369-2.48958 174.869-1.36979 173.16-0.609375 171.452 0.151042 169.483 0.53125 167.254 0.53125ZM169.973-5.15625C171.535-5.15625 172.978-5.5625 174.301-6.375 175.624-7.1875 176.681-8.11458 177.473-9.15625L177.473-14.0937C173.098-14.0729 170.035-13.6615 168.285-12.8594 166.535-12.0573 165.66-10.7604 165.66-8.96875 165.66-7.67708 166.061-6.71875 166.864-6.09375 167.666-5.46875 168.702-5.15625 169.973-5.15625ZM207.081 0C203.998 0 201.607-0.369792 199.909-1.10937 198.211-1.84896 197.029-2.99479 196.362-4.54687 195.696-6.09896 195.362-8.125 195.362-10.625L195.362-24.125 190.3-24.125 190.3-30.5 195.362-30.5 195.362-37.6875 203.644-37.6875 203.644-30.5 210.3-30.5 210.3-24.125 203.644-24.125 203.644-11.125C203.644-9.52083 203.868-8.33333 204.316-7.5625 204.764-6.79167 205.779-6.40625 207.362-6.40625L210.3-6.40625 210.3 0ZM230.677 0.5625C227.281 0.5625 224.427-0.0677084 222.115-1.32812 219.802-2.58854 218.052-4.40625 216.865-6.78125 215.677-9.15625 215.083-12.0104 215.083-15.3437 215.083-18.5729 215.661-21.3542 216.818-23.6875 217.974-26.0208 219.672-27.8177 221.911-29.0781 224.151-30.3385 226.906-30.9687 230.177-30.9687 234.719-30.9687 238.307-29.6406 240.943-26.9844 243.578-24.3281 244.896-20.5417 244.896-15.625 244.896-15.375 244.885-15.0365 244.865-14.6094 244.844-14.1823 244.812-13.8542 244.771-13.625L223.365-13.625C223.406-12.1875 223.672-10.8437 224.161-9.59375 224.651-8.34375 225.427-7.33854 226.49-6.57812 227.552-5.81771 228.948-5.4375 230.677-5.4375 232.469-5.4375 233.906-5.82812 234.99-6.60937 236.073-7.39062 236.625-8.55208 236.646-10.0937L244.802-10.0937C244.698-7.71875 244.047-5.73958 242.849-4.15625 241.651-2.57292 240.016-1.39062 237.943-0.609375 235.87 0.171875 233.448 0.5625 230.677 0.5625ZM223.458-18.875 236.677-18.875C236.615-21 235.984-22.5885 234.786-23.6406 233.589-24.6927 232.052-25.2187 230.177-25.2187 228.26-25.2187 226.693-24.6771 225.474-23.5937 224.255-22.5104 223.583-20.9375 223.458-18.875ZM264.167 11.7812C260.521 11.7812 257.625 11.4062 255.479 10.6562 253.333 9.90625 251.792 8.92187 250.854 7.70312 249.917 6.48437 249.448 5.16667 249.448 3.75 249.448 2.02083 250.271 0.505208 251.917-0.796875 253.562-2.09896 256.167-3.01042 259.729-3.53125L261.104-6.46875 265.229-6.46875C270.292-6.46875 273.984-5.77083 276.307-4.375 278.63-2.97917 279.792-0.84375 279.792 2.03125 279.792 4.94792 278.458 7.30208 275.792 9.09375 273.125 10.8854 269.25 11.7812 264.167 11.7812ZM264.042 6.59375C266.833 6.59375 268.802 6.22917 269.948 5.5 271.094 4.77083 271.667 3.88542 271.667 2.84375 271.667 2.17708 271.469 1.61458 271.073 1.15625 270.677 0.697917 270.021 0.34375 269.104 0.09375 268.187-0.15625 266.969-0.28125 265.448-0.28125L259.885-0.28125C259.073 0.03125 258.411 0.473958 257.901 1.04687 257.391 1.61979 257.135 2.28125 257.135 3.03125 257.135 3.90625 257.677 4.71875 258.76 5.46875 259.844 6.21875 261.604 6.59375 264.042 6.59375ZM259.854-0.6875C257.667-0.9375 255.896-1.38021 254.542-2.01562 253.187-2.65104 252.198-3.38542 251.573-4.21875 250.948-5.05208 250.635-5.875 250.635-6.6875 250.635-7.95833 251.12-9.03646 252.089-9.92187 253.057-10.8073 254.521-11.5833 256.479-12.25L260.792-10.6875C259.667-10.4167 258.729-10.0885 257.979-9.70312 257.229-9.31771 256.854-8.84375 256.854-8.28125 256.854-7.88542 257.078-7.55208 257.526-7.28125 257.974-7.01042 258.755-6.80729 259.87-6.67187 260.984-6.53646 262.521-6.46875 264.479-6.46875ZM263.604-9.71875C260.854-9.71875 258.51-10.2083 256.573-11.1875 254.635-12.1667 253.167-13.4583 252.167-15.0625 251.167-16.6667 250.667-18.3958 250.667-20.25 250.667-22.2292 251.172-24.0156 252.182-25.6094 253.193-27.2031 254.677-28.4792 256.635-29.4375 258.594-30.3958 260.979-30.875 263.792-30.875 266.687-30.875 269.089-30.3958 270.995-29.4375 272.901-28.4792 274.328-27.2031 275.276-25.6094 276.224-24.0156 276.698-22.2292 276.698-20.25 276.698-18.3542 276.214-16.6042 275.245-15 274.276-13.3958 272.828-12.1146 270.901-11.1562 268.974-10.1979 266.542-9.71875 263.604-9.71875ZM263.604-14.6875C265.146-14.6875 266.432-15.1615 267.464-16.1094 268.495-17.0573 269.01-18.4375 269.01-20.25 269.01-22.1667 268.531-23.5937 267.573-24.5312 266.615-25.4687 265.365-25.9375 263.823-25.9375 262.26-25.9375 260.969-25.4531 259.948-24.4844 258.927-23.5156 258.417-22.1042 258.417-20.25 258.417-18.4167 258.943-17.0312 259.995-16.0937 261.047-15.1562 262.25-14.6875 263.604-14.6875ZM272.323-26.25 269.885-29.3437C270.698-31.5104 271.953-32.9896 273.651-33.7812 275.349-34.5729 277.396-34.9792 279.792-35L279.792-28.9687C278.167-28.9687 276.682-28.8177 275.339-28.5156 273.995-28.2135 272.99-27.4583 272.323-26.25ZM284.567 11.1875 284.567 4.46875 287.317 4.46875C288.546 4.46875 289.572 4.25 290.395 3.8125 291.218 3.375 291.817 2.65625 292.192 1.65625L292.879 0 281.004-30.5 289.629-30.5 297.348-7.9375 304.223-30.5 312.598-30.5 301.629 0 300.504 3.03125C299.712 5.17708 298.796 6.84375 297.754 8.03125 296.712 9.21875 295.436 10.0417 293.926 10.5 292.416 10.9583 290.535 11.1875 288.285 11.1875Z" transform="matrix(1 0 0 1 58.7718 98)"/></g></g><rect x="-15.0001" y="1009" width="578" height="248" fill="#95C8E8"/><text font-family="Aptos,Aptos_MSFontService,sans-serif" font-weight="700" font-size="64" transform="matrix(1 0 0 1 117.772 1153)">AI Strategy</text><g filter="url(#fx2)" transform="translate(2250 1003)"><g><rect x="20.0002" y="19.7499" width="577" height="248" fill="#95C8E8"/></g></g><g clip-path="url(#clip16)" filter="url(#fx3)" transform="translate(2360 1069)"><g><path d="M23.7812 0.5625C19.4687 0.5625 15.7708-0.328125 12.6875-2.10937 9.60417-3.89062 7.23437-6.39583 5.57812-9.625 3.92187-12.8542 3.09375-16.6458 3.09375-21 3.09375-25.375 3.92187-29.1823 5.57812-32.4219 7.23437-35.6615 9.60417-38.1719 12.6875-39.9531 15.7708-41.7344 19.4687-42.625 23.7812-42.625 25.9479-42.625 28.0729-42.3437 30.1562-41.7812 32.2396-41.2187 34.1458-40.349 35.875-39.1719 37.6042-37.9948 39.0312-36.5 40.1562-34.6875 41.2812-32.875 41.9583-30.7292 42.1875-28.25L33.2187-28.25C33.0521-29.625 32.5729-30.8437 31.7812-31.9062 30.9896-32.9687 29.9062-33.8021 28.5312-34.4062 27.1562-35.0104 25.5104-35.3125 23.5937-35.3125 20.8437-35.3125 18.625-34.651 16.9375-33.3281 15.25-32.0052 14.0208-30.2656 13.25-28.1094 12.4792-25.9531 12.0937-23.5833 12.0937-21 12.0937-18.4375 12.4844-16.0729 13.2656-13.9062 14.0469-11.7396 15.2917-10 17-8.6875 18.7083-7.375 20.9687-6.71875 23.7812-6.71875 25.8646-6.71875 27.6406-7.07812 29.1094-7.79687 30.5781-8.51562 31.724-9.51042 32.5469-10.7812 33.3698-12.0521 33.8437-13.5208 33.9687-15.1875L24-15.1875 24-22.1875 42.7812-22.1875 42.7812-17.9062C42.7812-14.2604 42.0469-11.0521 40.5781-8.28125 39.1094-5.51042 36.9635-3.34375 34.1406-1.78125 31.3177-0.21875 27.8646 0.5625 23.7812 0.5625ZM64.1146 0.5C61.0312 0.5 58.3281-0.114583 56.0052-1.34375 53.6823-2.57292 51.8854-4.35417 50.6146-6.6875 49.3437-9.02083 48.7083-11.8437 48.7083-15.1562 48.7083-18.5312 49.3437-21.401 50.6146-23.7656 51.8854-26.1302 53.6823-27.9323 56.0052-29.1719 58.3281-30.4115 61.0312-31.0312 64.1146-31.0312 67.2396-31.0312 69.9635-30.4115 72.2865-29.1719 74.6094-27.9323 76.4167-26.1302 77.7083-23.7656 79-21.401 79.6458-18.5312 79.6458-15.1562 79.6458-11.8437 79-9.02083 77.7083-6.6875 76.4167-4.35417 74.6094-2.57292 72.2865-1.34375 69.9635-0.114583 67.2396 0.5 64.1146 0.5ZM64.1146-5.8125C65.9271-5.8125 67.349-6.23437 68.3802-7.07812 69.4115-7.92187 70.1406-9.05208 70.5677-10.4687 70.9948-11.8854 71.2083-13.4479 71.2083-15.1562 71.2083-16.9062 70.9948-18.5 70.5677-19.9375 70.1406-21.375 69.4115-22.5208 68.3802-23.375 67.349-24.2292 65.9271-24.6562 64.1146-24.6562 62.3437-24.6562 60.9531-24.2292 59.9427-23.375 58.9323-22.5208 58.2187-21.375 57.8021-19.9375 57.3854-18.5 57.1771-16.9062 57.1771-15.1562 57.1771-13.4479 57.3854-11.8854 57.8021-10.4687 58.2187-9.05208 58.9323-7.92187 59.9427-7.07812 60.9531-6.23437 62.3437-5.8125 64.1146-5.8125ZM92.975 0 81.8812-30.5 90.5062-30.5 97.6937-7.71875 105.1-30.5 113.475-30.5 102.412 0ZM131.242 0.5625C127.846 0.5625 124.992-0.0677084 122.679-1.32812 120.367-2.58854 118.617-4.40625 117.429-6.78125 116.242-9.15625 115.648-12.0104 115.648-15.3437 115.648-18.5729 116.226-21.3542 117.382-23.6875 118.539-26.0208 120.236-27.8177 122.476-29.0781 124.716-30.3385 127.471-30.9687 130.742-30.9687 135.283-30.9687 138.872-29.6406 141.507-26.9844 144.143-24.3281 145.46-20.5417 145.46-15.625 145.46-15.375 145.45-15.0365 145.429-14.6094 145.408-14.1823 145.377-13.8542 145.335-13.625L123.929-13.625C123.971-12.1875 124.236-10.8437 124.726-9.59375 125.216-8.34375 125.992-7.33854 127.054-6.57812 128.117-5.81771 129.512-5.4375 131.242-5.4375 133.033-5.4375 134.471-5.82812 135.554-6.60937 136.637-7.39062 137.19-8.55208 137.21-10.0937L145.367-10.0937C145.262-7.71875 144.611-5.73958 143.414-4.15625 142.216-2.57292 140.58-1.39062 138.507-0.609375 136.434 0.171875 134.012 0.5625 131.242 0.5625ZM124.023-18.875 137.242-18.875C137.179-21 136.549-22.5885 135.351-23.6406 134.153-24.6927 132.617-25.2187 130.742-25.2187 128.825-25.2187 127.257-24.6771 126.039-23.5937 124.82-22.5104 124.148-20.9375 124.023-18.875ZM152.731 0 152.731-30.5 160.669-30.5 160.825-25.2187C161.617-27.0521 162.804-28.4583 164.387-29.4375 165.971-30.4167 167.887-30.9062 170.137-30.9062L170.762-30.9062 170.762-23.9375 169.981-23.9375C168.752-23.9375 167.575-23.8281 166.45-23.6094 165.325-23.3906 164.304-23.0156 163.387-22.4844 162.471-21.9531 161.679-21.2187 161.012-20.2812L161.012 0ZM176.221 0 176.221-30.5 184.19-30.5 184.346-25.9375C185.367-27.25 186.71-28.4115 188.377-29.4219 190.044-30.4323 192.21-30.9375 194.877-30.9375 197.981-30.9375 200.387-29.9948 202.096-28.1094 203.804-26.224 204.658-23.4687 204.658-19.8437L204.658 0 196.44 0 196.44-18.7812C196.44-19.8854 196.283-20.8542 195.971-21.6875 195.658-22.5208 195.164-23.1667 194.486-23.625 193.809-24.0833 192.919-24.3125 191.815-24.3125 190.169-24.3125 188.757-23.9271 187.58-23.1562 186.403-22.3854 185.377-21.4479 184.502-20.3437L184.502 0ZM222.294 0 237.419-42.0625 246.637-42.0625 261.794 0 252.637 0 249.637-9.25 234.45-9.25 231.356 0ZM236.544-16.5312 247.481-16.5312 242.012-33.375ZM266.762 0 266.762-42.0625 275.544-42.0625 275.544 0Z" transform="matrix(1 0 0 1 58.1958 98)"/></g></g><rect x="2270" y="1009" width="577" height="248" fill="#95C8E8"/><text font-family="Aptos,Aptos_MSFontService,sans-serif" font-weight="700" font-size="64" transform="matrix(1 0 0 1 2418.2 1153)">Govern AI</text><g filter="url(#fx4)" transform="translate(1488 1003)"><g><rect x="20" y="19.7499" width="578" height="248" fill="#95C8E8"/></g></g><g clip-path="url(#clip17)" filter="url(#fx5)" transform="translate(1612 1069)"><g><path d="M0.09375 0 15.2187-42.0625 24.4375-42.0625 39.5937 0 30.4375 0 27.4375-9.25 12.25-9.25 9.15625 0ZM14.3437-16.5312 25.2812-16.5312 19.8125-33.375ZM44.5625 0 44.5625-42.0625 53.3437-42.0625 53.3437 0ZM76.6458 0 76.6458-42.0625 93.9583-42.0625C96.6667-42.0625 99.0833-41.6823 101.208-40.9219 103.333-40.1615 105.016-38.9323 106.255-37.2344 107.495-35.5365 108.115-33.2812 108.115-30.4687 108.115-27.8021 107.401-25.5417 105.974-23.6875 104.547-21.8333 102.385-20.5104 99.4896-19.7187 101.26-19.4479 102.677-18.9115 103.74-18.1094 104.802-17.3073 105.661-16.2292 106.318-14.875 106.974-13.5208 107.573-11.8542 108.115-9.875L110.896 0 101.708 0 99.7396-8.125C99.3229-9.95833 98.8437-11.4583 98.3021-12.625 97.7604-13.7917 97.026-14.6615 96.099-15.2344 95.1719-15.8073 93.8958-16.0937 92.2708-16.0937L85.4271-16.0937 85.4271 0ZM85.4271-23.3437 92.4896-23.3437C93.8646-23.3437 95.0469-23.5625 96.0365-24 97.026-24.4375 97.7917-25.0937 98.3333-25.9687 98.875-26.8437 99.1458-27.9167 99.1458-29.1875 99.1458-31.0417 98.5833-32.4375 97.4583-33.375 96.3333-34.3125 94.8437-34.7812 92.9896-34.7812L85.4271-34.7812ZM130.76 0.5625C127.365 0.5625 124.51-0.0677084 122.198-1.32812 119.885-2.58854 118.135-4.40625 116.948-6.78125 115.76-9.15625 115.167-12.0104 115.167-15.3437 115.167-18.5729 115.745-21.3542 116.901-23.6875 118.057-26.0208 119.755-27.8177 121.995-29.0781 124.234-30.3385 126.99-30.9687 130.26-30.9687 134.802-30.9687 138.391-29.6406 141.026-26.9844 143.661-24.3281 144.979-20.5417 144.979-15.625 144.979-15.375 144.969-15.0365 144.948-14.6094 144.927-14.1823 144.896-13.8542 144.854-13.625L123.448-13.625C123.49-12.1875 123.755-10.8437 124.245-9.59375 124.734-8.34375 125.51-7.33854 126.573-6.57812 127.635-5.81771 129.031-5.4375 130.76-5.4375 132.552-5.4375 133.99-5.82812 135.073-6.60937 136.156-7.39062 136.708-8.55208 136.729-10.0937L144.885-10.0937C144.781-7.71875 144.13-5.73958 142.932-4.15625 141.734-2.57292 140.099-1.39062 138.026-0.609375 135.953 0.171875 133.531 0.5625 130.76 0.5625ZM123.542-18.875 136.76-18.875C136.698-21 136.068-22.5885 134.87-23.6406 133.672-24.6927 132.135-25.2187 130.26-25.2187 128.344-25.2187 126.776-24.6771 125.557-23.5937 124.339-22.5104 123.667-20.9375 123.542-18.875ZM160.562 0.53125C158.833 0.53125 157.219 0.197917 155.719-0.46875 154.219-1.13542 153.005-2.14062 152.078-3.48437 151.151-4.82812 150.687-6.51042 150.687-8.53125 150.687-11.3437 151.531-13.4635 153.219-14.8906 154.906-16.3177 157.266-17.2865 160.297-17.7969 163.328-18.3073 166.854-18.6042 170.875-18.6875L170.875-20.3125C170.875-22.2917 170.401-23.6458 169.453-24.375 168.505-25.1042 167.281-25.4687 165.781-25.4687 164.135-25.4687 162.781-25.0781 161.719-24.2969 160.656-23.5156 160.125-22.25 160.125-20.5L152.375-20.5C152.375-23.1042 152.943-25.1667 154.078-26.6875 155.214-28.2083 156.786-29.3021 158.797-29.9687 160.807-30.6354 163.135-30.9687 165.781-30.9687 167.719-30.9687 169.49-30.8073 171.094-30.4844 172.698-30.1615 174.089-29.6042 175.266-28.8125 176.443-28.0208 177.354-26.9427 178-25.5781 178.646-24.2135 178.969-22.5104 178.969-20.4687L178.969 0 171.219 0 170.969-3.96875C169.677-2.48958 168.177-1.36979 166.469-0.609375 164.76 0.151042 162.792 0.53125 160.562 0.53125ZM163.281-5.15625C164.844-5.15625 166.286-5.5625 167.609-6.375 168.932-7.1875 169.99-8.11458 170.781-9.15625L170.781-14.0937C166.406-14.0729 163.344-13.6615 161.594-12.8594 159.844-12.0573 158.969-10.7604 158.969-8.96875 158.969-7.67708 159.37-6.71875 160.172-6.09375 160.974-5.46875 162.01-5.15625 163.281-5.15625ZM198.271 0.53125C195.979 0.53125 193.922-0.0416667 192.099-1.1875 190.276-2.33333 188.839-4.08854 187.786-6.45312 186.734-8.81771 186.208-11.8229 186.208-15.4687 186.208-18.9896 186.776-21.8958 187.911-24.1875 189.047-26.4792 190.583-28.1875 192.521-29.3125 194.458-30.4375 196.635-31 199.052-31 201.177-31 203-30.5625 204.521-29.6875 206.042-28.8125 207.25-27.6667 208.146-26.25L208.146-42.0625 216.427-42.0625 216.427 0 208.49 0 208.146-4.34375C207.062-2.84375 205.719-1.65625 204.115-0.78125 202.51 0.0937499 200.562 0.53125 198.271 0.53125ZM200.708-5.78125C202.458-5.78125 203.969-6.27083 205.24-7.25 206.51-8.22917 207.479-9.375 208.146-10.6875L208.146-19.5937C207.5-20.9687 206.594-22.1667 205.427-23.1875 204.26-24.2083 202.823-24.7187 201.115-24.7187 199.073-24.7187 197.49-23.9271 196.365-22.3437 195.24-20.7604 194.677-18.4687 194.677-15.4687 194.677-12.1771 195.214-9.73958 196.286-8.15625 197.359-6.57292 198.833-5.78125 200.708-5.78125ZM224.708 11.1875 224.708 4.46875 227.458 4.46875C228.687 4.46875 229.714 4.25 230.536 3.8125 231.359 3.375 231.958 2.65625 232.333 1.65625L233.021 0 221.146-30.5 229.771-30.5 237.49-7.9375 244.365-30.5 252.74-30.5 241.771 0 240.646 3.03125C239.854 5.17708 238.937 6.84375 237.896 8.03125 236.854 9.21875 235.578 10.0417 234.068 10.5 232.557 10.9583 230.677 11.1875 228.427 11.1875Z" transform="matrix(1 0 0 1 58.6913 98)"/></g></g><rect x="1508" y="1009" width="578" height="248" fill="#95C8E8"/><text font-family="Aptos,Aptos_MSFontService,sans-serif" font-weight="700" font-size="64" transform="matrix(1 0 0 1 1670.69 1153)">AI Ready</text><g filter="url(#fx6)" transform="translate(3011 1003)"><g><rect x="19.9998" y="19.7499" width="578" height="248" fill="#95C8E8"/></g></g><g clip-path="url(#clip18)" filter="url(#fx7)" transform="translate(3124 1069)"><g><path d="M19.3125 0.5625C16.125 0.5625 13.2552 0.109375 10.7031-0.796875 8.15104-1.70312 6.125-3.14583 4.625-5.125 3.125-7.10417 2.375-9.6875 2.375-12.875L11.375-12.875C11.4167-11.25 11.7917-9.97396 12.5-9.04687 13.2083-8.11979 14.1615-7.45833 15.3594-7.0625 16.5573-6.66667 17.9271-6.46875 19.4687-6.46875 20.9479-6.46875 22.25-6.64583 23.375-7 24.5-7.35417 25.3802-7.90104 26.0156-8.64062 26.651-9.38021 26.9687-10.3229 26.9687-11.4687 26.9687-12.5729 26.6979-13.4844 26.1562-14.2031 25.6146-14.9219 24.6562-15.5781 23.2812-16.1719 21.9062-16.7656 19.9792-17.4062 17.5-18.0937 14.6042-18.9271 12.099-19.8437 9.98437-20.8437 7.86979-21.8437 6.23437-23.1354 5.07812-24.7187 3.92187-26.3021 3.34375-28.3646 3.34375-30.9062 3.34375-33.6354 4.00521-35.8594 5.32812-37.5781 6.65104-39.2969 8.47917-40.5625 10.8125-41.375 13.1458-42.1875 15.8229-42.5937 18.8437-42.5937 21.7187-42.5937 24.3594-42.1562 26.7656-41.2812 29.1719-40.4062 31.0937-39.0729 32.5312-37.2812 33.9687-35.4896 34.6875-33.2083 34.6875-30.4375L25.6875-30.4375C25.7083-32.2292 25.0417-33.5677 23.6875-34.4531 22.3333-35.3385 20.7083-35.7812 18.8125-35.7812 16.9375-35.7812 15.3854-35.4323 14.1562-34.7344 12.9271-34.0365 12.3125-32.9583 12.3125-31.5 12.3125-30.6667 12.5729-29.9323 13.0937-29.2969 13.6146-28.6615 14.5781-28.0417 15.9844-27.4375 17.3906-26.8333 19.4271-26.1458 22.0937-25.375 25.2812-24.4375 27.8958-23.4531 29.9375-22.4219 31.9792-21.3906 33.4948-20.0573 34.4844-18.4219 35.474-16.7865 35.9687-14.6354 35.9687-11.9687 35.9687-8.98958 35.2396-6.58333 33.7812-4.75 32.3229-2.91667 30.3385-1.57292 27.8281-0.71875 25.3177 0.135417 22.4792 0.5625 19.3125 0.5625ZM56.8542 0.5625C53.4583 0.5625 50.6042-0.0677084 48.2917-1.32812 45.9792-2.58854 44.2292-4.40625 43.0417-6.78125 41.8542-9.15625 41.2604-12.0104 41.2604-15.3437 41.2604-18.5729 41.8385-21.3542 42.9948-23.6875 44.151-26.0208 45.849-27.8177 48.0885-29.0781 50.3281-30.3385 53.0833-30.9687 56.3542-30.9687 60.8958-30.9687 64.4844-29.6406 67.1198-26.9844 69.7552-24.3281 71.0729-20.5417 71.0729-15.625 71.0729-15.375 71.0625-15.0365 71.0417-14.6094 71.0208-14.1823 70.9896-13.8542 70.9479-13.625L49.5417-13.625C49.5833-12.1875 49.849-10.8437 50.3385-9.59375 50.8281-8.34375 51.6042-7.33854 52.6667-6.57812 53.7292-5.81771 55.125-5.4375 56.8542-5.4375 58.6458-5.4375 60.0833-5.82812 61.1667-6.60937 62.25-7.39062 62.8021-8.55208 62.8229-10.0937L70.9792-10.0937C70.875-7.71875 70.2239-5.73958 69.026-4.15625 67.8281-2.57292 66.1927-1.39062 64.1198-0.609375 62.0469 0.171875 59.625 0.5625 56.8542 0.5625ZM49.6354-18.875 62.8542-18.875C62.7917-21 62.1615-22.5885 60.9635-23.6406 59.7656-24.6927 58.2292-25.2187 56.3542-25.2187 54.4375-25.2187 52.8698-24.6771 51.651-23.5937 50.4323-22.5104 49.7604-20.9375 49.6354-18.875ZM92.0312 0.4375C89.1979 0.4375 86.625-0.104167 84.3125-1.1875 82-2.27083 80.1667-3.95833 78.8125-6.25 77.4583-8.54167 76.7812-11.5 76.7812-15.125 76.7812-18.75 77.4271-21.7292 78.7188-24.0625 80.0104-26.3958 81.8073-28.1302 84.1094-29.2656 86.4115-30.401 89.0521-30.9687 92.0312-30.9687 94.6146-30.9687 96.9479-30.5417 99.0312-29.6875 101.115-28.8333 102.771-27.5573 104-25.8594 105.229-24.1615 105.854-22.0208 105.875-19.4375L97.8438-19.4375C97.8021-21 97.2812-22.2448 96.2812-23.1719 95.2812-24.099 93.875-24.5625 92.0625-24.5625 89.6667-24.5625 87.9323-23.7396 86.8594-22.0937 85.7865-20.4479 85.25-18.125 85.25-15.125 85.25-13.1875 85.4844-11.5365 85.9531-10.1719 86.4219-8.80729 87.1615-7.76562 88.1719-7.04687 89.1823-6.32812 90.4792-5.96875 92.0625-5.96875 93.9167-5.96875 95.3802-6.47396 96.4531-7.48437 97.526-8.49479 98.0833-9.92708 98.125-11.7812L106.156-11.7812C106.094-9.13542 105.453-6.90625 104.234-5.09375 103.016-3.28125 101.354-1.90625 99.25-0.96875 97.1458-0.03125 94.7396 0.4375 92.0312 0.4375ZM122.698 0.40625C119.615 0.40625 117.229-0.546875 115.542-2.45312 113.854-4.35937 113.01-7.07292 113.01-10.5937L113.01-30.5 121.292-30.5 121.292-11.5937C121.292-10.5521 121.443-9.63021 121.745-8.82812 122.047-8.02604 122.547-7.40625 123.245-6.96875 123.943-6.53125 124.865-6.3125 126.01-6.3125 127.677-6.3125 129.099-6.68229 130.276-7.42187 131.453-8.16146 132.479-9.0625 133.354-10.125L133.354-30.5 141.635-30.5 141.635 0 133.635 0 133.51-4.59375C132.49-3.30208 131.094-2.14583 129.323-1.125 127.552-0.104167 125.344 0.40625 122.698 0.40625ZM150.531 0 150.531-30.5 158.469-30.5 158.625-25.2187C159.417-27.0521 160.604-28.4583 162.188-29.4375 163.771-30.4167 165.688-30.9062 167.938-30.9062L168.562-30.9062 168.562-23.9375 167.781-23.9375C166.552-23.9375 165.375-23.8281 164.25-23.6094 163.125-23.3906 162.104-23.0156 161.188-22.4844 160.271-21.9531 159.479-21.2187 158.812-20.2812L158.812 0ZM187.342 0.5625C183.946 0.5625 181.092-0.0677084 178.779-1.32812 176.467-2.58854 174.717-4.40625 173.529-6.78125 172.342-9.15625 171.748-12.0104 171.748-15.3437 171.748-18.5729 172.326-21.3542 173.482-23.6875 174.639-26.0208 176.336-27.8177 178.576-29.0781 180.816-30.3385 183.571-30.9687 186.842-30.9687 191.383-30.9687 194.972-29.6406 197.607-26.9844 200.243-24.3281 201.56-20.5417 201.56-15.625 201.56-15.375 201.55-15.0365 201.529-14.6094 201.508-14.1823 201.477-13.8542 201.435-13.625L180.029-13.625C180.071-12.1875 180.336-10.8437 180.826-9.59375 181.316-8.34375 182.092-7.33854 183.154-6.57812 184.217-5.81771 185.612-5.4375 187.342-5.4375 189.133-5.4375 190.571-5.82812 191.654-6.60937 192.737-7.39062 193.29-8.55208 193.31-10.0937L201.467-10.0937C201.362-7.71875 200.711-5.73958 199.514-4.15625 198.316-2.57292 196.68-1.39062 194.607-0.609375 192.534 0.171875 190.112 0.5625 187.342 0.5625ZM180.123-18.875 193.342-18.875C193.279-21 192.649-22.5885 191.451-23.6406 190.253-24.6927 188.717-25.2187 186.842-25.2187 184.925-25.2187 183.357-24.6771 182.139-23.5937 180.92-22.5104 180.248-20.9375 180.123-18.875Z" transform="matrix(1 0 0 1 58.0056 98)"/><path d="M0.09375 0 15.2187-42.0625 24.4375-42.0625 39.5937 0 30.4375 0 27.4375-9.25 12.25-9.25 9.15625 0ZM14.3437-16.5312 25.2812-16.5312 19.8125-33.375ZM44.5625 0 44.5625-42.0625 53.3437-42.0625 53.3437 0Z" transform="matrix(1 0 0 1 275.576 98)"/></g></g><rect x="3031" y="1009" width="578" height="248" fill="#95C8E8"/><text font-family="Aptos,Aptos_MSFontService,sans-serif" font-weight="700" font-size="64" transform="matrix(1 0 0 1 3182.01 1153)">Secure</text><text font-family="Aptos,Aptos_MSFontService,sans-serif" font-weight="700" font-size="64" transform="matrix(1 0 0 1 3399.58 1153)">AI</text><g filter="url(#fx8)" transform="translate(727 1003)"><g><rect x="19.9999" y="19.7499" width="577" height="248" fill="#95C8E8"/></g></g><g clip-path="url(#clip19)" filter="url(#fx9)" transform="translate(876 1069)"><g><path d="M0.09375 0 15.2187-42.0625 24.4375-42.0625 39.5937 0 30.4375 0 27.4375-9.25 12.25-9.25 9.15625 0ZM14.3437-16.5312 25.2812-16.5312 19.8125-33.375ZM44.5625 0 44.5625-42.0625 53.3437-42.0625 53.3437 0ZM76.6458 0 76.6458-42.0625 93.1458-42.0625C95.9167-42.0625 98.4427-41.5729 100.724-40.5937 103.005-39.6146 104.823-38.125 106.177-36.125 107.531-34.125 108.208-31.5729 108.208-28.4687 108.208-25.4062 107.531-22.875 106.177-20.875 104.823-18.875 103.005-17.3906 100.724-16.4219 98.4427-15.4531 95.9167-14.9687 93.1458-14.9687L85.4271-14.9687 85.4271 0ZM85.4271-22.0312 92.3333-22.0312C94.375-22.0312 96.026-22.5729 97.2865-23.6562 98.5469-24.7396 99.1771-26.3437 99.1771-28.4687 99.1771-30.6771 98.5312-32.3125 97.2396-33.375 95.9479-34.4375 94.3125-34.9687 92.3333-34.9687L85.4271-34.9687ZM126.448 0C123.344 0 120.948-0.369792 119.26-1.10937 117.573-1.84896 116.396-2.99479 115.729-4.54687 115.062-6.09896 114.729-8.125 114.729-10.625L114.729-42.0625 122.979-42.0625 122.979-11.125C122.979-9.52083 123.198-8.34375 123.635-7.59375 124.073-6.84375 125.094-6.46875 126.698-6.46875L128.604-6.46875 128.604 0ZM142.229 0.53125C140.5 0.53125 138.885 0.197917 137.385-0.46875 135.885-1.13542 134.672-2.14062 133.745-3.48437 132.818-4.82812 132.354-6.51042 132.354-8.53125 132.354-11.3437 133.198-13.4635 134.885-14.8906 136.573-16.3177 138.932-17.2865 141.964-17.7969 144.995-18.3073 148.521-18.6042 152.542-18.6875L152.542-20.3125C152.542-22.2917 152.068-23.6458 151.12-24.375 150.172-25.1042 148.948-25.4687 147.448-25.4687 145.802-25.4687 144.448-25.0781 143.385-24.2969 142.323-23.5156 141.792-22.25 141.792-20.5L134.042-20.5C134.042-23.1042 134.609-25.1667 135.745-26.6875 136.88-28.2083 138.453-29.3021 140.464-29.9687 142.474-30.6354 144.802-30.9687 147.448-30.9687 149.385-30.9687 151.156-30.8073 152.76-30.4844 154.365-30.1615 155.755-29.6042 156.932-28.8125 158.109-28.0208 159.021-26.9427 159.667-25.5781 160.312-24.2135 160.635-22.5104 160.635-20.4687L160.635 0 152.885 0 152.635-3.96875C151.344-2.48958 149.844-1.36979 148.135-0.609375 146.427 0.151042 144.458 0.53125 142.229 0.53125ZM144.948-5.15625C146.51-5.15625 147.953-5.5625 149.276-6.375 150.599-7.1875 151.656-8.11458 152.448-9.15625L152.448-14.0937C148.073-14.0729 145.01-13.6615 143.26-12.8594 141.51-12.0573 140.635-10.7604 140.635-8.96875 140.635-7.67708 141.036-6.71875 141.839-6.09375 142.641-5.46875 143.677-5.15625 144.948-5.15625ZM169.437 0 169.437-30.5 177.406-30.5 177.562-25.9375C178.583-27.25 179.927-28.4115 181.594-29.4219 183.26-30.4323 185.427-30.9375 188.094-30.9375 191.198-30.9375 193.604-29.9948 195.312-28.1094 197.021-26.224 197.875-23.4687 197.875-19.8437L197.875 0 189.656 0 189.656-18.7812C189.656-19.8854 189.5-20.8542 189.187-21.6875 188.875-22.5208 188.38-23.1667 187.703-23.625 187.026-24.0833 186.135-24.3125 185.031-24.3125 183.385-24.3125 181.974-23.9271 180.797-23.1562 179.62-22.3854 178.594-21.4479 177.719-20.3437L177.719 0Z" transform="matrix(1 0 0 1 58.4045 98)"/></g></g><rect x="747" y="1009" width="577" height="248" fill="#95C8E8"/><text font-family="Aptos,Aptos_MSFontService,sans-serif" font-weight="700" font-size="64" transform="matrix(1 0 0 1 934.404 1153)">AI Plan</text><path d="M586.5 1130.06 693.75 1130.06 693.75 1136.94 586.5 1136.94ZM689.167 1110.58 735 1133.5 689.167 1156.42Z" fill="#3B3B40"/><path d="M1347.5 1130.06 1454.75 1130.06 1454.75 1136.94 1347.5 1136.94ZM1450.17 1110.58 1496 1133.5 1450.17 1156.42Z" fill="#3B3B40"/><path d="M2107.5 1130.06 2214.75 1130.06 2214.75 1136.94 2107.5 1136.94ZM2210.17 1110.58 2256 1133.5 2210.17 1156.42Z" fill="#3B3B40"/><path d="M2867.5 1130.06 2974.75 1130.06 2974.75 1136.94 2867.5 1136.94ZM2970.17 1110.58 3016 1133.5 2970.17 1156.42Z" fill="#3B3B40"/><path d="M2167.5 996.502C2167.5 958.393 2198.39 927.5 2236.5 927.5L4366.5 927.5C4404.61 927.5 4435.5 958.393 4435.5 996.502L4435.5 1272.5C4435.5 1310.61 4404.61 1341.5 4366.5 1341.5L2236.5 1341.5C2198.39 1341.5 2167.5 1310.61 2167.5 1272.5Z" stroke="#2D2D2D" stroke-width="6.875" stroke-miterlimit="8" fill="none" fill-rule="evenodd"/><path d="M1.30777e-05-3.4375 87.7804-3.43717 87.7804 3.43783-1.30777e-05 3.4375ZM48.1999-25.9214 94.8587 0.000360497 48.1997 25.9218C46.5401 26.8437 44.4474 26.2458 43.5254 24.5862 42.6034 22.9267 43.2014 20.8339 44.8609 19.9119L86.111-3.00459 86.111 3.00524 44.8611-19.9116C43.2015-20.8336 42.6036-22.9263 43.5256-24.5859 44.4476-26.2455 46.5403-26.8434 48.1999-25.9214Z" fill="#2D2D2D" transform="matrix(1.83697e-16 1 1 -1.83697e-16 4435.5 1135.5)"/><path d="M1.96165e-05-3.4375 56.1597-3.43718 56.1597 3.43782-1.96165e-05 3.4375ZM16.5793-25.9215 63.238 0.000360661 16.579 25.9217C14.9194 26.8436 12.8266 26.2457 11.9047 24.5861 10.9827 22.9266 11.5806 20.8338 13.2402 19.9118L54.4903-3.0046 54.4903 3.00523 13.2404-19.9117C11.5809-20.8337 10.983-22.9264 11.905-24.586 12.8269-26.2456 14.9197-26.8435 16.5793-25.9215Z" fill="#2D2D2D" transform="matrix(-6.12323e-17 -1 -1 6.12323e-17 2167.5 1080.74)"/><path d="M3172.5 924.062 3293.69 924.063 3293.69 930.938 3172.5 930.937ZM3254.11 901.579 3300.77 927.5 3254.11 953.422C3252.45 954.344 3250.35 953.746 3249.43 952.086 3248.51 950.427 3249.11 948.334 3250.77 947.412L3292.02 924.495 3292.02 930.505 3250.77 907.588C3249.11 906.666 3248.51 904.574 3249.43 902.914 3250.35 901.255 3252.45 900.657 3254.11 901.579Z" fill="#2D2D2D"/><path d="M9.67166e-06-3.4375 121.187-3.43716 121.187 3.43784-9.67166e-06 3.4375ZM81.6066-25.9214 128.265 0.000360636 81.6064 25.9218C79.9469 26.8438 77.8541 26.2459 76.9321 24.5863 76.0102 22.9267 76.6081 20.834 78.2677 19.912L119.518-3.00458 119.518 3.00525 78.2678-19.9115C76.6082-20.8335 76.0103-22.9263 76.9323-24.5858 77.8543-26.2454 79.947-26.8433 81.6066-25.9214Z" fill="#2D2D2D" transform="matrix(-1 0 0 1 3429.77 1341.5)"/><g filter="url(#fx10)" transform="translate(3773 1003)"><g><rect x="20" y="19.7499" width="577" height="248" fill="#95C8E8"/></g></g><g clip-path="url(#clip20)" filter="url(#fx11)" transform="translate(3873 1069)"><g><path d="M5.03125 0 5.03125-42.0625 15.125-42.0625 28.3125-19.625 24.8125-19.625 37.8125-42.0625 47.5312-42.0625 47.5312 0 38.875 0 38.875-37.375 42.7187-37.375 28.9687-13.4375 23.5625-13.4375 9.46875-37.375 13.4375-37.375 13.4375 0ZM65.4583 0.53125C63.7292 0.53125 62.1146 0.197917 60.6146-0.46875 59.1146-1.13542 57.901-2.14062 56.974-3.48437 56.0469-4.82812 55.5833-6.51042 55.5833-8.53125 55.5833-11.3437 56.4271-13.4635 58.1146-14.8906 59.8021-16.3177 62.1615-17.2865 65.1927-17.7969 68.224-18.3073 71.75-18.6042 75.7708-18.6875L75.7708-20.3125C75.7708-22.2917 75.2969-23.6458 74.349-24.375 73.401-25.1042 72.1771-25.4687 70.6771-25.4687 69.0312-25.4687 67.6771-25.0781 66.6146-24.2969 65.5521-23.5156 65.0208-22.25 65.0208-20.5L57.2708-20.5C57.2708-23.1042 57.8385-25.1667 58.974-26.6875 60.1094-28.2083 61.6823-29.3021 63.6927-29.9687 65.7031-30.6354 68.0312-30.9687 70.6771-30.9687 72.6146-30.9687 74.3854-30.8073 75.9896-30.4844 77.5937-30.1615 78.9844-29.6042 80.1615-28.8125 81.3385-28.0208 82.25-26.9427 82.8958-25.5781 83.5417-24.2135 83.8646-22.5104 83.8646-20.4687L83.8646 0 76.1146 0 75.8646-3.96875C74.5729-2.48958 73.0729-1.36979 71.3646-0.609375 69.6562 0.151042 67.6875 0.53125 65.4583 0.53125ZM68.1771-5.15625C69.7396-5.15625 71.1823-5.5625 72.5052-6.375 73.8281-7.1875 74.8854-8.11458 75.6771-9.15625L75.6771-14.0937C71.3021-14.0729 68.2396-13.6615 66.4896-12.8594 64.7396-12.0573 63.8646-10.7604 63.8646-8.96875 63.8646-7.67708 64.2656-6.71875 65.0677-6.09375 65.8698-5.46875 66.9062-5.15625 68.1771-5.15625ZM92.6667 0 92.6667-30.5 100.635-30.5 100.792-25.9375C101.812-27.25 103.156-28.4115 104.823-29.4219 106.49-30.4323 108.656-30.9375 111.323-30.9375 114.427-30.9375 116.833-29.9948 118.542-28.1094 120.25-26.224 121.104-23.4687 121.104-19.8437L121.104 0 112.885 0 112.885-18.7812C112.885-19.8854 112.729-20.8542 112.417-21.6875 112.104-22.5208 111.609-23.1667 110.932-23.625 110.255-24.0833 109.365-24.3125 108.26-24.3125 106.615-24.3125 105.203-23.9271 104.026-23.1562 102.849-22.3854 101.823-21.4479 100.948-20.3437L100.948 0ZM138.219 0.53125C136.49 0.53125 134.875 0.197917 133.375-0.46875 131.875-1.13542 130.661-2.14062 129.734-3.48437 128.807-4.82812 128.344-6.51042 128.344-8.53125 128.344-11.3437 129.188-13.4635 130.875-14.8906 132.562-16.3177 134.922-17.2865 137.953-17.7969 140.984-18.3073 144.51-18.6042 148.531-18.6875L148.531-20.3125C148.531-22.2917 148.057-23.6458 147.109-24.375 146.161-25.1042 144.938-25.4687 143.438-25.4687 141.792-25.4687 140.438-25.0781 139.375-24.2969 138.312-23.5156 137.781-22.25 137.781-20.5L130.031-20.5C130.031-23.1042 130.599-25.1667 131.734-26.6875 132.87-28.2083 134.443-29.3021 136.453-29.9687 138.464-30.6354 140.792-30.9687 143.438-30.9687 145.375-30.9687 147.146-30.8073 148.75-30.4844 150.354-30.1615 151.745-29.6042 152.922-28.8125 154.099-28.0208 155.01-26.9427 155.656-25.5781 156.302-24.2135 156.625-22.5104 156.625-20.4687L156.625 0 148.875 0 148.625-3.96875C147.333-2.48958 145.833-1.36979 144.125-0.609375 142.417 0.151042 140.448 0.53125 138.219 0.53125ZM140.938-5.15625C142.5-5.15625 143.943-5.5625 145.266-6.375 146.589-7.1875 147.646-8.11458 148.438-9.15625L148.438-14.0937C144.062-14.0729 141-13.6615 139.25-12.8594 137.5-12.0573 136.625-10.7604 136.625-8.96875 136.625-7.67708 137.026-6.71875 137.828-6.09375 138.63-5.46875 139.667-5.15625 140.938-5.15625ZM177.427 11.7812C173.781 11.7812 170.885 11.4062 168.74 10.6562 166.594 9.90625 165.052 8.92187 164.115 7.70312 163.177 6.48437 162.708 5.16667 162.708 3.75 162.708 2.02083 163.531 0.505208 165.177-0.796875 166.823-2.09896 169.427-3.01042 172.99-3.53125L174.365-6.46875 178.49-6.46875C183.552-6.46875 187.245-5.77083 189.568-4.375 191.891-2.97917 193.052-0.84375 193.052 2.03125 193.052 4.94792 191.719 7.30208 189.052 9.09375 186.385 10.8854 182.51 11.7812 177.427 11.7812ZM177.302 6.59375C180.094 6.59375 182.062 6.22917 183.208 5.5 184.354 4.77083 184.927 3.88542 184.927 2.84375 184.927 2.17708 184.729 1.61458 184.333 1.15625 183.937 0.697917 183.281 0.34375 182.365 0.09375 181.448-0.15625 180.229-0.28125 178.708-0.28125L173.146-0.28125C172.333 0.03125 171.672 0.473958 171.161 1.04687 170.651 1.61979 170.396 2.28125 170.396 3.03125 170.396 3.90625 170.938 4.71875 172.021 5.46875 173.104 6.21875 174.865 6.59375 177.302 6.59375ZM173.115-0.6875C170.927-0.9375 169.156-1.38021 167.802-2.01562 166.448-2.65104 165.458-3.38542 164.833-4.21875 164.208-5.05208 163.896-5.875 163.896-6.6875 163.896-7.95833 164.38-9.03646 165.349-9.92187 166.318-10.8073 167.781-11.5833 169.74-12.25L174.052-10.6875C172.927-10.4167 171.99-10.0885 171.24-9.70312 170.49-9.31771 170.115-8.84375 170.115-8.28125 170.115-7.88542 170.339-7.55208 170.786-7.28125 171.234-7.01042 172.016-6.80729 173.13-6.67187 174.245-6.53646 175.781-6.46875 177.74-6.46875ZM176.865-9.71875C174.115-9.71875 171.771-10.2083 169.833-11.1875 167.896-12.1667 166.427-13.4583 165.427-15.0625 164.427-16.6667 163.927-18.3958 163.927-20.25 163.927-22.2292 164.432-24.0156 165.443-25.6094 166.453-27.2031 167.937-28.4792 169.896-29.4375 171.854-30.3958 174.24-30.875 177.052-30.875 179.948-30.875 182.349-30.3958 184.255-29.4375 186.161-28.4792 187.589-27.2031 188.536-25.6094 189.484-24.0156 189.958-22.2292 189.958-20.25 189.958-18.3542 189.474-16.6042 188.505-15 187.536-13.3958 186.089-12.1146 184.161-11.1562 182.234-10.1979 179.802-9.71875 176.865-9.71875ZM176.865-14.6875C178.406-14.6875 179.693-15.1615 180.724-16.1094 181.755-17.0573 182.271-18.4375 182.271-20.25 182.271-22.1667 181.792-23.5937 180.833-24.5312 179.875-25.4687 178.625-25.9375 177.083-25.9375 175.521-25.9375 174.229-25.4531 173.208-24.4844 172.187-23.5156 171.677-22.1042 171.677-20.25 171.677-18.4167 172.203-17.0312 173.255-16.0937 174.307-15.1562 175.51-14.6875 176.865-14.6875ZM185.583-26.25 183.146-29.3437C183.958-31.5104 185.214-32.9896 186.911-33.7812 188.609-34.5729 190.656-34.9792 193.052-35L193.052-28.9687C191.427-28.9687 189.943-28.8177 188.599-28.5156 187.255-28.2135 186.25-27.4583 185.583-26.25ZM211.335 0.5625C207.94 0.5625 205.085-0.0677084 202.773-1.32812 200.46-2.58854 198.71-4.40625 197.523-6.78125 196.335-9.15625 195.742-12.0104 195.742-15.3437 195.742-18.5729 196.32-21.3542 197.476-23.6875 198.632-26.0208 200.33-27.8177 202.57-29.0781 204.809-30.3385 207.565-30.9687 210.835-30.9687 215.377-30.9687 218.966-29.6406 221.601-26.9844 224.236-24.3281 225.554-20.5417 225.554-15.625 225.554-15.375 225.544-15.0365 225.523-14.6094 225.502-14.1823 225.471-13.8542 225.429-13.625L204.023-13.625C204.065-12.1875 204.33-10.8437 204.82-9.59375 205.309-8.34375 206.085-7.33854 207.148-6.57812 208.21-5.81771 209.606-5.4375 211.335-5.4375 213.127-5.4375 214.565-5.82812 215.648-6.60937 216.731-7.39062 217.283-8.55208 217.304-10.0937L225.46-10.0937C225.356-7.71875 224.705-5.73958 223.507-4.15625 222.309-2.57292 220.674-1.39062 218.601-0.609375 216.528 0.171875 214.106 0.5625 211.335 0.5625ZM204.117-18.875 217.335-18.875C217.273-21 216.643-22.5885 215.445-23.6406 214.247-24.6927 212.71-25.2187 210.835-25.2187 208.919-25.2187 207.351-24.6771 206.132-23.5937 204.914-22.5104 204.242-20.9375 204.117-18.875Z" transform="matrix(1 0 0 1 58.5039 98)"/><path d="M0.09375 0 15.2187-42.0625 24.4375-42.0625 39.5937 0 30.4375 0 27.4375-9.25 12.25-9.25 9.15625 0ZM14.3437-16.5312 25.2812-16.5312 19.8125-33.375ZM44.5625 0 44.5625-42.0625 53.3437-42.0625 53.3437 0Z" transform="matrix(1 0 0 1 300.068 98)"/></g></g><rect x="3793" y="1009" width="577" height="248" fill="#95C8E8"/><text font-family="Aptos,Aptos_MSFontService,sans-serif" font-weight="700" font-size="64" transform="matrix(1 0 0 1 3931.5 1153)">Manage</text><text font-family="Aptos,Aptos_MSFontService,sans-serif" font-weight="700" font-size="64" transform="matrix(1 0 0 1 4173.07 1153)">AI</text><path d="M3627.5 1130.06 3734.75 1130.06 3734.75 1136.94 3627.5 1136.94ZM3730.17 1110.58 3776 1133.5 3730.17 1156.42Z" fill="#3B3B40"/><g filter="url(#fx12)" transform="translate(-35 1390)"><g><rect x="19.9999" y="19.75" width="4385" height="165" fill="#F2F2F2"/></g></g><g clip-path="url(#clip21)" filter="url(#fx13)" transform="translate(1770 1415)"><g><path d="M5.5 0 5.5-42.0625 21.4062-42.0625C23.8437-42.0625 26.0573-41.6771 28.0469-40.9062 30.0365-40.1354 31.625-38.9271 32.8125-37.2812 34-35.6354 34.5937-33.5 34.5937-30.875 34.5937-28.2083 33.849-25.9375 32.3594-24.0625 30.8698-22.1875 28.6875-20.9167 25.8125-20.25 27.3958-20.0208 28.6979-19.5104 29.7187-18.7187 30.7396-17.9271 31.5885-16.8594 32.2656-15.5156 32.9427-14.1719 33.5312-12.5104 34.0312-10.5312L36.7812 0 31.0312 0 28.625-9.65625C28.2083-11.3854 27.7135-12.8594 27.1406-14.0781 26.5677-15.2969 25.8021-16.224 24.8437-16.8594 23.8854-17.4948 22.6042-17.8125 21-17.8125L11.125-17.8125 11.125 0ZM11.125-22.5 20.6875-22.5C22.2292-22.5 23.625-22.7917 24.875-23.375 26.125-23.9583 27.1198-24.8021 27.8594-25.9062 28.599-27.0104 28.9687-28.3437 28.9687-29.9062 28.9687-32.2604 28.276-34.0937 26.8906-35.4062 25.5052-36.7187 23.4896-37.375 20.8437-37.375L11.125-37.375ZM56.6458 0.5625C53.3333 0.5625 50.6198-0.130208 48.5052-1.51562 46.3906-2.90104 44.8229-4.78646 43.8021-7.17187 42.7812-9.55729 42.2708-12.2396 42.2708-15.2187 42.2708-18.3229 42.7656-21.0573 43.7552-23.4219 44.7448-25.7865 46.2552-27.6354 48.2865-28.9687 50.3177-30.3021 52.8958-30.9687 56.0208-30.9687 60.1667-30.9687 63.4167-29.7187 65.7708-27.2187 68.125-24.7187 69.3021-21.125 69.3021-16.4375 69.3021-16.125 69.2917-15.7552 69.2708-15.3281 69.25-14.901 69.2187-14.5937 69.1771-14.4062L47.4896-14.4062C47.5104-12.4271 47.8281-10.6094 48.4427-8.95312 49.0573-7.29687 50.0312-5.96875 51.3646-4.96875 52.6979-3.96875 54.4583-3.46875 56.6458-3.46875 58.9792-3.46875 60.8021-4.01562 62.1146-5.10937 63.4271-6.20312 64.1146-7.78125 64.1771-9.84375L69.3333-9.84375C69.2708-7.69792 68.7187-5.84896 67.6771-4.29687 66.6354-2.74479 65.1771-1.54687 63.3021-0.703125 61.4271 0.140625 59.2083 0.5625 56.6458 0.5625ZM47.5208-18.2187 64.1458-18.2187C64.0833-21.0521 63.3437-23.2187 61.9271-24.7187 60.5104-26.2187 58.5417-26.9687 56.0208-26.9687 53.4792-26.9687 51.4844-26.224 50.0365-24.7344 48.5885-23.2448 47.75-21.0729 47.5208-18.2187ZM88.5729 0.5625C86.8646 0.5625 85.2448 0.375 83.7135 0 82.1823-0.375 80.8333-0.96875 79.6667-1.78125 78.5-2.59375 77.5885-3.66146 76.9323-4.98437 76.276-6.30729 75.9479-7.90625 75.9479-9.78125L80.9792-9.78125C80.9792-7.40625 81.7135-5.73437 83.1823-4.76562 84.651-3.79687 86.4896-3.3125 88.6979-3.3125 90.6771-3.3125 92.3073-3.69271 93.5885-4.45312 94.8698-5.21354 95.5104-6.46875 95.5104-8.21875 95.5104-9.71875 94.9323-10.8333 93.776-11.5625 92.6198-12.2917 90.5833-13 87.6667-13.6875 85.2917-14.25 83.2917-14.901 81.6667-15.6406 80.0417-16.3802 78.8229-17.3177 78.0104-18.4531 77.1979-19.5885 76.7917-21.0208 76.7917-22.75 76.7917-24.1042 77.0781-25.2969 77.651-26.3281 78.224-27.3594 79.026-28.2187 80.0573-28.9062 81.0885-29.5937 82.3021-30.1094 83.6979-30.4531 85.0937-30.7969 86.6042-30.9687 88.2292-30.9687 89.8333-30.9687 91.3385-30.7812 92.7448-30.4062 94.151-30.0312 95.3906-29.4479 96.4635-28.6562 97.5365-27.8646 98.3854-26.8437 99.0104-25.5937 99.6354-24.3437 99.9479-22.8437 99.9479-21.0937L94.8854-21.0937C94.8854-23.2604 94.2396-24.7917 92.9479-25.6875 91.6562-26.5833 90.0833-27.0312 88.2292-27.0312 86.3542-27.0312 84.8333-26.6979 83.6667-26.0312 82.5-25.3646 81.9167-24.3229 81.9167-22.9062 81.9167-22.0937 82.1771-21.4062 82.6979-20.8437 83.2187-20.2812 84.0937-19.776 85.3229-19.3281 86.5521-18.8802 88.2083-18.4062 90.2917-17.9062 92.5625-17.3646 94.4687-16.7187 96.0104-15.9687 97.5521-15.2187 98.7135-14.2552 99.4948-13.0781 100.276-11.901 100.667-10.3958 100.667-8.5625 100.667-6.97917 100.359-5.60937 99.7448-4.45312 99.1302-3.29687 98.276-2.34896 97.1823-1.60937 96.0885-0.869792 94.8073-0.322917 93.3385 0.03125 91.8698 0.385417 90.2812 0.5625 88.5729 0.5625ZM108.729 11.1875 108.729-30.4375 113.792-30.4375 113.948-25.4687C115.031-27.0937 116.432-28.4167 118.151-29.4375 119.87-30.4583 121.865-30.9687 124.135-30.9687 126.635-30.9687 128.792-30.3802 130.604-29.2031 132.417-28.026 133.818-26.2708 134.807-23.9375 135.797-21.6042 136.292-18.6979 136.292-15.2187 136.292-11.7812 135.766-8.89062 134.714-6.54687 133.661-4.20312 132.177-2.43229 130.26-1.23437 128.344-0.0364584 126.094 0.5625 123.51 0.5625 121.344 0.5625 119.448 0.130208 117.823-0.734375 116.198-1.59896 114.896-2.78125 113.917-4.28125L113.917 11.1875ZM122.542-3.71875C125.312-3.71875 127.401-4.71354 128.807-6.70312 130.214-8.69271 130.917-11.5312 130.917-15.2187 130.917-18.9479 130.26-21.8021 128.948-23.7812 127.635-25.7604 125.708-26.75 123.167-26.75 120.937-26.75 119.057-26.1562 117.526-24.9687 115.995-23.7812 114.802-22.3958 113.948-20.8125L113.948-9.0625C114.781-7.47917 115.906-6.19271 117.323-5.20312 118.74-4.21354 120.479-3.71875 122.542-3.71875ZM157.292 0.5C154.312 0.5 151.76-0.130208 149.635-1.39062 147.51-2.65104 145.891-4.45312 144.776-6.79687 143.661-9.14062 143.104-11.9271 143.104-15.1562 143.104-18.4687 143.661-21.3073 144.776-23.6719 145.891-26.0365 147.51-27.8542 149.635-29.125 151.76-30.3958 154.312-31.0312 157.292-31.0312 160.333-31.0312 162.932-30.3958 165.089-29.125 167.245-27.8542 168.901-26.0365 170.057-23.6719 171.214-21.3073 171.792-18.4687 171.792-15.1562 171.792-11.9271 171.214-9.14062 170.057-6.79687 168.901-4.45312 167.245-2.65104 165.089-1.39062 162.932-0.130208 160.333 0.5 157.292 0.5ZM157.292-3.65625C159.542-3.65625 161.333-4.15104 162.667-5.14062 164-6.13021 164.958-7.49479 165.542-9.23437 166.125-10.974 166.417-12.9479 166.417-15.1562 166.417-17.4062 166.125-19.4167 165.542-21.1875 164.958-22.9583 164-24.349 162.667-25.3594 161.333-26.3698 159.542-26.875 157.292-26.875 155.104-26.875 153.37-26.3698 152.089-25.3594 150.807-24.349 149.885-22.9583 149.323-21.1875 148.76-19.4167 148.479-17.4062 148.479-15.1562 148.479-12.9479 148.76-10.974 149.323-9.23437 149.885-7.49479 150.807-6.13021 152.089-5.14062 153.37-4.15104 155.104-3.65625 157.292-3.65625ZM180.344 0 180.344-30.4375 185.344-30.4375 185.531-25.75C186.469-26.9792 187.812-28.1406 189.562-29.2344 191.312-30.3281 193.552-30.875 196.281-30.875 199.615-30.875 202.042-29.8906 203.562-27.9219 205.083-25.9531 205.844-23.1875 205.844-19.625L205.844 0 200.625 0 200.625-18.875C200.625-20.3542 200.469-21.6667 200.156-22.8125 199.844-23.9583 199.286-24.8594 198.484-25.5156 197.682-26.1719 196.521-26.5 195-26.5 192.729-26.5 190.823-25.9844 189.281-24.9531 187.74-23.9219 186.5-22.7917 185.562-21.5625L185.562 0ZM226.646 0.5625C224.937 0.5625 223.318 0.375 221.786 0 220.255-0.375 218.906-0.96875 217.74-1.78125 216.573-2.59375 215.661-3.66146 215.005-4.98437 214.349-6.30729 214.021-7.90625 214.021-9.78125L219.052-9.78125C219.052-7.40625 219.786-5.73437 221.255-4.76562 222.724-3.79687 224.562-3.3125 226.771-3.3125 228.75-3.3125 230.38-3.69271 231.661-4.45312 232.943-5.21354 233.583-6.46875 233.583-8.21875 233.583-9.71875 233.005-10.8333 231.849-11.5625 230.693-12.2917 228.656-13 225.74-13.6875 223.365-14.25 221.365-14.901 219.74-15.6406 218.115-16.3802 216.896-17.3177 216.083-18.4531 215.271-19.5885 214.865-21.0208 214.865-22.75 214.865-24.1042 215.151-25.2969 215.724-26.3281 216.297-27.3594 217.099-28.2187 218.13-28.9062 219.161-29.5937 220.375-30.1094 221.771-30.4531 223.167-30.7969 224.677-30.9687 226.302-30.9687 227.906-30.9687 229.411-30.7812 230.818-30.4062 232.224-30.0312 233.464-29.4479 234.536-28.6562 235.609-27.8646 236.458-26.8437 237.083-25.5937 237.708-24.3437 238.021-22.8437 238.021-21.0937L232.958-21.0937C232.958-23.2604 232.312-24.7917 231.021-25.6875 229.729-26.5833 228.156-27.0312 226.302-27.0312 224.427-27.0312 222.906-26.6979 221.74-26.0312 220.573-25.3646 219.99-24.3229 219.99-22.9062 219.99-22.0937 220.25-21.4062 220.771-20.8437 221.292-20.2812 222.167-19.776 223.396-19.3281 224.625-18.8802 226.281-18.4062 228.365-17.9062 230.635-17.3646 232.542-16.7187 234.083-15.9687 235.625-15.2187 236.786-14.2552 237.568-13.0781 238.349-11.901 238.74-10.3958 238.74-8.5625 238.74-6.97917 238.432-5.60937 237.818-4.45312 237.203-3.29687 236.349-2.34896 235.255-1.60937 234.161-0.869792 232.88-0.322917 231.411 0.03125 229.943 0.385417 228.354 0.5625 226.646 0.5625ZM246.802 0 246.802-30.4375 252.021-30.4375 252.021 0ZM249.396-36.1562C248.417-36.1562 247.63-36.4427 247.036-37.0156 246.443-37.5885 246.146-38.3125 246.146-39.1875 246.146-40.0625 246.443-40.7865 247.036-41.3594 247.63-41.9323 248.417-42.2187 249.396-42.2187 250.375-42.2187 251.167-41.9323 251.771-41.3594 252.375-40.7865 252.677-40.0625 252.677-39.1875 252.677-38.3125 252.375-37.5885 251.771-37.0156 251.167-36.4427 250.375-36.1562 249.396-36.1562ZM277.052 0.5625C274.802 0.5625 272.885 0.130208 271.302-0.734375 269.719-1.59896 268.427-2.79167 267.427-4.3125L267.146 0 262.271 0 262.271-42.0625 267.49-42.0625 267.49-25.5625C268.552-27.1667 269.943-28.4687 271.661-29.4687 273.38-30.4687 275.396-30.9687 277.708-30.9687 280.187-30.9687 282.333-30.3802 284.146-29.2031 285.958-28.026 287.359-26.2708 288.349-23.9375 289.339-21.6042 289.833-18.6979 289.833-15.2187 289.833-11.7604 289.307-8.85937 288.255-6.51562 287.203-4.17188 285.719-2.40625 283.802-1.21875 281.885-0.03125 279.635 0.5625 277.052 0.5625ZM276.083-3.71875C278.833-3.71875 280.917-4.71354 282.333-6.70312 283.75-8.69271 284.458-11.5104 284.458-15.1562 284.458-18.9062 283.797-21.7812 282.474-23.7812 281.151-25.7812 279.198-26.7812 276.615-26.7812 274.427-26.7812 272.578-26.1979 271.068-25.0312 269.557-23.8646 268.365-22.4479 267.49-20.7812L267.49-9.0625C268.302-7.52083 269.417-6.24479 270.833-5.23437 272.25-4.22396 274-3.71875 276.083-3.71875ZM307.115 0C304.635 0 302.74-0.390625 301.427-1.17187 300.115-1.95312 299.219-3.07812 298.74-4.54687 298.26-6.01562 298.021-7.78125 298.021-9.84375L298.021-42.0625 303.208-42.0625 303.208-10.0937C303.208-8.19792 303.453-6.75 303.943-5.75 304.432-4.75 305.604-4.25 307.458-4.25L308.865-4.25 308.865 0ZM327.635 0.5625C324.323 0.5625 321.609-0.130208 319.495-1.51562 317.38-2.90104 315.812-4.78646 314.792-7.17187 313.771-9.55729 313.26-12.2396 313.26-15.2187 313.26-18.3229 313.755-21.0573 314.745-23.4219 315.734-25.7865 317.245-27.6354 319.276-28.9687 321.307-30.3021 323.885-30.9687 327.01-30.9687 331.156-30.9687 334.406-29.7187 336.76-27.2187 339.115-24.7187 340.292-21.125 340.292-16.4375 340.292-16.125 340.281-15.7552 340.26-15.3281 340.24-14.901 340.208-14.5937 340.167-14.4062L318.479-14.4062C318.5-12.4271 318.818-10.6094 319.432-8.95312 320.047-7.29687 321.021-5.96875 322.354-4.96875 323.687-3.96875 325.448-3.46875 327.635-3.46875 329.969-3.46875 331.792-4.01562 333.104-5.10937 334.417-6.20312 335.104-7.78125 335.167-9.84375L340.323-9.84375C340.26-7.69792 339.708-5.84896 338.667-4.29687 337.625-2.74479 336.167-1.54687 334.292-0.703125 332.417 0.140625 330.198 0.5625 327.635 0.5625ZM318.51-18.2187 335.135-18.2187C335.073-21.0521 334.333-23.2187 332.917-24.7187 331.5-26.2187 329.531-26.9687 327.01-26.9687 324.469-26.9687 322.474-26.224 321.026-24.7344 319.578-23.2448 318.74-21.0729 318.51-18.2187ZM357.177 0 372.927-42.0625 378.865-42.0625 394.396 0 388.583 0 384.583-11.7812 367.146-11.7812 362.958 0ZM368.677-16.5 382.99-16.5 375.865-36.4687ZM400.24 0 400.24-42.0625 405.865-42.0625 405.865 0ZM429.563 11.1875 429.563-30.4375 434.625-30.4375 434.781-25.4687C435.865-27.0937 437.266-28.4167 438.984-29.4375 440.703-30.4583 442.698-30.9687 444.969-30.9687 447.469-30.9687 449.625-30.3802 451.438-29.2031 453.25-28.026 454.651-26.2708 455.641-23.9375 456.63-21.6042 457.125-18.6979 457.125-15.2187 457.125-11.7812 456.599-8.89062 455.547-6.54687 454.495-4.20312 453.01-2.43229 451.094-1.23437 449.177-0.0364584 446.927 0.5625 444.344 0.5625 442.177 0.5625 440.281 0.130208 438.656-0.734375 437.031-1.59896 435.729-2.78125 434.75-4.28125L434.75 11.1875ZM443.375-3.71875C446.146-3.71875 448.234-4.71354 449.641-6.70312 451.047-8.69271 451.75-11.5312 451.75-15.2187 451.75-18.9479 451.094-21.8021 449.781-23.7812 448.469-25.7604 446.542-26.75 444-26.75 441.771-26.75 439.891-26.1562 438.359-24.9687 436.828-23.7812 435.635-22.3958 434.781-20.8125L434.781-9.0625C435.615-7.47917 436.74-6.19271 438.156-5.20312 439.573-4.21354 441.313-3.71875 443.375-3.71875ZM465.656 0 465.656-30.4375 470.563-30.4375 470.75-25.25C471.604-26.8333 472.792-28.1562 474.313-29.2187 475.833-30.2812 477.812-30.8125 480.25-30.8125L480.875-30.8125 480.875-26.0312 480.156-26.0312C478.635-26.0312 477.302-25.8333 476.156-25.4375 475.01-25.0417 474.01-24.4948 473.156-23.7969 472.302-23.099 471.542-22.2917 470.875-21.375L470.875 0ZM486.854 0 486.854-30.4375 492.073-30.4375 492.073 0ZM489.448-36.1562C488.469-36.1562 487.682-36.4427 487.089-37.0156 486.495-37.5885 486.198-38.3125 486.198-39.1875 486.198-40.0625 486.495-40.7865 487.089-41.3594 487.682-41.9323 488.469-42.2187 489.448-42.2187 490.427-42.2187 491.219-41.9323 491.823-41.3594 492.427-40.7865 492.729-40.0625 492.729-39.1875 492.729-38.3125 492.427-37.5885 491.823-37.0156 491.219-36.4427 490.427-36.1562 489.448-36.1562ZM502.323 0 502.323-30.4375 507.323-30.4375 507.51-25.75C508.448-26.9792 509.792-28.1406 511.542-29.2344 513.292-30.3281 515.531-30.875 518.26-30.875 521.594-30.875 524.021-29.8906 525.542-27.9219 527.062-25.9531 527.823-23.1875 527.823-19.625L527.823 0 522.604 0 522.604-18.875C522.604-20.3542 522.448-21.6667 522.135-22.8125 521.823-23.9583 521.266-24.8594 520.464-25.5156 519.661-26.1719 518.5-26.5 516.979-26.5 514.708-26.5 512.802-25.9844 511.26-24.9531 509.719-23.9219 508.479-22.7917 507.542-21.5625L507.542 0ZM550.219 0.53125C547.469 0.53125 545.031-0.046875 542.906-1.20312 540.781-2.35937 539.12-4.09896 537.922-6.42187 536.724-8.74479 536.125-11.6562 536.125-15.1562 536.125-18.6562 536.714-21.5781 537.891-23.9219 539.068-26.2656 540.714-28.026 542.828-29.2031 544.943-30.3802 547.406-30.9687 550.219-30.9687 552.573-30.9687 554.693-30.5833 556.578-29.8125 558.464-29.0417 559.969-27.8802 561.094-26.3281 562.219-24.776 562.812-22.8125 562.875-20.4375L557.719-20.4375C557.594-22.3958 556.885-23.9375 555.594-25.0625 554.302-26.1875 552.542-26.75 550.312-26.75 547.354-26.75 545.146-25.7344 543.688-23.7031 542.229-21.6719 541.5-18.8229 541.5-15.1562 541.5-12.7187 541.823-10.651 542.469-8.95312 543.115-7.25521 544.094-5.95312 545.406-5.04687 546.719-4.14062 548.354-3.6875 550.312-3.6875 552.542-3.6875 554.354-4.26562 555.75-5.42187 557.146-6.57812 557.875-8.27083 557.938-10.5L563.094-10.5C563.031-8.04167 562.432-5.99479 561.297-4.35937 560.161-2.72396 558.63-1.5 556.703-0.6875 554.776 0.125 552.615 0.53125 550.219 0.53125ZM571.646 0 571.646-30.4375 576.865-30.4375 576.865 0ZM574.24-36.1562C573.26-36.1562 572.474-36.4427 571.88-37.0156 571.286-37.5885 570.99-38.3125 570.99-39.1875 570.99-40.0625 571.286-40.7865 571.88-41.3594 572.474-41.9323 573.26-42.2187 574.24-42.2187 575.219-42.2187 576.01-41.9323 576.615-41.3594 577.219-40.7865 577.521-40.0625 577.521-39.1875 577.521-38.3125 577.219-37.5885 576.615-37.0156 576.01-36.4427 575.219-36.1562 574.24-36.1562ZM587.115 11.1875 587.115-30.4375 592.177-30.4375 592.333-25.4687C593.417-27.0937 594.818-28.4167 596.536-29.4375 598.255-30.4583 600.25-30.9687 602.521-30.9687 605.021-30.9687 607.177-30.3802 608.99-29.2031 610.802-28.026 612.203-26.2708 613.193-23.9375 614.182-21.6042 614.677-18.6979 614.677-15.2187 614.677-11.7812 614.151-8.89062 613.099-6.54687 612.047-4.20312 610.562-2.43229 608.646-1.23437 606.729-0.0364584 604.479 0.5625 601.896 0.5625 599.729 0.5625 597.833 0.130208 596.208-0.734375 594.583-1.59896 593.281-2.78125 592.302-4.28125L592.302 11.1875ZM600.927-3.71875C603.698-3.71875 605.786-4.71354 607.193-6.70312 608.599-8.69271 609.302-11.5312 609.302-15.2187 609.302-18.9479 608.646-21.8021 607.333-23.7812 606.021-25.7604 604.094-26.75 601.552-26.75 599.323-26.75 597.443-26.1562 595.911-24.9687 594.38-23.7812 593.187-22.3958 592.333-20.8125L592.333-9.0625C593.167-7.47917 594.292-6.19271 595.708-5.20312 597.125-4.21354 598.865-3.71875 600.927-3.71875ZM631.958 0C629.479 0 627.583-0.390625 626.271-1.17187 624.958-1.95312 624.062-3.07812 623.583-4.54687 623.104-6.01562 622.865-7.78125 622.865-9.84375L622.865-42.0625 628.052-42.0625 628.052-10.0937C628.052-8.19792 628.297-6.75 628.786-5.75 629.276-4.75 630.448-4.25 632.302-4.25L633.708-4.25 633.708 0ZM652.479 0.5625C649.167 0.5625 646.453-0.130208 644.339-1.51562 642.224-2.90104 640.656-4.78646 639.635-7.17187 638.615-9.55729 638.104-12.2396 638.104-15.2187 638.104-18.3229 638.599-21.0573 639.589-23.4219 640.578-25.7865 642.089-27.6354 644.12-28.9687 646.151-30.3021 648.729-30.9687 651.854-30.9687 656-30.9687 659.25-29.7187 661.604-27.2187 663.958-24.7187 665.135-21.125 665.135-16.4375 665.135-16.125 665.125-15.7552 665.104-15.3281 665.083-14.901 665.052-14.5937 665.01-14.4062L643.323-14.4062C643.344-12.4271 643.661-10.6094 644.276-8.95312 644.891-7.29687 645.865-5.96875 647.198-4.96875 648.531-3.96875 650.292-3.46875 652.479-3.46875 654.812-3.46875 656.635-4.01562 657.948-5.10937 659.26-6.20312 659.948-7.78125 660.01-9.84375L665.167-9.84375C665.104-7.69792 664.552-5.84896 663.51-4.29687 662.469-2.74479 661.01-1.54687 659.135-0.703125 657.26 0.140625 655.042 0.5625 652.479 0.5625ZM643.354-18.2187 659.979-18.2187C659.917-21.0521 659.177-23.2187 657.76-24.7187 656.344-26.2187 654.375-26.9687 651.854-26.9687 649.312-26.9687 647.318-26.224 645.87-24.7344 644.422-23.2448 643.583-21.0729 643.354-18.2187ZM684.406 0.5625C682.698 0.5625 681.078 0.375 679.547 0 678.016-0.375 676.667-0.96875 675.5-1.78125 674.333-2.59375 673.422-3.66146 672.766-4.98437 672.109-6.30729 671.781-7.90625 671.781-9.78125L676.812-9.78125C676.812-7.40625 677.547-5.73437 679.016-4.76562 680.484-3.79687 682.323-3.3125 684.531-3.3125 686.51-3.3125 688.141-3.69271 689.422-4.45312 690.703-5.21354 691.344-6.46875 691.344-8.21875 691.344-9.71875 690.766-10.8333 689.609-11.5625 688.453-12.2917 686.417-13 683.5-13.6875 681.125-14.25 679.125-14.901 677.5-15.6406 675.875-16.3802 674.656-17.3177 673.844-18.4531 673.031-19.5885 672.625-21.0208 672.625-22.75 672.625-24.1042 672.911-25.2969 673.484-26.3281 674.057-27.3594 674.859-28.2187 675.891-28.9062 676.922-29.5937 678.135-30.1094 679.531-30.4531 680.927-30.7969 682.437-30.9687 684.062-30.9687 685.667-30.9687 687.172-30.7812 688.578-30.4062 689.984-30.0312 691.224-29.4479 692.297-28.6562 693.37-27.8646 694.219-26.8437 694.844-25.5937 695.469-24.3437 695.781-22.8437 695.781-21.0937L690.719-21.0937C690.719-23.2604 690.073-24.7917 688.781-25.6875 687.49-26.5833 685.917-27.0312 684.062-27.0312 682.187-27.0312 680.667-26.6979 679.5-26.0312 678.333-25.3646 677.75-24.3229 677.75-22.9062 677.75-22.0937 678.01-21.4062 678.531-20.8437 679.052-20.2812 679.927-19.776 681.156-19.3281 682.385-18.8802 684.042-18.4062 686.125-17.9062 688.396-17.3646 690.302-16.7187 691.844-15.9687 693.385-15.2187 694.547-14.2552 695.328-13.0781 696.109-11.901 696.5-10.3958 696.5-8.5625 696.5-6.97917 696.193-5.60937 695.578-4.45312 694.963-3.29687 694.109-2.34896 693.016-1.60937 691.922-0.869792 690.641-0.322917 689.172 0.03125 687.703 0.385417 686.115 0.5625 684.406 0.5625Z" transform="matrix(1 0 0 1 58.0012 98)"/></g></g><rect x="-15.0001" y="1396" width="4385" height="165" fill="#F2F2F2"/><text font-family="Aptos,Aptos_MSFontService,sans-serif" font-weight="400" font-size="64" transform="matrix(1 0 0 1 1828 1499)">Responsible AI principles</text></g></svg>