<svg width="3290" height="619" xmlns="http://www.w3.org/2000/svg" xmlns:xlink="http://www.w3.org/1999/xlink" xml:space="preserve" overflow="hidden"><defs><clipPath id="clip0"><rect x="271" y="1384" width="3290" height="619"/></clipPath><linearGradient x1="578" y1="1484.5" x2="578" y2="1712.5" gradientUnits="userSpaceOnUse" spreadMethod="reflect" id="fill1"><stop offset="0" stop-color="#9B9B9B"/><stop offset="0.5" stop-color="#8E8E8E"/><stop offset="1" stop-color="#797979"/></linearGradient><linearGradient x1="1280" y1="1484.5" x2="1280" y2="1712.5" gradientUnits="userSpaceOnUse" spreadMethod="reflect" id="fill2"><stop offset="0" stop-color="#9CAFBF"/><stop offset="0.5" stop-color="#8FA3B4"/><stop offset="1" stop-color="#7A95AB"/></linearGradient><linearGradient x1="1906.5" y1="1484.5" x2="1906.5" y2="1712.5" gradientUnits="userSpaceOnUse" spreadMethod="reflect" id="fill3"><stop offset="0" stop-color="#F5B8A4"/><stop offset="0.5" stop-color="#F2AB96"/><stop offset="1" stop-color="#F59E81"/></linearGradient><linearGradient x1="3124.5" y1="1484.5" x2="3124.5" y2="1712.5" gradientUnits="userSpaceOnUse" spreadMethod="reflect" id="fill4"><stop offset="0" stop-color="#9DB49E"/><stop offset="0.5" stop-color="#90A891"/><stop offset="1" stop-color="#7B9C7D"/></linearGradient><linearGradient x1="2519.5" y1="1489.5" x2="2519.5" y2="1717.5" gradientUnits="userSpaceOnUse" spreadMethod="reflect" id="fill5"><stop offset="0" stop-color="#D09FC8"/><stop offset="0.5" stop-color="#C692BE"/><stop offset="1" stop-color="#C17EB6"/></linearGradient><linearGradient x1="3378" y1="1484.5" x2="3378" y2="1712.5" gradientUnits="userSpaceOnUse" spreadMethod="reflect" id="fill6"><stop offset="0" stop-color="#9DB49E"/><stop offset="0.5" stop-color="#90A891"/><stop offset="1" stop-color="#7B9C7D"/></linearGradient></defs><g clip-path="url(#clip0)" transform="translate(-271 -1384)"><rect x="271" y="1384" width="3290" height="619" fill="#FFFFFF"/><rect x="921" y="1439" width="2586" height="329" fill="#F2F2F2"/><path d="M283.5 1484.5 758.5 1484.5 872.5 1598.5 758.5 1712.5 283.5 1712.5Z" stroke="#000000" stroke-width="4.58333" stroke-miterlimit="8" fill="url(#fill1)" fill-rule="evenodd"/><text font-family="Aptos,Aptos_MSFontService,sans-serif" font-weight="400" font-size="55" transform="matrix(1 0 0 1 344.034 1583)">Build governance </text><text font-family="Aptos,Aptos_MSFontService,sans-serif" font-weight="400" font-size="55" transform="matrix(1 0 0 1 487.515 1649)">team</text><path d="M966.5 1484.5 1479.5 1484.5 1593.5 1598.5 1479.5 1712.5 966.5 1712.5 1080.5 1598.5Z" stroke="#156082" stroke-width="4.58333" stroke-miterlimit="8" fill="url(#fill2)" fill-rule="evenodd"/><text font-family="Aptos,Aptos_MSFontService,sans-serif" font-weight="400" font-size="55" transform="matrix(1 0 0 1 1129.25 1616)">Quantify risk</text><path d="M1593.5 1484.5 2105.5 1484.5 2219.5 1598.5 2105.5 1712.5 1593.5 1712.5 1707.5 1598.5Z" stroke="#E97132" stroke-width="4.58333" stroke-miterlimit="8" fill="url(#fill3)" fill-rule="evenodd"/><text font-family="Aptos,Aptos_MSFontService,sans-serif" font-weight="400" font-size="55" transform="matrix(1 0 0 1 1779.96 1550)">Document </text><text font-family="Aptos,Aptos_MSFontService,sans-serif" font-weight="400" font-size="55" transform="matrix(1 0 0 1 1768.09 1616)">governance </text><text font-family="Aptos,Aptos_MSFontService,sans-serif" font-weight="400" font-size="55" transform="matrix(1 0 0 1 1812.61 1682)">policies</text><path d="M2811.5 1484.5 3323.5 1484.5 3437.5 1598.5 3323.5 1712.5 2811.5 1712.5 2925.5 1598.5Z" stroke="#196B24" stroke-width="4.58333" stroke-miterlimit="8" fill="url(#fill4)" fill-rule="evenodd"/><text font-family="Aptos,Aptos_MSFontService,sans-serif" font-weight="400" font-size="55" transform="matrix(1 0 0 1 3057.21 1583)">Apply </text><text font-family="Aptos,Aptos_MSFontService,sans-serif" font-weight="400" font-size="55" transform="matrix(1 0 0 1 3006 1649)">guardrails</text><path d="M2206.5 1489.5 2718.5 1489.5 2832.5 1603.5 2718.5 1717.5 2206.5 1717.5 2320.5 1603.5Z" stroke="#A02B93" stroke-width="4.58333" stroke-miterlimit="8" fill="url(#fill5)" fill-rule="evenodd"/><text font-family="Aptos,Aptos_MSFontService,sans-serif" font-weight="400" font-size="55" transform="matrix(1 0 0 1 2415.56 1588)">Measure </text><text font-family="Aptos,Aptos_MSFontService,sans-serif" font-weight="400" font-size="55" transform="matrix(1 0 0 1 2377.95 1654)">compliance</text><path d="M3139.5 1734.5 3139.5 1895.51" stroke="#000000" stroke-width="6.875" stroke-linejoin="round" stroke-miterlimit="10" stroke-dasharray="27.5 20.625" fill="none" fill-rule="evenodd"/><path d="M0 0 1916.63 0.000360892" stroke="#000000" stroke-width="6.875" stroke-linejoin="round" stroke-miterlimit="10" stroke-dasharray="27.5 20.625" fill="none" fill-rule="evenodd" transform="matrix(-1 0 0 1 3139.13 1895.5)"/><path d="M3.4375-6.76673e-06 3.43755 27.5-3.43745 27.5-3.4375 6.76673e-06ZM3.43759 48.125 3.43765 75.625-3.43735 75.625-3.43741 48.125ZM3.43769 96.25 3.43774 123.75-3.43726 123.75-3.43731 96.25ZM3.43778 144.375 3.43782 160.417-3.43718 160.417-3.43722 144.375ZM13.7503 155.833 0.000360892 183.333-13.7497 155.833Z" transform="matrix(1 0 0 -1 1222.5 1895.83)"/><rect x="3318.5" y="1484.5" width="119" height="228" stroke="#196B24" stroke-width="4.58333" stroke-miterlimit="8" fill="url(#fill6)"/></g></svg>