<svg data-slug-id="github-icon" xmlns="http://www.w3.org/2000/svg" viewBox="0 0 21 21">
    <path d="M10.5,0.5C4.8,0.5,0.2,5.1,0.2,10.8c0,4.5,2.9,8.4,7,9.7C7.8,20.6,8,20.3,8,20c0-0.2,0-0.9,0-1.7 c-2.9,0.6-3.5-1.4-3.5-1.4c-0.5-1.2-1.1-1.5-1.1-1.5c-0.9-0.6,0.1-0.6,0.1-0.6c1,0.1,1.6,1.1,1.6,1.1c0.9,1.6,2.4,1.1,3,0.9 c0.1-0.7,0.4-1.1,0.7-1.4C6.4,15,4,14.1,4,10.2c0-1.1,0.4-2,1.1-2.8C4.9,7.2,4.6,6.2,5.1,4.8c0,0,0.9-0.3,2.8,1.1 c0.8-0.2,1.7-0.3,2.6-0.3c0.9,0,1.7,0.1,2.6,0.3c2-1.3,2.8-1.1,2.8-1.1c0.6,1.4,0.2,2.5,0.1,2.7c0.7,0.7,1.1,1.6,1.1,2.8 c0,3.9-2.4,4.8-4.7,5.1c0.4,0.3,0.7,0.9,0.7,1.9c0,1.4,0,2.5,0,2.8c0,0.3,0.2,0.6,0.7,0.5c4.1-1.4,7-5.2,7-9.7 C20.8,5.1,16.2,0.5,10.5,0.5z" />
</svg>
