<?xml version="1.0" encoding="UTF-8" standalone="no"?>
<!DOCTYPE svg PUBLIC "-//W3C//DTD SVG 1.1//EN" "http://www.w3.org/Graphics/SVG/1.1/DTD/svg11.dtd">
<!-- Generated by Microsoft Visio, SVG Export azure-vmware-solution-crosstenant-crossregion-vwan-appliance.svg Page-1 -->
<svg xmlns="http://www.w3.org/2000/svg" xmlns:xlink="http://www.w3.org/1999/xlink" xmlns:ev="http://www.w3.org/2001/xml-events"
		xmlns:v="http://schemas.microsoft.com/visio/2003/SVGExtensions/" width="9.46653in" height="11.507in"
		viewBox="0 0 681.59 828.503" xml:space="preserve" color-interpolation-filters="sRGB" class="st50">
	<v:documentProperties v:langID="2052" v:metric="true" v:viewMarkup="false">
		<v:userDefs>
			<v:ud v:nameU="msvNoAutoConnect" v:val="VT0(1):26"/>
		</v:userDefs>
	</v:documentProperties>

	<style type="text/css">
	<![CDATA[
		.st1 {fill:#ffffff;stroke:none;stroke-linecap:round;stroke-linejoin:round;stroke-width:0.75}
		.st2 {fill:url(#grad0-8);stroke:none;stroke-linecap:butt;stroke-width:0.75}
		.st3 {fill:#ffffff;stroke:none;stroke-linecap:butt;stroke-width:0.75}
		.st4 {fill:url(#grad0-14);stroke:none;stroke-linecap:butt;stroke-width:0.75}
		.st5 {fill:#ffffff;fill-opacity:0.6;stroke:none;stroke-linecap:butt;stroke-width:0.75}
		.st6 {fill:#76bc2d;stroke:none;stroke-linecap:butt;stroke-width:0.75}
		.st7 {fill:#a67af4;stroke:none;stroke-linecap:butt;stroke-width:0.75}
		.st8 {fill:#773adc;stroke:none;stroke-linecap:butt;stroke-width:0.75}
		.st9 {fill:url(#grad0-31);stroke:none;stroke-linecap:butt;stroke-width:0.75}
		.st10 {fill:url(#grad0-35);stroke:none;stroke-linecap:butt;stroke-width:0.75}
		.st11 {fill:url(#grad0-39);stroke:none;stroke-linecap:butt;stroke-width:0.75}
		.st12 {fill:url(#grad0-44);stroke:none;stroke-linecap:butt;stroke-width:0.75}
		.st13 {fill:url(#grad0-48);stroke:none;stroke-linecap:butt;stroke-width:0.75}
		.st14 {fill:#50e6ff;stroke:none;stroke-linecap:butt;stroke-width:0.75}
		.st15 {fill:#1490df;stroke:none;stroke-linecap:butt;stroke-width:0.75}
		.st16 {fill:#bd842d;stroke:none;stroke-linecap:butt;stroke-width:12.75}
		.st17 {fill:#ffffff;stroke:none;stroke-linecap:butt;stroke-width:12.75}
		.st18 {fill:none;stroke:none;stroke-linecap:round;stroke-linejoin:round;stroke-width:0.75}
		.st19 {fill:#000000;font-family:Segoe UI;font-size:1.33333em}
		.st20 {fill:#000000;font-family:Segoe UI;font-size:1.16666em}
		.st21 {font-size:1em}
		.st22 {fill:#ffffff;stroke:#000000;stroke-linecap:round;stroke-linejoin:round;stroke-width:0.75}
		.st23 {fill:url(#grad0-151);stroke:none;stroke-linecap:butt;stroke-width:0.75}
		.st24 {fill:#f2f2f2;stroke:none;stroke-linecap:butt;stroke-width:0.75}
		.st25 {fill:#0078d4;stroke:none;stroke-linecap:butt;stroke-width:0.75}
		.st26 {fill:#e6e6e6;stroke:none;stroke-linecap:butt;stroke-width:0.75}
		.st27 {fill:#ce74b6;stroke:none;stroke-linecap:butt;stroke-width:0.75}
		.st28 {fill:#bfbfbf;stroke:none;stroke-linecap:butt;stroke-width:12.24}
		.st29 {fill:#59b4d9;stroke:none;stroke-linecap:butt;stroke-width:12.24}
		.st30 {fill:#ffffff;fill-opacity:0.15;stroke:none;stroke-linecap:butt;stroke-width:12.24}
		.st31 {fill:#ffffff;stroke:none;stroke-linecap:butt;stroke-width:0.749999}
		.st32 {fill:#000000;font-family:Segoe UI;font-size:0.916672em}
		.st33 {fill:url(#grad0-211);stroke:none;stroke-linecap:butt;stroke-width:0.749999}
		.st34 {fill:#ffffff;fill-opacity:0.8;stroke:none;stroke-linecap:butt;stroke-width:0.749999}
		.st35 {fill:url(#grad0-217);stroke:none;stroke-linecap:butt;stroke-width:0.749999}
		.st36 {marker-end:url(#mrkr5-223);stroke:#005a9d;stroke-linecap:round;stroke-linejoin:round;stroke-width:1}
		.st37 {fill:#005a9d;fill-opacity:1;stroke:#005a9d;stroke-opacity:1;stroke-width:0.28409090909091}
		.st38 {fill:#ffffff;stroke:#92cddc;stroke-linecap:butt;stroke-width:4.5}
		.st39 {fill:#0066cc;stroke:none;stroke-linecap:butt;stroke-width:0.749999}
		.st40 {fill:#92cddc;stroke:none;stroke-linecap:butt;stroke-width:0.749999}
		.st41 {fill:#000000;font-family:Segoe UI;font-size:1.00001em}
		.st42 {marker-end:url(#mrkr5-266);marker-start:url(#mrkr5-264);stroke:#000000;stroke-linecap:round;stroke-linejoin:round;stroke-width:0.75}
		.st43 {fill:#000000;fill-opacity:1;stroke:#000000;stroke-opacity:1;stroke-width:0.22935779816514}
		.st44 {marker-end:url(#mrkr5-299);marker-start:url(#mrkr5-297);stroke:#006600;stroke-linecap:round;stroke-linejoin:round;stroke-width:2.25}
		.st45 {fill:#006600;fill-opacity:1;stroke:#006600;stroke-opacity:1;stroke-width:0.47169811320755}
		.st46 {marker-end:url(#mrkr5-570);marker-start:url(#mrkr5-568);stroke:#0033cc;stroke-linecap:round;stroke-linejoin:round;stroke-width:2.25}
		.st47 {fill:#0033cc;fill-opacity:1;stroke:#0033cc;stroke-opacity:1;stroke-width:0.47169811320755}
		.st48 {marker-end:url(#mrkr5-607);marker-start:url(#mrkr5-605);stroke:#c00000;stroke-linecap:round;stroke-linejoin:round;stroke-width:2.25}
		.st49 {fill:#c00000;fill-opacity:1;stroke:#c00000;stroke-opacity:1;stroke-width:0.47169811320755}
		.st50 {fill:none;fill-rule:evenodd;font-size:12px;overflow:visible;stroke-linecap:square;stroke-miterlimit:3}
	]]>
	</style>

	<defs id="Patterns_And_Gradients">
		<linearGradient id="grad0-8" x1="0" y1="0" x2="1" y2="0" gradientTransform="rotate(-90 0.5 0.5)">
			<stop offset="0" stop-color="#0078d4" stop-opacity="1"/>
			<stop offset="1" stop-color="#5ea0ef" stop-opacity="1"/>
		</linearGradient>
		<linearGradient id="grad0-14" x1="0" y1="0" x2="1" y2="0" gradientTransform="rotate(-90 0.5 0.5)">
			<stop offset="0" stop-color="#76bc2d" stop-opacity="1"/>
			<stop offset="0.815" stop-color="#86d633" stop-opacity="1"/>
		</linearGradient>
		<linearGradient id="grad0-31" x1="0" y1="0" x2="1" y2="0" gradientTransform="rotate(44.92 0.5 0.5)">
			<stop offset="0" stop-color="#86d633" stop-opacity="1"/>
			<stop offset="1" stop-color="#5e9624" stop-opacity="1"/>
		</linearGradient>
		<linearGradient id="grad0-35" x1="0" y1="0" x2="1" y2="0" gradientTransform="rotate(45.084134711206 0.5 0.5)">
			<stop offset="0" stop-color="#86d633" stop-opacity="1"/>
			<stop offset="1" stop-color="#5e9624" stop-opacity="1"/>
		</linearGradient>
		<linearGradient id="grad0-39" x1="0" y1="0" x2="1" y2="0" gradientTransform="rotate(45 0.5 0.5)">
			<stop offset="0" stop-color="#86d633" stop-opacity="1"/>
			<stop offset="1" stop-color="#5e9624" stop-opacity="1"/>
		</linearGradient>
		<linearGradient id="grad0-44" x1="0" y1="0" x2="1" y2="0" gradientTransform="rotate(44.92 0.5 0.5)">
			<stop offset="0" stop-color="#86d633" stop-opacity="1"/>
			<stop offset="1" stop-color="#5e9624" stop-opacity="1"/>
		</linearGradient>
		<linearGradient id="grad0-48" x1="0" y1="0" x2="1" y2="0" gradientTransform="rotate(45.175215904905 0.5 0.5)">
			<stop offset="0" stop-color="#86d633" stop-opacity="1"/>
			<stop offset="1" stop-color="#5e9624" stop-opacity="1"/>
		</linearGradient>
		<linearGradient id="grad0-151" x1="0" y1="0" x2="1" y2="0" gradientTransform="rotate(-90 0.5 0.5)">
			<stop offset="0" stop-color="#198ab3" stop-opacity="1"/>
			<stop offset="0.11" stop-color="#22a5cb" stop-opacity="1"/>
			<stop offset="0.23" stop-color="#29bade" stop-opacity="1"/>
			<stop offset="0.37" stop-color="#2ec9eb" stop-opacity="1"/>
			<stop offset="0.53" stop-color="#31d1f3" stop-opacity="1"/>
			<stop offset="0.78" stop-color="#32d4f5" stop-opacity="1"/>
		</linearGradient>
		<linearGradient id="grad0-211" x1="0" y1="0" x2="1" y2="0" gradientTransform="rotate(90 0.5 0.5)">
			<stop offset="0.22" stop-color="#32d4f5" stop-opacity="1"/>
			<stop offset="1" stop-color="#198ab3" stop-opacity="1"/>
		</linearGradient>
		<linearGradient id="grad0-217" x1="0" y1="0" x2="1" y2="0" gradientTransform="rotate(85.405746668733 0.5 0.5)">
			<stop offset="0.22" stop-color="#32d4f5" stop-opacity="1"/>
			<stop offset="1" stop-color="#198ab3" stop-opacity="1"/>
		</linearGradient>
	</defs>
	<defs id="Markers">
		<g id="lend5">
			<path d="M 2 1 L 0 0 L 1.98117 -0.993387 C 1.67173 -0.364515 1.67301 0.372641 1.98465 1.00043 " style="stroke:none"/>
		</g>
		<marker id="mrkr5-223" class="st37" v:arrowType="5" v:arrowSize="2" v:setback="0" refX="-0" orient="auto"
				markerUnits="strokeWidth" overflow="visible">
			<use xlink:href="#lend5" transform="scale(-3.52,-3.52) "/>
		</marker>
		<marker id="mrkr5-264" class="st43" v:arrowType="5" v:arrowSize="2" v:setback="7.15" refX="7.15" orient="auto"
				markerUnits="strokeWidth" overflow="visible">
			<use xlink:href="#lend5" transform="scale(4.36) "/>
		</marker>
		<marker id="mrkr5-266" class="st43" v:arrowType="5" v:arrowSize="2" v:setback="7.63" refX="-7.63" orient="auto"
				markerUnits="strokeWidth" overflow="visible">
			<use xlink:href="#lend5" transform="scale(-4.36,-4.36) "/>
		</marker>
		<marker id="mrkr5-297" class="st45" v:arrowType="5" v:arrowSize="2" v:setback="3.55" refX="3.55" orient="auto"
				markerUnits="strokeWidth" overflow="visible">
			<use xlink:href="#lend5" transform="scale(2.12) "/>
		</marker>
		<marker id="mrkr5-299" class="st45" v:arrowType="5" v:arrowSize="2" v:setback="3.71" refX="-3.71" orient="auto"
				markerUnits="strokeWidth" overflow="visible">
			<use xlink:href="#lend5" transform="scale(-2.12,-2.12) "/>
		</marker>
		<marker id="mrkr5-568" class="st47" v:arrowType="5" v:arrowSize="2" v:setback="3.55" refX="3.55" orient="auto"
				markerUnits="strokeWidth" overflow="visible">
			<use xlink:href="#lend5" transform="scale(2.12) "/>
		</marker>
		<marker id="mrkr5-570" class="st47" v:arrowType="5" v:arrowSize="2" v:setback="3.71" refX="-3.71" orient="auto"
				markerUnits="strokeWidth" overflow="visible">
			<use xlink:href="#lend5" transform="scale(-2.12,-2.12) "/>
		</marker>
		<marker id="mrkr5-605" class="st49" v:arrowType="5" v:arrowSize="2" v:setback="3.55" refX="3.55" orient="auto"
				markerUnits="strokeWidth" overflow="visible">
			<use xlink:href="#lend5" transform="scale(2.12) "/>
		</marker>
		<marker id="mrkr5-607" class="st49" v:arrowType="5" v:arrowSize="2" v:setback="3.71" refX="-3.71" orient="auto"
				markerUnits="strokeWidth" overflow="visible">
			<use xlink:href="#lend5" transform="scale(-2.12,-2.12) "/>
		</marker>
	</defs>
	<g v:mID="4" v:index="1" v:groupContext="backgroundPage">
		<v:userDefs>
			<v:ud v:nameU="msvVisioCreated" v:prompt="" v:val="VT0(0):26"/>
		</v:userDefs>
		<title>VBackground-1</title>
		<v:pageProperties width="9.46653" height="11.507" v:drawingScale="0.0393701" v:pageScale="0.0393701" v:drawingUnits="24"
				v:shadowOffsetX="9" v:shadowOffsetY="-9"/>
		<g id="shape1000-1" v:mID="1000" v:groupContext="shape">
			<title>Solid.1000</title>
			<v:userDefs>
				<v:ud v:nameU="Background" v:val="VT0(0):26"/>
				<v:ud v:nameU="visVersion" v:val="VT0(15):26"/>
				<v:ud v:nameU="msvShapeCategories" v:prompt="" v:val="VT4(DoNotContain)"/>
				<v:ud v:nameU="msvVisioCreated" v:prompt="" v:val="VT0(0):26"/>
			</v:userDefs>
			<rect x="0" y="0" width="681.59" height="828.503" class="st1"/>
		</g>
	</g>
	<g v:mID="0" v:index="2" v:groupContext="foregroundPage">
		<title>Page-1</title>
		<v:pageProperties v:drawingScale="0.0393701" v:pageScale="0.0393701" v:drawingUnits="24" v:shadowOffsetX="9"
				v:shadowOffsetY="-9"/>
		<g id="group1-3" transform="translate(168.123,-702.257)" v:mID="1" v:groupContext="group">
			<title>Sheet.1</title>
			<g id="group2-4" v:mID="2" v:groupContext="group">
				<title>ec090ac3-568c-4230-bc25-7e5ca8f</title>
				<g id="shape3-5" v:mID="3" v:groupContext="shape" transform="translate(0,-4.23511)">
					<title>Sheet.3</title>
					<path d="M47.85 817.88 A10.7539 10.7539 -180 0 0 38.52 807.55 A13.5587 13.5587 -180 0 0 24.58 794.59 A13.899
								 13.899 -180 0 0 11.28 803.65 A12.8329 12.8329 -180 0 0 0 815.99 A13.027 13.027 -180 0 0 13.47 828.5
								 C13.88 828.5 14.27 828.48 14.66 828.45 L36.48 828.45 A2.16142 2.16142 -180 0 0 37.07 828.38 A10.8789
								 10.8789 -180 0 0 47.85 817.88 Z" class="st2"/>
				</g>
				<g id="shape4-9" v:mID="4" v:groupContext="shape" transform="translate(20.7053,-6.87241)">
					<title>Sheet.4</title>
					<path d="M10.13 813.94 A6.73417 6.73417 -180 1 0 0.11 819.79 L0.11 828.5 L6.57 828.5 L6.57 819.85 A6.7129 6.7129
								 -180 0 0 10.13 813.94 ZM4.58 826.5 L2.1 826.5 L2.1 820.54 A6.91229 6.91229 -180 0 0 3.39 820.67
								 A6.68365 6.68365 -180 0 0 4.58 820.55 L4.58 826.5 ZM4.58 818.5 A4.70833 4.70833 0 0 1 3.39 818.67
								 A4.62326 4.62326 0 0 1 2.1 818.47 L4.58 818.5 ZM6.57 817.44 L0.11 817.34 A4.74555 4.74555 0 1 1
								 6.57 817.43 L6.57 817.44 Z" class="st3"/>
				</g>
				<g id="shape5-11" v:mID="5" v:groupContext="shape" transform="translate(7.84811,0)">
					<title>Sheet.5</title>
					<path d="M-0 827.42 A1.08472 1.08472 -180 0 0 1.08 828.5 L31.38 828.5 A1.08472 1.08472 -180 0 0 32.46 827.42
								 L32.46 820.71 A1.08472 1.08472 -180 0 0 31.38 819.63 L1.08 819.63 A1.08472 1.08472 -180 0 0 0 820.71
								 L0 827.42 Z" class="st4"/>
				</g>
				<g id="shape6-15" v:mID="6" v:groupContext="shape" transform="translate(35.3936,-4.89709)">
					<title>Sheet.6</title>
					<path d="M-0 827.96 a0.542362 0.542362 -180 0 0 0.542349 0.542349 L1.88 828.5 a0.542362 0.542362 -180 0 0 0.542349
								 -0.542349 L2.42 826.62 a0.542362 0.542362 -180 0 0 -0.542349 -0.542349 L0.54 826.08 a0.542362 0.542362
								 -180 0 0 -0.542349 0.542349 L0 827.96 Z" class="st3"/>
				</g>
				<g id="shape7-17" v:mID="7" v:groupContext="shape" transform="translate(35.3936,-1.55261)">
					<title>Sheet.7</title>
					<path d="M-0 827.96 a0.542362 0.542362 -180 0 0 0.542349 0.542349 L1.88 828.5 a0.542362 0.542362 -180 0 0 0.542349
								 -0.542349 L2.42 826.62 a0.542362 0.542362 -180 0 0 -0.542349 -0.542349 L0.54 826.08 a0.542362 0.542362
								 -180 0 0 -0.542349 0.542349 L0 827.96 Z" class="st5"/>
				</g>
				<g id="shape8-19" v:mID="8" v:groupContext="shape" transform="translate(21.2364,-8.87964)">
					<title>Sheet.8</title>
					<path d="M7.59 815.94 A4.74024 4.74024 -180 1 0 1.57 820.48 L1.57 828.5 L4.05 828.5 L4.05 820.53 A4.7296 4.7296
								 -180 0 0 7.59 815.94 Z" class="st6"/>
				</g>
			</g>
		</g>
		<g id="group9-21" transform="translate(171.225,-604.055)" v:mID="9" v:groupContext="group">
			<title>Icon-networking-79</title>
			<g id="shape10-22" v:mID="10" v:groupContext="shape" transform="translate(420.036,100.153) rotate(30)">
				<title>Sheet.10</title>
				<rect x="0" y="806.521" width="4.58163" height="21.9826" class="st7"/>
			</g>
			<g id="shape11-24" v:mID="11" v:groupContext="shape" transform="translate(-382.497,102.8) rotate(-30)">
				<title>Sheet.11</title>
				<rect x="0" y="806.521" width="4.58163" height="21.9826" class="st7"/>
			</g>
			<g id="shape12-26" v:mID="12" v:groupContext="shape" transform="translate(838.083,820.289) rotate(90)">
				<title>Sheet.12</title>
				<rect x="0" y="806.521" width="4.58163" height="21.9826" class="st8"/>
			</g>
			<g id="shape13-28" v:mID="13" v:groupContext="shape" transform="translate(15.4109,-27.1195)">
				<title>Sheet.13</title>
				<ellipse cx="5.57663" cy="822.927" rx="5.57663" ry="5.57663" class="st9"/>
			</g>
			<g id="shape14-32" v:mID="14" v:groupContext="shape" transform="translate(30.4979,0)">
				<title>Sheet.14</title>
				<ellipse cx="5.57663" cy="822.927" rx="5.57663" ry="5.57663" class="st10"/>
			</g>
			<g id="shape15-36" v:mID="15" v:groupContext="shape">
				<title>Sheet.15</title>
				<ellipse cx="5.57663" cy="822.927" rx="5.57663" ry="5.57663" class="st11"/>
			</g>
		</g>
		<g id="group16-40" transform="translate(195.802,-465.538)" v:mID="16" v:groupContext="group">
			<title>Icon-networking-61</title>
			<g id="shape17-41" v:mID="17" v:groupContext="shape" transform="translate(33.8974,-23.9881)">
				<title>Sheet.17</title>
				<ellipse cx="2.92717" cy="825.576" rx="2.92717" ry="2.92717" class="st12"/>
			</g>
			<g id="shape18-45" v:mID="18" v:groupContext="shape" transform="translate(24.5608,-23.9629)">
				<title>Sheet.18</title>
				<ellipse cx="2.92717" cy="825.576" rx="2.92717" ry="2.92717" class="st13"/>
			</g>
			<g id="shape19-49" v:mID="19" v:groupContext="shape" transform="translate(15.2241,-23.9629)">
				<title>Sheet.19</title>
				<ellipse cx="2.92717" cy="825.576" rx="2.92717" ry="2.92717" class="st13"/>
			</g>
			<g id="shape20-52" v:mID="20" v:groupContext="shape" transform="translate(597.576,1379.7) rotate(134.92)">
				<title>Sheet.20</title>
				<path d="M6.59 808.72 L8.96 808.72 a0.757028 0.757028 0 0 1 0.757028 0.757028 L9.72 826.99 A1.51406 1.51406 0 0 1
							 8.2 828.5 L5.83 828.5 L5.83 809.48 a0.757028 0.757028 0 0 1 0.757028 -0.757028 Z" class="st14"/>
			</g>
			<g id="shape21-54" v:mID="21" v:groupContext="shape" transform="translate(585.022,210.853) rotate(44.92)">
				<title>Sheet.21</title>
				<path d="M6.46 809 L8.83 809 a0.757028 0.757028 0 0 1 0.757028 0.757028 L9.59 828.5 L7.22 828.5 A1.51406 1.51406
							 0 0 1 5.7 826.99 L5.7 809.75 a0.757028 0.757028 0 0 1 0.757028 -0.757028 Z" class="st15"/>
			</g>
			<g id="shape22-56" v:mID="22" v:groupContext="shape" transform="translate(595.406,202.452) rotate(45.08)">
				<title>Sheet.22</title>
				<path d="M35.71 808.72 L38.08 808.72 A1.51406 1.51406 0 0 1 39.59 810.23 L39.59 827.75 a0.757028 0.757028 0 0 1 -0.757028
							 0.757028 L36.46 828.5 a0.757028 0.757028 0 0 1 -0.757028 -0.757028 L35.71 808.72 Z" class="st14"/>
			</g>
			<g id="shape23-58" v:mID="23" v:groupContext="shape" transform="translate(647.35,1349.05) rotate(135.08)">
				<title>Sheet.23</title>
				<path d="M37.37 809 L39.74 809 L39.74 827.75 a0.757028 0.757028 0 0 1 -0.757028 0.757028 L36.59 828.5 a0.757028 0.757028
							 0 0 1 -0.757028 -0.757028 L35.83 810.51 A1.51406 1.51406 0 0 1 37.35 809 L37.37 809 Z" class="st15"/>
			</g>
		</g>
		<g id="group41-60" transform="translate(341.791,-44.6489)" v:mID="41" v:groupContext="group">
			<title>Sheet.41</title>
			<g id="shape42-61" v:mID="42" v:groupContext="shape" transform="translate(1.93845E-13,-0.000774815)">
				<title>Sheet.42</title>
				<path d="M0 828.5 L19.35 828.5 L19.35 782.01 L0 782.01 L0 828.5 Z" class="st16"/>
			</g>
			<g id="shape43-63" v:mID="43" v:groupContext="shape" transform="translate(19.3466,-2.27374E-13)">
				<title>Sheet.43</title>
				<path d="M0 828.5 L19.35 828.5 L19.35 805.25 L0 805.25 L0 828.5 Z" class="st16"/>
			</g>
			<g id="shape44-65" v:mID="44" v:groupContext="shape" transform="translate(4.04738,-36.7408)">
				<title>Sheet.44</title>
				<path d="M0 828.5 L4.07 828.5 L4.07 823.61 L0 823.61 L0 828.5 Z" class="st17"/>
			</g>
			<g id="shape45-67" v:mID="45" v:groupContext="shape" transform="translate(10.1591,-36.7408)">
				<title>Sheet.45</title>
				<path d="M0 828.5 L4.07 828.5 L4.07 823.61 L0 823.61 L0 828.5 Z" class="st17"/>
			</g>
			<g id="shape46-69" v:mID="46" v:groupContext="shape" transform="translate(4.04738,-29.4167)">
				<title>Sheet.46</title>
				<path d="M0 828.5 L4.07 828.5 L4.07 823.61 L0 823.61 L0 828.5 Z" class="st17"/>
			</g>
			<g id="shape47-71" v:mID="47" v:groupContext="shape" transform="translate(10.1591,-29.4167)">
				<title>Sheet.47</title>
				<path d="M0 828.5 L4.07 828.5 L4.07 823.61 L0 823.61 L0 828.5 Z" class="st17"/>
			</g>
			<g id="shape48-73" v:mID="48" v:groupContext="shape" transform="translate(4.04738,-22.122)">
				<title>Sheet.48</title>
				<path d="M0 828.5 L4.07 828.5 L4.07 823.61 L0 823.61 L0 828.5 Z" class="st17"/>
			</g>
			<g id="shape49-75" v:mID="49" v:groupContext="shape" transform="translate(10.1591,-22.122)">
				<title>Sheet.49</title>
				<path d="M0 828.5 L4.07 828.5 L4.07 823.61 L0 823.61 L0 828.5 Z" class="st17"/>
			</g>
			<g id="shape50-77" v:mID="50" v:groupContext="shape" transform="translate(4.04738,-14.7489)">
				<title>Sheet.50</title>
				<path d="M0 828.5 L4.07 828.5 L4.07 823.61 L0 823.61 L0 828.5 Z" class="st17"/>
			</g>
			<g id="shape51-79" v:mID="51" v:groupContext="shape" transform="translate(10.1591,-14.7489)">
				<title>Sheet.51</title>
				<path d="M0 828.5 L4.07 828.5 L4.07 823.61 L0 823.61 L0 828.5 Z" class="st17"/>
			</g>
			<g id="shape52-81" v:mID="52" v:groupContext="shape" transform="translate(24.3854,-14.8394)">
				<title>Sheet.52</title>
				<path d="M0 828.5 L4.07 828.5 L4.07 823.61 L0 823.61 L0 828.5 Z" class="st17"/>
			</g>
			<g id="shape53-83" v:mID="53" v:groupContext="shape" transform="translate(30.4974,-14.8394)">
				<title>Sheet.53</title>
				<path d="M0 828.5 L4.07 828.5 L4.07 823.61 L0 823.61 L0 828.5 Z" class="st17"/>
			</g>
			<g id="shape54-85" v:mID="54" v:groupContext="shape" transform="translate(22.3891,-29.377)">
				<title>Sheet.54</title>
				<path d="M12.62 824.66 L12.6 824.66 C12.73 824.26 12.81 823.83 12.81 823.38 C12.81 821.5 11.53 819.96 9.96 819.96
							 C9.63 819.96 9.31 820.04 9.01 820.16 C8.23 819 7.04 818.26 5.69 818.26 C3.33 818.26 1.42 820.55 1.42
							 823.38 C1.42 823.82 1.47 824.25 1.56 824.66 C0.69 824.69 0 825.53 0 826.58 C0 827.64 0.72 828.5 1.6
							 828.5 L12.63 828.5 C13.51 828.5 14.23 827.64 14.23 826.58 C14.22 825.52 13.51 824.66 12.62 824.66 Z"
						class="st16"/>
			</g>
			<g id="shape55-87" v:mID="55" v:groupContext="shape" transform="translate(26.4228,-0.00842611)">
				<title>Sheet.55</title>
				<path d="M6.13 820.98 L0 820.98 L0 828.5 L6.13 828.5 L6.13 820.98 Z" class="st17"/>
			</g>
			<g id="shape56-89" v:mID="56" v:groupContext="shape" transform="translate(5.94878,-0.00842611)">
				<title>Sheet.56</title>
				<path d="M6.13 820.98 L0 820.98 L0 828.5 L6.13 828.5 L6.13 820.98 Z" class="st17"/>
			</g>
		</g>
		<g id="shape97-91" v:mID="97" v:groupContext="shape" transform="translate(143.291,-762.8)">
			<title>Sheet.97</title>
			<desc>Tenant 1</desc>
			<v:textBlock v:margins="rect(4,4,4,4)" v:tabSpace="42.5197"/>
			<v:textRect cx="40.6437" cy="810.787" width="81.29" height="35.4331"/>
			<rect x="0" y="793.07" width="81.2874" height="35.4331" class="st18"/>
			<text x="9.93" y="815.59" class="st19" v:langID="2052"><v:paragraph v:horizAlign="1"/><v:tabList/>Tenant 1</text>		</g>
		<g id="shape98-94" v:mID="98" v:groupContext="shape" transform="translate(207.445,-709.95)">
			<title>Sheet.98</title>
			<desc>Azure VMware Solution 1</desc>
			<v:textBlock v:margins="rect(4,4,4,4)" v:tabSpace="42.5197"/>
			<v:textRect cx="47.4849" cy="812.217" width="94.97" height="32.5728"/>
			<rect x="0" y="795.93" width="94.9698" height="32.5728" class="st18"/>
			<text x="29.75" y="799.62" class="st20" v:langID="2052"><v:paragraph v:horizAlign="1"/><v:tabList/>A<tspan class="st21"
						v:langID="1033">zure </tspan><tspan x="22.14" dy="1.2em" class="st21" v:langID="1033">VMware </tspan><tspan
						x="16.19" dy="1.2em" class="st21" v:langID="1033">Solution</tspan> 1</text>		</g>
		<g id="shape99-100" v:mID="99" v:groupContext="shape" transform="translate(193.916,-639.728)">
			<title>Sheet.99</title>
			<desc>Azure VMware Solution SDDC 1-MSEE</desc>
			<v:textBlock v:margins="rect(4,4,4,4)" v:tabSpace="42.5197"/>
			<v:textRect cx="59.2956" cy="816.403" width="118.6" height="24.2013"/>
			<rect x="0" y="804.302" width="118.591" height="24.2013" class="st18"/>
			<text x="14.29" y="803.8" class="st20" v:langID="2052"><v:paragraph v:horizAlign="1"/><v:tabList/>A<tspan class="st21"
						v:langID="1033">zure VMware </tspan><tspan x="5.41" dy="1.2em" class="st21" v:langID="1033">Solution SDDC</tspan> 1-<tspan
						x="42.21" dy="1.2em" class="st21">MSEE</tspan></text>		</g>
		<g id="group100-106" transform="translate(250.619,-466.61)" v:mID="100" v:groupContext="group">
			<title>Icon-networking-61.100</title>
			<g id="shape101-107" v:mID="101" v:groupContext="shape" transform="translate(33.8974,-23.9881)">
				<title>Sheet.101</title>
				<ellipse cx="2.92717" cy="825.576" rx="2.92717" ry="2.92717" class="st12"/>
			</g>
			<g id="shape102-110" v:mID="102" v:groupContext="shape" transform="translate(24.5608,-23.9629)">
				<title>Sheet.102</title>
				<ellipse cx="2.92717" cy="825.576" rx="2.92717" ry="2.92717" class="st13"/>
			</g>
			<g id="shape103-113" v:mID="103" v:groupContext="shape" transform="translate(15.2241,-23.9629)">
				<title>Sheet.103</title>
				<ellipse cx="2.92717" cy="825.576" rx="2.92717" ry="2.92717" class="st13"/>
			</g>
			<g id="shape104-116" v:mID="104" v:groupContext="shape" transform="translate(597.576,1379.7) rotate(134.92)">
				<title>Sheet.104</title>
				<path d="M6.59 808.72 L8.96 808.72 a0.757028 0.757028 0 0 1 0.757028 0.757028 L9.72 826.99 A1.51406 1.51406 0 0 1
							 8.2 828.5 L5.83 828.5 L5.83 809.48 a0.757028 0.757028 0 0 1 0.757028 -0.757028 Z" class="st14"/>
			</g>
			<g id="shape105-118" v:mID="105" v:groupContext="shape" transform="translate(585.022,210.853) rotate(44.92)">
				<title>Sheet.105</title>
				<path d="M6.46 809 L8.83 809 a0.757028 0.757028 0 0 1 0.757028 0.757028 L9.59 828.5 L7.22 828.5 A1.51406 1.51406
							 0 0 1 5.7 826.99 L5.7 809.75 a0.757028 0.757028 0 0 1 0.757028 -0.757028 Z" class="st15"/>
			</g>
			<g id="shape106-120" v:mID="106" v:groupContext="shape" transform="translate(595.406,202.452) rotate(45.08)">
				<title>Sheet.106</title>
				<path d="M35.71 808.72 L38.08 808.72 A1.51406 1.51406 0 0 1 39.59 810.23 L39.59 827.75 a0.757028 0.757028 0 0 1 -0.757028
							 0.757028 L36.46 828.5 a0.757028 0.757028 0 0 1 -0.757028 -0.757028 L35.71 808.72 Z" class="st14"/>
			</g>
			<g id="shape107-122" v:mID="107" v:groupContext="shape" transform="translate(647.35,1349.05) rotate(135.08)">
				<title>Sheet.107</title>
				<path d="M37.37 809 L39.74 809 L39.74 827.75 a0.757028 0.757028 0 0 1 -0.757028 0.757028 L36.59 828.5 a0.757028 0.757028
							 0 0 1 -0.757028 -0.757028 L35.83 810.51 A1.51406 1.51406 0 0 1 37.35 809 L37.37 809 Z" class="st15"/>
			</g>
		</g>
		<g id="group117-124" transform="translate(171.225,-183.822)" v:mID="117" v:groupContext="group">
			<title>Icon-networking-79.117</title>
			<g id="shape118-125" v:mID="118" v:groupContext="shape" transform="translate(420.036,100.153) rotate(30)">
				<title>Sheet.118</title>
				<rect x="0" y="806.521" width="4.58163" height="21.9826" class="st7"/>
			</g>
			<g id="shape119-127" v:mID="119" v:groupContext="shape" transform="translate(-382.497,102.8) rotate(-30)">
				<title>Sheet.119</title>
				<rect x="0" y="806.521" width="4.58163" height="21.9826" class="st7"/>
			</g>
			<g id="shape120-129" v:mID="120" v:groupContext="shape" transform="translate(838.083,820.289) rotate(90)">
				<title>Sheet.120</title>
				<rect x="0" y="806.521" width="4.58163" height="21.9826" class="st8"/>
			</g>
			<g id="shape121-131" v:mID="121" v:groupContext="shape" transform="translate(15.4109,-27.1195)">
				<title>Sheet.121</title>
				<ellipse cx="5.57663" cy="822.927" rx="5.57663" ry="5.57663" class="st9"/>
			</g>
			<g id="shape122-134" v:mID="122" v:groupContext="shape" transform="translate(30.4979,0)">
				<title>Sheet.122</title>
				<ellipse cx="5.57663" cy="822.927" rx="5.57663" ry="5.57663" class="st10"/>
			</g>
			<g id="shape123-137" v:mID="123" v:groupContext="shape">
				<title>Sheet.123</title>
				<ellipse cx="5.57663" cy="822.927" rx="5.57663" ry="5.57663" class="st11"/>
			</g>
		</g>
		<g id="shape124-140" v:mID="124" v:groupContext="shape" transform="translate(105.011,-507.015)">
			<title>Sheet.124</title>
			<desc>Virtual WAN 1</desc>
			<v:textBlock v:margins="rect(4,4,4,4)" v:tabSpace="42.5197"/>
			<v:textRect cx="32.2038" cy="812.217" width="64.41" height="32.5728"/>
			<rect x="0" y="795.93" width="64.4076" height="32.5728" class="st18"/>
			<text x="12.14" y="808.02" class="st20" v:langID="1033"><v:paragraph v:horizAlign="1"/><v:tabList/>Virtual <tspan
						x="10.22" dy="1.2em" class="st21" v:langID="2052">WAN 1</tspan></text>		</g>
		<g id="shape126-144" v:mID="126" v:groupContext="shape" transform="translate(103.153,-378.706)">
			<title>Sheet.126</title>
			<rect x="0" y="716.535" width="64.4076" height="111.969" class="st22"/>
		</g>
		<g id="group127-146" transform="translate(114.097,-465.538)" v:mID="127" v:groupContext="group">
			<title>Sheet.127</title>
			<g id="group128-147" v:mID="128" v:groupContext="group">
				<title>Sheet.128</title>
				<g id="shape129-148" v:mID="129" v:groupContext="shape" transform="translate(0,-11.5053)">
					<title>Sheet.129</title>
					<path d="M42.52 819 A9.63946 9.63946 -180 0 0 34.27 809.74 A12.1831 12.1831 -180 0 0 21.76 798.24 A12.5333 12.5333
								 -180 0 0 10 806.24 A11.7379 11.7379 -180 0 0 0 817.25 A11.5353 11.5353 -180 0 0 12.01 828.5 L33.02
								 828.5 A9.5044 9.5044 -180 0 0 42.52 819 Z" class="st23"/>
				</g>
				<g id="shape130-152" v:mID="130" v:groupContext="shape" transform="translate(10.2547,-2.27374E-13)">
					<title>Sheet.130</title>
					<ellipse cx="11.0051" cy="817.498" rx="11.0051" ry="11.0051" class="st24"/>
				</g>
				<g id="shape131-154" v:mID="131" v:groupContext="shape" transform="translate(11.5053,-1.25058)">
					<title>Sheet.131</title>
					<path d="M19.01 811.75 A11.5053 11.5053 -180 0 0 3 809.49 A11.4078 11.4078 -180 1 0 17.01 827.5 A11.3978 11.3978
								 -180 0 0 19.01 811.75 ZM0 818 A11.773 11.773 0 0 1 1 814 L3.75 814 A19.439 19.439 -180 0 0 3.25
								 818 L0 818 ZM5.25 814 L9 814 L9 818 L4.75 818 A19.439 19.439 0 0 1 5.25 814 ZM10.5 814 L14.26 814
								 A19.439 19.439 0 0 1 14.76 818 L10.5 818 L10.5 814 ZM9.25 819.25 L9.25 823.25 L5.25 823.25 L4.5
								 819.5 L9.25 819.25 ZM10.5 819.25 L15.01 819.25 A24.939 24.939 0 0 1 14.51 823.25 L10.5 823.25 L10.5
								 819.25 ZM16.51 819.25 L19.76 819.25 A11.773 11.773 0 0 1 18.76 823.25 L16.01 823.25 A19.439 19.439
								 -180 0 0 16.51 819.25 ZM16.51 818 A24.939 24.939 -180 0 0 16.01 814 L18.76 814 A10.4874 10.4874
								 0 0 1 19.76 818 L16.51 818 ZM17.76 812.5 L15.51 812.5 A11.2552 11.2552 -180 0 0 14.01 809.49 A11.0751
								 11.0751 0 0 1 17.76 812.5 ZM14.01 812.5 L10.5 812.5 L10.5 808.99 A5.43001 5.43001 0 0 1 14.01 812.5
								 ZM9.25 808.99 L9.25 812.75 L5.75 812.75 A5.29745 5.29745 0 0 1 9.25 808.99 ZM3.75 810.74 A13.9615
								 13.9615 0 0 1 5.75 809.49 A7.75359 7.75359 -180 0 0 4.25 812.75 L2 812.75 A6.75313 6.75313 0 0 1
								 3.75 810.74 ZM0 819.5 L3.25 819.5 A24.939 24.939 -180 0 0 3.75 823.5 L1 823.5 A13.3787 13.3787 0
								 0 1 -0 819.5 ZM2 824.75 L4.25 824.75 L5.75 827.75 A8.73154 8.73154 0 0 1 2 824.75 ZM5.75 824.75
								 L9 824.75 L9 828.5 A6.08532 6.08532 0 0 1 5.75 824.75 ZM10.5 828.5 L10.5 824.75 L13.76 824.75 A4.92228
								 4.92228 0 0 1 10.5 828.5 ZM16.01 826.5 A6.55804 6.55804 0 0 1 13.76 827.75 A8.45141 8.45141 -180
								 0 0 15.26 824.75 L17.51 824.75 A3.36156 3.36156 0 0 1 16.01 826.5 Z" class="st25"/>
				</g>
				<g id="shape132-156" v:mID="132" v:groupContext="shape" transform="translate(6.00278,-14.7568)">
					<title>Sheet.132</title>
					<path d="M5.5 828.5 A10.0672 10.0672 0 0 1 0 821.25 A9.11922 9.11922 0 0 1 3.75 814 L5.25 812.75 L6.5 814.25
								 L5 815.5 A6.27541 6.27541 -180 0 0 2 821 A7.58101 7.58101 -180 0 0 6.5 826.75 L5.5 828.5 Z"
							class="st26"/>
				</g>
				<g id="shape133-158" v:mID="133" v:groupContext="shape" transform="translate(9.25428,-27.0125)">
					<title>Sheet.133</title>
					<ellipse cx="2.75127" cy="825.752" rx="2.75127" ry="2.75127" class="st24"/>
				</g>
				<g id="shape134-160" v:mID="134" v:groupContext="shape" transform="translate(29.5137,-14.7568)">
					<title>Sheet.134</title>
					<path d="M1 828.5 L0 826.75 A8.15127 8.15127 -180 0 0 4.5 821 A6.87318 6.87318 -180 0 0 1.5 815.5 L0 814.5 L1.25
								 813 L2.75 814 A7.68106 7.68106 0 0 1 6.5 821.25 A10.0672 10.0672 0 0 1 1 828.5 Z" class="st26"/>
				</g>
				<g id="shape135-162" v:mID="135" v:groupContext="shape" transform="translate(27.5127,-27.0125)">
					<title>Sheet.135</title>
					<ellipse cx="2.75127" cy="825.752" rx="2.75127" ry="2.75127" class="st24"/>
				</g>
				<g id="shape136-164" v:mID="136" v:groupContext="shape" transform="translate(9.25428,-12.7559)">
					<title>Sheet.136</title>
					<ellipse cx="2.75127" cy="825.752" rx="2.75127" ry="2.75127" class="st27"/>
				</g>
				<g id="shape137-166" v:mID="137" v:groupContext="shape" transform="translate(27.5127,-12.7559)">
					<title>Sheet.137</title>
					<ellipse cx="2.75127" cy="825.752" rx="2.75127" ry="2.75127" class="st27"/>
				</g>
			</g>
		</g>
		<g id="group138-168" transform="translate(120.766,-401.383)" v:mID="138" v:groupContext="group">
			<title>Sheet.138</title>
			<g id="group139-169" v:mID="139" v:groupContext="group">
				<title>Page-1</title>
				<g id="group140-170" v:mID="140" v:groupContext="group">
					<title>Sheet.140</title>
					<g id="shape141-171" v:mID="141" v:groupContext="shape" transform="translate(3.4526,-19.9339)">
						<title>Sheet.141</title>
						<path d="M22.28 827.92 L22.28 826.48 C22.28 823.62 21.24 820.95 19.41 819.06 C17.72 817.1 13.94 815.86 11.14
									 815.86 C8.34 815.86 4.56 817.1 2.87 819.06 C1.11 820.95 0 823.62 0 826.48 L0 827.92 L5.15 828.5
									 L5.15 827.2 C5.15 825.51 5.73 823.36 6.71 822.25 C7.69 821.14 9.77 820.62 11.14 820.55 C12.51
									 820.55 14.59 821.14 15.57 822.25 C16.55 823.36 17.13 824.79 17.13 826.42 L17.13 828.5 L22.28
									 827.92 Z" class="st28"/>
					</g>
					<g id="shape142-173" v:mID="142" v:groupContext="shape">
						<title>Sheet.142</title>
						<path d="M3.45 807.98 C0.91 807.98 0 809.48 0 811.43 L0 825.05 C0 826.75 1.04 828.5 3 828.5 L26.19 828.5
									 C28.4 828.5 29.18 826.75 29.18 825.05 L29.18 811.43 C29.18 809.68 28.47 807.98 25.73 807.98
									 L3.45 807.98 Z" class="st29"/>
					</g>
					<g id="shape143-175" v:mID="143" v:groupContext="shape">
						<title>Sheet.143</title>
						<path d="M20.52 807.98 L3.45 807.98 C0.91 807.98 0 809.48 0 811.43 L0 825.05 C0 826.75 1.04 828.5 3 828.5
									 L7.36 828.5 L20.52 807.98 Z" class="st30"/>
					</g>
				</g>
				<g id="shape144-177" v:mID="144" v:groupContext="shape" transform="translate(3.86929,-3.59968)">
					<title>Sheet.144</title>
					<path d="M8.2 815.93 L10.76 813.68 a0.148781 0.131505 180 0 1 0.19129 0 L13.48 815.93 a0.127527 0.112718 180
								 0 1 -1.77636E-14 0.187864 L11.99 816.12 a0.127527 0.112718 -0 0 0 -0.127527 0.112718 L11.86 819.13
								 a0.127527 0.112718 180 0 1 -0.127527 0.112718 L10.05 819.24 a0.106272 0.0939321 180 0 1 -0.127527
								 -0.112718 L9.93 816.24 a0.148781 0.131505 -0 0 0 -0.148781 -0.112718 L8.29 816.12 a0.127527 0.112718
								 180 0 1 -0.0850178 -0.187864 L8.2 815.93 ZM13.45 826.23 L10.92 828.47 a0.127527 0.112718 180 0 1
								 -0.19129 0 L8.2 826.23 a0.127527 0.112718 180 0 1 -2.84217E-14 -0.187864 L9.69 826.04 a0.148781
								 0.131505 -0 0 0 0.148781 -0.112718 L9.84 823.02 a0.127527 0.112718 180 0 1 0.127527 -0.112718 L11.54
								 822.9 a0.127527 0.112718 180 0 1 0.127527 0.112718 L11.67 825.93 a0.127527 0.112718 -0 0 0 0.127527
								 0.112718 L13.28 826.04 a0.136095 0.120292 180 0 1 0.170036 0.187864 L13.45 826.23 ZM3.47 823.32
								 L3.47 822 a0.127527 0.112718 -0 0 0 -0.127527 -0.112718 L0.13 821.89 a0.127527 0.112718 180 0 1
								 -0.127527 -0.112718 L0 820.44 a0.127527 0.112718 180 0 1 0.127527 -0.169078 L3.34 820.27 a0.127527
								 0.112718 -0 0 0 0.127527 -0.112718 L3.47 818.85 a0.148781 0.131505 180 0 1 0.233799 -0.0939321 L6.23
								 821.01 a0.127527 0.112718 180 0 1 -1.06581E-14 0.150291 L3.7 823.41 a0.148781 0.131505 180 0 1 -0.233799
								 -0.0939321 L3.47 823.32 ZM18.19 818.85 L18.19 820.16 a0.127527 0.112718 -0 0 0 0.127527 0.112718
								 L21.6 820.27 C21.6 820.27 21.74 820.27 21.74 820.39 L21.74 821.78 a0.148781 0.131505 180 0 1 -0.148781
								 0.112718 L18.32 821.89 a0.127527 0.112718 -0 0 0 -0.127527 0.112718 L18.19 823.32 a0.127527 0.112718
								 180 0 1 -0.212545 0.0939321 L15.45 821.16 L15.45 821.01 L17.98 818.75 C17.98 818.75 18.19 818.73
								 18.19 818.85 Z" class="st31"/>
				</g>
			</g>
		</g>
		<g id="shape145-179" v:mID="145" v:groupContext="shape" transform="translate(95.1166,-368.504)">
			<title>Sheet.145</title>
			<desc>ExpressRoute gateway</desc>
			<v:textBlock v:margins="rect(4,4,4,4)" v:tabSpace="42.5197"/>
			<v:textRect cx="39.5042" cy="819.303" width="79.01" height="18.3996"/>
			<rect x="0" y="810.104" width="79.0084" height="18.3996" class="st18"/>
			<text x="7.14" y="816" class="st32" v:langID="1033"><v:paragraph v:horizAlign="1"/><v:tabList/>ExpressRoute <tspan
						x="19.29" dy="1.2em" class="st21">gateway</tspan></text>		</g>
		<g id="shape146-183" v:mID="146" v:groupContext="shape" transform="translate(206.223,-346.108)">
			<title>Sheet.146</title>
			<rect x="0" y="730.708" width="92.126" height="97.7953" class="st22"/>
		</g>
		<g id="group155-185" transform="translate(209.975,-319.239)" v:mID="155" v:groupContext="group">
			<title>Icon-networking-61.109</title>
			<g id="shape156-186" v:mID="156" v:groupContext="shape" transform="translate(33.8974,-23.9881)">
				<title>Sheet.156</title>
				<ellipse cx="2.92717" cy="825.576" rx="2.92717" ry="2.92717" class="st12"/>
			</g>
			<g id="shape157-189" v:mID="157" v:groupContext="shape" transform="translate(24.5608,-23.9629)">
				<title>Sheet.157</title>
				<ellipse cx="2.92717" cy="825.576" rx="2.92717" ry="2.92717" class="st13"/>
			</g>
			<g id="shape158-192" v:mID="158" v:groupContext="shape" transform="translate(15.2241,-23.9629)">
				<title>Sheet.158</title>
				<ellipse cx="2.92717" cy="825.576" rx="2.92717" ry="2.92717" class="st13"/>
			</g>
			<g id="shape159-195" v:mID="159" v:groupContext="shape" transform="translate(597.576,1379.7) rotate(134.92)">
				<title>Sheet.159</title>
				<path d="M6.59 808.72 L8.96 808.72 a0.757028 0.757028 0 0 1 0.757028 0.757028 L9.72 826.99 A1.51406 1.51406 0 0 1
							 8.2 828.5 L5.83 828.5 L5.83 809.48 a0.757028 0.757028 0 0 1 0.757028 -0.757028 Z" class="st14"/>
			</g>
			<g id="shape160-197" v:mID="160" v:groupContext="shape" transform="translate(585.022,210.853) rotate(44.92)">
				<title>Sheet.160</title>
				<path d="M6.46 809 L8.83 809 a0.757028 0.757028 0 0 1 0.757028 0.757028 L9.59 828.5 L7.22 828.5 A1.51406 1.51406
							 0 0 1 5.7 826.99 L5.7 809.75 a0.757028 0.757028 0 0 1 0.757028 -0.757028 Z" class="st15"/>
			</g>
			<g id="shape161-199" v:mID="161" v:groupContext="shape" transform="translate(595.406,202.452) rotate(45.08)">
				<title>Sheet.161</title>
				<path d="M35.71 808.72 L38.08 808.72 A1.51406 1.51406 0 0 1 39.59 810.23 L39.59 827.75 a0.757028 0.757028 0 0 1 -0.757028
							 0.757028 L36.46 828.5 a0.757028 0.757028 0 0 1 -0.757028 -0.757028 L35.71 808.72 Z" class="st14"/>
			</g>
			<g id="shape162-201" v:mID="162" v:groupContext="shape" transform="translate(647.35,1349.05) rotate(135.08)">
				<title>Sheet.162</title>
				<path d="M37.37 809 L39.74 809 L39.74 827.75 a0.757028 0.757028 0 0 1 -0.757028 0.757028 L36.59 828.5 a0.757028 0.757028
							 0 0 1 -0.757028 -0.757028 L35.83 810.51 A1.51406 1.51406 0 0 1 37.35 809 L37.37 809 Z" class="st15"/>
			</g>
		</g>
		<g id="group163-203" transform="translate(263.65,-340.464)" v:mID="163" v:groupContext="group">
			<title>Sheet.163</title>
			<g id="group164-204" v:mID="164" v:groupContext="group">
				<title>Page-1</title>
				<g id="shape165-205" v:mID="165" v:groupContext="shape" transform="translate(0,-13.7082)">
					<title>Sheet.165</title>
					<path d="M10.42 812.54 L13.66 809.68 a0.188936 0.166997 180 0 1 0.242917 0 L17.11 812.54 a0.161945 0.14314 180
								 0 1 5.68434E-14 0.238567 L15.22 812.78 a0.161945 0.14314 -0 0 0 -0.161945 0.14314 L15.06 816.6 a0.161945
								 0.14314 180 0 1 -0.161945 0.14314 L12.76 816.74 a0.134954 0.119283 180 0 1 -0.161945 -0.14314 L12.6
								 812.93 a0.188936 0.166997 -0 0 0 -0.188936 -0.14314 L10.53 812.78 a0.161945 0.14314 180 0 1 -0.107963
								 -0.238567 L10.42 812.54 ZM17.08 825.62 L13.87 828.45 a0.161945 0.14314 180 0 1 -0.242917 -1.13687E-13
								 L10.42 825.62 a0.161945 0.14314 180 0 1 -1.77636E-15 -0.238567 L12.31 825.38 a0.188936 0.166997
								 -0 0 0 0.188936 -0.14314 L12.5 821.53 a0.161945 0.14314 180 0 1 0.161945 -0.14314 L14.65 821.39
								 a0.161945 0.14314 180 0 1 0.161945 0.14314 L14.82 825.23 a0.161945 0.14314 -0 0 0 0.161945 0.14314
								 L16.87 825.38 a0.172825 0.152757 180 0 1 0.215927 0.238567 L17.08 825.62 ZM4.4 821.92 L4.4 820.25
								 a0.161945 0.14314 -0 0 0 -0.161945 -0.14314 L0.16 820.11 a0.161945 0.14314 180 0 1 -0.161945 -0.14314
								 L0 818.27 a0.161945 0.14314 180 0 1 0.161945 -0.21471 L4.24 818.05 a0.161945 0.14314 -0 0 0 0.161945
								 -0.14314 L4.4 816.24 a0.188936 0.166997 180 0 1 0.296899 -0.119283 L7.91 818.98 a0.161945 0.14314
								 180 0 1 9.05942E-14 0.190853 L4.7 822.04 a0.188936 0.166997 180 0 1 -0.296899 -0.119283 L4.4 821.92
								 ZM23.1 816.24 L23.1 817.91 a0.161945 0.14314 -0 0 0 0.161945 0.14314 L27.42 818.05 C27.42 818.05
								 27.61 818.05 27.61 818.2 L27.61 819.96 a0.188936 0.166997 180 0 1 -0.188936 0.14314 L23.27 820.11
								 a0.161945 0.14314 -0 0 0 -0.161945 0.14314 L23.1 821.92 a0.161945 0.14314 180 0 1 -0.269908 0.119283
								 L19.62 819.18 L19.62 818.98 L22.84 816.12 C22.84 816.12 23.1 816.1 23.1 816.24 Z" class="st31"/>
				</g>
				<g id="group166-207" transform="translate(7.52197,0)" v:mID="166" v:groupContext="group">
					<title>Icon-identity-230</title>
					<g id="shape167-208" v:mID="167" v:groupContext="shape">
						<title>Sheet.167</title>
						<path d="M18.3 828.5 A1.7819 1.7819 -180 0 0 20.08 826.72 a0.577583 0.577583 -180 0 0 3.55271E-15 -0.208344
									 C19.37 820.89 16.18 816.33 10.04 816.33 C3.9 816.33 0.63 820.2 0 826.52 A1.79419 1.79419 -180
									 0 0 1.61 828.5 L18.3 828.5 Z" class="st33"/>
					</g>
					<g id="shape168-212" v:mID="168" v:groupContext="shape" transform="translate(6.99244,-3.85872)">
						<title>Sheet.168</title>
						<path d="M3.05 821.51 A5.64062 5.64062 0 0 1 -0 820.61 L3.05 828.5 L6.05 820.66 A5.56692 5.56692 0 0 1 3.05
									 821.51 Z" class="st34"/>
					</g>
					<g id="shape169-214" v:mID="169" v:groupContext="shape" transform="translate(4.42404,-10.8634)">
						<title>Sheet.169</title>
						<ellipse cx="5.62835" cy="822.875" rx="5.62835" ry="5.62835" class="st35"/>
					</g>
				</g>
				<g id="shape170-218" v:mID="170" v:groupContext="shape" transform="translate(1.45762,-12.2145)">
					<title>Sheet.170</title>
					<path d="M9.79 818.46 L9.79 828.5 L5.73 828.5 L0 828.5" class="st36"/>
				</g>
			</g>
		</g>
		<g id="group171-224" transform="translate(237.322,-401.383)" v:mID="171" v:groupContext="group">
			<title>Sheet.171</title>
			<g id="group172-225" v:mID="172" v:groupContext="group">
				<title>Page-1</title>
				<g id="group173-226" v:mID="173" v:groupContext="group">
					<title>Icon-compute-21</title>
					<g id="shape174-227" v:mID="174" v:groupContext="shape" transform="translate(0,-9.06863)">
						<title>Sheet.174</title>
						<path d="M0 827.33 A1.17523 1.17523 -180 0 0 1.18 828.5 L34.08 828.5 A1.17523 1.17523 -180 0 0 35.26 827.33
									 L35.26 806.18 A1.17523 1.17523 -180 0 0 34.08 805 L1.18 805 A1.17523 1.17523 -180 0 0 0 806.18
									 L0 827.33 Z" class="st38"/>
					</g>
					<g id="shape175-229" v:mID="175" v:groupContext="shape" transform="translate(18.886,-12.8655)">
						<title>Sheet.175</title>
						<path d="M5.87 818.22 L5.87 825.06 L0 828.5 L0 821.65 L5.87 818.22 Z" class="st39"/>
					</g>
					<g id="shape176-231" v:mID="176" v:groupContext="shape" transform="translate(12.3426,-20.801)">
						<title>Sheet.176</title>
						<path d="M11.75 825.06 L5.87 828.5 L0 825.06 L5.87 821.63 L11.75 825.06 Z" class="st39"/>
					</g>
					<g id="shape177-233" v:mID="177" v:groupContext="shape" transform="translate(11.752,-12.8655)">
						<title>Sheet.177</title>
						<path d="M5.87 821.67 L5.87 828.5 L0 825.06 L0 818.22 L5.87 821.67 Z" class="st39"/>
					</g>
					<g id="shape178-235" v:mID="178" v:groupContext="shape" transform="translate(8.81401,0)">
						<title>Sheet.178</title>
						<path d="M15.88 826.54 C12.4 826 12.26 823.49 12.26 819.43 L5.35 819.43 C5.35 823.49 5.23 826 1.74 826.54
									 A1.95866 1.95866 -180 0 0 -0 828.5 L17.63 828.5 A1.95866 1.95866 -180 0 0 15.88 826.54 Z"
								class="st40"/>
					</g>
				</g>
			</g>
		</g>
		<g id="shape179-237" v:mID="179" v:groupContext="shape" transform="translate(229.235,-375.109)">
			<title>Sheet.179</title>
			<desc>NVA</desc>
			<v:textBlock v:margins="rect(4,4,4,4)" v:tabSpace="42.5197"/>
			<v:textRect cx="23.9272" cy="816.403" width="47.86" height="24.2013"/>
			<rect x="0" y="804.302" width="47.8543" height="24.2013" class="st18"/>
			<text x="9.83" y="820.6" class="st20" v:langID="2052"><v:paragraph v:horizAlign="1"/><v:tabList/>NVA</text>		</g>
		<g id="shape180-240" v:mID="180" v:groupContext="shape" transform="translate(206.8,-295.705)">
			<title>Sheet.180</title>
			<desc>Virtual network 1</desc>
			<v:textBlock v:margins="rect(4,4,4,4)" v:tabSpace="42.5197"/>
			<v:textRect cx="28.8108" cy="816.403" width="57.63" height="24.2013"/>
			<rect x="0" y="804.302" width="57.6217" height="24.2013" class="st18"/>
			<text x="11.61" y="805.6" class="st41" v:langID="1033"><v:paragraph v:horizAlign="1"/><v:tabList/>Virtual <tspan
						x="7.32" dy="1.2em" class="st21">network </tspan><tspan x="25.58" dy="1.2em" class="st21">1</tspan></text>		</g>
		<g id="shape181-245" v:mID="181" v:groupContext="shape" transform="translate(257.582,-319.239)">
			<title>Sheet.181</title>
			<desc>UDR</desc>
			<v:textBlock v:margins="rect(4,4,4,4)" v:tabSpace="42.5197"/>
			<v:textRect cx="23.9272" cy="819.303" width="47.86" height="18.3996"/>
			<rect x="0" y="810.104" width="47.8543" height="18.3996" class="st18"/>
			<text x="12.01" y="822.9" class="st41" v:langID="2052"><v:paragraph v:horizAlign="1"/><v:tabList/>UDR</text>		</g>
		<g id="shape182-248" v:mID="182" v:groupContext="shape" transform="translate(194.56,-513.457)">
			<title>Sheet.182</title>
			<desc>Virtual network 11</desc>
			<v:textBlock v:margins="rect(4,4,4,4)" v:tabSpace="42.5197"/>
			<v:textRect cx="28.8108" cy="816.403" width="57.63" height="24.2013"/>
			<rect x="0" y="804.302" width="57.6217" height="24.2013" class="st18"/>
			<text x="11.61" y="805.6" class="st41" v:langID="1033"><v:paragraph v:horizAlign="1"/><v:tabList/>Virtual <tspan
						x="7.32" dy="1.2em" class="st21">network </tspan><tspan x="22.34" dy="1.2em" class="st21">11</tspan></text>		</g>
		<g id="shape183-253" v:mID="183" v:groupContext="shape" transform="translate(249.32,-514.102)">
			<title>Sheet.183</title>
			<desc>Virtual network 12</desc>
			<v:textBlock v:margins="rect(4,4,4,4)" v:tabSpace="42.5197"/>
			<v:textRect cx="28.8108" cy="816.403" width="57.63" height="24.2013"/>
			<rect x="0" y="804.302" width="57.6217" height="24.2013" class="st18"/>
			<text x="11.61" y="805.6" class="st41" v:langID="1033"><v:paragraph v:horizAlign="1"/><v:tabList/>Virtual <tspan
						x="7.32" dy="1.2em" class="st21">network </tspan><tspan x="22.34" dy="1.2em" class="st21">12</tspan></text>		</g>
		<g id="shape184-258" v:mID="184" v:groupContext="shape" transform="translate(1018.35,125.161) rotate(90)">
			<title>Sheet.184</title>
			<path d="M5.36 828.5 L5.72 828.5 L54.39 828.5" class="st42"/>
		</g>
		<g id="shape186-267" v:mID="186" v:groupContext="shape" transform="translate(135.357,-433.956)">
			<title>Sheet.186</title>
			<path d="M56.69 660.13 L56.69 660.49 L56.69 668.86 A5.66929 5.66929 0 0 1 51.02 674.53 L47.09 674.53 A5.66929 5.66929
						 -180 0 0 41.43 680.24 L42.47 805.75 A5.66929 5.66929 0 0 1 36.8 811.47 L14.17 811.47 L5.67 811.47 A5.66929
						 5.66929 -180 0 0 0 817.14 L0 822.78" class="st42"/>
		</g>
		<g id="shape187-274" v:mID="187" v:groupContext="shape" transform="translate(227.584,-443.903)">
			<title>Sheet.187</title>
			<path d="M0 797.29 L0 797.65 L0 802.15 A5.66929 5.66929 -180 0 0 5.67 807.82 L8.3 807.82 A5.66929 5.66929 0 0 1 13.97
						 813.49 L13.97 822.78" class="st42"/>
		</g>
		<g id="shape192-281" v:mID="192" v:groupContext="shape" transform="translate(267.923,-443.903)">
			<title>Sheet.192</title>
			<path d="M9.17 795.95 L9.17 796.31 L9.17 804 A4.58334 4.58334 0 0 1 4.58 808.58 L4.58 808.58 A4.58334 4.58334 -180 0
						 0 0 813.17 L0 822.78" class="st42"/>
		</g>
		<g id="shape193-288" v:mID="193" v:groupContext="shape" transform="translate(149.531,-160.438)">
			<title>Sheet.193</title>
			<desc>MSEE</desc>
			<v:textBlock v:margins="rect(4,4,4,4)" v:tabSpace="42.5197"/>
			<v:textRect cx="40.6437" cy="816.403" width="81.29" height="24.2013"/>
			<rect x="0" y="804.302" width="81.2874" height="24.2013" class="st18"/>
			<text x="23.56" y="820.6" class="st20" v:langID="2052"><v:paragraph v:horizAlign="1"/><v:tabList/>MSEE</text>		</g>
		<g id="shape194-291" v:mID="194" v:groupContext="shape" transform="translate(92.8376,-202.958)">
			<title>Sheet.194</title>
			<path d="M73.3 410.39 L72.94 410.39 L5.67 410.39 A5.66929 5.66929 -180 0 0 0 416.06 L0 822.83 A5.66929 5.66929 -180 0
						 0 5.67 828.5 L72.94 828.5" class="st44"/>
		</g>
		<g id="shape195-300" v:mID="195" v:groupContext="shape" transform="translate(-728.285,590.78) rotate(-90)">
			<title>Sheet.195</title>
			<desc>Global Reach</desc>
			<v:textBlock v:margins="rect(4,4,4,4)" v:tabSpace="42.5197"/>
			<v:textRect cx="70.4753" cy="812.217" width="140.96" height="32.5728"/>
			<rect x="0" y="795.93" width="140.951" height="32.5728" class="st18"/>
			<text x="29.98" y="816.42" class="st20" v:langID="1033"><v:paragraph v:horizAlign="1"/><v:tabList/>Global Reach</text>		</g>
		<g id="shape196-303" v:mID="196" v:groupContext="shape" transform="translate(430.094,-343.704)">
			<title>Sheet.196</title>
			<rect x="0" y="730.708" width="92.126" height="97.7953" class="st22"/>
		</g>
		<g id="group197-305" transform="translate(458.529,-394.753)" v:mID="197" v:groupContext="group">
			<title>Sheet.197</title>
			<g id="group198-306" v:mID="198" v:groupContext="group">
				<title>Page-1</title>
				<g id="group199-307" v:mID="199" v:groupContext="group">
					<title>Icon-compute-21</title>
					<g id="shape200-308" v:mID="200" v:groupContext="shape" transform="translate(0,-9.06863)">
						<title>Sheet.200</title>
						<path d="M0 827.33 A1.17523 1.17523 -180 0 0 1.18 828.5 L34.08 828.5 A1.17523 1.17523 -180 0 0 35.26 827.33
									 L35.26 806.18 A1.17523 1.17523 -180 0 0 34.08 805 L1.18 805 A1.17523 1.17523 -180 0 0 0 806.18
									 L0 827.33 Z" class="st38"/>
					</g>
					<g id="shape201-310" v:mID="201" v:groupContext="shape" transform="translate(18.886,-12.8655)">
						<title>Sheet.201</title>
						<path d="M5.87 818.22 L5.87 825.06 L0 828.5 L0 821.65 L5.87 818.22 Z" class="st39"/>
					</g>
					<g id="shape202-312" v:mID="202" v:groupContext="shape" transform="translate(12.3426,-20.801)">
						<title>Sheet.202</title>
						<path d="M11.75 825.06 L5.87 828.5 L0 825.06 L5.87 821.63 L11.75 825.06 Z" class="st39"/>
					</g>
					<g id="shape203-314" v:mID="203" v:groupContext="shape" transform="translate(11.752,-12.8655)">
						<title>Sheet.203</title>
						<path d="M5.87 821.67 L5.87 828.5 L0 825.06 L0 818.22 L5.87 821.67 Z" class="st39"/>
					</g>
					<g id="shape204-316" v:mID="204" v:groupContext="shape" transform="translate(8.81401,0)">
						<title>Sheet.204</title>
						<path d="M15.88 826.54 C12.4 826 12.26 823.49 12.26 819.43 L5.35 819.43 C5.35 823.49 5.23 826 1.74 826.54
									 A1.95866 1.95866 -180 0 0 -0 828.5 L17.63 828.5 A1.95866 1.95866 -180 0 0 15.88 826.54 Z"
								class="st40"/>
					</g>
				</g>
			</g>
		</g>
		<g id="group205-318" transform="translate(469.279,-316.835)" v:mID="205" v:groupContext="group">
			<title>Icon-networking-61.205</title>
			<g id="shape206-319" v:mID="206" v:groupContext="shape" transform="translate(33.8974,-23.9881)">
				<title>Sheet.206</title>
				<ellipse cx="2.92717" cy="825.576" rx="2.92717" ry="2.92717" class="st12"/>
			</g>
			<g id="shape207-322" v:mID="207" v:groupContext="shape" transform="translate(24.5608,-23.9629)">
				<title>Sheet.207</title>
				<ellipse cx="2.92717" cy="825.576" rx="2.92717" ry="2.92717" class="st13"/>
			</g>
			<g id="shape208-325" v:mID="208" v:groupContext="shape" transform="translate(15.2241,-23.9629)">
				<title>Sheet.208</title>
				<ellipse cx="2.92717" cy="825.576" rx="2.92717" ry="2.92717" class="st13"/>
			</g>
			<g id="shape209-328" v:mID="209" v:groupContext="shape" transform="translate(597.576,1379.7) rotate(134.92)">
				<title>Sheet.209</title>
				<path d="M6.59 808.72 L8.96 808.72 a0.757028 0.757028 0 0 1 0.757028 0.757028 L9.72 826.99 A1.51406 1.51406 0 0 1
							 8.2 828.5 L5.83 828.5 L5.83 809.48 a0.757028 0.757028 0 0 1 0.757028 -0.757028 Z" class="st14"/>
			</g>
			<g id="shape210-330" v:mID="210" v:groupContext="shape" transform="translate(585.022,210.853) rotate(44.92)">
				<title>Sheet.210</title>
				<path d="M6.46 809 L8.83 809 a0.757028 0.757028 0 0 1 0.757028 0.757028 L9.59 828.5 L7.22 828.5 A1.51406 1.51406
							 0 0 1 5.7 826.99 L5.7 809.75 a0.757028 0.757028 0 0 1 0.757028 -0.757028 Z" class="st15"/>
			</g>
			<g id="shape211-332" v:mID="211" v:groupContext="shape" transform="translate(595.406,202.452) rotate(45.08)">
				<title>Sheet.211</title>
				<path d="M35.71 808.72 L38.08 808.72 A1.51406 1.51406 0 0 1 39.59 810.23 L39.59 827.75 a0.757028 0.757028 0 0 1 -0.757028
							 0.757028 L36.46 828.5 a0.757028 0.757028 0 0 1 -0.757028 -0.757028 L35.71 808.72 Z" class="st14"/>
			</g>
			<g id="shape212-334" v:mID="212" v:groupContext="shape" transform="translate(647.35,1349.05) rotate(135.08)">
				<title>Sheet.212</title>
				<path d="M37.37 809 L39.74 809 L39.74 827.75 a0.757028 0.757028 0 0 1 -0.757028 0.757028 L36.59 828.5 a0.757028 0.757028
							 0 0 1 -0.757028 -0.757028 L35.83 810.51 A1.51406 1.51406 0 0 1 37.35 809 L37.37 809 Z" class="st15"/>
			</g>
		</g>
		<g id="group213-336" transform="translate(430.094,-338.06)" v:mID="213" v:groupContext="group">
			<title>Sheet.213</title>
			<g id="group214-337" v:mID="214" v:groupContext="group">
				<title>Page-1</title>
				<g id="shape215-338" v:mID="215" v:groupContext="shape" transform="translate(0,-13.7082)">
					<title>Sheet.215</title>
					<path d="M10.42 812.54 L13.66 809.68 a0.188936 0.166997 180 0 1 0.242917 0 L17.11 812.54 a0.161945 0.14314 180
								 0 1 5.68434E-14 0.238567 L15.22 812.78 a0.161945 0.14314 -0 0 0 -0.161945 0.14314 L15.06 816.6 a0.161945
								 0.14314 180 0 1 -0.161945 0.14314 L12.76 816.74 a0.134954 0.119283 180 0 1 -0.161945 -0.14314 L12.6
								 812.93 a0.188936 0.166997 -0 0 0 -0.188936 -0.14314 L10.53 812.78 a0.161945 0.14314 180 0 1 -0.107963
								 -0.238567 L10.42 812.54 ZM17.08 825.62 L13.87 828.45 a0.161945 0.14314 180 0 1 -0.242917 -1.13687E-13
								 L10.42 825.62 a0.161945 0.14314 180 0 1 -1.77636E-15 -0.238567 L12.31 825.38 a0.188936 0.166997
								 -0 0 0 0.188936 -0.14314 L12.5 821.53 a0.161945 0.14314 180 0 1 0.161945 -0.14314 L14.65 821.39
								 a0.161945 0.14314 180 0 1 0.161945 0.14314 L14.82 825.23 a0.161945 0.14314 -0 0 0 0.161945 0.14314
								 L16.87 825.38 a0.172825 0.152757 180 0 1 0.215927 0.238567 L17.08 825.62 ZM4.4 821.92 L4.4 820.25
								 a0.161945 0.14314 -0 0 0 -0.161945 -0.14314 L0.16 820.11 a0.161945 0.14314 180 0 1 -0.161945 -0.14314
								 L0 818.27 a0.161945 0.14314 180 0 1 0.161945 -0.21471 L4.24 818.05 a0.161945 0.14314 -0 0 0 0.161945
								 -0.14314 L4.4 816.24 a0.188936 0.166997 180 0 1 0.296899 -0.119283 L7.91 818.98 a0.161945 0.14314
								 180 0 1 9.05942E-14 0.190853 L4.7 822.04 a0.188936 0.166997 180 0 1 -0.296899 -0.119283 L4.4 821.92
								 ZM23.1 816.24 L23.1 817.91 a0.161945 0.14314 -0 0 0 0.161945 0.14314 L27.42 818.05 C27.42 818.05
								 27.61 818.05 27.61 818.2 L27.61 819.96 a0.188936 0.166997 180 0 1 -0.188936 0.14314 L23.27 820.11
								 a0.161945 0.14314 -0 0 0 -0.161945 0.14314 L23.1 821.92 a0.161945 0.14314 180 0 1 -0.269908 0.119283
								 L19.62 819.18 L19.62 818.98 L22.84 816.12 C22.84 816.12 23.1 816.1 23.1 816.24 Z" class="st31"/>
				</g>
				<g id="group216-340" transform="translate(7.52197,0)" v:mID="216" v:groupContext="group">
					<title>Icon-identity-230</title>
					<g id="shape217-341" v:mID="217" v:groupContext="shape">
						<title>Sheet.217</title>
						<path d="M18.3 828.5 A1.7819 1.7819 -180 0 0 20.08 826.72 a0.577583 0.577583 -180 0 0 3.55271E-15 -0.208344
									 C19.37 820.89 16.18 816.33 10.04 816.33 C3.9 816.33 0.63 820.2 0 826.52 A1.79419 1.79419 -180
									 0 0 1.61 828.5 L18.3 828.5 Z" class="st33"/>
					</g>
					<g id="shape218-344" v:mID="218" v:groupContext="shape" transform="translate(6.99244,-3.85872)">
						<title>Sheet.218</title>
						<path d="M3.05 821.51 A5.64062 5.64062 0 0 1 -0 820.61 L3.05 828.5 L6.05 820.66 A5.56692 5.56692 0 0 1 3.05
									 821.51 Z" class="st34"/>
					</g>
					<g id="shape219-346" v:mID="219" v:groupContext="shape" transform="translate(4.42404,-10.8634)">
						<title>Sheet.219</title>
						<ellipse cx="5.62835" cy="822.875" rx="5.62835" ry="5.62835" class="st35"/>
					</g>
				</g>
				<g id="shape220-349" v:mID="220" v:groupContext="shape" transform="translate(1.45762,-12.2145)">
					<title>Sheet.220</title>
					<path d="M9.79 818.46 L9.79 828.5 L5.73 828.5 L0 828.5" class="st36"/>
				</g>
			</g>
		</g>
		<g id="shape221-354" v:mID="221" v:groupContext="shape" transform="translate(575.399,-379.06)">
			<title>Sheet.221</title>
			<rect x="0" y="716.535" width="64.0636" height="111.969" class="st22"/>
		</g>
		<g id="shape222-356" v:mID="222" v:groupContext="shape" transform="translate(321.475,-387.831)">
			<title>Sheet.222</title>
			<desc>Virtual network peering</desc>
			<v:textBlock v:margins="rect(4,4,4,4)" v:tabSpace="42.5197"/>
			<v:textRect cx="45.3389" cy="816.403" width="90.68" height="24.2013"/>
			<rect x="0" y="804.302" width="90.6778" height="24.2013" class="st18"/>
			<text x="5.01" y="812.8" class="st41" v:langID="1033"><v:paragraph v:horizAlign="1"/><v:tabList/>Virtual network <tspan
						x="25.07" dy="1.2em" class="st21">peering</tspan></text>		</g>
		<g id="shape223-360" v:mID="223" v:groupContext="shape" transform="translate(71.7562,1438.74) rotate(180)">
			<title>Sheet.223</title>
			<desc>On-premises / Colocation</desc>
			<v:textBlock v:margins="rect(4,4,4,4)" v:tabSpace="42.5197" v:verticalText="true"/>
			<v:textRect cx="17.6281" cy="748.424" width="35.26" height="160.157"/>
			<rect x="0" y="668.346" width="35.2562" height="160.157" class="st18"/>
			<text x="27.36" y="704.21" writing-mode="tb-rl" class="st20" v:langID="2052"><v:paragraph v:horizAlign="1"/><v:tabList/>On-premises / <tspan
						dx="-1.2em" y="51.091em" class="st21">C</tspan><tspan class="st21" v:langID="1033">olocation</tspan></text>		</g>
		<g id="shape224-365" v:mID="224" v:groupContext="shape" transform="translate(71.7562,1194.96) rotate(180)">
			<title>Sheet.224</title>
			<desc>Azure</desc>
			<v:textBlock v:margins="rect(4,4,4,4)" v:tabSpace="42.5197" v:verticalText="true"/>
			<v:textRect cx="17.6281" cy="779.606" width="35.26" height="97.7953"/>
			<rect x="0" y="730.708" width="35.2562" height="97.7953" class="st18"/>
			<text x="18.96" y="761.87" writing-mode="tb-rl" class="st20" v:langID="2052"><v:paragraph v:horizAlign="1"/><v:tabList/>Azure</text>		</g>
		<g id="shape225-368" v:mID="225" v:groupContext="shape" transform="translate(65.683,925.665) rotate(180)">
			<title>Sheet.225</title>
			<desc>Azure VMware Solution</desc>
			<v:textBlock v:margins="rect(4,4,4,4)" v:tabSpace="42.5197" v:verticalText="true"/>
			<v:textRect cx="14.5915" cy="781.73" width="29.19" height="93.5466"/>
			<rect x="0" y="734.957" width="29.183" height="93.5466" class="st18"/>
			<text x="32.73" y="763.99" writing-mode="tb-rl" class="st20" v:langID="1033"><v:paragraph v:horizAlign="1"/><v:tabList/>Azure <tspan
						dx="-1.2em" y="54.028em 54.649em 55.547em 56.269em 56.778em 57.126em 57.649em" class="st21">VMware </tspan><tspan
						dx="-1.2em" y="54.009em 54.54em 55.126em 55.369em 55.935em 56.273em 56.516em 57.102em" class="st21">Solution</tspan></text>		</g>
		<g id="shape226-373" v:mID="226" v:groupContext="shape" transform="translate(511.795,-763.175)">
			<title>Sheet.226</title>
			<desc>Tenant 2</desc>
			<v:textBlock v:margins="rect(4,4,4,4)" v:tabSpace="42.5197"/>
			<v:textRect cx="40.6437" cy="810.787" width="81.29" height="35.4331"/>
			<rect x="0" y="793.07" width="81.2874" height="35.4331" class="st18"/>
			<text x="9.93" y="815.59" class="st19" v:langID="2052"><v:paragraph v:horizAlign="1"/><v:tabList/>Tenant 2</text>		</g>
		<g id="group227-376" transform="translate(526.636,-700.987)" v:mID="227" v:groupContext="group">
			<title>Sheet.227</title>
			<g id="group228-377" v:mID="228" v:groupContext="group">
				<title>ec090ac3-568c-4230-bc25-7e5ca8f</title>
				<g id="shape229-378" v:mID="229" v:groupContext="shape" transform="translate(0,-4.23511)">
					<title>Sheet.229</title>
					<path d="M47.85 817.88 A10.7539 10.7539 -180 0 0 38.52 807.55 A13.5587 13.5587 -180 0 0 24.58 794.59 A13.899
								 13.899 -180 0 0 11.28 803.65 A12.8329 12.8329 -180 0 0 0 815.99 A13.027 13.027 -180 0 0 13.47 828.5
								 C13.88 828.5 14.27 828.48 14.66 828.45 L36.48 828.45 A2.16142 2.16142 -180 0 0 37.07 828.38 A10.8789
								 10.8789 -180 0 0 47.85 817.88 Z" class="st2"/>
				</g>
				<g id="shape230-381" v:mID="230" v:groupContext="shape" transform="translate(20.7053,-6.87241)">
					<title>Sheet.230</title>
					<path d="M10.13 813.94 A6.73417 6.73417 -180 1 0 0.11 819.79 L0.11 828.5 L6.57 828.5 L6.57 819.85 A6.7129 6.7129
								 -180 0 0 10.13 813.94 ZM4.58 826.5 L2.1 826.5 L2.1 820.54 A6.91229 6.91229 -180 0 0 3.39 820.67
								 A6.68365 6.68365 -180 0 0 4.58 820.55 L4.58 826.5 ZM4.58 818.5 A4.70833 4.70833 0 0 1 3.39 818.67
								 A4.62326 4.62326 0 0 1 2.1 818.47 L4.58 818.5 ZM6.57 817.44 L0.11 817.34 A4.74555 4.74555 0 1 1
								 6.57 817.43 L6.57 817.44 Z" class="st3"/>
				</g>
				<g id="shape231-383" v:mID="231" v:groupContext="shape" transform="translate(7.84811,0)">
					<title>Sheet.231</title>
					<path d="M-0 827.42 A1.08472 1.08472 -180 0 0 1.08 828.5 L31.38 828.5 A1.08472 1.08472 -180 0 0 32.46 827.42
								 L32.46 820.71 A1.08472 1.08472 -180 0 0 31.38 819.63 L1.08 819.63 A1.08472 1.08472 -180 0 0 0 820.71
								 L0 827.42 Z" class="st4"/>
				</g>
				<g id="shape232-386" v:mID="232" v:groupContext="shape" transform="translate(35.3936,-4.89709)">
					<title>Sheet.232</title>
					<path d="M-0 827.96 a0.542362 0.542362 -180 0 0 0.542349 0.542349 L1.88 828.5 a0.542362 0.542362 -180 0 0 0.542349
								 -0.542349 L2.42 826.62 a0.542362 0.542362 -180 0 0 -0.542349 -0.542349 L0.54 826.08 a0.542362 0.542362
								 -180 0 0 -0.542349 0.542349 L0 827.96 Z" class="st3"/>
				</g>
				<g id="shape233-388" v:mID="233" v:groupContext="shape" transform="translate(35.3936,-1.55261)">
					<title>Sheet.233</title>
					<path d="M-0 827.96 a0.542362 0.542362 -180 0 0 0.542349 0.542349 L1.88 828.5 a0.542362 0.542362 -180 0 0 0.542349
								 -0.542349 L2.42 826.62 a0.542362 0.542362 -180 0 0 -0.542349 -0.542349 L0.54 826.08 a0.542362 0.542362
								 -180 0 0 -0.542349 0.542349 L0 827.96 Z" class="st5"/>
				</g>
				<g id="shape234-390" v:mID="234" v:groupContext="shape" transform="translate(21.2364,-8.87964)">
					<title>Sheet.234</title>
					<path d="M7.59 815.94 A4.74024 4.74024 -180 1 0 1.57 820.48 L1.57 828.5 L4.05 828.5 L4.05 820.53 A4.7296 4.7296
								 -180 0 0 7.59 815.94 Z" class="st6"/>
				</g>
			</g>
		</g>
		<g id="group235-392" transform="translate(523.085,-183.822)" v:mID="235" v:groupContext="group">
			<title>Icon-networking-79.235</title>
			<g id="shape236-393" v:mID="236" v:groupContext="shape" transform="translate(420.036,100.153) rotate(30)">
				<title>Sheet.236</title>
				<rect x="0" y="806.521" width="4.58163" height="21.9826" class="st7"/>
			</g>
			<g id="shape237-395" v:mID="237" v:groupContext="shape" transform="translate(-382.497,102.8) rotate(-30)">
				<title>Sheet.237</title>
				<rect x="0" y="806.521" width="4.58163" height="21.9826" class="st7"/>
			</g>
			<g id="shape238-397" v:mID="238" v:groupContext="shape" transform="translate(838.083,820.289) rotate(90)">
				<title>Sheet.238</title>
				<rect x="0" y="806.521" width="4.58163" height="21.9826" class="st8"/>
			</g>
			<g id="shape239-399" v:mID="239" v:groupContext="shape" transform="translate(15.4109,-27.1195)">
				<title>Sheet.239</title>
				<ellipse cx="5.57663" cy="822.927" rx="5.57663" ry="5.57663" class="st9"/>
			</g>
			<g id="shape240-402" v:mID="240" v:groupContext="shape" transform="translate(30.4979,0)">
				<title>Sheet.240</title>
				<ellipse cx="5.57663" cy="822.927" rx="5.57663" ry="5.57663" class="st10"/>
			</g>
			<g id="shape241-405" v:mID="241" v:groupContext="shape">
				<title>Sheet.241</title>
				<ellipse cx="5.57663" cy="822.927" rx="5.57663" ry="5.57663" class="st11"/>
			</g>
		</g>
		<g id="group242-408" transform="translate(610.434,-389.84)" v:mID="242" v:groupContext="group">
			<title>Sheet.242</title>
			<g id="group243-409" transform="translate(-24.4344,-80.7565)" v:mID="243" v:groupContext="group">
				<title>Sheet.243</title>
				<g id="shape244-410" v:mID="244" v:groupContext="shape" transform="translate(0,-11.5053)">
					<title>Sheet.244</title>
					<path d="M42.52 819 A9.63946 9.63946 -180 0 0 34.27 809.74 A12.1831 12.1831 -180 0 0 21.76 798.24 A12.5333 12.5333
								 -180 0 0 10 806.24 A11.7379 11.7379 -180 0 0 0 817.25 A11.5353 11.5353 -180 0 0 12.01 828.5 L33.02
								 828.5 A9.5044 9.5044 -180 0 0 42.52 819 Z" class="st23"/>
				</g>
				<g id="shape245-413" v:mID="245" v:groupContext="shape" transform="translate(10.2547,-2.27374E-13)">
					<title>Sheet.245</title>
					<ellipse cx="11.0051" cy="817.498" rx="11.0051" ry="11.0051" class="st24"/>
				</g>
				<g id="shape246-415" v:mID="246" v:groupContext="shape" transform="translate(11.5053,-1.25058)">
					<title>Sheet.246</title>
					<path d="M19.01 811.75 A11.5053 11.5053 -180 0 0 3 809.49 A11.4078 11.4078 -180 1 0 17.01 827.5 A11.3978 11.3978
								 -180 0 0 19.01 811.75 ZM0 818 A11.773 11.773 0 0 1 1 814 L3.75 814 A19.439 19.439 -180 0 0 3.25
								 818 L0 818 ZM5.25 814 L9 814 L9 818 L4.75 818 A19.439 19.439 0 0 1 5.25 814 ZM10.5 814 L14.26 814
								 A19.439 19.439 0 0 1 14.76 818 L10.5 818 L10.5 814 ZM9.25 819.25 L9.25 823.25 L5.25 823.25 L4.5
								 819.5 L9.25 819.25 ZM10.5 819.25 L15.01 819.25 A24.939 24.939 0 0 1 14.51 823.25 L10.5 823.25 L10.5
								 819.25 ZM16.51 819.25 L19.76 819.25 A11.773 11.773 0 0 1 18.76 823.25 L16.01 823.25 A19.439 19.439
								 -180 0 0 16.51 819.25 ZM16.51 818 A24.939 24.939 -180 0 0 16.01 814 L18.76 814 A10.4874 10.4874
								 0 0 1 19.76 818 L16.51 818 ZM17.76 812.5 L15.51 812.5 A11.2552 11.2552 -180 0 0 14.01 809.49 A11.0751
								 11.0751 0 0 1 17.76 812.5 ZM14.01 812.5 L10.5 812.5 L10.5 808.99 A5.43001 5.43001 0 0 1 14.01 812.5
								 ZM9.25 808.99 L9.25 812.75 L5.75 812.75 A5.29745 5.29745 0 0 1 9.25 808.99 ZM3.75 810.74 A13.9615
								 13.9615 0 0 1 5.75 809.49 A7.75359 7.75359 -180 0 0 4.25 812.75 L2 812.75 A6.75313 6.75313 0 0 1
								 3.75 810.74 ZM0 819.5 L3.25 819.5 A24.939 24.939 -180 0 0 3.75 823.5 L1 823.5 A13.3787 13.3787 0
								 0 1 -0 819.5 ZM2 824.75 L4.25 824.75 L5.75 827.75 A8.73154 8.73154 0 0 1 2 824.75 ZM5.75 824.75
								 L9 824.75 L9 828.5 A6.08532 6.08532 0 0 1 5.75 824.75 ZM10.5 828.5 L10.5 824.75 L13.76 824.75 A4.92228
								 4.92228 0 0 1 10.5 828.5 ZM16.01 826.5 A6.55804 6.55804 0 0 1 13.76 827.75 A8.45141 8.45141 -180
								 0 0 15.26 824.75 L17.51 824.75 A3.36156 3.36156 0 0 1 16.01 826.5 Z" class="st25"/>
				</g>
				<g id="shape247-417" v:mID="247" v:groupContext="shape" transform="translate(6.00278,-14.7568)">
					<title>Sheet.247</title>
					<path d="M5.5 828.5 A10.0672 10.0672 0 0 1 0 821.25 A9.11922 9.11922 0 0 1 3.75 814 L5.25 812.75 L6.5 814.25
								 L5 815.5 A6.27541 6.27541 -180 0 0 2 821 A7.58101 7.58101 -180 0 0 6.5 826.75 L5.5 828.5 Z"
							class="st26"/>
				</g>
				<g id="shape248-419" v:mID="248" v:groupContext="shape" transform="translate(9.25428,-27.0125)">
					<title>Sheet.248</title>
					<ellipse cx="2.75127" cy="825.752" rx="2.75127" ry="2.75127" class="st24"/>
				</g>
				<g id="shape249-421" v:mID="249" v:groupContext="shape" transform="translate(29.5137,-14.7568)">
					<title>Sheet.249</title>
					<path d="M1 828.5 L0 826.75 A8.15127 8.15127 -180 0 0 4.5 821 A6.87318 6.87318 -180 0 0 1.5 815.5 L0 814.5 L1.25
								 813 L2.75 814 A7.68106 7.68106 0 0 1 6.5 821.25 A10.0672 10.0672 0 0 1 1 828.5 Z" class="st26"/>
				</g>
				<g id="shape250-423" v:mID="250" v:groupContext="shape" transform="translate(27.5127,-27.0125)">
					<title>Sheet.250</title>
					<ellipse cx="2.75127" cy="825.752" rx="2.75127" ry="2.75127" class="st24"/>
				</g>
				<g id="shape251-425" v:mID="251" v:groupContext="shape" transform="translate(9.25428,-12.7559)">
					<title>Sheet.251</title>
					<ellipse cx="2.75127" cy="825.752" rx="2.75127" ry="2.75127" class="st27"/>
				</g>
				<g id="shape252-427" v:mID="252" v:groupContext="shape" transform="translate(27.5127,-12.7559)">
					<title>Sheet.252</title>
					<ellipse cx="2.75127" cy="825.752" rx="2.75127" ry="2.75127" class="st27"/>
				</g>
			</g>
		</g>
		<g id="group253-429" transform="translate(592.668,-398.98)" v:mID="253" v:groupContext="group">
			<title>Sheet.253</title>
			<g id="group254-430" v:mID="254" v:groupContext="group">
				<title>Page-1</title>
				<g id="group255-431" v:mID="255" v:groupContext="group">
					<title>Sheet.255</title>
					<g id="shape256-432" v:mID="256" v:groupContext="shape" transform="translate(3.4526,-19.9339)">
						<title>Sheet.256</title>
						<path d="M22.28 827.92 L22.28 826.48 C22.28 823.62 21.24 820.95 19.41 819.06 C17.72 817.1 13.94 815.86 11.14
									 815.86 C8.34 815.86 4.56 817.1 2.87 819.06 C1.11 820.95 0 823.62 0 826.48 L0 827.92 L5.15 828.5
									 L5.15 827.2 C5.15 825.51 5.73 823.36 6.71 822.25 C7.69 821.14 9.77 820.62 11.14 820.55 C12.51
									 820.55 14.59 821.14 15.57 822.25 C16.55 823.36 17.13 824.79 17.13 826.42 L17.13 828.5 L22.28
									 827.92 Z" class="st28"/>
					</g>
					<g id="shape257-434" v:mID="257" v:groupContext="shape">
						<title>Sheet.257</title>
						<path d="M3.45 807.98 C0.91 807.98 0 809.48 0 811.43 L0 825.05 C0 826.75 1.04 828.5 3 828.5 L26.19 828.5
									 C28.4 828.5 29.18 826.75 29.18 825.05 L29.18 811.43 C29.18 809.68 28.47 807.98 25.73 807.98
									 L3.45 807.98 Z" class="st29"/>
					</g>
					<g id="shape258-436" v:mID="258" v:groupContext="shape">
						<title>Sheet.258</title>
						<path d="M20.52 807.98 L3.45 807.98 C0.91 807.98 0 809.48 0 811.43 L0 825.05 C0 826.75 1.04 828.5 3 828.5
									 L7.36 828.5 L20.52 807.98 Z" class="st30"/>
					</g>
				</g>
				<g id="shape259-438" v:mID="259" v:groupContext="shape" transform="translate(3.86929,-3.59968)">
					<title>Sheet.259</title>
					<path d="M8.2 815.93 L10.76 813.68 a0.148781 0.131505 180 0 1 0.19129 0 L13.48 815.93 a0.127527 0.112718 180
								 0 1 -1.77636E-14 0.187864 L11.99 816.12 a0.127527 0.112718 -0 0 0 -0.127527 0.112718 L11.86 819.13
								 a0.127527 0.112718 180 0 1 -0.127527 0.112718 L10.05 819.24 a0.106272 0.0939321 180 0 1 -0.127527
								 -0.112718 L9.93 816.24 a0.148781 0.131505 -0 0 0 -0.148781 -0.112718 L8.29 816.12 a0.127527 0.112718
								 180 0 1 -0.0850178 -0.187864 L8.2 815.93 ZM13.45 826.23 L10.92 828.47 a0.127527 0.112718 180 0 1
								 -0.19129 0 L8.2 826.23 a0.127527 0.112718 180 0 1 -2.84217E-14 -0.187864 L9.69 826.04 a0.148781
								 0.131505 -0 0 0 0.148781 -0.112718 L9.84 823.02 a0.127527 0.112718 180 0 1 0.127527 -0.112718 L11.54
								 822.9 a0.127527 0.112718 180 0 1 0.127527 0.112718 L11.67 825.93 a0.127527 0.112718 -0 0 0 0.127527
								 0.112718 L13.28 826.04 a0.136095 0.120292 180 0 1 0.170036 0.187864 L13.45 826.23 ZM3.47 823.32
								 L3.47 822 a0.127527 0.112718 -0 0 0 -0.127527 -0.112718 L0.13 821.89 a0.127527 0.112718 180 0 1
								 -0.127527 -0.112718 L0 820.44 a0.127527 0.112718 180 0 1 0.127527 -0.169078 L3.34 820.27 a0.127527
								 0.112718 -0 0 0 0.127527 -0.112718 L3.47 818.85 a0.148781 0.131505 180 0 1 0.233799 -0.0939321 L6.23
								 821.01 a0.127527 0.112718 180 0 1 -1.06581E-14 0.150291 L3.7 823.41 a0.148781 0.131505 180 0 1 -0.233799
								 -0.0939321 L3.47 823.32 ZM18.19 818.85 L18.19 820.16 a0.127527 0.112718 -0 0 0 0.127527 0.112718
								 L21.6 820.27 C21.6 820.27 21.74 820.27 21.74 820.39 L21.74 821.78 a0.148781 0.131505 180 0 1 -0.148781
								 0.112718 L18.32 821.89 a0.127527 0.112718 -0 0 0 -0.127527 0.112718 L18.19 823.32 a0.127527 0.112718
								 180 0 1 -0.212545 0.0939321 L15.45 821.16 L15.45 821.01 L17.98 818.75 C17.98 818.75 18.19 818.73
								 18.19 818.85 Z" class="st31"/>
				</g>
			</g>
		</g>
		<g id="shape260-440" v:mID="260" v:groupContext="shape" transform="translate(567.573,-367.86)">
			<title>Sheet.260</title>
			<desc>ExpressRoute gateway</desc>
			<v:textBlock v:margins="rect(4,4,4,4)" v:tabSpace="42.5197"/>
			<v:textRect cx="42.3598" cy="819.303" width="84.72" height="18.3996"/>
			<rect x="0" y="810.104" width="84.7196" height="18.3996" class="st18"/>
			<text x="10" y="816" class="st32" v:langID="1033"><v:paragraph v:horizAlign="1"/><v:tabList/>ExpressRoute <tspan
						x="22.15" dy="1.2em" class="st21">gateway</tspan></text>		</g>
		<g id="group261-444" transform="translate(529.737,-604.055)" v:mID="261" v:groupContext="group">
			<title>Icon-networking-79.261</title>
			<g id="shape262-445" v:mID="262" v:groupContext="shape" transform="translate(420.036,100.153) rotate(30)">
				<title>Sheet.262</title>
				<rect x="0" y="806.521" width="4.58163" height="21.9826" class="st7"/>
			</g>
			<g id="shape263-447" v:mID="263" v:groupContext="shape" transform="translate(-382.497,102.8) rotate(-30)">
				<title>Sheet.263</title>
				<rect x="0" y="806.521" width="4.58163" height="21.9826" class="st7"/>
			</g>
			<g id="shape264-449" v:mID="264" v:groupContext="shape" transform="translate(838.083,820.289) rotate(90)">
				<title>Sheet.264</title>
				<rect x="0" y="806.521" width="4.58163" height="21.9826" class="st8"/>
			</g>
			<g id="shape265-451" v:mID="265" v:groupContext="shape" transform="translate(15.4109,-27.1195)">
				<title>Sheet.265</title>
				<ellipse cx="5.57663" cy="822.927" rx="5.57663" ry="5.57663" class="st9"/>
			</g>
			<g id="shape266-454" v:mID="266" v:groupContext="shape" transform="translate(30.4979,0)">
				<title>Sheet.266</title>
				<ellipse cx="5.57663" cy="822.927" rx="5.57663" ry="5.57663" class="st10"/>
			</g>
			<g id="shape267-457" v:mID="267" v:groupContext="shape">
				<title>Sheet.267</title>
				<ellipse cx="5.57663" cy="822.927" rx="5.57663" ry="5.57663" class="st11"/>
			</g>
		</g>
		<g id="shape268-460" v:mID="268" v:groupContext="shape" transform="translate(1376.42,127.6) rotate(90)">
			<title>Sheet.268</title>
			<path d="M5.36 828.5 L5.72 828.5 L54.39 828.5" class="st42"/>
		</g>
		<g id="shape269-467" v:mID="269" v:groupContext="shape" transform="translate(414.889,-641.016)">
			<title>Sheet.269</title>
			<desc>Azure VMware Solution SDDC 2- MSEE</desc>
			<v:textBlock v:margins="rect(4,4,4,4)" v:tabSpace="42.5197"/>
			<v:textRect cx="74.3643" cy="816.403" width="148.73" height="24.2013"/>
			<rect x="0" y="804.302" width="148.729" height="24.2013" class="st18"/>
			<text x="29.36" y="803.8" class="st20" v:langID="1033"><v:paragraph v:horizAlign="1"/><v:tabList/>Azure VMware <tspan
						x="20.48" dy="1.2em" class="st21">Solution SDDC 2</tspan>- <tspan x="57.28" dy="1.2em" class="st21">MSEE</tspan></text>		</g>
		<g id="shape648-472" v:mID="648" v:groupContext="shape" transform="translate(573.371,-707.373)">
			<title>Sheet.648</title>
			<desc>Azure VMware Solution 2</desc>
			<v:textBlock v:margins="rect(4,4,4,4)" v:tabSpace="42.5197"/>
			<v:textRect cx="40.8976" cy="812.217" width="81.8" height="32.5728"/>
			<rect x="0" y="795.93" width="81.7952" height="32.5728" class="st18"/>
			<text x="23.16" y="799.62" class="st20" v:langID="1033"><v:paragraph v:horizAlign="1"/><v:tabList/>Azure <tspan
						x="15.55" dy="1.2em" class="st21">VMware </tspan><tspan x="9.6" dy="1.2em" class="st21">Solution 2</tspan></text>		</g>
		<g id="shape649-477" v:mID="649" v:groupContext="shape" transform="translate(468.361,-291.195)">
			<title>Sheet.649</title>
			<desc>Virtual network 2</desc>
			<v:textBlock v:margins="rect(4,4,4,4)" v:tabSpace="42.5197"/>
			<v:textRect cx="28.8108" cy="812.217" width="57.63" height="32.5728"/>
			<rect x="0" y="795.93" width="57.6217" height="32.5728" class="st18"/>
			<text x="11.61" y="801.42" class="st41" v:langID="1033"><v:paragraph v:horizAlign="1"/><v:tabList/>Virtual <tspan
						x="7.32" dy="1.2em" class="st21">network </tspan><tspan x="25.58" dy="1.2em" class="st21">2</tspan></text>		</g>
		<g id="shape650-482" v:mID="650" v:groupContext="shape" transform="translate(423.004,-318.914)">
			<title>Sheet.650</title>
			<desc>UDR</desc>
			<v:textBlock v:margins="rect(4,4,4,4)" v:tabSpace="42.5197"/>
			<v:textRect cx="23.9272" cy="819.303" width="47.86" height="18.3996"/>
			<rect x="0" y="810.104" width="47.8543" height="18.3996" class="st18"/>
			<text x="12.01" y="822.9" class="st41" v:langID="2052"><v:paragraph v:horizAlign="1"/><v:tabList/>UDR</text>		</g>
		<g id="shape651-485" v:mID="651" v:groupContext="shape" transform="translate(452.23,-370.633)">
			<title>Sheet.651</title>
			<desc>NVA</desc>
			<v:textBlock v:margins="rect(4,4,4,4)" v:tabSpace="42.5197"/>
			<v:textRect cx="23.9272" cy="816.403" width="47.86" height="24.2013"/>
			<rect x="0" y="804.302" width="47.8543" height="24.2013" class="st18"/>
			<text x="9.83" y="820.6" class="st20" v:langID="2052"><v:paragraph v:horizAlign="1"/><v:tabList/>NVA</text>		</g>
		<g id="shape652-488" v:mID="652" v:groupContext="shape" transform="translate(575.948,-509.592)">
			<title>Sheet.652</title>
			<desc>Virtual WAN 2</desc>
			<v:textBlock v:margins="rect(4,4,4,4)" v:tabSpace="42.5197"/>
			<v:textRect cx="32.2038" cy="809.367" width="64.41" height="38.2728"/>
			<rect x="0" y="790.23" width="64.4076" height="38.2728" class="st18"/>
			<text x="12.14" y="805.17" class="st20" v:langID="1033"><v:paragraph v:horizAlign="1"/><v:tabList/>Virtual <tspan
						x="10.22" dy="1.2em" class="st21">WAN 2</tspan></text>		</g>
		<g id="shape653-492" v:mID="653" v:groupContext="shape" transform="translate(422.62,-521.188)">
			<title>Sheet.653</title>
			<desc>Virtual network 21</desc>
			<v:textBlock v:margins="rect(4,4,4,4)" v:tabSpace="42.5197"/>
			<v:textRect cx="28.8108" cy="816.403" width="57.63" height="24.2013"/>
			<rect x="0" y="804.302" width="57.6217" height="24.2013" class="st18"/>
			<text x="11.61" y="805.6" class="st41" v:langID="1033"><v:paragraph v:horizAlign="1"/><v:tabList/>Virtual <tspan
						x="7.32" dy="1.2em" class="st21">network </tspan><tspan x="22.34" dy="1.2em" class="st21">21</tspan></text>		</g>
		<g id="shape654-497" v:mID="654" v:groupContext="shape" transform="translate(479.957,-521.832)">
			<title>Sheet.654</title>
			<desc>Virtual network 22</desc>
			<v:textBlock v:margins="rect(4,4,4,4)" v:tabSpace="42.5197"/>
			<v:textRect cx="28.8108" cy="816.403" width="57.63" height="24.2013"/>
			<rect x="0" y="804.302" width="57.6217" height="24.2013" class="st18"/>
			<text x="11.61" y="805.6" class="st41" v:langID="1033"><v:paragraph v:horizAlign="1"/><v:tabList/>Virtual <tspan
						x="7.32" dy="1.2em" class="st21">network </tspan><tspan x="22.34" dy="1.2em" class="st21">22</tspan></text>		</g>
		<g id="group655-502" transform="translate(423.004,-472.74)" v:mID="655" v:groupContext="group">
			<title>Icon-networking-61.655</title>
			<g id="shape656-503" v:mID="656" v:groupContext="shape" transform="translate(33.8974,-23.9881)">
				<title>Sheet.656</title>
				<ellipse cx="2.92717" cy="825.576" rx="2.92717" ry="2.92717" class="st12"/>
			</g>
			<g id="shape657-506" v:mID="657" v:groupContext="shape" transform="translate(24.5608,-23.9629)">
				<title>Sheet.657</title>
				<ellipse cx="2.92717" cy="825.576" rx="2.92717" ry="2.92717" class="st13"/>
			</g>
			<g id="shape658-509" v:mID="658" v:groupContext="shape" transform="translate(15.2241,-23.9629)">
				<title>Sheet.658</title>
				<ellipse cx="2.92717" cy="825.576" rx="2.92717" ry="2.92717" class="st13"/>
			</g>
			<g id="shape659-512" v:mID="659" v:groupContext="shape" transform="translate(597.576,1379.7) rotate(134.92)">
				<title>Sheet.659</title>
				<path d="M6.59 808.72 L8.96 808.72 a0.757028 0.757028 0 0 1 0.757028 0.757028 L9.72 826.99 A1.51406 1.51406 0 0 1
							 8.2 828.5 L5.83 828.5 L5.83 809.48 a0.757028 0.757028 0 0 1 0.757028 -0.757028 Z" class="st14"/>
			</g>
			<g id="shape660-514" v:mID="660" v:groupContext="shape" transform="translate(585.022,210.853) rotate(44.92)">
				<title>Sheet.660</title>
				<path d="M6.46 809 L8.83 809 a0.757028 0.757028 0 0 1 0.757028 0.757028 L9.59 828.5 L7.22 828.5 A1.51406 1.51406
							 0 0 1 5.7 826.99 L5.7 809.75 a0.757028 0.757028 0 0 1 0.757028 -0.757028 Z" class="st15"/>
			</g>
			<g id="shape661-516" v:mID="661" v:groupContext="shape" transform="translate(595.406,202.452) rotate(45.08)">
				<title>Sheet.661</title>
				<path d="M35.71 808.72 L38.08 808.72 A1.51406 1.51406 0 0 1 39.59 810.23 L39.59 827.75 a0.757028 0.757028 0 0 1 -0.757028
							 0.757028 L36.46 828.5 a0.757028 0.757028 0 0 1 -0.757028 -0.757028 L35.71 808.72 Z" class="st14"/>
			</g>
			<g id="shape662-518" v:mID="662" v:groupContext="shape" transform="translate(647.35,1349.05) rotate(135.08)">
				<title>Sheet.662</title>
				<path d="M37.37 809 L39.74 809 L39.74 827.75 a0.757028 0.757028 0 0 1 -0.757028 0.757028 L36.59 828.5 a0.757028 0.757028
							 0 0 1 -0.757028 -0.757028 L35.83 810.51 A1.51406 1.51406 0 0 1 37.35 809 L37.37 809 Z" class="st15"/>
			</g>
		</g>
		<g id="group663-520" transform="translate(481.573,-472.74)" v:mID="663" v:groupContext="group">
			<title>Icon-networking-61.663</title>
			<g id="shape664-521" v:mID="664" v:groupContext="shape" transform="translate(33.8974,-23.9881)">
				<title>Sheet.664</title>
				<ellipse cx="2.92717" cy="825.576" rx="2.92717" ry="2.92717" class="st12"/>
			</g>
			<g id="shape665-524" v:mID="665" v:groupContext="shape" transform="translate(24.5608,-23.9629)">
				<title>Sheet.665</title>
				<ellipse cx="2.92717" cy="825.576" rx="2.92717" ry="2.92717" class="st13"/>
			</g>
			<g id="shape666-527" v:mID="666" v:groupContext="shape" transform="translate(15.2241,-23.9629)">
				<title>Sheet.666</title>
				<ellipse cx="2.92717" cy="825.576" rx="2.92717" ry="2.92717" class="st13"/>
			</g>
			<g id="shape667-530" v:mID="667" v:groupContext="shape" transform="translate(597.576,1379.7) rotate(134.92)">
				<title>Sheet.667</title>
				<path d="M6.59 808.72 L8.96 808.72 a0.757028 0.757028 0 0 1 0.757028 0.757028 L9.72 826.99 A1.51406 1.51406 0 0 1
							 8.2 828.5 L5.83 828.5 L5.83 809.48 a0.757028 0.757028 0 0 1 0.757028 -0.757028 Z" class="st14"/>
			</g>
			<g id="shape668-532" v:mID="668" v:groupContext="shape" transform="translate(585.022,210.853) rotate(44.92)">
				<title>Sheet.668</title>
				<path d="M6.46 809 L8.83 809 a0.757028 0.757028 0 0 1 0.757028 0.757028 L9.59 828.5 L7.22 828.5 A1.51406 1.51406
							 0 0 1 5.7 826.99 L5.7 809.75 a0.757028 0.757028 0 0 1 0.757028 -0.757028 Z" class="st15"/>
			</g>
			<g id="shape669-534" v:mID="669" v:groupContext="shape" transform="translate(595.406,202.452) rotate(45.08)">
				<title>Sheet.669</title>
				<path d="M35.71 808.72 L38.08 808.72 A1.51406 1.51406 0 0 1 39.59 810.23 L39.59 827.75 a0.757028 0.757028 0 0 1 -0.757028
							 0.757028 L36.46 828.5 a0.757028 0.757028 0 0 1 -0.757028 -0.757028 L35.71 808.72 Z" class="st14"/>
			</g>
			<g id="shape670-536" v:mID="670" v:groupContext="shape" transform="translate(647.35,1349.05) rotate(135.08)">
				<title>Sheet.670</title>
				<path d="M37.37 809 L39.74 809 L39.74 827.75 a0.757028 0.757028 0 0 1 -0.757028 0.757028 L36.59 828.5 a0.757028 0.757028
							 0 0 1 -0.757028 -0.757028 L35.83 810.51 A1.51406 1.51406 0 0 1 37.35 809 L37.37 809 Z" class="st15"/>
			</g>
		</g>
		<g id="shape899-538" v:mID="899" v:groupContext="shape" transform="translate(503.267,-158.035)">
			<title>Sheet.899</title>
			<desc>MSEE</desc>
			<v:textBlock v:margins="rect(4,4,4,4)" v:tabSpace="42.5197"/>
			<v:textRect cx="40.6437" cy="816.403" width="81.29" height="24.2013"/>
			<rect x="0" y="804.302" width="81.2874" height="24.2013" class="st18"/>
			<text x="23.56" y="820.6" class="st20" v:langID="2052"><v:paragraph v:horizAlign="1"/><v:tabList/>MSEE</text>		</g>
		<g id="shape900-541" v:mID="900" v:groupContext="shape" transform="translate(310.961,-18.375)">
			<title>Sheet.900</title>
			<desc>On-premises</desc>
			<v:textBlock v:margins="rect(4,4,4,4)" v:tabSpace="42.5197"/>
			<v:textRect cx="53.1496" cy="816.403" width="106.3" height="24.2013"/>
			<rect x="0" y="804.302" width="106.299" height="24.2013" class="st18"/>
			<text x="13.58" y="820.6" class="st20" v:langID="2052"><v:paragraph v:horizAlign="1"/><v:tabList/>On-prem<tspan
						class="st21" v:langID="1033">ises</tspan></text>		</g>
		<g id="shape901-545" v:mID="901" v:groupContext="shape" transform="translate(570.767,-207.641)">
			<title>Sheet.901</title>
			<path d="M9.04 410.39 L9.4 410.39 L73.34 410.39 A5.66929 5.66929 0 0 1 79.01 416.06 L79.01 822.83 A5.66929 5.66929 0
						 0 1 73.34 828.5 L8.35 828.5" class="st44"/>
		</g>
		<g id="shape902-552" v:mID="902" v:groupContext="shape" transform="translate(1473.39,461.767) rotate(90)">
			<title>Sheet.902</title>
			<desc>Global Reach</desc>
			<v:textBlock v:margins="rect(4,4,4,4)" v:tabSpace="42.5197"/>
			<v:textRect cx="69.9822" cy="812.217" width="139.97" height="32.5728"/>
			<rect x="0" y="795.93" width="139.964" height="32.5728" class="st18"/>
			<text x="29.49" y="816.42" class="st20" v:langID="1033"><v:paragraph v:horizAlign="1"/><v:tabList/>Global Reach</text>		</g>
		<g id="shape906-555" v:mID="906" v:groupContext="shape" transform="translate(552.027,-431.552)">
			<title>Sheet.906</title>
			<path d="M0 657.73 L0 658.09 L0 664.8 A5.66929 5.66929 -180 0 0 5.67 670.47 L13.07 670.47 A5.66929 5.66929 0 0 1 18.74
						 676.14 L18.74 805.56 A5.66929 5.66929 -180 0 0 24.41 811.23 L48.56 811.23 A5.66929 5.66929 0 0 1 54.21 816.42
						 L54.75 822.8" class="st42"/>
		</g>
		<g id="shape908-562" v:mID="908" v:groupContext="shape" transform="translate(298.349,-384.806)">
			<title>Sheet.908</title>
			<path d="M7.99 828.5 L8.35 828.5 L123.4 828.5" class="st46"/>
		</g>
		<g id="shape909-571" v:mID="909" v:groupContext="shape" transform="translate(451.35,-441.499)">
			<title>Sheet.909</title>
			<path d="M0 789.12 L0 789.48 L0 799.86 A5.66929 5.66929 -180 0 0 5.67 805.53 L8.15 805.53 A5.66929 5.66929 0 0 1 13.82
						 811.2 L13.82 822.78" class="st42"/>
		</g>
		<g id="shape910-578" v:mID="910" v:groupContext="shape" transform="translate(504.3,-441.499)">
			<title>Sheet.910</title>
			<path d="M13.44 789.09 L13.44 789.45 L13.44 796.93 A5.66929 5.66929 0 0 1 7.77 802.6 L5.67 802.6 A5.66929 5.66929 -180
						 0 0 0 808.27 L0 822.78" class="st42"/>
		</g>
		<g id="shape912-585" v:mID="912" v:groupContext="shape" transform="translate(224.579,-64.6869)">
			<title>Sheet.912</title>
			<path d="M5.36 685.55 L5.72 685.55 L58.03 685.55 A5.66929 5.66929 0 0 1 63.7 691.22 L63.7 822.83 A5.66929 5.66929 -180
						 0 0 69.37 828.5 L103.48 828.5" class="st42"/>
		</g>
		<g id="shape913-592" v:mID="913" v:groupContext="shape" transform="translate(386.026,-64.6869)">
			<title>Sheet.913</title>
			<path d="M116.65 692.64 L116.29 692.64 L63.34 692.64 A5.66929 5.66929 -180 0 0 57.67 698.31 L57.67 822.83 A5.66929 5.66929
						 0 0 1 52 828.5 L5.72 828.5" class="st42"/>
		</g>
		<g id="shape914-599" v:mID="914" v:groupContext="shape" transform="translate(224.579,-625.751)">
			<title>Sheet.914</title>
			<path d="M7.99 828.5 L8.35 828.5 L289.29 828.5" class="st48"/>
		</g>
		<g id="shape915-608" v:mID="915" v:groupContext="shape" transform="translate(139.539,-219.833)">
			<title>Sheet.915</title>
			<path d="M0 652.32 L0 652.68 L0 785.42 A5.66929 5.66929 -180 0 0 5.67 791.09 L42.52 791.09 A5.66929 5.66929 0 0 1 48.19
						 796.76 L48.19 822.78" class="st42"/>
		</g>
		<g id="shape916-615" v:mID="916" v:groupContext="shape" transform="translate(167.561,-380.408)">
			<title>Sheet.916</title>
			<path d="M5.36 807.53 L5.72 807.53 L16.33 807.53 A5.66929 5.66929 0 0 1 22 813.2 L22 822.83 A5.66929 5.66929 -180 0 0
						 27.66 828.5 L32.94 828.5" class="st42"/>
		</g>
		<g id="shape917-622" v:mID="917" v:groupContext="shape" transform="translate(522.22,-381.385)">
			<title>Sheet.917</title>
			<path d="M47.47 809.86 L47.11 809.86 L33.69 809.86 A5.66929 5.66929 -180 0 0 28.02 815.53 L28.02 822.83 A5.66929 5.66929
						 0 0 1 22.35 828.5 L5.72 828.5" class="st42"/>
		</g>
		<g id="shape918-629" v:mID="918" v:groupContext="shape" transform="translate(543.398,-222.053)">
			<title>Sheet.918</title>
			<path d="M64.06 653.3 L64.06 653.66 L64.06 787.64 A5.66929 5.66929 0 0 1 58.39 793.31 L5.67 793.31 A5.66929 5.66929 -180
						 0 0 -0 798.98 L0 822.78" class="st42"/>
		</g>
		<g id="shape919-636" v:mID="919" v:groupContext="shape" transform="translate(320.972,-627.824)">
			<title>Sheet.919</title>
			<desc>Interconnect</desc>
			<v:textBlock v:margins="rect(4,4,4,4)" v:tabSpace="42.5197"/>
			<v:textRect cx="45.3389" cy="816.403" width="90.68" height="24.2013"/>
			<rect x="0" y="804.302" width="90.6778" height="24.2013" class="st18"/>
			<text x="12.07" y="820" class="st41" v:langID="2052"><v:paragraph v:horizAlign="1"/><v:tabList/>Interconnect</text>		</g>
	</g>
</svg>
