<svg xmlns="http://www.w3.org/2000/svg" xmlns:xlink="http://www.w3.org/1999/xlink" viewBox="0 0 731 102">
  <defs>
    <linearGradient id="linear-gradient" x1="192" y1="97.075" x2="192" y2="13.475" gradientUnits="userSpaceOnUse">
      <stop offset="0" stop-color="#004dae"/>
      <stop offset="0.21" stop-color="#0061c4"/>
      <stop offset="0.51" stop-color="#0078dd"/>
      <stop offset="0.78" stop-color="#0086ec"/>
      <stop offset="1" stop-color="#008bf1"/>
    </linearGradient>
    <linearGradient id="linear-gradient-2" x1="-159.098" y1="2066.86" x2="-159.098" y2="2081.826" gradientTransform="matrix(1, 0, 0, -1, 564, 2102.15)" gradientUnits="userSpaceOnUse">
      <stop offset="0" stop-color="#0078d4"/>
      <stop offset="0.16" stop-color="#1380da"/>
      <stop offset="0.53" stop-color="#3c91e5"/>
      <stop offset="0.82" stop-color="#559cec"/>
      <stop offset="1" stop-color="#5ea0ef"/>
    </linearGradient>
    <linearGradient id="linear-gradient-3" x1="-165.352" y1="2057.875" x2="-165.352" y2="2073.271" gradientTransform="matrix(1, 0, 0, -1, 564, 2102.15)" gradientUnits="userSpaceOnUse">
      <stop offset="0" stop-color="#198ab3"/>
      <stop offset="0.13" stop-color="#21a0c7"/>
      <stop offset="0.31" stop-color="#28b7db"/>
      <stop offset="0.5" stop-color="#2ec7ea"/>
      <stop offset="0.72" stop-color="#31d1f2"/>
      <stop offset="1" stop-color="#32d4f5"/>
    </linearGradient>
    <linearGradient id="linear-gradient-4" x1="14.935" y1="1861.966" x2="8.294" y2="1842.346" gradientTransform="matrix(1, 0, 0, -1, 0, 1868.15)" gradientUnits="userSpaceOnUse">
      <stop offset="0" stop-color="#114a8b"/>
      <stop offset="1" stop-color="#0669bc"/>
    </linearGradient>
    <linearGradient id="linear-gradient-5" x1="16.962" y1="1852.902" x2="15.387" y2="1852.365" gradientTransform="matrix(1, 0, 0, -1, 0, 1868.15)" gradientUnits="userSpaceOnUse">
      <stop offset="0" stop-opacity="0.3"/>
      <stop offset="0.071" stop-opacity="0.2"/>
      <stop offset="0.321" stop-opacity="0.1"/>
      <stop offset="0.623" stop-opacity="0.05"/>
      <stop offset="1" stop-opacity="0"/>
    </linearGradient>
    <linearGradient id="linear-gradient-6" x1="16.153" y1="1862.538" x2="23.443" y2="1843.116" gradientTransform="matrix(1, 0, 0, -1, 0, 1868.15)" gradientUnits="userSpaceOnUse">
      <stop offset="0" stop-color="#3ccbf4"/>
      <stop offset="1" stop-color="#2892df"/>
    </linearGradient>
  </defs>
  <g id="Shapes">
    <rect width="731" height="102" fill="#fff"/>
    <g>
      <rect x="9.4" y="13.475" width="365.2" height="83.6" rx="7" fill="#fff"/>
      <rect x="9.4" y="13.475" width="365.2" height="83.6" rx="7" opacity="0.16" fill="url(#linear-gradient)"/>
      <rect x="9.4" y="13.475" width="365.2" height="83.6" rx="7" fill="none" stroke="#fff" stroke-width="0.5"/>
    </g>
    <rect x="273.968" y="26.675" width="48.4" height="61.6" fill="#fff"/>
    <g>
      <g>
        <path d="M643.683,68.329l6.035,15.653h-3.063L645.236,80.1h-6.314l-1.363,3.886H634.52l6.034-15.653Zm-1.654,2.9-2.369,6.592h4.805l-2.358-6.592Z" fill="#737474"/>
        <path d="M651.073,72.761h9.175V73.82l-6.024,8.066h6.057v2.1h-9.633V82.726l5.934-7.869h-5.509Z" fill="#737474"/>
        <path d="M671.789,72.761V83.982h-2.727V82.508h-.045a3.628,3.628,0,0,1-1.436,1.2,4.6,4.6,0,0,1-2.017.431,3.984,3.984,0,0,1-3.045-1.108,4.874,4.874,0,0,1-1.045-3.443V72.761h2.738v6.505a3.35,3.35,0,0,0,.576,2.134,2.094,2.094,0,0,0,1.737.715,2.327,2.327,0,0,0,1.844-.791,3.027,3.027,0,0,0,.693-2.069V72.761Z" fill="#737474"/>
        <path d="M679.931,72.575a3.5,3.5,0,0,1,.581.044,2.446,2.446,0,0,1,.436.109V75.4a2.363,2.363,0,0,0-.62-.289,3.141,3.141,0,0,0-.989-.136,2.117,2.117,0,0,0-1.682.819,3.863,3.863,0,0,0-.687,2.52v5.666h-2.705V72.761h2.705v1.768h.045a2.985,2.985,0,0,1,2.916-1.954Z" fill="#737474"/>
        <path d="M690.682,81.155v2.172a5.979,5.979,0,0,1-1.754.671,10.03,10.03,0,0,1-2.314.256,5.4,5.4,0,0,1-4.084-1.517,5.844,5.844,0,0,1-1.458-4.224,6.08,6.08,0,0,1,1.558-4.3,5.148,5.148,0,0,1,3.951-1.686,4.809,4.809,0,0,1,3.7,1.424,5.555,5.555,0,0,1,1.325,3.935v1.277h-7.868a3.154,3.154,0,0,0,1.112,2.363,4.023,4.023,0,0,0,2.408.671,5.919,5.919,0,0,0,1.856-.289A6.109,6.109,0,0,0,690.682,81.155Zm-1.732-3.919a2.888,2.888,0,0,0-.62-2,2.234,2.234,0,0,0-1.749-.688,2.559,2.559,0,0,0-1.743.682,3.455,3.455,0,0,0-1.028,2Z" fill="#737474"/>
      </g>
      <path d="M652.814,46.811V62.463h-2.782V50.194h-.045l-4.973,12.269h-1.843l-5.1-12.269h-.034V62.463h-2.57V46.811h3.989l4.605,11.6h.066l4.862-11.6ZM655.141,48a1.422,1.422,0,0,1,.487-1.1,1.663,1.663,0,0,1,1.156-.442,1.642,1.642,0,0,1,1.185.453A1.455,1.455,0,0,1,658.438,48a1.4,1.4,0,0,1-.481,1.081,1.68,1.68,0,0,1-1.173.436,1.653,1.653,0,0,1-1.168-.441A1.419,1.419,0,0,1,655.141,48Zm2.984,3.242V62.463h-2.7V51.242Zm8.2,9.3a3.808,3.808,0,0,0,1.329-.273,5.654,5.654,0,0,0,1.341-.72V62a5.456,5.456,0,0,1-1.469.546,8.184,8.184,0,0,1-1.8.186,5.613,5.613,0,0,1-4.123-1.567,5.375,5.375,0,0,1-1.587-4,6.31,6.31,0,0,1,1.62-4.459,5.944,5.944,0,0,1,4.593-1.752,6.422,6.422,0,0,1,1.536.191,5.246,5.246,0,0,1,1.235.442v2.533a5.525,5.525,0,0,0-1.279-.693,3.765,3.765,0,0,0-1.336-.246A3.429,3.429,0,0,0,663.8,54.2a3.77,3.77,0,0,0-.984,2.74,3.6,3.6,0,0,0,.945,2.652A3.454,3.454,0,0,0,666.328,60.542ZM676.7,51.057a3.526,3.526,0,0,1,.582.043,2.584,2.584,0,0,1,.436.109v2.675a2.386,2.386,0,0,0-.621-.29,3.137,3.137,0,0,0-.989-.136,2.115,2.115,0,0,0-1.681.819,3.858,3.858,0,0,0-.688,2.521v5.665h-2.7V51.242h2.7V53.01h.045a2.983,2.983,0,0,1,2.916-1.953Zm1.164,5.959a5.594,5.594,0,0,1,6.079-6.036,5.578,5.578,0,0,1,4.207,1.566,5.829,5.829,0,0,1,1.515,4.23,5.563,5.563,0,0,1-5.99,5.96,5.806,5.806,0,0,1-4.241-1.534A5.581,5.581,0,0,1,677.861,57.016Zm2.816-.087a3.945,3.945,0,0,0,.816,2.685,2.941,2.941,0,0,0,2.335.928,2.751,2.751,0,0,0,2.246-.928,4.219,4.219,0,0,0,.771-2.751,4.072,4.072,0,0,0-.8-2.734,2.8,2.8,0,0,0-2.24-.922,2.865,2.865,0,0,0-2.308.966A4.14,4.14,0,0,0,680.677,56.929Zm13.007-2.74a1.119,1.119,0,0,0,.369.89,6.412,6.412,0,0,0,1.632.813,5.55,5.55,0,0,1,2.274,1.424,2.915,2.915,0,0,1,.653,1.916,3.052,3.052,0,0,1-1.246,2.543,5.376,5.376,0,0,1-3.369.961,8.287,8.287,0,0,1-1.581-.17,7.113,7.113,0,0,1-1.47-.431v-2.6a6.742,6.742,0,0,0,1.587.8,4.735,4.735,0,0,0,1.542.295,2.8,2.8,0,0,0,1.353-.251.892.892,0,0,0,.435-.84,1.157,1.157,0,0,0-.452-.923,6.792,6.792,0,0,0-1.716-.868,5.292,5.292,0,0,1-2.123-1.375,2.966,2.966,0,0,1-.626-1.943,3.047,3.047,0,0,1,1.235-2.494,5.009,5.009,0,0,1,3.2-.977,7.95,7.95,0,0,1,1.352.131,6.146,6.146,0,0,1,1.252.339v2.51a5.8,5.8,0,0,0-1.252-.6,4.249,4.249,0,0,0-1.419-.251,2.113,2.113,0,0,0-1.2.294A.931.931,0,0,0,693.684,54.189Zm6.09,2.827a5.594,5.594,0,0,1,6.079-6.036,5.581,5.581,0,0,1,4.208,1.566,5.833,5.833,0,0,1,1.514,4.23,5.562,5.562,0,0,1-5.99,5.96,5.806,5.806,0,0,1-4.241-1.534A5.585,5.585,0,0,1,699.774,57.016Zm2.816-.087a3.945,3.945,0,0,0,.816,2.685,2.943,2.943,0,0,0,2.336.928,2.753,2.753,0,0,0,2.246-.928,4.219,4.219,0,0,0,.771-2.751,4.078,4.078,0,0,0-.8-2.734,2.807,2.807,0,0,0-2.241-.922,2.862,2.862,0,0,0-2.307.966A4.135,4.135,0,0,0,702.59,56.929ZM720.547,53.4h-4.028v9.06h-2.738V53.4h-1.922V51.242h1.922V49.681a3.837,3.837,0,0,1,1.179-2.9,4.191,4.191,0,0,1,3.023-1.129,6.834,6.834,0,0,1,.872.049,3.57,3.57,0,0,1,.67.147v2.281a2.881,2.881,0,0,0-.469-.185,2.488,2.488,0,0,0-.771-.109,1.655,1.655,0,0,0-1.308.518,2.251,2.251,0,0,0-.458,1.534v1.353h4.028V48.721l2.715-.808v3.329H726V53.4h-2.738v5.25a2.176,2.176,0,0,0,.386,1.463,1.558,1.558,0,0,0,1.212.426,1.866,1.866,0,0,0,.564-.109,2.7,2.7,0,0,0,.576-.262v2.183a3.3,3.3,0,0,1-.855.262,5.979,5.979,0,0,1-1.179.12,3.4,3.4,0,0,1-2.564-.89,3.728,3.728,0,0,1-.855-2.68Z" fill="#737474"/>
      <g>
        <rect x="586" y="46.811" width="18.086" height="17.666" fill="#f05125"/>
        <rect x="605.968" y="46.811" width="18.086" height="17.666" fill="#7ebb42"/>
        <rect x="586" y="66.315" width="18.086" height="17.666" fill="#33a0da"/>
        <rect x="605.968" y="66.315" width="18.086" height="17.666" fill="#fdb813"/>
      </g>
      <g>
        <rect x="586" y="46.811" width="18.086" height="17.666" fill="#f05125"/>
        <rect x="605.968" y="46.811" width="18.086" height="17.666" fill="#7ebb42"/>
        <rect x="586" y="66.315" width="18.086" height="17.666" fill="#33a0da"/>
        <rect x="605.968" y="66.315" width="18.086" height="17.666" fill="#fdb813"/>
      </g>
    </g>
    <g>
      <path d="M415.458,30.6a4.747,4.747,0,0,0-4.118-4.609,5.976,5.976,0,0,0-6.146-5.716,6.144,6.144,0,0,0-5.87,4.041,5.654,5.654,0,0,0-4.978,5.454,5.747,5.747,0,0,0,5.895,5.6l.051,0h10.4A4.809,4.809,0,0,0,415.458,30.6Z" fill="url(#linear-gradient-2)"/>
      <path d="M409.911,26.485,407.1,23.75c-.307-.307-.568-.2-.568.277v1.229a.338.338,0,0,1-.338.338h-.016c-1.813,0-6.868.476-7.053,7.391a.354.354,0,0,0,.354.353h1.8a.352.352,0,0,0,.354-.352c0-.011,0-.021,0-.032a4.243,4.243,0,0,1,4.61-5.117.354.354,0,0,1,.353.354v1.137c0,.568.184.661.568.276l2.751-2.535a.354.354,0,0,0,.093-.491A.374.374,0,0,0,409.911,26.485Z" fill="#fff"/>
      <path d="M409.5,39.454a4.871,4.871,0,0,0-4.225-4.687,6.147,6.147,0,0,0-6.331-5.885A6.3,6.3,0,0,0,392.917,33a5.808,5.808,0,0,0-5.117,5.593,5.9,5.9,0,0,0,6.121,5.671h10.443a.716.716,0,0,0,.261,0A4.932,4.932,0,0,0,409.5,39.454Z" fill="url(#linear-gradient-3)"/>
    </g>
    <g>
      <path d="M11.639,5.368a1.018,1.018,0,0,1,.964-.693H19l-6.638,19.67a1.019,1.019,0,0,1-.965.693H6.418a1.019,1.019,0,0,1-.965-1.344Z" fill="url(#linear-gradient-4)"/>
      <path d="M21.864,17.911H11.784a.467.467,0,0,0-.319.808l6.478,6.045a1.015,1.015,0,0,0,.694.274h5.708Z" fill="#0078d4"/>
      <path d="M19,4.675H11.873L5,25.038h7.127L13.59,20.7l4.646,4.336h6.109l-2.481-7.127H14.532Z" fill="url(#linear-gradient-5)"/>
      <path d="M20.761,5.368a1.019,1.019,0,0,0-.965-.693H12.669a1.017,1.017,0,0,1,.964.693l6.186,18.326a1.019,1.019,0,0,1-.965,1.344h7.127a1.019,1.019,0,0,0,.965-1.344Z" fill="url(#linear-gradient-6)"/>
    </g>
    <path d="M33.406,43.66V37.992l6.543-.911V43.66Zm8.173-6.819,9.815-1.366V43.66H41.579Zm9.815,8.449v8.185l-9.815-1.366V45.29ZM39.949,51.869l-6.543-.911V45.29h6.543Z"/>
    <path d="M49.381,76.525a1.1,1.1,0,0,1,.493.39,1.674,1.674,0,0,1,.236.595c.027.136.058.263.092.379a2.272,2.272,0,0,0,.123.328,2.615,2.615,0,0,0,.164.3,2.765,2.765,0,0,0,.246.318,1.371,1.371,0,0,1,.236.369,1.035,1.035,0,0,1,.1.431.648.648,0,0,1-.123.4,1.25,1.25,0,0,1-.308.288,3.566,3.566,0,0,1-.492.287q-.257.123-.513.256a4.79,4.79,0,0,0-.729.431,3.946,3.946,0,0,0-.615.575,3.8,3.8,0,0,1-.821.687,1.92,1.92,0,0,1-.5.226,2.712,2.712,0,0,1-.513.092,2.1,2.1,0,0,1-.984-.2,1.714,1.714,0,0,1-.678-.749.433.433,0,0,0-.164-.2,1.034,1.034,0,0,0-.266-.072l-1.037-.082c-.342-.027-.69-.041-1.046-.041a5.6,5.6,0,0,0-.882.072q-.452.072-.893.174a.337.337,0,0,0-.184.154,2.266,2.266,0,0,1-.257.3,1.445,1.445,0,0,1-.441.287,1.927,1.927,0,0,1-.728.133,4.028,4.028,0,0,1-.729-.072,2.375,2.375,0,0,1-.7-.235,4.7,4.7,0,0,0-1.252-.431q-.615-.114-1.3-.206a4.059,4.059,0,0,1-.451-.082,1.018,1.018,0,0,1-.38-.174.926.926,0,0,1-.256-.287,1.025,1.025,0,0,1-.1-.462,2.287,2.287,0,0,1,.082-.615,2.606,2.606,0,0,0,.092-.626,3.181,3.181,0,0,0-.03-.441,4.562,4.562,0,0,1-.041-.462,1.049,1.049,0,0,1,.246-.769,1.678,1.678,0,0,1,.718-.39,1.32,1.32,0,0,0,.39-.2,2.9,2.9,0,0,0,.308-.267,2.516,2.516,0,0,0,.266-.318,4.4,4.4,0,0,1,.277-.349.146.146,0,0,0,.031-.092c0-.082,0-.161-.01-.236s-.014-.157-.021-.246a4.8,4.8,0,0,1,.216-1.406,8.218,8.218,0,0,1,.564-1.385,12,12,0,0,1,.78-1.3q.431-.625.851-1.159a5.735,5.735,0,0,0,.893-1.58,5.356,5.356,0,0,0,.307-1.785,7.762,7.762,0,0,0-.041-.81,8.146,8.146,0,0,1-.041-.821,5.461,5.461,0,0,1,.185-1.477,3.039,3.039,0,0,1,.575-1.129,2.378,2.378,0,0,1,1.015-.708,4.577,4.577,0,0,1,1.5-.256,2.945,2.945,0,0,1,1.652.41,2.718,2.718,0,0,1,.944,1.078,4.474,4.474,0,0,1,.42,1.487,16.586,16.586,0,0,1,.1,1.662v.174c0,.281,0,.53.01.749a3.42,3.42,0,0,0,.082.647,3.382,3.382,0,0,0,.215.636,3.506,3.506,0,0,0,.431.687q.493.647,1.006,1.3a13.591,13.591,0,0,1,.933,1.354,7.842,7.842,0,0,1,.688,1.457A5.124,5.124,0,0,1,49.6,75.16,4.342,4.342,0,0,1,49.381,76.525Zm-8.607-10.69a.373.373,0,0,1,.236.072.484.484,0,0,1,.144.2,1.087,1.087,0,0,1,.071.246,1.516,1.516,0,0,1,.021.256.368.368,0,0,1-.031.165.342.342,0,0,1-.092.112l-.123.1a1.019,1.019,0,0,0-.123.123.568.568,0,0,1-.2.185,2.734,2.734,0,0,0-.236.154,1.6,1.6,0,0,0-.206.174.349.349,0,0,0-.092.256.181.181,0,0,0,.092.154.921.921,0,0,1,.349.4q.1.237.226.462a1.223,1.223,0,0,0,.318.38.977.977,0,0,0,.6.154H41.8a1.861,1.861,0,0,0,.78-.216q.369-.195.738-.41a.818.818,0,0,1,.134-.062.461.461,0,0,0,.133-.072l.749-.584c.013-.048.024-.093.031-.134s.013-.089.02-.143a.311.311,0,0,0-.051-.185.513.513,0,0,0-.123-.123.455.455,0,0,0-.175-.072,1.275,1.275,0,0,1-.184-.051,1.414,1.414,0,0,1-.462-.185,1.924,1.924,0,0,0-.451-.2.091.091,0,0,1-.062-.062,1.259,1.259,0,0,1-.041-.123.294.294,0,0,1-.01-.133.164.164,0,0,0-.011-.1,1.645,1.645,0,0,1,.021-.256.729.729,0,0,1,.092-.257.552.552,0,0,1,.164-.184.545.545,0,0,1,.267-.072.5.5,0,0,1,.462.236,1.043,1.043,0,0,1,.154.513.512.512,0,0,1-.052.236.5.5,0,0,0-.051.225.12.12,0,0,0,.051.113.326.326,0,0,0,.134.041c.157,0,.26-.037.308-.113a.711.711,0,0,0,.082-.338,3.776,3.776,0,0,0-.041-.523,1.723,1.723,0,0,0-.165-.534,1.266,1.266,0,0,0-.318-.41.747.747,0,0,0-.5-.164.982.982,0,0,0-.77.267,1.214,1.214,0,0,0-.246.8,2.262,2.262,0,0,0,.021.307,2.462,2.462,0,0,1,.02.308c0,.034,0,.052-.01.052a.293.293,0,0,1-.062-.021l-.123-.051a.994.994,0,0,0-.154-.052.7.7,0,0,0-.164-.02c-.013,0-.048,0-.1.01a1.3,1.3,0,0,1-.165.01c-.095,0-.143-.017-.143-.051q0-.153-.021-.39a1.957,1.957,0,0,0-.1-.472,1.306,1.306,0,0,0-.2-.389.473.473,0,0,0-.37-.165.425.425,0,0,0-.3.113,1.191,1.191,0,0,0-.216.267.855.855,0,0,0-.113.349c-.013.13-.027.239-.041.328a1.886,1.886,0,0,0,.021.216,2,2,0,0,0,.072.318,1.93,1.93,0,0,0,.113.287c.041.082.089.123.143.123a.235.235,0,0,0,.134-.072.2.2,0,0,0,.082-.133.041.041,0,0,0-.031-.041.193.193,0,0,0-.062-.011.149.149,0,0,1-.123-.071.636.636,0,0,1-.082-.165c-.02-.061-.041-.126-.061-.194a.342.342,0,0,1-.021-.154.749.749,0,0,1,.092-.37A.376.376,0,0,1,40.774,65.835ZM38.538,81.808a2.851,2.851,0,0,0,.482-.041,1.272,1.272,0,0,0,.441-.164.809.809,0,0,0,.308-.318,1.251,1.251,0,0,0,.123-.493,1.076,1.076,0,0,0-.062-.359,1.279,1.279,0,0,0-.174-.328,3.541,3.541,0,0,0-.267-.369,3.554,3.554,0,0,1-.267-.37q-.2-.287-.379-.564c-.123-.184-.247-.379-.37-.585-.109-.177-.212-.355-.307-.533a3.474,3.474,0,0,0-.349-.523,1.572,1.572,0,0,0-.287-.277.617.617,0,0,0-.38-.123.578.578,0,0,0-.39.143,3.344,3.344,0,0,0-.338.349,4.429,4.429,0,0,1-.39.4,1.544,1.544,0,0,1-.554.308.98.98,0,0,0-.411.226.6.6,0,0,0-.143.441,2.7,2.7,0,0,0,.031.41c.02.137.034.274.041.411a1.665,1.665,0,0,1-.082.523,1.513,1.513,0,0,0-.083.482.412.412,0,0,0,.2.39,1.316,1.316,0,0,0,.442.154q.307.051.584.082a4.643,4.643,0,0,1,.544.092c.178.041.356.086.533.133a2.854,2.854,0,0,1,.565.226,1.361,1.361,0,0,0,.184.072l.277.092c.1.034.2.062.288.082A.941.941,0,0,0,38.538,81.808Zm3.754-1.231a3.357,3.357,0,0,0,.616-.062,4.642,4.642,0,0,0,.656-.174,4.548,4.548,0,0,0,.626-.267,3.361,3.361,0,0,0,.534-.338.265.265,0,0,0,.041-.062.369.369,0,0,0,.03-.082v-.01a4.4,4.4,0,0,0,.1-.493c.027-.177.051-.359.072-.543s.044-.366.072-.544.051-.352.071-.523.062-.363.1-.534a2.705,2.705,0,0,1,.164-.482,1.371,1.371,0,0,1,.277-.4,2.006,2.006,0,0,1,.452-.328v-.021l-.011-.03a.38.38,0,0,1,.062-.195,1.721,1.721,0,0,1,.154-.216.746.746,0,0,1,.2-.174,1.287,1.287,0,0,1,.215-.1q-.061-.246-.133-.492c-.048-.164-.089-.329-.123-.493-.041-.246-.082-.455-.123-.625a3.764,3.764,0,0,0-.144-.472,1.722,1.722,0,0,0-.236-.421c-.1-.137-.229-.3-.38-.492a1.51,1.51,0,0,1-.153-.206.717.717,0,0,1-.062-.256,2.712,2.712,0,0,0-.062-.267c-.034-.13-.078-.28-.133-.451s-.116-.349-.185-.534a3.781,3.781,0,0,0-.225-.5c-.082-.151-.158-.277-.226-.38s-.14-.154-.215-.154a1.217,1.217,0,0,0-.585.195q-.339.195-.718.431c-.253.157-.5.3-.739.441a1.236,1.236,0,0,1-.646.2.914.914,0,0,1-.565-.2,2.9,2.9,0,0,1-.471-.451q-.216-.257-.36-.441a.592.592,0,0,0-.215-.206c-.055,0-.085.041-.092.123s-.011.175-.011.277V69.8a.118.118,0,0,1-.02.082q-.113.236-.246.462t-.267.461a2.289,2.289,0,0,0-.205.482,2.131,2.131,0,0,0-.082.513,2.438,2.438,0,0,0,.02.308.815.815,0,0,0,.1.3l-.021.041a1.755,1.755,0,0,1-.174.205,1.315,1.315,0,0,0-.174.215,3.658,3.658,0,0,0-.534,1.221,6.226,6.226,0,0,0-.164,1.334,3.155,3.155,0,0,0,.02.349,2.9,2.9,0,0,1,.021.348.666.666,0,0,1-.01.113.683.683,0,0,0-.011.113.985.985,0,0,1,.411.144,5.084,5.084,0,0,1,.513.338,3.781,3.781,0,0,1,.523.472q.246.267.472.523a1.8,1.8,0,0,1,.328.513,2.358,2.358,0,0,1,.134.421.582.582,0,0,1-.165.431,1.266,1.266,0,0,1-.41.267,1.9,1.9,0,0,0,.431.523,2.39,2.39,0,0,0,.554.349,2.777,2.777,0,0,0,.646.194A3.9,3.9,0,0,0,42.292,80.577Zm4.114,1.457a1.459,1.459,0,0,0,.421-.062,2.111,2.111,0,0,0,.584-.267,2.42,2.42,0,0,0,.493-.43,3.988,3.988,0,0,1,.585-.554,4.251,4.251,0,0,1,.7-.431c.117-.055.229-.106.339-.154a3.129,3.129,0,0,0,.338-.175,1.239,1.239,0,0,0,.216-.174.335.335,0,0,0,.1-.246.4.4,0,0,0-.03-.154.8.8,0,0,0-.093-.154q-.153-.216-.266-.4a2.448,2.448,0,0,1-.2-.39l-.165-.41a3.467,3.467,0,0,1-.143-.462.368.368,0,0,0-.072-.133.7.7,0,0,0-.6-.308.706.706,0,0,0-.349.092c-.109.062-.226.127-.349.2s-.246.134-.369.195a.855.855,0,0,1-.39.093.543.543,0,0,1-.339-.1.837.837,0,0,1-.225-.277,2.778,2.778,0,0,1-.154-.339c-.041-.109-.082-.222-.123-.338a1.615,1.615,0,0,1-.185.246.876.876,0,0,0-.164.267,2.137,2.137,0,0,0-.164.687q-.051.6-.134,1.159a6.1,6.1,0,0,1-.277,1.129,2.605,2.605,0,0,0-.082.359c-.02.13-.034.256-.041.38a1.164,1.164,0,0,0,.308.83A1.084,1.084,0,0,0,46.406,82.034Z"/>
    <g>
      <g>
        <path d="M115,66.786h37.9v7.105H115Zm16.573,3.552a1.777,1.777,0,1,1-1.776-1.776A1.776,1.776,0,0,1,131.573,70.338Z" fill="#2e76bc" fill-rule="evenodd"/>
        <path d="M119.145,72.114a1.776,1.776,0,1,0-1.777-1.776A1.776,1.776,0,0,0,119.145,72.114Z" fill="#74cfeb"/>
        <path d="M124.471,72.114a1.776,1.776,0,1,0-1.776-1.776A1.776,1.776,0,0,0,124.471,72.114Z" fill="#74cfeb"/>
      </g>
      <g>
        <path d="M115,56.743h37.9v7.106H115ZM131.573,60.3A1.777,1.777,0,1,1,129.8,58.52,1.776,1.776,0,0,1,131.573,60.3Z" fill="#2e76bc" fill-rule="evenodd"/>
        <path d="M119.145,62.072a1.776,1.776,0,1,0-1.777-1.776A1.776,1.776,0,0,0,119.145,62.072Z" fill="#74cfeb"/>
        <path d="M124.471,62.072A1.776,1.776,0,1,0,122.7,60.3,1.776,1.776,0,0,0,124.471,62.072Z" fill="#74cfeb"/>
      </g>
      <g>
        <path d="M115,76.828h37.9v7.105H115Zm16.573,3.552A1.777,1.777,0,1,1,129.8,78.6,1.777,1.777,0,0,1,131.573,80.38Z" fill="#2e76bc" fill-rule="evenodd"/>
        <path d="M119.145,82.157a1.777,1.777,0,1,0-1.777-1.777A1.777,1.777,0,0,0,119.145,82.157Z" fill="#74cfeb"/>
        <path d="M124.471,82.157A1.777,1.777,0,1,0,122.7,80.38,1.777,1.777,0,0,0,124.471,82.157Z" fill="#74cfeb"/>
      </g>
    </g>
    <g>
      <path d="M71,66.786H108.9v7.105H71Zm16.573,3.552A1.777,1.777,0,1,1,85.8,68.562,1.776,1.776,0,0,1,87.573,70.338Z" fill="#2e76bc" fill-rule="evenodd"/>
      <path d="M75.145,72.114a1.776,1.776,0,1,0-1.777-1.776A1.776,1.776,0,0,0,75.145,72.114Z" fill="#74cfeb"/>
      <path d="M80.471,72.114a1.776,1.776,0,1,0-1.776-1.776A1.776,1.776,0,0,0,80.471,72.114Z" fill="#74cfeb"/>
    </g>
    <g>
      <path d="M71,56.743H108.9v7.106H71ZM87.573,60.3A1.777,1.777,0,1,1,85.8,58.52,1.776,1.776,0,0,1,87.573,60.3Z" fill="#2e76bc" fill-rule="evenodd"/>
      <path d="M75.145,62.072A1.776,1.776,0,1,0,73.368,60.3,1.776,1.776,0,0,0,75.145,62.072Z" fill="#74cfeb"/>
      <path d="M80.471,62.072A1.776,1.776,0,1,0,78.695,60.3,1.776,1.776,0,0,0,80.471,62.072Z" fill="#74cfeb"/>
    </g>
    <g>
      <path d="M71,76.828H108.9v7.105H71ZM87.573,80.38A1.777,1.777,0,1,1,85.8,78.6,1.777,1.777,0,0,1,87.573,80.38Z" fill="#2e76bc" fill-rule="evenodd"/>
      <path d="M75.145,82.157a1.777,1.777,0,1,0-1.777-1.777A1.777,1.777,0,0,0,75.145,82.157Z" fill="#74cfeb"/>
      <path d="M80.471,82.157a1.777,1.777,0,1,0-1.776-1.777A1.777,1.777,0,0,0,80.471,82.157Z" fill="#74cfeb"/>
    </g>
    <g>
      <path d="M71,36.659H108.9v7.105H71Zm16.573,3.553A1.777,1.777,0,1,1,85.8,38.436,1.776,1.776,0,0,1,87.573,40.212Z" fill="#2e76bc" fill-rule="evenodd"/>
      <path d="M75.145,41.988a1.776,1.776,0,1,0-1.777-1.776A1.776,1.776,0,0,0,75.145,41.988Z" fill="#74cfeb"/>
      <path d="M80.471,41.988a1.776,1.776,0,1,0-1.776-1.776A1.776,1.776,0,0,0,80.471,41.988Z" fill="#74cfeb"/>
    </g>
    <g>
      <path d="M71,46.7H108.9v7.106H71Zm16.573,3.553A1.777,1.777,0,1,1,85.8,48.478,1.776,1.776,0,0,1,87.573,50.254Z" fill="#2e76bc" fill-rule="evenodd"/>
      <path d="M75.145,52.03a1.776,1.776,0,1,0-1.777-1.776A1.776,1.776,0,0,0,75.145,52.03Z" fill="#74cfeb"/>
      <path d="M80.471,52.03a1.776,1.776,0,1,0-1.776-1.776A1.776,1.776,0,0,0,80.471,52.03Z" fill="#74cfeb"/>
    </g>
    <g>
      <g>
        <path d="M279.221,31.528h37.895v7.105H279.221Zm16.573,3.552a1.777,1.777,0,1,1-1.776-1.776A1.777,1.777,0,0,1,295.794,35.08Z" fill="#505150" fill-rule="evenodd"/>
        <path d="M283.366,36.857a1.777,1.777,0,1,0-1.777-1.777A1.777,1.777,0,0,0,283.366,36.857Z" fill="#74cfeb"/>
        <path d="M288.692,36.857a1.777,1.777,0,1,0-1.776-1.777A1.777,1.777,0,0,0,288.692,36.857Z" fill="#74cfeb"/>
      </g>
      <g>
        <path d="M279.221,41.57h37.895v7.1H279.221Zm16.573,3.552a1.777,1.777,0,1,1-1.776-1.776A1.777,1.777,0,0,1,295.794,45.122Z" fill="#505150" fill-rule="evenodd"/>
        <path d="M283.366,46.9a1.777,1.777,0,1,0-1.777-1.777A1.777,1.777,0,0,0,283.366,46.9Z" fill="#74cfeb"/>
        <path d="M288.692,46.9a1.777,1.777,0,1,0-1.776-1.777A1.777,1.777,0,0,0,288.692,46.9Z" fill="#74cfeb"/>
      </g>
    </g>
    <g>
      <g>
        <path d="M279.221,66.786h37.895v7.105H279.221Zm16.573,3.552a1.777,1.777,0,1,1-1.776-1.776A1.776,1.776,0,0,1,295.794,70.338Z" fill="#207067" fill-rule="evenodd"/>
        <path d="M283.366,72.114a1.776,1.776,0,1,0-1.777-1.776A1.776,1.776,0,0,0,283.366,72.114Z" fill="#74cfeb"/>
        <path d="M288.692,72.114a1.776,1.776,0,1,0-1.776-1.776A1.776,1.776,0,0,0,288.692,72.114Z" fill="#74cfeb"/>
      </g>
      <g>
        <path d="M279.221,76.828h37.895v7.105H279.221Zm16.573,3.552a1.777,1.777,0,1,1-1.776-1.776A1.777,1.777,0,0,1,295.794,80.38Z" fill="#207067" fill-rule="evenodd"/>
        <path d="M283.366,82.157a1.777,1.777,0,1,0-1.777-1.777A1.777,1.777,0,0,0,283.366,82.157Z" fill="#74cfeb"/>
        <path d="M288.692,82.157a1.777,1.777,0,1,0-1.776-1.777A1.777,1.777,0,0,0,288.692,82.157Z" fill="#74cfeb"/>
      </g>
    </g>
    <g>
      <rect x="110.6" y="39.375" width="0.5" height="1" fill="#3c3c41"/>
      <path d="M261.613,40.375h-1v-1h1Zm-2.508,0h-1v-1h1Zm-2.509,0h-1v-1h1Zm-2.508,0h-1v-1h1Zm-2.509,0h-1v-1h1Zm-2.509,0h-1v-1h1Zm-2.508,0h-1v-1h1Zm-2.509,0h-1v-1h1Zm-2.508,0h-1v-1h1Zm-2.509,0h-1v-1h1Zm-2.509,0h-1v-1h1Zm-2.507,0h-1v-1h1Zm-2.509,0h-1v-1h1Zm-2.509,0h-1v-1h1Zm-2.509,0h-1v-1h1Zm-2.509,0h-1v-1h1Zm-2.507,0h-1v-1h1Zm-2.509,0h-1v-1h1Zm-2.509,0h-1v-1h1Zm-2.508,0h-1v-1h1Zm-2.509,0h-1v-1h1Zm-2.508,0h-1v-1h1Zm-2.509,0h-1v-1h1Zm-2.509,0h-1v-1h1Zm-2.508,0h-1v-1h1Zm-2.509,0h-1v-1h1Zm-2.508,0h-1v-1h1Zm-2.508,0h-1v-1h1Zm-2.509,0h-1v-1h1Zm-2.509,0h-1v-1h1Zm-2.509,0h-1v-1h1Zm-2.508,0h-1v-1h1Zm-2.508,0h-1v-1h1Zm-2.509,0h-1v-1h1Zm-2.509,0h-1v-1h1Zm-2.507,0h-1v-1h1Zm-2.509,0h-1v-1h1Zm-2.509,0h-1v-1h1Zm-2.509,0h-1v-1h1Zm-2.509,0h-1v-1h1Zm-2.507,0h-1v-1h1Zm-2.509,0h-1v-1h1Zm-2.509,0h-1v-1h1Zm-2.509,0h-1v-1h1Zm-2.508,0h-1v-1h1Zm-2.508,0h-1v-1h1Zm-2.509,0h-1v-1h1Zm-2.509,0h-1v-1h1Zm-2.508,0h-1v-1h1Zm-2.509,0h-1v-1h1Zm-2.508,0h-1v-1h1Zm-2.508,0h-1v-1h1Zm-2.509,0h-1v-1h1Zm-2.509,0h-1v-1h1Zm-2.509,0h-1v-1h1Zm-2.508,0h-1v-1h1Zm-2.508,0h-1v-1h1Zm-2.509,0h-1v-1h1Zm-2.509,0h-1v-1h1Zm-2.508,0h-1v-1h1Z" fill="#3c3c41"/>
      <rect x="263.117" y="39.375" width="0.5" height="1" fill="#3c3c41"/>
      <polygon points="262.523 43.615 269 39.875 262.523 36.135 262.523 43.615" fill="#3c3c41"/>
    </g>
    <g>
      <line x1="377.4" y1="66.275" x2="575.618" y2="66.275" fill="none" stroke="#3c3c41" stroke-miterlimit="10"/>
      <polygon points="574.524 70.015 581 66.275 574.524 62.535 574.524 70.015" fill="#3c3c41"/>
    </g>
    <g>
      <rect x="159" y="70.175" width="0.5" height="1" fill="#3c3c41"/>
      <path d="M261.623,71.175h-1v-1h1Zm-2.491,0h-1v-1h1Zm-2.49,0h-1v-1h1Zm-2.492,0h-1v-1h1Zm-2.49,0h-1v-1h1Zm-2.491,0h-1v-1h1Zm-2.491,0h-1v-1h1Zm-2.49,0h-1v-1h1Zm-2.492,0h-1v-1h1Zm-2.49,0h-1v-1h1Zm-2.491,0h-1v-1h1Zm-2.491,0h-1v-1h1Zm-2.491,0h-1v-1h1Zm-2.491,0h-1v-1h1Zm-2.49,0h-1v-1h1Zm-2.491,0h-1v-1h1Zm-2.491,0h-1v-1h1Zm-2.491,0h-1v-1h1Zm-2.491,0h-1v-1h1Zm-2.49,0h-1v-1h1Zm-2.491,0h-1v-1h1Zm-2.491,0h-1v-1h1Zm-2.491,0h-1v-1h1Zm-2.491,0h-1v-1h1Zm-2.49,0h-1v-1h1Zm-2.491,0h-1v-1h1Zm-2.491,0h-1v-1h1Zm-2.491,0h-1v-1h1Zm-2.491,0h-1v-1h1Zm-2.49,0h-1v-1h1Zm-2.492,0h-1v-1h1Zm-2.49,0h-1v-1h1Zm-2.491,0h-1v-1h1Zm-2.491,0h-1v-1h1Zm-2.49,0h-1v-1h1Zm-2.492,0h-1v-1h1Zm-2.49,0h-1v-1h1Zm-2.491,0h-1v-1h1Zm-2.491,0h-1v-1h1Zm-2.491,0h-1v-1h1Zm-2.491,0h-1v-1h1Z" fill="#3c3c41"/>
      <rect x="263.117" y="70.175" width="0.5" height="1" fill="#3c3c41"/>
      <polygon points="262.523 74.415 269 70.675 262.523 66.935 262.523 74.415" fill="#3c3c41"/>
    </g>
  </g>
  <g id="Text">
    <g>
      <path d="M433.684,37.176h-2.406l-.7-2.181h-3.487l-.69,2.181h-2.393l3.569-9.8H430.2ZM430.075,33.3l-1.053-3.295a4.263,4.263,0,0,1-.164-.882H428.8a3.7,3.7,0,0,1-.171.854L427.566,33.3Z" fill="#2f2f2f"/>
      <path d="M440.59,37.176h-6.282v-.9l3.513-4.512h-3.165V30.176h5.907v1.066l-3.33,4.341h3.357Z" fill="#2f2f2f"/>
      <path d="M448.472,37.176h-2.154V36.109h-.034a2.441,2.441,0,0,1-2.139,1.237q-2.434,0-2.434-2.946V30.176h2.153v4.033q0,1.483,1.176,1.483a1.166,1.166,0,0,0,.93-.407,1.642,1.642,0,0,0,.348-1.1v-4h2.154Z" fill="#2f2f2f"/>
      <path d="M454.806,32.124a1.878,1.878,0,0,0-.909-.212,1.312,1.312,0,0,0-1.1.516,2.255,2.255,0,0,0-.4,1.405v3.343h-2.16v-7h2.16v1.3h.027a1.869,1.869,0,0,1,1.846-1.421,1.381,1.381,0,0,1,.533.082Z" fill="#2f2f2f"/>
      <path d="M462.179,34.291h-4.567q.109,1.524,1.921,1.524a3.751,3.751,0,0,0,2.031-.547v1.559a5.339,5.339,0,0,1-2.523.519,3.256,3.256,0,0,1-3.568-3.561,3.748,3.748,0,0,1,1.011-2.762,3.372,3.372,0,0,1,2.489-1.018,3.057,3.057,0,0,1,2.368.909,3.5,3.5,0,0,1,.838,2.468Zm-2-1.326q0-1.5-1.217-1.5a1.162,1.162,0,0,0-.9.43,1.952,1.952,0,0,0-.461,1.074Z" fill="#2f2f2f"/>
      <path d="M467.087,36.8V34.612a4.2,4.2,0,0,0,1.292.749,4.16,4.16,0,0,0,1.408.249,3.128,3.128,0,0,0,.728-.075,1.7,1.7,0,0,0,.52-.209.9.9,0,0,0,.311-.314.789.789,0,0,0,.1-.393.849.849,0,0,0-.164-.513,1.777,1.777,0,0,0-.448-.417,4.764,4.764,0,0,0-.673-.369q-.39-.178-.841-.362a4.3,4.3,0,0,1-1.712-1.169,2.553,2.553,0,0,1-.564-1.668,2.649,2.649,0,0,1,.308-1.316,2.612,2.612,0,0,1,.837-.906,3.758,3.758,0,0,1,1.227-.523,6.289,6.289,0,0,1,1.477-.167,8.963,8.963,0,0,1,1.357.092,5.347,5.347,0,0,1,1.09.284v2.044a3.238,3.238,0,0,0-.537-.3,4.5,4.5,0,0,0-1.787-.383,3,3,0,0,0-.684.072,1.758,1.758,0,0,0-.52.2,1,1,0,0,0-.328.311.738.738,0,0,0-.116.406.782.782,0,0,0,.13.441,1.482,1.482,0,0,0,.369.369,3.9,3.9,0,0,0,.581.342q.342.168.773.345a8.66,8.66,0,0,1,1.056.523,3.747,3.747,0,0,1,.8.626,2.45,2.45,0,0,1,.513.8,2.827,2.827,0,0,1,.177,1.043,2.782,2.782,0,0,1-.311,1.377,2.5,2.5,0,0,1-.844.9,3.657,3.657,0,0,1-1.24.5,7.2,7.2,0,0,1-1.494.15,8.326,8.326,0,0,1-1.535-.136A4.669,4.669,0,0,1,467.087,36.8Z" fill="#2f2f2f"/>
      <path d="M476.232,29.068a1.259,1.259,0,0,1-.9-.325,1.046,1.046,0,0,1-.349-.8,1.01,1.01,0,0,1,.349-.793,1.46,1.46,0,0,1,1.794,0,1.014,1.014,0,0,1,.346.793,1.045,1.045,0,0,1-.346.807A1.284,1.284,0,0,1,476.232,29.068Zm1.067,8.108h-2.16v-7h2.16Z" fill="#2f2f2f"/>
      <path d="M483.235,37.094a3.2,3.2,0,0,1-1.442.252q-2.283,0-2.283-2.372V31.768h-1.135V30.176h1.135V28.665l2.153-.615v2.126h1.572v1.592h-1.572V34.6q0,1.093.868,1.094a1.463,1.463,0,0,0,.7-.2Z" fill="#2f2f2f"/>
      <path d="M490.722,34.291h-4.567q.11,1.524,1.921,1.524a3.745,3.745,0,0,0,2.03-.547v1.559a5.332,5.332,0,0,1-2.522.519,3.256,3.256,0,0,1-3.568-3.561,3.748,3.748,0,0,1,1.011-2.762,3.372,3.372,0,0,1,2.489-1.018,3.057,3.057,0,0,1,2.368.909,3.5,3.5,0,0,1,.838,2.468Zm-2-1.326q0-1.5-1.217-1.5a1.162,1.162,0,0,0-.9.43,1.952,1.952,0,0,0-.461,1.074Z" fill="#2f2f2f"/>
      <path d="M504.305,37.176h-2.536l-1.525-2.523q-.171-.286-.328-.513a2.885,2.885,0,0,0-.318-.386,1.268,1.268,0,0,0-.335-.246.846.846,0,0,0-.379-.085h-.6v3.753h-2.208v-9.8h3.5q3.568,0,3.568,2.666a2.759,2.759,0,0,1-.157.947,2.638,2.638,0,0,1-.444.782,2.829,2.829,0,0,1-.694.6,3.569,3.569,0,0,1-.906.4v.028a1.384,1.384,0,0,1,.424.222,2.989,2.989,0,0,1,.4.359,5,5,0,0,1,.365.441c.117.157.222.311.318.461Zm-6.016-8.149v2.728h.957a1.589,1.589,0,0,0,1.142-.41,1.373,1.373,0,0,0,.437-1.033q0-1.286-1.538-1.285Z" fill="#2f2f2f"/>
      <path d="M511.123,34.291h-4.567q.11,1.524,1.921,1.524a3.745,3.745,0,0,0,2.03-.547v1.559a5.334,5.334,0,0,1-2.522.519,3.256,3.256,0,0,1-3.568-3.561,3.748,3.748,0,0,1,1.011-2.762,3.372,3.372,0,0,1,2.489-1.018,3.057,3.057,0,0,1,2.368.909,3.5,3.5,0,0,1,.838,2.468Zm-2-1.326q0-1.5-1.217-1.5a1.162,1.162,0,0,0-.9.43,1.952,1.952,0,0,0-.461,1.074Z" fill="#2f2f2f"/>
      <path d="M517.794,36.923a4.278,4.278,0,0,1-2.113.423,3.57,3.57,0,0,1-2.611-.977,3.375,3.375,0,0,1-1-2.523,3.719,3.719,0,0,1,1.07-2.813A3.952,3.952,0,0,1,516,30.005a3.672,3.672,0,0,1,1.792.328v1.832a2.459,2.459,0,0,0-1.512-.506,1.99,1.99,0,0,0-1.472.543,2.028,2.028,0,0,0-.544,1.5,1.991,1.991,0,0,0,.52,1.459,1.908,1.908,0,0,0,1.428.53,2.848,2.848,0,0,0,1.58-.506Z" fill="#2f2f2f"/>
      <path d="M522.523,37.346a3.764,3.764,0,0,1-2.751-.98,3.56,3.56,0,0,1-1-2.663,3.553,3.553,0,0,1,1.039-2.717,3.924,3.924,0,0,1,2.809-.981,3.721,3.721,0,0,1,2.735.981,3.483,3.483,0,0,1,.991,2.594,3.7,3.7,0,0,1-1.022,2.755A3.807,3.807,0,0,1,522.523,37.346Zm.055-5.687a1.438,1.438,0,0,0-1.189.526,2.32,2.32,0,0,0-.424,1.491q0,2.016,1.627,2.016,1.551,0,1.552-2.071Q524.144,31.659,522.578,31.659Z" fill="#2f2f2f"/>
      <path d="M534.212,30.176l-2.605,7h-2.46l-2.482-7h2.311l1.216,4.313a6.3,6.3,0,0,1,.24,1.244h.027a7.044,7.044,0,0,1,.253-1.2l1.244-4.354Z" fill="#2f2f2f"/>
      <path d="M541.2,34.291h-4.566q.11,1.524,1.921,1.524a3.745,3.745,0,0,0,2.03-.547v1.559a5.337,5.337,0,0,1-2.522.519,3.258,3.258,0,0,1-3.569-3.561,3.745,3.745,0,0,1,1.012-2.762,3.371,3.371,0,0,1,2.488-1.018,3.06,3.06,0,0,1,2.369.909,3.5,3.5,0,0,1,.837,2.468Zm-2-1.326q0-1.5-1.216-1.5a1.159,1.159,0,0,0-.9.43,1.953,1.953,0,0,0-.462,1.074Z" fill="#2f2f2f"/>
      <path d="M547.132,32.124a1.878,1.878,0,0,0-.909-.212,1.311,1.311,0,0,0-1.1.516,2.249,2.249,0,0,0-.4,1.405v3.343h-2.161v-7h2.161v1.3h.027a1.869,1.869,0,0,1,1.846-1.421,1.388,1.388,0,0,1,.533.082Z" fill="#2f2f2f"/>
      <path d="M555.251,30.176l-2.844,7.56q-1.024,2.727-3.09,2.728a3.944,3.944,0,0,1-1.292-.178V38.563a1.818,1.818,0,0,0,.937.253,1.17,1.17,0,0,0,1.162-.786l.369-.868-2.844-6.986h2.393l1.306,4.258a5.6,5.6,0,0,1,.191.937h.027a6.6,6.6,0,0,1,.226-.923l1.319-4.272Z" fill="#2f2f2f"/>
    </g>
    <g>
      <path d="M168.38,27.073v5.548h1.079V33.5H168.38v1.975h-.949V33.5h-3.949v-.832q.55-.621,1.113-1.327t1.075-1.433q.513-.726.95-1.45a13.2,13.2,0,0,0,.735-1.385Zm-3.814,5.548h2.865V28.508q-.44.768-.832,1.371t-.747,1.1q-.354.492-.677.891T164.566,32.621Z"/>
      <path d="M174.849,27.073v5.548h1.078V33.5h-1.078v1.975H173.9V33.5h-3.949v-.832q.551-.621,1.113-1.327t1.075-1.433q.513-.726.949-1.45a13.218,13.218,0,0,0,.736-1.385Zm-3.814,5.548H173.9V28.508q-.44.768-.832,1.371t-.747,1.1q-.354.492-.677.891T171.035,32.621Z"/>
      <path d="M181.921,33.1a2.455,2.455,0,0,1-.213,1.034,2.286,2.286,0,0,1-.6.8,2.777,2.777,0,0,1-.935.513,3.779,3.779,0,0,1-1.2.181,3.49,3.49,0,0,1-1.91-.457V34.133A3.064,3.064,0,0,0,179,34.8a2.65,2.65,0,0,0,.794-.111,1.769,1.769,0,0,0,.61-.323,1.414,1.414,0,0,0,.392-.509,1.592,1.592,0,0,0,.138-.674q0-1.647-2.344-1.647h-.7v-.814h.662q2.075,0,2.074-1.547,0-1.43-1.582-1.43a2.7,2.7,0,0,0-1.67.6v-.932a3.657,3.657,0,0,1,1.911-.48,2.959,2.959,0,0,1,.955.146,2.19,2.19,0,0,1,.732.411,1.819,1.819,0,0,1,.472.632,1.96,1.96,0,0,1,.167.815,2.052,2.052,0,0,1-1.676,2.133v.023a2.656,2.656,0,0,1,.791.208,2.125,2.125,0,0,1,.627.419,1.874,1.874,0,0,1,.413.606A1.935,1.935,0,0,1,181.921,33.1Z"/>
      <path d="M189.585,37.385h-.855a7.488,7.488,0,0,1-1.816-5.115,7.769,7.769,0,0,1,1.816-5.2h.867a7.9,7.9,0,0,0-1.84,5.185A7.763,7.763,0,0,0,189.585,37.385Z"/>
      <path d="M197.132,35.475h-.984V31.643H191.8v3.832h-.984v-8.4h.984v3.685h4.348V27.073h.984Z"/>
      <path d="M204.3,27.963h-2.426v7.512h-.984V27.963h-2.42v-.89h5.83Z"/>
      <path d="M210.826,27.963H208.4v7.512h-.984V27.963H205v-.89h5.83Z"/>
      <path d="M213.128,32.3v3.176h-.984v-8.4h2.309a3.047,3.047,0,0,1,2.089.656,2.341,2.341,0,0,1,.741,1.851,2.548,2.548,0,0,1-.823,1.957,3.147,3.147,0,0,1-2.224.762Zm0-4.336v3.445h1.032a2.307,2.307,0,0,0,1.555-.465,1.649,1.649,0,0,0,.537-1.316q0-1.663-1.969-1.664Z"/>
      <path d="M218.472,35.135v-1.16a2.228,2.228,0,0,0,.478.316,3.883,3.883,0,0,0,.586.238,4.705,4.705,0,0,0,.618.149,3.46,3.46,0,0,0,.574.053,2.255,2.255,0,0,0,1.357-.337,1.263,1.263,0,0,0,.3-1.562,1.674,1.674,0,0,0-.413-.46,4.178,4.178,0,0,0-.624-.4q-.36-.19-.776-.4-.44-.224-.82-.452a3.543,3.543,0,0,1-.663-.5,2.087,2.087,0,0,1-.442-.624,2.127,2.127,0,0,1,.091-1.816,2.161,2.161,0,0,1,.662-.7,2.99,2.99,0,0,1,.935-.41,4.268,4.268,0,0,1,1.069-.135,4.1,4.1,0,0,1,1.81.3v1.107a3.278,3.278,0,0,0-1.91-.515,3.13,3.13,0,0,0-.644.067,1.81,1.81,0,0,0-.574.22,1.274,1.274,0,0,0-.411.392,1.047,1.047,0,0,0-.158.586,1.208,1.208,0,0,0,.12.557,1.373,1.373,0,0,0,.355.428,3.622,3.622,0,0,0,.571.375c.225.121.483.253.776.4s.586.3.856.469a3.887,3.887,0,0,1,.709.545,2.419,2.419,0,0,1,.483.662,1.861,1.861,0,0,1,.179.832,2.115,2.115,0,0,1-.243,1.052,2,2,0,0,1-.656.7,2.883,2.883,0,0,1-.953.389,5.213,5.213,0,0,1-1.136.121,4.514,4.514,0,0,1-.492-.033q-.294-.032-.6-.093a4.759,4.759,0,0,1-.577-.153A1.793,1.793,0,0,1,218.472,35.135Z"/>
      <path d="M225.134,37.385h-.855a7.758,7.758,0,0,0,1.828-5.127,7.892,7.892,0,0,0-1.84-5.185h.867a7.738,7.738,0,0,1,1.828,5.2A7.458,7.458,0,0,1,225.134,37.385Z"/>
    </g>
    <g>
      <path d="M428.923,49.073v5.548H430V55.5h-1.078v1.975h-.949V55.5h-3.95v-.832q.552-.621,1.114-1.327t1.075-1.433q.513-.726.949-1.45a13.2,13.2,0,0,0,.735-1.385Zm-3.815,5.548h2.866V50.508q-.44.768-.832,1.371t-.747,1.1q-.355.492-.677.891T425.108,54.621Z"/>
      <path d="M435.392,49.073v5.548h1.078V55.5h-1.078v1.975h-.95V55.5h-3.949v-.832q.55-.621,1.113-1.327t1.076-1.433q.512-.726.949-1.45a13.2,13.2,0,0,0,.735-1.385Zm-3.815,5.548h2.865V50.508q-.44.768-.832,1.371t-.747,1.1q-.354.492-.676.891T431.577,54.621Z"/>
      <path d="M442.464,55.1a2.44,2.44,0,0,1-.214,1.034,2.3,2.3,0,0,1-.6.8,2.786,2.786,0,0,1-.935.513,3.783,3.783,0,0,1-1.2.181,3.485,3.485,0,0,1-1.91-.457V56.133a3.06,3.06,0,0,0,1.945.668,2.65,2.65,0,0,0,.794-.111,1.773,1.773,0,0,0,.609-.323,1.428,1.428,0,0,0,.393-.509,1.592,1.592,0,0,0,.138-.674q0-1.647-2.344-1.647h-.7v-.814h.662q2.073,0,2.074-1.547,0-1.43-1.582-1.43a2.7,2.7,0,0,0-1.67.6v-.932a3.653,3.653,0,0,1,1.91-.48,2.95,2.95,0,0,1,.955.146,2.205,2.205,0,0,1,.733.411,1.8,1.8,0,0,1,.471.632,1.945,1.945,0,0,1,.167.815,2.051,2.051,0,0,1-1.676,2.133v.023a2.648,2.648,0,0,1,.791.208,2.1,2.1,0,0,1,.627.419,1.858,1.858,0,0,1,.413.606A1.935,1.935,0,0,1,442.464,55.1Z"/>
      <path d="M450.128,59.385h-.856a7.493,7.493,0,0,1-1.816-5.115,7.775,7.775,0,0,1,1.816-5.2h.868a7.892,7.892,0,0,0-1.84,5.185A7.758,7.758,0,0,0,450.128,59.385Z"/>
      <path d="M457.675,57.475h-.985V53.643h-4.347v3.832h-.985v-8.4h.985v3.685h4.347V49.073h.985Z"/>
      <path d="M464.847,49.963h-2.426v7.512h-.984V49.963h-2.42v-.89h5.83Z"/>
      <path d="M471.368,49.963h-2.426v7.512h-.984V49.963h-2.42v-.89h5.83Z"/>
      <path d="M473.671,54.3v3.176h-.984v-8.4H475a3.044,3.044,0,0,1,2.089.656,2.341,2.341,0,0,1,.741,1.851A2.544,2.544,0,0,1,477,53.537a3.145,3.145,0,0,1-2.224.762Zm0-4.336v3.445H474.7a2.31,2.31,0,0,0,1.556-.465,1.651,1.651,0,0,0,.536-1.316q0-1.664-1.969-1.664Z"/>
      <path d="M479.015,57.135v-1.16a2.22,2.22,0,0,0,.477.316,3.926,3.926,0,0,0,.586.238,4.705,4.705,0,0,0,.618.149,3.472,3.472,0,0,0,.575.053,2.253,2.253,0,0,0,1.356-.337,1.266,1.266,0,0,0,.3-1.562,1.69,1.69,0,0,0-.413-.46,4.178,4.178,0,0,0-.624-.4c-.241-.127-.5-.261-.777-.4q-.44-.224-.82-.452a3.5,3.5,0,0,1-.662-.5,2.069,2.069,0,0,1-.442-.624,2.122,2.122,0,0,1,.09-1.816,2.161,2.161,0,0,1,.662-.7,3,3,0,0,1,.935-.41,4.273,4.273,0,0,1,1.069-.135,4.1,4.1,0,0,1,1.811.3v1.107a3.28,3.28,0,0,0-1.91-.515,3.14,3.14,0,0,0-.645.067,1.81,1.81,0,0,0-.574.22,1.261,1.261,0,0,0-.41.392,1.039,1.039,0,0,0-.158.586,1.208,1.208,0,0,0,.12.557,1.369,1.369,0,0,0,.354.428,3.682,3.682,0,0,0,.572.375c.224.121.483.253.776.4s.586.305.855.469a3.853,3.853,0,0,1,.709.545,2.423,2.423,0,0,1,.484.662,1.861,1.861,0,0,1,.178.832,2.115,2.115,0,0,1-.243,1.052,2,2,0,0,1-.656.7,2.877,2.877,0,0,1-.952.389,5.215,5.215,0,0,1-1.137.121,4.514,4.514,0,0,1-.492-.033c-.195-.021-.395-.052-.6-.093a4.809,4.809,0,0,1-.577-.153A1.784,1.784,0,0,1,479.015,57.135Z"/>
      <path d="M485.677,59.385h-.856a7.758,7.758,0,0,0,1.828-5.127,7.9,7.9,0,0,0-1.839-5.185h.867a7.738,7.738,0,0,1,1.828,5.2A7.458,7.458,0,0,1,485.677,59.385Z"/>
    </g>
    <g>
      <path d="M425.044,83.875v-8.4h2.32q4.442,0,4.442,4.1a4.125,4.125,0,0,1-1.234,3.126,4.575,4.575,0,0,1-3.3,1.181Zm.984-7.512v6.621h1.254a3.56,3.56,0,0,0,2.573-.885,3.314,3.314,0,0,0,.919-2.507q0-3.23-3.433-3.229Z"/>
      <path d="M437.624,83.875h-.961v-.938h-.023a2.012,2.012,0,0,1-1.846,1.078,1.973,1.973,0,0,1-1.4-.474,1.646,1.646,0,0,1-.507-1.26q0-1.682,1.98-1.957l1.8-.252q0-1.529-1.236-1.529a2.954,2.954,0,0,0-1.957.738V78.3a3.718,3.718,0,0,1,2.039-.563q2.115,0,2.115,2.238Zm-.961-3.035-1.447.2a2.35,2.35,0,0,0-1.008.331.953.953,0,0,0-.34.841.917.917,0,0,0,.314.718,1.213,1.213,0,0,0,.835.278,1.541,1.541,0,0,0,1.18-.5,1.789,1.789,0,0,0,.466-1.269Z"/>
      <path d="M442.218,83.816a1.856,1.856,0,0,1-.9.188q-1.575,0-1.576-1.758V78.695h-1.031v-.82h1.031V76.41l.961-.311v1.776h1.512v.82h-1.512v3.381a1.4,1.4,0,0,0,.2.861.818.818,0,0,0,.68.258,1.01,1.01,0,0,0,.627-.2Z"/>
      <path d="M447.8,83.875h-.961v-.938h-.023a2.012,2.012,0,0,1-1.846,1.078,1.971,1.971,0,0,1-1.4-.474,1.646,1.646,0,0,1-.507-1.26q0-1.682,1.98-1.957l1.8-.252q0-1.529-1.236-1.529a2.954,2.954,0,0,0-1.957.738V78.3a3.715,3.715,0,0,1,2.039-.563q2.115,0,2.115,2.238Zm-.961-3.035-1.447.2a2.341,2.341,0,0,0-1.008.331.953.953,0,0,0-.34.841.917.917,0,0,0,.314.718,1.213,1.213,0,0,0,.835.278,1.541,1.541,0,0,0,1.18-.5,1.789,1.789,0,0,0,.466-1.269Z"/>
      <path d="M456.983,83.6a3.114,3.114,0,0,1-1.64.416,2.713,2.713,0,0,1-2.071-.835,3.022,3.022,0,0,1-.789-2.165,3.326,3.326,0,0,1,.85-2.381,2.97,2.97,0,0,1,2.268-.9,3.158,3.158,0,0,1,1.394.293v.985a2.44,2.44,0,0,0-1.43-.469,1.928,1.928,0,0,0-1.508.659,2.5,2.5,0,0,0-.589,1.731,2.376,2.376,0,0,0,.554,1.664,1.906,1.906,0,0,0,1.485.61,2.406,2.406,0,0,0,1.476-.522Z"/>
      <path d="M463.417,83.875h-.961V80.418q0-1.875-1.394-1.875a1.518,1.518,0,0,0-1.184.542,2.02,2.02,0,0,0-.481,1.391v3.4h-.96V74.992h.96v3.879h.024a2.182,2.182,0,0,1,1.969-1.137q2.026,0,2.027,2.444Z"/>
      <path d="M469.522,83.875h-.96v-.938h-.024a2.011,2.011,0,0,1-1.846,1.078,1.975,1.975,0,0,1-1.4-.474,1.646,1.646,0,0,1-.507-1.26q0-1.682,1.981-1.957l1.8-.252q0-1.529-1.237-1.529a2.955,2.955,0,0,0-1.957.738V78.3a3.72,3.72,0,0,1,2.039-.563q2.115,0,2.115,2.238Zm-.96-3.035-1.448.2a2.35,2.35,0,0,0-1.008.331.955.955,0,0,0-.339.841.916.916,0,0,0,.313.718,1.213,1.213,0,0,0,.835.278,1.543,1.543,0,0,0,1.181-.5,1.793,1.793,0,0,0,.466-1.269Z"/>
      <path d="M476.314,83.875h-.961V80.453q0-1.911-1.395-1.91a1.51,1.51,0,0,0-1.192.542,2.005,2.005,0,0,0-.472,1.368v3.422h-.961v-6h.961v1h.023a2.167,2.167,0,0,1,1.969-1.137,1.836,1.836,0,0,1,1.506.636,2.83,2.83,0,0,1,.522,1.837Z"/>
      <path d="M483.105,83.875h-.961V80.453q0-1.911-1.395-1.91a1.51,1.51,0,0,0-1.192.542,2.005,2.005,0,0,0-.472,1.368v3.422h-.961v-6h.961v1h.023a2.167,2.167,0,0,1,1.969-1.137,1.836,1.836,0,0,1,1.506.636,2.83,2.83,0,0,1,.522,1.837Z"/>
      <path d="M489.737,81.115H485.5a2.245,2.245,0,0,0,.539,1.547,1.859,1.859,0,0,0,1.418.545,2.948,2.948,0,0,0,1.863-.668v.9a3.478,3.478,0,0,1-2.091.574,2.538,2.538,0,0,1-2-.817,3.347,3.347,0,0,1-.726-2.3,3.283,3.283,0,0,1,.794-2.282,2.544,2.544,0,0,1,1.972-.882,2.255,2.255,0,0,1,1.822.762,3.18,3.18,0,0,1,.644,2.115Zm-.984-.814a1.958,1.958,0,0,0-.4-1.3,1.367,1.367,0,0,0-1.1-.463,1.552,1.552,0,0,0-1.154.486,2.2,2.2,0,0,0-.586,1.272Z"/>
      <path d="M492.151,83.875h-.961V74.992h.961Z"/>
    </g>
    <g>
      <path d="M333.02,35.123a4.927,4.927,0,0,1-2.32.493,3.738,3.738,0,0,1-2.871-1.155,4.256,4.256,0,0,1-1.078-3.029,4.466,4.466,0,0,1,1.212-3.258,4.118,4.118,0,0,1,3.077-1.242,4.922,4.922,0,0,1,1.98.346v1.048a4.027,4.027,0,0,0-1.992-.5,3.059,3.059,0,0,0-2.347.966,3.646,3.646,0,0,0-.9,2.584,3.465,3.465,0,0,0,.841,2.447,2.86,2.86,0,0,0,2.206.911,4.139,4.139,0,0,0,2.191-.563Z"/>
      <path d="M337.11,35.616a2.784,2.784,0,0,1-2.124-.841,3.117,3.117,0,0,1-.794-2.23,3.242,3.242,0,0,1,.826-2.361,2.969,2.969,0,0,1,2.233-.85,2.693,2.693,0,0,1,2.094.826,3.277,3.277,0,0,1,.753,2.291,3.223,3.223,0,0,1-.811,2.3A2.845,2.845,0,0,1,337.11,35.616Zm.07-5.473a1.829,1.829,0,0,0-1.465.63,2.589,2.589,0,0,0-.539,1.737,2.449,2.449,0,0,0,.545,1.682,1.854,1.854,0,0,0,1.459.615,1.756,1.756,0,0,0,1.433-.6,2.616,2.616,0,0,0,.5-1.716,2.665,2.665,0,0,0-.5-1.735A1.75,1.75,0,0,0,337.18,30.143Z"/>
      <path d="M346.614,35.475h-.961V32.053q0-1.909-1.4-1.91a1.513,1.513,0,0,0-1.192.542,2.01,2.01,0,0,0-.472,1.368v3.422h-.961v-6h.961v1h.024a2.165,2.165,0,0,1,1.968-1.137,1.834,1.834,0,0,1,1.506.636,2.83,2.83,0,0,1,.522,1.837Z"/>
      <path d="M351.389,27.436a1.271,1.271,0,0,0-.638-.158q-1.008,0-1.008,1.271v.926h1.406v.82h-1.406v5.18h-.955V30.3h-1.026v-.82h1.026V28.5a2.017,2.017,0,0,1,.545-1.491,1.839,1.839,0,0,1,1.359-.548,1.866,1.866,0,0,1,.7.106Z"/>
      <path d="M352.672,27.951a.609.609,0,0,1-.439-.175.6.6,0,0,1-.182-.446.616.616,0,0,1,.621-.627.623.623,0,0,1,.449.179.628.628,0,0,1,0,.888A.616.616,0,0,1,352.672,27.951Zm.469,7.524h-.961v-6h.961Z"/>
      <path d="M360.208,34.994q0,3.306-3.165,3.305a4.252,4.252,0,0,1-1.945-.422v-.961a4,4,0,0,0,1.934.563q2.214,0,2.215-2.356v-.656h-.024a2.427,2.427,0,0,1-3.864.349,3.2,3.2,0,0,1-.683-2.148,3.729,3.729,0,0,1,.736-2.431,2.455,2.455,0,0,1,2.012-.9,1.954,1.954,0,0,1,1.8.973h.024v-.832h.961Zm-.961-2.232v-.885a1.716,1.716,0,0,0-.484-1.224,1.59,1.59,0,0,0-1.2-.51,1.669,1.669,0,0,0-1.394.647,2.891,2.891,0,0,0-.5,1.814,2.48,2.48,0,0,0,.483,1.6,1.56,1.56,0,0,0,1.28.6,1.673,1.673,0,0,0,1.316-.574A2.14,2.14,0,0,0,359.247,32.762Z"/>
      <path d="M326.809,48.458V47.427a2.844,2.844,0,0,0,1.729.58q1.264,0,1.265-.844a.733.733,0,0,0-.108-.407,1.083,1.083,0,0,0-.293-.3,2.235,2.235,0,0,0-.434-.231c-.166-.069-.344-.14-.536-.214a7.168,7.168,0,0,1-.7-.319,2.135,2.135,0,0,1-.5-.364,1.35,1.35,0,0,1-.305-.46,1.634,1.634,0,0,1-.1-.6,1.433,1.433,0,0,1,.193-.747,1.708,1.708,0,0,1,.516-.545,2.391,2.391,0,0,1,.735-.331,3.278,3.278,0,0,1,.853-.112,3.436,3.436,0,0,1,1.394.27v.973a2.717,2.717,0,0,0-1.523-.434,1.787,1.787,0,0,0-.487.062,1.2,1.2,0,0,0-.372.172.821.821,0,0,0-.24.267.712.712,0,0,0-.085.343.827.827,0,0,0,.085.392.869.869,0,0,0,.249.282,1.888,1.888,0,0,0,.4.222q.234.1.533.217a7.461,7.461,0,0,1,.715.314,2.44,2.44,0,0,1,.539.363,1.441,1.441,0,0,1,.343.466,1.5,1.5,0,0,1,.12.627,1.476,1.476,0,0,1-.2.773,1.682,1.682,0,0,1-.524.545,2.388,2.388,0,0,1-.756.322,3.7,3.7,0,0,1-.9.106A3.4,3.4,0,0,1,326.809,48.458Z"/>
      <path d="M337.086,45.915H332.85a2.245,2.245,0,0,0,.539,1.547,1.861,1.861,0,0,0,1.418.545,2.948,2.948,0,0,0,1.863-.668v.9a3.485,3.485,0,0,1-2.091.574,2.535,2.535,0,0,1-2-.818,3.341,3.341,0,0,1-.727-2.3,3.284,3.284,0,0,1,.794-2.283,2.546,2.546,0,0,1,1.972-.882,2.255,2.255,0,0,1,1.822.762,3.174,3.174,0,0,1,.644,2.115ZM336.1,45.1a1.96,1.96,0,0,0-.4-1.3,1.367,1.367,0,0,0-1.1-.463,1.552,1.552,0,0,0-1.154.486,2.2,2.2,0,0,0-.586,1.272Z"/>
      <path d="M341.668,43.648a1.171,1.171,0,0,0-.726-.194,1.227,1.227,0,0,0-1.028.58,2.681,2.681,0,0,0-.413,1.583v3.058h-.961v-6h.961v1.236h.023a2.1,2.1,0,0,1,.627-.987,1.431,1.431,0,0,1,.943-.354,1.558,1.558,0,0,1,.574.082Z"/>
      <path d="M347.428,42.675l-2.39,6h-.944l-2.273-6h1.055l1.523,4.359a3.924,3.924,0,0,1,.211.838h.023a3.958,3.958,0,0,1,.188-.814l1.594-4.383Z"/>
      <path d="M353.282,45.915h-4.237a2.245,2.245,0,0,0,.54,1.547,1.857,1.857,0,0,0,1.417.545,2.953,2.953,0,0,0,1.864-.668v.9a3.49,3.49,0,0,1-2.092.574,2.535,2.535,0,0,1-2-.818,3.346,3.346,0,0,1-.727-2.3,3.284,3.284,0,0,1,.794-2.283,2.547,2.547,0,0,1,1.972-.882,2.254,2.254,0,0,1,1.822.762,3.175,3.175,0,0,1,.645,2.115ZM352.3,45.1a1.954,1.954,0,0,0-.4-1.3,1.367,1.367,0,0,0-1.1-.463,1.553,1.553,0,0,0-1.154.486,2.21,2.21,0,0,0-.586,1.272Z"/>
      <path d="M357.864,43.648a1.175,1.175,0,0,0-.727-.194,1.227,1.227,0,0,0-1.028.58,2.689,2.689,0,0,0-.413,1.583v3.058h-.961v-6h.961v1.236h.023a2.1,2.1,0,0,1,.627-.987,1.431,1.431,0,0,1,.944-.354,1.562,1.562,0,0,1,.574.082Z"/>
    </g>
    <g>
      <path d="M328.286,67.5v3.176H327.3v-8.4h2.309a3.046,3.046,0,0,1,2.089.657,2.341,2.341,0,0,1,.741,1.851,2.546,2.546,0,0,1-.823,1.957,3.145,3.145,0,0,1-2.224.762Zm0-4.336v3.445h1.031a2.3,2.3,0,0,0,1.556-.466,1.649,1.649,0,0,0,.536-1.315q0-1.663-1.969-1.664Z"/>
      <path d="M337.022,65.647a1.175,1.175,0,0,0-.727-.193,1.226,1.226,0,0,0-1.028.58,2.685,2.685,0,0,0-.413,1.582v3.059h-.961v-6h.961v1.236h.023a2.1,2.1,0,0,1,.627-.987,1.429,1.429,0,0,1,.944-.355,1.562,1.562,0,0,1,.574.082Z"/>
      <path d="M340.573,70.815a2.781,2.781,0,0,1-2.124-.841,3.109,3.109,0,0,1-.794-2.229,3.242,3.242,0,0,1,.826-2.361,2.968,2.968,0,0,1,2.232-.85,2.69,2.69,0,0,1,2.095.826,3.277,3.277,0,0,1,.753,2.291,3.223,3.223,0,0,1-.811,2.3A2.845,2.845,0,0,1,340.573,70.815Zm.07-5.472a1.831,1.831,0,0,0-1.465.629,2.59,2.59,0,0,0-.539,1.738,2.446,2.446,0,0,0,.545,1.681,1.85,1.85,0,0,0,1.459.616,1.759,1.759,0,0,0,1.433-.6,2.617,2.617,0,0,0,.5-1.717,2.662,2.662,0,0,0-.5-1.734A1.75,1.75,0,0,0,340.643,65.343Z"/>
      <path d="M349.186,70.4a3.117,3.117,0,0,1-1.641.416,2.716,2.716,0,0,1-2.071-.835,3.026,3.026,0,0,1-.788-2.165,3.326,3.326,0,0,1,.85-2.382,2.973,2.973,0,0,1,2.267-.9,3.163,3.163,0,0,1,1.395.293v.984a2.448,2.448,0,0,0-1.43-.468,1.932,1.932,0,0,0-1.509.659,2.5,2.5,0,0,0-.589,1.731,2.382,2.382,0,0,0,.554,1.664,1.906,1.906,0,0,0,1.486.61,2.406,2.406,0,0,0,1.476-.522Z"/>
      <path d="M355.461,67.915h-4.236a2.246,2.246,0,0,0,.539,1.547,1.861,1.861,0,0,0,1.418.545,2.948,2.948,0,0,0,1.863-.668v.9a3.478,3.478,0,0,1-2.091.574,2.534,2.534,0,0,1-2-.817,3.344,3.344,0,0,1-.727-2.3,3.281,3.281,0,0,1,.794-2.282A2.546,2.546,0,0,1,353,64.534a2.255,2.255,0,0,1,1.822.762,3.174,3.174,0,0,1,.644,2.115Zm-.984-.815a1.961,1.961,0,0,0-.4-1.295,1.37,1.37,0,0,0-1.1-.462,1.552,1.552,0,0,0-1.154.486,2.2,2.2,0,0,0-.586,1.271Z"/>
      <path d="M356.551,70.458V69.427a2.851,2.851,0,0,0,1.729.58q1.266,0,1.265-.844a.733.733,0,0,0-.108-.407,1.069,1.069,0,0,0-.293-.3,2.261,2.261,0,0,0-.434-.232c-.166-.068-.344-.139-.536-.214a6.724,6.724,0,0,1-.7-.319,2.105,2.105,0,0,1-.5-.363,1.342,1.342,0,0,1-.3-.46,1.615,1.615,0,0,1-.1-.6,1.433,1.433,0,0,1,.193-.747,1.719,1.719,0,0,1,.516-.545,2.439,2.439,0,0,1,.735-.331,3.278,3.278,0,0,1,.853-.111,3.436,3.436,0,0,1,1.394.27v.972a2.716,2.716,0,0,0-1.523-.433,1.775,1.775,0,0,0-.486.061,1.185,1.185,0,0,0-.372.173.794.794,0,0,0-.241.267.7.7,0,0,0-.085.342.831.831,0,0,0,.085.393.877.877,0,0,0,.249.281,1.961,1.961,0,0,0,.4.223q.234.1.533.217a7.36,7.36,0,0,1,.715.313,2.511,2.511,0,0,1,.539.363,1.426,1.426,0,0,1,.343.466,1.505,1.505,0,0,1,.12.627,1.489,1.489,0,0,1-.2.774,1.682,1.682,0,0,1-.525.544,2.413,2.413,0,0,1-.756.323,3.746,3.746,0,0,1-.9.105A3.41,3.41,0,0,1,356.551,70.458Z"/>
      <path d="M361.643,70.458V69.427a2.851,2.851,0,0,0,1.729.58q1.264,0,1.265-.844a.733.733,0,0,0-.108-.407,1.069,1.069,0,0,0-.293-.3,2.291,2.291,0,0,0-.434-.232c-.166-.068-.344-.139-.536-.214a6.724,6.724,0,0,1-.7-.319,2.105,2.105,0,0,1-.5-.363,1.36,1.36,0,0,1-.305-.46,1.636,1.636,0,0,1-.1-.6,1.433,1.433,0,0,1,.193-.747,1.719,1.719,0,0,1,.516-.545,2.439,2.439,0,0,1,.735-.331,3.278,3.278,0,0,1,.853-.111,3.436,3.436,0,0,1,1.394.27v.972a2.716,2.716,0,0,0-1.523-.433,1.788,1.788,0,0,0-.487.061,1.206,1.206,0,0,0-.372.173.8.8,0,0,0-.24.267.7.7,0,0,0-.085.342.831.831,0,0,0,.085.393.877.877,0,0,0,.249.281,1.934,1.934,0,0,0,.4.223q.234.1.533.217a7.469,7.469,0,0,1,.715.313,2.511,2.511,0,0,1,.539.363,1.441,1.441,0,0,1,.343.466,1.505,1.505,0,0,1,.12.627,1.48,1.48,0,0,1-.2.774,1.679,1.679,0,0,1-.524.544,2.413,2.413,0,0,1-.756.323,3.746,3.746,0,0,1-.9.105A3.407,3.407,0,0,1,361.643,70.458Z"/>
      <path d="M326.809,83.658V82.627a2.851,2.851,0,0,0,1.729.58q1.264,0,1.265-.844a.733.733,0,0,0-.108-.407,1.083,1.083,0,0,0-.293-.3,2.235,2.235,0,0,0-.434-.231c-.166-.069-.344-.14-.536-.214a6.93,6.93,0,0,1-.7-.32,2.105,2.105,0,0,1-.5-.363,1.36,1.36,0,0,1-.305-.46,1.634,1.634,0,0,1-.1-.6,1.435,1.435,0,0,1,.193-.748,1.715,1.715,0,0,1,.516-.544,2.391,2.391,0,0,1,.735-.331,3.236,3.236,0,0,1,.853-.112,3.436,3.436,0,0,1,1.394.27v.972a2.716,2.716,0,0,0-1.523-.433,1.788,1.788,0,0,0-.487.061,1.206,1.206,0,0,0-.372.173.8.8,0,0,0-.24.267.709.709,0,0,0-.085.343.827.827,0,0,0,.085.392.866.866,0,0,0,.249.281,1.889,1.889,0,0,0,.4.223c.156.066.334.139.533.217a7.469,7.469,0,0,1,.715.313,2.477,2.477,0,0,1,.539.364,1.437,1.437,0,0,1,.343.465,1.505,1.505,0,0,1,.12.627,1.48,1.48,0,0,1-.2.774,1.682,1.682,0,0,1-.524.545,2.411,2.411,0,0,1-.756.322,3.746,3.746,0,0,1-.9.105A3.407,3.407,0,0,1,326.809,83.658Z"/>
      <path d="M337.086,81.115H332.85a2.245,2.245,0,0,0,.539,1.547,1.861,1.861,0,0,0,1.418.545,2.948,2.948,0,0,0,1.863-.668v.9a3.478,3.478,0,0,1-2.091.574,2.534,2.534,0,0,1-2-.817,3.342,3.342,0,0,1-.727-2.3,3.283,3.283,0,0,1,.794-2.282,2.546,2.546,0,0,1,1.972-.882,2.255,2.255,0,0,1,1.822.762,3.174,3.174,0,0,1,.644,2.115ZM336.1,80.3a1.958,1.958,0,0,0-.4-1.3,1.367,1.367,0,0,0-1.1-.463,1.552,1.552,0,0,0-1.154.486,2.2,2.2,0,0,0-.586,1.272Z"/>
      <path d="M341.668,78.847a1.178,1.178,0,0,0-.726-.193,1.225,1.225,0,0,0-1.028.58,2.678,2.678,0,0,0-.413,1.582v3.059h-.961v-6h.961v1.236h.023a2.1,2.1,0,0,1,.627-.987,1.427,1.427,0,0,1,.943-.355,1.579,1.579,0,0,1,.574.082Z"/>
      <path d="M347.428,77.875l-2.39,6h-.944l-2.273-6h1.055l1.523,4.359a3.91,3.91,0,0,1,.211.838h.023a3.943,3.943,0,0,1,.188-.814l1.594-4.383Z"/>
      <path d="M353.282,81.115h-4.237a2.245,2.245,0,0,0,.54,1.547,1.857,1.857,0,0,0,1.417.545,2.953,2.953,0,0,0,1.864-.668v.9a3.483,3.483,0,0,1-2.092.574,2.534,2.534,0,0,1-2-.817,3.347,3.347,0,0,1-.727-2.3,3.283,3.283,0,0,1,.794-2.282,2.547,2.547,0,0,1,1.972-.882,2.254,2.254,0,0,1,1.822.762,3.175,3.175,0,0,1,.645,2.115ZM352.3,80.3a1.952,1.952,0,0,0-.4-1.3,1.367,1.367,0,0,0-1.1-.463,1.553,1.553,0,0,0-1.154.486,2.207,2.207,0,0,0-.586,1.272Z"/>
      <path d="M357.864,78.847a1.181,1.181,0,0,0-.727-.193,1.225,1.225,0,0,0-1.028.58,2.685,2.685,0,0,0-.413,1.582v3.059h-.961v-6h.961v1.236h.023a2.1,2.1,0,0,1,.627-.987,1.427,1.427,0,0,1,.944-.355,1.583,1.583,0,0,1,.574.082Z"/>
    </g>
    <g>
      <path d="M169.283,61.57a8.33,8.33,0,0,1-.229,2.053,4.573,4.573,0,0,1-.668,1.524,2.957,2.957,0,0,1-1.072.949,3.1,3.1,0,0,1-1.441.325,3.442,3.442,0,0,1-1.465-.293v-.92a2.984,2.984,0,0,0,1.488.393,2.166,2.166,0,0,0,1.017-.234,2.116,2.116,0,0,0,.758-.683,3.344,3.344,0,0,0,.475-1.1,6.247,6.247,0,0,0,.164-1.505h-.023a1.921,1.921,0,0,1-1.875,1.084,2.523,2.523,0,0,1-.991-.191,2.283,2.283,0,0,1-.779-.539,2.46,2.46,0,0,1-.51-.829,2.98,2.98,0,0,1-.181-1.061,3.078,3.078,0,0,1,.2-1.136,2.654,2.654,0,0,1,.562-.888,2.532,2.532,0,0,1,.856-.577,2.79,2.79,0,0,1,1.081-.2,2.391,2.391,0,0,1,1.122.255,2.246,2.246,0,0,1,.823.744,3.66,3.66,0,0,1,.51,1.2A6.878,6.878,0,0,1,169.283,61.57Zm-1.037-.862a2.918,2.918,0,0,0-.126-.884,2.145,2.145,0,0,0-.349-.683,1.561,1.561,0,0,0-.53-.44,1.475,1.475,0,0,0-.671-.155,1.521,1.521,0,0,0-.645.138,1.548,1.548,0,0,0-.518.387,1.839,1.839,0,0,0-.346.591,2.153,2.153,0,0,0-.126.747,2.458,2.458,0,0,0,.12.8,1.665,1.665,0,0,0,.343.595,1.478,1.478,0,0,0,.536.372,1.81,1.81,0,0,0,.694.129,1.589,1.589,0,0,0,.63-.126,1.66,1.66,0,0,0,.516-.34,1.561,1.561,0,0,0,.472-1.128Z"/>
      <path d="M174.849,57.872v5.549h1.078V64.3h-1.078v1.975H173.9V64.3h-3.949v-.832q.551-.621,1.113-1.327t1.075-1.433q.513-.726.949-1.45a13.129,13.129,0,0,0,.736-1.386Zm-3.814,5.549H173.9V59.308q-.44.768-.832,1.371t-.747,1.1q-.354.492-.677.89Z"/>
      <path d="M181.318,57.872v5.549H182.4V64.3h-1.078v1.975h-.949V64.3h-3.95v-.832q.552-.621,1.114-1.327t1.075-1.433q.513-.726.949-1.45a13.317,13.317,0,0,0,.736-1.386ZM177.5,63.421h2.866V59.308q-.44.768-.832,1.371t-.747,1.1q-.355.492-.677.89Z"/>
      <path d="M188.39,63.9a2.443,2.443,0,0,1-.214,1.034,2.271,2.271,0,0,1-.6.8,2.794,2.794,0,0,1-.935.513,3.779,3.779,0,0,1-1.2.181,3.487,3.487,0,0,1-1.91-.457V64.933a3.062,3.062,0,0,0,1.945.668,2.65,2.65,0,0,0,.794-.111,1.8,1.8,0,0,0,.61-.323,1.436,1.436,0,0,0,.392-.509,1.592,1.592,0,0,0,.138-.674q0-1.647-2.344-1.647h-.7v-.814h.662q2.075,0,2.074-1.547,0-1.429-1.582-1.43a2.691,2.691,0,0,0-1.67.6v-.932a3.653,3.653,0,0,1,1.91-.48,2.95,2.95,0,0,1,.955.146,2.2,2.2,0,0,1,.733.41,1.817,1.817,0,0,1,.471.633,1.945,1.945,0,0,1,.167.815,2.05,2.05,0,0,1-1.675,2.132v.024a2.626,2.626,0,0,1,.791.208,2.106,2.106,0,0,1,.627.419,1.89,1.89,0,0,1,.413.606A1.952,1.952,0,0,1,188.39,63.9Z"/>
      <path d="M196.054,68.185H195.2a7.488,7.488,0,0,1-1.817-5.115,7.773,7.773,0,0,1,1.817-5.2h.867a7.9,7.9,0,0,0-1.84,5.186A7.758,7.758,0,0,0,196.054,68.185Z"/>
      <path d="M203.6,66.275h-.984V62.443h-4.348v3.832h-.984v-8.4h.984v3.686h4.348V57.872h.984Z"/>
      <path d="M210.773,58.763h-2.426v7.512h-.984V58.763h-2.42v-.891h5.83Z"/>
      <path d="M217.294,58.763h-2.425v7.512h-.985V58.763h-2.42v-.891h5.83Z"/>
      <path d="M219.6,63.1v3.176h-.984v-8.4h2.308a3.044,3.044,0,0,1,2.089.657,2.342,2.342,0,0,1,.742,1.851,2.547,2.547,0,0,1-.824,1.957,3.144,3.144,0,0,1-2.223.762Zm0-4.336v3.445h1.031a2.3,2.3,0,0,0,1.556-.466,1.646,1.646,0,0,0,.536-1.315q0-1.664-1.968-1.664Z"/>
      <path d="M224.941,65.935v-1.16a2.284,2.284,0,0,0,.477.316,3.819,3.819,0,0,0,.586.237,4.606,4.606,0,0,0,.619.15,3.46,3.46,0,0,0,.574.053,2.253,2.253,0,0,0,1.356-.337,1.262,1.262,0,0,0,.3-1.562,1.69,1.69,0,0,0-.413-.46,4.1,4.1,0,0,0-.624-.4q-.36-.191-.776-.4-.439-.222-.821-.451a3.535,3.535,0,0,1-.662-.5,2.087,2.087,0,0,1-.442-.624,2.127,2.127,0,0,1,.091-1.816,2.151,2.151,0,0,1,.662-.7,2.971,2.971,0,0,1,.934-.41,4.276,4.276,0,0,1,1.07-.135,4.084,4.084,0,0,1,1.81.3v1.107a3.28,3.28,0,0,0-1.91-.516,3.125,3.125,0,0,0-.644.068,1.839,1.839,0,0,0-.575.219,1.284,1.284,0,0,0-.41.393,1.047,1.047,0,0,0-.158.586,1.211,1.211,0,0,0,.12.557,1.356,1.356,0,0,0,.355.427,3.487,3.487,0,0,0,.571.375q.336.181.776.4t.856.469a3.928,3.928,0,0,1,.709.544,2.423,2.423,0,0,1,.483.663,1.861,1.861,0,0,1,.179.832,2.108,2.108,0,0,1-.243,1.051,2.006,2.006,0,0,1-.657.7,2.868,2.868,0,0,1-.952.389,5.216,5.216,0,0,1-1.137.12,4.511,4.511,0,0,1-.492-.032c-.195-.021-.394-.053-.6-.094a4.826,4.826,0,0,1-.578-.152A1.822,1.822,0,0,1,224.941,65.935Z"/>
      <path d="M231.6,68.185h-.855a7.763,7.763,0,0,0,1.828-5.127,7.9,7.9,0,0,0-1.84-5.186h.867a7.741,7.741,0,0,1,1.828,5.2A7.458,7.458,0,0,1,231.6,68.185Z"/>
    </g>
  </g>
</svg>
